<?xml version="1.0" standalone="no"?>
<!DOCTYPE svg PUBLIC "-//W3C//DTD SVG 20010904//EN"
 "http://www.w3.org/TR/2001/REC-SVG-20010904/DTD/svg10.dtd">
<svg version="1.0" xmlns="http://www.w3.org/2000/svg"
 width="1000.000000pt" height="1000.000000pt" viewBox="0 0 1000.000000 1000.000000"
 preserveAspectRatio="xMidYMid meet">
<metadata>
Created by potrace 1.11, written by Peter Selinger 2001-2013
</metadata>
<g transform="translate(0.000000,1000.000000) scale(0.100000,-0.100000)"
fill="#000000" stroke="none">
<path d="M8167 9724 c-1 -1 -65 -5 -142 -9 -77 -3 -160 -8 -185 -10 -108 -8
-207 -17 -230 -20 -14 -2 -47 -6 -75 -9 -102 -12 -221 -26 -240 -30 -11 -2
-42 -7 -70 -10 -44 -6 -164 -26 -250 -42 -1096 -201 -2146 -632 -3075 -1262
-108 -73 -466 -335 -480 -351 -3 -3 -27 -24 -55 -46 -27 -21 -52 -42 -55 -45
-3 -3 -25 -21 -50 -41 -25 -20 -56 -47 -70 -59 -14 -12 -49 -42 -79 -68 -186
-160 -495 -462 -647 -632 -27 -30 -54 -59 -60 -65 -40 -39 -270 -312 -366
-435 -480 -617 -910 -1368 -1173 -2050 -21 -52 -43 -108 -50 -125 -64 -150
-238 -710 -290 -935 -5 -20 -71 -313 -84 -370 -6 -25 -17 -85 -26 -135 -8 -49
-17 -100 -19 -111 -2 -12 -7 -39 -11 -60 -3 -22 -7 -50 -10 -64 -2 -14 -9 -63
-15 -110 -6 -47 -13 -96 -15 -110 -5 -36 -13 -106 -20 -175 -3 -33 -8 -71 -10
-85 -2 -14 -7 -72 -11 -130 -3 -58 -7 -121 -9 -140 -11 -108 -18 -564 -17
-1145 0 -363 1 -667 1 -675 1 -24 1625 -20 1881 5 25 2 79 7 120 10 41 3 86 8
100 10 14 2 55 6 92 10 37 3 77 8 90 10 13 3 46 7 73 10 28 3 59 7 70 9 11 2
43 7 70 10 28 4 61 9 75 11 14 2 41 7 60 10 19 3 46 8 60 10 14 3 36 7 50 10
14 3 48 9 75 15 28 5 61 11 75 14 40 6 258 56 345 78 44 11 87 21 95 23 40 8
282 79 406 119 526 169 1012 380 1499 651 95 53 350 207 382 231 17 13 34 24
38 24 8 0 272 181 386 264 133 98 245 183 272 205 12 11 81 67 152 127 72 59
132 110 135 113 3 3 46 42 95 86 196 174 469 447 620 619 33 38 71 81 85 96
62 68 206 244 341 417 134 172 359 502 498 733 45 74 86 142 91 150 6 8 13 22
17 30 4 8 33 62 66 120 244 437 481 993 650 1525 52 163 152 537 170 635 3 14
12 55 21 93 9 37 18 82 21 100 3 17 8 39 10 47 2 8 6 33 10 55 3 22 7 47 10
55 2 8 6 31 9 50 3 19 8 46 11 60 2 13 7 40 10 60 3 20 7 45 9 55 2 11 7 45
11 75 4 30 9 63 10 72 2 9 6 44 10 77 3 33 7 68 9 78 2 10 7 56 11 103 4 47 9
93 11 103 2 10 6 59 9 110 3 51 8 110 10 132 11 118 18 554 17 1145 0 366 -1
672 -1 682 -1 15 -60 16 -776 15 -427 0 -776 -2 -778 -3z"/>
</g>
</svg>
