<svg width="313" height="417" viewBox="0 0 313 417" fill="none" xmlns="http://www.w3.org/2000/svg">
<path d="M152.792 82.9736C171.875 82.8863 189.852 86.3833 207.088 94.4307C263.221 120.639 292.298 187.238 273.025 246.301C257.622 293.506 215.782 327.757 166.341 331.714C165.508 331.78 164.331 332.023 163.304 332.168C162.209 332.323 161.251 332.376 160.625 332.171L160.456 332.115L160.291 332.179C159.237 332.581 157.804 332.597 156.256 332.479C155.49 332.421 154.72 332.333 153.972 332.252C153.23 332.172 152.507 332.098 151.862 332.075C56.8035 328.672 1.78473 219.168 54.7139 138.946C77.2292 104.821 112.333 85.1599 152.792 82.9736ZM171.009 258.155C165.102 255.556 158.61 254.304 152.716 255.323C142.543 256.346 133.028 261.12 126.485 269.099C125.454 270.356 123.955 272.263 122.753 274.279C122.152 275.288 121.618 276.335 121.255 277.352C120.894 278.363 120.691 279.376 120.784 280.305C121.122 283.662 124.554 285.726 127.661 285.092C128.46 284.929 129.189 284.428 129.882 283.766C130.578 283.1 131.285 282.227 132.031 281.247C133.536 279.271 135.233 276.828 137.472 274.487C141.916 269.84 148.463 265.633 159.59 266.852C168.494 268.181 173.495 272.443 176.88 276.479C178.601 278.531 179.856 280.46 181.071 282.036C181.666 282.807 182.249 283.486 182.849 284C183.451 284.515 184.098 284.888 184.824 285.002C186.246 285.226 187.798 284.945 189.054 284.222C190.316 283.495 191.307 282.301 191.521 280.703C191.791 278.693 190.903 276.472 189.74 274.477C188.567 272.462 187.054 270.576 185.945 269.215C182.297 264.734 176.924 260.759 171.009 258.155ZM92.0049 174.3C88.7542 174.514 86.4956 177.781 86.8691 180.839C87.0892 182.641 88.2195 183.878 89.502 184.858C90.1433 185.348 90.842 185.789 91.5068 186.206C91.9888 186.509 92.4508 186.799 92.877 187.094C81.0102 198.1 81.1639 217.33 91.7207 229.199C107.889 247.375 137.5 241.551 143.938 217.404C146.674 218.08 149.18 216.826 150.496 214.856C151.905 212.748 151.963 209.799 149.56 207.519H149.559C148.395 206.415 145.868 204.862 143.307 203.38C140.706 201.875 138.05 200.431 136.504 199.498L136.5 199.496L107.577 182.342L107.574 182.34L106.929 181.948C106.225 181.51 105.352 180.936 104.369 180.293C103.066 179.44 101.581 178.475 100.083 177.574C98.5863 176.674 97.0632 175.831 95.6826 175.227C94.3222 174.631 93.0245 174.233 92.0049 174.3ZM222.604 174.6C221.21 174.185 219.656 174.175 218.452 174.721C215.773 175.935 213.111 177.673 210.586 179.197L209.512 179.836L173.338 200.999C172.626 201.409 171.599 201.926 170.416 202.543C169.243 203.155 167.933 203.858 166.691 204.624C165.452 205.389 164.262 206.227 163.336 207.115C162.476 207.94 161.795 208.853 161.558 209.835L161.516 210.032C161.058 212.601 162.133 214.48 163.861 215.487C165.382 216.373 167.376 216.568 169.213 216.046C170.656 230.296 184.692 239.437 198.133 239.548C225.187 239.771 239.738 208.202 219.474 187.158C222.734 185.237 224.7 183.424 225.708 181.769C226.788 179.994 226.771 178.387 226.042 177.106C225.333 175.862 224 175.014 222.604 174.6ZM113.228 159.208C111.747 158.497 110.15 158.073 108.204 158.357L108.153 158.365L108.104 158.383C106.059 159.134 104.577 160.761 104.092 162.616C103.601 164.494 104.147 166.561 106.062 168.101C107.682 169.402 113.895 173.553 120.229 177.247C123.4 179.096 126.618 180.84 129.32 182.06C130.671 182.669 131.904 183.154 132.946 183.454C133.964 183.748 134.883 183.891 135.558 183.733L135.588 183.727L135.617 183.716C137.59 182.989 139.184 181.412 139.785 179.594C140.4 177.736 139.96 175.668 137.944 174.108C135.034 171.858 131.38 170.075 128.306 168.216L128.303 168.215L117.524 161.768L117.521 161.767L116.972 161.434C116.429 161.099 115.904 160.76 115.372 160.426C114.669 159.985 113.962 159.561 113.228 159.208ZM209.116 161.923C208.307 159.713 205.982 158.148 202.774 158.354L202.706 158.357L202.642 158.38C201.804 158.673 199.682 159.729 196.993 161.161C194.286 162.603 190.961 164.451 187.689 166.355C184.419 168.259 181.195 170.222 178.693 171.894C177.443 172.729 176.366 173.497 175.551 174.151C175.143 174.478 174.795 174.782 174.521 175.057C174.254 175.324 174.029 175.591 173.9 175.844C172.743 178.116 173.308 180.243 174.699 181.713C176.068 183.159 178.235 183.976 180.343 183.744L180.42 183.735L180.49 183.704C182.804 182.683 188.332 179.667 193.751 176.561C199.168 173.455 204.538 170.223 206.528 168.762C209.157 166.832 209.926 164.135 209.116 161.923Z" fill="#FEB719" stroke="black"/>
<path d="M135.444 183.247C131.122 184.256 109.554 170.265 106.375 167.711C102.848 164.876 104.47 160.25 108.277 158.853C111.921 158.321 114.259 160.42 117.267 162.197L128.046 168.644C131.179 170.539 134.756 172.276 137.638 174.505C141.331 177.36 139.135 181.887 135.444 183.247Z" fill="black"/>
<path d="M180.288 183.247C176.38 183.677 172.241 180.202 174.345 176.071C175.826 173.162 199.632 159.963 202.806 158.852C208.851 158.465 211.192 164.718 206.233 168.358C202.306 171.24 184.858 181.231 180.288 183.247Z" fill="black"/>
<path d="M93.6686 187.05C91.3773 185.301 87.757 183.988 87.3652 180.779C87.021 177.962 89.1148 174.992 92.0369 174.799C95.6004 174.565 104.147 180.921 107.322 182.772L136.244 199.927C139.338 201.794 146.99 205.772 149.214 207.882C153.637 212.078 148.975 218.58 143.584 216.783L111.011 197.098C106.219 194.19 98.5677 189.067 93.6686 187.05Z" fill="black"/>
<path d="M218.667 187.05L169.656 215.376C165.913 216.809 161.166 214.841 162.008 210.121C162.651 206.515 170.693 203.1 173.587 201.433L209.764 180.269C212.648 178.587 215.627 176.55 218.659 175.177C222.917 173.247 232.928 178.957 218.667 187.05Z" fill="black"/>
<path d="M201.32 226.833C182.219 225.94 185.369 203.944 198.464 203.287C210.597 199.401 219.871 222.154 201.32 226.833Z" fill="black"/>
<path d="M112.833 226.833C97.4555 226.335 96.5214 204.555 113.488 203.287C129.56 204.408 128.855 226.133 112.833 226.833Z" fill="black"/>
<path d="M159.646 266.355C137.018 263.875 132.871 283.516 127.559 284.602C124.696 285.186 121.584 283.273 121.28 280.255C120.948 276.95 124.816 271.921 126.87 269.416C133.327 261.543 142.723 256.828 152.78 255.82C164.333 253.812 178.372 260.706 185.556 269.531C187.775 272.256 191.517 276.964 191.024 280.637C190.644 283.466 187.521 284.921 184.9 284.508C180.069 283.748 177.778 269.054 159.646 266.355Z" fill="black"/>
</svg>
