<svg width="64" height="67" viewBox="0 0 64 67" fill="none" xmlns="http://www.w3.org/2000/svg">
<path class="fill-primary-dark"  d="M54.113 62.7763C52.9775 62.0684 52.3379 61.6063 51.6213 61.2312C34.8886 52.4686 21.8764 41.0091 11.4343 27.7794C6.38578 21.3818 2.4639 14.5416 0.768717 7.0758C0.367499 5.30771 0.191332 3.50647 0.00626845 1.71436C-0.0455494 1.21687 0.235748 0.696487 0.413409 0C1.87615 0.663322 1.89537 1.54968 2.12485 2.32165C3.98437 8.56485 6.90988 14.5038 10.5786 20.2393C14.9979 27.1504 20.7142 33.3798 27.0078 39.344C34.8071 46.7365 43.5481 53.308 53.8302 58.6203C54.6134 59.0251 55.4529 59.3636 56.2672 59.733C56.4345 59.629 56.6017 59.5237 56.769 59.4197C56.4655 58.722 56.162 58.0256 55.8615 57.3279C55.0191 55.3769 54.1441 53.4326 53.3594 51.4678C53.1447 50.9315 52.9759 50.2682 53.198 49.7741C53.4364 49.2446 54.0671 48.6247 54.7037 48.4635C55.176 48.3445 56.1058 48.7894 56.5159 49.1794C57.0163 49.6563 57.2132 50.3322 57.4974 50.9349C59.5761 55.3448 61.6251 59.7628 63.726 64.1658C64.404 65.5862 63.834 66.5618 61.902 66.8877C61.1795 67.009 60.4067 67.0147 59.662 66.985C54.1619 66.7619 48.7195 66.2301 43.4045 65.0648C43.1646 65.0121 42.9025 64.995 42.6849 64.9092C41.7433 64.5387 40.9276 64.0469 41.2207 63.1217C41.4976 62.2491 42.4036 61.9094 43.5051 61.9266C44.081 61.9357 44.6555 62.0444 45.2285 62.1187C47.4463 62.4069 49.6581 62.7214 51.8819 62.9753C52.3882 63.0325 52.933 62.8895 54.113 62.7763Z" />
</svg>
