<svg width="12" height="13" viewBox="0 0 12 13" fill="none" xmlns="http://www.w3.org/2000/svg">
<g clip-path="url(#clip0_13382_2374)">
<path fill-rule="evenodd" clip-rule="evenodd" d="M3.08326 11.2051C3.94662 11.7819 4.96165 12.0898 6 12.0898C7.39239 12.0898 8.72775 11.5367 9.71231 10.5522C10.6969 9.56759 11.25 8.23223 11.25 6.83985C11.25 5.80149 10.9421 4.78646 10.3652 3.9231C9.78834 3.05974 8.9684 2.38684 8.00909 1.98948C7.04978 1.59212 5.99418 1.48815 4.97578 1.69072C3.95738 1.8933 3.02192 2.39331 2.28769 3.12754C1.55347 3.86176 1.05345 4.79722 0.85088 5.81562C0.648307 6.83402 0.752275 7.88962 1.14963 8.84893C1.54699 9.80825 2.2199 10.6282 3.08326 11.2051ZM3.49994 3.09823C4.23996 2.60377 5.10999 2.33985 6 2.33985C7.19348 2.33985 8.33807 2.81395 9.18198 3.65787C10.0259 4.50178 10.5 5.64637 10.5 6.83985C10.5 7.72986 10.2361 8.59989 9.74162 9.33991C9.24715 10.0799 8.54434 10.6567 7.72208 10.9973C6.89981 11.3379 5.99501 11.427 5.1221 11.2534C4.24918 11.0797 3.44736 10.6512 2.81802 10.0218C2.18869 9.39249 1.7601 8.59067 1.58647 7.71775C1.41284 6.84484 1.50195 5.94004 1.84254 5.11777C2.18314 4.2955 2.75992 3.5927 3.49994 3.09823ZM6 3.83984C5.88875 3.83984 5.77999 3.87283 5.68749 3.93464C5.59499 3.99645 5.52289 4.0843 5.48032 4.18708C5.43774 4.28987 5.4266 4.40297 5.44831 4.51208C5.47001 4.6212 5.52359 4.72142 5.60225 4.80009C5.68092 4.87876 5.78115 4.93233 5.89026 4.95404C5.99938 4.97574 6.11248 4.9646 6.21526 4.92203C6.31804 4.87945 6.40589 4.80735 6.4677 4.71485C6.52951 4.62235 6.5625 4.5136 6.5625 4.40234C6.5625 4.25316 6.50324 4.11009 6.39775 4.0046C6.29226 3.89911 6.14919 3.83984 6 3.83984ZM6.375 9.08984V6.08984H4.875V6.83984H5.625V9.08984H4.5V9.83984H7.5V9.08984H6.375Z" fill="#68951D"/>
</g>
<defs>
<clipPath id="clip0_13382_2374">
<rect width="12" height="12" fill="white" transform="translate(0 0.839844)"/>
</clipPath>
</defs>
</svg>
