<svg width="313" height="417" viewBox="0 0 313 417" fill="none" xmlns="http://www.w3.org/2000/svg">
<path d="M156.404 332.341C155.234 332.963 146.926 331.996 145.319 331.861C82.2907 326.565 33.6783 271.657 33.4481 208.626C33.2006 140.825 88.5024 84.4042 156.404 84.2409C209.197 83.6319 256.433 119.982 273.322 169.506C283.563 199.537 280.615 235.065 266.749 263.36C246.624 304.425 206.898 329.771 161.832 332.401C160.43 332.483 157.667 332.961 156.404 332.341ZM107.092 242.634C106.627 244.324 106.84 246.511 106.926 248.248C107.606 262.009 118.008 283.568 131.471 288.584C133.709 289.54 135.834 290.864 138.142 291.631C150.498 295.739 169.286 295.613 180.785 288.584C195.028 281.794 209.523 259.396 205.725 243.729C202.815 239.488 188.048 240.318 183.517 240.319L165.81 240.32C157.032 240.321 111.554 238.02 107.092 242.634ZM211.35 162.964C204.145 163.025 198.176 166.506 193.245 171.561C188.462 176.464 190.702 182.637 196.124 182.3C201.058 181.993 203.9 174.809 211.35 173.905C221.575 174.067 224.434 186.139 230.686 180.02C238.317 172.55 219.916 161.741 211.35 162.964ZM98.6113 162.964C93.4859 163.549 79.2432 169.613 80.0306 176.45C80.3601 179.31 83.4693 182.06 86.4019 181.614C92.2046 180.732 94.9476 171.869 104.179 174.912C108.837 176.787 113.563 184.208 118.655 182.143C121.578 180.957 123.088 177.45 121.798 174.554C118.722 167.653 106.4 162.374 98.6113 162.964ZM81.6757 182.682C80.2207 182.945 79.1216 183.278 78.2431 184.575C73.339 191.806 84.832 195.249 89.4824 197.505C96.2968 200.811 103.264 204.05 109.929 207.638C102.641 210.758 85.1762 218 78.7303 222.246C74.6791 224.914 76.3144 235.892 87.9993 230.168L88.1625 230.088C97.0139 225.93 118.173 216.795 125.554 211.431C134.335 205.051 119.046 199.192 115.285 197.344L96.8538 188.284C92.3593 186.105 86.9178 181.635 81.6757 182.682ZM229.071 182.682C220.332 185.738 208.666 192.066 200.259 196.205C196.403 198.103 188.015 200.593 185.99 204.681C181.961 212.818 198.036 217.434 203.451 220.099C210.995 223.812 218.491 227.882 226.139 231.351L226.252 231.402C234.41 234.578 239.944 225.694 233.939 221.932C228.132 218.293 210.182 209.874 204.038 207.638C206.744 205.98 209.666 204.673 212.525 203.302L226.666 196.618C230.851 194.622 239.508 191.846 235.459 185.447C234.019 183.17 231.611 182.427 229.071 182.682Z" fill="#FEB719"/>
<path d="M211.349 173.904C203.899 174.809 201.057 181.992 196.123 182.299C190.701 182.636 188.461 176.463 193.244 171.56C198.176 166.506 204.144 163.024 211.349 162.964C219.915 161.741 238.317 172.549 230.685 180.019C224.433 186.139 221.574 174.066 211.349 173.904Z" fill="black"/>
<path d="M104.178 174.911C94.9464 171.869 92.2034 180.732 86.4007 181.614C83.4682 182.06 80.3589 179.31 80.0294 176.45C79.242 169.613 93.4848 163.549 98.6101 162.964C106.398 162.374 118.72 167.653 121.797 174.554C123.087 177.45 121.577 180.957 118.654 182.143C113.561 184.208 108.836 176.787 104.178 174.911Z" fill="black"/>
<path d="M109.929 207.638C103.263 204.05 96.2964 200.812 89.482 197.505C84.8316 195.249 73.3386 191.806 78.2427 184.575C79.1212 183.279 80.2203 182.945 81.6753 182.682C86.9174 181.635 92.3589 186.105 96.8534 188.284L115.284 197.344C119.045 199.192 134.334 205.051 125.554 211.432C118.173 216.795 97.0135 225.93 88.1621 230.088L87.9989 230.168C76.314 235.892 74.6787 224.914 78.7299 222.246C85.1758 218 102.641 210.758 109.929 207.638Z" fill="black"/>
<path d="M226.253 231.402L226.139 231.351C218.491 227.882 210.995 223.812 203.451 220.099C198.036 217.434 181.961 212.818 185.99 204.681C188.015 200.592 196.403 198.103 200.259 196.205C208.666 192.066 220.332 185.738 229.071 182.682C231.611 182.427 234.019 183.17 235.459 185.447C239.508 191.846 230.851 194.622 226.666 196.618L212.525 203.302C209.667 204.673 206.744 205.98 204.039 207.638C210.183 209.874 228.132 218.293 233.939 221.932C239.944 225.694 234.411 234.578 226.253 231.402Z" fill="black"/>
<path d="M107.092 242.634C111.554 238.02 157.032 240.321 165.81 240.32L183.518 240.32C188.048 240.318 202.815 239.488 205.725 243.73C186.267 267.506 126.747 267.37 107.092 242.634Z" fill="white"/>
<path d="M131.47 288.583C118.006 283.568 107.605 262.008 106.925 248.247C106.839 246.51 106.626 244.323 107.091 242.634C126.746 267.369 186.265 267.505 205.724 243.729C209.522 259.396 195.026 281.794 180.784 288.583C168.321 271.647 144.624 272.905 131.47 288.583Z" fill="black"/>
</svg>
