<svg width="313" height="417" viewBox="0 0 313 417" fill="none" xmlns="http://www.w3.org/2000/svg">
<path d="M163.122 333.312C161.777 333.932 152.9 333.254 151.134 333.181C57.4699 329.275 2.87121 223.47 51.1998 144.583C73.2998 108.51 108.092 88.5769 150.168 84.6961C193.151 82.4906 234.563 103.956 258.583 139.675C310.483 216.852 260.745 322.765 171.089 332.467C169.355 332.655 164.532 333.588 163.122 333.312ZM96.0424 173.124C89.8393 174.02 89.8118 178.9 90.8131 184.149C95.3455 207.912 128.507 211.345 138.219 189.084C139.54 185.724 141.13 180.031 139.563 176.532C138.072 173.202 133.89 172.053 130.774 173.782C127.756 175.458 127.937 178.98 127.496 181.916C125.574 194.703 105.421 195.023 103.064 182.015C102.372 178.201 102.269 171.736 96.0424 173.124ZM177.962 173.124C171.507 174.889 172.558 181.879 174.159 187.027C180.971 208.931 212.054 209.849 220.888 188.189C222.016 184.92 223.458 179.725 221.798 176.448C220.24 173.372 216.341 172.149 213.315 173.786C210.13 175.509 210.269 178.942 209.817 182.023C208.125 193.546 192.044 195.462 186.553 185.475C183.807 180.481 186.882 172.358 177.962 173.124ZM104.773 223.828C96.6415 225.432 82.2765 240.749 83.9803 248.878C85.1901 254.653 92.6416 255.264 96.0424 248.694C110.654 265.331 128.679 275.981 151.113 277.431C174.416 278.936 203.217 268.012 217.376 248.694C220.552 254.486 226.448 257.145 229.451 249.795C232.033 239.916 204.88 213.204 201.676 229.065C200.67 234.04 206.676 236.18 209.75 238.681C183.029 273.161 127.582 273.884 102.798 238.681C105.461 235.343 112.024 234.205 111.331 229.19C110.86 225.78 108.121 223.665 104.773 223.828Z" fill="#FEB719"/>
<path d="M138.219 189.085C128.506 211.346 95.3449 207.912 90.8125 184.15C89.8111 178.901 89.8386 174.02 96.0418 173.125C102.269 171.737 102.371 178.202 103.063 182.016C105.42 195.023 125.574 194.704 127.496 181.916C127.937 178.98 127.756 175.458 130.773 173.783C133.89 172.053 138.072 173.202 139.563 176.533C141.129 180.032 139.54 185.725 138.219 189.085Z" fill="black"/>
<path d="M220.887 188.189C212.053 209.849 180.969 208.931 174.158 187.027C172.557 181.879 171.506 174.889 177.96 173.124C186.881 172.358 183.805 180.481 186.551 185.475C192.043 195.462 208.123 193.546 209.815 182.023C210.268 178.942 210.129 175.508 213.313 173.785C216.34 172.149 220.239 173.372 221.797 176.448C223.457 179.725 222.015 184.92 220.887 188.189Z" fill="black"/>
<path d="M96.041 248.694C92.6402 255.265 85.1887 254.653 83.9789 248.878C82.2751 240.749 96.6401 225.433 104.771 223.828C108.12 223.665 110.859 225.78 111.33 229.19C112.022 234.205 105.459 235.343 102.797 238.681C127.581 273.885 183.027 273.161 209.749 238.681C206.674 236.18 200.669 234.04 201.674 229.065C204.879 213.204 232.031 239.916 229.45 249.795C226.446 257.145 220.551 254.486 217.375 248.694C203.215 268.012 174.414 278.936 151.112 277.431C128.678 275.981 110.652 265.331 96.041 248.694Z" fill="black"/>
</svg>
