<svg width="313" height="417" viewBox="0 0 313 417" fill="none" xmlns="http://www.w3.org/2000/svg">
<path d="M162.104 333.114C160.807 333.71 154.346 333.118 152.461 333.098C89.4981 332.449 38.073 278.64 34.1154 216.671C29.6583 146.882 81.7837 87.5378 151.559 83.0786C190.827 82.9802 224.863 97.5587 250.284 128.116C284.533 169.285 289.073 228.488 260.762 274.343C240.456 307.233 204.77 330.483 165.904 332.868C164.772 332.937 163.135 333.554 162.104 333.114ZM224.044 175.634C226.664 174.592 230.391 174.067 231.628 171.224C233.427 167.089 229.546 163.857 225.66 164.499C221.921 165.117 218.075 166.59 214.411 167.621L190.338 174.488C187.388 175.359 168.473 182.479 172.354 171.555C173.902 167.2 179.739 169.115 181.423 164.872C184.218 157.832 175.154 156.612 169.326 159.967C158.024 166.475 160.556 182.27 171.555 187.361C167.286 217.782 198.407 235.723 219.582 218.083C232.696 207.156 235.189 188.883 224.044 175.634ZM141.401 187.361C145.321 185.179 148.573 182.224 149.994 177.847C155.136 162.025 133.781 152.468 131.208 161.555C129.22 168.573 137.904 167.083 140.103 171.08C141.737 174.049 139.235 177.784 135.99 177.945C133.719 178.058 128.84 176.324 126.488 175.675L97.8806 167.695C94.3245 166.721 90.4701 165.167 86.8357 164.699C81.2237 163.976 75.8581 172.744 88.8745 175.634C79.1666 188.7 80.2915 207.449 93.8134 217.502C115.854 233.888 147.588 214.76 141.401 187.361ZM154.315 248.22C141.755 248.588 129.074 254.055 120.425 263.243C116.148 267.786 114.916 275.335 122.004 274.805C126.687 274.455 137.809 255.865 158.545 258.315C180.17 260.306 183.88 273.439 191.068 275.146C206.688 270.573 183.504 255.615 178.135 252.978C172.093 250.012 160.916 247.065 154.315 248.22Z" fill="#FEB719"/>
<path d="M224.043 175.635C219.219 176.371 213.907 177.804 209.469 179.831C221.836 184.53 219.939 204.369 207.915 209.447C195.396 214.734 181.421 203.749 184.768 190.101C185.019 189.081 186.042 187.105 185.829 186.203C180.946 187.553 176.607 189.039 171.554 187.362C160.555 182.271 158.023 166.476 169.326 159.968C175.153 156.613 184.217 157.833 181.422 164.873C179.738 169.115 173.901 167.201 172.354 171.556C168.472 182.479 187.387 175.36 190.337 174.489L214.411 167.622C218.074 166.591 221.921 165.118 225.659 164.5C229.545 163.858 233.426 167.09 231.627 171.225C230.39 174.068 226.663 174.593 224.043 175.635Z" fill="black"/>
<path d="M88.8737 175.634C75.8573 172.744 81.2229 163.976 86.8349 164.699C90.4692 165.167 94.3237 166.721 97.8797 167.696L126.487 175.675C128.839 176.324 133.718 178.058 135.989 177.945C139.234 177.784 141.736 174.05 140.102 171.08C137.903 167.083 129.219 168.573 131.207 161.555C133.781 152.468 155.135 162.025 149.994 177.847C148.572 182.224 145.32 185.18 141.4 187.361C135.445 188.606 132.453 188.004 126.798 186.202C126.948 187.079 127.522 188.07 127.827 188.925C132.349 201.584 120.67 214.209 107.846 211.405C93.0509 208.17 89.4899 188.425 103.769 179.831C98.919 178.212 93.8065 177.007 88.8737 175.634Z" fill="black"/>
<path d="M158.545 258.315C137.809 255.865 126.687 274.456 122.003 274.805C114.916 275.335 116.147 267.787 120.424 263.244C129.074 254.056 141.755 248.588 154.315 248.221C160.916 247.066 172.093 250.012 178.134 252.978C183.503 255.615 206.688 270.573 191.068 275.146C183.88 273.439 180.169 260.306 158.545 258.315Z" fill="black"/>
</svg>
