<svg width="48" height="48" viewBox="0 0 48 48" fill="none" xmlns="http://www.w3.org/2000/svg">
<circle cx="24" cy="24" r="24" fill="#FC7753"/>
<path d="M19.1052 16.731C19.1052 16.3203 19.0539 15.983 18.9512 15.719C18.8486 15.4477 18.6946 15.246 18.4892 15.114C18.2912 14.982 18.0382 14.9197 17.7302 14.927H17.0592V20.361C17.0592 20.559 17.0556 20.7423 17.0482 20.911C17.0409 21.0797 17.0299 21.2117 17.0152 21.307C17.1546 21.2997 17.3122 21.2923 17.4882 21.285C17.6716 21.2777 17.8109 21.274 17.9062 21.274V22H14.9032V21.395C15.1086 21.3877 15.2662 21.351 15.3762 21.285C15.4862 21.219 15.5632 21.109 15.6072 20.955C15.6512 20.801 15.6732 20.5847 15.6732 20.306L15.6842 14.938H14.9692C14.5366 14.9453 14.2066 15.092 13.9792 15.378C13.7519 15.664 13.6382 16.115 13.6382 16.731H13.0222L13.0772 14.3H19.6662L19.7322 16.731H19.1052ZM24.2253 22.176C23.5286 22.176 22.9346 22.0587 22.4433 21.824C21.952 21.5893 21.5523 21.2777 21.2443 20.889C20.9436 20.493 20.7236 20.0567 20.5843 19.58C20.445 19.1033 20.3753 18.6267 20.3753 18.15C20.3753 17.688 20.4523 17.2223 20.6063 16.753C20.7603 16.2763 20.995 15.84 21.3103 15.444C21.633 15.048 22.0363 14.729 22.5203 14.487C23.0043 14.245 23.5726 14.124 24.2253 14.124C24.8926 14.124 25.4683 14.245 25.9523 14.487C26.4436 14.729 26.8433 15.0517 27.1513 15.455C27.4666 15.851 27.6976 16.2837 27.8443 16.753C27.9983 17.2223 28.0753 17.688 28.0753 18.15C28.0753 18.6047 27.9983 19.0667 27.8443 19.536C27.6903 20.0053 27.452 20.4417 27.1293 20.845C26.814 21.241 26.4143 21.5637 25.9303 21.813C25.4463 22.055 24.878 22.176 24.2253 22.176ZM24.3133 21.494C24.724 21.494 25.0686 21.3987 25.3473 21.208C25.6333 21.0173 25.8643 20.768 26.0403 20.46C26.2163 20.152 26.3446 19.8147 26.4253 19.448C26.5133 19.074 26.5573 18.7073 26.5573 18.348C26.5573 17.8567 26.506 17.3983 26.4033 16.973C26.3006 16.5403 26.1466 16.1627 25.9413 15.84C25.7433 15.5173 25.4903 15.2643 25.1823 15.081C24.8743 14.8903 24.5186 14.7987 24.1153 14.806C23.712 14.8133 23.3673 14.916 23.0813 15.114C22.8026 15.3047 22.5716 15.5577 22.3883 15.873C22.2123 16.181 22.084 16.522 22.0033 16.896C21.9226 17.27 21.8823 17.6367 21.8823 17.996C21.8823 18.3627 21.9263 18.7477 22.0143 19.151C22.1023 19.5543 22.2416 19.9357 22.4323 20.295C22.623 20.6543 22.8723 20.944 23.1803 21.164C23.4956 21.384 23.8733 21.494 24.3133 21.494ZM28.9509 21.395C29.1562 21.3877 29.3139 21.3547 29.4239 21.296C29.5339 21.23 29.6109 21.12 29.6549 20.966C29.6989 20.8047 29.7209 20.5847 29.7209 20.306V15.917C29.7209 15.7337 29.7246 15.5577 29.7319 15.389C29.7466 15.2203 29.7576 15.0883 29.7649 14.993C29.6402 15.0003 29.4972 15.0077 29.3359 15.015C29.1746 15.015 29.0462 15.0187 28.9509 15.026V14.3C29.4276 14.2927 29.9079 14.289 30.3919 14.289C30.8759 14.289 31.3599 14.2853 31.8439 14.278C32.5112 14.2707 33.0869 14.355 33.5709 14.531C34.0549 14.6997 34.4252 14.96 34.6819 15.312C34.9386 15.6567 35.0669 16.104 35.0669 16.654C35.0669 16.9473 35.0046 17.2407 34.8799 17.534C34.7626 17.82 34.5719 18.0877 34.3079 18.337C34.0512 18.579 33.7102 18.777 33.2849 18.931C32.8669 19.085 32.3609 19.1693 31.7669 19.184C31.6496 19.184 31.5359 19.184 31.4259 19.184C31.3159 19.184 31.2096 19.1803 31.1069 19.173V20.35C31.1069 20.5553 31.1032 20.7423 31.0959 20.911C31.0886 21.0797 31.0776 21.2117 31.0629 21.307C31.1582 21.2997 31.2646 21.296 31.3819 21.296C31.4992 21.2887 31.6166 21.285 31.7339 21.285C31.8586 21.2777 31.9539 21.274 32.0199 21.274V22H28.9509V21.395ZM31.1069 18.48C31.2022 18.4873 31.2939 18.4947 31.3819 18.502C31.4699 18.5093 31.5652 18.513 31.6679 18.513C32.0786 18.513 32.4232 18.4397 32.7019 18.293C32.9879 18.1463 33.2042 17.9373 33.3509 17.666C33.4976 17.3873 33.5709 17.05 33.5709 16.654C33.5709 16.2947 33.5196 16.0013 33.4169 15.774C33.3142 15.5467 33.1786 15.3743 33.0099 15.257C32.8412 15.1323 32.6542 15.048 32.4489 15.004C32.2436 14.96 32.0382 14.938 31.8329 14.938C31.6422 14.938 31.4919 14.9673 31.3819 15.026C31.2792 15.0847 31.2059 15.191 31.1619 15.345C31.1252 15.4917 31.1069 15.6933 31.1069 15.95V18.48Z" fill="white"/>
<path d="M12.0041 33.395C12.2095 33.3877 12.3671 33.3547 12.4771 33.296C12.5871 33.23 12.6641 33.12 12.7081 32.966C12.7521 32.8047 12.7741 32.5847 12.7741 32.306V27.917C12.7741 27.7337 12.7778 27.5577 12.7851 27.389C12.7998 27.2203 12.8108 27.0883 12.8181 26.993C12.6935 27.0003 12.5505 27.0077 12.3891 27.015C12.2278 27.015 12.0995 27.0187 12.0041 27.026V26.3C12.4808 26.2927 12.9611 26.289 13.4451 26.289C13.9291 26.289 14.4131 26.2853 14.8971 26.278C15.5645 26.2707 16.1401 26.355 16.6241 26.531C17.1081 26.6997 17.4785 26.96 17.7351 27.312C17.9918 27.6567 18.1201 28.104 18.1201 28.654C18.1201 28.9473 18.0578 29.2407 17.9331 29.534C17.8158 29.82 17.6251 30.0877 17.3611 30.337C17.1045 30.579 16.7635 30.777 16.3381 30.931C15.9201 31.085 15.4141 31.1693 14.8201 31.184C14.7028 31.184 14.5891 31.184 14.4791 31.184C14.3691 31.184 14.2628 31.1803 14.1601 31.173V32.35C14.1601 32.5553 14.1565 32.7423 14.1491 32.911C14.1418 33.0797 14.1308 33.2117 14.1161 33.307C14.2115 33.2997 14.3178 33.296 14.4351 33.296C14.5525 33.2887 14.6698 33.285 14.7871 33.285C14.9118 33.2777 15.0071 33.274 15.0731 33.274V34H12.0041V33.395ZM14.1601 30.48C14.2555 30.4873 14.3471 30.4947 14.4351 30.502C14.5231 30.5093 14.6185 30.513 14.7211 30.513C15.1318 30.513 15.4765 30.4397 15.7551 30.293C16.0411 30.1463 16.2575 29.9373 16.4041 29.666C16.5508 29.3873 16.6241 29.05 16.6241 28.654C16.6241 28.2947 16.5728 28.0013 16.4701 27.774C16.3675 27.5467 16.2318 27.3743 16.0631 27.257C15.8945 27.1323 15.7075 27.048 15.5021 27.004C15.2968 26.96 15.0915 26.938 14.8861 26.938C14.6955 26.938 14.5451 26.9673 14.4351 27.026C14.3325 27.0847 14.2591 27.191 14.2151 27.345C14.1785 27.4917 14.1601 27.6933 14.1601 27.95V30.48ZM21.7729 26.905C21.5749 26.9123 21.4172 26.949 21.2999 27.015C21.1899 27.0737 21.1129 27.18 21.0689 27.334C21.0249 27.488 21.0029 27.708 21.0029 27.994V32.361C21.0029 32.559 20.9992 32.7423 20.9919 32.911C20.9846 33.0797 20.9736 33.2117 20.9589 33.307C21.0836 33.2997 21.2266 33.2923 21.3879 33.285C21.5492 33.2777 21.6776 33.274 21.7729 33.274V34H18.8469V33.395C19.0522 33.3877 19.2099 33.3547 19.3199 33.296C19.4299 33.23 19.5069 33.12 19.5509 32.966C19.5949 32.8047 19.6169 32.5847 19.6169 32.306V27.917C19.6169 27.7337 19.6206 27.5577 19.6279 27.389C19.6426 27.2203 19.6536 27.0883 19.6609 26.993C19.5362 27.0003 19.3932 27.0077 19.2319 27.015C19.0706 27.015 18.9422 27.0187 18.8469 27.026V26.3H21.7729V26.905ZM28.608 28.764C28.52 28.126 28.3037 27.642 27.959 27.312C27.6144 26.9747 27.167 26.806 26.617 26.806C26.2284 26.806 25.88 26.894 25.572 27.07C25.2714 27.2387 25.0147 27.4733 24.802 27.774C24.5967 28.0673 24.439 28.412 24.329 28.808C24.219 29.1967 24.164 29.6147 24.164 30.062C24.164 30.7147 24.2667 31.2903 24.472 31.789C24.6847 32.2877 24.978 32.68 25.352 32.966C25.7334 33.252 26.177 33.395 26.683 33.395C27.1524 33.395 27.6144 33.2813 28.069 33.054C28.531 32.8193 28.9124 32.4893 29.213 32.064L29.664 32.471C29.3194 32.9403 28.9527 33.2997 28.564 33.549C28.1754 33.791 27.794 33.956 27.42 34.044C27.0534 34.132 26.7197 34.176 26.419 34.176C25.8544 34.176 25.341 34.077 24.879 33.879C24.4244 33.6737 24.0284 33.395 23.691 33.043C23.361 32.6837 23.1044 32.2693 22.921 31.8C22.745 31.3233 22.657 30.81 22.657 30.26C22.657 29.754 22.734 29.2553 22.888 28.764C23.0494 28.2727 23.2877 27.829 23.603 27.433C23.9257 27.037 24.329 26.7217 24.813 26.487C25.297 26.245 25.858 26.124 26.496 26.124C26.8187 26.124 27.156 26.1753 27.508 26.278C27.86 26.3733 28.19 26.5163 28.498 26.707L28.454 26.201H29.213V28.764H28.608ZM30.4162 34V33.395C30.6216 33.3877 30.7792 33.3547 30.8892 33.296C30.9992 33.23 31.0762 33.12 31.1202 32.966C31.1642 32.8047 31.1862 32.5847 31.1862 32.306V27.917C31.1862 27.7337 31.1899 27.5577 31.1972 27.389C31.2119 27.2203 31.2229 27.0883 31.2302 26.993C31.1056 27.0003 30.9626 27.0077 30.8012 27.015C30.6399 27.015 30.5116 27.0187 30.4162 27.026V26.3H33.3422V26.905C33.1442 26.9123 32.9866 26.949 32.8692 27.015C32.7592 27.0737 32.6822 27.18 32.6382 27.334C32.5942 27.488 32.5722 27.708 32.5722 27.994V29.71H33.3752L34.3982 28.027C34.5082 27.829 34.6329 27.6273 34.7722 27.422C34.9116 27.2167 35.0399 27.07 35.1572 26.982C35.0399 26.9893 34.9189 26.9967 34.7942 27.004C34.6696 27.004 34.5596 27.0077 34.4642 27.015V26.3H37.0492V26.905C36.8439 26.9197 36.6386 26.9563 36.4332 27.015C36.2279 27.0737 36.0226 27.191 35.8172 27.367C35.6119 27.5357 35.3992 27.796 35.1792 28.148L34.1122 29.853C34.2809 29.9557 34.4239 30.0693 34.5412 30.194C34.6659 30.3187 34.7796 30.4507 34.8822 30.59L36.0482 32.207C36.2389 32.4637 36.4149 32.68 36.5762 32.856C36.7449 33.032 36.9062 33.164 37.0602 33.252C37.2216 33.34 37.3829 33.3877 37.5442 33.395V34H35.9712C35.9052 33.9927 35.8062 33.9303 35.6742 33.813C35.5496 33.6957 35.4139 33.5527 35.2672 33.384C35.1279 33.208 34.9996 33.043 34.8822 32.889L33.7162 31.239C33.6062 31.085 33.4889 30.9347 33.3642 30.788C33.2396 30.634 33.1222 30.5167 33.0122 30.436L32.5722 30.447V32.361C32.5722 32.559 32.5686 32.7423 32.5612 32.911C32.5539 33.0797 32.5429 33.2117 32.5282 33.307C32.6529 33.2997 32.7959 33.2923 32.9572 33.285C33.1186 33.2777 33.2469 33.274 33.3422 33.274V34H30.4162Z" fill="white"/>
</svg>
