<svg xmlns="http://www.w3.org/2000/svg" viewBox="0 0 697 121">
    <path fill="#ededee" d="M427 18h15v7a16 16 0 0 1 6-7 14 14 0 0 1 8-2 15 15 0 0 1 9 2l-6 15a8 8 0 0 0-3-1 10 10 0 0 0-2-1 10 10 0 0 0-11 11v47h-16zm205 0h15v9a23 23 0 0 1 9-8 28 28 0 0 1 13-3 26 26 0 0 1 11 2 27 27 0 0 1 9 6 30 30 0 0 1 6 10 33 33 0 0 1 2 12v43h-15V49q0-9-5-14t-12-4a18 18 0 0 0-13 5q-5 4-5 13v40h-15zm-47-3a37 37 0 1 0 34 52h-18a22 22 0 0 1-36-6l-1-2h58v-7a37 37 0 0 0-37-37zm-21 30 1-2a22 22 0 0 1 40 0l1 2zm-62-30a37 37 0 1 0 34 52h-18a22 22 0 0 1-36-6l-1-2h58v-7a37 37 0 0 0-37-37zm-21 30 1-2a22 22 0 0 1 40 0l1 2zm-67-27v69-6zm-15 0h-1v5a37 37 0 0 0-4-2 36 36 0 0 0-19-4 37 37 0 0 0-15 69 36 36 0 0 0 38-3v7a13 13 0 0 1-3 8 20 20 0 0 1-2 2q-6 6-17 6a19 19 0 0 1-10-2 22 22 0 0 1-7-6l-13 9a36 36 0 0 0 14 10 40 40 0 0 0 31 1 36 36 0 0 0 12-7 35 35 0 0 0 8-12 36 36 0 0 0 2-7 37 37 0 0 0 1-7V18zm-6 50a20 20 0 0 1-15 7q-9 0-15-7l-1-1a21 21 0 0 1-5-18 21 21 0 0 1 6-12 21 21 0 0 1 23-5 21 21 0 0 1 7 5 22 22 0 0 1 5 7 23 23 0 0 1 1 8 22 22 0 0 1-6 16zM166 21h16v9a23 23 0 0 1 9-8 28 28 0 0 1 13-3 26 26 0 0 1 11 2 27 27 0 0 1 8 7 30 30 0 0 1 6 9 33 33 0 0 1 3 13v43h-16V53q0-9-4-14c-3-3-7-4-13-4a18 18 0 0 0-12 4q-5 5-5 14v40h-16z"/>
    <path d="M298 15a26 26 0 0 0-26 26v4h4a26 26 0 0 0 26-26v-4z" fill="#87B448"/>
    <path fill="#ededee" d="M138 21v6a37 37 0 1 0 0 60v6h16V21zm-21 57a21 21 0 1 1 21-21 21 21 0 0 1-21 21zM37 20a36 36 0 0 0-21 7V0H0v93h16v-6a37 37 0 1 0 21-67zm0 58a21 21 0 1 1 20-21 21 21 0 0 1-20 21zm270 15-28-38h-19l28 38h19zM260 0h-15v93h15V0zm63 74a9 9 0 0 0-9 10 9 9 0 1 0 18 0 9 9 0 0 0-9-10z"/>
</svg>