<svg xmlns="http://www.w3.org/2000/svg" viewBox="0 0 696.87 120.88"><defs><linearGradient id="linear-gradient" x1="272.75" y1="45.36" x2="301.29" y2="14.85" gradientUnits="userSpaceOnUse"><stop offset="0" stop-color="#84b340"/><stop offset="0" stop-color="#6aa613"/><stop offset="1" stop-color="#84b340"/></linearGradient><style>.cls-1{fill:#293146}</style></defs><g id="Layer_2" data-name="Layer 2"><g id="Logo"><path class="cls-1" d="M427.49 17.58H442v7.82h.29a16.49 16.49 0 0 1 5.68-7.08 14.15 14.15 0 0 1 8.34-2.66 15.16 15.16 0 0 1 8.42 2.21l-5.46 15.21a8.32 8.32 0 0 0-2.81-1.48 9.85 9.85 0 0 0-2.95-.59 10.47 10.47 0 0 0-10.63 10.77V89h-15.39zM631.63 17.58H647v9h.3a23 23 0 0 1 8.93-8 27.54 27.54 0 0 1 12.91-2.95 26.16 26.16 0 0 1 10.63 2.21 27.26 27.26 0 0 1 8.85 6.28 29.71 29.71 0 0 1 6 9.66 32.63 32.63 0 0 1 2.22 12.11V89h-15.32V49.31q0-9.44-4.51-13.87T664.54 31a17.5 17.5 0 0 0-12.61 4.72Q647 40.46 647 49v40h-15.37zM585.27 15.21a36.9 36.9 0 1 0 33.57 52.22h-17.51a22.2 22.2 0 0 1-36.23-6.09l-.86-1.87h57.94v-7.36a37 37 0 0 0-36.91-36.9zm-21 29.54.86-1.87a22.18 22.18 0 0 1 40.34 0l.86 1.88zM502.17 15.21a36.9 36.9 0 1 0 33.57 52.22h-17.51A22.2 22.2 0 0 1 482 61.34l-.86-1.87h57.94v-7.36a37 37 0 0 0-36.91-36.9zm-21 29.54.86-1.87a22.19 22.19 0 0 1 40.35 0l.85 1.88zM413.9 17.58h-.14v69.56c.09-1.13.14-4.92.14-6.1zM399.44 17.58h-1.55v5.57a36.81 36.81 0 0 0-4-2.37 36.37 36.37 0 0 0-18.84-4 36.6 36.6 0 0 0-14.77 69.05 36.48 36.48 0 0 0 37.58-2.35V90a13.1 13.1 0 0 1-2.53 7.86 20 20 0 0 1-2.12 2.43q-6.19 6.12-17.41 6.13a19.24 19.24 0 0 1-9.67-2.66 21.83 21.83 0 0 1-7.16-6.2l-12.55 9.15a36.45 36.45 0 0 0 13.88 10.63 39.65 39.65 0 0 0 30.26 1 35.53 35.53 0 0 0 12-7.38 34.85 34.85 0 0 0 8.27-11.81 35.52 35.52 0 0 0 2.3-7.52 37.08 37.08 0 0 0 .57-6.9V17.58zm-6.05 50.55a20 20 0 0 1-15.2 6.42q-9.6 0-15.57-6.42c-.2-.21-.36-.43-.55-.65A20.64 20.64 0 0 1 356.88 49a21.47 21.47 0 0 1 6-12.34 21 21 0 0 1 23.47-4.8 20.87 20.87 0 0 1 6.86 4.8 22.26 22.26 0 0 1 4.58 7.16 23 23 0 0 1 1.62 8.63 22.08 22.08 0 0 1-6.02 15.68zM166.39 21.25h15.35v9h.3a23 23 0 0 1 8.93-8 27.54 27.54 0 0 1 12.91-3 26 26 0 0 1 10.63 2.22 27.23 27.23 0 0 1 8.85 6.27 29.76 29.76 0 0 1 6 9.67 32.57 32.57 0 0 1 2.22 12.1v43.1h-15.3V53q0-9.45-4.5-13.88c-3-3-7.16-4.43-12.48-4.43a17.5 17.5 0 0 0-12.61 4.73q-5 4.73-4.95 13.28v40h-15.35z"/><path d="M297.87 15.16a26.06 26.06 0 0 0-26.06 26.06v4.1h4.1A26.05 26.05 0 0 0 302 19.26v-4.1z" style="fill:url(#linear-gradient)"/><path class="cls-1" d="M138.11 21.25v5.57a36.61 36.61 0 1 0 0 60.3v5.57H154V21.25zm-20.74 56.46A20.74 20.74 0 1 1 138.11 57a20.76 20.76 0 0 1-20.74 20.71zM36.61 20.36a36.42 36.42 0 0 0-20.74 6.46V0H0v92.69h15.87v-5.57a36.6 36.6 0 1 0 20.74-66.76zm0 57.35A20.74 20.74 0 1 1 57.35 57a20.77 20.77 0 0 1-20.74 20.71zM306.62 92.69 278.59 54.9h-18.31l28.19 37.79h18.15zM260.28 0h-15.35v92.69h15.35V0zM323.05 74.33a9.18 9.18 0 0 0-9.17 9.18 9.18 9.18 0 1 0 18.35 0 9.18 9.18 0 0 0-9.18-9.18z"/></g></g></svg>