<?xml version="1.0" encoding="UTF-8"?>
<svg viewBox="0 0 100 15" xmlns="http://www.w3.org/2000/svg">
<path d="m78.537 1.7477c1.5997-1.0332 3.666-1.3331 5.499-0.79987 1.4831 0.4166 2.8162 1.3664 3.6994 2.6496 0.5999 0.86652 0.9999 1.883 1.1498 2.9328h-2.5162c-0.2-0.84986-0.6666-1.6497-1.3165-2.233-0.6832-0.63323-1.583-1.0165-2.5162-1.0832-0.8832-0.08332-1.7997 0.13331-2.5662 0.5999-0.7832 0.46659-1.4165 1.1998-1.7498 2.033-0.4499 1.0665-0.4332 2.333 0.05 3.3828 0.3666 0.83324 1.0165 1.5497 1.8164 1.9996 0.7332 0.4166 1.5831 0.5999 2.3996 0.5333 1.0165-0.0667 1.9997-0.5166 2.7162-1.2332 0.5333-0.5165 0.9165-1.1831 1.1165-1.8996h2.5496c-0.2833 1.7163-1.2832 3.2994-2.6829 4.3159-1.4498 1.0665-3.3328 1.5164-5.0992 1.2165-1.7997-0.2833-3.4494-1.3331-4.4826-2.8329-1.1331-1.633-1.4997-3.766-0.9498-5.6824 0.4333-1.5997 1.4831-2.9995 2.8829-3.8994z" fill="#9E2E30"/>
<path d="m2.4829 8.5961v3.3328c0.53324 0 1.0665 0.0333 1.5997-0.05 0.44993-0.0667 0.93318-0.1833 1.2665-0.5166 0.34994-0.35 0.39993-0.8999 0.31661-1.3664-0.08332-0.44993-0.39993-0.84986-0.81653-1.0498-0.71654-0.38327-1.5664-0.34994-2.3663-0.34994zm0-4.9325v2.7329c0.44992 0 0.91651 0.03332 1.3664-0.11665 0.34994-0.09998 0.66655-0.34994 0.81653-0.69988 0.13331-0.34994 0.14997-0.74988 0.03333-1.0998-0.11665-0.33328-0.39994-0.56657-0.71655-0.68322-0.48325-0.1833-0.99983-0.11664-1.4998-0.13331zm-2.4663-2.3496h2.3663c0.86652 0 1.733 0.05 2.5662 0.31662 0.66655 0.21663 1.2831 0.64989 1.683 1.2165 0.48325 0.68322 0.68322 1.5831 0.51658 2.4163-0.14998 0.7832-0.68322 1.4164-1.2998 1.8997 0.74987 0.34994 1.4664 0.88318 1.8664 1.6164 0.43326 0.79987 0.48325 1.7497 0.29995 2.6329-0.21663 0.9831-0.89985 1.7997-1.733 2.3329-0.66656 0.4166-1.4831 0.5499-2.2663 0.5666h-4.016c0.016664-4.3493 0.016665-8.6819 0.016665-12.998z" fill="#28466D"/>
<path d="m14.931 4.7634c-0.5666 1.4831-1.1332 2.9495-1.7164 4.4326h3.4161c-0.5499-1.4831-1.1165-2.9662-1.6997-4.4326zm-1.2665-3.4494h2.4996c1.6664 4.3326 3.3328 8.6486 4.9992 12.981h-2.5663c-0.3332-0.8832-0.6832-1.783-0.9998-2.6662h-5.2824c-0.35 0.8832-0.7166 1.783-1.0665 2.6662h-2.5663c1.6498-4.3326 3.3162-8.6652 4.9825-12.981z" fill="#28466D"/>
<path d="m22.513 1.315h2.3663c1.1164 1.7164 2.2496 3.4328 3.3661 5.1491 0.7332 1.1165 1.4497 2.233 2.1996 3.3494v-8.5152h2.4663v12.981h-2.383c-1.8497-2.8329-3.6994-5.6657-5.5324-8.4986v8.4986h-2.4662c-0.0167-4.316-0.0167-8.6486-0.0167-12.964z" fill="#28466D"/>
<path d="m35.644 1.314h2.4663v4.4493c1.1831-1.4831 2.3496-2.9662 3.5161-4.4493h2.9828c-1.5164 1.933-3.0328 3.8494-4.5492 5.7824 1.6664 2.3996 3.3161 4.7992 4.9825 7.1822h-2.9329c-1.2164-1.7331-2.4162-3.4661-3.616-5.2158-0.1334-0.1833-0.2333-0.36661-0.3833-0.53325-0.0167 1.9164 0 3.8327 0 5.7324h-2.4663v-12.948z" fill="#28466D"/>
<path d="m45.509 1.314h7.1821v2.4329h-2.3829v10.548h-2.4829v-10.548h-2.3163v-2.4329z" fill="#28466D"/>
<path d="m56.557 3.7302v2.6496h1.2665c0.4333-0.01666 0.8832-0.09998 1.2165-0.39993 0.3499-0.33328 0.4166-0.88319 0.2999-1.3331-0.1-0.39993-0.4499-0.68322-0.8499-0.79986-0.6332-0.18331-1.2831-0.08333-1.933-0.11665zm-2.4829-2.4163h2.8162c1.0332 0 2.1163 0.01667 3.0662 0.48326 0.8665 0.41659 1.4831 1.2664 1.7164 2.183 0.2499 0.98316 0.1833 2.083-0.3167 2.9828-0.4332 0.76654-1.2164 1.2831-2.033 1.5664 1.0165 1.9164 2.0497 3.8327 3.0662 5.7657h-2.6996c-0.9665-1.833-1.933-3.666-2.8995-5.4824h-0.2333v5.4824h-2.4662c-0.0167-4.3326-0.0167-8.6652-0.0167-12.981z" fill="#28466D"/>
<path d="m69.356 4.7634c-0.5666 1.4831-1.1498 2.9495-1.6998 4.4159h3.4161c-0.5832-1.4664-1.1331-2.9495-1.7163-4.4159zm-1.2665-3.4494h2.4996c1.6664 4.3326 3.3328 8.6486 4.9992 12.981h-2.5663c-0.3333-0.8832-0.6665-1.783-1.0165-2.6662h-5.2824c-0.35 0.8832-0.7166 1.783-1.0665 2.6662h-2.5663c1.6664-4.3326 3.3328-8.6652 4.9992-12.981z" fill="#28466D"/>
<path d="m90.585 1.314h2.4829v4.4493c1.1665-1.4831 2.3496-2.9662 3.4994-4.4493 0.9998-0.01667 1.9997 0 2.9995 0-1.5164 1.933-3.0328 3.8494-4.5492 5.7824 1.6663 2.3996 3.3161 4.7992 4.9824 7.1821h-2.9328c-1.3331-1.9163-2.6495-3.8326-3.9993-5.7323v5.7323h-2.4829v-12.964z" fill="#28466D"/>
<path d="m81.903 5.0306c0.8832-0.11665 1.7997 0.29995 2.2996 1.0498 0.5499 0.7832 0.5666 1.8997 0.05 2.6995-0.4666 0.76654-1.3831 1.2165-2.2663 1.1165-0.7832-0.06665-1.5164-0.51658-1.8997-1.1998-0.4332-0.73321-0.4499-1.7164-0.0166-2.4496 0.3666-0.66655 1.0665-1.1331 1.833-1.2165z" fill="#28466D"/>
</svg>
