<?xml version="1.0" encoding="UTF-8"?>
<svg fill="none" viewBox="0 0 110 23" xmlns="http://www.w3.org/2000/svg">
<g opacity=".99">
<path d="m49.186 5.562h2.3605c0.5672 0 0.9149 0.07319 1.2442 0.29277 0.5673 0.34766 0.8417 0.8417 0.8417 1.5004 0 0.40255-0.1097 0.76851-0.3293 1.0064-0.1281 0.16468-0.3111 0.25617-0.677 0.36596v0.0549c0.1463 0.09149 0.2195 0.14638 0.2744 0.23787l1.1711 1.7566h-2.1775l-0.7502-1.5187c-0.0366-0.0732-0.0549-0.0915-0.0732-0.16469l-0.0366 0.0183v1.6651h-1.8481v-5.2149zm2.1043 2.3238c0.3111 0 0.494-0.16469 0.494-0.43915 0-0.27447-0.1829-0.45745-0.4208-0.45745h-0.3294v0.8966h0.2562z" fill="#78A22F" opacity=".99"/>
<path d="m49.121 5.498h2.4243c0.5726 0 0.9347 0.0738 1.2788 0.30282 0.5855 0.35927 0.8711 0.87376 0.8711 1.5543 0 0.41132-0.1116 0.79417-0.3445 1.0478-0.1313 0.16764-0.3136 0.26216-0.6328 0.36287 0.1108 0.07215 0.1812 0.13027 0.2355 0.22025l1.2365 1.8548h-2.3366l-0.7564-1.5312v1.5312h-1.9759v-5.3428zm0.1278 0.12784v5.0871h1.7203v-1.6407l0.1432-0.0716 0.0193 0.0773c0.0112 0.04454 0.0201 0.061 0.0382 0.09423 8e-3 0.01461 0.0177 0.03247 0.0302 0.05738l1e-4 2.7e-4 0.7326 1.4832h2.0183l-1.1056-1.6585-8e-4 -0.0013c-0.0463-0.07713-0.1073-0.12517-0.2536-0.21656l-0.03-0.01877v-0.13789l0.0456-0.01367c0.3644-0.10934 0.53-0.19627 0.6449-0.34397l0.0017-0.00213 0.0018-0.00199c0.2051-0.22217 0.3124-0.57031 0.3124-0.96302 0-0.63652-0.2629-1.1099-0.8112-1.4459l-0.0021-0.00127c-0.3144-0.2096-0.6474-0.28208-1.2088-0.28208h-2.2965zm1.7203 1.2994h0.3933c0.2766 0 0.4847 0.2152 0.4847 0.52138 0 0.15212-0.0512 0.28054-0.1517 0.3702-0.0996 0.08881-0.2399 0.13287-0.4062 0.13287h-0.3201v-1.0244zm0.1278 0.12785v0.76876h0.1923c0.1448 0 0.2514-0.03828 0.3211-0.10044 0.0687-0.06129 0.109-0.15245 0.109-0.27479 0-0.24277-0.1579-0.39353-0.3569-0.39353h-0.2655z" clip-rule="evenodd" fill="#78A22F" fill-rule="evenodd" opacity=".99"/>
<path d="m56.23 10.777h-1.9944l1.8115-5.2149h2.0859l1.8664 5.2149h-2.0128l-0.1647-0.6404h-1.4455l-0.1464 0.6404zm1.2443-1.8847-0.2379-1.0064c-0.0732-0.31106-0.0732-0.34766-0.1098-0.58554h-0.0732c-0.0366 0.32937-0.0549 0.45746-0.0915 0.58554l-0.2561 1.0064h0.7685z" fill="#78A22F" opacity=".99"/>
<path d="m56.001 5.498h2.1765l1.9121 5.3428h-2.1531l-0.1647-0.6404h-1.345l-0.1464 0.6404h-2.1353l1.8559-5.3428zm0.0909 0.12784-1.767 5.0871h1.8536l0.1464-0.6405h1.546l0.1647 0.6405h1.8725l-1.8207-5.0871h-1.9955zm0.9038 1.6105h0.1852l0.0083 0.0542c0.0063 0.04049 0.0114 0.07508 0.0161 0.10612 0.0225 0.15146 0.0326 0.21861 0.0928 0.47444l0.2564 1.085h-0.9315l0.2769-1.0879c0.0349-0.12206 0.0527-0.24477 0.0894-0.57503l0.0064-0.05686m0.0974 0.27314c-0.023 0.18865-0.0409 0.29075-0.07 0.39298l-0.2357 0.9258h0.6055l-0.2193-0.92776c-0.0475-0.20222-0.0646-0.29034-0.0805-0.39102z" clip-rule="evenodd" fill="#78A22F" fill-rule="evenodd" opacity=".99"/>
<path d="m62.415 5.562h-1.903v5.2149h1.903v-5.2149z" fill="#78A22F" opacity=".99"/>
<path d="m60.447 5.498h2.0308v5.3428h-2.0308v-5.3428zm0.1278 0.12784v5.0871h1.7751v-5.0871h-1.7751z" clip-rule="evenodd" fill="#78A22F" fill-rule="evenodd" opacity=".99"/>
<path d="m63.457 5.562h1.8115l1.2077 1.9579c0.2562 0.42085 0.3111 0.53064 0.494 0.93319h0.0549c-0.1098-0.51234-0.1281-0.64042-0.1281-1.2442l-0.0366-1.6468h1.8115v5.2149h-1.8115l-1.2991-2.0494c-0.1464-0.21957-0.2196-0.36595-0.366-0.67702h-0.0549c0.0732 0.47575 0.1098 0.69532 0.1098 0.96979l0.0183 1.7749h-1.8115v-5.2332z" fill="#78A22F" opacity=".99"/>
<path d="m63.521 5.6259v5.1054h1.683l-0.0176-1.7104-1e-4 -6.6e-4c0-0.25275-0.0315-0.45723-0.0965-0.87886-4e-3 -0.02621-0.0082-0.05326-0.0125-0.08121l-0.0113-0.07364h0.1699l0.0173 0.0367c0.1461 0.31036 0.2176 0.45326 0.3613 0.66878l8e-4 0.00123 1.2804 2.0197h1.7124v-5.0871h-1.6823l0.0352 1.5829c0 0.59927 0.0178 0.72287 0.1267 1.2309l0.0165 0.07731h-0.1751l-0.017-0.03747c-0.182-0.40034-0.2357-0.50787-0.4904-0.92623 0-6e-5 0-1.1e-4 -1e-4 -1.7e-4l-1.1887-1.9272h-1.7119zm-0.0639-0.06392v-0.06392h1.8471l1.2266 1.9886c0.1853 0.30437 0.2663 0.4478 0.3657 0.65491-0.0526-0.28588-0.0633-0.4741-0.0633-0.93202l-0.0381-1.7114h1.9408v5.3428h-1.9106l-1.3176-2.0784c-0.1086-0.16305-0.1778-0.28695-0.2643-0.4632 0.0468 0.30821 0.0708 0.4969 0.0708 0.72078v3.4e-4l0.019 1.8388h-1.94v-5.2971h0.0639z" clip-rule="evenodd" fill="#78A22F" fill-rule="evenodd" opacity=".99"/>
<path d="m69.716 5.562h3.4766v1.4821h-1.5736v0.53063h1.3906v1.3724h-1.3906v1.8298h-1.903v-5.2149z" fill="#78A22F" opacity=".99"/>
<path d="m69.651 5.498h3.6044v1.61h-1.5736v0.40279h1.3906v1.5002h-1.3906v1.8298h-2.0308v-5.3428zm0.1278 0.12784v5.0871h1.7752v-1.8298h1.3906v-1.2445h-1.3906v-0.65849h1.5736v-1.3543h-3.3488z" clip-rule="evenodd" fill="#78A22F" fill-rule="evenodd" opacity=".99"/>
<path d="m79.486 8.1786c0 1.5553-1.226 2.6898-2.8911 2.6898-1.6834 0-2.8727-1.0979-2.8727-2.6715 0-1.5919 1.1893-2.7081 2.9093-2.7081 1.6834 0 2.8545 1.0979 2.8545 2.6898zm-3.8426 0c0 0.58554 0.4026 1.0064 0.9698 1.0064 0.5673 0 0.9515-0.40256 0.9515-0.98809 0-0.60383-0.4025-1.0247-0.9881-1.0247-0.5306 0-0.9332 0.42085-0.9332 1.0064z" fill="#78A22F" opacity=".99"/>
<path d="m74.576 6.2925c-0.4986 0.46524-0.7894 1.125-0.7894 1.9043 0 0.76992 0.2906 1.4205 0.7847 1.879 0.4944 0.4588 1.1964 0.7286 2.0242 0.7286 1.6343 0 2.8271-1.1102 2.8271-2.6259 0-0.77959-0.2863-1.4348-0.7758-1.8953-0.4898-0.46083-1.187-0.73056-2.0147-0.73056-0.8461 0-1.5572 0.27436-2.0561 0.73989zm-0.0872-0.09347c0.5257-0.49054 1.2694-0.77427 2.1433-0.77427 0.8557 0 1.5857 0.27921 2.1023 0.7653 0.5169 0.48637 0.8161 1.1761 0.8161 1.9884 0 1.595-1.2591 2.7537-2.955 2.7537-0.8557 0-1.5901-0.2791-2.1112-0.7627-0.5214-0.48383-0.8255-1.169-0.8255-1.9727 0-0.81262 0.3039-1.5069 0.83-1.9978zm1.0913 1.9794c0-0.61678 0.4272-1.0703 0.9971-1.0703 0.3086 0 0.5728 0.11126 0.7597 0.30551 0.1866 0.19405 0.2923 0.46678 0.2923 0.7831 0 0.30692-0.1009 0.57057-0.2809 0.7579-0.1801 0.18756-0.4352 0.29411-0.7345 0.29411-0.6049 0-1.0337-0.45186-1.0337-1.0703zm0.9971-0.94246c-0.4914 0-0.8693 0.38818-0.8693 0.94246 0 0.55262 0.3763 0.94246 0.9059 0.94246 0.2679 0 0.4886-0.09472 0.6423-0.25482 0.154-0.16033 0.2452-0.39072 0.2452-0.66934 0-0.28752-0.0956-0.52713-0.2566-0.69446-0.1608-0.16714-0.3907-0.2663-0.6675-0.2663z" clip-rule="evenodd" fill="#78A22F" fill-rule="evenodd" opacity=".99"/>
<path d="m80.292 5.562h2.3604c0.5673 0 0.9149 0.07319 1.2443 0.29277 0.5672 0.34766 0.8417 0.8417 0.8417 1.5004 0 0.40255-0.1098 0.76851-0.3294 1.0064-0.1281 0.16468-0.3293 0.25617-0.677 0.36596v0.0549c0.1464 0.09149 0.2196 0.14638 0.2745 0.23787l1.171 1.7566h-2.1774l-0.7502-1.5187c-0.0366-0.0732-0.0549-0.0915-0.0732-0.16469l-0.0366 0.0183v1.6651h-1.8481v-5.2149zm2.1043 2.3238c0.311 0 0.494-0.16469 0.494-0.43915 0-0.27447-0.183-0.45745-0.4209-0.45745h-0.3293v0.8966h0.2562z" fill="#78A22F" opacity=".99"/>
<path d="m80.228 5.498h2.4244c0.5726 0 0.9347 0.0738 1.2787 0.30282 0.5855 0.35927 0.8712 0.87376 0.8712 1.5543 0 0.41133-0.1117 0.79418-0.3445 1.0478-0.1315 0.16766-0.3298 0.26218-0.6339 0.36215 0.1114 0.07248 0.182 0.13068 0.2365 0.22096l1.2365 1.8548h-2.3366l-0.7563-1.5312v1.5312h-1.976v-5.3428zm0.1279 0.12784v5.0871h1.7202v-1.6407l0.1432-0.0716 0.0194 0.0773c0.0111 0.04454 0.0201 0.061 0.0382 0.09423 0.0079 0.01461 0.0177 0.03247 0.0301 0.05738l2e-4 2.7e-4 0.7326 1.4832h2.0183l-1.1057-1.6585-8e-4 -0.0013c-0.0463-0.07713-0.1073-0.12517-0.2535-0.21656l-0.0301-0.01877v-0.13718l0.0447-0.01411c0.3484-0.11 0.5313-0.19693 0.6458-0.34424l0.0017-0.00213 0.0018-0.00199c0.2051-0.22217 0.3124-0.57031 0.3124-0.96302 0-0.63652-0.2629-1.1099-0.8112-1.4459l-2e-3 -0.00127c-0.3144-0.2096-0.6475-0.28208-1.2088-0.28208h-2.2965zm1.7202 1.2994h0.3933c0.2767 0 0.4848 0.2152 0.4848 0.52138 0 0.15212-0.0512 0.28054-0.1518 0.3702-0.0995 0.08881-0.2399 0.13287-0.4062 0.13287h-0.3201v-1.0244zm0.1279 0.12785v0.76876h0.1922c0.1448 0 0.2515-0.03828 0.3211-0.10044 0.0688-0.06129 0.109-0.15245 0.109-0.27479 0-0.24277-0.1578-0.39353-0.3569-0.39353h-0.2654z" clip-rule="evenodd" fill="#78A22F" fill-rule="evenodd" opacity=".99"/>
<path d="m85.854 5.562h3.5132v1.4272h-1.6102v0.49404h1.4638v1.3724h-1.4638v0.49405h1.6651v1.4272h-3.5681v-5.2149z" fill="#78A22F" opacity=".99"/>
<path d="m85.79 5.498h3.6411v1.5551h-1.6102v0.3662h1.4638v1.5002h-1.4638v0.3662h1.6651v1.5551h-3.696v-5.3428zm0.1279 0.12784v5.0871h3.4402v-1.2994h-1.6651v-0.6219h1.4639v-1.2445h-1.4639v-0.6219h1.6102v-1.2994h-3.3853z" clip-rule="evenodd" fill="#78A22F" fill-rule="evenodd" opacity=".99"/>
<path d="m90.575 8.9105 0.2013 0.16468c0.311 0.23788 0.7502 0.38426 1.0978 0.38426 0.2745 0 0.4758-0.12809 0.4758-0.31106 0-0.14639-0.1098-0.23788-0.3477-0.27447l-0.5489-0.10979c-0.7868-0.14639-1.2809-0.65873-1.2809-1.3906 0-1.0979 0.9698-1.8847 2.3056-1.8847 0.5855 0 1.043 0.12808 1.6102 0.43915l-0.5124 1.3358c-0.4208-0.29277-0.7319-0.40256-1.0978-0.40256-0.2562 0-0.4209 0.10979-0.4209 0.27447 0 0.10979 0.0915 0.20128 0.2928 0.23787l0.6038 0.12809c0.8417 0.18298 1.2809 0.69532 1.2809 1.4821 0 1.0796-0.9332 1.8664-2.2507 1.8664-0.677 0-1.354-0.1647-1.9944-0.4758l0.5855-1.4638z" fill="#78A22F" opacity=".99"/>
<path d="m92.478 5.5526c-1.3133 0-2.2416 0.76975-2.2416 1.8208 0 0.3507 0.1179 0.64592 0.3282 0.8713 0.2107 0.22597 0.5176 0.38529 0.9004 0.4565l0.5484 0.10968c0.1232 0.0191 0.2223 0.05353 0.2918 0.1091 0.0729 0.05833 0.1086 0.13645 0.1086 0.22832 0 0.11801-0.0658 0.21402-0.1641 0.27778-0.0974 0.06319-0.2292 0.09721-0.3756 0.09721-0.3622 0-0.8149-0.15133-1.1367-0.3974l-0.0016-0.00128-0.1338-0.10951-0.531 1.3273c0.6165 0.2906 1.2652 0.4437 1.9129 0.4437 1.2936 0 2.1868-0.7686 2.1868-1.8025 0-0.38105-0.1061-0.69012-0.3093-0.92575-0.2036-0.2361-0.51-0.40447-0.9211-0.49388 0-1e-5 1e-4 2e-5 0 0l-0.6028-0.12787c-0.1068-0.01953-0.1917-0.05477-0.2511-0.10567-0.0612-0.05246-0.0932-0.12009-0.0932-0.19492 0-0.10683 0.0546-0.1943 0.1432-0.25243 0.0867-0.05692 0.2054-0.08596 0.3416-0.08596 0.3624 0 0.6718 0.10423 1.0671 0.36814l0.4633-1.2079c-0.5365-0.28728-0.9739-0.4047-1.5304-0.4047zm-2.3695 1.8208c0-1.1447 1.0112-1.9486 2.3695-1.9486 0.5977 0 1.0656 0.13154 1.6409 0.44703l0.049 0.02683-0.5616 1.464-0.067-0.04659c-0.4136-0.28777-0.7121-0.3911-1.0613-0.3911-0.12 0-0.2118 0.02585-0.2714 0.065-0.0579 0.03793-0.0856 0.0877-0.0856 0.14554 0 0.03496 0.0138 0.06797 0.0486 0.09785 0.0365 0.03129 0.0977 0.06004 0.1917 0.07713l0.0018 3.3e-4 0.6042 0.12818c0.4305 0.09359 0.7645 0.27287 0.9909 0.53535 0.2268 0.26299 0.3403 0.6035 0.3403 1.0092 0 1.1253-0.9732 1.9303-2.3146 1.9303-0.6875 0-1.374-0.1672-2.0224-0.4821l-0.0535-0.026 0.64-1.6 0.2679 0.2192c0.3003 0.22931 0.7255 0.37048 1.0582 0.37048 0.1282 0 0.2342-0.03002 0.306-0.07662 0.071-0.04602 0.1059-0.10555 0.1059-0.17052 0-0.05451-0.0192-0.09532-0.0607-0.12849-0.0446-0.0357-0.1188-0.06526-0.2328-0.08279l-0.0014-2.2e-4 -0.5499-0.10999c-0.4039-0.07521-0.7373-0.24522-0.9701-0.49491-0.2336-0.25037-0.3626-0.57728-0.3626-0.9585z" clip-rule="evenodd" fill="#78A22F" fill-rule="evenodd" opacity=".99"/>
<path d="m95.699 7.2088-1.0796 0.05489v-1.7017h3.989v1.7017l-1.0613-0.05489v3.5681h-1.8481v-3.5681z" fill="#78A22F" opacity=".99"/>
<path d="m94.555 5.498h4.1168v1.8329l-1.0613-0.05489v3.5647h-1.9759v-3.5648l-1.0796 0.05489v-1.8329zm0.1278 0.12784v1.5705l1.0796-0.05489v3.5715h1.7203v-3.5715l1.0612 0.05489v-1.5705h-3.8611z" clip-rule="evenodd" fill="#78A22F" fill-rule="evenodd" opacity=".99"/>
<path d="m40.183 18.17h-2.0128l1.8115-5.2149h2.086l1.8664 5.2149h-2.0128l-0.1647-0.6404h-1.4455l-0.1281 0.6404zm1.2443-1.8847-0.2379-1.0064c-0.0732-0.311-0.0732-0.3476-0.1098-0.5855h-0.0732c-0.0366 0.3294-0.0549 0.4574-0.0915 0.5855l-0.2562 1.0064h0.7686z" fill="#78A22F" opacity=".99"/>
<path d="m39.936 12.891h2.1764l1.9122 5.3428h-2.1531l-0.1647-0.6404h-1.3436l-0.1281 0.6404h-2.155l1.8559-5.3428zm0.0909 0.1279-1.7671 5.087h1.8705l0.1281-0.6404h1.5475l0.1647 0.6404h1.8724l-1.8206-5.087h-1.9955zm0.922 1.6104h0.1853l0.0083 0.0542c0.0062 0.0405 0.0114 0.0751 0.016 0.1062 0.0226 0.1514 0.0326 0.2186 0.0928 0.4744l0.2565 1.085h-0.9316l0.277-1.0879c0.0348-0.122 0.0527-0.2448 0.0894-0.575l0.0063-0.0569zm0.0974 0.2732c-0.023 0.1886-0.0408 0.2907-0.0699 0.3929l-0.2357 0.9259h0.6055l-0.2193-0.9278c-0.0476-0.2022-0.0647-0.2903-0.0806-0.391z" clip-rule="evenodd" fill="#78A22F" fill-rule="evenodd" opacity=".99"/>
<path d="m47.63 18.041c-0.2928 0.1281-0.86 0.2196-1.3358 0.2196-1.5004 0-2.6532-1.1528-2.6532-2.6349 0-1.537 1.1894-2.7264 2.7264-2.7264 0.4392 0 0.9149 0.0732 1.2809 0.2013l0.0366 1.9762c-0.4209-0.366-0.7502-0.5307-1.0979-0.5307-0.5855 0-1.0247 0.4392-1.0247 1.0064s0.4758 1.0247 1.043 1.0247c0.4025 0 0.6953-0.1281 1.0796-0.4757l-0.0549 1.9395z" fill="#78A22F" opacity=".99"/>
<path d="m46.368 12.964c-1.5018 0-2.6625 1.1607-2.6625 2.6625 0 1.4465 1.1239 2.5709 2.5893 2.5709 0.4513 0 0.9817-0.0835 1.273-0.1988l0.0496-1.7526c-0.1519 0.1261-0.2939 0.219-0.4392 0.283-0.1808 0.0795-0.3637 0.1129-0.5724 0.1129-0.601 0-1.1069-0.4846-1.1069-1.0886 0-0.6033 0.4686-1.0703 1.0886-1.0703 0.3387 0 0.6551 0.1474 1.0314 0.4548l-0.0332-1.7904c-0.3522-0.1165-0.8013-0.1834-1.2177-0.1834zm-2.7904 2.6625c0-1.5724 1.218-2.7904 2.7904-2.7904 0.4451 0 0.9281 0.0741 1.3019 0.2049l0.042 0.0147 0.0401 2.1644-0.1085-0.0943c-0.4166-0.3623-0.7313-0.515-1.056-0.515-0.551 0-0.9607 0.4113-0.9607 0.9425 0 0.5304 0.4456 0.9607 0.979 0.9607 0.1939 0 0.3587-0.0307 0.5209-0.1021 0.1631-0.0717 0.3266-0.1859 0.5158-0.3571l0.111-0.1005-0.0602 2.1298-0.0372 0.0162c-0.304 0.133-0.881 0.225-1.3613 0.225-1.5355 0-2.7172-1.1811-2.7172-2.6988z" clip-rule="evenodd" fill="#78A22F" fill-rule="evenodd" opacity=".99"/>
<path d="m49.295 14.601-1.0796 0.0549v-1.7017h3.989v1.7017l-1.0613-0.0549v3.5681h-1.8481v-3.5681z" fill="#78A22F" opacity=".99"/>
<path d="m48.151 12.891h4.1168v1.833l-1.0613-0.0549v3.5647h-1.976v-3.5648l-1.0795 0.0549v-1.8329zm0.1278 0.1279v1.5705l1.0796-0.0549v3.5714h1.7202v-3.5715l1.0613 0.0549v-1.5704h-3.8611z" clip-rule="evenodd" fill="#78A22F" fill-rule="evenodd" opacity=".99"/>
<path d="m54.876 12.955h-1.9029v5.2149h1.9029v-5.2149z" fill="#78A22F" opacity=".99"/>
<path d="m52.909 12.891h2.0308v5.3428h-2.0308v-5.3428zm0.1278 0.1279v5.087h1.7752v-5.087h-1.7752z" clip-rule="evenodd" fill="#78A22F" fill-rule="evenodd" opacity=".99"/>
<path d="m61.427 15.571c0 1.5554-1.2259 2.6898-2.891 2.6898-1.6835 0-2.8728-1.0978-2.8728-2.6715 0-1.5919 1.1894-2.7081 2.9094-2.7081 1.6834 0 2.8544 1.0979 2.8544 2.6898zm-3.8425 0c0 0.5856 0.4025 1.0064 0.9698 1.0064 0.5672 0 0.9515-0.4025 0.9515-0.9881 0-0.6038-0.4026-1.0246-0.9881-1.0246-0.5307 0-0.9332 0.4391-0.9332 1.0063z" fill="#78A22F" opacity=".99"/>
<path d="m56.516 13.685c-0.4986 0.4653-0.7893 1.125-0.7893 1.9043 0 0.7699 0.2906 1.4205 0.7846 1.879 0.4945 0.4588 1.1965 0.7286 2.0242 0.7286 1.6344 0 2.8272-1.1102 2.8272-2.6259 0-0.7796-0.2864-1.4348-0.7759-1.8953-0.4897-0.4608-1.187-0.7306-2.0147-0.7306-0.8461 0-1.5571 0.2744-2.0561 0.7399zm-0.0872-0.0935c0.5258-0.4905 1.2694-0.7742 2.1433-0.7742 0.8557 0 1.5857 0.2792 2.1023 0.7653 0.517 0.4864 0.8161 1.1761 0.8161 1.9884 0 1.595-1.2591 2.7537-2.955 2.7537-0.8556 0-1.59-0.2792-2.1111-0.7627-0.5215-0.4838-0.8256-1.169-0.8256-1.9727 0-0.8126 0.304-1.5069 0.83-1.9978zm1.0913 1.9795c0-0.5977 0.4265-1.0703 0.9971-1.0703 0.3087 0 0.5728 0.1113 0.7597 0.3055 0.1867 0.1941 0.2923 0.4668 0.2923 0.7831 0 0.3069-0.1009 0.5706-0.2808 0.7579-0.1802 0.1876-0.4353 0.2941-0.7346 0.2941-0.6049 0-1.0337-0.4518-1.0337-1.0703zm0.9971-0.9425c-0.4906 0-0.8692 0.4057-0.8692 0.9425 0 0.5526 0.3762 0.9425 0.9058 0.9425 0.2679 0 0.4886-0.0948 0.6424-0.2549 0.154-0.1603 0.2452-0.3907 0.2452-0.6693 0-0.2875-0.0956-0.5271-0.2566-0.6945-0.1608-0.1671-0.3907-0.2663-0.6676-0.2663z" clip-rule="evenodd" fill="#78A22F" fill-rule="evenodd" opacity=".99"/>
<path d="m62.231 12.955h1.8115l1.2077 1.9579c0.2562 0.4208 0.3111 0.5306 0.494 0.9332h0.0549c-0.1097-0.5124-0.128-0.6405-0.128-1.2443l-0.0366-1.6468h1.8115v5.2149h-1.8115l-1.2992-2.0494c-0.1464-0.2195-0.2196-0.3659-0.366-0.677h-0.0548c0.0731 0.4758 0.1097 0.6953 0.1097 0.9698l0.0183 1.7749h-1.8115v-5.2332z" fill="#78A22F" opacity=".99"/>
<path d="m62.296 13.018v5.1053h1.683l-0.0176-1.7103v-6e-4c0-0.2528-0.0316-0.4573-0.0966-0.8791-4e-3 -0.0261-0.0082-0.0531-0.0125-0.081l-0.0113-0.0737h0.17l0.0172 0.0367c0.1461 0.3104 0.2177 0.4533 0.3613 0.6688l9e-4 0.0013 1.2803 2.0196h1.7124v-5.087h-1.6822l0.0351 1.5829c0 0.5992 0.0178 0.7228 0.1267 1.2308l0.0166 0.0773h-0.1752l-0.017-0.0374c-0.182-0.4004-0.2357-0.5079-0.4903-0.9263-1e-4 0-1e-4 -1e-4 -2e-4 -1e-4l-1.1887-1.9272h-1.7119zm-0.0639-0.064v-0.0639h1.8472l1.2266 1.9886c0.1852 0.3043 0.2662 0.4478 0.3656 0.6549-0.0526-0.2859-0.0633-0.4741-0.0633-0.932l-0.0381-1.7115h1.9408v5.3428h-1.9106l-1.3175-2.0785c-0.1087-0.163-0.1779-0.2869-0.2644-0.4631 0.0468 0.3082 0.0708 0.4968 0.0708 0.7207v4e-4l0.019 1.8388h-1.94v-5.2972h0.0639z" clip-rule="evenodd" fill="#78A22F" fill-rule="evenodd" opacity=".99"/>
<path d="m69.861 12.955h1.8115l1.2077 1.9579c0.2562 0.4208 0.311 0.5306 0.494 0.9332h0.0549c-0.1098-0.5124-0.1281-0.6405-0.1281-1.2443l-0.0366-1.6468h1.8115v5.2149h-1.8115l-1.2991-2.0494c-0.1464-0.2195-0.2196-0.3659-0.366-0.677h-0.0549c0.0732 0.4758 0.1098 0.6953 0.1098 0.9698l0.0183 1.7749h-1.8115v-5.2332z" fill="#78A22F" opacity=".99"/>
<path d="m69.926 13.018v5.1053h1.683l-0.0177-1.7103v-6e-4c0-0.2528-0.0315-0.4573-0.0965-0.8789-4e-3 -0.0262-0.0082-0.0533-0.0125-0.0812l-0.0113-0.0737h0.1699l0.0173 0.0367c0.1461 0.3104 0.2176 0.4533 0.3613 0.6688l8e-4 0.0013 1.2803 2.0196h1.7125v-5.087h-1.6823l0.0352 1.5829c0 0.5992 0.0178 0.7228 0.1267 1.2308l0.0165 0.0773h-0.1751l-0.017-0.0374c-0.182-0.4004-0.2357-0.5079-0.4904-0.9263 0 0 0-1e-4 -1e-4 -1e-4l-1.1887-1.9272h-1.7119zm-0.0639-0.064v-0.0639h1.8471l1.2266 1.9886c0.1853 0.3044 0.2663 0.4478 0.3657 0.6549-0.0526-0.2859-0.0633-0.4741-0.0633-0.932l-0.0381-1.7115h1.9408v5.3428h-1.9106l-1.3176-2.0785c-0.1086-0.163-0.1778-0.2869-0.2643-0.4632 0.0468 0.3083 0.0708 0.4969 0.0708 0.7208v4e-4l0.019 1.8388h-1.94v-5.2972h0.0639z" clip-rule="evenodd" fill="#78A22F" fill-rule="evenodd" opacity=".99"/>
<path d="m76.047 12.955h3.5132v1.4455h-1.6102v0.4758h1.4638v1.3723h-1.4638v0.4941h1.6651v1.4272h-3.5681v-5.2149z" fill="#78A22F" opacity=".99"/>
<path d="m75.982 12.891h3.6411v1.5734h-1.6102v0.3479h1.4638v1.5002h-1.4638v0.3662h1.6651v1.5551h-3.696v-5.3428zm0.1279 0.1279v5.087h3.4402v-1.2994h-1.6651v-0.6218h1.4638v-1.2445h-1.4638v-0.6036h1.6102v-1.3177h-3.3853z" clip-rule="evenodd" fill="#78A22F" fill-rule="evenodd" opacity=".99"/>
<path d="m81.408 14.601-1.0613 0.0549v-1.7017h3.9706v1.7017l-1.043-0.0549v3.5681h-1.8663v-3.5681z" fill="#78A22F" opacity=".99"/>
<path d="m80.282 12.891h4.0985v1.833l-1.043-0.0549v3.5647h-1.9942v-3.5647l-1.0613 0.0549v-1.833zm0.1279 0.1279v1.5704l1.0613-0.0549v3.5715h1.7385v-3.5715l1.043 0.0549v-1.5704h-3.8428z" clip-rule="evenodd" fill="#78A22F" fill-rule="evenodd" opacity=".99"/>
<path d="m86.714 12.955 0.5673 2.4702c0.0366 0.1281 0.0549 0.2562 0.0915 0.6404h0.0549c0.0366-0.4208 0.0731-0.6221 0.128-0.8783l0.5673-2.2323h1.4455l0.6038 2.3787c0.0366 0.1464 0.0549 0.3111 0.1098 0.7319h0.0366c0.0366-0.4208 0.0549-0.6038 0.1098-0.8417l0.5307-2.2689h1.9761l-1.8298 5.2149h-1.6468l-0.494-2.1226c-0.0549-0.2378-0.0732-0.3659-0.1098-0.7136h-0.0549c-0.0183 0.3843-0.0366 0.5307-0.0732 0.7136l-0.5306 2.1226h-1.6102l-1.8298-5.2149h1.9578z" fill="#78A22F" opacity=".99"/>
<path d="m84.666 12.891h2.099l0.5782 2.5182c0.0234 0.0821 0.0394 0.1643 0.0567 0.3034 0.0265-0.212 0.0556-0.3627 0.0934-0.5387l5e-4 -0.0024 0.5795-2.2805h1.545l0.616 2.427 1e-4 2e-4c0.0224 0.0897 0.0382 0.1862 0.0587 0.3374 0.0189-0.1714 0.0391-0.2985 0.0732-0.4461l0.5422-2.3185h2.117l-1.8746 5.3428h-1.7429l-0.5056-2.172c-0.0288-0.1248-0.0477-0.2203-0.0643-0.3314-0.0124 0.1305-0.0275 0.224-0.0486 0.3294l-3e-4 0.0015-0.5431 2.1725h-1.7054l-1.8747-5.3428zm0.1804 0.1279 1.7849 5.087h1.515l0.5182-2.0726c0.0355-0.178 0.0535-0.3211 0.0717-0.7027l0.0029-0.0608h0.1734l6e-3 0.0572c0.0365 0.3465 0.0544 0.4717 0.1085 0.7059l0.4825 2.073h1.5508l1.7849-5.087h-1.8353l-0.5191 2.2194c-0.0537 0.2329-0.0717 0.4116-0.1084 0.8328l-5e-3 0.0584h-0.1514l-0.0072-0.0556c-8e-3 -0.061-0.0152-0.1165-0.0217-0.1673-0.039-0.3018-0.0564-0.436-0.0867-0.5572v0l-0.5916-2.3305h-1.3461l-0.5547 2.183c-0.0542 0.2532-0.0903 0.4519-0.1266 0.8692l-0.0051 0.0584h-0.1716l-0.0055-0.0578c-0.0367-0.3851-0.0546-0.5074-0.0894-0.629l-4e-4 -0.0016-0.5562-2.4222h-1.8168z" clip-rule="evenodd" fill="#78A22F" fill-rule="evenodd" opacity=".99"/>
<path d="m98.662 15.571c0 1.5554-1.226 2.6898-2.8911 2.6898-1.6834 0-2.8728-1.0978-2.8728-2.6715 0-1.5919 1.1894-2.7081 2.9094-2.7081 1.6834 0 2.8545 1.0979 2.8545 2.6898zm-3.8426 0c0 0.5856 0.4026 1.0064 0.9698 1.0064 0.5673 0 0.9515-0.4025 0.9515-0.9881 0-0.6038-0.4025-1.0246-0.9881-1.0246-0.5306 0-0.9332 0.4391-0.9332 1.0063z" fill="#78A22F" opacity=".99"/>
<path d="m93.752 13.685c-0.4986 0.4653-0.7894 1.125-0.7894 1.9043 0 0.7699 0.2906 1.4205 0.7847 1.879 0.4944 0.4588 1.1964 0.7286 2.0242 0.7286 1.6343 0 2.8271-1.1102 2.8271-2.6259 0-0.7796-0.2864-1.4348-0.7758-1.8953-0.4898-0.4608-1.187-0.7306-2.0147-0.7306-0.8461 0-1.5572 0.2744-2.0561 0.7399zm-0.0872-0.0935c0.5257-0.4905 1.2693-0.7742 2.1433-0.7742 0.8557 0 1.5857 0.2792 2.1023 0.7653 0.5169 0.4864 0.8161 1.1761 0.8161 1.9884 0 1.595-1.2591 2.7537-2.955 2.7537-0.8557 0-1.5901-0.2792-2.1112-0.7627-0.5214-0.4838-0.8255-1.169-0.8255-1.9727 0-0.8126 0.3039-1.5069 0.83-1.9978zm1.0912 1.9795c0-0.5977 0.4266-1.0703 0.9972-1.0703 0.3086 0 0.5728 0.1113 0.7597 0.3055 0.1866 0.1941 0.2923 0.4668 0.2923 0.7831 0 0.3069-0.1009 0.5706-0.2809 0.7579-0.1801 0.1876-0.4352 0.2941-0.7345 0.2941-0.6049 0-1.0338-0.4518-1.0338-1.0703zm0.9972-0.9425c-0.4907 0-0.8693 0.4057-0.8693 0.9425 0 0.5526 0.3763 0.9425 0.9059 0.9425 0.2679 0 0.4885-0.0948 0.6423-0.2549 0.154-0.1603 0.2452-0.3907 0.2452-0.6693 0-0.2875-0.0956-0.5271-0.2566-0.6945-0.1608-0.1671-0.3907-0.2663-0.6675-0.2663z" clip-rule="evenodd" fill="#78A22F" fill-rule="evenodd" opacity=".99"/>
<path d="m99.267 12.955h2.3604c0.567 0 0.915 0.0732 1.244 0.2928 0.568 0.3476 0.842 0.8417 0.842 1.5004 0 0.4025-0.11 0.7685-0.329 1.0064-0.128 0.1647-0.311 0.2561-0.677 0.3659v0.0549c0.146 0.0915 0.219 0.1464 0.274 0.2379l1.171 1.7566h-2.177l-0.751-1.5187c-0.036-0.0732-0.054-0.0915-0.073-0.1647l-0.036 0.0183v1.6651h-1.8484v-5.2149zm2.1044 2.3238c0.311 0 0.494-0.1647 0.494-0.4391 0-0.2745-0.183-0.4575-0.421-0.4575h-0.329v0.8966h0.256z" fill="#78A22F" opacity=".99"/>
<path d="m99.331 13.018v5.087h1.72v-1.6407l0.143-0.0716 0.02 0.0773c0.011 0.0446 0.02 0.061 0.038 0.0943 8e-3 0.0146 0.018 0.0324 0.03 0.0573v3e-4l0.733 1.4831h2.018l-1.106-1.6585v-0.0013c-0.047-0.0771-0.108-0.1251-0.254-0.2165l-0.03-0.0188v-0.1379l0.046-0.0136c0.364-0.1094 0.53-0.1963 0.645-0.344l1e-3 -0.0021 2e-3 -2e-3c0.205-0.2222 0.313-0.5703 0.313-0.9631 0-0.6365-0.263-1.1099-0.812-1.4459l-2e-3 -0.0013c-0.314-0.2096-0.647-0.282-1.209-0.282h-2.296zm-0.064-0.064v-0.0639h2.36c0.573 0 0.935 0.0738 1.279 0.3029 0.586 0.3592 0.871 0.8737 0.871 1.5542 0 0.4114-0.111 0.7942-0.344 1.0478-0.131 0.1676-0.314 0.2622-0.633 0.3629 0.111 0.0721 0.181 0.1302 0.236 0.2202l1.236 1.8548h-2.337l-0.756-1.5312v1.5312h-1.9759v-5.2789h0.0639zm1.784 1.3634h0.393c0.277 0 0.485 0.2152 0.485 0.5213 0 0.1522-0.051 0.2806-0.151 0.3702-0.1 0.0889-0.24 0.1329-0.407 0.1329h-0.32v-1.0244zm0.128 0.1278v0.7688h0.192c0.145 0 0.252-0.0383 0.321-0.1005 0.069-0.0613 0.109-0.1524 0.109-0.2748 0-0.2427-0.157-0.3935-0.357-0.3935h-0.265z" clip-rule="evenodd" fill="#78A22F" fill-rule="evenodd" opacity=".99"/>
<path d="m104.63 12.955h1.83v1.4272c0 0.4209 0 0.4941-0.037 0.8234h0.037c0.036-0.1646 0.091-0.2927 0.219-0.5123 0.147-0.2196 0.238-0.3843 0.256-0.4392l0.696-1.2991h2.067l-1.628 2.5434 1.811 2.6715h-2.195l-0.86-1.5004c-0.147-0.2745-0.055-0.1281-0.256-0.4575-0.092-0.1647-0.074-0.1281-0.11-0.2379h-0.037c0.037 0.2013 0.037 0.3111 0.037 0.7503v1.4455h-1.83v-5.2149z" fill="#78A22F" opacity=".99"/>
<path d="m104.56 12.891h1.958v1.4912c0 0.2262 0 0.353-6e-3 0.4732 0.029-0.0583 0.064-0.1216 0.107-0.1944v-0.0016l2e-3 -0.0016c0.072-0.1088 0.131-0.2037 0.173-0.2778 0.044-0.0759 0.068-0.1256 0.075-0.1461l2e-3 -0.0052 0.716-1.3377h2.223l-1.669 2.6064 1.855 2.7364h-2.353l-0.879-1.5343c-0.05-0.093-0.072-0.1379-0.088-0.1689-0.03-0.0606-0.034-0.0678-0.163-0.2791 5e-3 0.1096 5e-3 0.2473 5e-3 0.4664v1.5159h-1.958v-5.3428zm0.128 0.1279v5.087h1.702v-1.3816c0-0.4404 0-0.5442-0.035-0.7388l-0.014-0.0753h0.159l0.015 0.0437c6e-3 0.0187 0.011 0.0327 0.014 0.0438 8e-3 0.0238 0.011 0.0339 0.018 0.0483 8e-3 0.0187 0.021 0.042 0.053 0.0999 6e-3 0.0102 0.012 0.0214 0.019 0.0339 0.135 0.2207 0.14 0.2303 0.172 0.2937 0.015 0.0313 0.037 0.0756 0.085 0.165l0.841 1.4674h2.038l-1.767-2.6065 1.588-2.4805h-1.912l-0.675 1.261c-0.013 0.0351-0.043 0.0928-0.084 0.1639-0.044 0.0765-0.104 0.1732-0.177 0.2833-0.126 0.2154-0.177 0.3369-0.211 0.4924l-0.012 0.05h-0.159l8e-3 -0.071c0.036-0.3258 0.036-0.3964 0.036-0.816v-1.3636h-1.702z" clip-rule="evenodd" fill="#78A22F" fill-rule="evenodd" opacity=".99"/>
<path d="m46.714 5.1596c0.0549 0.38425 0.0915 1.3174 0.2928 1.6834s0.2928 0.8051 0.1647 0.96978c-0.1281 0.16469-0.8051 0.58554-1.0613 0.67703s-0.4209-0.12809-0.5855-0.09149c-0.1647 0.0366-0.2928 0.16468-0.4575 0.16468 0.0915-0.21957 0.3294-0.45744 0.1647-0.76851-0.1647-0.29277-0.7685-0.71362-1.0613-0.80511s-0.7136 0.12809-0.7685 0.42085c-0.0366 0.29277 0.2196 1.1894 0.2562 1.3906 0.1647 0 0.3293 0.09148 0.4574 0.03659-0.1281 0.34766-0.3842 0.34766-0.4574 0.45745-0.0915 0.12808-0.1281 0.58553-0.4575 0.58553-0.3293 0-0.677-0.54894-0.8417-0.8417-0.1647-0.29277-0.7136-1.1894-1.0613-1.2626-0.3476-0.09149-1.1344 0.16469-1.354 0.29277-0.2196 0.12809-0.7136 0.42085-1.0979 0.45745-0.3842 0.03659-1.4455 0.09149-1.7749 0.25617-0.3476 0.16468-1.2259 1.226-1.4455 1.4821-0.2196 0.2562-1.3175 1.0979-1.3907 1.3175-0.0915 0.2196-0.5489 2.0311-0.2561 2.9643 0.2927 0.9332 0.9332 2.2872 1.1344 2.4885 0.2928 0 0.8051 0.0366 0.8966 0.4574 0.3477 0.0915 0.5124 0.4575 0.4575 0.6405-0.0366 0.1646-0.1281 0.5123-0.5124 0.5489-0.3842 0.0366-0.677-0.0915-0.8417 0.0915-0.1646 0.1647-0.9698-0.0915-1.1344-0.2928-0.1647-0.2196-0.4209-0.2562-0.5124-0.5123-0.0915-0.2562 0-0.3843-0.2196-0.5124-0.2195-0.1281-1.6468-1.8664-1.9944-2.4885-0.3477-0.6404-1.226-2.0311-1.1345-2.7081s0.1464-0.3842-0.5123-0.5855c-0.3111-0.0915-0.9698-0.2562-1.2626-0.2562s-1.1345 0.0915-1.3174 0.1647c-0.1647 0.0915-0.8052 1.1894-1.0979 1.4455-0.2928 0.2562-1.3541 1.1345-1.4822 1.4456-0.128 0.2927-0.2195 0.8966-0.0366 0.8966 0.183 0 0.5856 0.2195 0.7137 0.3293 0.1281 0.1281 0.6404 0.1281 0.6404 0.3477s-0.0915 0.5123-0.2928 0.677c-0.2195 0.1647-0.2927 0.2928-0.8051 0.2196-0.5123-0.0915-1.1162-0.0732-1.3906-0.1647-0.3294-0.1098-0.2928-0.2928-0.4209-0.3843-0.1281-0.0914-0.3293-0.3476-0.2561-0.5855 0.0914-0.2562-0.1281-0.5123-0.2928-0.677s0.0366-0.3477 0.1647-0.677c0.1281-0.3477 0.8051-1.9396 0.8417-2.4154 0.0366-0.4574-0.0915-0.2744-0.549-0.2561-0.2561 0.0183-1.9395 0.1646-2.1225 0.1646-0.1647 0-0.3843 0.4575-0.5124 0.6405-0.1281 0.1647-0.9698 1.7749-1.0612 1.9944-0.0915 0.2196 0.1646 0.8418 0.2927 0.9698 0.1281 0.1281 0.4575 0.2928 0.5856 0.2928 0.128 0 1.1344 0.0366 1.354 0.0915 0.2196 0.0366 0.1464 0.2928 0.3294 0.3477 0.2012 0.0549 0.5123 0.1646 0.4574 0.5123-0.0366 0.3477-0.3842 0.4574-0.5489 0.4574s-0.4575 0.0915-0.5856 0.2562c-0.128 0.1647-0.6404 0.2562-0.8417 0.1647-0.2012-0.0915-0.677-0.6404-0.9698-0.7136-0.2927-0.0732-1.5736-0.5124-1.7383-0.7136-0.1646-0.2196-0.4208-0.4209-0.4574-1.0979s-0.2196-0.9698-0.2928-1.1894c-0.0915-0.2196-0.2927-0.0366-0.4208 0.0915s-1.0064 1.0979-1.3175 1.3175c-0.2927 0.2195-1.9945 1.3906-2.4885 1.6468-0.5123 0.2561-2.6715 1.0613-3.0924 1.354-0.42085 0.2928-1.3174 1.226-1.5187 1.6834-0.21958 0.4575 0 0.4209 0.25617 0.4209 0.21957 0 0.54893 0.1464 0.64042 0.3842 0.0732 0.2013 0.29277 0.2379 0.34767 0.4209 0.07319 0.2745-0.23788 0.2928-0.45745 0.4208-0.21958 0.1281-0.36596 0.2196-0.53064 0.3477-0.14639 0.1098-0.32937 0.1098-0.49405 0.1098s-0.43915-0.1464-0.56723-0.183c-0.12809-0.0366-0.40256-0.0549-0.49405-0.2745-0.09149-0.2195 0-0.7136-0.16468-0.9331-0.16468-0.2196-0.21957-0.4575-0.21957-0.6771 0-0.2195 0.25617-0.8417 0.51234-1.1344 0.25617-0.2928 0.71362-1.0613 0.76851-1.3175 0.0366-0.2562 0-0.7685 0.29277-0.8966s1.226-0.5855 1.5736-0.9698c0.32936-0.3842 1.0612-1.6834 1.2625-2.7447 0.2196-1.0613 1.0613-3.8425 1.3541-4.3183-1.0979 0.8966-1.4639 1.8115-1.72 2.4336-0.25621 0.6405-1.0796 2.4886-1.6834 3.4583-0.58553 0.9698-1.4638 2.3605-2.5251 3.1473-1.0613 0.8051-1.8664 1.4455-3.2204 1.4455s-1.9945-0.677-2.3238-1.2259c-0.34766-0.549-0.54894-1.6834-0.09149-2.452 0.45745-0.7685 1.7383-1.8115 2.1226-1.9395 0.38426-0.1281 0.80511 0 0.84171 0.3842 0.03659 0.3843-0.25617 0.677-0.51234 0.8966-0.25618 0.2196-1.4455 1.1162-1.1894 1.903 0.25617 0.7685 0.93319 0.8417 1.4455 0.8417 0.51234 0 1.354-0.4208 2.1958-1.354 0.8417-0.9332 1.7383-2.1592 2.6715-4.0988 0.93319-1.9396 1.5187-3.257 2.1958-4.0987 0.677-0.8417 1.9944-2.2506 2.7996-2.6715 0.8051-0.42085 2.0676-0.8966 2.8361-1.226s2.6715-1.3174 3.2571-1.5187c0.5855-0.21957 2.3238-0.71361 3.3485-0.89659 1.0064-0.16469 2.1957 0.03659 3.1655 0.16468 0.9698 0.12808 2.6166 0.25617 3.6047 0.12808 0.9698-0.12808 1.6834-0.45745 2.2507-0.80511 0.5489-0.34766 1.1893-0.38425 1.6834-0.38425 0.5123 0 2.2506 0.38425 2.9642 0.51234 0.7137 0.12808 2.6715 0.16468 3.0924 0.12809 0.4208-0.0366 1.7749 0.03659 2.3604 0.16468 0.5855 0.12808 2.4519 0.8051 3.1656 1.354 0.7319 0.54894 2.031 1.8115 2.0859 2.1592zm-1.9762 0.14638c-0.128 0.31107 0.0183 1.2808 0.6588 1.3174 0.6404 0.0366 0.5306-0.43915 0.494-0.58553l-0.1098-0.10979c-0.0366 0.40256-0.677 0.36596-0.9332-0.54894l-0.1098-0.07319z" fill="#000" opacity=".99"/>
<path d="m33.046 0.90519c-0.4927 0-1.1168 0.03717-1.6492 0.37433l-8e-4 5e-4c-0.5729 0.35114-1.295 0.68446-2.2757 0.81399-0.9969 0.12923-2.6509 9e-5 -3.6214-0.12809-0.1092-0.01443-0.221-0.02973-0.3347-0.04531-0.9015-0.12347-1.9286-0.26414-2.8117-0.11973-1.021 0.18238-2.7551 0.67528-3.3369 0.89344l-0.0016 6.2e-4c-0.2881 0.09904-0.9058 0.39406-1.5528 0.70835-0.0997 0.04846-0.2001 0.09735-0.2999 0.14597-0.5447 0.26523-1.0737 0.52286-1.3999 0.66268-0.2288 0.09803-0.4997 0.20842-0.7886 0.32615-0.688 0.28038-1.4781 0.60234-2.0432 0.89771-0.3932 0.20556-0.918 0.65681-1.4324 1.1667-0.5129 0.50832-1.0099 1.0692-1.347 1.4882-0.57925 0.72018-1.0916 1.793-1.8228 3.3239-0.11583 0.2426-0.23715 0.4966-0.3651 0.7625-0.9358 1.945-1.8358 3.1761-2.6816 4.1138-0.42461 0.4708-0.85047 0.8137-1.2366 1.0394-0.38498 0.2249-0.73485 0.3358-1.0066 0.3358-0.25786 0-0.56623-0.0181-0.84414-0.1379-0.28124-0.1212-0.52793-0.3452-0.66204-0.7475l-1.4e-4 -4e-4c-0.07002-0.2151-0.04001-0.4346 0.0432-0.642 0.08302-0.207 0.22038-0.4057 0.37142-0.5834 0.25367-0.2986 0.5538-0.5468 0.71718-0.6819 0.03088-0.0255 0.05688-0.047 0.07675-0.0641 0.12723-0.109 0.259-0.2325 0.35462-0.3738 0.09505-0.1404 0.15217-0.295 0.13569-0.4682-0.01578-0.1656-0.11244-0.2749-0.25089-0.331-0.14114-0.0573-0.32642-0.0588-0.50697 0.0014-0.0863 0.0287-0.23168 0.1129-0.41281 0.2406-0.17914 0.1263-0.3878 0.2912-0.59911 0.4764-0.42393 0.3715-0.85242 0.8191-1.0759 1.1946-0.21982 0.3693-0.2833 0.8305-0.24739 1.2704 0.035922 0.44 0.17066 0.8505 0.33795 1.1146l8.26e-4 0.0013c0.16126 0.2688 0.39742 0.5669 0.75736 0.798 0.35945 0.2307 0.8459 0.397 1.5116 0.397 1.2951 0 2.077-0.5937 3.0998-1.3703 0.02716-0.0207 0.05449-0.0414 0.082-0.0623l5.7e-4 -4e-4c1.0496-0.7781 1.922-2.1576 2.5085-3.1289l4.6e-4 -8e-4c0.6008-0.9649 1.4225-2.8088 1.6783-3.4482l3e-4 -6e-4c0.0037-9e-3 0.0074-0.018 0.0111-0.0271 0.2568-0.6239 0.6328-1.5377 1.7276-2.4317l0.0948 0.08302c-0.069 0.11227-0.1745 0.36877-0.2984 0.71428-0.1231 0.34304-0.2623 0.76754-0.3994 1.2106-0.2742 0.8867-0.5387 1.8447-0.6479 2.3723-0.1022 0.5385-0.3382 1.1342-0.5887 1.6421-0.25021 0.5074-0.5183 0.9337-0.68806 1.1318l-0.00112 0.0013c-0.18136 0.2004-0.50975 0.4151-0.82319 0.5936-0.31545 0.1796-0.62396 0.327-0.77223 0.3918-0.1144 0.0501-0.1736 0.1795-0.20517 0.3532-0.01536 0.0844-0.02318 0.1736-0.02945 0.2594-0.00112 0.0153-0.00219 0.0306-0.00326 0.0458-0.00479 0.0682-0.00941 0.134-0.01722 0.1887l-3.2e-4 0.0022-4.6e-4 0.0022c-0.01547 0.0721-0.0574 0.1742-0.1122 0.2872-0.05554 0.1146-0.12674 0.2453-0.20397 0.3768-0.1539 0.2618-0.3347 0.5312-0.46674 0.6821-0.12191 0.1393-0.24688 0.3613-0.34178 0.5782-0.04719 0.1079-0.08625 0.2129-0.11339 0.3038-0.02759 0.0923-0.04136 0.1651-0.04136 0.2104 0 0.2086 0.05197 0.4322 0.20679 0.6387 0.04936 0.0658 0.07703 0.1485 0.0939 0.2334 0.01697 0.0854 0.02399 0.1785 0.02859 0.2682 0.00151 0.0295 0.00276 0.0584 0.00398 0.0866 0.00257 0.0596 0.00502 0.1165 0.0096 0.1703 0.00676 0.0795 0.01763 0.1432 0.03648 0.1884 0.03627 0.0871 0.10929 0.1373 0.19705 0.1707 0.04385 0.0167 0.08961 0.0285 0.13383 0.0386 0.01239 0.0028 0.0251 0.0056 0.03773 0.0084 0.03015 0.0065 0.05989 0.013 0.08399 0.0199 0.03583 0.0102 0.08004 0.0276 0.12607 0.0463 0.01501 0.0061 0.03031 0.0124 0.04585 0.0188 0.03348 0.0138 0.06813 0.0281 0.10371 0.0421 0.10647 0.0416 0.20549 0.0733 0.27405 0.0733 0.16855 0 0.32875-2e-3 0.45527-0.0967 0.16783-0.1305 0.317-0.2236 0.5372-0.352 0.05934-0.0346 0.12398-0.0613 0.18248-0.0852l0.00725-0.0029c0.05729-0.0234 0.10749-0.0438 0.14928-0.0677 0.0433-0.0248 0.07022-0.0493 0.08438-0.0761 0.01307-0.0248 0.0196-0.06 0.00476-0.1163-0.02105-0.069-0.07242-0.1122-0.14559-0.1713l-0.00253-2e-3c-0.06921-0.0558-0.15486-0.1249-0.19786-0.2425-0.03844-0.0995-0.12946-0.1856-0.24304-0.2478-0.11333-0.062-0.2401-0.095-0.33756-0.095-0.01631 0-0.03308 1e-4 -0.04999 3e-4 -0.04575 5e-4 -0.09246 9e-4 -0.13344-0.0019-0.05509-0.0039-0.11714-0.0143-0.16323-0.0515-0.0519-0.0419-0.06943-0.105-0.06173-0.1795 0.00742-0.0718 0.03857-0.163 0.09414-0.2789 0.10574-0.2396 0.38681-0.5937 0.68813-0.9201 0.30298-0.3283 0.63605-0.6387 0.85217-0.7891 0.11099-0.0772 0.33049-0.1847 0.59908-0.3049 0.27053-0.1211 0.59663-0.2575 0.92503-0.3925 0.1531-0.0629 0.3064-0.1255 0.4548-0.186 0.4902-0.2 0.9263-0.3779 1.121-0.4751 0.2433-0.1263 0.7885-0.4805 1.313-0.8332 0.5238-0.3523 1.0212-0.6991 1.1661-0.8078l0.0015-0.0011c0.1494-0.1055 0.442-0.3974 0.7181-0.6851 0.1528-0.1592 0.3003-0.3167 0.4115-0.4355 0.0867-0.0926 0.1514-0.1617 0.1795-0.1898 0.0627-0.0627 0.1531-0.1495 0.2436-0.1894 0.0462-0.0204 0.1019-0.0329 0.1571-0.0137 0.0567 0.0198 0.0973 0.0671 0.1244 0.1322l9e-4 0.0021 7e-4 0.0023c0.0143 0.0429 0.0335 0.0898 0.0554 0.1432 0.0854 0.2084 0.2109 0.5148 0.2406 1.0629 0.0178 0.3302 0.0889 0.5402 0.1729 0.6931 0.0597 0.1088 0.1242 0.1873 0.1877 0.2644 0.0281 0.0342 0.056 0.068 0.0832 0.1042 0.0137 0.0163 0.0436 0.0403 0.0931 0.0705 0.0488 0.0299 0.1113 0.0628 0.1842 0.0976 0.1456 0.0695 0.3285 0.1449 0.5164 0.2166 0.3766 0.1438 0.7672 0.2708 0.9099 0.3065 0.0852 0.0213 0.1778 0.0752 0.2683 0.1394 0.0916 0.0652 0.1868 0.1453 0.2774 0.2244 0.0349 0.0305 0.0689 0.0606 0.1018 0.0898 0.0539 0.0477 0.1049 0.093 0.1528 0.1334 0.0782 0.0662 0.1393 0.1118 0.1804 0.1305 0.039 0.0177 0.0989 0.0286 0.1734 0.0303 0.0733 0.0016 0.1557-0.0059 0.2366-0.0212s0.1585-0.0381 0.2224-0.0661c0.0654-0.0286 0.11-0.0599 0.1324-0.0888 0.0739-0.095 0.191-0.1645 0.306-0.21 0.1155-0.0457 0.2379-0.0708 0.33-0.0708 0.0711 0 0.1872-0.0245 0.2883-0.0885 0.0991-0.0626 0.1812-0.1611 0.1971-0.3117l2e-4 -0.0017 2e-4 -0.0016c0.0121-0.0768 0.0036-0.1369-0.016-0.1848-0.0197-0.0482-0.0523-0.088-0.0937-0.1215-0.0848-0.0686-0.2012-0.1071-0.3014-0.1344l-0.0016-4e-4c-0.116-0.0349-0.1566-0.1331-0.1848-0.2011-0.0022-0.0055-0.0044-0.0108-0.0066-0.0159-0.016-0.0378-0.0297-0.066-0.0488-0.0873-0.0171-0.0191-0.0406-0.0348-0.0813-0.0416l-0.0025-4e-4 -0.0025-6e-4c-0.0492-0.0123-0.1482-0.0246-0.2762-0.0358-0.1263-0.0111-0.2759-0.0208-0.4231-0.0287-0.2949-0.016-0.577-0.0251-0.6392-0.0251-0.0429 0-0.0956-0.0132-0.1482-0.0312-0.0542-0.0186-0.114-0.0443-0.1732-0.0739-0.1167-0.0584-0.2382-0.1352-0.3093-0.2064-0.0397-0.0396-0.0834-0.1103-0.1245-0.1909-0.042-0.0825-0.0843-0.1819-0.1195-0.2841-0.0351-0.1019-0.0638-0.2083-0.0777-0.3047-0.0136-0.0939-0.0147-0.1884 0.0151-0.2599 0.0471-0.1131 0.2822-0.5738 0.5194-1.0231 0.119-0.2255 0.2393-0.4494 0.338-0.6275 0.0961-0.1736 0.175-0.3096 0.2113-0.3571 0.0303-0.0434 0.0664-0.1036 0.1077-0.1723l3e-4 -6e-4c0.041-0.0682 0.0862-0.1437 0.1328-0.2136 0.0465-0.0696 0.0962-0.1367 0.1464-0.187 0.0474-0.0474 0.1081-0.093 0.1767-0.093 0.0881 0 0.5506-0.0362 1.0286-0.0753 0.1839-0.015 0.3693-0.0304 0.535-0.0441 0.2626-0.0218 0.4756-0.0395 0.5544-0.0451l2e-3 -2e-4c0.1102-0.0044 0.2008-0.0187 0.276-0.0312 0.0055-9e-4 0.011-0.0018 0.0165-0.0027 0.065-0.0109 0.1275-0.0214 0.1767-0.016 0.0293 0.0031 0.0597 0.0122 0.0859 0.0337s0.0421 0.0505 0.0517 0.0824c0.0178 0.0598 0.0175 0.1453 0.0084 0.2589-0.0098 0.1272-0.0612 0.3224-0.1317 0.5436-0.0711 0.2232-0.1637 0.4789-0.2588 0.7297-0.0951 0.2511-0.193 0.4979-0.2751 0.7036-0.0132 0.033-0.026 0.0649-0.0382 0.0956-0.0644 0.161-0.115 0.2878-0.1416 0.3599l-4e-4 0.0011c-0.0333 0.0856-0.0712 0.1613-0.1058 0.2279-0.0066 0.0127-0.013 0.0249-0.0192 0.0368-0.0271 0.0517-0.0503 0.0961-0.0679 0.1374-0.0216 0.0507-0.0308 0.0886-0.0293 0.1196 0.0014 0.0279 0.0119 0.0557 0.0431 0.0869 0.0833 0.0833 0.1847 0.1938 0.2533 0.3187 0.0685 0.1248 0.1085 0.2722 0.055 0.4236-0.029 0.0959-0.0044 0.2005 0.0481 0.2971 0.0526 0.0969 0.1285 0.1764 0.1845 0.2164 0.0419 0.0299 0.0689 0.0665 0.0906 0.1015 0.0084 0.0134 0.0165 0.0275 0.0242 0.0408 2e-3 0.0036 4e-3 0.0071 6e-3 0.0105 0.0097 0.0168 0.0192 0.0328 0.0299 0.0486 0.0402 0.0593 0.1019 0.1238 0.2532 0.1742 0.1279 0.0426 0.3381 0.0607 0.5906 0.0792 0.0174 0.0013 0.035 0.0026 0.0528 0.0039 0.2346 0.0171 0.4956 0.0361 0.7372 0.0791 0.2509 0.0358 0.3841 0.0206 0.4787-0.0169 0.0477-0.0189 0.0884-0.0445 0.1317-0.0767 0.0217-0.0162 0.0435-0.0335 0.0674-0.0526l7e-4 -5e-4c0.0237-0.0188 0.0491-0.0391 0.077-0.06 0.1813-0.1491 0.2683-0.4202 0.2683-0.6268 0-0.0249-0.0127-0.0489-0.0532-0.0755-0.0417-0.0274-0.102-0.0498-0.1735-0.0714-0.0274-0.0083-0.0579-0.0168-0.0889-0.0254-0.0438-0.0122-0.0884-0.0247-0.1265-0.037-0.0647-0.021-0.1335-0.0482-0.1776-0.0912-0.0589-0.0499-0.185-0.1286-0.3212-0.1956-0.0681-0.0335-0.137-0.0632-0.1991-0.0843-0.0634-0.0216-0.115-0.0327-0.1501-0.0327-0.0432 0-0.0789-0.0188-0.1046-0.0486-0.0239-0.0277-0.0381-0.0632-0.0469-0.0988-0.0177-0.0713-0.0188-0.1642-0.0106-0.2604 0.0165-0.1933 0.0727-0.4239 0.1398-0.5775 0.0193-0.0467 0.0539-0.0996 0.0967-0.1551 0.0436-0.0565 0.0982-0.119 0.16-0.1849 0.1237-0.1318 0.2789-0.28 0.4384-0.4257 0.2316-0.2117 0.475-0.4204 0.6462-0.5672 0.0641-0.055 0.1182-0.1014 0.1576-0.1359 0.0674-0.059 0.1587-0.1704 0.2626-0.311 0.103-0.1393 0.215-0.3024 0.3237-0.4615l0.0232-0.034c0.1002-0.1466 0.1969-0.2881 0.2791-0.4003 0.0442-0.0604 0.0851-0.1134 0.1205-0.1545 0.0335-0.0389 0.0681-0.0744 0.0998-0.092l0.0036-2e-3 0.0038-0.0015c0.0528-0.0211 0.1461-0.0415 0.2547-0.0603 0.1107-0.0191 0.2434-0.0375 0.379-0.0536 0.2704-0.0321 0.5571-0.0554 0.7074-0.0554 0.1542 0 0.3983 0.0428 0.6381 0.0953 0.2417 0.0529 0.4856 0.1174 0.6425 0.1635l7e-4 2e-4c0.1604 0.049 0.2769 0.0678 0.3605 0.079 0.0136 0.0018 0.0268 0.0034 0.0395 5e-3 0.0253 0.0032 0.0484 0.0061 0.0676 0.0093 0.0281 0.0047 0.0596 0.0117 0.0857 0.0284 0.0309 0.0197 0.048 0.0487 0.0548 0.0827 6e-3 0.0297 0.0042 0.0641 3e-4 0.1004-4e-3 0.0363-0.0111 0.0815-0.0196 0.1361l-7e-4 0.0044c-9e-3 0.0571-0.0198 0.126-0.0311 0.2099-0.021 0.1551 0.0133 0.358 0.0873 0.5908 0.0736 0.2313 0.1841 0.4855 0.3093 0.7403 0.1722 0.3507 0.3693 0.6974 0.5328 0.9853 0.0747 0.1314 0.1425 0.2506 0.1977 0.3523 0.1709 0.3056 0.611 0.8915 1.039 1.4202 0.2134 0.2636 0.4226 0.5115 0.5918 0.7012 0.0847 0.095 0.1589 0.1749 0.2185 0.2347 0.0617 0.062 0.1023 0.097 0.1214 0.1081 0.0606 0.0353 0.1039 0.0731 0.1343 0.1167 0.0305 0.0437 0.045 0.089 0.054 0.1341 0.0062 0.031 0.01 0.0602 0.0138 0.0897 0.0078 0.0606 0.0159 0.1226 0.0455 0.2055 0.0389 0.1089 0.1121 0.1726 0.2056 0.2394 0.0135 0.0096 0.0275 0.0194 0.0419 0.0294 0.083 0.0577 0.1784 0.124 0.2548 0.2255 0.0324 0.039 0.1027 0.0874 0.2016 0.136 0.0973 0.0479 0.2149 0.0923 0.3329 0.1257 0.1182 0.0335 0.2342 0.0551 0.3287 0.0588 0.0473 0.0019 0.0871-8e-4 0.1181-0.0076 0.0305-0.0068 0.0479-0.0164 0.0569-0.0249 0.1029-0.113 0.2437-0.1248 0.3866-0.1202 0.0432 0.0014 0.0871 0.0042 0.1322 0.0072 0.1113 0.0072 0.2299 0.0149 0.3629 0.0022 0.1703-0.0162 0.2731-0.0998 0.3396-0.1985 0.0683-0.1014 0.0983-0.2192 0.1164-0.3007l5e-4 -0.0022 7e-4 -0.0023c0.0202-0.0674 0.0015-0.1854-0.0709-0.3025-0.0707-0.1143-0.1862-0.2168-0.3416-0.2577l-0.0379-0.01-0.0083-0.0382c-0.0394-0.1814-0.168-0.2825-0.3315-0.3398-0.1654-0.058-0.3575-0.0673-0.5026-0.0673h-0.0265l-0.0187-0.0188c-0.0303-0.0302-0.0653-0.0783-0.1031-0.137-0.0385-0.0599-0.0819-0.1343-0.1288-0.22-0.0938-0.1715-0.2025-0.3901-0.3139-0.6312-0.2225-0.4818-0.457-1.0563-0.6045-1.5264-0.1511-0.4817-0.1075-1.1808-0.0182-1.7783 0.0449-0.3005 0.1019-0.5784 0.1534-0.7953 0.0506-0.2127 0.0969-0.3706 0.1221-0.4324 0.0139-0.0394 0.0458-0.0837 0.0827-0.1276 0.0394-0.0469 0.0908-0.1004 0.1498-0.158 0.1181-0.1152 0.2703-0.25 0.4259-0.385 0.0652-0.0566 0.1309-0.1131 0.1951-0.1683 0.0897-0.0772 0.1766-0.1519 0.2552-0.2209 0.1358-0.1191 0.2419-0.2167 0.2933-0.2766 0.0206-0.0241 0.0473-0.0555 0.0789-0.0928 0.1352-0.15934 0.361-0.42561 0.5972-0.68409 0.1457-0.1595 0.2962-0.31693 0.4325-0.44517 0.1342-0.12618 0.2605-0.22982 0.3574-0.27594 0.0908-0.04524 0.2261-0.08072 0.3784-0.10969 0.1541-0.02932 0.3315-0.05298 0.5096-0.0725 0.2316-0.02541 0.4689-0.04422 0.6579-0.05921 0.0997-0.00791 0.186-0.01475 0.251-0.02094 0.1808-0.01722 0.3923-0.09567 0.5895-0.1886 0.1874-0.0883 0.3565-0.18702 0.4672-0.25165l0.015-0.00878c0.1173-0.06839 0.3754-0.16621 0.6453-0.23543 0.1359-0.03482 0.2769-0.06299 0.407-0.07656 0.1282-0.01338 0.251-0.01316 0.3488 0.01223 0.1051 0.02271 0.215 0.10335 0.3188 0.2031 0.1065 0.10234 0.2152 0.23351 0.3169 0.36983 0.2034 0.27283 0.3833 0.5727 0.4665 0.7205 0.0816 0.14518 0.2073 0.35134 0.3519 0.52043 0.0723 0.08455 0.1477 0.15785 0.223 0.2096 0.0756 0.05198 0.1464 0.07909 0.2111 0.07909 0.1262 0 0.2014-0.08424 0.2601-0.20818 0.0265-0.05592 0.0473-0.11518 0.0673-0.17219l6e-3 -0.01695c0.0202-0.0576 0.0424-0.11958 0.0714-0.16058 0.0272-0.04035 0.0683-0.06689 0.1051-0.08804 0.0147-0.00847 0.0289-0.01614 0.0429-0.02376 0.0253-0.01376 0.0504-0.02737 0.0783-0.04525 0.06-0.03851 0.1234-0.09147 0.176-0.18287-0.0417-0.00133-0.0826-0.00861-0.1201-0.01634-0.018-0.00371-0.0355-0.00756-0.0526-0.01132-0.0623-0.01373-0.1191-0.02625-0.177-0.02625h-0.0533l-0.0096-0.05249c-0.0087-0.04791-0.0309-0.1392-0.0598-0.25728l-0.0016-0.00663c-0.0283-0.11552-0.062-0.25361-0.0936-0.39456-0.0322-0.14355-0.0623-0.29102-0.082-0.42154-0.0195-0.12863-0.03-0.24726-0.0197-0.33l3e-4 -0.00193 3e-4 -0.00192c0.0323-0.172 0.1689-0.31358 0.3276-0.39903 0.1591-0.08568 0.3555-0.12333 0.5228-0.07106 0.1565 0.0489 0.3874 0.18192 0.5975 0.33662 0.2093 0.15408 0.411 0.33919 0.5004 0.49817l8e-4 0.00142c0.0937 0.17689 0.0716 0.3347 0.0166 0.47222-0.0269 0.06731-0.0621 0.13074-0.0945 0.18854l-0.0054 0.00954c-0.0078 0.0139-0.0154 0.02742-0.0227 0.04064 0.0272-0.01026 0.0551-0.02337 0.085-0.0383 0.0097-0.00484 0.0196-0.0099 0.0298-0.01509 0.0625-0.03189 0.1344-0.0686 0.2136-0.0862 0.0572-0.0127 0.1111-0.0023 0.1588 0.0134 0.0322 0.01059 0.0668 0.02561 0.0993 0.03969 0.0134 0.00582 0.0264 0.01147 0.0387 0.01659 0.0894 0.03704 0.1759 0.0616 0.2811 0.02401 0.1209-0.04317 0.3491-0.16786 0.5661-0.30491 0.1076-0.06799 0.2108-0.13793 0.2946-0.20068 0.0855-0.06412 0.1455-0.11681 0.1717-0.15048 0.0216-0.02785 0.0377-0.07258 0.0434-0.13601 0.0056-0.0627 6e-4 -0.13846-0.0147-0.22273-0.0307-0.16852-0.1012-0.3633-0.199-0.541-0.0547-0.09941-0.0963-0.2333-0.1293-0.38017-0.0332-0.14779-0.0587-0.31302-0.0794-0.4775-0.0207-0.16457-0.0368-0.32955-0.0511-0.47669l-6e-4 -0.00632c-0.014-0.14494-0.0263-0.27108-0.0395-0.36397-5e-3 -0.03043-0.0256-0.07909-0.0667-0.14624-0.0403-0.06573-0.0966-0.14341-0.1662-0.23019-0.139-0.17343-0.3277-0.37926-0.5385-0.59228-0.4216-0.42617-0.927-0.87679-1.2898-1.1489l-6e-4 -4.7e-4c-0.3492-0.26863-0.9869-0.57241-1.6157-0.82623-0.6279-0.25343-1.237-0.45314-1.5245-0.51604-0.2877-0.06294-0.7685-0.11304-1.2324-0.14275-0.4642-0.02973-0.9037-0.03853-1.1088-0.02069-0.2148 0.01868-0.8132 0.01849-1.444-0.00208-0.6309-0.02058-1.3032-0.0618-1.6652-0.12677-0.1935-0.03473-0.4633-0.08848-0.7631-0.14821-0.253-0.05039-0.5273-0.10504-0.7952-0.15612-0.5904-0.11257-1.146-0.20701-1.3947-0.20701zm-1.7172 0.26607c0.5654-0.35792 1.2219-0.39392 1.7172-0.39392 0.2637 0 0.8334 0.097684 1.4186 0.20927 0.2708 0.051627 0.5457 0.10641 0.7985 0.15677 0.2981 0.0594 0.5653 0.11264 0.7585 0.14731 0.3516 0.06311 1.015 0.10423 1.6467 0.12483s1.2227 0.02041 1.4288 0.00249c0.2157-0.01875 0.6637-0.00926 1.1281 0.02048 0.4647 0.02976 0.9537 0.08029 1.2515 0.14544 0.298 0.06519 0.9149 0.26803 1.545 0.52237 0.629 0.25386 1.2811 0.56295 1.6455 0.84319 0.3692 0.27688 0.8792 0.73189 1.3037 1.161 0.2124 0.21469 0.4045 0.424 0.5474 0.60223 0.0714 0.08905 0.1313 0.17134 0.1754 0.24334 0.0431 0.07029 0.0751 0.137 0.084 0.19351l2e-4 9.3e-4c0.0136 0.09584 0.0261 0.22453 0.04 0.36755l9e-4 9e-3c0.0143 0.14733 0.0302 0.31057 0.0507 0.47308 0.0204 0.1626 0.0453 0.3233 0.0773 0.46542 0.0321 0.14304 0.0706 0.26303 0.1165 0.3466 0.1036 0.18826 0.1794 0.39603 0.2128 0.57974 0.0167 0.09185 0.0231 0.17963 0.0162 0.25703-0.0069 0.07665-0.0274 0.14857-0.0698 0.20307-0.0379 0.04867-0.1106 0.11034-0.196 0.17431-0.0872 0.06533-0.1933 0.1372-0.303 0.20645-0.2175 0.13742-0.456 0.2689-0.5913 0.31722-0.1509 0.05389-0.2748 0.01441-0.373-0.02631-0.0172-0.0071-0.0328-0.01389-0.0474-0.02026-0.0295-0.01281-0.0551-0.02396-0.0816-0.03267-0.0375-0.01232-0.0659-0.01565-0.0911-0.01005-0.0621 0.01379-0.118 0.04215-0.1812 0.07427-0.0107 0.00544-0.0216 0.01097-0.0328 0.01657-0.0737 0.03684-0.1587 0.07536-0.2573 0.07536h-0.0959l0.0368-0.08851c0.023-0.05517 0.0544-0.11086 0.0844-0.16423l0.0064-0.01145c0.0327-0.05827 0.0639-0.11492 0.0873-0.17342 0.0455-0.11385 0.0601-0.23029-0.0105-0.36414-0.0754-0.1337-0.2577-0.30508-0.4644-0.45724-0.2061-0.15179-0.4235-0.27495-0.5598-0.31754-0.1255-0.03921-0.2859-0.01282-0.4241 0.0616-0.1379 0.07427-0.2388 0.18806-0.2622 0.30811-0.0075 0.0638 3e-4 0.16625 0.0195 0.29305 0.0191 0.12622 0.0485 0.27038 0.0804 0.41274 0.0313 0.13972 0.0648 0.27678 0.0931 0.3925l0.0015 0.00627c0.0209 0.08549 0.0392 0.16034 0.0512 0.21487 0.0557 0.0052 0.1104 0.01735 0.1588 0.02811 0.0153 0.0034 0.03 0.00665 0.0438 0.00951 0.0781 0.01606 0.1331 0.02036 0.177 0.00156l0.1365-0.0585-0.0514 0.13936c-0.0697 0.18927-0.1761 0.28644-0.2748 0.34964-0.0314 0.02013-0.0644 0.03813-0.0921 0.05325-0.0128 0.00696-0.0244 0.01331-0.0343 0.01897-0.0356 0.02045-0.0536 0.03487-0.063 0.04895l-0.0011 0.00171c-0.0165 0.02306-0.0331 0.0658-0.0556 0.12958l-6e-3 0.01731c-0.0197 0.05614-0.0427 0.12175-0.0722 0.1841-0.0648 0.13681-0.1726 0.2813-0.3757 0.2813-0.1001 0-0.1962-0.04151-0.2836-0.1016-0.0877-0.06033-0.1713-0.14257-0.2476-0.23185-0.1528-0.17857-0.2832-0.39326-0.3663-0.54084-0.0815-0.14497-0.2584-0.43979-0.4575-0.70675-0.0996-0.13357-0.2036-0.25857-0.303-0.35408-0.1015-0.09759-0.19-0.15615-0.2582-0.17052l-0.0016-3.2e-4 -0.0015-4.1e-4c-0.0759-0.01996-0.1812-0.02196-0.3044-0.0091-0.1221 0.01273-0.2567 0.03945-0.3885 0.07324-0.2653 0.06803-0.5103 0.16233-0.6127 0.22203l-0.0156 0.00909c-0.1105 0.06457-0.2839 0.16578-0.4765 0.25655-0.2008 0.09462-0.4285 0.18085-0.6319 0.20022-0.0688 0.00655-0.1572 0.01355-0.2582 0.02156-0.1874 0.01482-0.4183 0.03311-0.6489 0.0584-0.1765 0.01936-0.3502 0.04259-0.4997 0.07102-0.151 0.02873-0.2716 0.06177-0.3456 0.09873l-0.0012 6e-4c-0.0768 0.03637-0.1903 0.12697-0.3252 0.25382-0.133 0.12508-0.281 0.27985-0.4258 0.43828-0.2343 0.25645-0.4579 0.52016-0.5933 0.67976-0.0319 0.0376-0.059 0.0695-0.08 0.0941-0.0585 0.0682-0.1719 0.1719-0.3061 0.2895-0.0788 0.0692-0.1668 0.1448-0.2571 0.2225-0.0641 0.0552-0.1295 0.1114-0.1937 0.1671-0.1555 0.1349-0.3052 0.2677-0.4204 0.38-0.0576 0.0563-0.1057 0.1065-0.1412 0.1487-0.0373 0.0443-0.0551 0.0734-0.0601 0.0883l-7e-4 0.0022-9e-4 0.0021c-0.0207 0.0496-0.0654 0.1993-0.1166 0.4148-0.0508 0.2138-0.1071 0.4882-0.1514 0.7846-0.0891 0.5965-0.1278 1.2698 0.0138 1.7212 0.1453 0.4631 0.3774 1.0322 0.5986 1.511 0.1105 0.2393 0.2179 0.4552 0.31 0.6234 0.046 0.0842 0.0879 0.1558 0.1241 0.2122 0.0277 0.043 0.0508 0.0753 0.0692 0.0972 0.1454 0.0013 0.3413 0.013 0.5165 0.0744 0.1787 0.0627 0.3435 0.1803 0.4048 0.3959 0.1735 0.0562 0.3016 0.1749 0.3809 0.3033 0.0826 0.1335 0.1188 0.2888 0.0854 0.4041-0.0187 0.0835-0.0528 0.2205-0.1348 0.3422-0.0844 0.1254-0.2194 0.234-0.4335 0.2544-0.1439 0.0137-0.2789 5e-3 -0.3932-0.0024-0.0424-0.0028-0.0819-0.0053-0.1181-0.0065-0.1399-0.0045-0.2273 0.011-0.2889 0.0795l-0.0011 0.0012-0.0012 0.0012c-0.0325 0.0325-0.0762 0.0504-0.1208 0.0602-0.0452 0.0099-0.0966 0.0127-0.1505 0.0105-0.1079-0.0042-0.2344-0.0284-0.3586-0.0635-0.1245-0.0352-0.2493-0.0823-0.3544-0.1339-0.1028-0.0506-0.1945-0.1092-0.2449-0.1708l-8e-4 -1e-3 -8e-4 -0.0011c-0.0633-0.0843-0.1404-0.1382-0.2236-0.1964-0.0152-0.0105-0.0305-0.0213-0.0461-0.0324-0.0985-0.0704-0.1991-0.1531-0.2517-0.3004-0.0343-0.0959-0.0457-0.1825-0.0544-0.2478-0.0033-0.0251-0.0062-0.0472-0.0099-0.0653-7e-3 -0.035-0.0165-0.0618-0.0335-0.0861-0.017-0.0245-0.0446-0.0507-0.0938-0.0794-0.0359-0.0209-0.0878-0.0683-0.1476-0.1283-0.0619-0.0622-0.1379-0.144-0.2233-0.2397-0.171-0.1917-0.3815-0.4413-0.5958-0.706-0.4273-0.5279-0.8745-1.122-1.0514-1.4386l-4e-4 -6e-4c-0.0532-0.0981-0.1197-0.2152-0.1937-0.3453-0.1643-0.2893-0.3655-0.6432-0.5394-0.9974-0.1264-0.2575-0.24-0.518-0.3163-0.7579-0.0758-0.2383-0.117-0.4631-0.0922-0.6466 0.0115-0.0853 0.0225-0.1554 0.0315-0.2126l2e-4 -0.0018c9e-3 -0.0569 0.0157-0.0995 0.0193-0.1327 0.0037-0.0347 0.0033-0.0523 0.0014-0.0615 0-4e-4 -1e-4 -8e-4 -2e-4 -0.0012-0.0041-0.0019-0.0139-0.0052-0.036-0.0089-0.0166-0.0028-0.0354-0.0051-0.0586-8e-3 -0.0132-0.0017-0.0278-0.0035-0.0442-0.0057-0.0884-0.0117-0.212-0.0318-0.3807-0.0833-0.1542-0.0454-0.395-0.109-0.6335-0.1612-0.2405-0.0527-0.4721-0.0923-0.6108-0.0923-0.1424 0-0.423 0.0225-0.6923 0.0544-0.1343 0.016-0.2646 0.0341-0.3723 0.0527-0.1058 0.0183-0.1844 0.0362-0.2246 0.0513-0.0105 7e-3 -0.0311 0.0258-0.0622 0.0619-0.0323 0.0375-0.0708 0.0873-0.1143 0.1467-0.0809 0.1104-0.1764 0.2502-0.277 0.3975l-0.0228 0.0333c-0.1086 0.1589-0.2219 0.3239-0.3265 0.4654-0.1036 0.1402-0.2022 0.2621-0.2812 0.3312-0.0407 0.0357-0.0958 0.0829-0.1608 0.1386-0.171 0.1467-0.411 0.3525-0.641 0.5627-0.1585 0.1448-0.3109 0.2904-0.4314 0.4188-0.0602 0.0642-0.1118 0.1234-0.1519 0.1754-0.0408 0.0529-0.0673 0.0953-0.08 0.1263l-6e-4 0.0012c-0.0608 0.1392-0.1143 0.3564-0.1298 0.5379-0.0078 0.0914-0.0054 0.1678 0.0073 0.2188 0.0063 0.0256 0.0139 0.0395 0.0195 0.046 0.0017 0.0019 0.0029 3e-3 4e-3 0.0036 0.0014 8e-4 0.0025 8e-4 0.0039 8e-4 0.0563 0 0.1237 0.0164 0.1913 0.0394 0.0688 0.0235 0.1429 0.0555 0.2143 0.0907 0.1416 0.0696 0.2797 0.1547 0.3496 0.2146l0.0019 0.0016 0.0017 0.0018c0.02 0.02 0.0622 0.0403 0.1287 0.0619 0.0377 0.0122 0.0757 0.0228 0.1157 0.0339 0.031 0.0085 0.0631 0.0174 0.0971 0.0277 0.0726 0.0219 0.1484 0.0486 0.2068 0.087 0.0596 0.0391 0.1109 0.0975 0.1109 0.1823 0 0.2322-0.0957 0.5461-0.3163 0.7265l-1e-3 9e-4 -0.0011 8e-4c-0.0266 0.02-0.0511 0.0394-0.0751 0.0586l-0.0015 0.0011c-0.0233 0.0186-0.0466 0.0371-0.07 0.0545-0.0481 0.0358-0.0989 0.0685-0.161 0.0931-0.1248 0.0494-0.2841 0.0617-0.5449 0.0244l-0.0022-3e-4c-0.235-0.042-0.4901-0.0606-0.7264-0.0778-0.0173-0.0012-0.0345-0.0025-0.0515-0.0037-0.2461-0.0181-0.4751-0.0366-0.6217-0.0855-0.178-0.0593-0.2627-0.1412-0.3186-0.2238-0.0133-0.0196-0.0247-0.0388-0.0348-0.0563-0.0104-0.018-0.0189-0.0331-0.028-0.0478-0.0178-0.0286-0.0342-0.0491-0.0564-0.065-0.0721-0.0515-0.1609-0.1458-0.2226-0.2593-0.0616-0.1134-0.1011-0.2554-0.0575-0.397l4e-4 -0.0014 5e-4 -0.0013c0.0372-0.1043 0.0132-0.2125-0.0462-0.3206-0.0595-0.1084-0.1502-0.2083-0.2316-0.2898-0.0511-0.051-0.0772-0.1079-0.0804-0.1709-3e-3 -0.0599 0.0152-0.1192 0.0394-0.176 0.0197-0.0465 0.046-0.0967 0.0732-0.1486 6e-3 -0.0114 0.012-0.023 0.0181-0.0346 0.0339-0.0653 0.0691-0.1359 0.0998-0.2147 0.0273-0.074 0.0787-0.2027 0.1429-0.3631 0.0122-0.0306 0.0249-0.0624 0.0379-0.0951 0.0821-0.2055 0.1797-0.4516 0.2744-0.7015 0.0948-0.25 0.1864-0.5032 0.2565-0.7232 0.0707-0.2219 0.1176-0.4041 0.1261-0.5147v-2e-4c0.0092-0.1151 0.0066-0.1782-0.0035-0.2122-0.0045-0.015-0.0091-0.0192-0.0103-0.0202-0.0013-0.0011-0.0055-4e-3 -0.0186-0.0054-0.031-0.0034-0.0771 0.0043-0.1566 0.0175l-0.0018 3e-4c-0.0761 0.0126-0.1728 0.028-0.2909 0.0328-0.0788 0.0056-0.2896 0.0231-0.55 0.0447-0.1659 0.0138-0.3521 0.0292-0.537 0.0443-0.4735 0.0387-0.9442 0.0757-1.0391 0.0757-0.0137 0-0.0422 0.0116-0.0863 0.0556-0.0412 0.0413-0.0854 0.1-0.1304 0.1676-0.0447 0.0671-0.0886 0.1401-0.1299 0.209l-1e-3 0.0017c-0.0404 0.0672-0.079 0.1317-0.1124 0.1793l-9e-4 0.0013-1e-3 0.0013c-0.0282 0.0362-0.1019 0.1622-0.2015 0.3419-0.0981 0.1771-0.2179 0.4002-0.3368 0.6253-0.2385 0.4519-0.4701 0.9062-0.5144 1.0126-0.016 0.0383-0.0194 0.1039-0.0066 0.1924 0.0124 0.086 0.0386 0.1843 0.0721 0.2814 0.0334 0.0968 0.0734 0.1907 0.1126 0.2677 0.0402 0.079 0.0764 0.1341 0.1009 0.1585 0.0569 0.0569 0.1641 0.1265 0.2761 0.1824 0.0553 0.0277 0.1098 0.051 0.1574 0.0674 0.0492 0.0168 0.0856 0.0242 0.1068 0.0242 0.0659 0 0.351 0.0093 0.6462 0.0253 0.1478 8e-3 0.299 0.0178 0.4272 0.029 0.1248 0.011 0.2327 0.0237 0.2937 0.0385 0.0678 0.0119 0.1167 0.0416 0.1529 0.0821 0.0347 0.0387 0.0553 0.0849 0.0713 0.1226l2e-3 0.0047c0.0339 0.0799 0.0519 0.1224 0.1078 0.1395 0.101 0.0276 0.2403 0.0714 0.3473 0.1581 0.0546 0.0442 0.1021 0.1005 0.1316 0.1724 0.0294 0.0718 0.0392 0.1553 0.0242 0.2516-0.0211 0.1962-0.1309 0.3259-0.2556 0.4048-0.123 0.0778-0.2631 0.1082-0.3567 0.1082-0.0726 0-0.1789 0.0207-0.2829 0.0619-0.1046 0.0414-0.198 0.1-0.2522 0.1696-0.0416 0.0535-0.109 0.0954-0.182 0.1274-0.0745 0.0326-0.1616 0.0579-0.2499 0.0746-0.0884 0.0167-0.1798 0.0252-0.2632 0.0234-0.0822-0.0018-0.1619-0.0137-0.2235-0.0417-0.0595-0.0271-0.1334-0.0844-0.2101-0.1492-0.0487-0.0412-0.102-0.0885-0.1569-0.1371-0.0327-0.029-0.066-0.0585-0.0992-0.0875-0.09-0.0786-0.1812-0.1552-0.2674-0.2164-0.0874-0.0621-0.164-0.1044-0.2252-0.1196-0.1501-0.0376-0.5463-0.1667-0.9245-0.3111-0.1894-0.0724-0.3759-0.1491-0.526-0.2208-0.0749-0.0358-0.1418-0.0708-0.1957-0.1038-0.0524-0.032-0.0983-0.0655-0.1261-0.0995l-8e-4 -1e-3 -9e-4 -0.0011c-0.0216-0.0288-0.0463-0.0589-0.0727-0.091-0.0662-0.0807-0.1432-0.1744-0.2089-0.294-0.0944-0.1719-0.1697-0.401-0.1885-0.7478-0.0283-0.5241-0.1443-0.8081-0.2296-1.0168-0.0226-0.0554-0.0431-0.1055-0.0592-0.1534-0.0183-0.0431-0.0369-0.0549-0.0475-0.0586-0.0122-0.0042-0.032-0.0041-0.0635 0.0098-0.0651 0.0287-0.1394 0.0975-0.2048 0.1629-0.0277 0.0277-0.0901 0.0944-0.1746 0.1846-0.1102 0.1178-0.2578 0.2755-0.4146 0.4389-0.2723 0.2837-0.5739 0.5858-0.7358 0.7004-0.1488 0.1115-0.6478 0.4594-1.1707 0.811-0.5228 0.3516-1.0751 0.7108-1.326 0.8409l-9e-4 4e-4c-0.1993 0.0997-0.6432 0.2808-1.1353 0.4814-0.1472 0.0601-0.2988 0.1219-0.4494 0.1839-0.3282 0.1349-0.6528 0.2706-0.92141 0.3909-0.27064 0.1211-0.47885 0.224-0.57829 0.2932-0.20473 0.1424-0.53038 0.4449-0.83124 0.7708-0.3021 0.3273-0.56962 0.668-0.66548 0.8858l-8.5e-4 2e-3c-0.05394 0.1123-0.07756 0.1878-0.08271 0.2376-0.00487 0.0472 0.00733 0.0608 0.01489 0.0669 0.01339 0.0108 0.04054 0.0199 0.09181 0.0234 0.03554 0.0025 0.07429 0.0021 0.11788 0.0017 0.01802-2e-4 0.03686-4e-4 0.05664-4e-4 0.12212 0 0.26982 0.0401 0.39893 0.1108 0.1287 0.0704 0.24801 0.1763 0.30116 0.3145l4.2e-4 1e-3c0.02975 0.0818 0.08869 0.1313 0.16074 0.1894l0.00601 0.0049c0.06725 0.0541 0.14903 0.12 0.18206 0.2301l5.6e-4 0.0019c0.02143 0.0803 0.01649 0.1501-0.01496 0.2098-0.03044 0.0578-0.08129 0.0973-0.13405 0.1275-0.04942 0.0282-0.10695 0.0516-0.16146 0.0738l-0.01023 0.0042c-0.0593 0.0242-0.11588 0.0478-0.16633 0.0772-0.21874 0.1276-0.36227 0.2174-0.5236 0.3429l-9e-4 7e-4c-0.16353 0.1227-0.36522 0.1226-0.52468 0.1226h-0.00771c-0.09613 0-0.21668-0.0415-0.32064-0.0822-0.03668-0.0143-0.07323-0.0294-0.10725-0.0434-0.01523-0.0063-0.02996-0.0124-0.04396-0.0181-0.04661-0.019-0.08474-0.0337-0.11295-0.0418-0.02009-0.0057-0.04332-0.0108-0.07112-0.0168-0.0135-3e-3 -0.02807-0.0061-0.04389-0.0097-0.04613-0.0106-0.09872-0.0239-0.15093-0.0438-0.10437-0.0398-0.21433-0.1085-0.26955-0.241-0.0269-0.0646-0.0389-0.145-0.04586-0.2267-0.0048-0.0565-0.00746-0.1179-0.0101-0.1791-0.00119-0.0276-0.00238-0.0551-0.00377-0.0821-0.00455-0.0887-0.01124-0.174-0.0263-0.2499-0.01515-0.0763-0.0378-0.1377-0.07078-0.1816-0.17454-0.2328-0.23236-0.4849-0.23236-0.7154 0-0.0645 0.01825-0.1518 0.0467-0.247 0.02889-0.0967 0.06989-0.2067 0.11876-0.3184 0.09723-0.2223 0.22843-0.4577 0.36269-0.6112 0.12413-0.1418 0.30015-0.4031 0.45274-0.6627 0.07601-0.1294 0.14547-0.257 0.19915-0.3678 0.05374-0.1108 0.08935-0.2001 0.10177-0.2561 0.00691-0.0493 0.01107-0.1084 0.01578-0.1753 0.0011-0.0156 0.00224-0.0317 0.00344-0.0483 0.00631-0.0863 0.01451-0.1812 0.03117-0.2729 0.03247-0.1786 0.10135-0.3694 0.27972-0.4474 0.14451-0.0632 0.44897-0.2086 0.76022-0.3858 0.3129-0.1782 0.6246-0.384 0.79104-0.5677 0.15965-0.1865 0.42188-0.6015 0.66996-1.1045 0.24802-0.5028 0.47862-1.0871 0.57782-1.6098l2e-4 -0.0011c0.1104-0.5337 0.3764-1.4967 0.6511-2.3846 0.1374-0.4443 0.2772-0.8707 0.4011-1.2161 0.0628-0.17481 0.122-0.33055 0.1752-0.45788-0.8945 0.80859-1.2252 1.6123-1.4608 2.1848-0.0036 0.0088-0.0072 0.0175-0.0108 0.0261-0.25663 0.6416-1.0814 2.4932-1.6881 3.4678-0.58455 0.9681-1.4686 2.3695-2.5413 3.1649-0.03058 0.0232-0.06095 0.0463-0.09116 0.0692-1.0155 0.7713-1.8289 1.3891-3.1676 1.3891-0.68831 0-1.1991-0.1723-1.5807-0.4173-0.38083-0.2444-0.62944-0.559-0.79755-0.839-0.18017-0.2848-0.31971-0.7158-0.35695-1.172-0.037283-0.4567 0.027323-0.947 0.26495-1.3462 0.23394-0.393 0.6746-0.8512 1.1015-1.2253 0.21412-0.1877 0.42632-0.3555 0.6097-0.4848 0.1814-0.1279 0.34022-0.2221 0.44605-0.2574 0.20371-0.0679 0.42098-0.0694 0.59548 0.0014 0.17719 0.0719 0.30926 0.2188 0.33008 0.4374 0.0201 0.2111-0.05086 0.395-0.15709 0.552-0.10565 0.156-0.24835 0.2887-0.37729 0.3992-0.02135 0.0183-0.04865 0.0409-0.08066 0.0674-0.16459 0.1362-0.45368 0.3755-0.69904 0.6642-0.1463 0.1722-0.27426 0.359-0.3502 0.5483-0.07572 0.1887-0.09833 0.3763-0.04035 0.5546 0.12207 0.366 0.34195 0.5628 0.59129 0.6703 0.25274 0.1089 0.53905 0.1274 0.79353 0.1274 0.24057 0 0.56772-0.0995 0.94211-0.3183 0.37323-0.2181 0.78908-0.5522 1.2062-1.0146 0.83758-0.9286 1.7308-2.1495 2.6614-4.0836 0.12757-0.2652 0.24874-0.5189 0.36462-0.7616 0.72956-1.5278 1.2495-2.6168 1.8389-3.3495 0.34-0.42266 0.8402-0.98711 1.3566-1.4989 0.5148-0.51024 1.0513-0.97389 1.4632-1.1892 0.5707-0.29832 1.3715-0.62469 2.0618-0.90597 0.2869-0.1169 0.5546-0.22602 0.7788-0.3221 0.3231-0.13848 0.8485-0.39433 1.3935-0.65972 0.1-0.04871 0.2007-0.09773 0.3009-0.14641 0.6424-0.31212 1.2684-0.61149 1.5662-0.714 0.59-0.22111 2.3309-0.7158 3.3589-0.89936l9e-4 -1.6e-4c0.9037-0.14788 1.9517-0.00412 2.8505 0.11916 0.1138 0.01562 0.2253 0.03091 0.3337 0.04523 0.9691 0.12799 2.6087 0.255 3.588 0.12809 0.9587-0.12662 1.6637-0.45191 2.2252-0.796zm13.38 4.0383 0.1943 0.12958 0.0064 0.02282c0.1251 0.44663 0.3394 0.66247 0.5097 0.72583 0.0849 0.0316 0.1562 0.02502 0.2054-0.00267 0.0482-0.02708 0.0854-0.07985 0.0929-0.16278l0.0124-0.13592 0.2188 0.21882 0.0043 0.01717c0.0178 0.07131 0.0605 0.24526 0.0049 0.39865-0.0289 0.07994-0.0842 0.15366-0.1787 0.20347-0.0928 0.04895-0.2188 0.07229-0.3859 0.06274-0.3585-0.02048-0.5701-0.30265-0.6742-0.5984-0.0526-0.14936-0.08-0.30717-0.0859-0.44823-6e-3 -0.13958 0.0088-0.26904 0.0459-0.35898l0.0297-0.0721zm0.0662 0.19783c-0.0123 0.06158-0.0178 0.1396-0.0141 0.22785 0.0055 0.1294 0.0307 0.27464 0.0788 0.41119 0.0971 0.27606 0.2789 0.49709 0.5609 0.5132 0.153 0.00874 0.2535-0.01366 0.319-0.0482 0.0639-0.03367 0.099-0.08117 0.1181-0.13389 0.0376-0.1039 0.014-0.22951-0.0046-0.30705l-0.0178-0.01779c-0.027 0.06216-0.0707 0.11167-0.128 0.14387-0.0891 0.05007-0.2009 0.05264-0.3127 0.01104-0.2194-0.08165-0.4494-0.33443-0.5816-0.78826l-0.018-0.01196z" clip-rule="evenodd" fill="#000" fill-rule="evenodd" opacity=".99"/>
</g>
</svg>
