<?xml version="1.0" encoding="utf-8"?>
<!-- Generator: Adobe Illustrator 17.0.2, SVG Export Plug-In . SVG Version: 6.00 Build 0)  -->
<!DOCTYPE svg PUBLIC "-//W3C//DTD SVG 1.1//EN" "http://www.w3.org/Graphics/SVG/1.1/DTD/svg11.dtd">
<svg version="1.1" id="Layer_1" xmlns="http://www.w3.org/2000/svg" xmlns:xlink="http://www.w3.org/1999/xlink" x="0px" y="0px"
	 width="422.794px" height="107.712px" viewBox="0 0 422.794 107.712" enable-background="new 0 0 422.794 107.712"
	 xml:space="preserve">
<g>
	<g>
		<g>
			<g>
				<path fill="#4F515A" d="M92.543,56.411v-0.045h-0.038C92.52,56.381,92.532,56.398,92.543,56.411z"/>
				<path fill="#4F515A" d="M92.543,56.411v-0.045h-0.038C92.52,56.381,92.532,56.398,92.543,56.411z"/>
				<path fill="#4F515A" d="M92.543,56.411v-0.045h-0.038C92.52,56.381,92.532,56.398,92.543,56.411z"/>
				<g>
					<g>
						<path fill="#F68B3C" d="M35.905,20.506c-8.503,0-15.398,6.894-15.398,15.397v20.508l10.248,10.241V35.903
							c0-2.843,2.306-5.147,5.15-5.147c2.843,0,5.147,2.305,5.147,5.147H51.3C51.301,27.4,44.408,20.506,35.905,20.506z"/>
						<polygon fill="#F68B3C" points="71.81,107.712 61.562,97.458 61.562,66.652 71.81,66.652 						"/>
						<path fill="#F68B3C" d="M71.809,35.903C71.809,16.072,55.734,0,35.906,0C16.075,0,0,16.073,0,35.903l10.248,10.248V35.903l0,0
							c0-14.169,11.487-25.657,25.658-25.657c14.169,0,25.657,11.488,25.657,25.657v20.508h10.248V35.903H71.809z"/>
						<polygon fill="#F68B3C" points="51.301,87.207 41.053,76.957 41.053,46.151 51.301,46.151 						"/>
					</g>
					<path fill="#4F515A" d="M43.587,41.639v-0.044h-0.035C43.564,41.612,43.576,41.624,43.587,41.639z"/>
					<path fill="#4F515A" d="M43.587,41.639v-0.044h-0.035C43.564,41.612,43.576,41.624,43.587,41.639z"/>
					<path fill="#4F515A" d="M43.587,41.639v-0.044h-0.035C43.564,41.612,43.576,41.624,43.587,41.639z"/>
				</g>
			</g>
			<g>
				<polygon fill="#00305d" points="237.819,59.961 228.021,59.961 218.827,69.853 218.827,48.869 211.687,48.869 211.687,87.207 
					218.827,87.207 218.827,79.946 221.929,76.677 229.212,87.207 238.397,87.207 227.114,71.209 				"/>
				<g>
					<path fill="#00305d" d="M128.193,48.869h6.995v12.879c1.904-2.062,4.047-3.014,8.166-3.014c8.117,0,12.063,6.258,12.063,14.49
						c0,8.401-4.453,14.658-12.346,14.658c-2.754,0-5.658-1.218-7.998-3.748v3.07h-6.879L128.193,48.869L128.193,48.869z
						 M142.011,65.444c-3.779,0-6.703,2.758-6.703,7.836c0,5.018,2.923,7.892,6.703,7.892c3.832,0,6.143-2.819,6.143-7.892
						C148.154,68.202,145.843,65.444,142.011,65.444z"/>
					<path fill="#00305d" d="M192.158,87.206h-7.501V59.539h7.275v3.365c1.692-2.873,4.469-4.058,7.452-4.058
						c6.72,0,10.039,4.906,10.039,10.992v17.48h-7.499V71.132c0-3.099-1.491-5.633-5.098-5.633c-3.273,0-4.668,2.538-4.668,5.753
						V87.206z"/>
					<path fill="#00305d" d="M169.786,57.897c-6.982,0-11.005,4.109-12,8.216c-0.003,0.01,0.003-0.01,0,0
						c-0.305,1.192-0.32,2.604-0.32,2.604h6.939c0.229-2.487,2.083-4.629,5.439-4.629c3.24,0,4.802,1.679,4.802,3.704
						c0,0.983-0.522,1.792-2.141,2.025l-7.003,1.041c-4.746,0.695-8.506,3.53-8.506,8.625c0,4.454,3.704,8.562,9.779,8.562
						c4.22,0,6.936-1.963,8.387-4.218v3.379h7l0.006-18.489C182.169,62.99,178.811,57.897,169.786,57.897z M174.646,75.72
						c0,5.031-3.009,6.597-6.249,6.597c-2.491,0-3.705-1.62-3.705-3.3c0-2.198,1.562-3.297,3.528-3.586l6.426-0.984L174.646,75.72
						L174.646,75.72z"/>
				</g>
			</g>
			<g>
				<path fill="#00305d" d="M97.464,71.809c0,14.17-11.486,25.656-25.657,25.656v10.247c19.83,0,35.905-16.073,35.905-35.903
					c0-19.831-16.075-35.906-35.905-35.906v10.248C85.978,46.151,97.464,57.638,97.464,71.809z"/>
				<rect x="10.247" y="35.903" fill="#00305d" width="10.263" height="10.248"/>
				<rect x="30.755" y="56.411" fill="#00305d" width="10.297" height="10.241"/>
				<rect x="51.299" y="76.95" fill="#00305d" width="10.263" height="10.257"/>
				<rect x="30.755" y="35.903" fill="#00305d" width="30.807" height="10.248"/>
				<path fill="#00305d" d="M71.808,56.411H51.306v10.241h20.502v0.007c2.844,0,5.148,2.307,5.148,5.15s-2.304,5.147-5.148,5.147
					v10.248c8.504,0,15.397-6.893,15.397-15.396C87.204,63.304,80.311,56.411,71.808,56.411z"/>
			</g>
		</g>
		<g>
			<path fill="#F68B3C" d="M422.793,46.146h-7.018v-3.071c-2.342,2.531-5.244,3.748-7.998,3.748
				c-7.895,0-12.345-6.259-12.345-14.657c0-8.234,3.943-14.492,12.06-14.492c4.119,0,6.266,0.952,8.169,3.015V7.809h7.133v38.337
				H422.793z M402.692,32.219c0,5.073,2.31,7.891,6.145,7.891c3.777,0,6.7-2.872,6.7-7.891c0-5.078-2.923-7.835-6.7-7.835
				C405.001,24.384,402.692,27.141,402.692,32.219z"/>
			<g>
				<g>
					<path fill="#F68B3C" d="M138.454,46.144V18.426h7.157v3.38c1.521-2.701,5.069-4.164,8.112-4.164
						c3.775,0,6.816,1.629,8.226,4.614c2.195-3.376,5.122-4.614,8.787-4.614c5.127,0,10.03,3.093,10.03,10.532v17.969h-7.271V29.694
						c0-2.986-1.462-5.241-4.9-5.241c-3.211,0-5.125,2.479-5.125,5.466v16.224h-7.437V29.694c0-2.986-1.521-5.241-4.904-5.241
						c-3.264,0-5.181,2.419-5.181,5.466v16.224L138.454,46.144L138.454,46.144z"/>
					<path fill="#F68B3C" d="M211.687,46.151V7.605h7.14v38.546H211.687z"/>
					<path fill="#F68B3C" d="M279.844,46.144V18.426h7.157v3.38c1.523-2.701,5.07-4.164,8.111-4.164
						c3.775,0,6.819,1.629,8.226,4.614c2.198-3.376,5.128-4.614,8.789-4.614c5.123,0,10.025,3.093,10.025,10.532v17.969h-7.266
						V29.694c0-2.986-1.467-5.241-4.903-5.241c-3.211,0-5.125,2.479-5.125,5.466v16.224h-7.436V29.694
						c0-2.986-1.521-5.241-4.9-5.241c-3.266,0-5.182,2.419-5.182,5.466v16.224L279.844,46.144L279.844,46.144z"/>
					<path fill="#F68B3C" d="M359.849,18.426h5.58v6.651h-5.58V36.68c0,2.421,1.127,3.213,3.269,3.213
						c0.899,0,1.913-0.115,2.311-0.226v6.193c-0.68,0.284-2.032,0.676-4.227,0.676c-5.41,0-8.792-3.205-8.792-8.559V8.761h7.439
						V18.426z"/>
					<path fill="#F68B3C" d="M380.673,40.568c-3.713,0-6.813-2.649-6.984-6.311h19.833c0-0.113,0.111-1.24,0.111-2.311
						c0-8.903-5.125-14.367-13.689-14.367c-7.098,0-13.635,5.744-13.635,14.594c0,9.348,6.703,14.816,14.311,14.816
						c6.818,0,11.212-4.001,12.618-8.789h-7.254C384.894,39.646,383.203,40.568,380.673,40.568z M380.055,23.665
						c4.282,0,6.082,2.705,6.198,5.469H373.86C374.028,26.597,376.169,23.665,380.055,23.665z"/>
					<g>
						<path fill="#F68B3C" d="M242.274,18.426v3.269c-0.957-1.862-3.488-3.774-7.884-3.774c-7.605,0-12.901,6.194-12.901,13.517
							c0,7.773,5.521,13.469,12.901,13.469c4,0,6.589-1.748,7.716-3.553v2.027c0,5.352-2.646,7.721-7.378,7.721
							c-2.21,0-3.97-0.86-5.112-2.234h-7.854c1.325,4.787,6.168,8.828,13.188,8.828c10.426,0,14.537-6.935,14.537-14.538V18.426
							H242.274z M235.685,38.479c-3.889,0-6.647-2.701-6.647-7.041c0-4.281,2.93-6.984,6.647-6.984c3.604,0,6.537,2.704,6.537,6.984
							C242.222,35.721,239.515,38.479,235.685,38.479z"/>
					</g>
				</g>
				<path fill="#F68B3C" d="M122.816,16.818c-6.982,0-11.004,4.109-11.999,8.217c-0.004,0.01,0.003-0.011,0,0
					c-0.306,1.19-0.32,2.603-0.32,2.603h6.94c0.228-2.487,2.083-4.628,5.438-4.628c3.24,0,4.802,1.677,4.802,3.704
					c0,0.984-0.522,1.793-2.14,2.023l-7.004,1.042c-4.746,0.695-8.506,3.531-8.506,8.623c0,4.456,3.704,8.563,9.779,8.563
					c4.22,0,6.936-1.962,8.387-4.216v3.395h7l0.006-18.505C135.2,21.911,131.842,16.818,122.816,16.818z M127.676,34.641
					c0,5.032-3.009,6.596-6.249,6.596c-2.491,0-3.705-1.618-3.705-3.299c0-2.198,1.562-3.297,3.529-3.586l6.424-0.984
					L127.676,34.641L127.676,34.641z"/>
				<path fill="#F68B3C" d="M196.146,16.818c-6.979,0-11.002,4.109-11.998,8.217c-0.004,0.01,0.003-0.011,0,0
					c-0.306,1.19-0.32,2.603-0.32,2.603h6.94c0.229-2.487,2.083-4.628,5.438-4.628c3.241,0,4.804,1.677,4.804,3.704
					c0,0.984-0.523,1.793-2.141,2.023l-7.004,1.042c-4.744,0.695-8.506,3.531-8.506,8.623c0,4.456,3.704,8.563,9.779,8.563
					c4.22,0,6.938-1.962,8.388-4.216v3.395h7.001l0.006-18.505C208.531,21.911,205.173,16.818,196.146,16.818z M201.009,34.641
					c0,5.032-3.011,6.596-6.25,6.596c-2.49,0-3.706-1.618-3.706-3.299c0-2.198,1.563-3.297,3.53-3.586l6.426-0.984V34.641z"/>
				<path fill="#F68B3C" d="M264.688,16.818c-6.981,0-11.004,4.109-12,8.217c-0.005,0.01,0.002-0.011,0,0
					c-0.305,1.19-0.322,2.603-0.322,2.603h6.94c0.228-2.487,2.084-4.628,5.439-4.628c3.238,0,4.804,1.677,4.804,3.704
					c0,0.984-0.521,1.793-2.142,2.023l-7.004,1.042c-4.744,0.695-8.505,3.531-8.505,8.623c0,4.456,3.701,8.563,9.778,8.563
					c4.22,0,6.937-1.962,8.389-4.216v3.395h6.999l0.008-18.505C277.073,21.911,273.712,16.818,264.688,16.818z M269.549,34.641
					c0,5.032-3.012,6.596-6.25,6.596c-2.49,0-3.706-1.618-3.706-3.299c0-2.198,1.564-3.297,3.53-3.586l6.426-0.984V34.641z"/>
				<path fill="#F68B3C" d="M337.529,16.818c-6.979,0-11.005,4.109-11.998,8.217c-0.005,0.01,0.002-0.011,0,0
					c-0.307,1.19-0.321,2.603-0.321,2.603h6.94c0.227-2.487,2.084-4.628,5.439-4.628c3.238,0,4.804,1.677,4.804,3.704
					c0,0.984-0.524,1.793-2.142,2.023l-7.004,1.042c-4.747,0.695-8.508,3.531-8.508,8.623c0,4.456,3.704,8.563,9.778,8.563
					c4.223,0,6.938-1.962,8.389-4.216v3.395h7.002l0.005-18.505C349.913,21.911,346.553,16.818,337.529,16.818z M342.392,34.641
					c0,5.032-3.012,6.596-6.25,6.596c-2.492,0-3.706-1.618-3.706-3.299c0-2.198,1.562-3.297,3.53-3.586l6.426-0.984L342.392,34.641
					L342.392,34.641z"/>
			</g>
		</g>
	</g>
</g>
</svg>
