<svg xmlns="http://www.w3.org/2000/svg" viewBox="0 0 761.07 224.19"><defs><style>.cls-1{fill:#015943;}</style></defs><g id="Layer_2" data-name="Layer 2"><g id="Layer_1-2" data-name="Layer 1"><g id="Layer_2-2" data-name="Layer 2"><g id="Layer_1-2-2" data-name="Layer 1-2"><path class="cls-1" d="M109.43,220.62a4.64,4.64,0,0,1-4-7.08L120.61,189a13.75,13.75,0,0,0,1.23-11.88l-7.64-19.07H43.6l-7.91,18.36A13.12,13.12,0,0,0,37.52,189L56,213.17a4.64,4.64,0,0,1-3.68,7.45H4.64a4.64,4.64,0,0,1-3.76-7.36L20.61,186a21.54,21.54,0,0,0,2.61-4.81l51-131.79L63.64,22.91c-1.72-3.09.16-6.25,4-6.91L121.4,3.39c4-.88,7.65,2.47,9.11,6.23l53.87,141.92a395.18,395.18,0,0,0,29.09,60.57h0a5.64,5.64,0,0,1-2,7.73,5.71,5.71,0,0,1-2.88.78ZM46.71,148.4h64.53L83.91,71.17a4.31,4.31,0,0,0-8.09-.08Z"/><path class="cls-1" d="M395.71,109a38.83,38.83,0,0,0-3.56-16.74,40.31,40.31,0,0,0-9.64-13,43.4,43.4,0,0,0-14.3-8.45,50.81,50.81,0,0,0-17.48-3,64,64,0,0,0-16,2,73,73,0,0,0-14.3,5.32,76.12,76.12,0,0,0-12.26,7.64q-2,1.56-3.92,3.17A3.75,3.75,0,0,1,298.06,83V73.53a4.62,4.62,0,0,0-4.62-4.62,4.79,4.79,0,0,0-1.06.12L229.6,83.77a4.64,4.64,0,0,0-3.49,5.57,4.85,4.85,0,0,0,.59,1.43l8.53,13.88v83a20.15,20.15,0,0,1-1.81,8.33l-7.7,16.81a5.57,5.57,0,0,0,2.76,7.39,5.41,5.41,0,0,0,2.31.51h72a4.63,4.63,0,0,0,4.65-4.61,4.74,4.74,0,0,0-.34-1.75l-7.6-19a19.88,19.88,0,0,1-1.43-7.43V99.5a22.28,22.28,0,0,1,8.26-5.5,29.15,29.15,0,0,1,10.88-2q7.55,0,11.61,5t4.06,13.24v77.68a22,22,0,0,1-1.61,8.25l-7.39,18.17a4.64,4.64,0,0,0,4.31,6.39h76.4c3.36,0,6.92-5,3-9.15-12.57-13.06-11.83-35.89-11.83-35.89Z"/><path class="cls-1" d="M577.5,3.38V153.49c0,15.75,0,36.56,12.51,51.29l8.27,8.25a4.54,4.54,0,0,1-3.43,7.59h-74a4.63,4.63,0,0,1-4.62-4.64h0v-5.72a4.56,4.56,0,0,0-7.63-3.41l-1.07,1a68.23,68.23,0,0,1-11.24,8,66.62,66.62,0,0,1-14,6,57.36,57.36,0,0,1-16.68,2.33,50,50,0,0,1-23.07-5.25,51.88,51.88,0,0,1-17.64-14.7,68.57,68.57,0,0,1-11.24-22.49A99.85,99.85,0,0,1,409.74,153a97.93,97.93,0,0,1,5.81-34.28,77.36,77.36,0,0,1,16.61-26.93A75.78,75.78,0,0,1,458.3,74.1q15.3-6.33,34.31-6.33A70.47,70.47,0,0,1,514.67,71V44.45a28.85,28.85,0,0,0-4.23-15.05l-6-9.82A3.87,3.87,0,0,1,507,13.77L573.45.07a3.37,3.37,0,0,1,4,2.62A3.23,3.23,0,0,1,577.5,3.38ZM500.59,196.89a22.85,22.85,0,0,0,7.33-1.3,20.65,20.65,0,0,0,6.75-3.79V96.89c-.43-7.64-.67-8.9-1.72-13.31-1.37-5.75-7.13-8.09-11.49-8.09q-13.2,0-20.09,15.43t-6.89,47.45Q474.48,196.9,500.59,196.89Z"/><path class="cls-1" d="M675.88,224.12a93.86,93.86,0,0,1-33.66-5.9,81.78,81.78,0,0,1-26.84-16.37,76,76,0,0,1,.07-111.66,83.8,83.8,0,0,1,26.84-16.45,92.43,92.43,0,0,1,33.59-6,94,94,0,0,1,33.88,6,83.43,83.43,0,0,1,27,16.45,75.52,75.52,0,0,1,17.84,24.74,74.22,74.22,0,0,1,6.46,31,74.63,74.63,0,0,1-6.46,31.16,75.46,75.46,0,0,1-17.84,24.75,82.59,82.59,0,0,1-27,16.37A95,95,0,0,1,675.88,224.12Zm.29-6.26q11.18,0,15.82-17.76t4.64-54.16q0-36.24-4.64-54.08T675.88,74q-11.32,0-15.67,17.83t-4.35,54.08q0,36.41,4.49,54.16T676.17,217.86Z"/></g></g></g></g></svg>