<svg width="159" height="43" viewBox="0 0 159 43" fill="none" xmlns="http://www.w3.org/2000/svg">
<path d="M33.705 40.735C33.705 40.295 33.32 39.855 32.495 39.36C31.67 38.865 31.065 38.205 30.625 37.38C30.185 36.5 29.965 34.575 29.965 31.55V23.795C29.965 20.55 29.415 18.075 28.26 16.37C26.555 13.895 24.08 12.685 20.78 12.685C16.93 12.685 13.905 14.335 11.76 17.58C11.705 17.635 11.65 17.69 11.595 17.69C11.43 17.69 11.375 17.635 11.375 17.47V2.565C11.375 1.465 10.935 0.914998 10 0.914998C9.67 0.914998 9.285 1.025 8.79 1.19C6.865 1.96 4.775 2.62 2.465 3.115C1.31 3.39 0.76 3.83 0.76 4.49C0.76 4.985 1.255 5.425 2.3 5.81C3.235 6.14 3.895 6.635 4.225 7.295C4.5 7.9 4.665 9.22 4.665 11.365V31.55C4.665 34.465 4.445 36.445 4.06 37.38C3.73 38.095 3.07 38.755 2.135 39.36C1.365 39.855 0.98 40.295 0.98 40.735C0.98 41.56 1.585 42 2.795 42H13.245C14.455 42 15.06 41.56 15.06 40.735C15.06 40.295 14.675 39.855 13.905 39.36C13.025 38.865 12.42 38.205 12.035 37.38C11.595 36.5 11.375 34.575 11.375 31.55C11.375 27.975 11.54 25.335 11.87 23.63C12.255 21.925 12.915 20.55 13.905 19.56C15.005 18.46 16.38 17.91 18.03 17.91C19.68 17.91 20.945 18.405 21.825 19.45C22.76 20.495 23.2 21.925 23.2 23.85V31.55C23.2 34.575 22.98 36.5 22.54 37.38C22.155 38.15 21.55 38.81 20.615 39.36C19.845 39.855 19.46 40.295 19.46 40.735C19.46 41.56 20.065 42 21.275 42H31.835C33.1 42 33.705 41.56 33.705 40.735ZM44.1688 23.245C44.1688 21.98 45.8188 16.04 50.9338 16.095C54.2888 16.095 56.4338 18.515 56.4338 21.1C56.4338 23.08 55.2238 23.795 52.3638 23.795H44.7188C44.3338 23.795 44.1688 23.63 44.1688 23.245ZM61.6038 34.795C60.6688 34.795 57.7538 37.6 53.1888 37.6C50.1088 37.6 47.7438 36.445 46.0388 34.08C44.7738 32.265 44.1138 30.175 44.1138 27.81C44.1138 27.425 44.3338 27.205 44.7738 27.205H58.7988C62.3738 27.205 63.3088 26.105 63.3088 23.41C63.3088 20.77 61.9888 17.58 59.2938 15.325C57.1488 13.565 54.5638 12.685 51.5388 12.685C49.1738 12.685 47.0288 13.235 45.0488 14.335C39.9338 17.195 37.0738 22.75 37.0738 28.47C37.0738 30.395 37.4038 32.32 38.1188 34.245C40.2638 39.8 45.1588 42.55 50.7138 42.55C53.9038 42.55 56.7638 41.725 59.2388 40.13C61.1638 38.865 62.7588 37.05 62.7588 35.95C62.7588 35.345 62.3188 34.795 61.6038 34.795ZM79.5922 39.36C78.7122 38.755 78.1072 38.095 77.7222 37.38C77.2822 36.5 77.0622 34.575 77.0622 31.605V2.565C77.0622 1.465 76.6222 0.914998 75.7422 0.914998C75.4672 0.914998 74.7522 1.135 73.5422 1.575C71.9472 2.18 70.1322 2.73 68.0972 3.115C66.9972 3.39 66.4472 3.83 66.4472 4.49C66.4472 4.985 66.9422 5.425 67.9322 5.81C68.8672 6.195 69.4722 6.69 69.8572 7.35C70.1322 7.9 70.2972 9.22 70.2972 11.365V31.605C70.2972 34.52 70.0772 36.5 69.6372 37.435C69.3072 38.15 68.6472 38.81 67.7122 39.36C66.9422 39.8 66.5572 40.295 66.5572 40.79C66.5572 41.615 67.1622 42 68.3722 42H78.9322C80.1422 42 80.7472 41.615 80.7472 40.79C80.7472 40.35 80.3622 39.855 79.5922 39.36ZM94.8354 2.235C92.4704 -0.130002 91.4804 -0.130002 89.1154 2.235C86.8604 4.6 86.8604 5.59 89.1154 7.955C91.4804 10.21 92.4704 10.21 94.8354 7.955C97.2004 5.59 97.2004 4.6 94.8354 2.235ZM97.9704 39.36C97.0904 38.755 96.4854 38.095 96.1004 37.38C95.6604 36.5 95.4404 34.575 95.4404 31.605V14.335C95.4404 13.235 95.0004 12.685 94.1204 12.685C93.8454 12.685 93.1304 12.905 91.9204 13.345C90.3254 13.95 88.5104 14.5 86.4754 14.885C85.3754 15.16 84.8254 15.6 84.8254 16.26C84.8254 16.755 85.3204 17.195 86.3104 17.58C87.2454 17.965 87.8504 18.46 88.2354 19.12C88.5104 19.67 88.6754 20.99 88.6754 23.135V31.605C88.6754 34.52 88.4554 36.5 88.0154 37.435C87.6854 38.15 87.0254 38.81 86.0904 39.36C85.3204 39.8 84.9354 40.295 84.9354 40.79C84.9354 41.615 85.5404 42 86.7504 42H97.3104C98.5204 42 99.1254 41.615 99.1254 40.79C99.1254 40.35 98.7404 39.855 97.9704 39.36ZM124.706 29.24C124.706 35.015 122.176 39.085 117.941 39.085C115.466 39.085 113.541 37.765 112.166 35.18C110.791 32.54 110.076 29.35 110.076 25.665C110.076 19.67 112.771 16.095 116.896 16.095C119.426 16.095 121.351 17.415 122.671 20.11C124.046 22.75 124.706 25.775 124.706 29.24ZM117.446 12.685C113.266 12.74 109.801 14.225 106.996 17.195C104.191 20.11 102.816 23.685 102.816 27.865C102.816 32.32 104.136 35.895 106.831 38.59C109.526 41.285 112.991 42.605 117.336 42.605C121.461 42.605 124.926 41.12 127.731 38.205C130.536 35.235 131.911 31.66 131.911 27.48C131.911 23.135 130.591 19.615 128.006 16.865C125.421 14.06 121.901 12.685 117.446 12.685ZM135.628 34.41C135.628 37.105 136.178 38.975 137.333 40.075C138.873 41.45 142.503 42.605 146.243 42.605C149.488 42.605 152.183 41.835 154.383 40.35C157.133 38.535 158.508 36.115 158.508 33.09C158.508 31.055 157.848 29.35 156.473 27.92C155.428 26.545 152.788 25.335 151.193 24.84C150.753 24.675 150.038 24.4 148.993 24.125L146.958 23.465C144.153 22.585 142.778 21.32 142.778 19.725C142.778 17.745 144.538 16.205 147.178 16.205C149.323 16.205 151.358 17.8 152.018 18.735C152.403 19.175 152.843 19.835 153.393 20.715C153.888 21.54 154.548 21.98 155.373 21.98C156.528 21.98 157.078 20.88 157.078 18.68C157.078 16.48 156.363 14.94 154.933 14.115C153.448 13.18 151.248 12.685 148.333 12.685C145.638 12.685 143.383 13.235 141.458 14.28C138.323 16.04 136.618 19.01 136.618 22.035C136.618 24.235 137.388 25.995 138.928 27.315C140.633 28.8 143.053 29.79 146.133 30.725C147.673 31.165 148.663 31.495 149.158 31.66C151.193 32.485 152.183 33.64 152.183 35.18C152.183 37.325 150.203 38.975 147.123 38.975C144.813 38.975 142.613 37.6 140.578 34.905C139.808 33.97 139.313 33.2 138.873 32.76C138.433 32.21 137.938 31.99 137.388 31.99C136.233 31.99 135.628 32.815 135.628 34.41Z" fill="#194D43"/>
</svg>
