<svg width="338" height="300" fill="none" xmlns="http://www.w3.org/2000/svg"><path opacity=".3" d="M161.26 219c-53.73 14.34-55.36 16.52-119.2 16.52-17.82 0-53.53 13.13-38.42 42.05 18.89 36.14 108.57 19.49 154.55 8.01 48.69-12.15 141.81-3.2 141.81-45.25 0-45.79-90.05-34.34-138.74-21.34z" fill="#87B448"/><path d="M267.42 241.92c-14.13 1.9-21.53-3.16-35.22-3.16-9.31 0-14.93 8.64-12.23 14.55 3.38 7.38 11.18-2.11 24.68 0 13.5 2.1 17.92 5.27 27.2 2.1 13.21-4.5 9.1-15.31-4.43-13.5z" fill="#E5BC2A"/><path fill-rule="evenodd" clip-rule="evenodd" d="M247.4 112.45v73.48a23 23 0 0 1-23 23h-21.45v-6h21.45a17 17 0 0 0 17-17v-69.48l6-4z" fill="#8DB2DD"/><path fill-rule="evenodd" clip-rule="evenodd" d="M230.4 112.45v73.48a23 23 0 0 1-23 23h-21.45v-6h21.45a17 17 0 0 0 17-17v-69.48l6-4z" fill="#8DB2DD"/><rect x="222.67" y="124.99" width="10" height="24.66" rx="2" fill="#8DB2DD"/><rect x="239.66" y="124.99" width="10" height="24.66" rx="2" fill="#8DB2DD"/><rect x="256.55" y="124.99" width="10" height="24.66" rx="2" fill="#8DB2DD"/><path fill-rule="evenodd" clip-rule="evenodd" d="M264.4 113.45v72.48a23 23 0 0 1-23 23h-55.45v-6h55.45a17 17 0 0 0 17-17v-68.48l6-4z" fill="#8DB2DD"/><path d="M257.51 211.25a3.5 3.5 0 1 1-7 0c0-1.94 3.5-6.56 3.5-6.56s3.5 4.62 3.5 6.56zm0 21a3.5 3.5 0 1 1-7 0c0-1.94 3.5-6.56 3.5-6.56s3.5 4.62 3.5 6.56z" fill="#E6BC2A"/><path d="M215.63 264.18H95.37V133.32c0-33.28 22.44-75.1 29.72-87.8a7.7 7.7 0 0 1 6.73-3.83h78.8a5 5 0 0 1 5 5v217.5z" fill="#C6DCF5"/><path fill="#6995C8" d="M115.07 155.97h32.77v3.93h-32.77z"/><path d="M168.57 134.24v129.7l46.98.05V46.74a5 5 0 0 0-5-5h-10.68l-22.92 52.44a99.99 99.99 0 0 0-8.38 40.06z" fill="#29478A"/><path d="M160.2 148.64h-57.41l.72-20.32a99.99 99.99 0 0 1 9.28-38.63l15.4-33.1h57.08L170.3 87.34a100 100 0 0 0-10.1 43.8v17.51z" fill="#0E2D5A"/><path d="M140.14 116.45h16.33" stroke="#87B448" stroke-width="2" stroke-linecap="round" stroke-linejoin="round"/><path d="M137.52 83.69h16.33m-18.95 6.28h10.87" stroke="#4286FF" stroke-width="2" stroke-linecap="round" stroke-linejoin="round"/><path d="m134.99 74.24-6.97-17.62h57.35l-8.74 17.62H135z" fill="#8DB2DD"/><path d="m102.8 148.76 14.18-12s2.84-19.16 5.83-31.84c2.95-12.52 12.21-30.83 12.21-30.83l-6.93-17.33c-4.2 7.87-13.73 26.14-19.45 42.3-5.72 16.17-6.39 40.41-5.84 49.7z" fill="#6995C8"/><path d="M160.23 136.65H117l-14.18 12.09h57.4v-12.1z" fill="#8DB2DD"/><path d="m118.64 126.3-1.68 10.36h43.26l.49-10.36h-42.07z" fill="#C6DCF5"/><path d="M134.33 36.57h74.86v5.12h-74.86v-5.12z" fill="#6995C8"/><path d="M134.33 36.57h60.43v5.12h-60.43v-5.12z" fill="#8DB2DD"/><path d="M127.95 8.95c0-1.1.9-2 2-2h83.6a2 2 0 0 1 2 2v25.62a2 2 0 0 1-2 2h-83.6a2 2 0 0 1-2-2V8.95z" fill="#29478A"/><path d="M127.95 8.95c0-1.1.9-2 2-2h69.19a2 2 0 0 1 2 2v25.62a2 2 0 0 1-2 2h-69.19a2 2 0 0 1-2-2V8.95z" fill="#C6DCF5"/><path d="M153.72 25.82h-5.22l-.86 2.5h-2.75l4.7-13.11h3.06l4.7 13.1h-2.77l-.86-2.49zm-.72-2.1-1.89-5.47-1.9 5.47h3.8zm15.02-8.49v2.12h-3.49V28.3h-2.62V17.35h-3.5v-2.12h9.6zm16.18 0V28.3h-2.62v-8.5l-3.5 8.5h-2l-3.52-8.5v8.5h-2.63V15.23h2.99l4.16 9.73 4.16-9.73h2.96z" fill="#0E2D5A"/><path fill="#29478A" d="M123.73 129.51h32.77v3.93h-32.77z"/><ellipse cx="127.05" cy="140.14" rx="1.97" ry=".98" fill="#29478A"/><ellipse cx="133.61" cy="140.14" rx="1.97" ry=".98" fill="#29478A"/><ellipse cx="140.16" cy="140.14" rx="1.97" ry=".98" fill="#29478A"/><ellipse cx="146.71" cy="140.14" rx="1.97" ry=".98" fill="#29478A"/><ellipse cx="123.12" cy="144.6" rx="1.97" ry=".98" fill="#29478A"/><ellipse cx="129.68" cy="144.6" rx="1.97" ry=".98" fill="#29478A"/><ellipse cx="136.23" cy="144.6" rx="1.97" ry=".98" fill="#29478A"/><ellipse cx="142.78" cy="144.6" rx="1.97" ry=".98" fill="#29478A"/><mask id="a" mask-type="alpha" maskUnits="userSpaceOnUse" x="23" y="83" width="23" height="47"><path d="m24.46 109.01 16.08-25.18 2.19 15.4-7.1 11.7 9.67 9.61-.8 8.86-18.85-13.94a4.8 4.8 0 0 1-1.19-6.45z" fill="#87B448"/></mask><g mask="url(#a)"><path d="m24.46 109.01 16.08-25.18 2.19 15.4-7.1 11.7 9.67 9.61-.8 8.86-18.85-13.94a4.8 4.8 0 0 1-1.19-6.45z" fill="#87B448"/><path d="M30.52 67.08v79.74m8.08-79.74v79.74" stroke="#5B8520" stroke-width=".96"/></g><path d="M61.09 81.04V70.17l-8.63-.5-2.07 11.37h10.7z" fill="#FEC6CE"/><path d="M65.45 71.27c1.27-2.78.86-16-3.27-21.71-5.6-7.76-14.17-3.96-17.63 0-2.95 3.38-6.06 11.77 1.51 18.26 7.87 6.74 18.28 5.88 19.4 3.45z" fill="#FEC6CE"/><path d="M61.63 78.12H50.24c-1.06 0-1.92.86-1.92 1.92v1.3H64.5l-1.17-2.2a1.92 1.92 0 0 0-1.7-1.02z" fill="#087889"/><path d="M51.56 264.18v-8.63h6.75v3.48s8.29 0 11.45 5.15h-18.2z" fill="#0E1B3E"/><path d="M66.35 264.18v-8.63h6.75v3.48s7.6 0 11.45 5.15h-18.2z" fill="#0E1B3E"/><mask id="c" mask-type="alpha" maskUnits="userSpaceOnUse" x="43" y="142" width="41" height="116"><path d="M48.96 257.2s-7.91-84.63-4.44-114.82h35.82c1.44 3.73 2.8 11.7 2.8 20.69 0 8.98-4.1 67.07-7.48 94.12H64.58l-1.94-92.4-2.81 92.4H48.96z" fill="url(#b)"/></mask><g mask="url(#c)"><path d="M48.96 257.2s-7.91-84.63-4.44-114.82h35.82c1.44 3.73 2.8 11.7 2.8 20.69 0 8.98-4.1 67.07-7.48 94.12H64.58l-1.94-92.4-2.81 92.4H48.96z" fill="url(#d)"/><path opacity=".5" d="M51.85 152.56c3.77-8.45 20.86-8.37 29.86-8.62l-37.23-4.2-3.9 19.52 6.68 99.37h4.84c-.12-17-.6-54.52-1.49-68.52-1.11-17.5-2.09-30.1 1.24-37.55z" fill="url(#e)"/></g><mask id="g" mask-type="alpha" maskUnits="userSpaceOnUse" x="39" y="81" width="45" height="64"><path d="M44.28 81.12h23.36a4.8 4.8 0 0 1 4.73 3.95l10.7 59.4H42.33c.93-5.54 2.8-18.22 2.8-24.57 0-5.3-3.2-21.7-5.58-32.93a4.84 4.84 0 0 1 4.73-5.85z" fill="url(#f)"/></mask><g mask="url(#g)"><path d="M38.29 81.12h33.36l11.42 63.35H42.33c.93-5.54 2.8-18.22 2.8-24.57 0-6.34-4.56-28.5-6.84-38.78z" fill="#87B448"/><path fill-rule="evenodd" clip-rule="evenodd" d="M55.3 152.59V72.85h1.16v79.74H55.3zm-8.06 0V72.85h1.15v79.74h-1.15zm-8.07 0V72.85h1.15v79.74h-1.15zm24.2 0V72.85h1.16v79.74h-1.16zm8.07 0V72.85h1.16v79.74h-1.16zm8.06 0V72.85h1.16v79.74h-1.15z" fill="#5B8520"/><path opacity=".4" d="M55.2 93.04c3.1-5.02 2.96-6.5 1.78-12.56L40.86 93.04c.6 6.5 2.04 20.61 3.1 24.99 1.07 4.38-1.62 19.56-3.1 26.61h11.68c3.85-7.83-3.99-29.86-3.84-35.92.15-6.07 3.4-10.65 6.5-15.68z" fill="url(#h)"/><path opacity=".4" d="m72.28 122.64-7.17-32.1 18.7 33.5-5.06 2.02a4.8 4.8 0 0 1-6.47-3.42z" fill="url(#i)"/></g><path d="m107.43 99-4.1 1.92 1.98 5.51 7.78-1.21a.96.96 0 0 0 .8-.95v-3.48h4.47a.68.68 0 0 0 .07-1.37l-8.48-.85a4.8 4.8 0 0 0-2.52.43z" fill="#FEC6CE"/><mask id="j" mask-type="alpha" maskUnits="userSpaceOnUse" x="62" y="81" width="45" height="38"><path d="m82.59 106.75-9.35-22.2a5.37 5.37 0 1 0-9.87 4.27l12.12 27.22a4.8 4.8 0 0 0 6.48 2.38l24.14-11.67-2.48-6.5-21.04 6.5z" fill="#87B448"/></mask><g mask="url(#j)"><mask id="k" mask-type="alpha" maskUnits="userSpaceOnUse" x="62" y="81" width="45" height="38"><path d="m82.59 106.75-9.35-22.2a5.37 5.37 0 1 0-9.87 4.27l12.12 27.22a4.8 4.8 0 0 0 6.48 2.38l24.14-11.67-2.48-6.5-21.04 6.5z" fill="#87B448"/></mask><g mask="url(#k)"><path d="m82.59 106.75-9.35-22.2a5.37 5.37 0 1 0-9.87 4.27l12.12 27.22a4.8 4.8 0 0 0 6.48 2.38l24.14-11.67-2.48-6.5-21.04 6.5z" fill="#87B448"/><path d="M80.09 78.6v79.75M72.02 78.6v79.75M63.95 78.6v79.75M88.16 78.6v79.75m8.06-79.75v79.75m8.08-79.75v79.75" stroke="#5B8520" stroke-width=".96"/></g><path d="m104.05 109.1-3.68-8.8 3.68-.7 2.77 7.47-2.77 2.03z" fill="#087889"/></g><path d="M57.5 74.23c-.94-4.7 0-7.25 3.43-10.27 5.7-5.02 6.77-9.71 5-13.32-2.39-4.89-11.17-8.67-18.02-5.08-7.11 3.74-5.68 10.63-10.5 15.54-4.81 4.9-1.08 7.7-.45 11.47.61 3.62-.17 3.79-2.4 6.78-3.52 4.73.03 7.6 2.4 9.93 2.44 2.4 2.56 5.44 2.56 8.84 0 5.1 3.31 4.98 4.48 2.95 1.16-2.04 1.14-4.6 4.62-4.94 4.61-.45 5.68-.7 5.68-5.65 0-3.07 5.3-4.42 5.38-8.07.09-3.66-.93-2.04-2.17-8.18z" fill="#4F2F1C"/><path d="m215.55 169.87 19.59-14.98h6.22v84.1l-25.8 20v-89.12z" fill="#6995C8"/><path d="m215.55 174.87 25.8-20v89.12l-25.8 20v-89.12z" fill="#C6DCF5"/><path d="M232.67 201.2a7.24 7.24 0 0 1 4-6.48v21.74c-1.84.91-4-.42-4-2.48V201.2z" fill="#6995C8"/><path opacity=".5" d="M227.74 87.98c-7.63 6.62-7.89 21.45-3.16 28.39l5.43-3.76c0-6.07-1.45-12.72 3.63-18 4.74-4.94 12.12-9.97 14.2-8 2.6 2.43-.81 10.7-5.9 15.14-4.09 3.54-2.2 11.22-.75 14.62l5.84-3.76c-.28-2.8 1.97-7.53 7.15-12.11 7.83-6.94 2.89-14.57 10.14-16.64 3.77-1.07 7.19 2.94 7.19 9.7 0 4.88-1.23 8.86-8.38 12.43-5.71 2.85-6.46 8.19-4.8 11.39l6-3.22c4.2-.21 12.99-4.42 14.5-19.56 1.9-18.92 5.43-22.98 34.7-22.98 15.74 0 20.92-17.88 10.83-50.18-3.22-10.29 2.72-18.05 12.81-20.5-8.26 0-18.6 4.6-23.65 20.5-6.3 19.87-13.88 8.51-32.17 4.73-18.29-3.79-32.17 5.67-33.11 29.96-.95 24.28-6.21 19.44-20.5 31.85z" fill="url(#l)"/><ellipse cx="270.26" cy="38.3" rx="10" ry="5.85" transform="rotate(-20 270.26 38.3)" fill="#fff"/><ellipse cx="264.41" cy="69.78" rx="7.5" ry="4.38" transform="rotate(-40 264.4 69.78)" fill="#fff"/><ellipse cx="317.74" cy="57.73" rx="7.5" ry="4.38" transform="rotate(-60 317.74 57.73)" fill="#fff"/><circle cx="237.54" cy="68.6" r="2.5" fill="#C2D2E0"/><circle cx="302.33" cy="21.76" r="4" fill="#D9E3EC"/><circle cx="293.75" cy="83.96" r="4" fill="#CAD8E4"/><defs><linearGradient id="b" x1="63.44" y1="128.39" x2="122.87" y2="217.6" gradientUnits="userSpaceOnUse"><stop stop-color="#0E2D5A"/><stop offset="1" stop-color="#34497E"/></linearGradient><linearGradient id="d" x1="63.44" y1="128.39" x2="122.87" y2="217.6" gradientUnits="userSpaceOnUse"><stop stop-color="#0E2D5A"/><stop offset="1" stop-color="#34497E"/></linearGradient><linearGradient id="e" x1="61.14" y1="134.44" x2="61.14" y2="258.63" gradientUnits="userSpaceOnUse"><stop stop-color="#000921"/><stop offset="1" stop-color="#000E32" stop-opacity="0"/></linearGradient><linearGradient id="f" x1="38.29" y1="75.94" x2="78.75" y2="149.15" gradientUnits="userSpaceOnUse"><stop stop-color="#87B448"/><stop offset="1" stop-color="#13AED0"/></linearGradient><linearGradient id="h" x1="45.58" y1="153.44" x2="22.36" y2="97.53" gradientUnits="userSpaceOnUse"><stop stop-color="#165748" stop-opacity="0"/><stop offset="1" stop-color="#0A4631"/></linearGradient><linearGradient id="i" x1="82.46" y1="132.67" x2="68.71" y2="95.38" gradientUnits="userSpaceOnUse"><stop stop-color="#165748" stop-opacity="0"/><stop offset="1" stop-color="#0A4631"/></linearGradient><linearGradient id="l" x1="380.6" y1="20.68" x2="324.17" y2="114.18" gradientUnits="userSpaceOnUse"><stop stop-color="#C2D2E0" stop-opacity="0"/><stop offset="1" stop-color="#86A6C1"/></linearGradient></defs></svg>