<svg fill="none" viewBox="0 0 616.32 593.17" xmlns="http://www.w3.org/2000/svg"><mask id="a" x="207" y="102" width="51" height="97" mask-type="alpha" maskUnits="userSpaceOnUse"><path d="m233.02 102.88 6.18 24.03-3.06 1.68 3.75 1.03 7.42 28.83-11.46 5.44h12.85l8.91 34.66h-50.58l14.8-54.46 7.28-.8-6.1-3.57z" fill="#bdd4aa"/></mask><g transform="translate(-91)" mask="url(#a)"><path d="m233.02 102.88 6.18 24.03-3.06 1.68 3.75 1.03 7.42 28.83-11.46 5.44h12.85l8.91 34.66h-50.58l14.8-54.46 7.28-.8-6.1-3.57z" fill="#bdd4aa"/><path d="M232.85 204.35V100.79l30.98 103.56z" fill="#a6c88b"/></g><mask id="b" x="176" y="129" width="40" height="74" mask-type="alpha" maskUnits="userSpaceOnUse"><path d="m215.01 202.61-18.67-72.62-5.78 21.29 3.96 1.72-4.71 1.05-5.96 21.9 9.23 2.27-10.27 1.58-6.2 22.81z" fill="#bdd4aa"/></mask><g transform="translate(-91)" mask="url(#b)"><path d="m215.01 202.61-18.67-72.62-5.78 21.29 3.96 1.72-4.71 1.05-5.96 21.9 9.23 2.27-10.27 1.58-6.2 22.81z" fill="#bdd4aa"/><path d="M196.5 205.47v-76.62l20.68 76.62z" fill="#a6c88b"/></g><path d="M33.76 206v-60.07" stroke="#84bb3e" stroke-linecap="round" stroke-linejoin="round" stroke-width="1.5"/><path d="M40.79 193.19c1.9-1.1 3-3.07 3.3-5.91-2.62-1.17-4.87-1.2-6.78-.11-1.9 1.1-2.97 3.06-3.2 5.87 2.55 1.2 4.77 1.25 6.68.15z" clip-rule="evenodd" fill="#84bb3e" fill-rule="evenodd"/><path d="M40.79 177.76c1.9-1.1 3-3.07 3.3-5.91-2.62-1.17-4.87-1.2-6.78-.1-1.9 1.09-2.97 3.04-3.2 5.86 2.55 1.2 4.77 1.25 6.68.15z" clip-rule="evenodd" fill="#5e8f46" fill-rule="evenodd"/><path d="M40.79 163.25c1.9-1.1 3-3.07 3.3-5.91-2.62-1.17-4.87-1.2-6.78-.1-1.9 1.09-2.97 3.05-3.2 5.86 2.55 1.2 4.77 1.25 6.68.15z" clip-rule="evenodd" fill="#84bb3e" fill-rule="evenodd"/><path d="M27.03 199.4c-1.9-1.1-3-3.07-3.3-5.91 2.61-1.17 4.87-1.21 6.77-.11 1.9 1.1 2.98 3.06 3.21 5.87-2.55 1.2-4.78 1.25-6.68.15z" clip-rule="evenodd" fill="#5e8f46" fill-rule="evenodd"/><path d="M27.03 185.82c-1.9-1.1-3-3.07-3.3-5.91 2.61-1.17 4.87-1.2 6.77-.11 1.9 1.1 2.98 3.06 3.21 5.87-2.55 1.2-4.78 1.25-6.68.15zm0-15.43c-1.9-1.1-3-3.07-3.3-5.91 2.61-1.17 4.87-1.2 6.77-.11 1.9 1.1 2.98 3.06 3.21 5.87-2.55 1.2-4.78 1.25-6.68.15zm.44-15.04c-1.41-1.69-1.77-3.91-1.07-6.68 2.85-.21 4.98.53 6.4 2.21 1.4 1.69 1.74 3.89 1 6.61-2.8.26-4.92-.46-6.33-2.14z" clip-rule="evenodd" fill="#84bb3e" fill-rule="evenodd"/><path d="M69.17 197.99v-78.58" stroke="#84bb3e" stroke-linecap="round" stroke-linejoin="round" stroke-width="1.5"/><path d="M62.14 185.18c-1.9-1.1-3-3.07-3.3-5.91 2.61-1.17 4.87-1.2 6.77-.11 1.9 1.1 2.98 3.06 3.21 5.87-2.55 1.2-4.78 1.25-6.68.15zm0-15.43c-1.9-1.1-3-3.07-3.3-5.91 2.61-1.17 4.87-1.2 6.77-.1 1.9 1.09 2.98 3.05 3.21 5.86-2.55 1.2-4.78 1.25-6.68.15z" clip-rule="evenodd" fill="#84bb3e" fill-rule="evenodd"/><path d="M62.14 155.24c-1.9-1.1-3-3.07-3.3-5.91 2.61-1.17 4.87-1.2 6.77-.1 1.9 1.09 2.98 3.05 3.21 5.86-2.55 1.2-4.78 1.25-6.68.15z" clip-rule="evenodd" fill="#5e8f46" fill-rule="evenodd"/><path d="M62.14 139.51c-1.9-1.1-3-3.07-3.3-5.91 2.61-1.17 4.87-1.2 6.77-.1 1.9 1.09 2.98 3.05 3.21 5.86-2.55 1.2-4.78 1.25-6.68.15z" clip-rule="evenodd" fill="#84bb3e" fill-rule="evenodd"/><path d="M75.9 191.39c1.9-1.1 3-3.07 3.3-5.91-2.62-1.17-4.87-1.2-6.78-.11-1.9 1.1-2.97 3.06-3.2 5.87 2.55 1.2 4.78 1.25 6.68.15z" clip-rule="evenodd" fill="#5e8f46" fill-rule="evenodd"/><path d="M75.9 177.81c1.9-1.1 3-3.07 3.3-5.91-2.62-1.17-4.87-1.2-6.78-.11-1.9 1.1-2.97 3.06-3.2 5.87 2.55 1.2 4.78 1.25 6.68.15zm0-15.43c1.9-1.1 3-3.07 3.3-5.91-2.62-1.17-4.87-1.2-6.78-.1-1.9 1.09-2.97 3.05-3.2 5.86 2.55 1.2 4.78 1.25 6.68.15zm-.45-15.04c1.41-1.68 1.77-3.91 1.07-6.68-2.85-.21-4.98.53-6.4 2.21-1.41 1.69-1.75 3.89-1 6.61 2.8.26 4.91-.46 6.33-2.14z" clip-rule="evenodd" fill="#84bb3e" fill-rule="evenodd"/><path d="M75.45 131.61c1.41-1.69 1.77-3.91 1.07-6.68-2.85-.21-4.98.53-6.4 2.21-1.4 1.69-1.75 3.89-1 6.61 2.8.26 4.92-.46 6.33-2.14z" clip-rule="evenodd" fill="#5e8f46" fill-rule="evenodd"/><path d="m186.83 201.05 22.5 21.1H13.03l33.04-30.47a30.64 30.64 0 0 1 32.43-5.81l.59.24a29.6 29.6 0 0 0 27.42-2.66 29.3 29.3 0 0 1 36.16 3.14l1.37 1.3a25.34 25.34 0 0 0 21.44 6.62 25.34 25.34 0 0 1 21.35 6.54z" fill="#9bc07b"/><path d="m148.33 210.17 14.14 11.36H0l15.84-10.94a40.82 40.82 0 0 1 26.26-7.11l1.58.12c6.92.52 13.84-1 19.9-4.37l2.12-1.17a31.5 31.5 0 0 1 32.59 1.2 31.67 31.67 0 0 0 23.64 4.54 32.06 32.06 0 0 1 26.4 6.37z" fill="#7ba345"/><mask id="c" x="540" y="102" width="52" height="97" mask-type="alpha" maskUnits="userSpaceOnUse"><path d="m565.31 102.88-6.18 24.03 3.06 1.68-3.75 1.03-7.42 28.83 11.46 5.44h-12.85l-8.91 34.66h50.58l-14.8-54.46-7.28-.8 6.1-3.57z" fill="#bdd4aa"/></mask><g transform="translate(-91)" mask="url(#c)"><path d="m565.31 102.88-6.18 24.03 3.06 1.68-3.75 1.03-7.42 28.83 11.46 5.44h-12.85l-8.91 34.66h50.58l-14.8-54.46-7.28-.8 6.1-3.57z" fill="#bdd4aa"/><path d="M565.48 204.35V100.79L534.5 204.35z" fill="#a6c88b"/></g><mask id="d" x="583" y="129" width="39" height="74" mask-type="alpha" maskUnits="userSpaceOnUse"><path d="m583.32 202.61 18.67-72.62 5.78 21.29-3.96 1.72 4.71 1.05 5.96 21.9-9.23 2.27 10.27 1.58 6.2 22.81z" fill="#bdd4aa"/></mask><g transform="translate(-91)" mask="url(#d)"><path d="m583.32 202.61 18.67-72.62 5.78 21.29-3.96 1.72 4.71 1.05 5.96 21.9-9.23 2.27 10.27 1.58 6.2 22.81z" fill="#bdd4aa"/><path d="M601.83 205.47v-76.62l-20.68 76.62z" fill="#a6c88b"/></g><path d="M582.58 206v-60.07" stroke="#84bb3e" stroke-linecap="round" stroke-linejoin="round" stroke-width="1.5"/><path d="M575.54 193.19c-1.9-1.1-3-3.07-3.3-5.91 2.61-1.17 4.87-1.2 6.77-.11 1.9 1.1 2.98 3.06 3.21 5.87-2.55 1.2-4.78 1.25-6.68.15z" clip-rule="evenodd" fill="#84bb3e" fill-rule="evenodd"/><path d="M575.54 177.76c-1.9-1.1-3-3.07-3.3-5.91 2.62-1.17 4.87-1.2 6.78-.1 1.9 1.09 2.97 3.04 3.2 5.86-2.55 1.2-4.78 1.25-6.68.15z" clip-rule="evenodd" fill="#5e8f46" fill-rule="evenodd"/><path d="M575.54 163.25c-1.9-1.1-3-3.07-3.3-5.91 2.61-1.17 4.87-1.2 6.77-.1 1.9 1.09 2.98 3.05 3.21 5.86-2.55 1.2-4.78 1.25-6.68.15z" clip-rule="evenodd" fill="#84bb3e" fill-rule="evenodd"/><path d="M589.3 199.4c1.9-1.1 3-3.07 3.3-5.91-2.62-1.17-4.87-1.21-6.78-.11-1.9 1.1-2.97 3.06-3.2 5.87 2.55 1.2 4.78 1.25 6.68.15z" clip-rule="evenodd" fill="#5e8f46" fill-rule="evenodd"/><path d="M589.3 185.82c1.9-1.1 3-3.07 3.3-5.91-2.62-1.17-4.87-1.2-6.78-.11-1.9 1.1-2.97 3.06-3.2 5.87 2.55 1.2 4.78 1.25 6.68.15zm0-15.43c1.9-1.1 3-3.07 3.3-5.91-2.62-1.17-4.87-1.2-6.78-.11-1.9 1.1-2.97 3.06-3.2 5.87 2.55 1.2 4.78 1.25 6.68.15zm-.44-15.04c1.41-1.69 1.77-3.91 1.07-6.68-2.85-.21-4.98.53-6.4 2.21-1.4 1.69-1.74 3.89-1 6.61 2.8.26 4.92-.46 6.33-2.14z" clip-rule="evenodd" fill="#84bb3e" fill-rule="evenodd"/><path d="M547.16 197.99v-78.58" stroke="#84bb3e" stroke-linecap="round" stroke-linejoin="round" stroke-width="1.5"/><path d="M554.2 185.18c1.9-1.1 3-3.07 3.3-5.91-2.62-1.17-4.87-1.2-6.78-.11-1.9 1.1-2.97 3.06-3.2 5.87 2.55 1.2 4.78 1.25 6.68.15zm0-15.43c1.9-1.1 3-3.07 3.3-5.91-2.62-1.17-4.87-1.2-6.78-.1-1.9 1.09-2.97 3.05-3.2 5.86 2.55 1.2 4.78 1.25 6.68.15z" clip-rule="evenodd" fill="#84bb3e" fill-rule="evenodd"/><path d="M554.2 155.24c1.9-1.1 3-3.07 3.3-5.91-2.62-1.17-4.87-1.2-6.78-.1-1.9 1.09-2.97 3.05-3.2 5.86 2.55 1.2 4.78 1.25 6.68.15z" clip-rule="evenodd" fill="#5e8f46" fill-rule="evenodd"/><path d="M554.2 139.51c1.9-1.1 3-3.07 3.3-5.91-2.61-1.17-4.87-1.2-6.78-.1-1.9 1.09-2.97 3.05-3.2 5.86 2.55 1.2 4.78 1.25 6.68.15z" clip-rule="evenodd" fill="#84bb3e" fill-rule="evenodd"/><path d="M540.43 191.39c-1.9-1.1-3-3.07-3.3-5.91 2.61-1.17 4.87-1.2 6.77-.11 1.91 1.1 2.98 3.06 3.21 5.87-2.55 1.2-4.78 1.25-6.68.15z" clip-rule="evenodd" fill="#5e8f46" fill-rule="evenodd"/><path d="M540.43 177.81c-1.9-1.1-3-3.07-3.3-5.91 2.61-1.17 4.87-1.2 6.78-.11 1.9 1.1 2.97 3.06 3.2 5.87-2.55 1.2-4.78 1.25-6.68.15zm0-15.43c-1.9-1.1-3-3.07-3.3-5.91 2.61-1.17 4.87-1.2 6.78-.1 1.9 1.09 2.97 3.05 3.2 5.86-2.55 1.2-4.78 1.25-6.68.15zm.45-15.04c-1.41-1.68-1.77-3.91-1.07-6.68 2.85-.21 4.98.53 6.4 2.21 1.4 1.69 1.74 3.89 1 6.61-2.8.26-4.92-.46-6.33-2.14z" clip-rule="evenodd" fill="#84bb3e" fill-rule="evenodd"/><path d="M540.88 131.61c-1.41-1.69-1.77-3.91-1.07-6.68 2.85-.21 4.98.53 6.4 2.21 1.4 1.69 1.74 3.89 1 6.61-2.8.26-4.92-.46-6.33-2.14z" clip-rule="evenodd" fill="#5e8f46" fill-rule="evenodd"/><path d="m429.5 201.05-22.5 21.1h196.3l-33.04-30.47a30.64 30.64 0 0 0-32.43-5.81l-.59.24a29.6 29.6 0 0 1-27.42-2.66 29.3 29.3 0 0 0-36.16 3.14l-1.37 1.3a25.34 25.34 0 0 1-21.44 6.62 25.34 25.34 0 0 0-21.35 6.54z" fill="#9bc07b"/><path d="m468 210.17-14.14 11.36h162.46l-15.84-10.94a40.82 40.82 0 0 0-26.26-7.11l-1.58.12a35.5 35.5 0 0 1-19.9-4.37l-2.12-1.17a31.5 31.5 0 0 0-32.59 1.2 31.67 31.67 0 0 1-23.64 4.54 32.06 32.06 0 0 0-26.4 6.37z" fill="#7ba345"/><path d="m172.43 460.7 21.27-83.79h-24.5l-41.56 83.79z" fill="url(#e)" opacity=".2"/><path d="m444.95 465.05-35.62-83.79h50.58l40.91 83.79z" fill="url(#f)" opacity=".2"/><path d="M323.34 389.26H293.4l-13.99 92.91h58.12z" fill="url(#g)" opacity=".2"/><path d="M271.34 500.26H228.4l-33.99 92.91h71.12z" fill="url(#h)" opacity=".2"/><path d="m177.65 500.26-51.6 62.69 15.07-62.69H119.4l-53.99 92.91h94.12l42.81-92.91z" fill="url(#i)" opacity=".2"/><path d="M349.42 500.26h47.94l33.99 92.91h-76.12z" fill="url(#j)" opacity=".2"/><path d="M439.42 500.26h47.94l73.99 92.91h-66.12z" fill="url(#k)" opacity=".2"/><path d="M450.57 77.67H165.98v144.44h284.59z" fill="#c6dcf5"/><path d="M281.35 97.99a5.4 5.4 0 0 1 5.4-5.4h43.04a5.4 5.4 0 0 1 5.4 5.4v115.7h-53.84z" fill="#87b2e3"/><path d="M296.74 117.67a11.53 11.53 0 1 1 23.05 0 11.53 11.53 0 0 1-23.05 0z" fill="#2b4171" stroke="#fff" stroke-width="1.95"/><path d="M174.26 97.99a5.4 5.4 0 0 1 5.4-5.4H202a5.4 5.4 0 0 1 5.4 5.4v124.39h-33.13z" fill="#87b2e3"/><path d="M181.86 173.93a8.97 8.97 0 1 1 17.93 0v26.25h-17.93zm0-58.82a8.97 8.97 0 0 1 17.93 0v26.25h-17.93z" fill="#2b4171" stroke="#fff" stroke-width="1.95"/><path fill="#476899" d="M180.89 137.94h19.88v4.14h-19.88z"/><path d="M228.44 97.99a5.4 5.4 0 0 1 5.4-5.4h22.33a5.4 5.4 0 0 1 5.4 5.4v124.39h-33.13z" fill="#87b2e3"/><path d="M236.05 115.11a8.97 8.97 0 0 1 17.94 0v26.25h-17.94z" fill="#2b4171" stroke="#fff" stroke-width="1.95"/><path fill="#476899" d="M235.08 137.94h19.88v4.14h-19.88z"/><path d="M236.05 173.93a8.97 8.97 0 0 1 17.94 0v26.25h-17.94z" fill="#2b4171" stroke="#fff" stroke-width="1.95"/><path fill="#476899" d="M235.08 197h19.88v4.14h-19.88z"/><path d="M354.65 97.99a5.4 5.4 0 0 1 5.4-5.4h22.33a5.4 5.4 0 0 1 5.4 5.4v124.39h-33.13z" fill="#87b2e3"/><path d="M362.25 173.93a8.97 8.97 0 1 1 17.93 0v26.25h-17.93z" fill="#2b4171" stroke="#fff" stroke-width="1.95"/><path fill="#476899" d="M361.28 197h19.88v4.14h-19.88z"/><path d="M362.25 115.11a8.97 8.97 0 1 1 17.93 0v26.25h-17.93z" fill="#2b4171" stroke="#fff" stroke-width="1.95"/><path fill="#476899" d="M361.28 137.94h19.88v4.14h-19.88z"/><path d="M407.26 97.99a5.4 5.4 0 0 1 5.4-5.4H435a5.4 5.4 0 0 1 5.4 5.4v124.39h-33.13z" fill="#87b2e3"/><path d="M414.85 173.93a8.97 8.97 0 1 1 17.94 0v26.25h-17.94z" fill="#2b4171" stroke="#fff" stroke-width="1.95"/><path fill="#476899" d="M413.88 197h19.88v4.14h-19.88z"/><path d="M414.85 115.11a8.97 8.97 0 0 1 17.94 0v26.25h-17.94z" fill="#2b4171" stroke="#fff" stroke-width="1.95"/><path fill="#476899" d="M413.88 137.94h19.88v4.14h-19.88z"/><path d="m228.89 0-70.91 77.72h300L387.51 0H228.9z" fill="#c6dcf5"/><path d="m231.38 0-56.84 64.47H441.4L385 0z" fill="#c6dcf5"/><mask id="l" x="281" y="6" width="235" height="51" mask-type="alpha" maskUnits="userSpaceOnUse"><path d="m325.36 6.29-44.08 49.9h234.56l-42.8-49.9z" fill="#6995c8"/></mask><g transform="translate(-91)" mask="url(#l)"><path d="m325.36 6.29-44.08 49.9h234.56l-42.8-49.9z" fill="#6995c8"/><path d="m335.3 2.44-57.27 67.98h-11.26l57.07-67.98zm127.56 0 54.96 67.98h11.27L474.32 2.44z" fill="#385187"/><path d="M316.53 6.29h164.08v5.97H316.53z" fill="#385187"/></g><path d="M157.98 77.67h300v6.63h-300zm16.56-13.25H441.4v6.63H174.54z" fill="#385187"/><path d="M261.34 224.48h20.88v12.6h-24.2z" fill="#8db2dd"/><path d="M260.09 218.68h22.13v12.6h-25.44z" fill="#87b2e3"/><path d="M256.77 231.28h25.51v5.8h-25.51z" fill="#385187"/><path d="M354.62 224.48h-20.88v12.6h24.2z" fill="#8db2dd"/><path d="M355.87 218.68h-23.38v12.6h26.7z" fill="#87b2e3"/><path d="M359.18 231.28h-26.76v5.8h26.76z" fill="#385187"/><path d="M271.83 85.46a4.14 4.14 0 0 1 4.14 4.14v131.95a4.14 4.14 0 1 1-8.28 0V89.6a4.14 4.14 0 0 1 4.14-4.14zm-53.85 0a4.14 4.14 0 0 1 4.14 4.14v131.95a4.14 4.14 0 0 1-8.28 0V89.6a4.14 4.14 0 0 1 4.14-4.14z" clip-rule="evenodd" fill="#fff" fill-rule="evenodd"/><rect x="208.15" y="221.71" width="18.75" height="6.25" rx="3.13" fill="#fff"/><rect x="208.15" y="84.21" width="18.75" height="6.25" rx="3.13" fill="#fff"/><rect x="262.51" y="84.21" width="18.75" height="6.25" rx="3.13" fill="#fff"/><rect x="262.51" y="221.71" width="18.75" height="6.25" rx="3.13" fill="#fff"/><rect x="335.43" y="84.21" width="18.75" height="6.25" rx="3.13" fill="#fff"/><rect x="335.43" y="221.71" width="18.75" height="6.25" rx="3.13" fill="#fff"/><rect x="388.24" y="84.21" width="18.75" height="6.25" rx="3.13" fill="#fff"/><rect x="388.24" y="221.71" width="18.75" height="6.25" rx="3.13" fill="#fff"/><path d="M344.73 85.46a4.14 4.14 0 0 1 4.14 4.14v131.95a4.14 4.14 0 0 1-8.28 0V89.6a4.14 4.14 0 0 1 4.14-4.14zm53.01 0a4.14 4.14 0 0 1 4.14 4.14v131.95a4.14 4.14 0 1 1-8.28 0V89.6a4.14 4.14 0 0 1 4.14-4.14z" clip-rule="evenodd" fill="#fff" fill-rule="evenodd"/><path d="M249.8 47.74V69.4h116.92V47.74l-58.46-25.33-58.46 25.33z" fill="#c6dcf5"/><path d="M249.8 56.02v21.65h116.92V56.03L308.26 30.7 249.8 56.03z" fill="#fff"/><path d="M287.99 58.97a3.49 3.49 0 0 1 2.77 3.47c0 1.2-.42 2.16-1.27 2.87-.84.7-2 1.05-3.51 1.05h-6.72V51.95h6.5c1.46 0 2.6.33 3.42 1a3.32 3.32 0 0 1 1.25 2.74 3.27 3.27 0 0 1-2.44 3.28zm-5.21-1.2h2.3c.57 0 1-.11 1.3-.36.32-.26.48-.64.48-1.13s-.16-.87-.47-1.13c-.3-.26-.74-.39-1.31-.39h-2.3zm2.58 5.76c.6 0 1.04-.13 1.36-.4.33-.27.49-.66.49-1.16s-.17-.9-.51-1.2a2.02 2.02 0 0 0-1.38-.42h-2.54v3.18zm16.82.28h-5.38l-.86 2.55h-3.68l5.22-14.41h4.06l5.22 14.41h-3.72zm-.9-2.7-1.79-5.28-1.77 5.27zm20.37 5.25h-3.51l-5.87-8.89v8.89h-3.51V51.95h3.5l5.88 8.93v-8.93h3.51zm11.31 0L328.12 60v6.36h-3.52V51.95h3.51v6.32l4.8-6.32h4.14L331.46 59l5.8 7.35h-4.3z" fill="#385187"/><path fill="#c6dcf5" d="M174.25 145.64h33.13v5.8h-33.13z"/><path d="M174.25 142.08h33.13v4.14h-33.13z" fill="#699ad1"/><path fill="#c6dcf5" d="M174.25 204.7h33.13v5.8h-33.13z"/><path d="M174.25 201.14h33.13v4.14h-33.13z" fill="#699ad1"/><path fill="#c6dcf5" d="M228.44 145.64h33.13v5.8h-33.13z"/><path d="M228.45 142.08h33.13v4.14h-33.13z" fill="#699ad1"/><path fill="#c6dcf5" d="M228.44 204.7h33.13v5.8h-33.13z"/><path d="M228.45 201.14h33.13v4.14h-33.13z" fill="#699ad1"/><path fill="#c6dcf5" d="M354.64 145.64h33.13v5.8h-33.13z"/><path d="M354.65 142.08h33.13v4.14h-33.13z" fill="#699ad1"/><path fill="#c6dcf5" d="M354.64 204.17h33.13v5.8h-33.13z"/><path d="M354.65 200.6h33.13v4.14h-33.13z" fill="#699ad1"/><path fill="#c6dcf5" d="M407.25 145.64h33.13v5.8h-33.13z"/><path d="M407.26 142.08h33.13v4.14h-33.13z" fill="#699ad1"/><path fill="#c6dcf5" d="M407.25 204.7h33.13v5.8h-33.13z"/><path d="M407.26 201.14h33.13v4.14h-33.13z" fill="#699ad1"/><path fill="#476899" d="M180.89 197h19.88v4.14h-19.88z"/><path d="M244.07 295.56c.13 7.25.52 14.4.64 19.24.04 1.61.12 4.17-.06 6.14-.03.37-.16 1.78-.3 2.57a26.81 26.81 0 0 0-.42 4.36h5.95c-.1-1.6-.57-2.66-.66-3.94-.04-.74-.11-1.94.01-2.8.9-6.35 4.6-15.94 4.24-25.69-.13-3.63-9.48-4.06-9.4.12z" clip-rule="evenodd" fill="#fd9f88" fill-rule="evenodd"/><path d="M244.58 321.7c1.84.7 4.58.2 4.58.2s.09-.14.13-.43c.03-.24.03-.52.03-.52-3.28.43-4.67-.16-4.67-.16z" clip-rule="evenodd" fill="#382632" fill-rule="evenodd"/><path d="m244.07 326.14 1.58-4.18h2.16l1.78 3.97.72 2.24c.38 1.85.84 4.47.5 4.92 0 0-.28 1.23-3.7 1.23-3.55 0-3.79-1.23-3.79-1.23-.42-.31-.06-3.17.24-5.05.1-.65.28-1.28.51-1.9z" clip-rule="evenodd" fill="#382632" fill-rule="evenodd"/><path d="M238.47 295.56c-.13 7.25-.51 14.4-.64 19.24-.04 1.61-.12 4.17.06 6.14.03.37.16 1.78.3 2.57.24 1.33.41 2.91.42 4.36h-5.95c.1-1.6.57-2.66.66-3.94.04-.74.11-1.94-.01-2.8-.9-6.35-4.6-15.94-4.24-25.69.13-3.63 9.48-4.06 9.4.12z" clip-rule="evenodd" fill="#fd9f88" fill-rule="evenodd"/><path d="M237.95 321.7c-1.84.7-4.58.2-4.58.2s-.09-.14-.13-.43c-.03-.24-.02-.52-.02-.52 3.27.43 4.66-.16 4.66-.16z" clip-rule="evenodd" fill="#382632" fill-rule="evenodd"/><path d="m238.47 326.14-1.58-4.18h-2.16l-1.78 3.97-.72 2.24c-.38 1.85-.84 4.47-.5 4.92 0 0 .28 1.23 3.7 1.23 3.55 0 3.79-1.23 3.79-1.23.41-.31.06-3.17-.24-5.05a9.73 9.73 0 0 0-.51-1.9z" clip-rule="evenodd" fill="#382632" fill-rule="evenodd"/><path d="M223.09 217.43c.06 3 .22 6.3-.32 8.9-2.77 13.34-1.17 19.04-1.62 22.49-.03.16-1.13 9.16-.63 11.33.08.34.86 1.13 1.53 2 1.55 2.01 2.1 3.03 2.37 2.95.57-.16.11-1.67.11-1.67.42.3.88.4.98.27.44-.53-1.47-1.88-1.85-4.16-.3-1.83.57-3.48.88-3.48.37.01 1.25 2.06 1.16 3.46-.04.62.48 1.35 1.2 1.26.58-.07.56-2.32.29-4.1-.59-3.75-2.4-5.8-2.36-6.96.18-5.17 2.17-9.31 3.88-20.74.37-2.49.48-4.37.45-6.01-.03-1.48.04-1.76.04-1.76a11.4 11.4 0 0 0-.24-2.8c-.55-2.86-5.99-6.86-5.87-.98z" clip-rule="evenodd" fill="#ffaf9b" fill-rule="evenodd"/><path d="M221.68 258.23c.08 1.35-.06 2.75.62 3.98l-.14.09c-.7-1.26-.56-2.69-.64-4.07 0-.1.15-.1.16 0zm2.72 5.12c-.76-1.1-1.37-2.37-1.08-3.74.02-.1.17-.06.15.04-.27 1.33.34 2.56 1.07 3.62z" clip-rule="evenodd" fill="#f78c77" fill-rule="evenodd"/><path d="M225.04 248.22a11 11 0 0 1-4.03.8c-.17-.01-.17-.27 0-.27 1.36.05 2.7-.34 3.96-.78.16-.06.23.2.07.25z" clip-rule="evenodd" fill="#281a24" fill-rule="evenodd"/><path d="M260.04 217.69c.12 2.93-.4 5.9.13 8.5 2.77 13.34.97 19.18 1.42 22.63.03.17 1.13 9.17.63 11.33-.08.34-.86 1.13-1.53 2-1.55 2.02-2.1 3.03-2.37 2.96-.57-.16-.11-1.67-.11-1.67-.42.29-.88.4-.98.27-.44-.54 1.47-1.88 1.85-4.16.3-1.84-.57-3.49-.88-3.48-.38 0-1.25 2.05-1.16 3.46.04.62-.48 1.35-1.2 1.26-.59-.07-.56-2.32-.29-4.1.58-3.76 2.4-5.81 2.35-6.96-.18-5.18-2.16-9.32-3.87-20.74a35.12 35.12 0 0 1-.45-6.02 9.94 9.94 0 0 0-.04-1.76c-.05-.87.05-1.83.24-2.79.55-2.87 6.02-6.6 6.26-.73z" clip-rule="evenodd" fill="#ffaf9b" fill-rule="evenodd"/><path d="M261.06 258.23c-.08 1.35.06 2.75-.62 3.98l.14.09c.7-1.26.56-2.69.64-4.07 0-.1-.15-.1-.16 0zm-2.72 5.12c.76-1.1 1.37-2.37 1.08-3.74-.02-.1-.17-.06-.15.04.27 1.33-.34 2.56-1.07 3.62z" clip-rule="evenodd" fill="#f78c77" fill-rule="evenodd"/><path d="M228.62 241.9h25.07s-1.32-4.46-.67-11.08h-23.7c.77 7.24-.7 11.08-.7 11.08z" clip-rule="evenodd" fill="#ffa18a" fill-rule="evenodd"/><path d="M253.23 238.1s-2.96.54-12.07.57c-9.56.03-11.77-.6-11.77-.6-4.96 11.75-4.29 19.5-6.15 40.85-1.23 14.14-1.5 18.94-1.4 22.52 0 0 6.56 1.58 17.52.35 0 0 2-25.63 1.99-38.88 0 0-.5 25.4 1.68 38.88 0 0 5.67 1.45 17.29-.2 0 0 .77-5.43-1.33-23.9-1.43-12.56-.75-24.26-5.76-39.59z" clip-rule="evenodd" fill="#abbce9" fill-rule="evenodd"/><path d="M219.59 216.69c3.07-4.8 2.74-11.62 6.17-14.87 2.5-2.37 5.55-2.76 9.53-3.54h13.52c3.86.7 5.9 1.08 7.96 2.57 3.64 2.64 4.1 9.06 5.28 14.63.28 1.32 1.01 2.52 1.01 2.52-3.76 2.14-9.28 1.5-9.28 1.5 1.45 6.8.4 14.5-.94 15.24-.43.24.03 1.52-3.46 1.52l-5.1.02c-4.28.43-9.2.34-10.78.08-3.53-.57-3.96-1.26-3.96-1.26-1.69-4.48-.87-16.17-.87-16.17a46.77 46.77 0 0 1-9.08-2.24z" clip-rule="evenodd" fill="#afb055" fill-rule="evenodd"/><path d="M235.29 198.28s2.06-.2 2.6-.68c.42-.36.76-.78.76-1.32v-3.72l6.4-.06.01 3.76c0 .56.3 1.07.78 1.33 1.21.66 2.97.69 2.97.69-1.24.9-3.22 1.73-6.96 1.58-4.28-.18-6.56-1.58-6.56-1.58z" clip-rule="evenodd" fill="#ffaf9b" fill-rule="evenodd"/><path d="M253.65 219.2a.11.11 0 0 1-.11-.1 52.53 52.53 0 0 1-.97-12.28c.04-1.38 0-2.88-1-3.95-.1-.1 0-.23.1-.23a.1.1 0 0 1 .08.04 4.7 4.7 0 0 1 1.1 3.2c.03 1.45-.08 2.9-.04 4.36.07 2.96.4 5.9.98 8.8.02.1-.06.16-.14.16zm-25.04-.6c-.07 0-.13-.04-.13-.13-.04-2.6.18-5.2.57-7.78.18-1.23.54-2.38 1.02-3.53.47-1.1.99-2.2 1.33-3.35.02-.07.07-.1.13-.1.08 0 .16.07.13.17-.33 1.09-.81 2.12-1.26 3.16-.5 1.16-.88 2.31-1.07 3.56-.41 2.6-.63 5.24-.59 7.87 0 .09-.06.13-.13.13zm25.34-4.87c-.07 0-.13-.04-.12-.13.16-1.7.24-3.4.22-5.1 0-.08.07-.13.14-.13.06 0 .13.05.13.13.01 1.7-.06 3.4-.23 5.1 0 .09-.07.13-.14.13z" clip-rule="evenodd" fill="#d6c4b1" fill-rule="evenodd"/><path d="M229.32 199.63c1.08-.47 2.2-.78 2.2-.78.9-.18 2.18-.49 2.31-.17 1.24 3.05-2.25 28.9-4.58 36.4-.13.41-1.16-.1-1.04-1.43 2.62-27.67.88-33.92 1.11-34.02z" clip-rule="evenodd" fill="#3f5fb2" fill-rule="evenodd"/><path d="M245.06 196.08v-.23c.08.05.1.19 0 .23zm-6.41-.11c-.11-.05-.1-.2 0-.24z" clip-rule="evenodd" fill="#534850" fill-rule="evenodd"/><path d="M242.1 196.4a14 14 0 0 1-3.45-.43v-.24l.06-.01h.03a13.69 13.69 0 0 0 6.26.11c.03 0 .05 0 .07.02v.23h-.03c-.97.22-1.95.32-2.94.32z" clip-rule="evenodd" fill="#533538" fill-rule="evenodd"/><mask id="m" x="320" y="172" width="26" height="25" mask-type="alpha" maskUnits="userSpaceOnUse"><path d="M321.5 186.93c0 2.17-.07 7.53-.53 9.06-.08.28 1.77.07 2.97-.07.15-.01.4-1.94.52-1.95.25-.02.34 1.87.43 1.87 3.08.1 8.12-.25 8.12-.25s3.85.65 7.58.4c.05 0 .23-1.29.4-1.27.1.02.15 1.33.28 1.35 1.35.2 4.14.71 4.03.37-.38-1.21-.93-7.41-.93-9.51 0-2.62-.96-5.84-1.68-8.48-1.25-4.62-5.81-6.7-9.86-5.78h-.17c-4.47-.69-7.65 1.17-8.92 4.95-.97 2.86-2.24 6.25-2.24 9.31z" fill="#fff"/></mask><g transform="translate(-91)" mask="url(#m)"><path d="M321.5 186.93c0 2.17-.07 7.52-.53 9.05-.08.29 1.77.07 2.97-.06.15-.01.4-1.89.52-1.9.25-.03.34 1.82.43 1.82 3.08.1 8.12-.25 8.12-.25s3.85.65 7.58.4c.05 0 .23-1.29.4-1.27.1.02.15 1.33.28 1.35 1.35.2 4.13.71 4.03.37-.38-1.21-.93-7.41-.93-9.51 0-2.62-.96-5.84-1.68-8.48-1.25-4.62-5.81-6.71-9.86-5.78h-.17c-4.47-.69-7.65 1.17-8.92 4.95-.97 2.86-2.24 6.25-2.24 9.31z" clip-rule="evenodd" fill="#b76349" fill-rule="evenodd"/></g><path d="M254.41 199.44c-1.08-.47-2.2-.78-2.2-.78-.9-.18-2.19-.49-2.32-.17-1.23 3.05 1.2 28.3 3.53 35.8.13.42 1.07-.04.94-1.38-2.61-27.66.28-33.37.05-33.47z" clip-rule="evenodd" fill="#3f5fb2" fill-rule="evenodd"/><path d="M228.49 237.36h25.92c.36 0 .64-.29.64-.64l-1.43-29.54h-24.6l-1.17 29.54c0 .35.29.64.64.64z" clip-rule="evenodd" fill="#5a76c1" fill-rule="evenodd"/><path d="m250.66 218.83-6.07.99a18.2 18.2 0 0 1-5.8.01l-6.51-1.02a5.14 5.14 0 0 1-4.42-5v-5.6c0-.73.6-1.31 1.36-1.31h24.47c.75 0 1.36.58 1.36 1.3v5.63a5.14 5.14 0 0 1-4.39 5z" clip-rule="evenodd" fill="#3f5fb3" fill-rule="evenodd"/><path d="M247.24 232.76h-11.57a1.2 1.2 0 0 1-1.2-1.16l-.25-7.98c0-.28.23-.5.51-.48 7.53.54 11.99.19 13.45.03.28-.03.52.2.51.48l-.25 7.95a1.2 1.2 0 0 1-1.2 1.16z" clip-rule="evenodd" fill="#3557ad" fill-rule="evenodd"/><path d="M241.56 227.44c-.59 0-1.06-.48-1.06-1.06v-8.64c0-.15.11-.26.26-.26h1.6c.15 0 .26.11.26.26v8.64c0 .58-.47 1.06-1.06 1.06z" clip-rule="evenodd" fill="#223c6e" fill-rule="evenodd"/><path d="M241.3 267.28h-.01l.01-.69v.69z" clip-rule="evenodd" fill="#534850" fill-rule="evenodd"/><path d="M286.45 226.76s-.21 5.75-.3 7.17a6 6 0 0 0 1.86 4.22c.47.38 3.28.57 3.72.4.43-.18-.8-.78-1.28-.92-.5-.15-1.16-.49-1.36-.86-.21-.38-.27-3.18.05-3.4.32-.24.72.93.86 1.48.15.55.25 1.63.55 1.6.29-.03.01-3.22.02-4.24 0-1.02-.67-3.13-.67-3.13l.19-1.82zm42.52.99s-.1 5.75-.09 7.18a6.01 6.01 0 0 1-2.1 4.11c-.48.35-3.3.39-3.73.19-.43-.2.83-.73 1.33-.85.5-.12 1.19-.42 1.4-.78s.45-3.16.14-3.4c-.3-.25-.77.89-.95 1.43-.17.55-.34 1.61-.62 1.57-.3-.04.15-3.22.21-4.24.05-1.01.83-3.09.83-3.09l-.09-1.82z" clip-rule="evenodd" fill="#fd9e7f" fill-rule="evenodd"/><path d="M324.87 174.43c2.5 1.85 6.85 21.86 6.73 26.8-.13 5.43-7.73 3.77-10.21-2.77s-4.1-14.69-4.1-14.69 3.93-11.38 7.58-9.34z" clip-rule="evenodd" fill="#474c69" fill-rule="evenodd"/><path d="M329.99 196.29s-3.05 1.23-5.9 4c-2.87 2.77 1.89 27.83 1.89 27.83l7.77-.64-1.42-19.05c-.43-5.78-.72-11.54-2.34-12.14z" clip-rule="evenodd" fill="#474c69" fill-rule="evenodd"/><path d="M301.54 302.99s.01.43-.51.52l-.94.14.05-.47z" clip-rule="evenodd" fill="#6b7193" fill-rule="evenodd"/><path d="M291.16 303.36s-.16 1.4.62 1.6c.78.2 6.15.03 6.89.04.75 0 1.69-.5 1.65-1.26-.02-.62-9.16-.38-9.16-.38z" clip-rule="evenodd" fill="#31477c" fill-rule="evenodd"/><path d="M295.91 296.23s-.02 1.91-.35 2.58c-.33.66-1.82 2.22-1.9 2.97-.1.76 7.92.57 7.92.57s.33-1.67-.16-3.27c-.43-1.4-.3-2.94-.3-2.94-2 .66-3.82.89-5.21.09z" clip-rule="evenodd" fill="#0e1b3e" fill-rule="evenodd"/><path d="m292.78 304.56 4.52-.05c.23 0 3.02-.1 3.02-.73 0-.4-.18-1.37-.82-1.78-1.46-.94-6.2-1.07-7.58-.05-.78.57-.75 1.11-.76 1.54-.02.37.2 1.03 1.62 1.07z" clip-rule="evenodd" fill="#0e1b3e" fill-rule="evenodd"/><path d="M301.66 301.72s.05 2.64-.21 2.88c-.26.24-1.58.32-1.8.2l-.02-2.95z" clip-rule="evenodd" fill="#31477c" fill-rule="evenodd"/><path d="M321.28 303.27s-.04.94.55.97c.59.03 3.2-.2 3.2-.2l.12-.79z" clip-rule="evenodd" fill="#34497f" fill-rule="evenodd"/><path d="M326.58 296.34s.14 1.93.5 2.58c.38.65 2.24 2.11 3.01 2.71.6.48-8.89 1.23-8.89 1.23s-.43-1.66-.02-3.32c.35-1.43.12-2.99.12-2.99 2.07.56 3.93.68 5.28-.21z" clip-rule="evenodd" fill="#0e1b3e" fill-rule="evenodd"/><path d="M321.04 301.86s.02 1.15.36 1.65c.35.5 3.92.18 3.92.18l.12-1.9z" clip-rule="evenodd" fill="#0e1b3e" fill-rule="evenodd"/><path d="M293.9 173.6c-2.5 1.82-7.05 21.79-6.98 26.74.08 5.43 7.69 3.84 10.24-2.68s4.24-14.64 4.24-14.64-3.82-11.42-7.5-9.42z" clip-rule="evenodd" fill="#474c69" fill-rule="evenodd"/><path d="m305.34 172.02 3.88 2.29 3.78-2.25.05-7.94-7.66-.05z" clip-rule="evenodd" fill="#fd9e7f" fill-rule="evenodd"/><path d="M302.38 157.04a15 15 0 0 0 .74 5.49c.71 2.17 3.45 6.44 5.96 6.46 2.63 0 5.17-3.68 5.94-5.93.7-2 .6-3.3.62-5.62.04-5.8.1-9.32-6.4-9.36-7.3-.05-6.82 3.15-6.86 8.96z" clip-rule="evenodd" fill="#fd9e7f" fill-rule="evenodd"/><path d="M305.36 169.88s1.27 1.8 3.94 1.82c2.62-.21 3.72-1.54 3.72-1.54 2.93.41 8.22 2.19 8.18 2.16-1.96 6.74-8.87 9.13-10.38 9.12l-1.78-.01-1.8-.01c-1.49-.01-8.5-2.48-10.38-9.25-.04.03 4.83-1.84 8.5-2.29z" clip-rule="evenodd" fill="#474c69" fill-rule="evenodd"/><path d="M294.44 173.68s.17 10.15.55 17.59c.46 9.3.2 19.67.2 19.67l27.33.17s-.09-3.58-.04-8.28c.04-3.51.15-7.65.42-11.4.6-8.27.11-17.2.11-17.2s1.15-1.08-1.84-1.5c0 0-3.27 8.79-12.14 8.7-8.87-.01-12.13-8.91-12.13-8.91-2.99.38-2.46 1.16-2.46 1.16z" clip-rule="evenodd" fill="#e8e8e8" fill-rule="evenodd"/><path d="M288.64 195.36s2.97 1.4 5.68 4.32c2.7 2.93-3.44 27.69-3.44 27.69l-7.72-1.07 2.47-18.95c.75-5.74 1.36-11.48 3.01-11.99z" clip-rule="evenodd" fill="#474c69" fill-rule="evenodd"/><path d="M323.68 211.52s-9.8-1.39-30.49-.59c-.27 2-.47 8.58.05 20.44.5 11.53 1.85 65.22 1.85 65.22 2.58.83 4.2 1.19 7.28.15l5.55-67.53a.95.95 0 0 1 1.9 0l10.87 67.81c2.72.52 4.2.78 6.83.18 0 0-1.95-78.43-3.84-85.68z" clip-rule="evenodd" fill="url(#n)" fill-rule="evenodd"/><path d="M317.09 171.05s-5.19 2.83-8.15 3.27c-1.02-.35-6.18-2.07-7.15-3.68-.12.04-4.7 1-7.52 2.75-.02.11-2.05 33.85-2.05 33.85l-5 47.2c6.48 4.35 35.94 4.27 40.92-.25-.12 0-3.38-45.43-3.38-45.43l.05-34.39s-3.54-2.82-7.72-3.32z" clip-rule="evenodd" fill="#474c69" fill-rule="evenodd"/><path d="M312.04 151.65s-.36 1.77-2.96 2.47c-2.61.7-5.69 1-6.16 2.54-.48 1.54-.37 1.58-.37 1.58l-.7-.6s.12-.94.01-2.47c-.11-1.54-.7-3.55 1.2-5.55s4.87-3.3 6.64-2.93c1.77.36 2.83 1.67 2.83 1.67s1.66-.35 2.6.72a5.65 5.65 0 0 1 1.64 3.8c.1 1.77-.5 4.84-.5 4.84l-.71.59s-1.16-5.47-3.52-6.66z" clip-rule="evenodd" fill="#481b1b" fill-rule="evenodd"/><path d="M314.84 159.7c-.32 1.3-.06 1.94.57 2.1.64.16 1.42-.22 1.74-1.52.33-1.3.08-2.5-.56-2.65-.64-.16-1.42.77-1.75 2.07zm-11.26-.07c.31 1.3.04 1.62-.6 1.77-.65.15-1.44.1-1.74-1.21-.32-1.31-.04-2.5.6-2.65.66-.15 1.43.78 1.74 2.09z" clip-rule="evenodd" fill="#fd9e7f" fill-rule="evenodd"/><path d="M305.79 165.31s3.06 2.52 6.83.03a7.9 7.9 0 0 0 2.53-5.68c-.1-.9.58-1.93 1.03-2.04.12.11-1.56-6.72-4.51-7.3s-9.01 4.8-9.25 5.84-.3 1.38-.3 1.38.86.59 1.08 2.3c.28 2.17 1.34 4.78 2.59 5.47z" clip-rule="evenodd" fill="#481b1b" fill-rule="evenodd"/><path d="M291.16 303.49s1.35.39 3 .28c1.65-.11 4.92-1.95 5.53-1.91.6.03.4 2.54.4 2.54s-1.15.53-1.6.45c-.44-.07-6.21.01-6.62-.03-.41-.04-.65-.68-.71-1.33z" clip-rule="evenodd" fill="#31477c" fill-rule="evenodd"/><path d="M384.45 190.04s.1 2.2-.36 2.68c-.46.47-.62-.81-.47-1.78.15-.97.68-1.48.83-.9zm-12.31-.07s.38 2.18-.01 2.7c-.4.53-.72-.72-.7-1.7s.48-1.55.71-1z" clip-rule="evenodd" fill="#242730" fill-rule="evenodd"/><path d="M369.21 330.28h4.55l2.25-48.13 1.31-19.27-9.3-4.27-.54 22.8zm29.11-84.32s1.74 7.32 1.75 8.4c.02.96-1.8 3.2-2.6 4.7a.34.34 0 0 1-.6-.03 1.25 1.25 0 0 1-.12-.81c.18-.61 1.36-3.09 1.36-3.09s-.81-2.02-1.76-2.73c-.43-.33-.5 1.31-.46 1.69.1.84.13 2.16-.36 2.26-.48.1-.57-1.03-.67-2.39-.13-1.9.04-3.25.2-4 .16-.74.8-2.27.47-3.56-.09-1.2 2.02-2.46 2.79-.44z" clip-rule="evenodd" fill="#fd9e7f" fill-rule="evenodd"/><path d="m396.78 258.23.04.02 1.33-3.14-.02-.06-.04-.02h-.04l-.02.02-1.34 3.14.03.06.04.02h.04l.02-.02-.04-.02.02-.04 1.3-3.06.01-.04-.04-.02-1.33 3.14.04.02.02-.04zm2.35-1.98.04.01c.13-.44.18-.88.18-1.31 0-1.73-.82-3.26-.83-3.28l-.06-.02-.05.02-.02.03v.03c.01.02.83 1.53.83 3.22 0 .42-.05.85-.18 1.27l.03.06.05.01h.03l.02-.03-.04-.01.01-.04-.04-.02-.02.05h.05c.12-.42.18-.87.18-1.3 0-1.71-.82-3.23-.84-3.25l-.04.02.02.04.05-.02-.02-.04-.04.02c0 .02.82 1.53.82 3.24 0 .42-.05.86-.17 1.29l.04.01.01-.04z" clip-rule="evenodd" fill="#e68770" fill-rule="evenodd"/><path d="M358.31 245.94s-1.7 7.13-1.7 8.18c-.02.94 1.75 3.1 2.52 4.57.13.25.49.23.6-.02.1-.25.18-.54.1-.8-.16-.6-1.32-3-1.32-3s.8-1.97 1.71-2.67c.43-.32.5 1.28.45 1.65-.09.82-.12 2.11.36 2.2.47.1.55-1 .64-2.32.13-1.85-.03-3.17-.19-3.9-.15-.71-.77-2.2-.45-3.46.08-1.18-1.97-2.4-2.72-.43z" clip-rule="evenodd" fill="#fd9e7f" fill-rule="evenodd"/><path d="m359.82 257.88.04-.02-1.28-3.01-.01-.04-.04.01 1.28 3.02.01.04.04-.02-.04.02.02.04.04-.02.02-.05-1.3-3.06-.02-.02h-.03l-.05.01-.02.06 1.3 3.06.02.02h.04zm-2.29-1.93.04-.01a4.39 4.39 0 0 1-.17-1.26c0-1.66.8-3.13.8-3.15l-.03-.02-.02.04.04.02.02-.04-.04-.02c-.01.02-.81 1.5-.81 3.17 0 .42.05.85.17 1.27l.04-.01v-.05l-.05.02.01.04.04-.01-.04.01.01.04.05-.01.02-.02v-.04a4.4 4.4 0 0 1-.16-1.24c0-1.64.79-3.11.8-3.13v-.03l-.02-.03-.04-.02-.06.02a7.5 7.5 0 0 0-.82 3.2c0 .41.05.85.18 1.27l.05.03z" clip-rule="evenodd" fill="#e68770" fill-rule="evenodd"/><path d="M380.55 330.28h4.56l2.24-48.13 1.31-19.27-13.12-12.44 3.28 30.97zm-6.3-131.25v-6.13c0-.45.37-.81.82-.81h6.01a.8.8 0 0 1 .81.81v6.16c0 .35.23.66.56.77l4.88 2.14c.33.1 1.03.06 1.03.4 0 .28-.14.54-.36.69l-9.51 6.3a.82.82 0 0 1-.9 0l-9.52-6.3a.82.82 0 0 1-.36-.68c0-.35.9-.38 1.23-.49l4.75-2.09a.81.81 0 0 0 .56-.77z" clip-rule="evenodd" fill="#fd9e7f" fill-rule="evenodd"/><path d="M367.71 202.38c0-.35.9-.37 1.23-.48l4.75-2.1a.82.82 0 0 0 .56-.77v-.84c5.69 2.4 7.6 0 7.6 0l.05.02v.85c0 .35.22.66.56.77l4.62 2.03c-.78.93-2.22 2.59-3.66 4.23l-4.93 3.28a.81.81 0 0 1-.9 0l-5.38-3.57-4.5-3.38z" clip-rule="evenodd" fill="#474c69" fill-rule="evenodd"/><path d="M367.88 207.49c.11-1.71-1.12-4.87-1.12-4.87a8.07 8.07 0 0 1 2.84-1.02c7.18 6.48 12.6 2.8 16.89 0 .08 0 1.58.33 2.79 1.1 0 0-1.2 3.14-1.09 4.79.12 1.71 2.02 5 1.03 7.76-.73 1.84-2.87 3.16-2.87 3.16-.54 4.17-1.26 9.93.65 13.25 0 0-17.77 0-17.77-.22 1.7-3.31.4-12.62.4-12.62l-.26-.1a5.1 5.1 0 0 1-2.95-5.1c.2-2.46 1.37-4.77 1.46-6.13z" clip-rule="evenodd" fill="#fff" fill-rule="evenodd"/><path d="M373.58 187.56c.49 1.16.23 2.37-.59 2.72s-1.87-.31-2.36-1.47c-.5-1.16-.23-2.37.59-2.72.81-.34 1.87.31 2.36 1.47z" clip-rule="evenodd" fill="#fd9e7f" fill-rule="evenodd"/><path d="M370.9 183.46c0 4.54 2.59 13.17 7.12 13.17 4.21 0 7.14-8.35 7.14-13.17 0-5.44-1.62-7.15-6.94-7.15s-7.32 1.7-7.32 7.15z" clip-rule="evenodd" fill="#fd9e7f" fill-rule="evenodd"/><path d="M383.12 187.75c-.49 1.16-.32 2.33.37 2.62.7.3 1.65-.4 2.14-1.56s.33-2.33-.37-2.62c-.7-.3-1.65.4-2.14 1.56z" clip-rule="evenodd" fill="#fd9e7f" fill-rule="evenodd"/><mask id="o" x="469" y="229" width="1" height="1" mask-type="alpha" maskUnits="userSpaceOnUse"><path d="M469.73 229.82a.27.27 0 1 1 0-.54.27.27 0 0 1 0 .54z" fill="#fff"/></mask><g transform="translate(-91)" mask="url(#o)"><path d="M469.46 229.82h.54v-.54h-.54z" clip-rule="evenodd" fill="#f4c5a8" fill-rule="evenodd"/></g><path d="M386.42 229.54s-.79 3.37 2.14 7.6c2.92 4.23-1.87 14.3-8.88 15.57s-8.64-6.26-7.93-13.09c0-1.85-2.3-10.1-2.02-10.08 7.79.54 16.69 0 16.69 0z" clip-rule="evenodd" fill="#fd9e7f" fill-rule="evenodd"/><path d="M386.42 229.54s-4.61 3.31-16.7 0c-.22.75-8.6 16.7-10.34 54.38-.47 10.31-.22 10.36-.22 10.36s8.56-2.28 17.43.82c8.88 3.09 19.13-2.28 19.13-2.28s-.45-2.97.04-12.74c1.75-34.82-9.34-50.54-9.34-50.54z" clip-rule="evenodd" fill="#abbce9" fill-rule="evenodd"/><path d="M380.48 177.29s1.23 3.1.28 5.46c-.85 2.11-2.27 2.87-2.97 2.21-.7-.65-.56-1.7-.56-1.7s-3.54 3.3-5.12 3.54c-1.65.24-2.69-.5-2.83-1.6s.5-3.02.82-4.52c.61-3.02 4.12-6.85 9.9-4.77.5.73.48 1.38.48 1.38z" clip-rule="evenodd" fill="#d34721" fill-rule="evenodd"/><path d="M388.72 202.47s2.45.98 3.31 2.29c1.92 2.88 7.08 42.36 7.08 42.36l-4.19.12-5.85-23.97a45.6 45.6 0 0 1-.87-17.1zm-21.25-.09s-2.34 1.14-3.32 2.26c-2.28 2.6-6.44 41.88-6.44 41.88l4.02.37 5.55-23.71a45.6 45.6 0 0 0 .76-16.68z" clip-rule="evenodd" fill="#474c69" fill-rule="evenodd"/><path d="M385.39 186.74s-2.06.25-2.66-1.18c-.73-1.73.32-4.49-1.52-6.1-1.83-1.6-1.42-3.6-1.42-3.6s.8-.56 2.75-.12c2 .46 3.94 3.72 4.3 5.71.34 2 1.88 5.23-1.45 5.29z" clip-rule="evenodd" fill="#d34721" fill-rule="evenodd"/><path d="M370.9 186.16s1.75 2.9 1.73 4.31c-.03 1.4 2.06 3.72 2.55 3.95s.8-.25.8-.25.42 1.03.96.7c.54-.32.7-.9.7-.9s.19.81 1 .67c.81-.15.87-.89.87-.89s.12.6.65.65c.52.06 2.75-2.12 3.26-3.82.5-1.7.42-3.74 1.47-4.34 1.04-.6-3.32-8.32-3.86-8.16-.55.16-10.13 8.08-10.13 8.08z" clip-rule="evenodd" fill="#d34721" fill-rule="evenodd"/><path d="M386.65 326.59c-.06-1.64-1.15-5.7-1.15-5.7s-.49 2.67-5.27.46c.01.14-.05 2.55-.25 4.07a61.36 61.36 0 0 0 0 6.2c-.02.76.06 1.49.06 1.49s.72 1.15 4.08 1.15c1 0 2.13-.74 2.13-.74s.44-5.88.4-6.93z" clip-rule="evenodd" fill="#242730" fill-rule="evenodd"/><path d="M379.98 327.01s1.86 0 2.13 1.35.26 5.78.26 5.78-1.36 0-2.33-1.02zm6.67.13s-2.05-.06-2.32 1.3c-.27 1.35-.4 5.83-.4 5.83s1.36.32 2.33-.7z" clip-rule="evenodd" fill="#15181e" fill-rule="evenodd"/><path d="M375.29 326.59c-.06-1.64-1.1-5.7-1.1-5.7s-.54 2.67-5.31.46c0 .14-.06 2.55-.26 4.07a61.62 61.62 0 0 0 0 6.2c-.02.76.05 1.49.05 1.49s.73 1.15 4.1 1.15c.98 0 2.12-.74 2.12-.74s.44-5.88.4-6.93z" clip-rule="evenodd" fill="#242730" fill-rule="evenodd"/><path d="M368.62 327.01s1.86 0 2.13 1.35.26 5.78.26 5.78-1.36 0-2.33-1.02zm6.67.13s-2.05-.06-2.32 1.3c-.27 1.35-.4 5.83-.4 5.83s1.36.32 2.33-.7z" clip-rule="evenodd" fill="#15181e" fill-rule="evenodd"/><path d="m299.68 397.07-7.07-.82.56-13.07-1.07-52.85-1.1-26.46 18.42-16.56-5.61 42.3-3.27 55.3zm17.47-.02 7.1-.58-.14-13.09 2.81-52.79 1.97-26.4-17.87-17.16 4.21 42.47 1.46 55.36z" clip-rule="evenodd" fill="#fd9e7f" fill-rule="evenodd"/><path d="M331.79 247.7s-5.17 6.24-8.6 10.5c-3.41 4.25 7.31 37.5 7.31 37.5l10.46-2.18-5.17-25.66c-1.57-7.78-3.32-14.7-4-20.16z" clip-rule="evenodd" fill="#fff" fill-rule="evenodd"/><path d="m304.27 219.12 5.27 3.09 5.13-3.08v-10.8h-10.4z" clip-rule="evenodd" fill="#fd9e7f" fill-rule="evenodd"/><path d="M301.36 198.3c0 2.97.14 4.55.96 7.1.9 2.81 4.35 8.33 7.48 8.33 3.29 0 6.43-4.79 7.39-7.7.85-2.6.74-4.3.74-7.3.01-7.52-2.24-12.08-8.07-12.08-7.16 0-8.49 4.13-8.5 11.65z" clip-rule="evenodd" fill="#fd9e7f" fill-rule="evenodd"/><path d="M328.46 222.59c4.7 3.96 1.55 20.57 4.44 32.57 1.75 7.24-9.3 7.74-12.68-1.22-3.38-8.97-5.56-20.14-5.56-20.14s8.8-14.02 13.8-11.21zm-39.76-.04c-3.42 2.52-5.7 29.24-5.58 36.01.15 7.45 10.57 5.21 14.01-3.73 3.46-8.94 5.72-20.09 5.72-20.09s-9.13-14.96-14.15-12.19z" clip-rule="evenodd" fill="#fff" fill-rule="evenodd"/><path d="M284.12 244.38s5.97 9.56 9.4 13.81c3.41 4.26-7.3 37.52-7.3 37.52l-10.47-2.2 5.17-25.65c1.57-7.78 2.15-18.04 3.2-23.48z" clip-rule="evenodd" fill="#fff" fill-rule="evenodd"/><path d="M280.2 294.45s-.83 7.83-1.1 9.77c-.26 1.94.92 4.82 2.16 5.95.6.55 4.43 1.08 5.04.89.61-.2-1-1.13-1.67-1.38-.65-.25-1.53-.77-1.77-1.3-.24-.54-.07-4.37.4-4.65.45-.29.9 1.34 1.03 2.11.15.77.2 2.25.6 2.24.4-.01.32-4.4.43-5.8.1-1.38-.62-4.34-.62-4.34l.43-2.46z" clip-rule="evenodd" fill="#fd9e7f" fill-rule="evenodd"/><path d="M294.09 221.24a12.85 12.85 0 0 1 3.83-1.52l5.51-2.44c.46-.15.76-.58.76-1.06v-2.39s4.34 5.2 10.48 1.17v1.15c0 .48.31.91.77 1.06l5.62 2.45s2.17.29 3.9 1.38c0 0-1.68 4.34-1.52 6.68.13 1.86 1.75 5.03 2.03 8.41a7 7 0 0 1-4.02 6.98l-.36.15s-1.74 12.76.6 17.29c0 .31-24.35.4-24.34.39 2.6-4.56 1.58-12.45.82-18.17 0 0-2.93-1.8-3.94-4.32-1.37-3.77 1.23-8.3 1.38-10.64.14-2.26-1.53-6.56-1.52-6.57z" clip-rule="evenodd" fill="#fff" fill-rule="evenodd"/><path d="M308.78 258.94h-.02a.37.37 0 0 1-.35-.4c0-.2.17-.34.37-.34h.02a.37.37 0 0 1-.02.74z" clip-rule="evenodd" fill="#e7cdc4" fill-rule="evenodd"/><path d="m331.06 323.88-.32 17.52s-20.24 10.82-41.08-.8c.16.01.33-17.6.33-17.6l8.6-16.38 28.27 10.32z" clip-rule="evenodd" fill="#474c69" fill-rule="evenodd"/><path d="M317.65 218.18s-.47.6-1.45 1.57a9.53 9.53 0 0 1-13.64-.23 4.6 4.6 0 0 1-1-1.41c-.17.08-9.9 3.07-12.44 4.25-1.58.52-1.1 3.6.1 7.63a80.27 80.27 0 0 1 2.28 35.92c-2.42 14.68-5.28 37.38-4.97 61.8 0 0 20.77 6.81 46.59.36.71-.3-6.86-63.09-6.86-63.09s1.58-25.97.95-29.56c-.65-3.6.86-13 .86-13s-7.77-3.62-10.42-4.24z" clip-rule="evenodd" fill="#eea683" fill-rule="evenodd"/><path d="M309.83 191.71s.69 2.63 3.17 4.05c2.48 1.41 3.2 1.7 3.43 3.29.22 1.58 1.47 1.4 2.02 1.21 1.61-.55 1.27-4.76.94-7.3-.34-2.53-3.67-6.98-6.47-7.36-2.12-.29-3.64.74-3.83 2.26-.2 1.52.64 2.67.74 3.85z" clip-rule="evenodd" fill="#000" fill-rule="evenodd"/><path d="M298.22 196.23c-.16-2.62 2.2-8.16 4.69-9.34 1.88-1.28 6.74-1.81 7.8-.84 1.05.97.35 3.61.35 3.61s.76 2.48-1.85 3.88c-2.6 1.4-4.01.75-4.2 3.18-.16 2.42-1.98 4.26-3.4 4.3l-.97.3c-1.9.04-2.33-3.65-2.42-5.09z" clip-rule="evenodd" fill="#000" fill-rule="evenodd"/><path d="M302.31 201.81c.45 1.24.49 2.92-.21 3.18-.7.25-1.85-1.01-2.31-2.25-.46-1.25-.27-2.46.43-2.72.7-.26 1.63.54 2.09 1.79zm14.62-.25c-.32 1.28-.18 2.96.54 3.14.72.18 1.74-1.2 2.07-2.48.33-1.29 0-2.47-.71-2.66-.73-.18-1.57.71-1.9 2zm19.58 92.89s.83 7.83 1.1 9.77c.26 1.94-.92 4.82-2.16 5.95-.6.55-4.43 1.08-5.04.89-.61-.2 1.01-1.13 1.67-1.38.66-.25 1.53-.77 1.77-1.3.24-.54.07-4.37-.4-4.65-.45-.29-.9 1.34-1.03 2.11-.15.77-.2 2.25-.6 2.24-.4-.01-.32-4.4-.43-5.8-.1-1.38.62-4.34.62-4.34l-.43-2.46z" clip-rule="evenodd" fill="#fd9e7f" fill-rule="evenodd"/><path d="M299.54 200.39s.46.83 1.55.97c1.1.14 1.66 1.94 2.05 3.07.4 1.13 1.42 4.23 4.12 5.2s5.2.4 6.57-1.36c1.37-1.77 2.45-3 2.7-4.23.25-1.23.51-3.33 1.4-3.65.9-.32 1.3-.57 1.14-1.4-.14-.83-5.64-9.51-8.18-8.82-2.56.68-11.23 7.7-11.35 10.22z" clip-rule="evenodd" fill="#000" fill-rule="evenodd"/><path d="m310.2 205.02 3.68-2.26s1.83 6.28 4.05 8.48c2.22 2.2 3.32 2.76 3.91 5.26 1.45 6.06-.35 12.53-2.17 15.33-1.83 2.8-4.91 9.26-4.32 11.47s-7.1-3.38-4.07-9.12c3.04-5.73-.27-9.56-.27-9.56s-4.34-6.78-4.05-10.88c.3-4.1 3.24-8.72 3.24-8.72z" clip-rule="evenodd" fill="#000" fill-rule="evenodd"/><path d="M292.99 387.43s1.02 3.86 3.18 4.2c3.52.54 4.12-3.12 4.12-3.12s-.01 3.9.08 6.45 1.56 5.7-1.15 6.22c-2.7.51-7.04.36-7.08-2.2-.02-1.72.23-10.16.85-11.55z" clip-rule="evenodd" fill="#242730" fill-rule="evenodd"/><path d="M292.21 395.79s1.43.61 1.97 1.1c.53.5 1.1 4.45 1.01 4.44-.07-.02-1.64 0-2.47-1-.82-.99-.6-1.13-.58-2.04l.07-2.5zm8.22 0s-1.67.7-1.92 1.28c-.24.58-.44 4.26-.44 4.26s2.16.15 2.56-1.11c.38-1.27.14-2.18.07-2.65l-.27-1.78z" clip-rule="evenodd" fill="#333742" fill-rule="evenodd"/><path d="M324.14 387.43s-1.03 3.86-3.18 4.2c-3.52.54-4.12-3.12-4.12-3.12s.01 3.9-.08 6.45-1.56 5.7 1.14 6.22c2.7.51 7.05.36 7.08-2.2.03-1.72-.22-10.16-.84-11.55z" clip-rule="evenodd" fill="#242730" fill-rule="evenodd"/><path d="M324.92 395.79s-1.43.61-1.97 1.1c-.54.5-1.1 4.45-1.02 4.44.08-.02 1.65 0 2.47-1 .83-.99.6-1.13.59-2.04l-.07-2.5zm-8.22 0s1.67.7 1.92 1.28c.24.58.44 4.26.44 4.26s-2.17.15-2.56-1.11c-.38-1.27-.15-2.18-.07-2.65l.27-1.78z" clip-rule="evenodd" fill="#333742" fill-rule="evenodd"/><path d="M403.65 283.31s-.27 7.35-.4 9.17c-.12 1.82 1.17 4.43 2.4 5.4.6.47 4.19.72 4.75.5.56-.22-1.01-.99-1.64-1.18-.64-.18-1.49-.61-1.74-1.1-.26-.48-.35-4.05.06-4.35.41-.3.92 1.2 1.12 1.9.18.71.31 2.09.69 2.05.37-.03.02-4.12.03-5.42 0-1.3-.86-4.01-.86-4.01l.25-2.32zm54.37 1.26s-.14 7.35-.1 9.18a7.7 7.7 0 0 1-2.7 5.26c-.62.44-4.22.49-4.77.24-.55-.25 1.07-.93 1.7-1.09.64-.15 1.52-.53 1.8-1s.56-4.03.17-4.35c-.39-.32-.98 1.14-1.21 1.84-.22.7-.44 2.06-.8 2-.38-.05.2-4.12.27-5.41.07-1.3 1.07-3.96 1.07-3.96l-.12-2.32z" clip-rule="evenodd" fill="#fd9e7f" fill-rule="evenodd"/><path d="M452.78 216.4c3.19 2.36 8.76 27.95 8.6 34.27-.16 6.95-9.88 4.82-13.05-3.54-3.18-8.36-5.25-18.78-5.25-18.78s5.04-14.56 9.7-11.95z" clip-rule="evenodd" fill="#7a61e1" fill-rule="evenodd"/><path d="M459.33 244.35s-3.9 1.56-7.55 5.11c-3.66 3.55 2.42 35.6 2.42 35.6l9.94-.82-1.81-24.37c-.56-7.39-.93-14.75-3-15.52z" clip-rule="evenodd" fill="#7a61e1" fill-rule="evenodd"/><path d="M422.96 380.79s.02.56-.66.66l-1.2.18.07-.6z" clip-rule="evenodd" fill="#6b7193" fill-rule="evenodd"/><path d="M409.68 381.26s-.2 1.8.8 2.05 7.85.04 8.8.04c.96 0 2.16-.63 2.11-1.6-.03-.8-11.71-.49-11.71-.49z" clip-rule="evenodd" fill="#31477c" fill-rule="evenodd"/><path d="M415.75 372.14s-.03 2.44-.45 3.3c-.42.84-2.32 2.83-2.43 3.8-.12.96 10.13.72 10.13.72s.43-2.13-.2-4.18c-.56-1.78-.38-3.76-.38-3.76-2.57.85-4.9 1.14-6.67.12z" clip-rule="evenodd" fill="#0e1b3e" fill-rule="evenodd"/><path d="m411.75 382.79 5.78-.07c.3 0 3.87-.13 3.87-.92 0-.5-.23-1.76-1.05-2.28-1.88-1.2-7.94-1.37-9.7-.07-1 .73-.96 1.43-.98 1.97-.01.48.26 1.32 2.08 1.37z" clip-rule="evenodd" fill="#0e1b3e" fill-rule="evenodd"/><path d="M423.11 379.16s.06 3.38-.27 3.68c-.33.31-2.02.41-2.29.26l-.04-3.77z" clip-rule="evenodd" fill="#31477c" fill-rule="evenodd"/><path d="M464.64 381.33s.11.97-.66 1.48c-.76.51-9.22.89-10.72.44-1.69-.5-1.03-1.69-1.03-1.69z" clip-rule="evenodd" fill="#34497f" fill-rule="evenodd"/><path d="M448.18 381.14s-.05 1.2.7 1.24 4.1-.25 4.1-.25l.15-1.01z" clip-rule="evenodd" fill="#34497f" fill-rule="evenodd"/><path d="M454.96 372.28s.17 2.47.65 3.3c.47.83 2.86 2.7 3.84 3.47.77.6-11.37 1.57-11.37 1.57s-.55-2.13-.02-4.24c.44-1.84.15-3.83.15-3.83 2.64.7 5.02.86 6.75-.27z" clip-rule="evenodd" fill="#0e1b3e" fill-rule="evenodd"/><path d="m461.3 382.71-4.46.2c-.3.01-4.28.1-4.34-.8-.04-.57.12-2 .91-2.63 1.82-1.47 8.13-1.88 9.98-.52 1.06.77 1.32 1.76 1.26 2.37-.09 1.01-3.06 1.36-3.35 1.38z" clip-rule="evenodd" fill="#0e1b3e" fill-rule="evenodd"/><path d="M447.88 379.34s.03 1.47.46 2.11c.44.65 5.01.23 5.01.23l.15-2.43z" clip-rule="evenodd" fill="#0e1b3e" fill-rule="evenodd"/><path d="M413.18 215.34c-3.2 2.33-9.02 27.86-8.93 34.19.1 6.95 9.83 4.9 13.1-3.42 3.25-8.33 5.42-18.73 5.42-18.73s-4.89-14.6-9.59-12.04z" clip-rule="evenodd" fill="#7a61e1" fill-rule="evenodd"/><path d="m427.81 213.32 4.95 2.93 4.84-2.87.06-10.17-9.79-.05z" clip-rule="evenodd" fill="#ba5e43" fill-rule="evenodd"/><path d="M424.03 194.16c-.02 2.93.12 4.49.95 7.01.9 2.78 4.41 8.25 7.62 8.27 3.36.01 6.6-4.7 7.6-7.58.88-2.55.77-4.23.79-7.19.04-7.42.12-11.92-8.2-11.97-9.33-.06-8.72 4.04-8.76 11.46z" clip-rule="evenodd" fill="#ba5e43" fill-rule="evenodd"/><path d="M427.83 210.58s1.63 2.31 5.04 2.33c3.35-.28 4.75-1.97 4.75-1.97 3.75.53 10.52 2.8 10.47 2.76-2.52 8.62-11.35 11.67-13.27 11.66l-2.29-.02h-2.29c-1.9-.02-10.87-3.18-13.29-11.83-.04.04 6.19-2.36 10.88-2.93z" clip-rule="evenodd" fill="#7a61e1" fill-rule="evenodd"/><path d="M413.88 215.44s.22 12.98.7 22.49c.6 11.9.26 25.16.26 25.16l34.94.2s-.1-4.56-.04-10.57c.04-4.5.18-9.8.54-14.58.77-10.58.13-22 .13-22s1.47-1.38-2.35-1.91c0 0-4.18 11.24-15.53 11.12-11.34-.02-15.5-11.4-15.5-11.4-3.82.5-3.15 1.49-3.15 1.49z" clip-rule="evenodd" fill="#e8e8e8" fill-rule="evenodd"/><path d="M406.45 243.16s3.8 1.78 7.26 5.52-4.4 35.4-4.4 35.4l-9.86-1.36 3.15-24.23c.96-7.34 1.75-14.68 3.85-15.33z" clip-rule="evenodd" fill="#7a61e1" fill-rule="evenodd"/><path d="M451.26 263.83s-12.53-1.77-38.98-.75c-.35 2.56-.6 10.97.05 26.13.64 14.75 2.37 83.4 2.37 83.4 3.3 1.06 5.37 1.52 9.3.2l7.1-86.35a1.22 1.22 0 0 1 2.44-.02l13.9 86.72c3.47.66 5.37 1 8.73.23 0 0-2.49-100.29-4.91-109.56z" clip-rule="evenodd" fill="url(#p)" fill-rule="evenodd"/><path d="M442.83 212.08s-6.63 3.61-10.42 4.18c-1.3-.44-7.9-2.65-9.14-4.7-.16.05-6.02 1.27-9.62 3.51-.03.15-2.62 43.28-2.62 43.28l-6.4 60.37c8.29 5.55 45.96 5.45 52.33-.33-.15 0-4.32-58.1-4.32-58.1l.06-43.96s-4.52-3.62-9.87-4.25z" clip-rule="evenodd" fill="#7a61e1" fill-rule="evenodd"/><path d="M422.8 241.61a10 10 0 0 1 14.96-8.68l-13.64 13.64a9.96 9.96 0 0 1-1.32-4.96zm4.8 8.55a10 10 0 0 0 13.74-13.74zm5.2-23.55a15 15 0 1 0 0 30 15 15 0 0 0 0-30z" clip-rule="evenodd" fill="#fff" fill-rule="evenodd" opacity=".3"/><path d="M436.38 187.27s-.47 2.27-3.79 3.16c-3.33.89-7.27 1.29-7.88 3.25-.6 1.96-.46 2.02-.46 2.02l-.9-.76s.15-1.2.01-3.17c-.14-1.97-.89-4.54 1.54-7.1 2.44-2.56 6.23-4.2 8.5-3.74 2.25.46 3.6 2.13 3.6 2.13s2.13-.44 3.33.93a7.23 7.23 0 0 1 2.1 4.84c.13 2.27-.64 6.2-.64 6.2l-.91.75s-1.48-6.98-4.5-8.51z" clip-rule="evenodd" fill="#000" fill-rule="evenodd"/><path d="M439.95 197.56c-.41 1.67-.08 2.49.73 2.69.82.2 1.81-.29 2.23-1.95s.1-3.19-.73-3.39c-.8-.2-1.81.98-2.23 2.65zm-14.39-.08c.4 1.67.06 2.07-.77 2.26-.83.2-1.84.12-2.23-1.55-.4-1.67-.04-3.18.79-3.38s1.82 1 2.21 2.67z" clip-rule="evenodd" fill="#ba5e43" fill-rule="evenodd"/><path d="M428.39 204.74s3.92 3.22 8.73.04c2.04-1.73 3.37-5.07 3.24-7.26-.14-1.16.74-2.47 1.32-2.61.14.14-2-8.6-5.78-9.34-3.78-.75-11.52 6.13-11.82 7.47l-.38 1.76s1.1.76 1.38 2.94c.35 2.77 1.72 6.12 3.31 7z" clip-rule="evenodd" fill="#000" fill-rule="evenodd"/><circle cx="430.8" cy="178.49" r="4.9" fill="#000"/><circle cx="424.87" cy="181.56" r="4.9" fill="#000"/><circle cx="420.26" cy="187.56" r="4.9" fill="#000"/><circle cx="420.26" cy="194.48" r="4.9" fill="#000"/><circle cx="422.79" cy="200.29" r="4.9" fill="#000"/><circle cx="427.41" cy="203.71" r="4.9" fill="#000"/><circle cx="433.54" cy="204.93" r="4.9" fill="#000"/><circle cx="440.23" cy="202.48" r="4.9" fill="#000"/><circle cx="444.26" cy="197.06" r="4.9" fill="#000"/><circle cx="445.23" cy="189.72" r="4.9" fill="#000"/><circle cx="442.46" cy="183.39" r="4.9" fill="#000"/><circle cx="436.94" cy="179.68" r="4.9" fill="#000"/><path d="M409.68 381.42s1.73.5 3.83.36c2.12-.14 6.3-2.5 7.07-2.45.78.05.51 3.25.51 3.25s-1.46.68-2.03.58c-.57-.1-7.95.01-8.47-.04-.53-.05-.84-.87-.91-1.7z" clip-rule="evenodd" fill="#31477c" fill-rule="evenodd"/><path d="M447.88 379.34s3.83-.42 4.68-.14c.84.27 1.54 2 2.82 2.6 1.29.61 6.7 1.63 9.25-.1-.06.32-.67.69-1.02.87-.34.19-4.25.55-4.25.55s-5.07.2-5.92-.12c-.85-.32-1.18-.99-1.18-.99l-3.19-.01c-.46-.01-.75 0-.82-.22-.12-.45-.32-1.4-.37-2.44z" clip-rule="evenodd" fill="#34497f" fill-rule="evenodd"/><path d="M175.76 217.59s1.22-.46 1.62-.65a1.9 1.9 0 0 0 1.07-1.72l-.06-5.39 9.15.42v4.94c0 .73.4 1.42 1.1 1.75.4.18 1.61.65 1.61.65s-2.28 1.72-7.27 1.73c-3.67.01-7.22-1.73-7.22-1.73zm10.3 101.28c.41 9.92 1.36 22.45 1.36 31.55 0 6.62-.8 12.48-.9 13.13-.23 1.59 1.3 9.3 2.98 9.18 0 0 2.51-6.94 2.76-8.55 1.93-12.44 8.34-27.66 4.09-50.9-.97-5.3-10.67-3.48-10.29 5.59z" clip-rule="evenodd" fill="#ffbda9" fill-rule="evenodd"/><path d="M185.99 364.41c.39-1.16 1.4-2 2.61-2.13a8.9 8.9 0 0 1 1.47-.03 3.14 3.14 0 0 1 2.89 2.83c.15 1.53.1 3.46-.82 4.76 0 0 1.96 5.85 1.58 7.34 0 0-.25 1.08-4.3 1.08-4.23 0-4.18-.75-4.18-.75-.26-.77.28-7.62.28-7.62-.53-1.83-.03-4 .47-5.48z" clip-rule="evenodd" fill="#382632" fill-rule="evenodd"/><path d="M186.93 369.67s2.05-1.03 4.1 0l-.02.02a6.76 6.76 0 0 0-1.52 4.27v4.28h-.98v-4.23c0-1.59-.56-3.12-1.58-4.34z" clip-rule="evenodd" fill="#694c51" fill-rule="evenodd"/><path d="M177.04 318.85c-.41 9.92-1.36 22.45-1.36 31.56 0 6.62.8 12.48.9 13.13.23 1.58-1.3 9.28-2.98 9.17 0 0-2.51-6.94-2.76-8.55-1.93-12.44-8.34-27.66-4.09-50.9.97-5.3 10.67-3.48 10.29 5.59z" clip-rule="evenodd" fill="#ffbda9" fill-rule="evenodd"/><path d="M177.11 364.4c-.4-1.16-1.4-2-2.61-2.13a8.64 8.64 0 0 0-1.47-.03 3.14 3.14 0 0 0-2.89 2.83c-.16 1.53-.11 3.46.82 4.76 0 0-1.96 5.85-1.58 7.34 0 0 .25 1.08 4.3 1.08 4.23 0 4.18-.75 4.18-.75.26-.77-.28-7.62-.28-7.62.53-1.83.03-4-.47-5.48z" clip-rule="evenodd" fill="#382632" fill-rule="evenodd"/><path d="M176.18 369.66s-2.05-1.03-4.1 0l.02.02a6.76 6.76 0 0 1 1.52 4.27v4.28h.98V374c0-1.59.56-3.12 1.58-4.34z" clip-rule="evenodd" fill="#694c51" fill-rule="evenodd"/><path d="M202.6 279.01a28.41 28.41 0 0 0-.48-4.16 12 12 0 0 0 4.5-.6c-.05 1.51-.08 2.73.06 3.76.02.18 1.24 10.13.68 12.52-.08.37-.94 1.25-1.68 2.2-1.71 2.24-2.32 3.36-2.63 3.27-.62-.18-.12-1.85-.12-1.85-.46.33-.97.44-1.08.3-.48-.59 1.63-2.07 2.05-4.59.33-2.03-.63-3.85-.97-3.84-.42 0-1.39 2.27-1.28 3.82.04.68-.54 1.49-1.34 1.39-.64-.08-.61-2.57-.3-4.53.64-4.15 2.63-6.42 2.59-7.69z" clip-rule="evenodd" fill="#ffbda9" fill-rule="evenodd"/><path d="M206.09 288.4c-.08 1.5.07 3.04-.68 4.4l.15.1c.77-1.4.62-2.97.71-4.5 0-.12-.17-.12-.18 0zm-3 5.66c.84-1.22 1.51-2.62 1.2-4.13-.03-.12-.2-.07-.18.04.3 1.47-.37 2.83-1.18 4z" clip-rule="evenodd" fill="#d87360" fill-rule="evenodd"/><path d="M164.08 279.04c.05-1.41.28-2.61.26-4.2a12 12 0 0 1-4.5-.6c.05 1.51.08 2.73-.06 3.76-.02.18-1.24 10.13-.69 12.52.09.37.95 1.25 1.69 2.2 1.7 2.24 2.31 3.36 2.62 3.27.63-.18.12-1.84.12-1.84.46.32.97.43 1.08.3.49-.6-1.62-2.08-2.04-4.6-.34-2.03.63-3.85.97-3.84.42 0 1.38 2.27 1.28 3.82-.04.68.54 1.49 1.33 1.4.65-.09.62-2.58.32-4.53-.65-4.16-2.42-6.4-2.38-7.66z" clip-rule="evenodd" fill="#e68770" fill-rule="evenodd"/><path d="M160.37 288.4c.08 1.5-.07 3.04.68 4.4l-.15.1c-.77-1.4-.62-2.97-.7-4.5-.02-.12.16-.12.17 0zm3.01 5.66c-.84-1.22-1.51-2.62-1.2-4.13.02-.12.2-.07.17.04-.3 1.47.38 2.83 1.18 4z" clip-rule="evenodd" fill="#d87360" fill-rule="evenodd"/><path d="M201.99 280.12c.38 12.15-.98 17.9-1.7 28.64-.35 5.4-1.5 27.1-1.5 27.1-6.7 2.05-13.2.28-13.2.28-.71-8.02-1.75-16.97-2.21-29.99-.48-13.3-1.13-20.13-1.13-20.13s-.32 5.67-1.7 17.62c-1.92 16.73-2.5 28.77-3.27 32.3 0 0-8.3 2.02-13.36-.47 0 0-.42-16.07-.42-22.22.02-16.71.57-29.99 1.3-32.15 0 0 3.85-8.14 4.7-9.12 7.44-8.51 25.1-8.72 30.63-1.07 1.64 2.27 1.86 9.21 1.86 9.21z" clip-rule="evenodd" fill="#474c69" fill-rule="evenodd"/><mask id="q" x="249" y="216" width="50" height="71" mask-type="alpha" maskUnits="userSpaceOnUse"><path d="M251.04 243.68c-.59 18.15-1.43 30.14-1.43 30.14.38.21 1.23.43 1.23.43 2.13 1.24 4.5.6 4.5.6-.07 4.25-1.13 7.35-1.3 10.27 0 0 11.7 1.86 21.5 1.86 8.02 0 19.1-1.86 19.1-1.86 0-2.07-.64-6.82-1.35-10.15a17.5 17.5 0 0 0 4.34-.72s.74-.28.88-.43c0 0-1.78-23.29-2.12-31.74-.2-5.29-.21-14.85-6.26-20.67-1.17-1.12-3.51-2.9-7.84-3.66-.84-.15-1.66-.42-2.45-.75l-.34-.15s-1.98.65-5.44.69c-3.43.03-5.52-.69-5.52-.69l-.73.3c-.53.22-1.06.41-1.6.54-1.94.45-7.04 2.3-9 4.24-4.85 4.84-5.95 14.86-6.17 21.75z" clip-rule="evenodd" fill="#7f87ab" fill-rule="evenodd"/></mask><g transform="translate(-91)" mask="url(#q)"><path d="M251.04 243.68c-.59 18.15-1.43 30.14-1.43 30.14.38.21 1.23.43 1.23.43 2.13 1.24 4.5.6 4.5.6-.07 4.25-1.13 7.35-1.3 10.27 0 0 11.7 1.86 21.5 1.86 8.02 0 19.1-1.86 19.1-1.86 0-2.07-.64-6.82-1.35-10.15a17.5 17.5 0 0 0 4.34-.72s.74-.28.88-.43c0 0-1.78-23.29-2.12-31.74-.2-5.29-.21-14.85-6.26-20.67-1.17-1.12-3.51-2.9-7.84-3.66-.84-.15-1.66-.42-2.45-.75l-.34-.15s-1.98.65-5.44.69c-3.43.03-5.52-.69-5.52-.69l-.73.3c-.53.22-1.06.41-1.6.54-1.94.45-7.04 2.3-9 4.24-4.85 4.84-5.95 14.86-6.17 21.75z" clip-rule="evenodd" fill="#f88a24" fill-rule="evenodd"/></g><path d="M202.22 274.68c-1.37-15.68-2-31.39-1.9-47.13 0-.16-.25-.16-.25 0-.1 15.74.53 31.45 1.9 47.13.02.16.26.16.25 0zm-37.59-.18c1.37-15.68 2-31.39 1.9-47.13 0-.15-.25-.16-.25 0 .1 15.74-.53 31.45-1.9 47.13-.01.16.24.16.25 0z" clip-rule="evenodd" fill="#c03d1a" fill-rule="evenodd"/><path d="M164.76 332.91c3.52 1.11 7.96.88 11.5-.06.14-.04.08-.28-.08-.24-3.4.9-7.95 1.14-11.36.06-.15-.05-.21.2-.06.24zm21.88.34c3.52 1.11 7.96.88 11.5-.06.15-.04.08-.28-.07-.24-3.4.9-7.96 1.14-11.36.06-.16-.05-.22.2-.07.24z" clip-rule="evenodd" fill="#281a24" fill-rule="evenodd"/><path d="M198.94 209.9c-.24-.6-.82-1.27-.84-1.93-.01-.58.45-1.13.53-1.71.22-1.4-.55-2.64-1.4-3.68-.44-.55-.91-1.07-1.25-1.7a6.42 6.42 0 0 1-.61-1.86c-.26-1.38.37-2.81.05-4.17a14.53 14.53 0 0 0-2.59-5.2c-1.43-1.77-3.64-3.83-8.51-3.65 0 0-2.7-1.58-7.43 1.2a11.73 11.73 0 0 0-3 2.33 14.64 14.64 0 0 0-3.17 6.67c-.26 1.32-.03 3.15-.07 4.49-.05 1.37.12 2.8-.23 4.14-.7 2.62-3.07 4.76-2.45 7.69a3.7 3.7 0 0 0 1.93 2.58c.86.4 1.82.36 2.62-.06 1.1 1.4 3.13 1.84 4.6.5.17-.16.3-.35.42-.54.26.2.53.4.82.56 1 .52 2.13.55 3.04.15.7.58 1.6.86 2.71.62.6-.12 1.19-.35 1.7-.67.18.2.37.38.6.53 1.08.74 2.54.86 3.8.62a5.32 5.32 0 0 0 2.41-1.15c.2-.03.4-.07.6-.13.67-.22 1.29-.59 2.02-.52.71.07 1.33.2 2.02-.08.56-.22 1.02-.6 1.38-1.09.84-1.14.81-2.66.3-3.94zm-23.56 8.23c4.66 1.99 10.98 2.52 15.53-.09.14-.08.01-.29-.13-.21-4.46 2.55-10.72 2.03-15.28.09-.14-.07-.27.15-.12.21z" clip-rule="evenodd" fill="#c03d1a" fill-rule="evenodd"/><path d="M158.98 269.61c.76.43 1.69.6 2.54.78.9.18 1.82.3 2.75.36.2 0 .2-.3 0-.32-.9-.05-1.79-.16-2.67-.34-.82-.17-1.73-.33-2.46-.75-.18-.1-.33.17-.16.27z" clip-rule="evenodd" fill="#646e93" fill-rule="evenodd"/><path d="M202.28 271.72a15.2 15.2 0 0 0 4.7-.59c.19-.06.1-.36-.08-.3-1.5.5-3.07.55-4.62.58-.2 0-.2.31 0 .31z" clip-rule="evenodd" fill="#c03d1a" fill-rule="evenodd"/><path d="M378.41 471.72c-.09.6-.15 1.14-.22 1.7l-.2 1.68a210.14 210.14 0 0 0-.87 10.03c-.14 2.24-.21 4.5-.2 6.81.02 2.3.1 4.61.63 7.26.16.8.63 1.53 1.32 2.03a3.75 3.75 0 0 0 4.71-.27 3.3 3.3 0 0 0 1.05-2.17l.03-.4.1-1.32.18-1.41.26-1.49c.09-.49.21-1 .31-1.48.45-2 .98-4.02 1.57-6.05a156.3 156.3 0 0 1 2.94-9.1l.54-1.48.53-1.45a5.93 5.93 0 0 0-.34-5.07 6.32 6.32 0 0 0-1.75-2 6.75 6.75 0 0 0-5.2-1.24c-.9.15-1.77.47-2.54.96a6.41 6.41 0 0 0-1.9 1.87 6.03 6.03 0 0 0-.95 2.44zm-24.05 1.74 1.04 6.45 1.06 6.43a845.9 845.9 0 0 0 2.24 12.87 3.87 3.87 0 0 0 7.68-.7c0-4.3.04-8.61.1-12.94l.11-6.47.14-6.47v-.03a6.2 6.2 0 0 0-8.5-5.96 6.24 6.24 0 0 0-3.87 6.82z" fill="#b25030"/><path d="m363.91 342.22.4 1.02.4 1.04.77 2.1 1.49 4.23c.5 1.41.96 2.83 1.43 4.25l1.39 4.26c.89 2.85 1.74 5.7 2.6 8.55.44 1.43.83 2.86 1.23 4.29l1.19 4.29 1.16 4.29c.38 1.43.72 2.86 1.08 4.3.73 2.85 1.37 5.72 2.01 8.57.64 2.85 1.19 5.7 1.71 8.5.14.7.24 1.4.36 2.08a100.02 100.02 0 0 1 .83 5.99l.03.3.02.12v3.23c-.02 1.43-.1 2.9-.15 4.36-.14 2.94-.34 5.9-.6 8.87-.25 2.96-.56 5.92-.85 8.88l-1.02 8.88a620.06 620.06 0 0 0-1.86 17.8c-.14 1.48-.24 2.97-.34 4.45-.11 1.49-.2 2.97-.3 4.48l-.13 2.23-.1 2.25-.1 2.24c-.02.19 0 .38.04.57.1.24.27.46.48.62.34.28.72.51 1.11.7l.2.1.21.1.44.2.54.2.63.22c1.91.67 3.94.92 5.96.76l.67-.05.58-.07.48-.08.23-.04.21-.05c.44-.08.86-.22 1.27-.4.25-.1.46-.27.63-.49.1-.16.16-.35.18-.54l.52-2.2c.35-1.46.7-2.92 1.02-4.39.67-2.93 1.25-5.87 1.87-8.8a462.1 462.1 0 0 0 3.21-17.7c.98-5.92 1.85-11.84 2.75-17.8l1.35-8.96c.23-1.51.46-3.02.68-4.58l.16-1.17.15-1.23.07-.66.08-.68.01-.17v-.2l.03-.47.03-.46.02-.41a105.86 105.86 0 0 0 .01-7.54c-.02-.8-.03-1.6-.07-2.37-.11-3.16-.3-6.24-.49-9.32-.4-6.14-.92-12.2-1.49-18.25a976.7 976.7 0 0 0-1.85-18.06l-1.03-9-.53-4.51-.56-4.54-.3-2.35a16.76 16.76 0 0 0-33.25 4.09c.2 1.42.57 2.8 1.1 4.13z" fill="#5a607c"/><mask id="r" x="433" y="337" width="30" height="145" mask-type="alpha" maskUnits="userSpaceOnUse"><path d="M433.45 353.17c.68 10.7 1.57 21.38 2.45 32.07l1.41 16.02c.23 2.68.5 5.35.74 8.03l.76 8.02c1.01 10.68 2.08 21.36 3.21 32.04l1.7 16.01.9 8.01.44 4 .22 2 .06.5.03.26c0 .09.02.17.07.25.17.22.41.39.68.48.55.2 1.12.35 1.7.44 3.1.49 6.26.38 9.31-.33a7.88 7.88 0 0 0 1.67-.56c.26-.1.49-.29.65-.52a.5.5 0 0 0 .05-.26v-.25l.03-.5.1-2.03.15-4.02.33-8.05.6-16.1c.35-10.73.7-21.46.97-32.18l.2-8.05.17-8.04.3-16.09c.12-10.72.27-21.44.2-32.16a14.56 14.56 0 1 0-29.1.2c-.03.25-.01.55 0 .81z" fill="#556ebc"/></mask><g transform="translate(-91)" mask="url(#r)"><path d="M433.45 353.17c.68 10.7 1.57 21.38 2.45 32.07l1.41 16.02c.23 2.68.5 5.35.74 8.03l.76 8.02c1.01 10.68 2.08 21.36 3.21 32.04l1.7 16.01.9 8.01.44 4 .22 2 .06.5.03.26c0 .09.02.17.07.25.17.22.41.39.68.48.55.2 1.12.35 1.7.44 3.1.49 6.26.38 9.31-.33a7.88 7.88 0 0 0 1.67-.56c.26-.1.49-.29.65-.52a.5.5 0 0 0 .05-.26v-.25l.03-.5.1-2.03.15-4.02.33-8.05.6-16.1c.35-10.73.7-21.46.97-32.18l.2-8.05.17-8.04.3-16.09c.12-10.72.27-21.44.2-32.16a14.56 14.56 0 1 0-29.1.2c-.03.25-.01.55 0 .81z" fill="#5a607c"/><path d="M442.35 350.75c-8.36 8.47-10.2 36.96-10.2 36.96s-4.46-36.28-4.66-36.96c-.2-.68 0-5.94 0-5.94l13.28-1.67z" fill="#7f87ab" opacity=".3"/></g><path d="M376.64 493.5c1.16-.31 4.2.77 7.23 1.99.89.35 2.24-1.37 3.44-1.02 3.56 1.03 8.06 3.74 8.85 4.46.92.84 1.38 2.52 1.61 3.8.17.95-1.49 1.68-1.49 1.68h-20.5c-.36-1.52-.6-3.07-.75-4.63-.2-3.64.33-5.94 1.61-6.28zm-10.49 0c-1.16-.31-4.2.77-7.24 1.99-.89.35-.67-.82-1.85-.48-3.57 1.02-5.89 3.2-6.68 3.92-.91.84-1.38 2.52-1.6 3.8-.18.95 1.48 1.68 1.48 1.68h16.76c.35-1.52.6-3.07.74-4.63.2-3.63-.33-5.94-1.61-6.28z" fill="#0e1b3e"/><path d="M382.8 243.43c-1 6.74-2.27 8.9-4.43 10.26s-8.64.54-10.3-1.28c-1.65-1.82-3.2-7.1-3.2-7.1z" fill="#b25030"/><path d="M344.46 314.1c-2.98 3.21-3.23 9-1.9 11.22 1.32 2.22 6.29 3.27 6.29 2.6s-4.39-13.82-4.39-13.82z" fill="#f77a5e"/><path d="M382.58 244.42c-.67 1.8-.64 3.48.05 3.74.7.27 1.81-1 2.49-2.8.67-1.82.64-3.48-.06-3.75-2-.75-1.81 1-2.48 2.81zm-16.69 0c.67 1.8.65 3.48-.06 3.74-.7.27-1.8-1-2.48-2.8s-.64-3.48.06-3.75c2-.75 1.81 1 2.48 2.81zm14.41 16.82c.02-.12.03-.25.03-.37l-.02-.4c-.03-.3-.08-.57-.1-.89-.07-.62-.12-1.27-.16-1.93-.1-1.33-.16-2.7-.23-4.08l-.19-4.2-.11-2.15-.06-1.15-.04-.64-.03-.4-.04-.46a4.82 4.82 0 0 0-9.08-1.77l-1.13 2.23-.04.07a.26.26 0 0 0-.03.12l-.07.4-.18.96-.38 2.03-.74 4.17a140.25 140.25 0 0 0-1.04 7.14l-.05.61a6.5 6.5 0 0 0 .06 1.33 6.84 6.84 0 0 0 13.44.34z" fill="#b25030"/><mask id="s" x="428" y="260" width="75" height="102" mask-type="alpha" maskUnits="userSpaceOnUse"><path d="M439.75 263.21c19.21-5.04 42.2-1.49 55.6 6.58l-.06.56a6.2 6.2 0 0 1 3.81 3.77c2.8 7.77 4.08 18.43 3.53 29.25-.34 6.54-1.65 18.6-6.74 25.8l-1.86 2.63h-3.22c-.34 0-.67-.01-1-.03-.83 13.02 2.7 21.36 0 22.92-38.16 17.37-58.22-4.42-58.22-4.42-1.51-23.85.59-41.88-2.76-67.51-1-7.65 3.45-17.58 10.92-19.55z" fill="#b25235"/></mask><g transform="translate(-91)" mask="url(#s)"><path d="M439.75 263.21c19.21-5.04 42.2-1.49 55.6 6.58l-.06.56a6.2 6.2 0 0 1 3.81 3.77c2.8 7.77 4.08 18.43 3.53 29.25-.34 6.54-1.65 18.6-6.74 25.8l-1.86 2.63h-3.22c-.34 0-.67-.01-1-.03-.83 13.02 2.7 21.52 0 23.08-37.17 17.77-59.22-4.58-59.22-4.58 0-24.59 1.59-41.88-1.76-67.51-1-7.65 3.45-17.58 10.92-19.55z" fill="#537ff5"/><path d="M432.35 268.79c-5.62 13.4 16.48 52.62 18.34 59.33 1.86 6.7-11.78 22.95-10.36 34.93 1.42 11.99-19.43-8.62-19.43-8.62l1.12-50.5-5.22-25.58z" fill="url(#t)" opacity=".4"/></g><path d="M362.16 234.79c0 8.26 6.53 19.33 11.68 19.33 5.16 0 11.16-10.45 11.16-18.7s-6-11.2-11.16-11.2-11.68 2.32-11.68 10.57z" fill="#6c352a"/><path d="M385.86 263.21s-.27-2.37-2.68-4.17-8.93-2.66-8.93-2.66-6.62.13-8.49 0c-1.86-.12-4.59 5.18-4.59 5.18z" fill="#537ff5"/><path d="M378.64 288.76c-6.08 3.25-13.02 3.27-17.31-5.38l27.67-20.1c-.54 12.03-4.28 22.24-10.36 25.48z" fill="url(#u)" opacity=".4"/><path d="M380.8 256.46c4.1 1.02 5.46 2.46 8.03 6.73-1.66 9.65-12.79 25.96-23.04 23.09-12.8-3.6-5.98-27.06-2.74-29.11 3.25-2.05 13.65-1.74 17.75-.71z" fill="#6d94fe"/><path d="m450.28 469.43.32 1.76.3 1.8a141.16 141.16 0 0 1 1.4 10.83 91 91 0 0 1 .42 7.12c0 1.16 0 2.31-.08 3.41-.06 1.01-.2 2.01-.43 3l-.03.11a3.7 3.7 0 1 0 7.11 2.01c.43-1.42.74-2.87.91-4.34.18-1.38.27-2.72.33-4.05.12-2.65.08-5.23 0-7.8a149.75 149.75 0 0 0-.85-11.47l-.2-1.9-.24-1.94a4.52 4.52 0 0 0-8.97 1.19l.02.19zm25.73 3.35.29 1.58.27 1.61c.17 1.08.34 2.16.49 3.25a146 146 0 0 1 .77 6.48c.2 2.16.35 4.3.37 6.39 0 1.04 0 2.08-.07 3.07-.06.9-.19 1.8-.39 2.68l-.02.1a3.32 3.32 0 0 0 6.38 1.81c.4-1.27.67-2.58.82-3.9.16-1.24.24-2.44.3-3.63.1-2.38.07-4.7 0-7.01a134.28 134.28 0 0 0-.77-10.3l-.18-1.7-.22-1.74a4.07 4.07 0 0 0-8.03 1.23z" fill="#ffa88d"/><path d="M495.21 282.37c.02-.13.03-.26.03-.4l-.03-.41c-.02-.31-.07-.6-.1-.94l-.15-2.01c-.09-1.39-.14-2.81-.2-4.25l-.18-4.35-.1-2.24-.06-1.18-.05-.65-.02-.42-.04-.46a4.82 4.82 0 0 0-9.25-1.47l-.8 1.93-.03.08a.45.45 0 0 0-.03.12l-.08.44-.17 1-.38 2.1-.75 4.34a167.76 167.76 0 0 0-.98 6.78l-.06.61-.05.63a5.8 5.8 0 0 0 .06 1.37 6.73 6.73 0 0 0 13.27.24z" fill="#f77a5e"/><path d="M474.7 355.81c-.28 1.4-.49 2.8-.68 4.2l-.26 2.1c-.09.7-.15 1.4-.22 2.1-.07.7-.15 1.4-.2 2.1l-.16 2.1-.13 2.1-.1 2.1c-.12 2.8-.18 5.62-.19 8.43l.05 8.43.15 16.88.05 4.22.1 4.21.22 8.45.24 8.44.13 4.23.18 4.22c.23 5.64.5 11.27.8 16.91l.24 4.24.27 4.24c.2 2.82.39 5.65.62 8.48.22 2.84.49 5.68.77 8.55.07.71.17 1.44.25 2.16s.15 1.43.26 2.17l.32 2.2.2 1.15c.05.2.02.39.2.56.18.18.47.33 1.1.43 2.14.34 4.32.09 6.32-.73l.6-.24c.6-.25.84-.44.99-.62.15-.17.08-.32.09-.48l-.03-.94.02-1.99c0-.65.03-1.35.05-2.02a325.62 325.62 0 0 1 .56-10.3c.38-5.54.88-11.1 1.36-16.67.48-5.56 1-11.13 1.55-16.7l.42-4.17.4-4.18.8-8.35 3.32-33.42.86-8.34c.24-2.8.54-5.57.73-8.36l.16-2.1.14-2.09.13-2.09.1-2.09.1-2.1.06-2.08c.05-1.4.06-2.8.06-4.18a11.51 11.51 0 0 0-22.8-2.18z" fill="#abbce9"/><path d="M456.44 356.13a156.7 156.7 0 0 1-4.47 15.46c-1.76 5.22-3.6 10.53-5.33 16.01-.43 1.38-.85 2.76-1.26 4.15l-.6 2.1-.6 2.12c-.79 2.84-1.5 5.73-2.08 8.72a71.61 71.61 0 0 0-1.22 9.23 52.1 52.1 0 0 0-.08 4.85l.02.62.04.72.02.4c0 .13.02.28.04.37l.06.61.15 1.16.07.56.09.54 1.26 8.4 1.3 8.25.66 4.1.63 4.12c.42 2.74.82 5.48 1.22 8.22s.8 5.48 1.22 8.21l.63 4.1.67 4.08.34 2.04.36 2.04.7 4.05.72 4.03c.12.66.24 1.32.34 1.96l.15.96.03.22c0 .04.02.08.04.11.05.05.1.08.17.1.26.1.53.16.8.2l.31.04.4.04.43.05.24.02.29.02.3.02a28 28 0 0 0 4.93-.17l.28-.05c.1 0 .17-.02.24-.04l.41-.08c.13-.03.3-.06.4-.1l.3-.08c.27-.07.54-.18.78-.33.15-.1.2-.2.18-.3l.02-.3.02-1.11.02-2.18a166.16 166.16 0 0 0-.24-8.47l-.1-2.1-.15-2.09-.3-4.17-.36-4.15c-.24-2.77-.52-5.53-.77-8.3-.26-2.77-.54-5.52-.76-8.29-.11-1.38-.24-2.76-.34-4.15l-.27-4.15c-.1-1.38-.2-2.76-.25-4.15l-.1-2.07-.08-2.07a109.97 109.97 0 0 1-.05-4.11l.04-2.04c0-.34.02-.67.03-1l.06-.99.03-.48.03-.47c.03-.3.05-.63.09-.86l.05-.39c0-.03.01-.07.04-.1l.03-.06.04-.06.05-.18.1-.38c.27-1.04.61-2.07 1.01-3.08a43.02 43.02 0 0 1 3.13-6.26c1.27-2.1 2.65-4.2 4.12-6.3 1.47-2.12 2.98-4.26 4.45-6.47 3.06-4.51 4.74-9.27 7.02-14.23a21.03 21.03 0 0 0 1.43-14.63l-.2-.67-.1-.33-.1-.34c-.33-.98-.74-1.92-1.24-2.82l-5.83-10.3a8.73 8.73 0 0 0-16.13 2.45z" fill="#abbce9"/><path d="M504.86 307.96c.05.45.13.95.22 1.43l.3 1.42c.22.95.47 1.88.74 2.8.55 1.85 1.16 3.67 1.76 5.46l.22.67.24.67.45 1.33.42 1.31c.13.43.28.87.4 1.3.25.84.5 1.67.67 2.43a20.23 20.23 0 0 1 .29 1.56c.05-.1.09-.21.12-.33l.05-.14.04-.1a.3.3 0 0 1 .03-.06v-.02l-.01.03-.07.1-.04.06-.06.07-.12.16c-.48.59-.99 1.14-1.53 1.66a60.32 60.32 0 0 1-4.1 3.6 132.6 132.6 0 0 1-6.86 5.2l-1.18.83-1.15.8-.1.07a5.61 5.61 0 1 0 6.4 9.23l1.3-.9 1.26-.9a177.04 177.04 0 0 0 7.41-5.61 68.83 68.83 0 0 0 4.89-4.29c.89-.86 1.72-1.77 2.5-2.74l.33-.43.16-.23.17-.24c.25-.37.49-.75.7-1.14a9.36 9.36 0 0 0 1.08-3.49c.07-.81.09-1.63.03-2.44-.04-.7-.12-1.32-.2-1.92-.18-1.2-.4-2.3-.64-3.38a97.68 97.68 0 0 0-1.64-6.15 151.6 151.6 0 0 0-2.91-8.78l-.53-1.45-.55-1.46a5.51 5.51 0 0 0-10.65 2.5z" fill="#ffa88d"/><path d="M500.36 336.86a131.2 131.2 0 0 0 4.53-3.5 59.72 59.72 0 0 0 4.09-3.59c.47-.46.91-.92 1.26-1.33l8.28.63 3 1.87-.1.37a9.35 9.35 0 0 1-1.42 2.83l-.17.25-.16.23-.33.43c-.77.96-1.6 1.88-2.5 2.74-.48-2.64-2.84-3.51-6.13-3.73-2.95-.2-8.16 1.9-10.53 2.93z" fill="#cf7355" opacity=".13"/><mask id="v" x="533" y="275" width="69" height="124" mask-type="alpha" maskUnits="userSpaceOnUse"><path d="M601.1 287.37c-7.12-10.67-34.8-17.83-49.9-4.99-.93 23.62 1.15 50.2 1.15 50.2l-19.32 51.24s32.66 23.9 58 10.62c8.44-4.42-2.01-55.1-1.1-58.88.91-3.77 11.17-48.19 11.17-48.19z" fill="#b0bfcf"/></mask><g transform="translate(-91)" mask="url(#v)"><path d="M601.1 287.37c-7.12-10.67-34.8-17.83-49.9-4.99-.93 23.62 1.15 50.2 1.15 50.2l-19.32 51.24s32.66 23.9 58 10.62c8.44-4.42-2.01-55.1-1.1-58.88.91-3.77 11.17-48.19 11.17-48.19z" fill="#afb055"/><path d="m533.04 383.82 19.32-51.24s-.24-3.08-.52-8.08c1.13-3.08 2.75-8.8 3.76-18.05.18 1.09 3.06 5 3.07 3.05.05-12.92-1.27-23.22-3.44-26.86-.43-.72-.88-1.14-1.29-1.22a.73.73 0 0 1-.6-.68c.37-.25.74-.48 1.1-.7.76.22 1.44.84 2.04 1.84 3.15 5.29 4.25 21.74 3.36 37.27 2.44 7.7 4.56 16.64 2.13 20.34-4.33 6.59-12.43 22.54-13.37 28.67-.84 5.5-4.78 15.07-2.95 22.97-7.6-3.65-12.61-7.31-12.61-7.31z" fill="url(#w)" opacity=".4"/></g><path d="M473.92 258.01c0 5.9-4.91 23.93-2.07 35.53 4.78 19.5 12.98 23.1 18.45 23.72 6.56.73 12.8-23.2 14.78-27.57 4.82-10.6-4.15-31.12-4.15-36.7 0-7.86-4.6-13.56-10.19-14.24-14.84-1.8-16.82 11.4-16.82 19.26z" fill="#ed7f19"/><path d="M486.08 494.74c2 3.3 1.15 9.67 1.15 9.67h-20.69s-2.83-1.73-.76-3.05c2.07-1.32 7.3-3.38 8.7-4.55.38-.33-2.65-1.98-1.54-2.71 1.11-.73 2.97-1.65 4.3 0a8.56 8.56 0 0 0 3.1 2.49c.68.38.45-.87 2.3-1.85a3.63 3.63 0 0 1 3.44 0zm-25.21 0c2 3.3 1.15 9.67 1.15 9.67h-20.69s-2.83-1.73-.77-3.05c2.07-1.32 7.31-3.38 8.71-4.55.38-.33-2.65-1.98-1.54-2.71 1.11-.73 2.97-1.65 4.3 0a8.59 8.59 0 0 0 3.1 2.49c.68.38.45-.87 2.3-1.85a3.63 3.63 0 0 1 3.44 0z" fill="#0e1b3e"/><mask id="x" x="594" y="285" width="21" height="50" mask-type="alpha" maskUnits="userSpaceOnUse"><path d="M612.23 334.62a609.21 609.21 0 0 1-13.68-4.64l-4-16.63s.9-26.98 4.02-27.5c3.1-.52 7.95 4.86 8.72 8.94.77 4.07 7.91 34.43 7.14 35.84l-2.2 3.99z" fill="#ebcac5"/></mask><g transform="translate(-91)" mask="url(#x)"><path d="M612.23 334.62a609.21 609.21 0 0 1-13.68-4.64l-4-16.63s.9-26.98 4.02-27.5c3.1-.52 7.95 4.86 8.72 8.94.77 4.07 7.91 34.43 7.14 35.84l-2.2 3.99z" fill="#fff"/></g><path d="M522.84 326.17c3.29-.77 4.06 6 1.55 7.73-2.51 1.74-3.16.71-3.16.71s-12.7-3.62-14.31-4.1c-1.61-.47-1.87-3.25-1.74-4.8.13-1.54 4.64-1.34 6.84-1.28 2.2.06 10.82 1.74 10.82 1.74z" fill="#fff"/><path d="M459.69 360.37c.61 0 1.56-.78 6.56-16.6 2.42-7.64 3.78-20.46 3.66-34.29-.1-10.56-1.2-23.53-4.02-28.26-.65-1.09-1.39-1.71-2.2-1.88a.6.6 0 0 0-.71.49.61.61 0 0 0 .48.71c.45.09.93.54 1.38 1.3 2.22 3.73 3.74 14.58 3.86 27.66.12 13.7-1.23 26.37-3.6 33.9-3.86 12.2-5.22 15.02-5.62 15.67a.6.6 0 0 0-.49.7.7.7 0 0 0 .63.58z" fill="#00406b" stroke="#00406b" stroke-width=".54"/><path d="m437.52 371.72 13.48 5.74h5.33a3.02 3.02 0 0 0 2.98-2.5l2.12-12.35a3.21 3.21 0 0 0-2.05-3.55l-15.34-5.72a2.29 2.29 0 0 0-2.93 1.34l-5.06 13.61a2.7 2.7 0 0 0 1.47 3.43z" fill="#00406b"/><path d="m450.36 309.92-.2.73-.17.75c-.1.49-.23 1-.31 1.5s-.2 1-.29 1.5l-.24 1.52-.12.76-.1.76-.18 1.52c-.08.5-.12 1.01-.17 1.52l-.14 1.53c-.1 1.01-.16 2.03-.23 3.05l-.07 1.51-.02.28v-.05.16l-.02.06-.05.27c-.1.4-.18.85-.3 1.32l-.3 1.45c-.22 1-.4 2.01-.6 3.04-.35 2.05-.64 4.15-.9 6.26l-.79 6.32c-.13 1.06-.26 2.11-.36 3.18l-.3 3.19c-.1 1.07-.15 2.14-.19 3.23-.04 1.08-.06 2.17-.09 3.27a2.98 2.98 0 0 0 4.7 2.48 2.97 2.97 0 0 0 1.18-1.8l.14-.68c.4-1.89.8-3.76 1.26-5.64.24-.94.46-1.88.73-2.81.27-.94.5-1.89.76-2.83a146.33 146.33 0 0 1 2.7-8.47 298.78 298.78 0 0 0 1.88-5.78 87.39 87.39 0 0 0 .88-3.2l.1-.48.03-.12.03-.15.06-.3.03-.15.03-.2.05-.42.01-.16v-.33l.05-1.56c.04-1.03.08-2.05.08-3.09.02-2.05 0-4.11-.08-6.18l-.08-1.55c-.02-.52-.07-1.04-.1-1.56a51.56 51.56 0 0 0-.33-3.14 4.09 4.09 0 0 0-7.97-.62z" fill="#ffa88d"/><path d="M448.85 333.69c-1.3 1.77-2.79 7.96-3.7 12.2l.02-.21.79-6.32c.26-2.11.55-4.21.9-6.27.2-1.02.38-2.04.6-3.03l.31-1.45.29-1.33.05-.26.01-.06v-.05l.02-.08v-.04.05l.01-.27.08-1.52c.06-1.01.12-2.03.23-3.05v-.09l10.48 1.14c0 .98-.04 1.93-.07 2.9l-.06 1.56v.49l-.06.41-.03.21-.03.15-.06.3-.03.15-.02.12-.11.49-.43 1.66-.45 1.53-.06.19c-2.3-2.94-6.73-2.2-8.68.48z" fill="#cf7355" opacity=".13"/><mask id="y" x="531" y="282" width="25" height="48" mask-type="alpha" maskUnits="userSpaceOnUse"><path d="m553.18 320.51 1.58-7.94 1.04-27.46a2.67 2.67 0 0 0-2.47-2.78c-2.28-.16-5.6.01-7.82 1.88-3.04 2.56-8.05 22.98-10.13 31.48l-.58 2.37c-1.4.3-2.5.89-2.84 1.74-.77 1.94.6 7.54 2.34 8.38s17.7 2.1 18.58 1.47c.8-.57.68-6.47.3-9.14z" clip-rule="evenodd" fill="#ebcac5" fill-rule="evenodd"/></mask><g transform="translate(-91)" mask="url(#y)"><path d="m553.18 320.51 1.58-7.94 1.04-27.46a2.67 2.67 0 0 0-2.47-2.78c-2.28-.16-5.6.01-7.82 1.88-3.04 2.56-8.05 22.98-10.13 31.48l-.58 2.37c-1.4.3-2.5.89-2.84 1.74-.77 1.94.6 7.54 2.34 8.38s17.7 2.1 18.58 1.47c.8-.57.68-6.47.3-9.14z" clip-rule="evenodd" fill="#fff" fill-rule="evenodd"/></g><path d="M444.87 356.83c-1.2 2.4-3.27 3.87-4.12 5.76-.86 1.88-.5 6.03 0 8.68.6 3.17 3.68 6.19 5.58 5.07.78-.46-.51-5.16.95-6.19 1.46-1.03 3.87-4.47 4.04-8.08s-1.8-5.24-1.8-5.24z" fill="#ffa88d"/><path d="M261.36 292.72a528.8 528.8 0 0 0 3.33 11.33c1.16 3.77 2.35 7.51 3.52 11.24a464.9 464.9 0 0 1 3.41 11.13c.53 1.83 1.06 3.65 1.47 5.39a42.33 42.33 0 0 1 .7 3.41l.01.1v.06l.02.1v.4a49 49 0 0 1-.15 2.65l-.25 2.86c-.16 1.92-.37 3.87-.55 5.82l-.59 5.9-.57 5.9a801.12 801.12 0 0 0-1.48 17.85c-.14 1.98-.25 3.99-.35 5.94v.03a2.68 2.68 0 0 0 5.19 1.08c.71-1.94 1.35-3.84 1.96-5.76s1.18-3.84 1.75-5.77a319.5 319.5 0 0 0 7.05-29.3c.19-1 .36-2.01.53-3.05.17-1.04.32-2.08.45-3.27.02-.32.06-.53.08-1.08v-1.24c-.03-.76-.09-1.39-.16-2a54.66 54.66 0 0 0-.5-3.42c-.4-2.15-.86-4.18-1.36-6.2s-1.03-3.97-1.6-5.93l-.87-2.91-.9-2.9a235.3 235.3 0 0 0-6.13-17.03c-.76-1.86-1.53-3.7-2.37-5.56a6.21 6.21 0 0 0-11.66 4.19z" fill="#ad4e39"/><path d="M254.56 475.28c-.08.53-.14 1.02-.2 1.52l-.18 1.49a175.72 175.72 0 0 0-.77 8.94c-.13 2-.19 4.02-.17 6.07.01 2.06.08 4.12.55 6.47a3 3 0 0 0 1.18 1.82 3.31 3.31 0 0 0 4.2-.24c.55-.52.88-1.21.93-1.94l.03-.36.08-1.17.17-1.26.23-1.33c.08-.43.2-.88.28-1.32.4-1.78.87-3.58 1.4-5.4a141.28 141.28 0 0 1 2.62-8.1l.48-1.32c.16-.43.32-.9.48-1.3a5.3 5.3 0 0 0-.3-4.51 6.01 6.01 0 0 0-6.2-2.9 6.1 6.1 0 0 0-3.97 2.53 5.4 5.4 0 0 0-.84 2.17zm-21.43 1.54.92 5.75.95 5.73c.64 3.82 1.3 7.64 2 11.47a3.44 3.44 0 0 0 6.84-.62c0-3.84.04-7.68.1-11.53l.1-5.77.11-5.77v-.03a5.54 5.54 0 1 0-11.09-.23c0 .34.02.67.07 1z" fill="#ff8f6a"/><path d="m238.02 362.01-3.29-4.35c-1.1-1.45-2.2-2.91-3.28-4.37a371.18 371.18 0 0 1-6.39-8.78 137.2 137.2 0 0 1-5.78-8.83 44 44 0 0 1-2.27-4.29c-.28-.6-.52-1.22-.71-1.85a4.14 4.14 0 0 1-.13-.6v-.06c0-.03 0-.09.02-.14.03-.06.05-.25.07-.38l.23-.96c.18-.7.42-1.47.67-2.25.51-1.57 1.12-3.2 1.75-4.84a294.1 294.1 0 0 1 4.1-9.94l2.17-5c.72-1.67 1.46-3.33 2.2-5l2.2-5.01 1.1-2.51 1.08-2.49a6.2 6.2 0 0 0-11.12-5.44c-.47.85-.9 1.67-1.33 2.5l-1.27 2.5c-.84 1.67-1.65 3.36-2.46 5.04-.82 1.68-1.6 3.4-2.36 5.1a367.8 367.8 0 0 0-2.24 5.17 166.54 166.54 0 0 0-4.15 10.63 93.06 93.06 0 0 0-1.8 5.66c-.26.99-.53 2-.75 3.1-.12.55-.22 1.14-.31 1.76-.04.32-.09.63-.12 1l-.04.55-.02.3v.32a10.95 10.95 0 0 0 .27 2.77c.15.7.34 1.39.58 2.06.4 1.13.87 2.22 1.41 3.28a52.36 52.36 0 0 0 3.18 5.35 96.7 96.7 0 0 0 3.44 4.76 156.73 156.73 0 0 0 11.16 12.93c1.3 1.36 2.6 2.71 3.94 4.03l2.02 1.98c.68.65 1.35 1.29 2.07 1.95a4.19 4.19 0 0 0 6.17-5.63z" fill="#ad4e39"/><path d="m241.63 359.84.36.9.35.94.7 1.87 1.32 3.77c.45 1.26.85 2.52 1.27 3.79l1.24 3.8c.8 2.53 1.55 5.07 2.32 7.62.39 1.27.74 2.54 1.1 3.82l1.05 3.82 1.04 3.83c.34 1.27.65 2.55.97 3.82.64 2.55 1.22 5.1 1.79 7.65.57 2.54 1.06 5.08 1.52 7.58a124.47 124.47 0 0 1 1.05 7.2l.04.26.01.1v2.88c-.01 1.27-.08 2.58-.13 3.9-.12 2.61-.3 5.26-.53 7.9s-.5 5.27-.77 7.91l-.9 7.92a538.7 538.7 0 0 0-1.66 15.86c-.12 1.32-.21 2.65-.3 3.97-.1 1.33-.18 2.65-.27 4l-.11 1.98-.09 2-.09 2c-.02.17-.01.34.03.51.1.22.24.41.43.56.3.24.64.45 1 .62l.16.09.2.09.39.17.48.19.56.2c1.7.58 3.52.81 5.32.67l.6-.05.5-.06.43-.07.21-.04.19-.04c.39-.08.76-.2 1.13-.36.22-.1.41-.24.56-.43.09-.15.14-.32.16-.49l.47-1.95c.3-1.3.61-2.61.9-3.92.6-2.6 1.12-5.23 1.67-7.85 1.07-5.24 2-10.5 2.86-15.77.87-5.28 1.65-10.56 2.45-15.86l1.21-8 .6-4.08.14-1.05.14-1.09.06-.58.07-.61.01-.15v-.18l.03-.42.02-.41.02-.37a101.24 101.24 0 0 0 .02-6.71l-.07-2.12c-.1-2.82-.26-5.57-.44-8.31a600.9 600.9 0 0 0-1.32-16.26c-.5-5.4-1.06-10.75-1.65-16.1l-.92-8.03-.47-4.02-.5-4.05-.26-2.09a14.94 14.94 0 0 0-29.65 3.65c.17 1.26.5 2.5.98 3.68z" fill="#abbce9"/><mask id="z" x="313" y="355" width="27" height="130" mask-type="alpha" maskUnits="userSpaceOnUse"><path d="M313.51 369.6c.6 9.54 1.4 19.05 2.18 28.58l1.26 14.29c.2 2.38.44 4.77.66 7.15l.67 7.15c.9 9.52 1.86 19.04 2.87 28.56l1.52 14.28.8 7.14.39 3.56.2 1.79.04.44.03.23c0 .08.02.15.06.22.16.2.38.35.62.43.49.18 1 .31 1.51.39 2.76.44 5.58.34 8.3-.3a7.04 7.04 0 0 0 1.49-.49c.23-.1.43-.26.58-.47a.44.44 0 0 0 .04-.22v-.23l.02-.45.09-1.8.14-3.6.3-7.16.52-14.35c.32-9.57.63-19.13.87-28.7l.17-7.16c.06-2.39.12-4.77.16-7.17l.27-14.34c.11-9.56.24-19.12.18-28.67a12.98 12.98 0 1 0-25.95.17c-.01.23 0 .5.01.73z" fill="#556ebc"/></mask><g transform="translate(-91)" mask="url(#z)"><path d="M313.51 369.6c.6 9.54 1.4 19.05 2.18 28.58l1.26 14.29c.2 2.38.44 4.77.66 7.15l.67 7.15c.9 9.52 1.86 19.04 2.87 28.56l1.52 14.28.8 7.14.39 3.56.2 1.79.04.44.03.23c0 .08.02.15.06.22.16.2.38.35.62.43.49.18 1 .31 1.51.39 2.76.44 5.58.34 8.3-.3a7.04 7.04 0 0 0 1.49-.49c.23-.1.43-.26.58-.47a.44.44 0 0 0 .04-.22v-.23l.02-.45.09-1.8.14-3.6.3-7.16.52-14.35c.32-9.57.63-19.13.87-28.7l.17-7.16c.06-2.39.12-4.77.16-7.17l.27-14.34c.11-9.56.24-19.12.18-28.67a12.98 12.98 0 1 0-25.95.17c-.01.23 0 .5.01.73z" fill="#abbce9"/><path d="M321.44 367.44c-7.45 7.55-9.09 32.94-9.09 32.94s-3.97-32.33-4.15-32.94c-.18-.6 0-5.3 0-5.3l11.83-1.48z" fill="#7f87ab" opacity=".3"/></g><path d="M271.48 349.22c-1.46 4.3.8 11.26.93 15.5.13 4.23-22.45 6.09-28.54 6.42s-21.46-7.3-21.46-7.3-.8-3.65 3.18-17.49 45.89 2.87 45.89 2.87z" fill="#fff"/><mask id="A" x="293" y="272" width="86" height="80" mask-type="alpha" maskUnits="userSpaceOnUse"><path d="M300.97 301.26c3.56-10.83 9.64-20.9 13.76-23.52 7.94-7.86 31.27-7.47 45.93 1.4a10.9 10.9 0 0 1 3.74 3.77c3.25 4.5 6.43 12.26 8.06 18.32 2.78 10.33 5.65 30.9 5.65 30.9s-9.57.63-14.46 2.64a95.42 95.42 0 0 1-.36 4.2c-.93 7.95.11 12.72.11 12.72s-21.9-3.85-47.09-.4c-1.77.23-3.83.1-5.07-.48.8-7.12 1.64-10.8 1.33-21.94-.06-2.03-.32-4.7-.66-7.8l-.2.53-3.7 8.5c-1.16-.98 2.24 3.83.52 3.44-2.65-.58-9.04 6.29-11.21 6.14-1.18-.09-4.22-3.71-4.22-12.77.66-8.2 5.74-19.17 7.87-25.65z" fill="#bfb88a"/></mask><g transform="translate(-91)" mask="url(#A)"><path d="M300.97 301.26c3.56-10.83 9.64-20.9 13.76-23.52 7.94-7.86 31.27-7.47 45.93 1.4a10.9 10.9 0 0 1 3.74 3.77c3.25 4.5 6.43 12.26 8.06 18.32 2.78 10.33 5.65 30.9 5.65 30.9s-9.57.63-14.46 2.64a95.42 95.42 0 0 1-.36 4.2c-.93 7.95.11 12.72.11 12.72s-21.9-3.85-47.09-.4c-1.77.23-3.83.1-5.07-.48.8-7.12 1.64-10.8 1.33-21.94-.06-2.03-.32-4.7-.66-7.8l-.2.53-3.7 8.5c-1.16-.98 2.24 3.83.52 3.44-2.65-.58-9.04 6.29-11.21 6.14-1.18-.09-4.22-3.71-4.22-12.77.66-8.2 5.74-19.17 7.87-25.65z" fill="#ff6a6a"/><path d="M342.37 281.98c-4.95 4.68-11.2 4.77-15.8 3.62-4.6-1.15-15.81-1.85-19.25.27-3.45 2.11-1.66-13.72-1.66-13.72l8.96-4.74 20.6 3.18zm-19.8 68.92c-3.24-7.2-9.62-42.26-9.56-49.06-1.76 24.41-4.8 48.55-4.8 48.55l5.94 5.62z" fill="#7a0000" opacity=".25"/></g><path d="M252.98 494.69c1.03-.28 3.74.69 6.45 1.77.79.32 2-1.21 3.06-.9a29 29 0 0 1 7.9 3.97c.8.75 1.22 2.25 1.42 3.39.16.85-1.32 1.5-1.32 1.5H252.2a30.57 30.57 0 0 1-.67-4.13c-.17-3.24.3-5.3 1.44-5.6zm-9.35 0c-1.04-.28-3.75.69-6.45 1.77-.8.32-.6-.73-1.66-.43-3.17.92-5.24 2.86-5.95 3.5-.81.75-1.23 2.25-1.43 3.39-.15.85 1.33 1.5 1.33 1.5h14.93c.32-1.36.54-2.74.67-4.13.17-3.24-.3-5.3-1.44-5.6z" fill="#0e1b3e"/><path d="M204.84 342.33c.45 0 .9-.12 1.3-.34l13.48-7.57a2.65 2.65 0 0 0-2.6-4.62l-13.49 7.57a2.65 2.65 0 0 0 1.3 4.96z" fill="#f4f8fd"/><path d="M262.47 244.66c2.65 8.56-.46 18.78-2.52 20.95-2.38 2.51-4.5-.27-4.5-.27l-1.2-17.28z" fill="#ad4e39"/><path d="M262.6 239.75c-6.62-10.7-18.28-5.6-20.66-3.78s-6.7 10.1-6.27 14.7c-6.43 1.83-4.32 8.21-4.32 8.21s-6.84-.82-7 4.54c-3.6 2.87-5.56 6.38-.91 9.6.91 6.49 9.08 9.07 11.27 8.1.96 2.34 6.13 4.73 6.41 1.75 4.26 3.65 14.04 1.77 14.86-1.39.81-3.15-.88-6.7-.88-6.7s-1.33-3.45.17-3.98c1.5-.53 2.03.09 2.74-1.85.7-1.94-3.36-6.76-1.77-9.38 1.6-2.63 5.14-3.4 4.96-5.43-.18-2.03 1.59-5.05 2.73-7.57s-1.33-6.82-1.33-6.82z" fill="#000"/><path d="M135.56 254.18c4.8 0 8.68-5.43 8.68-12.13s-3.89-12.13-8.68-12.13-8.67 5.43-8.67 12.13 3.88 12.13 8.67 12.13z" fill="#ffb4ab"/><path d="M127.71 243.72c.66 1.77.63 3.4-.05 3.67-.7.26-1.78-.97-2.44-2.75-.66-1.78-.62-3.42.06-3.66 1.96-.76 1.77.97 2.43 2.74zm16.37 0c-.66 1.77-.63 3.4.05 3.67.69.26 1.78-.97 2.44-2.75.66-1.78.63-3.42-.05-3.66-1.95-.76-1.78.97-2.44 2.74z" fill="#ffb4ab"/><path d="M184.42 470.71c0 .38.04.83.07 1.25l.08 1.3a181.84 181.84 0 0 0 .73 7.73c.21 1.7.46 3.38.76 5.02.08.4.15.82.24 1.22l.27 1.17.3 1.1.31.98.14.44a3.32 3.32 0 0 1-5.88 2.95 33.72 33.72 0 0 1-3-5.3 92.55 92.55 0 0 1-2.25-5.18 174.29 174.29 0 0 1-2.87-7.81l-.44-1.32-.44-1.36-.05-.19a6.15 6.15 0 1 1 12.03-2zm-53.1 5.81c-.08.37-.17.81-.24 1.22l-.25 1.26a137.97 137.97 0 0 0-1.22 7.67c-.24 1.7-.4 3.4-.52 5.05-.03.41-.07.84-.08 1.24l-.04 1.21v1.15l.07 1.03.02.46a3.33 3.33 0 0 1-6.43 1.39 33.7 33.7 0 0 1-1.58-5.9 91.53 91.53 0 0 1-.87-5.58 153.27 153.27 0 0 1-.83-8.28l-.1-1.39-.08-1.42v-.2a6.15 6.15 0 1 1 12.3-.52c.01.54-.03 1.08-.15 1.61z" fill="#f19084"/><path d="M128.84 267.02a1.86 1.86 0 0 1-.03-.36l.03-.4c.02-.28.07-.55.1-.87l.15-1.9c.09-1.3.15-2.64.22-4l.19-4.11.1-2.12.07-1.11.04-.63.03-.4.04-.45a4.71 4.71 0 0 1 8.9-1.73l1.12 2.2.03.06a.2.2 0 0 1 .03.11l.07.4.17.94.37 1.99.73 4.09a142.21 142.21 0 0 1 .96 6.42 14.65 14.65 0 0 1 .11 1.82 6.7 6.7 0 0 1-13.26.98zm-16.72 68.43c1.95-.53 12.46 1.1 12.66 2.23.05.3-.34 1.12-.95 1.3-1.77.52-5.38.02-5.38.02s-1.8 5.8-2.05 7.43-1.91-1.97-1.91-1.97-4.95-1.35-6.5-3.98c-1.53-2.64.07-3.9 0-3.97-.09-.08 4.13-1.06 4.13-1.06z" fill="#ffb4ab"/><path d="M111.71 341.4a6.3 6.3 0 0 1-1.14-.36c-.3-.12-.53-.24-.75-.35a16.2 16.2 0 0 1-1.2-.66c-.72-.43-1.37-.87-2-1.3a78.45 78.45 0 0 1-3.63-2.71 140.2 140.2 0 0 1-13.19-11.85 84.45 84.45 0 0 1-3.12-3.37c-.5-.6-1.02-1.22-1.53-1.87a24.57 24.57 0 0 1-1.56-2.22 14.62 14.62 0 0 1-1.22-2.5c-.17-.5-.3-1.02-.37-1.55a9.3 9.3 0 0 1-.02-2.07l.04-.39.01-.1.02-.08.03-.15.12-.6c.14-.59.3-1.17.51-1.74a48.92 48.92 0 0 1 2.09-4.77c1.41-2.82 2.89-5.4 4.4-7.95a304.22 304.22 0 0 1 6.96-11.19l1.2-1.83 1.24-1.86a8.47 8.47 0 1 1 13.35 10.33l-.07.08-1.39 1.53-1.39 1.56a208.7 208.7 0 0 0-2.76 3.17c-1.83 2.11-3.63 4.24-5.37 6.38s-3.44 4.3-4.92 6.4a34.7 34.7 0 0 0-1.04 1.52l-.8 1.3c-.09.15-.16.3-.18.26v-.27c0-.04.02-.25 0-.4l-.01-.32-.04-.28a1.68 1.68 0 0 0-.14-.5c-.03-.06-.05-.05-.05-.02.02.15.07.3.13.43a23.1 23.1 0 0 0 1.64 3.02c.68 1.1 1.44 2.2 2.23 3.3a131.47 131.47 0 0 0 10.5 12.79c.93 1 1.89 1.98 2.84 2.9.49.44.95.88 1.4 1.25.22.2.44.36.62.5l.2.14c.03.03.03.04-.15 0a3.3 3.3 0 1 1-1.5 6.4zm56.78-16.36c-1.03 1.9-9.25-.05-10.04.86s-1.52 1.16-1.28 1.7c.24.55 4.5 1.04 4.99 1.04.49 0 1.92 3.03 2.36 4.48l1.45 4.68s.73-2.16 1.5-2.53c.78-.36 3.09-.67 4.98-3.16 1.88-2.5 1.28-7.06 1.28-7.06z" fill="#ffb4ab"/><path d="m166.19 270.85 1.55 1.4 1.53 1.39 3.02 2.8c2.01 1.87 4 3.77 6 5.7 1.98 1.95 3.94 3.9 5.9 6a80.27 80.27 0 0 1 2.98 3.35l.78.98a28.24 28.24 0 0 1 1.32 1.9 11.18 11.18 0 0 1 .73 1.45l.09.23.09.25.08.28.05.16.04.18c.15.6.2 1.22.17 1.85v.21l-.01.19c0 .13-.03.24-.04.34-.1.63-.25 1.25-.45 1.85a35.6 35.6 0 0 1-1.48 3.43 73.9 73.9 0 0 1-2.08 3.79 180.45 180.45 0 0 1-4.35 7.06c-2.96 4.6-6 9.1-9.11 13.57a3.17 3.17 0 0 1-5.44-3.22v-.03c2.37-4.77 4.7-9.63 6.87-14.48 1.09-2.44 2.14-4.87 3.1-7.27.47-1.2.92-2.4 1.3-3.54a21.64 21.64 0 0 0 .6-2.25c.02-.17 0-.3-.04-.13l-.02.1v.15a4.5 4.5 0 0 0 .1 1.1l.03.1.03.1.05.17.04.13.04.12.06.15c.06.15.07.19.06.2-.02 0-.06-.04-.11-.08l-.47-.4-.59-.5c-.84-.73-1.83-1.5-2.83-2.26a182.13 182.13 0 0 0-6.33-4.52 358.64 358.64 0 0 0-6.6-4.41l-3.34-2.17-1.68-1.07-1.66-1.04-.03-.02a8.37 8.37 0 1 1 10.05-13.29z" fill="#ffb4ab"/><path d="M164.57 350.82c.61 2.7 1.19 5.41 1.73 8.12l.82 4.08.77 4.07.78 4.09.73 4.08 1.46 8.18 1.46 8.18 1.4 8.19c.92 5.46 1.77 10.93 2.67 16.4.9 5.46 1.92 10.9 2.92 16.35 1 5.44 2.11 10.88 3.08 16.33.98 5.45 1.8 10.93 2.44 16.45.17 1.38.3 2.76.45 4.14l.21 2.07.18 2.08.19 2.08.15 2.09.15 2.09.07 1.04c0 .09-.09.2-.3.32l-.07.05-.1.05a.9.9 0 0 1-.22.11l-.24.12-.31.13-.36.13c-.1.05-.24.1-.41.15l-.97.33-1.33.39-.67.2-.89.24-.92.12-.7.07-1.38.14-1.03.07-.44.02h-.99c-.09 0-.18 0-.24-.02h-.11l-.1-.02c-.23-.04-.35-.1-.38-.2l-.32-.98-.64-2-.64-1.98-.6-2-.59-2c-.2-.67-.37-1.34-.56-2-.36-1.35-.74-2.69-1.07-4.03-.33-1.34-.69-2.68-1-4.04-.3-1.36-.63-2.7-.91-4.05-.6-2.7-1.11-5.42-1.66-8.14-1.08-5.43-2.06-10.88-3.2-16.3a287.28 287.28 0 0 0-3.9-16.15c-.37-1.34-.73-2.68-1.13-4.01l-.6-2-.63-2c-.85-2.65-1.76-5.29-2.75-7.92s-2.04-5.24-3.08-7.85l-1.6-3.92-1.57-3.93c-.52-1.31-1-2.63-1.5-3.94l-.75-1.97-.71-1.98c-.25-.65-.46-1.32-.7-1.98s-.46-1.32-.67-1.98l-1.3-3.98a154.22 154.22 0 0 1-4.27-16.08 13.69 13.69 0 0 1 26.76-5.7z" fill="url(#B)"/><path d="M148.96 353.7c-.83 5.5-1.59 10.99-2.36 16.48l-2.3 16.5c-.77 5.49-1.49 10.98-2.23 16.48l-1.1 8.25c-.19 1.37-.39 2.74-.55 4.12l-.51 4.12c-1.3 11-2.03 22.04-3.07 33.05-.53 5.5-1.2 11-2.08 16.5l-.16 1.03-.18 1.03-.35 2.05c-.23 1.38-.5 2.75-.77 4.12l-.4 2.05-.43 2.05-.44 2.06-.22 1.02c-.03.09-.17.17-.43.25-.16.04-.32.08-.48.1l-.3.05-.38.05-.2.02-.22.03-.23.02-.27.02-.56.03-.28.02-.3.02-1.54.05-.78.03-1.03.02h-.21c-.58 0-1.17-.03-1.74-.1l-.82-.1-.61-.1-1.22-.2c-.12 0-.16-.02-.25-.03l-.21-.05-.44-.08-.21-.05-.18-.04-.33-.08-.29-.08c-.1-.02-.15-.05-.24-.08a2.55 2.55 0 0 1-.38-.14c-.2-.1-.3-.19-.3-.28l-.02-1.04-.03-2.07-.03-2.08.02-2.07c0-1.38 0-2.77.04-4.14l.05-2.07.03-1.04.04-1.03c.2-5.53.6-11.04 1.1-16.56.98-11.02 2.12-22.03 2.42-33.08.15-5.52.2-11.05 0-16.6l-.06-2.07-.1-2.08-.2-4.16c-.17-2.78-.34-5.55-.53-8.33-.2-2.78-.37-5.55-.54-8.32-.1-1.4-.15-2.78-.22-4.16a196.1 196.1 0 0 1-.2-4.16c-.04-1.4-.1-2.77-.12-4.16-.03-1.39-.08-2.77-.06-4.14a34 34 0 0 1 1-8.25l1.22-4.42a14.21 14.21 0 0 1 27.77 5.82z" fill="url(#C)"/><path d="M146.32 238.78c0 6.7-5.97 12.13-10.76 12.13s-11.15-5.42-11.15-12.13 6.36-12.12 11.14-12.12c4.79 0 10.77 5.43 10.77 12.12z" fill="#6c352a"/><path d="M82.18 316.95c.65-2.11 5.03-3.17 9.82-1.78 4.79 1.38 10.63 7.22 10.63 7.22l-7.55-11.18-9.35-.51h-4.6z" fill="#cf7355" opacity=".13"/><mask id="D" x="169" y="260" width="118" height="105" mask-type="alpha" maskUnits="userSpaceOnUse"><path d="M279.28 288.61c-6.09-14.17-19.42-21.89-27.43-23.86-7.08-5.32-32.14-8.33-50.83 3.05-6.27 2.92-14.6 11.04-19.61 21.45-7.3 15.17-6.57 12.61-6.57 12.61s-2.68-1.87-4.26 2c-1.59 3.85-2.93 6.89 1.58 7.74s14.94 1.7 16.3.73c1.35-.97.74-5.5.74-5.5l10.25-11.47c4.77 12.88 14.37 33.63 14.37 34.44 0 1-8.96 14.1-6 23.19 20.81 25.8 48.28 1.7 48.28 1.7s2.85-3.96 2.65-8.2c-.29-6.07-3.68-13.4-3.87-16.36-.2-2.88 1.25-21.67 1.21-38.42 2.55 1.7 5.39 3.75 8.37 6.14-2.07.66-.85 4.7.98 6.2 1.82 1.49 19.8-3.05 21.01-4.97 1.22-1.92-1.81-12.2-7.17-10.47z" fill="#87b448"/></mask><g transform="translate(-91)" mask="url(#D)"><path d="M279.28 288.61c-6.09-14.17-19.42-21.89-27.43-23.86-7.08-5.32-32.14-8.33-50.83 3.05-6.27 2.92-14.6 11.04-19.61 21.45-7.3 15.17-6.57 12.61-6.57 12.61s-2.68-1.87-4.26 2c-1.59 3.85-2.93 6.89 1.58 7.74s14.94 1.7 16.3.73c1.35-.97.74-5.5.74-5.5l10.25-11.47c4.77 12.88 14.37 33.63 14.37 34.44 0 1-8.96 14.1-6 23.19 20.81 25.8 48.28 1.7 48.28 1.7s2.85-3.96 2.65-8.2c-.29-6.07-3.68-13.4-3.87-16.36-.2-2.88 1.25-21.67 1.21-38.42 2.55 1.7 5.39 3.75 8.37 6.14-2.07.66-.85 4.7.98 6.2 1.82 1.49 19.8-3.05 21.01-4.97 1.22-1.92-1.81-12.2-7.17-10.47z" fill="#abbce9"/><path d="M217.88 268.77c2.3 5.5 13.16 15.4 17.79 15.51 4.62.13 10.14-10.12 10.63-15.51.49-5.38 5.16-6.07 5.16-6.07l-6.99-6.45-22.68 8.97z" fill="url(#E)" opacity=".4"/><path d="M178.98 314.52c3.46-.32 7.19-8.63 5.24-10.08 4.7-1.6 11.64-8.81 13.45-13.73 2.99 8.08 2.94 11.9 2.94 11.9s-11.5 12.28-12.17 13.31-9.46-1.4-9.46-1.4z" fill="url(#F)" opacity=".4"/><path d="M252.18 291.8c-1.9 12.01-8.92 29.38-11.17 34.9-2.25 5.51 8.81 19.3 2.88 35.7 29.6 11.36 29.8-14.78 29.8-14.78s-15.52-34.46-14.67-35.16c.84-.7-1.82-19.66-1.82-19.66l-4.5-4.63c-.36-.35-.52 3.63-.52 3.63z" fill="url(#G)" opacity=".4"/></g><path d="M145.24 236c.8-6.03-.24-11.2-6.2-12.48s-14.25 3.29-16.32 7.12c-2.07 3.84-2.68 9.9-1.95 11.4.73 1.5 7 3.64 13.03 2 6.02-1.65 11.44-8.04 11.44-8.04z" fill="#6c352a"/><path d="M143.6 233.32c3.35-2.86 3.96 1.03 4.02 2.68.06 1.64-3.4 9.5-3.4 9.5z" fill="#6c352a"/><path d="M201.16 501.6v2.8h-22.72a6.58 6.58 0 0 1-1.08-4.66c.32-2.43.73-6.23 1.08-7.22.24-.67 1.9-1.6 2.34-1.9 1.17-.74 5.11-.48 6.9 1.5 1.44 1.6 2.85 1.04 2.85 1.04s2.68 2.83 4.12 3.14l2.86.98a4.51 4.51 0 0 1 3.65 4.32zm-60.86 0v2.8h-21.37a5.8 5.8 0 0 1-1.3-4.56c.32-2.43.83-6.29 1.17-7.27.25-.67.67-1.65 1.12-1.95 1.17-.74 5.11-.48 6.9 1.49 1.44 1.6 2.85 1.04 2.85 1.04s2.7 2.83 4.12 3.15l2.86.97a4.53 4.53 0 0 1 3.65 4.33z" fill="#0e1b3e"/><path d="M168.01 325.04c-1.03 1.9-8.77-.05-9.56.86s-1.52 1.16-1.28 1.7c.24.55 4.5 1.04 5 1.04.22 0 4.44.37 5.83-.45 1.66-.96.01-3.15.01-3.15zm-55.89 10.41c1.95-.53 12.46 1.1 12.66 2.23.05.3-.34 1.12-.95 1.3-1.77.52-5.38.02-5.38.02z" fill="#ffb4ab"/><path d="M122.18 263.88c-.12-3.9.24-10.17 3.77-9.22 3.53.94 9.01 2.6 14 2.26 5-.35 5.72-4.48 7.67-3.63 1.95.85 4.98 4.97 5.4 8.2.44 3.23-.96 16.51-8.79 17.6-7.82 1.1-22.05-15.21-22.05-15.21z" fill="#c5d5ff"/><defs><linearGradient id="e" x1="251.67" x2="251.67" y1="454.22" y2="363.93" gradientTransform="translate(-91)" gradientUnits="userSpaceOnUse"><stop stop-color="#12366B" stop-opacity="0" offset="0"/><stop stop-color="#143B76" offset="1"/></linearGradient><linearGradient id="f" x1="546.08" x2="546.08" y1="458.57" y2="368.28" gradientTransform="translate(-91)" gradientUnits="userSpaceOnUse"><stop stop-color="#12366B" stop-opacity="0" offset="0"/><stop stop-color="#143B76" offset="1"/></linearGradient><linearGradient id="g" x1="399.47" x2="399.47" y1="474.98" y2="374.86" gradientTransform="translate(-91)" gradientUnits="userSpaceOnUse"><stop stop-color="#12366B" stop-opacity="0" offset="0"/><stop stop-color="#143B76" offset="1"/></linearGradient><linearGradient id="h" x1="329.04" x2="347.5" y1="581.19" y2="464.57" gradientTransform="translate(-91)" gradientUnits="userSpaceOnUse"><stop stop-color="#2F548B" stop-opacity="0" offset="0"/><stop stop-color="#4A6691" offset="1"/></linearGradient><linearGradient id="i" x1="220.04" x2="238.5" y1="581.19" y2="464.57" gradientTransform="translate(-91)" gradientUnits="userSpaceOnUse"><stop stop-color="#2F548B" stop-opacity="0" offset="0"/><stop stop-color="#4A6691" offset="1"/></linearGradient><linearGradient id="j" x1="473.72" x2="455.26" y1="581.19" y2="464.57" gradientTransform="translate(-91)" gradientUnits="userSpaceOnUse"><stop stop-color="#2F548B" stop-opacity="0" offset="0"/><stop stop-color="#4A6691" offset="1"/></linearGradient><linearGradient id="k" x1="563.72" x2="545.26" y1="581.19" y2="464.57" gradientTransform="translate(-91)" gradientUnits="userSpaceOnUse"><stop stop-color="#2F548B" stop-opacity="0" offset="0"/><stop stop-color="#4A6691" offset="1"/></linearGradient><linearGradient id="n" x1="401.26" x2="443.38" y1="200.11" y2="273.31" gradientTransform="translate(-91)" gradientUnits="userSpaceOnUse"><stop stop-color="#0E2D5A" offset="0"/><stop stop-color="#34497E" offset="1"/></linearGradient><linearGradient id="p" x1="525.1" x2="578.96" y1="249.23" y2="342.84" gradientTransform="translate(-91)" gradientUnits="userSpaceOnUse"><stop stop-color="#0E2D5A" offset="0"/><stop stop-color="#34497E" offset="1"/></linearGradient><linearGradient id="t" x1="438.67" x2="429.95" y1="353.51" y2="274.38" gradientUnits="userSpaceOnUse"><stop stop-color="#121A30" stop-opacity="0" offset="0"/><stop stop-color="#1A3067" offset="1"/></linearGradient><linearGradient id="u" x1="457.53" x2="461.26" y1="291.34" y2="263.64" gradientTransform="translate(-91)" gradientUnits="userSpaceOnUse"><stop stop-color="#121A30" stop-opacity="0" offset="0"/><stop stop-color="#1A3067" offset="1"/></linearGradient><linearGradient id="w" x1="554.66" x2="531.29" y1="406.37" y2="306.38" gradientUnits="userSpaceOnUse"><stop stop-color="#545500" stop-opacity="0" offset="0"/><stop stop-color="#405000" offset="1"/></linearGradient><linearGradient id="B" x1="248.44" x2="343.78" y1="284.66" y2="419.15" gradientTransform="translate(-91)" gradientUnits="userSpaceOnUse"><stop stop-color="#0E2D5A" offset="0"/><stop stop-color="#34497E" offset="1"/></linearGradient><linearGradient id="C" x1="224.24" x2="307" y1="319.45" y2="397.11" gradientTransform="translate(-91)" gradientUnits="userSpaceOnUse"><stop stop-color="#0E2D5A" offset="0"/><stop stop-color="#34497E" offset="1"/></linearGradient><linearGradient id="E" x1="227.26" x2="228.22" y1="288.13" y2="264.69" gradientUnits="userSpaceOnUse"><stop stop-color="#474C69" stop-opacity="0" offset="0"/><stop stop-color="#474C69" offset="1"/></linearGradient><linearGradient id="F" x1="185.02" x2="186.25" y1="319.67" y2="298.41" gradientUnits="userSpaceOnUse"><stop stop-color="#474C69" stop-opacity="0" offset="0"/><stop stop-color="#474C69" offset="1"/></linearGradient><linearGradient id="G" x1="249.91" x2="257.2" y1="375.83" y2="312.08" gradientUnits="userSpaceOnUse"><stop stop-color="#474C69" stop-opacity="0" offset="0"/><stop stop-color="#474C69" offset="1"/></linearGradient></defs></svg>