<svg width="375" height="300" fill="none" xmlns="http://www.w3.org/2000/svg"><mask id="a" mask-type="alpha" maskUnits="userSpaceOnUse" x="0" y="0" width="375" height="300"><path fill="#C4C4C4" d="M0 0h375v300H0z"/></mask><g mask="url(#a)"><path d="M267.62 81.88a.27.27 0 0 1 .36-.36c1.64 1.04 5.28 3.41 5.52 3.61.32.28.84 3.2.84 3.2s2.56-.23 2.88.33l.44.32-.52.12s-1.28.48-1.72.6c-.48.12-2.16 1.13-5.36 1.33l-2.32 1.04s-.6-1.2-.48-2.77l2.64-.04.64-.12s-.08-2.73-.2-3c-.04-.13-1.84-2.81-2.72-4.26z" fill="url(#b)"/><path d="M235.75 82.72s-.04 1.33-.12 1.6c-.08.2-.84 1.41-1.32 2.17-.12.16.08.4.28.28 1.04-.52 2.88-1.56 3.4-2.16.68-.84 1.52-2.65 1.52-2.65s1.64-.32 1.76-.72l.68-.2s-.6-.32-.64-.36c-.04-.04-.44-.72-2.12-.32 0 0-.88-3.17-1.28-3.5a32.04 32.04 0 0 0-5.8-2.28c-.2-.04-.36.2-.2.32.96 1.13 3.24 3.73 3.4 4.01.2.36.32 1.57.32 1.57s-1.72.48-1.96.48c-.2.04-2.2-.52-2.2-.52s-.64 1.88.4 3.6l2-1.28 1.88-.04z" fill="url(#c)"/><path d="M216.12 99.77s-1.44.2-2.36.28c0 0 .12 1.77 1.16 2.6 0 0 1.36-1.52 1.92-1.72 0 0 1.08 1 1.12 1.13.04.08.28 3.05.4 4.25 0 .16.24.24.32.08.56-.92 1.84-3.01 1.92-4.17.12-1.53-.52-2.33-.52-2.33s1.24-.52 1.32-1.12l.8-.44-.92-.12s-.6-.4-2 .2c0 0 0-1.13-.28-1.13-.32.04-2.36 1.05-2.88 2.49z" fill="url(#d)"/><path d="M-52.5 85.22h115s-9.53-14.89-39.24-10.7C-6.45 78.7-35.6 62.05-52.51 63.32v21.9zm194.84-49.01s8.75-7.8 16.81-8.12c8.07-.3 8.72 1.61 15.98-2.42 7.27-4.03 11.18-7.29 20.11-2.56 12.95 6.86 17.31 0 33.1 13.1h-86z" fill="#fff"/><path opacity=".5" d="M63.45 171.95-1 217.37v7.1h377.41V69.52L337.1 99.05a79.56 79.56 0 0 1-71.36 12.36 79.56 79.56 0 0 0-80.47 20.34l-9.75 9.97a67.42 67.42 0 0 1-60.71 19.1 67.42 67.42 0 0 0-51.35 11.13z" fill="#C1DCF3"/><path d="M404.1 71.27H276.23s26.13-2.87 40.62-9.04c14.5-6.17 19.98-15.85 31.64-10.13 11.66 5.72 33 13.87 55.6 4.63v14.54z" fill="#fff"/><path opacity=".5" d="M34.44 200.81-1 213.72v27.82h376.75v-85.79l-2.52-.95a100 100 0 0 0-79.17 3.61l-20.43 9.95a98.92 98.92 0 0 1-60.49 8.48 98.92 98.92 0 0 0-53.48 5.39l-21.13 8.33a100 100 0 0 1-51.11 5.92l-4.37-.63a100 100 0 0 0-48.6 4.97z" fill="#5EBB89"/><path d="m137.1 206.6-72.87 36.93h311.1v-56.34l-35.76-4.04a100 100 0 0 0-43.9 4.85l-26.26 9.07a100.01 100.01 0 0 1-51.28 3.73l-17.18-3.26a100 100 0 0 0-63.84 9.05z" fill="#5EBB89"/><path d="m185.4 185.04-3.22 13.97L199 210.4h49.76l72.83-20.28-4.95-17.92-3.91 14.56-17.1 2.69-3.71-13.25-3.1 13.25-5.35 2.82-6.6-22.46-4.94 27.31-15.77 6.3-5.25-20.3-2.15 18.98-3.7-12.65-1.3 12.65-9.44 2.5-3.1-18.02-3.7 18.03h-10.98l-3.58-13.85-2.87 12.9-15.87-2.51-2.39-10.39-2.62 8.24-3.82-13.97z" fill="#5EBB89"/><path d="M-1.5 212.16c123.56-2.72 304.36 18.55 379.32 29.53v48.83H-1.5v-78.36z" fill="#7DAA41"/><path d="m54.24 195.82 6 19.3-10.7-.25-.06.25-.06-.25-50.05-1.13 8.42-28.71 5.48 28.71h5.3l5.91-15.84 4.89 15.84h12.62l3.84-13.72 3.6 14.85h.11l4.7-19.05z" fill="#7DAA41"/><path d="M110.65 146.58h1.92l1.23 71.28h-4.52l1.37-71.28z" fill="#fff"/><mask id="e" mask-type="alpha" maskUnits="userSpaceOnUse" x="111" y="126" width="4" height="20"><path d="m111.6 126.45 1.04 19.24h1.34c.64-7.87-.83-15.42-2.37-19.24z" fill="#B4D1F2"/></mask><g mask="url(#e)"><path d="m111.6 126.45 1.04 19.24h1.34c.64-7.87-.83-15.42-2.37-19.24z" fill="#A9CAF0"/><path d="M111.6 132.4c1.18 3.67 2.07 10.68 2.51 13.38h-1.61l-.9-13.38z" fill="#fff"/></g><mask id="f" mask-type="alpha" maskUnits="userSpaceOnUse" x="112" y="146" width="7" height="12"><path d="M118.07 157.96c.33-3-2.56-9.05-4.05-11.7h-1.18l5.23 11.7z" fill="#5D8931"/></mask><g mask="url(#f)"><path d="M118.07 157.96c.33-3-2.56-9.05-4.05-11.7h-1.18l5.23 11.7z" fill="#A9CAF0"/><path d="M113.72 146.38c1.18 2.4 3.4 8.77 4.38 11.66l-5.38-11.66h1z" fill="#fff"/></g><rect x="108.1" y="145.29" width="6.88" height="1.55" rx=".78" fill="#fff"/><path d="M109.49 154.05c.96 0 3.15-5.17 4.13-7.76h-1.23c-1.38 2.65-3.86 7.76-2.9 7.76z" fill="#A9CAF0"/><path d="M94.42 214.03h-23.9l7.54 14.04h23.88l-7.52-14.04z" stroke="#fff" stroke-width=".8" stroke-linecap="round" stroke-linejoin="round"/><mask id="g" mask-type="alpha" maskUnits="userSpaceOnUse" x="61" y="213" width="35" height="16"><path d="M69.36 213.43h25.81l-8.13 15.16h-25.8l8.12-15.16z" fill="#E2F0FC"/></mask><g mask="url(#g)" stroke="#fff"><path d="M69.36 213.43h25.81l-8.13 15.16h-25.8l8.12-15.16z" fill="#4E8AFF"/><path d="m90.37 212.09-10.43 18.4m-13.82-11.86h28.62m-31.67 5.38h28.62m-8.43-11.92-10.44 18.4m3.32-18.4-10.43 18.4" opacity=".5" stroke-width=".6"/></g><path d="M124.91 214.03h-23.89l7.53 14.04h23.89l-7.53-14.04z" stroke="#fff" stroke-width=".8" stroke-linecap="round" stroke-linejoin="round"/><mask id="h" mask-type="alpha" maskUnits="userSpaceOnUse" x="91" y="213" width="35" height="16"><path d="M99.86 213.43h25.8l-8.13 15.16h-25.8l8.13-15.16z" fill="#E2F0FC"/></mask><g mask="url(#h)" stroke="#fff"><path d="M99.86 213.43h25.8l-8.13 15.16h-25.8l8.13-15.16z" fill="#4E8AFF"/><path d="m120.87 212.09-10.44 18.4m-13.82-11.86h28.62m-31.67 5.38h28.63m-8.44-11.92-10.43 18.4m3.32-18.4-10.44 18.4" opacity=".5" stroke-width=".6"/></g><path d="M155.4 214.03h-23.88l7.53 14.04h23.88l-7.52-14.04z" stroke="#fff" stroke-width=".8" stroke-linecap="round" stroke-linejoin="round"/><mask id="i" mask-type="alpha" maskUnits="userSpaceOnUse" x="122" y="213" width="35" height="16"><path d="M130.35 213.43h25.81l-8.13 15.16h-25.8l8.12-15.16z" fill="#E2F0FC"/></mask><g mask="url(#i)" stroke="#fff"><path d="M130.35 213.43h25.81l-8.13 15.16h-25.8l8.12-15.16z" fill="#4E8AFF"/><path d="m151.36 212.09-10.43 18.4m-13.82-11.86h28.62m-31.67 5.38h28.62m-8.43-11.92-10.44 18.4m3.32-18.4-10.43 18.4" opacity=".5" stroke-width=".6"/></g><path d="M76.12 228.26H52.23l7.53 14.04h23.89l-7.53-14.04z" stroke="#fff" stroke-width=".8" stroke-linecap="round" stroke-linejoin="round"/><mask id="j" mask-type="alpha" maskUnits="userSpaceOnUse" x="42" y="227" width="35" height="16"><path d="M51.07 227.66h25.8l-8.13 15.16h-25.8l8.13-15.16z" fill="#E2F0FC"/></mask><g mask="url(#j)" stroke="#fff"><path d="M51.07 227.66h25.8l-8.13 15.16h-25.8l8.13-15.16z" fill="#4E8AFF"/><path d="m72.07 226.32-10.43 18.4m-13.82-11.86h28.62m-31.67 5.38H73.4m-8.44-11.92-10.43 18.4m3.31-18.4-10.43 18.4" opacity=".5" stroke-width=".6"/></g><path d="M107.63 228.26H83.74l7.53 14.04h23.89l-7.53-14.04z" stroke="#fff" stroke-width=".8" stroke-linecap="round" stroke-linejoin="round"/><mask id="k" mask-type="alpha" maskUnits="userSpaceOnUse" x="74" y="227" width="35" height="16"><path d="M82.58 227.66h25.8l-8.13 15.16h-25.8l8.13-15.16z" fill="#E2F0FC"/></mask><g mask="url(#k)" stroke="#fff"><path d="M82.58 227.66h25.8l-8.13 15.16h-25.8l8.13-15.16z" fill="#4E8AFF"/><path d="m103.58 226.32-10.43 18.4m-13.82-11.86h28.62m-31.67 5.38h28.62m-8.43-11.92-10.43 18.4m3.31-18.4-10.43 18.4" opacity=".5" stroke-width=".6"/></g><path d="M139.14 228.16h-23.88l7.52 14.14h23.89l-7.53-14.14z" stroke="#fff" stroke-width=".8" stroke-linecap="round" stroke-linejoin="round"/><mask id="l" mask-type="alpha" maskUnits="userSpaceOnUse" x="105" y="227" width="35" height="16"><path d="M114.1 227.66h25.8l-8.13 15.16h-25.81l8.13-15.16z" fill="#E2F0FC"/></mask><g mask="url(#l)" stroke="#fff"><path d="M114.1 227.66h25.8l-8.13 15.16h-25.81l8.13-15.16z" fill="#4E8AFF"/><path d="m134.36 226.32-10.44 18.4m-13.08-11.86h28.63m-31.67 5.38h28.62m-8.44-11.92-10.43 18.4m3.32-18.4-10.44 18.4" opacity=".5" stroke-width=".6"/></g><path d="M164.12 75.34h6.13l3 189.18h-12.13l3-189.18z" fill="#fff"/><mask id="m" mask-type="alpha" maskUnits="userSpaceOnUse" x="166" y="10" width="9" height="63"><path d="m166.57 10.45 3.35 62.01h4.3c0-24.58-2.06-47.26-7.65-62z" fill="#BAD4F1"/></mask><g mask="url(#m)"><path d="m166.57 10.45 3.35 62.01h4.3c0-24.58-2.06-47.26-7.65-62z" fill="#BAD4F1"/><path d="M166.53 29.63c3.84 11.81 6.7 34.41 8.13 43.1h-5.21l-2.92-43.1z" fill="#fff"/></g><mask id="n" mask-type="alpha" maskUnits="userSpaceOnUse" x="170" y="74" width="18" height="39"><path d="M187.42 112.02c1.06-9.66-8.27-29.17-13.07-37.72h-3.8l16.87 37.72z" fill="#5D8931"/></mask><g mask="url(#n)"><path d="M187.42 112.02c1.06-9.66-8.27-29.17-13.07-37.72h-3.8l16.87 37.72z" fill="#BAD4F1"/><path d="M173.39 74.69c3.8 7.73 10.99 28.26 14.1 37.57l-17.32-37.57h3.22z" fill="#fff"/></g><rect x="155.27" y="71.16" width="22.17" height="5" rx="2.5" fill="#fff"/><path d="M158.58 102.42c3.46 0 11.38-18.68 14.9-28.03h-4.41c-5.01 9.56-13.96 28.03-10.5 28.03z" fill="#BAD4F1"/><path d="M35.11 109.72h3.57l2.82 132.55h-9.05l2.66-132.56z" fill="#fff"/><mask id="o" mask-type="alpha" maskUnits="userSpaceOnUse" x="37" y="69" width="5" height="39"><path d="m37.11 69.45 2.08 38.48h2.67c.41-11.66-3.07-30.5-4.75-38.48z" fill="#5D8931"/></mask><g mask="url(#o)"><path d="m37.11 69.45 2.08 38.48h2.67c.41-11.66-3.07-30.5-4.75-38.48z" fill="#BAD4F1"/><path d="M37.09 81.35c2.37 7.33 4.15 21.36 5.04 26.75h-3.24l-1.8-26.75z" fill="#fff"/></g><mask id="p" mask-type="alpha" maskUnits="userSpaceOnUse" x="39" y="109" width="12" height="24"><path d="M50.05 132.47c.65-6-5.14-18.1-8.11-23.4h-2.36l10.47 23.4z" fill="#5D8931"/></mask><g mask="url(#p)"><path d="M50.05 132.47c.65-6-5.14-18.1-8.11-23.4h-2.36l10.47 23.4z" fill="#BAD4F1"/><path d="M41.34 109.3c2.36 4.8 6.82 17.55 8.76 23.32L39.34 109.3h2z" fill="#fff"/></g><rect x="30.1" y="107.12" width="13.76" height="3.1" rx="1.55" fill="#fff"/><path d="M32.88 124.64c1.92 0 6.3-10.34 8.25-15.51H38.7c-2.77 5.29-7.73 15.51-5.8 15.51z" fill="#BAD4F1"/><path d="M226.96 124.66h3.14l3.52 118.05h-10.04l3.38-118.05z" fill="#fff"/><mask id="q" mask-type="alpha" maskUnits="userSpaceOnUse" x="228" y="92" width="5" height="32"><path d="m228.71 92.45 1.66 30.78h2.14c.74-14.15-1.2-24.85-3.8-30.78z" fill="#96BD61"/></mask><g mask="url(#q)"><path d="m228.71 92.45 1.66 30.78h2.14c.74-14.15-1.2-24.85-3.8-30.78z" fill="#A9CAF0"/><path d="M228.69 101.97c1.9 5.87 3.32 17.09 4.03 21.4h-2.59l-1.44-21.4z" fill="#fff"/></g><mask id="r" mask-type="alpha" maskUnits="userSpaceOnUse" x="230" y="124" width="10" height="19"><path d="M239.06 142.87c.52-4.8-4.11-14.48-6.5-18.72h-1.88l8.38 18.72z" fill="#5D8931"/></mask><g mask="url(#r)"><path d="M239.06 142.87c.52-4.8-4.11-14.48-6.5-18.72h-1.88l8.38 18.72z" fill="#A9CAF0"/><path d="M232.1 124.34c1.88 3.84 5.45 14.03 7 18.65l-8.6-18.65h1.6z" fill="#fff"/></g><rect x="223.1" y="122.59" width="11.01" height="2.48" rx="1.24" fill="#fff"/><path d="M225.32 136.6c1.54 0 5.05-8.27 6.6-12.4h-1.95c-2.22 4.22-6.18 12.4-4.65 12.4z" fill="#A9CAF0"/><path d="M333.44 121.64h2.94l2.3 114.8h-7.53l2.29-114.8z" fill="#fff"/><mask id="s" mask-type="alpha" maskUnits="userSpaceOnUse" x="335" y="93" width="4" height="28"><path d="m335.01 93.45 1.45 26.94h1.87c.94-10.37 0-20.36-3.32-26.94z" fill="#96BD61"/></mask><g mask="url(#s)"><path d="m335.01 93.45 1.45 26.94h1.87c.94-10.37 0-20.36-3.32-26.94z" fill="#B4D1F2"/><path d="M334.99 101.78c1.67 5.13 2.91 14.95 3.53 18.73h-2.26l-1.27-18.73z" fill="#fff"/></g><mask id="t" mask-type="alpha" maskUnits="userSpaceOnUse" x="336" y="121" width="9" height="17"><path d="M344.06 137.57c.33-6.69-2.96-12.63-5.67-16.38h-1.66l7.33 16.38z" fill="#96BD61"/></mask><g mask="url(#t)"><path d="M344.06 137.57c.33-6.69-2.96-12.63-5.67-16.38h-1.66l7.33 16.38z" fill="#B4D1F2"/><path d="M337.97 121.35c1.65 3.36 4.77 12.28 6.13 16.32l-7.53-16.32h1.4z" fill="#fff"/></g><rect x="330.1" y="119.82" width="9.63" height="2.17" rx="1.09" fill="#fff"/><path d="M332.05 132.09c1.34 0 4.4-7.24 5.77-10.86h-1.7c-1.95 3.7-5.42 10.86-4.07 10.86z" fill="#B4D1F2"/><path d="M283.3 143.58h2.29l1.62 86.28h-5.4l1.49-86.28z" fill="#fff"/><mask id="u" mask-type="alpha" maskUnits="userSpaceOnUse" x="284" y="123" width="4" height="20"><path d="m284.6 123.45 1.04 19.24h1.34c.98-8.92-.4-14.74-2.37-19.24z" fill="#B4D1F2"/></mask><g mask="url(#u)"><path d="m284.6 123.45 1.04 19.24h1.34c.98-8.92-.4-14.74-2.37-19.24z" fill="#A9CAF0"/><path d="M284.6 129.4c1.18 3.67 2.07 10.68 2.51 13.38h-1.61l-.9-13.38z" fill="#fff"/></g><mask id="v" mask-type="alpha" maskUnits="userSpaceOnUse" x="285" y="143" width="7" height="12"><path d="M291.07 154.96c.33-4.05-1.72-9.02-4.05-11.7h-1.18l5.23 11.7z" fill="#B4D1F2"/></mask><g mask="url(#v)"><path d="M291.07 154.96c.33-4.05-1.72-9.02-4.05-11.7h-1.18l5.23 11.7z" fill="#A9CAF0"/><path d="M286.72 143.38c1.18 2.4 3.41 8.77 4.38 11.66l-5.38-11.66h1z" fill="#fff"/></g><rect x="281.1" y="142.29" width="6.88" height="1.55" rx=".78" fill="#fff"/><path d="M282.49 151.05c.96 0 3.15-5.18 4.13-7.76h-1.23c-1.38 2.64-3.86 7.76-2.9 7.76z" fill="#A9CAF0"/><path d="M-4.85 274.4c84.18-16.68 291.04-27.17 383.95-30.33v56.45H-4.85v-26.11z" fill="#96BD61"/><path d="M185.95 278.9c2.89 6.66 4.12 23.8 4.38 31.53l.24.51c3.87-17.52-1.03-27.25-4.62-32.03z" fill="#B55401"/><path d="M178.04 264.94c2.47 4.55 4.4 16.65 5.07 22.13l.2.35c1.66-12.7-2.42-19.3-5.27-22.48z" fill="#FFC226"/><path d="M167.45 247.83c2.86 4.31 5.84 16.2 6.98 21.6l.23.33c.55-12.8-4.1-19.02-7.2-21.93zm-10.25-5.6c2.87 3.02 6.9 12.02 8.55 16.14l.23.24c-1.35-10.22-5.9-14.5-8.78-16.38zm16.16 43.66c4.16 7.38 11.35 13.05 14.43 14.96l.27.95c-11.07-.94-14.41-11-14.7-15.91zm-9.68-16.36c6.14 6.43 12.68 8.98 15.18 9.45l.32.73c-9.12 2.05-14.14-5.93-15.5-10.18z" fill="#B55401"/><path d="M157.72 257.2a18.87 18.87 0 0 0 11.68 6.07l.55.74c-7.57 2.27-11.3-3.59-12.22-6.8z" fill="#FFC226"/><path d="M163.49 256.2c7.14 6.7 23 29.25 29.35 65.86" stroke="#833C00" stroke-width=".8" stroke-linecap="round" stroke-linejoin="round"/><path d="M123.82 282.34c2.89 6.65 4.12 23.78 4.38 31.52l.24.51c3.87-17.52-1.03-27.25-4.62-32.03zm-7.91-13.97c2.47 4.55 4.4 16.65 5.07 22.13l.2.35c1.66-12.7-2.42-19.3-5.27-22.48z" fill="#B55401"/><path d="M105.32 251.26c2.86 4.31 5.85 16.2 6.98 21.6l.23.33c.55-12.79-4.1-19.02-7.2-21.93z" fill="#FFC226"/><path d="M95.07 245.66c2.87 3.03 6.9 12.02 8.55 16.15l.23.23c-1.35-10.22-5.9-14.5-8.78-16.38z" fill="#B55401"/><path d="M111.23 289.32c4.16 7.38 11.35 13.05 14.43 14.96l.27.95c-11.07-.94-14.4-11-14.7-15.91z" fill="#FFC226"/><path d="M101.55 272.96c6.14 6.43 12.68 8.98 15.18 9.45l.33.73c-9.13 2.05-14.14-5.93-15.52-10.18zm-5.95-12.33a18.86 18.86 0 0 0 11.67 6.07l.55.74c-7.57 2.28-11.3-3.59-12.22-6.8z" fill="#B55401"/><path d="M101.36 259.63c7.14 6.7 23 29.25 29.36 65.86" stroke="#833C00" stroke-width=".8" stroke-linecap="round" stroke-linejoin="round"/><path d="M172.98 297.5c2.45 5.64 3.5 20.16 3.71 26.71l.2.44c3.29-14.85-.87-23.1-3.9-27.15zm-6.7-11.83c2.1 3.85 3.74 14.1 4.3 18.75l.17.3c1.4-10.76-2.06-16.36-4.47-19.05zm-8.97-14.5c2.42 3.65 4.95 13.72 5.91 18.3l.2.28c.47-10.84-3.47-16.11-6.1-18.58zm-8.69-4.74c2.43 2.56 5.84 10.18 7.25 13.68l.2.2c-1.15-8.66-5.01-12.3-7.45-13.88z" fill="#B55401"/><path d="M154.1 289.56c5.21 5.45 10.75 7.6 12.87 8l.28.63c-7.73 1.73-11.98-5.03-13.14-8.63z" fill="#FFC226"/><path d="M149.07 279.11a15.99 15.99 0 0 0 9.89 5.14l.47.63c-6.42 1.93-9.58-3.04-10.36-5.77z" fill="#B55401"/><path d="M153.95 278.26c6.05 5.68 19.5 24.79 24.88 55.8" stroke="#833C00" stroke-width=".8" stroke-linecap="round" stroke-linejoin="round"/><path d="M149.06 287.48c2.9 6.66 4.13 23.79 4.38 31.52l.24.52c3.87-17.52-1.03-27.25-4.62-32.04zm-7.91-13.96c2.47 4.55 4.41 16.65 5.07 22.13l.2.35c1.67-12.7-2.42-19.3-5.27-22.48zm-10.58-17.12c2.85 4.32 5.84 16.2 6.98 21.6l.23.34c.55-12.8-4.1-19.02-7.21-21.94zm-10.26-5.6c2.87 3.03 6.9 12.03 8.56 16.15l.22.23c-1.35-10.21-5.9-14.5-8.78-16.37zm16.17 43.66c4.16 7.39 11.35 13.05 14.42 14.97l.28.94c-11.08-.93-14.42-11-14.7-15.9z" fill="#B55401"/><path d="M126.79 278.11c6.14 6.43 12.68 8.97 15.18 9.45l.33.73c-9.12 2.05-14.14-5.93-15.51-10.18z" fill="#FFC226"/><path d="M120.84 265.78a18.87 18.87 0 0 0 11.67 6.07l.55.73c-7.57 2.28-11.3-3.58-12.22-6.8z" fill="#B55401"/><path d="M126.6 264.77c7.14 6.7 23.01 29.26 29.36 65.87" stroke="#833C00" stroke-width=".8" stroke-linecap="round" stroke-linejoin="round"/><path d="M331.2 280.76c2.89 6.65 4.12 23.79 4.38 31.52l.24.52c3.87-17.53-1.03-27.26-4.62-32.04zm-7.91-13.96c2.47 4.54 4.4 16.64 5.07 22.12l.2.35c1.66-12.7-2.43-19.3-5.27-22.48zm-10.58-16.31c2.86 4.31 5.84 16.2 6.98 21.6l.23.33c.55-12.8-4.1-19.02-7.2-21.93zm-10.26-6.41c2.87 3.03 6.9 12.03 8.55 16.15l.23.23c.72-10.83-5.9-14.5-8.78-16.38zm16.16 43.66c4.16 7.38 11.35 13.05 14.43 14.96l.27.95c-11.07-.94-14.41-11-14.7-15.91zm-9.69-16.35c6.15 6.42 12.69 8.97 15.19 9.44l.32.74c-9.12 2.04-14.14-5.94-15.5-10.18z" fill="#B55401"/><path d="M302.97 259.06a18.87 18.87 0 0 0 11.68 6.06l.55.74c-7.58 2.28-11.3-3.59-12.23-6.8z" fill="#FFC226"/><path d="M308.73 258.05c7.15 6.7 23.02 29.25 29.36 65.86" stroke="#833C00" stroke-width=".8" stroke-linecap="round" stroke-linejoin="round"/><path d="M265.37 282.34c2.88 6.65 4.12 23.78 4.37 31.52l.24.51c3.87-17.52-1.03-27.25-4.62-32.03zm-7.92-13.97c2.47 4.55 4.41 16.65 5.07 22.13l.2.35c1.67-12.7-2.42-19.3-5.27-22.48z" fill="#B55401"/><path d="M246.87 251.26c2.85 4.31 5.84 16.2 6.98 21.6l.23.33c.55-12.79-4.1-19.02-7.21-21.93z" fill="#FFC226"/><path d="M236.62 245.66c2.86 3.03 6.89 12.02 8.54 16.15l.24.23c-1.36-10.22-5.91-14.5-8.78-16.38z" fill="#B55401"/><path d="M252.78 289.32c4.16 7.38 11.35 13.05 14.42 14.96l.28.95c-11.08-.94-14.42-11-14.7-15.91z" fill="#FFC226"/><path d="M243.09 272.96c6.14 6.43 12.68 8.98 15.18 9.45l.33.73c-9.12 2.05-14.14-5.93-15.51-10.18zm-5.95-12.33a18.86 18.86 0 0 0 11.67 6.07l.55.74c-7.57 2.28-11.3-3.59-12.22-6.8z" fill="#B55401"/><path d="M242.9 259.63c7.14 6.7 23.01 29.25 29.36 65.86" stroke="#833C00" stroke-width=".8" stroke-linecap="round" stroke-linejoin="round"/><path d="M314.53 297.5c2.45 5.64 3.49 20.16 3.7 26.71l.2.44c3.29-14.85-.87-23.1-3.9-27.15z" fill="#5D8931"/><path d="M307.82 285.67c2.1 3.85 3.74 14.1 4.3 18.75l.17.3c1.41-10.76-2.06-16.36-4.47-19.05z" fill="#FFC226"/><path d="M298.85 271.17c2.42 3.65 4.95 13.72 5.92 18.3l.2.28c.46-10.84-3.48-16.11-6.12-18.58zm-8.68-4.74c2.43 2.56 5.84 10.18 7.24 13.68l.2.2c-1.15-8.66-5-12.3-7.44-13.88z" fill="#B55401"/><path d="M295.65 289.56c5.2 5.45 10.75 7.6 12.87 8l.27.63c-7.72 1.73-11.98-5.03-13.14-8.63z" fill="#CE6F18"/><path d="M290.61 279.11a15.99 15.99 0 0 0 9.89 5.14l.47.63c-6.42 1.93-9.58-3.04-10.36-5.77z" fill="#FFC226"/><path d="M295.5 278.26c6.04 5.68 19.5 24.79 24.87 55.8" stroke="#833C00" stroke-width=".8" stroke-linecap="round" stroke-linejoin="round"/><path d="M290.6 287.48c2.9 6.66 4.13 23.79 4.38 31.52l.24.52c3.88-17.52-1.03-27.25-4.61-32.04zm-7.9-13.96c2.46 4.55 4.4 16.65 5.07 22.13l.2.35c1.66-12.7-2.43-19.3-5.27-22.48z" fill="#B55401"/><path d="M272.1 256.4c2.86 4.32 5.85 16.2 6.99 21.6l.23.34c.55-12.8-4.1-19.02-7.21-21.94z" fill="#FFC226"/><path d="M261.86 250.8c2.86 3.03 6.9 12.03 8.55 16.15l.23.23c0-10.85-5.9-14.5-8.78-16.37zm16.16 43.66c4.16 7.39 11.35 13.05 14.42 14.97l.28.94c-11.07-.93-14.41-11-14.7-15.9z" fill="#B55401"/><path d="M268.33 278.11c6.14 6.43 12.68 8.97 15.18 9.45l.33.73c-9.12 2.05-14.14-5.93-15.5-10.18z" fill="#FFC226"/><path d="M262.38 265.78a18.87 18.87 0 0 0 11.67 6.07l.56.73c-7.58 2.28-11.31-3.58-12.23-6.8z" fill="#B55401"/><path d="M268.14 264.77c7.14 6.7 23.01 29.26 29.36 65.87" stroke="#833C00" stroke-width=".8" stroke-linecap="round" stroke-linejoin="round"/><path d="M103.47 297.5c2.45 5.64 3.5 20.16 3.71 26.71l.2.44c3.29-14.85-.87-23.1-3.9-27.15zm-6.7-11.83c2.1 3.85 3.74 14.1 4.3 18.75l.17.3c1.4-10.76-2.06-16.36-4.47-19.05zm-8.97-14.5c2.42 3.65 4.95 13.72 5.92 18.3l.2.28c.46-10.84-3.48-16.11-6.12-18.58zm-8.68-4.74c2.42 2.56 5.84 10.18 7.24 13.68l.2.2c-1.15-8.66-5.01-12.3-7.44-13.88z" fill="#B55401"/><path d="M84.6 289.56c5.2 5.45 10.75 7.6 12.86 8l.28.63c-7.73 1.73-11.98-5.03-13.14-8.63z" fill="#FFC226"/><path d="M79.56 279.11a15.99 15.99 0 0 0 9.89 5.14l.47.63c-6.42 1.93-9.58-3.04-10.36-5.77z" fill="#B55401"/><path d="M84.44 278.26c6.05 5.68 19.5 24.79 24.88 55.8" stroke="#833C00" stroke-width=".8" stroke-linecap="round" stroke-linejoin="round"/><path d="M79.56 287.48c2.88 6.66 4.12 23.79 4.37 31.52l.24.52c3.87-17.52-1.03-27.25-4.61-32.04zm-7.92-13.96c2.47 4.55 4.41 16.65 5.08 22.13l.2.35c1.66-12.7-2.43-19.3-5.28-22.48z" fill="#B55401"/><path d="M61.06 256.4c2.85 4.32 5.84 16.2 6.98 21.6l.23.34c.55-12.8-4.1-19.02-7.21-21.94z" fill="#FFC226"/><path d="M50.8 250.8c2.87 3.03 6.9 12.03 8.56 16.15l.23.23c-1.36-10.21-5.91-14.5-8.78-16.37zm16.17 43.66c4.16 7.39 11.35 13.05 14.42 14.97l.28.94c-11.08-.93-14.42-11-14.7-15.9zm-9.69-16.35c6.14 6.43 12.68 8.97 15.18 9.45l.33.73c-9.12 2.05-14.14-5.93-15.51-10.18zm-5.95-12.33A18.87 18.87 0 0 0 63 271.85l.55.73c-7.57 2.28-11.3-3.58-12.22-6.8z" fill="#B55401"/><path d="M57.1 264.77c7.13 6.7 23 29.26 29.35 65.87" stroke="#833C00" stroke-width=".8" stroke-linecap="round" stroke-linejoin="round"/><path d="M53.54 297.5c2.45 5.64 3.5 20.16 3.71 26.71l.2.44c3.28-14.85-.87-23.1-3.9-27.15zm-6.7-11.83c2.09 3.85 3.73 14.1 4.3 18.75l.17.3c1.4-10.76-2.06-16.36-4.47-19.05zm-8.97-14.5c2.42 3.65 4.95 13.72 5.91 18.3l.2.28c.46-10.84-3.47-16.11-6.11-18.58zm-8.69-4.74c2.43 2.56 5.84 10.18 7.25 13.68l.2.2c-1.15-8.66-5.01-12.3-7.45-13.88z" fill="#B55401"/><path d="M34.67 289.56c5.2 5.45 10.74 7.6 12.86 8l.28.63c-7.73 1.73-11.98-5.03-13.14-8.63z" fill="#FFC226"/><path d="M29.63 279.11a15.99 15.99 0 0 0 9.89 5.14l.46.63c-6.41 1.93-9.58-3.04-10.35-5.77z" fill="#B55401"/><path d="M34.5 278.26c6.06 5.68 19.5 24.79 24.88 55.8" stroke="#833C00" stroke-width=".8" stroke-linecap="round" stroke-linejoin="round"/><path d="M26.84 287.48c2.9 6.66 4.13 23.79 4.38 31.52l.24.52c3.87-17.52-1.03-27.25-4.62-32.04z" fill="#B55401"/><path d="M18.93 273.52c2.47 4.55 4.41 16.65 5.07 22.13l.2.35c1.67-12.7-2.42-19.3-5.27-22.48z" fill="#FFC226"/><path d="M8.35 256.4c2.85 4.32 5.84 16.2 6.98 21.6l.23.34c.55-12.8-4.1-19.02-7.21-21.94zm-10.25-5.6c2.86 3.03 6.89 12.03 8.54 16.15l.23.23c-1.35-10.21-5.9-14.5-8.78-16.37zm16.16 43.66c4.15 7.39 11.34 13.05 14.42 14.97l.28.94c-11.08-.93-14.42-11-14.7-15.9zm-9.69-16.35c6.14 6.43 12.68 8.97 15.18 9.45l.33.73c-9.12 2.05-14.14-5.93-15.51-10.18z" fill="#B55401"/><path d="M-1.38 265.78a18.87 18.87 0 0 0 11.67 6.07l.55.73c-7.57 2.28-11.3-3.58-12.22-6.8z" fill="#FFC226"/><path d="M4.38 264.77c7.14 6.7 23.01 29.26 29.36 65.87" stroke="#833C00" stroke-width=".8" stroke-linecap="round" stroke-linejoin="round"/><path d="M244.16 297.5c2.45 5.64 3.5 20.16 3.71 26.71l.2.44c3.28-14.85-.87-23.1-3.9-27.15zm-6.7-11.83c2.09 3.85 3.73 14.1 4.3 18.75l.17.3c1.4-10.76-2.06-16.36-4.47-19.05zm-8.97-14.5c2.42 3.65 4.95 13.72 5.91 18.3l.2.28c.46-10.84-3.47-16.11-6.11-18.58zm-8.69-4.74c2.43 2.56 5.84 10.18 7.25 13.68l.2.2c-1.15-8.66-5.01-12.3-7.45-13.88zm5.49 23.13c5.2 5.45 10.74 7.6 12.86 8l.28.63c-7.73 1.73-11.98-5.03-13.14-8.63zm-5.04-10.45a15.99 15.99 0 0 0 9.88 5.14l.47.63c-6.41 1.93-9.58-3.04-10.35-5.77z" fill="#B55401"/><path d="M225.13 278.26c6.05 5.68 19.5 24.79 24.88 55.8" stroke="#833C00" stroke-width=".8" stroke-linecap="round" stroke-linejoin="round"/><path d="M220.24 287.48c2.9 6.66 4.12 23.79 4.38 31.52l.24.52c3.87-17.52-1.03-27.25-4.62-32.04zm-7.91-13.96c2.47 4.55 4.41 16.65 5.07 22.13l.2.35c1.67-12.7-2.42-19.3-5.27-22.48zm-10.58-17.12c2.85 4.32 5.84 16.2 6.97 21.6l.24.34c.54-12.8-4.1-19.02-7.22-21.94zm-10.25-5.6c2.86 3.03 6.89 12.03 8.54 16.15l.23.23c-1.35-10.21-5.9-14.5-8.78-16.37zm16.16 43.66c4.15 7.39 11.34 13.05 14.42 14.97l.27.94c-11.07-.93-14.4-11-14.7-15.9z" fill="#B55401"/><path d="M197.97 278.11c6.14 6.43 12.68 8.97 15.18 9.45l.33.73c-9.13 2.05-14.14-5.93-15.51-10.18z" fill="#FFC226"/><path d="M192.02 265.78a18.87 18.87 0 0 0 11.67 6.07l.55.73c-7.57 2.28-11.3-3.58-12.22-6.8z" fill="#B55401"/><path d="M197.78 264.77c7.14 6.7 23 29.26 29.36 65.87" stroke="#833C00" stroke-width=".8" stroke-linecap="round" stroke-linejoin="round"/><path d="m360.2 187.1-7.24 36.2 11.32 3.07-12.4 2.32-6.7 33.57 16.64 6.25-18.27 1.85-6.2 30.97h37.5V113.87l-13.9 69.46 7.55 2.65-8.3 1.12z" fill="#3B6221"/><circle cx="101.45" cy="76.99" r="20" fill="#FFD12E"/></g><defs><linearGradient id="b" x1="266.94" y1="86.89" x2="277.35" y2="85.92" gradientUnits="userSpaceOnUse"><stop stop-color="#234B52" stop-opacity=".5"/><stop offset=".02" stop-color="#20464E" stop-opacity=".51"/><stop offset=".13" stop-color="#183542" stop-opacity=".57"/><stop offset=".27" stop-color="#122A39" stop-opacity=".64"/><stop offset=".46" stop-color="#0E2334" stop-opacity=".73"/><stop offset="1" stop-color="#0D2133"/></linearGradient><linearGradient id="c" x1="231.04" y1="80.92" x2="241.75" y2="79.91" gradientUnits="userSpaceOnUse"><stop stop-color="#234B52" stop-opacity=".5"/><stop offset=".02" stop-color="#20464E" stop-opacity=".51"/><stop offset=".13" stop-color="#183542" stop-opacity=".57"/><stop offset=".27" stop-color="#122A39" stop-opacity=".64"/><stop offset=".46" stop-color="#0E2334" stop-opacity=".73"/><stop offset="1" stop-color="#0D2133"/></linearGradient><linearGradient id="d" x1="213.94" y1="102.34" x2="222.45" y2="101.54" gradientUnits="userSpaceOnUse"><stop stop-color="#234B52" stop-opacity=".5"/><stop offset=".02" stop-color="#20464E" stop-opacity=".51"/><stop offset=".13" stop-color="#183542" stop-opacity=".57"/><stop offset=".27" stop-color="#122A39" stop-opacity=".64"/><stop offset=".46" stop-color="#0E2334" stop-opacity=".73"/><stop offset="1" stop-color="#0D2133"/></linearGradient></defs></svg>