<svg width="620" height="379" viewBox="0 0 620 379" fill="none"
    xmlns="http://www.w3.org/2000/svg">
    <path d="M532.411 0L514.681 87.342L525.266 83.6366L513.755 92.2384L505.816 131.542L523.811 126.117L504.89 136.703L497.877 171.111H567.078L554.376 108.516L542.07 96.8702L553.185 102.561L543.658 55.5813L537.175 49.8908L542.997 52.9346L532.411 0Z" fill="#395F1C"/>
    <path d="M532.279 0.661743V171.111H497.877L504.757 136.704L523.811 126.117L505.816 131.542L513.755 92.2385L525.266 83.6367L514.813 87.3421L532.279 0.661743Z" fill="#48742B"/>
    <path d="M482.046 73.3759L470.849 128.935L477.589 126.543L470.306 131.979L465.196 156.986L476.611 153.507L464.544 160.248L460.087 182.102H504.114L496.07 142.308L488.243 134.915L495.309 138.611L489.221 108.712L485.09 105.015L488.786 106.972L482.046 73.3759Z" fill="#395F1C"/>
    <path d="M481.937 73.702V182.319H459.978L464.435 160.357L476.502 153.616L465.088 157.095L470.197 132.088L477.48 126.652L470.74 128.935L481.937 73.702Z" fill="#48742B"/>
    <path d="M457.424 166.836C457.424 166.836 454.618 142.069 462.317 137.209C469.988 132.346 472.379 143.712 472.379 143.712C472.379 143.712 482.363 122.28 495.575 123.623C508.787 124.966 512.294 164.133 512.294 164.133C512.294 164.133 525.026 155.193 533.775 156.012C542.525 156.832 547.795 165.225 547.795 165.225C547.795 165.225 547.669 156.096 556.127 157.142C564.586 158.189 575.577 175.586 575.577 175.586C575.577 175.586 590.723 173.575 595.255 186.053C599.765 198.471 457.424 166.836 457.424 166.836Z" fill="#5C8636"/>
    <path d="M586.474 176.502C586.474 176.502 442.333 138.821 166.038 158.529C48.0759 166.941 -3.15453e-05 185.39 0 206.066C3.15454e-05 226.742 42.6783 233.99 47.6958 256.26C49.9589 266.305 33.5065 275.852 21.0122 288.136C0.644976 308.159 2.91193 335.232 47.6958 348.862C221.991 401.908 469.906 372.287 541.448 335.075C607.383 300.773 520.608 262.938 568.349 241.352C579.052 236.513 604.045 230.349 614.452 217.909C625.974 204.137 620.885 183.915 586.474 176.502Z" fill="#8CB556"/>
    <path d="M565.639 207.49H593.476C592.19 205.082 590.877 203.414 588.762 201.904C587.517 200.989 585.639 200.425 584.769 200.453C582.754 200.315 579.413 201.968 575.423 206.309C574.548 204.821 570.854 202.288 565.639 207.49Z" fill="#75A03C"/>
    <path d="M481.212 176.346C487.361 176.013 489.292 181.895 489.292 186.135C483.521 186.623 477.239 186.912 470.536 186.89C464.342 186.868 458.505 186.579 453.111 186.135C453.244 185.558 453.732 184.137 455.064 182.894C456.085 181.94 457.417 181.252 458.771 181.252C460.968 181.252 462.7 181.762 463.765 183.005C464.32 181.54 466.163 178.477 469.137 178.011C472.112 177.545 474.287 179.964 474.997 181.229C475.308 180.453 476.84 176.59 481.212 176.346Z" fill="#75A03C"/>
    <path d="M411.12 277.952H456.778C454.667 274.002 452.514 271.266 449.045 268.789C447.003 267.289 443.923 266.363 442.497 266.41C439.191 266.184 433.712 268.894 427.166 276.015C425.732 273.573 419.673 269.419 411.12 277.952Z" fill="#C56C2A"/>
    <circle r="2.22841" transform="matrix(-1 0 0 1 442.579 273.115)" fill="#A75517"/>
    <path d="M321.876 345.04C321.876 345.04 313.617 301.762 316.436 301.095C319.255 300.428 323.132 340.4 323.132 340.4C323.132 340.4 320.743 287.769 322.907 286.805C325.071 285.841 324.507 339.161 324.507 339.161C324.507 339.161 325.595 277.093 327.355 276.251C329.142 275.411 326.296 340.513 326.296 340.513C326.296 340.513 329.952 301.301 331.194 300.825C332.435 300.349 328.273 339.569 328.273 339.569C328.273 339.569 335.366 298.782 336.912 298.727C338.458 298.672 330.491 337.84 330.491 337.84C330.491 337.84 335.021 315.974 337.22 315.532C339.151 315.135 333.189 336.812 333.189 336.812C333.189 336.812 342.554 306.27 344.264 306.084C345.975 305.898 333.738 343.106 333.738 343.106L321.876 345.04Z" fill="#48742B"/>
    <ellipse cx="134.73" cy="325.18" rx="92.9434" ry="11.4008" fill="#5C8636" fill-opacity="0.5"/>
    <ellipse cx="329.558" cy="257.618" rx="90.0933" ry="9.59946" fill="#5C8636" fill-opacity="0.5"/>
    <ellipse cx="191.076" cy="174.846" rx="60.5522" ry="7.43031" fill="#5C8636" fill-opacity="0.5"/>
    <path d="M352.47 175.247C357.572 164.045 368.89 158.976 378.882 160.396C398.615 163.6 398.73 185.779 398.73 185.779C399.134 193.096 397.424 205.345 390.953 210.529C385.455 214.934 375.595 212.955 370.483 212.125C359.353 210.318 353.074 207.754 350.21 202.203C346.057 194.153 349.343 182.11 352.47 175.247Z" fill="#F88A24"/>
    <ellipse cx="382.278" cy="184.857" rx="10.6905" ry="13.4722" transform="rotate(2.85746 382.278 184.857)" fill="#F7CC7F"/>
    <path d="M386.922 186.944C386.855 186.67 386.769 186.431 386.665 186.227C386.561 186.023 386.408 185.821 386.205 185.621C386.002 185.421 385.819 185.259 385.656 185.135C385.493 185.01 385.267 184.869 384.98 184.712C384.692 184.554 384.464 184.436 384.296 184.358C384.128 184.279 383.884 184.171 383.565 184.034C383.282 183.91 383.071 183.816 382.933 183.751C382.794 183.686 382.613 183.595 382.388 183.477C382.163 183.359 381.996 183.256 381.886 183.168C381.777 183.08 381.66 182.974 381.537 182.848C381.414 182.723 381.329 182.591 381.283 182.454C381.237 182.317 381.218 182.169 381.226 182.009C381.245 181.592 381.444 181.261 381.824 181.014C382.204 180.768 382.685 180.658 383.268 180.685C383.525 180.697 383.786 180.744 384.049 180.827C384.312 180.91 384.537 181 384.723 181.097C384.909 181.195 385.084 181.301 385.247 181.416C385.411 181.532 385.527 181.618 385.595 181.677C385.663 181.735 385.706 181.774 385.723 181.793C385.8 181.858 385.881 181.883 385.968 181.869C386.06 181.867 386.133 181.821 386.187 181.732L386.993 180.424C387.073 180.305 387.063 180.187 386.964 180.072C386.929 180.034 386.885 179.989 386.831 179.937C386.779 179.885 386.663 179.791 386.485 179.654C386.307 179.517 386.118 179.393 385.917 179.282C385.717 179.171 385.455 179.056 385.131 178.937C384.809 178.818 384.473 178.732 384.125 178.679L384.2 177.06C384.204 176.975 384.18 176.903 384.127 176.845C384.075 176.787 384.005 176.757 383.919 176.753L382.678 176.695C382.598 176.692 382.528 176.717 382.467 176.773C382.406 176.829 382.374 176.896 382.37 176.976L382.294 178.631C381.323 178.77 380.522 179.145 379.892 179.755C379.262 180.364 378.927 181.092 378.888 181.938C378.877 182.189 378.892 182.43 378.934 182.659C378.975 182.888 379.03 183.095 379.098 183.279C379.167 183.464 379.267 183.646 379.4 183.828C379.533 184.009 379.659 184.165 379.779 184.297C379.899 184.428 380.057 184.566 380.253 184.71C380.449 184.854 380.617 184.971 380.758 185.06C380.898 185.15 381.085 185.254 381.319 185.372C381.553 185.49 381.738 185.58 381.873 185.642C382.009 185.703 382.194 185.789 382.428 185.897C382.753 186.041 382.994 186.152 383.15 186.23C383.306 186.308 383.504 186.416 383.743 186.553C383.983 186.689 384.157 186.813 384.265 186.922C384.374 187.032 384.471 187.165 384.556 187.323C384.64 187.48 384.679 187.645 384.671 187.816C384.649 188.301 384.443 188.666 384.054 188.912C383.665 189.158 383.222 189.269 382.725 189.247C382.499 189.236 382.273 189.201 382.048 189.142C381.259 188.945 380.532 188.528 379.867 187.889L379.85 187.87C379.798 187.8 379.725 187.769 379.633 187.777C379.534 187.785 379.462 187.818 379.416 187.878L378.412 189.075C378.314 189.194 378.315 189.319 378.413 189.453C378.442 189.491 378.493 189.549 378.566 189.626C378.639 189.703 378.777 189.825 378.978 189.991C379.179 190.157 379.399 190.314 379.638 190.464C379.877 190.613 380.181 190.763 380.552 190.916C380.923 191.068 381.309 191.181 381.711 191.255L381.637 192.864C381.633 192.944 381.659 193.014 381.715 193.075C381.77 193.136 381.838 193.168 381.918 193.172L383.159 193.229C383.245 193.233 383.317 193.209 383.374 193.156C383.432 193.104 383.463 193.034 383.467 192.948L383.541 191.339C384.523 191.225 385.335 190.843 385.976 190.194C386.617 189.545 386.959 188.751 387.003 187.814C387.017 187.507 386.99 187.217 386.922 186.944Z" fill="#F88A24"/>
    <path d="M402.28 155.391C406.892 148.7 418.319 150.181 410.604 164.611" stroke="#395F1C" stroke-width="1.5" stroke-linecap="round" stroke-linejoin="round"/>
    <path d="M423.613 154.524C420.306 158.025 415.213 157.785 412.679 153.983C415.586 150.89 419.945 149.741 423.613 154.524Z" fill="#55972E"/>
    <path d="M410.816 164.193C413.522 168.654 411.76 173.62 407.006 174.842C404.611 170.914 404.693 166.206 410.816 164.193Z" fill="#55972E"/>
    <path d="M365.597 133.765C365.715 138.397 370.123 137.554 371.617 145.055" stroke="#395F1C" stroke-width="1.5" stroke-linecap="round" stroke-linejoin="round"/>
    <path d="M369.33 139.923C373.927 138.486 376.036 133.734 373.834 129.711C369.778 130.967 366.778 134.423 369.33 139.923Z" fill="#55972E"/>
    <path d="M367.564 137.892C364.253 141.391 359.058 141.199 356.411 137.453C359.321 134.362 363.744 133.184 367.564 137.892Z" fill="#55972E"/>
    <path d="M388.332 150.767C387.982 150.989 387.519 150.886 387.297 150.536C387.075 150.187 387.178 149.723 387.528 149.501L388.332 150.767ZM392.566 136.197L391.896 135.86L391.901 135.849L391.907 135.839L392.566 136.197ZM403.466 131.186C403.527 130.776 403.909 130.494 404.319 130.556C404.729 130.618 405.011 131 404.949 131.409L403.466 131.186ZM387.528 149.501C389.891 148 391.16 146.681 391.814 145.533C392.454 144.409 392.537 143.392 392.407 142.402C392.34 141.896 392.217 141.395 392.075 140.877C391.938 140.376 391.773 139.827 391.653 139.303C391.408 138.234 391.293 137.056 391.896 135.86L393.235 136.535C392.867 137.265 392.898 138.023 393.115 138.968C393.225 139.451 393.37 139.928 393.522 140.481C393.669 141.016 393.813 141.596 393.894 142.207C394.057 143.451 393.951 144.811 393.117 146.275C392.297 147.715 390.809 149.194 388.332 150.767L387.528 149.501ZM391.907 135.839C392.577 134.607 393.756 133.978 394.993 133.624C396.22 133.274 397.63 133.16 398.892 133.048C400.202 132.932 401.333 132.818 402.177 132.515C402.976 132.228 403.368 131.832 403.466 131.186L404.949 131.409C404.741 132.79 403.793 133.528 402.685 133.927C401.622 134.309 400.281 134.431 399.024 134.542C397.718 134.658 396.466 134.764 395.405 135.067C394.355 135.367 393.621 135.825 393.224 136.556L391.907 135.839Z" fill="#395F1C"/>
    <path d="M396.492 134.176C392.221 133.771 389.507 130.02 390.684 126.108C394.45 126.455 397.701 128.913 396.492 134.176Z" fill="#55972E"/>
    <path d="M405.265 141.083C400.829 141.002 398.262 137.583 399.776 133.728C403.688 133.79 406.91 135.924 405.265 141.083Z" fill="#55972E"/>
    <path d="M393.209 142.418C388.773 144.772 383.705 142.851 382.338 138.269C386.242 136.185 391.003 136.495 393.209 142.418Z" fill="#55972E"/>
    <path d="M404.896 156.299C405.694 158.784 391.31 163.19 395.679 173.168C385.543 169.756 365.272 162.469 365.272 162.469C372.264 157.328 365.472 147.696 365.118 146.166C364.764 144.637 365.774 144.499 368.18 144.89C370.586 145.281 370.677 144.636 372.506 144.776C375.958 145.334 375.949 147.177 378.418 147.948C380.886 148.719 382.94 146.98 385.869 147.757C388.799 148.535 389.225 151.012 391.31 151.78C393.395 152.547 403.338 151.441 404.896 156.299Z" fill="#F88A24"/>
    <path d="M305.505 141.339L308.815 152.005L304.769 153.109L305.505 141.339Z" fill="#E8A374"/>
    <path d="M309.55 149.063C308.741 150.313 307.417 151.233 305.872 152.005L308.815 176.648C308.815 176.648 312.493 178.119 314.332 177.016C315.435 176.28 316.355 173.706 316.539 172.234C316.686 170.873 315.803 168.556 313.964 165.982C313.964 165.982 311.021 162.304 310.286 160.097C309.55 157.89 309.55 149.063 309.55 149.063Z" fill="#FDD02E"/>
    <path d="M336.173 206.08C336.025 205.86 320.879 182.79 316.943 177.788C313.191 173.007 306.166 169.108 306.093 169.071L307.858 165.835C308.189 166.018 315.582 170.138 319.812 175.508C323.858 180.657 337.025 201.254 337.577 202.137L336.173 206.08Z" fill="#709FD4"/>
    <path d="M310.654 166.717C310.654 166.717 309.55 173.816 310.654 174.478C311.757 175.14 312.125 172.97 312.125 172.97C312.493 170.763 313.964 170.028 315.141 170.616L310.654 166.717Z" fill="#FDD02E"/>
    <path d="M310.654 166.717C310.654 166.717 309.55 173.816 310.654 174.478C311.757 175.14 312.125 172.97 312.125 172.97C312.493 170.763 313.964 170.028 315.141 170.616" stroke="#E9B319" stroke-width="0.8" stroke-miterlimit="10" stroke-linecap="round"/>
    <path d="M308.079 160.465C309.624 172.933 310.029 185.439 309.55 197.981C309.55 200.556 308.999 202.468 306.608 203.498L277.184 216.371L275.713 207.176L290.057 195.774L296.677 162.304L308.079 160.465Z" fill="#1B3767"/>
    <path d="M288.835 200.723L286.469 198.687C281.972 202.09 279.161 204.087 275.297 207.669L280.176 215.172L288.835 200.723Z" fill="#12274A"/>
    <path d="M276.19 205.337C276.816 209.088 279.832 213.87 282.921 215.893C283.179 216.076 283.142 216.481 282.848 216.628C276.816 219.313 266.149 225.492 264.2 228.619C261.956 232.922 264.936 238.88 267.069 241.197C269.202 243.515 266.517 245.059 266.517 245.059C266.517 245.059 263.685 247.119 261.294 245.795C259.419 244.581 258.058 242.853 256.77 240.83C255.483 238.807 254.6 235.46 253.497 233.731C252.394 232.002 251.069 232.002 249.194 229.097C247.318 226.191 247.759 223.506 247.759 223.506C248.127 221.741 248.863 221.63 251.658 220.122C254.38 218.651 260.743 216.591 275.234 205.006C275.602 204.711 276.117 204.895 276.19 205.337Z" fill="#C56C2A"/>
    <path d="M263.648 246.237C262.913 245.759 261.589 244.545 259.566 241.455C256.366 236.49 256.513 234.724 255.336 232.849C254.122 231.01 252.798 230.973 250.812 227.883C248.826 224.794 249.083 221.52 249.083 221.52C248.311 222.035 247.98 222.477 247.759 223.506C247.759 223.506 247.318 226.191 249.194 229.097C251.069 232.003 252.43 232.076 253.534 233.768C254.637 235.46 255.52 238.844 256.807 240.867C258.094 242.89 259.455 244.618 261.331 245.832C262.104 246.237 262.913 246.31 263.648 246.237Z" fill="#9C5C30"/>
    <path d="M294.801 208.647C294.801 208.647 299.619 204.564 300.723 199.783C301.826 195.002 300.355 185.365 301.091 179.149C301.826 172.933 305.173 163.959 305.173 163.959L298.295 170.653L298.148 198.312L294.801 208.647Z" fill="#12274A"/>
    <path d="M283.068 134.976L281.965 106.729L288.218 104.154C288.218 104.154 290.425 110.039 298.148 110.039C302.194 110.039 301.826 105.625 301.826 105.625C304.438 106.986 307.344 108.935 308.079 110.039C308.999 111.694 308.704 117.873 308.704 122.802L294.838 133.578L283.068 134.976Z" fill="#FF6A6A"/>
    <path d="M285.643 121.11L288.218 129.569L283.804 135.822L283.069 127.877L285.643 121.11Z" fill="#D85555"/>
    <path d="M279.39 226.669C278.213 215.525 280.126 206.109 286.747 199.452C286.747 199.452 279.39 181.062 279.39 168.851C279.427 161.127 283.068 149.063 283.068 135.013C288.218 128.834 293.183 125.009 284.54 105.662L286.747 104.743C289.963 111.086 292.473 116.657 294.47 121.478C294.47 121.478 301.826 121.846 304.769 120.742C305.504 115.961 302.562 106.03 302.562 106.03L304.769 107.097C304.769 107.097 309.183 122.213 309.183 126.627C309.183 129.569 305.872 135.454 305.872 135.454C305.578 144.098 306.35 152.41 308.079 160.465L299.62 170.763C299.252 183.269 300.355 195.406 299.62 199.084C298.516 203.498 295.831 205.889 294.029 210.376C292.337 214.569 291.822 219.718 291.381 226.669C287.409 228.03 283.179 228.104 279.39 226.669Z" fill="#1B3767"/>
    <path d="M290.94 178.855L288.218 150.828C288.218 150.828 288.953 147.224 288.586 146.12C288.218 145.017 285.275 139.132 284.908 137.661C284.54 136.19 285.79 131.739 285.79 131.739C284.944 132.806 284.025 133.872 283.069 135.013C283.069 149.063 279.427 161.127 279.391 168.85C279.391 181.062 286.747 199.452 286.747 199.452C286.268 194.45 285.239 189.19 283.804 183.636C283.51 181.54 285.459 181.54 288.586 182.68C291.896 183.636 291.675 180.289 290.94 178.855Z" fill="#12274A"/>
    <path d="M279.023 225.456C282.517 226.964 288.181 227.037 291.528 225.529C291.822 225.382 292.153 225.64 292.117 225.971C291.087 232.481 290.498 244.802 292.08 248.149C294.471 252.379 301.091 253.114 304.217 252.563C307.344 252.011 307.16 255.137 307.16 255.137C307.16 255.137 307.344 258.632 304.953 259.919C302.93 260.838 300.723 261.022 298.332 261.022C295.942 261.022 292.631 259.919 290.609 259.919C288.586 259.919 287.776 261.022 284.319 261.022C280.862 261.022 278.839 259.183 278.839 259.183C277.552 257.896 277.883 257.234 278.103 254.071C278.324 250.981 280.053 244.545 278.214 226.044C278.177 225.64 278.618 225.309 279.023 225.456Z" fill="#C56C2A"/>
    <path d="M306.534 258.227C305.725 258.594 303.996 259.036 300.318 259.036C294.397 259.036 292.999 257.932 290.792 257.932C288.585 257.932 287.85 259.036 284.172 259.036C280.494 259.036 277.882 257.013 277.882 257.013C277.882 257.932 278.103 258.484 278.839 259.22C278.839 259.22 280.861 261.059 284.319 261.059C287.776 261.059 288.585 259.955 290.608 259.955C292.631 259.955 295.941 261.059 298.332 261.059C300.723 261.059 302.93 260.875 304.953 259.955C305.725 259.514 306.203 258.889 306.534 258.227Z" fill="#9C5C30"/>
    <path d="M277.184 153.476C280.531 155.61 286.379 154.212 288.954 150.534C285.275 150.534 280.457 151.895 277.184 153.476Z" fill="#E9B319"/>
    <path d="M276.816 129.201C276.816 129.201 276.448 136.925 276.448 138.764C276.448 140.603 281.009 155.683 281.009 155.683L287.482 153.476L284.172 138.029V128.834L276.816 129.201Z" fill="#F2B88D"/>
    <path d="M283.069 154.985C282.002 150.865 279.023 139.022 279.023 136.925C279.023 134.351 281.23 130.305 281.23 130.305L281.377 128.981L276.816 129.202C276.816 129.202 276.448 136.925 276.448 138.764C276.448 140.603 281.009 155.683 281.009 155.683L283.069 154.985Z" fill="#E8A374"/>
    <path d="M274.241 130.673C274.241 130.673 280.862 131.408 285.092 130.673C286.011 121.478 288.218 107.133 281.965 106.765C273.874 106.03 274.977 123.317 274.241 130.673Z" fill="#FF6A6A"/>
    <path d="M265.414 87.6397C274.977 101.616 310.286 106.398 329.412 74.7666L265.414 87.6397Z" fill="#E9B319"/>
    <path d="M288.218 104.191C290.94 101.653 292.705 97.9013 293.367 92.7888L299.62 96.4669C299.252 100.476 299.767 103.713 301.827 105.662C303.666 116.696 288.953 110.443 288.218 104.191Z" fill="#F2B88D"/>
    <path d="M293.054 93.2727L299.62 96.4671C299.546 97.4601 299.46 98.9015 299.569 100.17C297.472 99.8761 293.422 96.9507 293.054 93.2727Z" fill="#E8A374"/>
    <path d="M303.508 95.5322C305.074 94.774 305.949 94.338 307.431 93.2363C308.51 90.235 309.249 84.4761 309.171 82.416L308.764 82.2749L303.508 95.5322Z" fill="#252425"/>
    <path d="M308.706 82.8073C308.706 82.8073 307.955 93.4605 301.493 97.8418C299.951 98.8871 295.57 96.4884 294.096 95.1913C292.622 93.8942 291.632 92.8168 291.255 91.0163C291.255 91.0163 288.182 90.3919 287.647 87.7297C287.111 85.0675 289.355 83.658 291.689 84.686C291.689 84.686 292.26 77.2039 300.412 77.3749C308.564 77.5459 308.706 82.8073 308.706 82.8073Z" fill="#F2B88D"/>
    <path d="M289.285 86.7655C289.285 86.7655 291.038 86.303 291.584 88.4338" stroke="#252425" stroke-width="0.6" stroke-linecap="round"/>
    <path d="M291.57 88.4149C291.08 87.9533 290.766 87.8576 290.147 87.9566" stroke="#252425" stroke-width="0.6" stroke-linecap="round"/>
    <ellipse rx="1.90482" ry="0.649416" transform="matrix(-0.994395 0.105731 0.105731 0.994395 298.433 84.637)" fill="#252425"/>
    <ellipse cx="305.538" cy="84.637" rx="1.90482" ry="0.649416" transform="rotate(6.06929 305.538 84.637)" fill="#252425"/>
    <circle r="0.762567" transform="matrix(-1 1.28224e-09 1.28224e-09 1 299.224 87.8414)" fill="#252425"/>
    <circle r="0.762567" transform="matrix(-1 1.28224e-09 1.28224e-09 1 305.259 87.8414)" fill="#252425"/>
    <path d="M302.908 87.7024L303.777 90.8896C303.83 91.0872 303.682 91.2819 303.477 91.2819L301.73 91.2819C301.525 91.2819 301.376 91.0865 301.431 90.8887L302.309 87.7016C302.393 87.3969 302.825 87.3975 302.908 87.7024Z" fill="#EF6179"/>
    <path d="M298.412 92.4778L302.464 92.9898C302.464 92.9898 302.113 94.4523 300.326 94.2811C298.539 94.1099 298.412 92.4778 298.412 92.4778Z" fill="white"/>
    <path d="M291.68 84.7067C291.68 84.7067 292.939 85.3445 293.226 87.7954C293.377 88.4954 294.007 86.638 294.269 85.8128C294.531 84.9875 294.726 83.7489 294.83 83.0739C295.583 78.1766 307.46 84.0097 309.863 82.6383C313.317 80.6671 310.47 74.5247 306.155 73.5637C300.492 72.2804 295.434 73.3065 292.843 76.436C292.018 76.0785 291.085 76.0607 290.247 76.3866C289.409 76.7125 288.734 77.3557 288.367 78.1766C287.137 80.5624 284.659 86.8619 284.38 92.3263C287.501 94.8823 290.601 95.1692 292.939 95.5429L293.226 94.2872C291.914 93.0833 291.474 91.6881 291.289 90.938C289.682 90.7056 288.622 89.7794 288.136 89.0541C287.649 88.3288 287.441 87.4526 287.549 86.5862C287.83 83.7698 291.299 84.2562 291.68 84.7067Z" fill="#252425"/>
    <path d="M265.414 87.6397C282.945 88.4945 313.638 78.6255 329.412 74.7666C322.46 74.8034 315.693 74.4724 309.183 73.6264C309.183 73.6264 305.872 67.7783 303.665 66.6749C302.599 66.1232 299.068 66.1968 295.537 66.9692C291.822 67.8151 288.034 69.3967 287.114 70.353C285.275 72.192 286.379 76.2378 285.275 78.0768C284.172 79.9159 265.414 87.6397 265.414 87.6397Z" fill="#FDD02E"/>
    <path d="M384.353 225.764L382.609 229.003L392.163 234.147L393.907 230.908L384.353 225.764Z" fill="#709FD4"/>
    <path d="M415.478 215.672L378.955 233.878L344.602 221.005C338.938 218.946 336.142 207.58 332.685 194.303L415.478 215.672Z" fill="#B7D2F0"/>
    <path d="M415.478 215.672L405.069 220.858L334.046 199.342C333.605 197.687 333.163 196.031 332.722 194.303L415.478 215.672Z" fill="#ACC8EB"/>
    <path d="M330.074 195.296L329.816 193.2C329.78 192.942 329.89 192.721 330.074 192.574L330.957 191.912C331.104 191.802 331.324 191.765 331.545 191.802L416.397 213.392C416.508 213.429 416.618 213.465 416.691 213.576L418.236 215.121C418.53 215.415 418.494 215.856 418.199 216.114L416.839 217.254C416.655 217.401 416.434 217.438 416.25 217.401L330.589 195.884C330.331 195.811 330.111 195.59 330.074 195.296Z" fill="#89B2E7"/>
    <path d="M404.627 260.875C414.276 260.875 422.098 253.053 422.098 243.404C422.098 233.756 414.276 225.934 404.627 225.934C394.978 225.934 387.157 233.756 387.157 243.404C387.157 253.053 394.978 260.875 404.627 260.875Z" fill="#2B4171"/>
    <path d="M404.628 254.254C410.62 254.254 415.478 249.397 415.478 243.404C415.478 237.412 410.62 232.554 404.628 232.554C398.635 232.554 393.777 237.412 393.777 243.404C393.777 249.397 398.635 254.254 404.628 254.254Z" fill="#1A2F5A"/>
    <path d="M404.628 247.057C406.645 247.057 408.28 245.422 408.28 243.404C408.28 241.387 406.645 239.752 404.628 239.752C402.61 239.752 400.975 241.387 400.975 243.404C400.975 245.422 402.61 247.057 404.628 247.057Z" fill="#415786"/>
    <path d="M418.898 250.834C420.48 251.386 422.282 251.864 423.827 251.864C425.261 251.864 426.475 251.459 427.063 250.282C427.247 249.841 427.394 249.326 427.174 248.664C426.621 247.151 424.041 245.753 422.059 244.798L421.749 246.974C422.766 247.535 423.755 248.17 423.496 248.37C422.834 248.738 420.185 247.745 420.185 247.745L343.682 218.688C340.777 217.585 332.648 214.348 330.074 212.619C327.646 211.038 312.676 191.618 307.049 184.299C305.32 182.055 304.07 180.4 303.445 179.627C300.061 175.361 292.447 172.161 292.116 172.014L290.682 175.398C290.755 175.398 297.744 178.377 300.539 181.908C301.127 182.68 302.452 184.372 304.107 186.542C316.722 202.873 325.586 214.091 328.014 215.709C331.434 217.989 341.917 221.962 342.358 222.146L418.898 250.834Z" fill="#709FD4"/>
    <path d="M277.184 153.476C280.862 154.58 286.379 153.109 288.954 150.534C289.064 155.389 289.248 160.06 289.689 163.407C290.057 165.246 291.234 166.313 292.742 167.71C294.544 169.439 295.711 171.37 295.932 173.945L292.999 172.602C292.374 174.257 292.006 176.17 291.896 178.377C291.859 178.892 291.675 179.407 291.234 179.738C290.241 180.51 288.696 180.032 288.181 178.855C286.71 179.591 285.128 178.855 284.871 177.384C283.51 177.237 282.664 176.611 282.296 175.545C282.296 175.545 280.457 174.809 280.457 172.97C280.457 171.131 283.032 167.453 282.701 164.694C282.333 160.097 277.184 153.476 277.184 153.476Z" fill="#FDD02E"/>
    <path d="M288.218 178.855L288.586 174.074" stroke="#E9B319" stroke-width="0.8" stroke-miterlimit="10" stroke-linecap="round"/>
    <path d="M284.908 177.384L285.275 172.602" stroke="#E9B319" stroke-width="0.8" stroke-miterlimit="10" stroke-linecap="round"/>
    <path d="M282.333 175.545L282.701 171.867" stroke="#E9B319" stroke-width="0.8" stroke-miterlimit="10" stroke-linecap="round"/>
    <path d="M285.827 75.3921C285.79 76.2748 285.68 77.084 285.422 77.7093C294.176 78.0403 302.194 76.7897 309.182 73.5899C309.182 73.5899 308.557 72.4864 307.674 71.1624C302.599 73.1853 295.206 74.5461 285.827 75.3921Z" fill="#FF6A6A"/>
    <path d="M279.575 107.133C274.094 109.745 274.867 124.126 274.241 130.636C274.241 130.636 275.97 130.82 278.214 130.93C276.044 124.678 276.301 113.644 279.575 107.133Z" fill="#D85555"/>
    <path d="M342.469 254.438C341.733 254.438 340.998 254.291 340.262 253.997L340.225 253.96C336.253 252.268 335.37 245.942 337.651 235.129C339.269 227.442 341.954 220.086 341.991 220.012L344.05 220.784C340.078 231.635 335.738 249.657 341.034 251.937C343.425 252.82 345.705 252.415 354.827 239.8C363.838 227.294 377.704 232.223 377.851 232.26L377.079 234.32C376.564 234.136 364.647 229.943 356.629 241.05C349.494 250.907 345.963 254.438 342.469 254.438Z" fill="#709FD4"/>
    <path d="M538 243H452.5C455.404 237.78 458.986 223.959 463.535 223.346C469.397 222.817 473.788 225.693 480.638 225.693C482.747 225.693 485.197 221.837 489.027 219.025C491.826 216.969 496.048 215.7 498.002 215.764C507.993 216.093 510.044 219.169 519.015 228.929C523 224.5 536.5 229.846 538 243Z" fill="#C26926"/>
    <circle cx="517.51" cy="234.203" r="1.1788" fill="#A75517"/>
    <path d="M533.853 239.118C537.211 240.299 545.153 248.089 546.5 253.584H435C439.732 227.416 457.612 226.218 467.765 236.012C475.198 230.142 487.487 225.866 495.607 228.659C503.336 231.318 512.5 239.5 517 240.5C521.5 241.5 527 236 533.853 239.118Z" fill="#C26926"/>
    <path d="M476.908 243.034C472.406 240.846 476.908 233.831 479.432 234.296C480.778 234.544 481.912 237.133 482.293 240.355C482.672 243.553 479.733 244.407 476.908 243.034Z" fill="#B45F1F"/>
    <path d="M449.883 239.506C449.665 236.454 454.755 236.693 455.281 238.172C455.561 238.96 454.537 240.352 452.948 241.539C451.37 242.717 450.02 241.422 449.883 239.506Z" fill="#A75517"/>
    <circle r="1.67217" transform="matrix(-1 0 0 1 500.581 239.946)" fill="#A75517"/>
    <circle r="1.1788" transform="matrix(-1 0 0 1 464.644 245.39)" fill="#C26926"/>
    <path d="M440.399 250.887C446.26 250.358 452.12 252.238 457.087 252.238C459.197 252.238 462.62 249.15 466.449 246.337C469.248 244.282 472.064 242.271 475.425 242.058C482.225 241.627 487.467 243.425 496.438 253.185C501.343 250.503 512.247 248.849 518.432 263.203H507.925V271.124L425 271.124C431.082 254.276 435.849 251.5 440.399 250.887Z" fill="#C26926"/>
    <circle cx="479.524" cy="249.881" r="1.67217" fill="#A75517"/>
    <path d="M467.083 255.252C472.945 254.722 474.805 256.603 479.772 256.603C481.881 256.603 485.304 253.515 489.134 250.702C491.933 248.646 494.749 246.636 498.11 246.423C504.909 245.992 510.151 247.79 519.123 257.55C524.027 254.867 534.931 253.214 541.116 267.568H530.61V275.489L451.685 275.489C457.767 258.64 462.534 255.865 467.083 255.252Z" fill="#C26926"/>
    <circle cx="502.208" cy="254.246" r="1.67217" fill="#C26926"/>
    <path d="M539.45 199.712L533.811 198.201L520.885 246.441L526.524 247.952L539.45 199.712Z" fill="#709FD4"/>
    <path d="M536.283 200.878C535.814 200.752 535.442 200.384 535.34 199.887C535.195 199.176 535.647 198.492 536.358 198.346C544.093 196.793 546.917 189.761 549.112 181.821L541.75 179.849C541.061 179.664 540.648 178.949 540.833 178.26C541.018 177.571 541.733 177.158 542.422 177.343L551.036 179.651C551.725 179.836 552.138 180.551 551.953 181.24C550.082 188.225 547.253 198.781 536.881 200.904C536.668 200.948 536.471 200.928 536.283 200.878Z" fill="#709FD4"/>
    <path d="M535.987 200.731C535.799 200.681 535.619 200.599 535.457 200.455C527.535 193.431 530.356 182.906 532.219 175.952C532.403 175.263 533.118 174.85 533.808 175.034L542.422 177.343C543.111 177.527 543.524 178.242 543.339 178.931C543.154 179.62 542.439 180.033 541.75 179.849L534.389 177.876C532.328 185.818 531.266 193.289 537.189 198.502C537.731 198.983 537.78 199.802 537.299 200.344C536.962 200.724 536.457 200.857 535.987 200.731Z" fill="#709FD4"/>
    <path d="M523.789 246.883L537.759 250.626L532.849 268.951C530.524 277.628 523.041 286.635 513.801 284.159L523.789 246.883Z" fill="#B7D2F0"/>
    <path d="M523.977 246.934L510.006 243.19L505.096 261.515C502.771 270.192 504.748 281.734 513.988 284.21L523.977 246.934Z" fill="#9CBFE7"/>
    <path d="M524.645 243.688L516.897 245.037L519.365 263.391L530.68 248.73L524.645 243.688Z" fill="#709FD4"/>
    <path d="M552.071 178.921L533.276 173.885C532.932 173.793 532.574 173.999 532.482 174.344L531.643 177.476C531.55 177.821 531.757 178.178 532.101 178.271L550.896 183.307C551.24 183.399 551.598 183.193 551.69 182.848L552.53 179.716C552.622 179.371 552.416 179.013 552.071 178.921Z" fill="#2B4171"/>
    <path fill-rule="evenodd" clip-rule="evenodd" d="M496.022 252.97C496.537 253.874 496.975 254.938 497.336 256.161C497.701 257.386 497.882 258.693 497.883 260.084C497.883 264.34 496.499 268.005 493.731 271.079C490.964 274.153 487.368 276.051 482.944 276.775V284.077C482.944 284.467 482.82 284.787 482.57 285.037C482.32 285.287 482 285.412 481.61 285.412H475.976C475.614 285.412 475.302 285.281 475.037 285.016C474.773 284.751 474.641 284.439 474.641 284.077V276.774C472.805 276.524 471.032 276.093 469.321 275.482C467.61 274.87 466.198 274.251 465.085 273.625C463.972 272.999 462.943 272.332 461.997 271.622C461.052 270.912 460.405 270.391 460.057 270.056C459.709 269.723 459.466 269.472 459.327 269.305C458.854 268.721 458.826 268.151 459.243 267.595L463.541 261.962C463.736 261.683 464.056 261.516 464.501 261.461C464.918 261.405 465.252 261.53 465.502 261.835L465.586 261.919C468.413 264.395 471.431 266.051 474.64 266.886L474.64 251.498C474.482 251.434 474.336 251.376 474.2 251.321C473.574 251.07 472.719 250.702 471.634 250.215C470.549 249.729 469.68 249.297 469.026 248.923C468.372 248.547 467.586 248.053 466.668 247.441C465.75 246.829 465.006 246.238 464.436 245.668C463.866 245.098 463.26 244.416 462.621 243.624C461.981 242.831 461.487 242.024 461.139 241.203C460.792 240.383 460.499 239.458 460.263 238.428C460.027 237.399 459.908 236.314 459.908 235.174C459.908 231.335 461.271 227.969 463.997 225.076C466.723 222.183 470.27 220.319 474.638 219.485V211.974C474.638 211.612 474.77 211.3 475.034 211.035C475.298 210.771 475.611 210.639 475.973 210.639L481.606 210.639C481.997 210.639 482.317 210.764 482.567 211.014C482.816 211.265 482.941 211.585 482.941 211.974V219.318C484.527 219.485 486.065 219.805 487.552 220.278C489.041 220.751 490.251 221.217 491.183 221.676C492.115 222.135 492.998 222.656 493.832 223.24C494.668 223.825 495.21 224.228 495.46 224.451C495.712 224.673 495.92 224.868 496.087 225.035C496.56 225.536 496.629 226.064 496.296 226.621L492.915 232.713C492.692 233.13 492.372 233.352 491.955 233.38C491.565 233.463 491.191 233.366 490.828 233.088C490.746 233.004 490.543 232.838 490.223 232.587C489.903 232.337 489.361 231.968 488.596 231.482C487.83 230.995 487.017 230.55 486.154 230.146C485.292 229.742 484.255 229.382 483.046 229.062C483.011 229.052 482.977 229.043 482.942 229.034L482.943 244.226C483.743 244.534 484.397 244.792 484.903 245C485.682 245.32 486.739 245.806 488.073 246.46C489.409 247.115 490.459 247.706 491.224 248.234C491.989 248.762 492.852 249.457 493.811 250.32C494.771 251.183 495.508 252.066 496.022 252.97ZM474.639 240.683L474.638 229.463C474.052 229.714 473.509 230.018 473.01 230.376C471.341 231.571 470.507 233.116 470.507 235.007C470.507 235.73 470.625 236.398 470.861 237.01C471.098 237.622 471.508 238.199 472.092 238.742C472.677 239.284 473.226 239.743 473.741 240.118C473.982 240.294 474.281 240.483 474.639 240.683ZM482.944 266.676C483.579 266.41 484.184 266.075 484.758 265.674C486.47 264.478 487.325 262.782 487.325 260.584C487.325 259.805 487.116 259.068 486.698 258.373C486.281 257.677 485.815 257.093 485.301 256.62C484.798 256.159 484.013 255.651 482.943 255.098L482.944 266.676Z" fill="#3D8016"/>
    <mask id="mask0" mask-type="alpha" maskUnits="userSpaceOnUse" x="458" y="210" width="40" height="76">
        <path fill-rule="evenodd" clip-rule="evenodd" d="M496.022 252.97C496.537 253.874 496.975 254.938 497.336 256.161C497.701 257.386 497.882 258.693 497.883 260.084C497.883 264.34 496.499 268.005 493.731 271.079C490.964 274.153 487.368 276.051 482.944 276.775V284.077C482.944 284.467 482.82 284.787 482.57 285.037C482.32 285.287 482 285.412 481.61 285.412H475.976C475.614 285.412 475.302 285.281 475.037 285.016C474.773 284.751 474.641 284.439 474.641 284.077V276.774C472.805 276.524 471.032 276.093 469.321 275.482C467.61 274.87 466.198 274.251 465.085 273.625C463.972 272.999 462.943 272.332 461.997 271.622C461.052 270.912 460.405 270.391 460.057 270.056C459.709 269.723 459.466 269.472 459.327 269.305C458.854 268.721 458.826 268.151 459.243 267.595L463.541 261.962C463.736 261.683 464.056 261.516 464.501 261.461C464.918 261.405 465.252 261.53 465.502 261.835L465.586 261.919C468.413 264.395 471.431 266.051 474.64 266.886L474.64 251.498C474.482 251.434 474.336 251.376 474.2 251.321C473.574 251.07 472.719 250.702 471.634 250.215C470.549 249.729 469.68 249.297 469.026 248.923C468.372 248.547 467.586 248.053 466.668 247.441C465.75 246.829 465.006 246.238 464.436 245.668C463.866 245.098 463.26 244.416 462.621 243.624C461.981 242.831 461.487 242.024 461.139 241.203C460.792 240.383 460.499 239.458 460.263 238.428C460.027 237.399 459.908 236.314 459.908 235.174C459.908 231.335 461.271 227.969 463.997 225.076C466.723 222.183 470.27 220.319 474.638 219.485V211.974C474.638 211.612 474.77 211.3 475.034 211.035C475.298 210.771 475.611 210.639 475.973 210.639L481.606 210.639C481.997 210.639 482.317 210.764 482.567 211.014C482.816 211.265 482.941 211.585 482.941 211.974V219.318C484.527 219.485 486.065 219.805 487.552 220.278C489.041 220.751 490.251 221.217 491.183 221.676C492.115 222.135 492.998 222.656 493.832 223.24C494.668 223.825 495.21 224.228 495.46 224.451C495.712 224.673 495.92 224.868 496.087 225.035C496.56 225.536 496.629 226.064 496.296 226.621L492.915 232.713C492.692 233.13 492.372 233.352 491.955 233.38C491.565 233.463 491.191 233.366 490.828 233.088C490.746 233.004 490.543 232.838 490.223 232.587C489.903 232.337 489.361 231.968 488.596 231.482C487.83 230.995 487.017 230.55 486.154 230.146C485.292 229.742 484.255 229.382 483.046 229.062C483.011 229.052 482.977 229.043 482.942 229.034L482.943 244.226C483.743 244.534 484.397 244.792 484.903 245C485.682 245.32 486.739 245.806 488.073 246.46C489.409 247.115 490.459 247.706 491.224 248.234C491.989 248.762 492.852 249.457 493.811 250.32C494.771 251.183 495.508 252.066 496.022 252.97ZM474.639 240.683L474.638 229.463C474.052 229.714 473.509 230.018 473.01 230.376C471.341 231.571 470.507 233.116 470.507 235.007C470.507 235.73 470.625 236.398 470.861 237.01C471.098 237.622 471.508 238.199 472.092 238.742C472.677 239.284 473.226 239.743 473.741 240.118C473.982 240.294 474.281 240.483 474.639 240.683ZM482.944 266.676C483.579 266.41 484.184 266.075 484.758 265.674C486.47 264.478 487.325 262.782 487.325 260.584C487.325 259.805 487.116 259.068 486.698 258.373C486.281 257.677 485.815 257.093 485.301 256.62C484.798 256.159 484.013 255.651 482.943 255.098L482.944 266.676Z" fill="#3D8016"/>
    </mask>
    <g mask="url(#mask0)">
        <path d="M482.998 219.313C480.217 218.992 476.982 218.901 474.317 219.538V217.845C477.324 217.227 480.274 217.131 483.675 217.845L482.998 219.313Z" fill="black" fill-opacity="0.2"/>
        <path d="M483.282 257.954C479.809 258.881 477.845 260.369 474.334 263.517V267.918L483.282 263.517V257.954Z" fill="black" fill-opacity="0.2"/>
        <path d="M468.038 278.837L474.628 275.094C477.21 268.911 474.885 265.369 473.574 264.747C471.304 267.168 469.682 269.883 467.894 271.936C464.898 270.281 462.227 268.386 459.572 265.421L455.63 264.911L459.29 271.695L468.038 278.837Z" fill="black" fill-opacity="0.2"/>
        <path d="M483.861 244.551C481.018 243.538 477.855 242.413 474.526 240.601L473.592 238.076C476.836 239.671 480.453 241.432 483.788 242.395L483.929 244.575L483.861 244.551Z" fill="black" fill-opacity="0.2"/>
        <path d="M491.158 259.033C486.246 249.465 477.93 252.719 465.053 246.205C467.117 248.539 466.636 250.103 474.617 251.51L482.957 255.121L486.246 261.138L491.158 259.033Z" fill="black" fill-opacity="0.2"/>
        <path d="M478.64 225.444C467.262 226.058 466.684 235.503 472.304 238.995C472.324 233.463 469.851 229.431 478.64 228.669C486.472 227.989 488.637 233.224 489.902 237.886L497.593 233.41C490.502 227.517 485.444 225.077 478.64 225.444Z" fill="black" fill-opacity="0.2"/>
    </g>
    <path d="M464.19 265.042C464.466 265.054 464.699 264.84 464.711 264.564C464.723 264.288 464.508 264.055 464.232 264.043L464.19 265.042ZM454.271 255.717L454.545 255.299L454.539 255.294L454.532 255.29L454.271 255.717ZM443.32 256.833C443.148 256.617 442.833 256.581 442.617 256.754C442.402 256.926 442.366 257.24 442.538 257.456L443.32 256.833ZM464.232 264.043C461.684 263.935 460.061 263.472 458.995 262.848C457.944 262.233 457.396 261.44 457.038 260.577C456.857 260.138 456.724 259.68 456.6 259.208C456.48 258.747 456.363 258.251 456.221 257.79C455.934 256.856 455.507 255.929 454.545 255.299L453.997 256.135C454.668 256.575 455.003 257.231 455.265 258.084C455.399 258.518 455.503 258.966 455.633 259.461C455.76 259.945 455.906 260.456 456.115 260.959C456.538 261.98 457.214 262.964 458.49 263.711C459.749 264.448 461.553 264.93 464.19 265.042L464.232 264.043ZM454.532 255.29C453.507 254.663 452.355 254.695 451.248 254.972C450.147 255.247 449.007 255.788 447.963 256.273C446.889 256.772 445.929 257.207 445.103 257.356C444.309 257.499 443.744 257.364 443.32 256.833L442.538 257.456C443.271 258.375 444.27 258.522 445.281 258.34C446.259 258.163 447.343 257.664 448.385 257.18C449.456 256.682 450.502 256.189 451.491 255.942C452.472 255.696 453.31 255.715 454.01 256.143L454.532 255.29Z" fill="#395F1C"/>
    <path d="M450.279 255.909C453.444 253.659 453.873 249.49 451.18 246.957C448.386 248.933 446.949 252.331 450.279 255.909Z" fill="#55972E"/>
    <path d="M446.528 265.293C449.969 263.222 450.433 259.38 447.502 257.044C444.464 258.863 442.905 261.994 446.528 265.293Z" fill="#55972E"/>
    <path d="M456.582 260.884C461.124 260.721 464.227 256.923 463.225 252.713C459.222 252.846 455.63 255.243 456.582 260.884Z" fill="#55972E"/>
    <path d="M492.736 228.356C498.335 233.125 507.977 229.154 497.853 218.346" stroke="#395F1C" stroke-linecap="round" stroke-linejoin="round"/>
    <path d="M511.588 224.117C507.878 221.831 503.481 223.233 502.157 227.151C505.423 229.174 509.502 229.157 511.588 224.117Z" fill="#55972E"/>
    <path d="M498.137 218.662C499.457 214.128 496.754 210.199 492.311 210.245C491.138 214.24 492.312 218.336 498.137 218.662Z" fill="#55972E"/>
    <path d="M455.076 222.782C459.098 223.971 457.328 227.627 463.536 230.69" stroke="#395F1C" stroke-linecap="round" stroke-linejoin="round"/>
    <path d="M459.585 227.488C457.252 231.171 452.604 231.902 449.603 229.034C451.651 225.783 455.375 223.97 459.585 227.488Z" fill="#55972E"/>
    <path d="M458.224 225.469C462.058 223.394 463.107 218.808 460.452 215.616C457.068 217.436 455.003 221.027 458.224 225.469Z" fill="#55972E"/>
    <path d="M503.596 250.072C499.574 251.261 501.344 254.916 495.137 257.98" stroke="#395F1C" stroke-linecap="round" stroke-linejoin="round"/>
    <path d="M499.087 254.778C501.42 258.46 506.068 259.191 509.07 256.323C507.021 253.072 503.297 251.259 499.087 254.778Z" fill="#55972E"/>
    <path d="M500.449 252.758C496.614 250.684 495.566 246.097 498.22 242.906C501.604 244.726 503.67 248.316 500.449 252.758Z" fill="#55972E"/>
    <path d="M442.894 279.402C438.924 278.808 436.872 281.485 433.701 284.584H541.169C536.438 258.416 521.259 257.218 511.106 267.012C503.672 261.142 491.383 256.866 483.264 259.659C475.534 262.318 471.876 269.759 468.416 274.314C463.256 273.738 456.426 268.407 450.018 270.118C446.66 271.299 444.242 273.906 442.894 279.402Z" fill="#C26926"/>
    <path d="M501.962 276.034C506.464 273.846 501.962 266.831 499.438 267.296C498.092 267.544 496.958 270.133 496.577 273.355C496.198 276.553 499.137 277.407 501.962 276.034Z" fill="#A75517"/>
    <path d="M528.987 272.506C529.205 269.454 524.115 269.693 523.589 271.172C523.309 271.96 524.333 273.352 525.923 274.539C527.5 275.717 528.851 274.422 528.987 272.506Z" fill="#A75517"/>
    <circle cx="484.29" cy="268.946" r="1.67217" fill="#A75517"/>
    <circle cx="514.226" cy="278.39" r="1.1788" fill="#A75517"/>
    <path d="M442.719 294.099H532.151C529.247 288.879 524.743 286.474 520.193 285.861C514.331 285.332 509.94 288.208 503.091 288.208C500.981 288.208 498.531 284.352 494.702 281.539C491.903 279.484 487.68 278.214 485.726 278.279C481.196 277.969 473.684 281.684 464.713 291.444C462.747 288.097 454.443 282.403 442.719 294.099Z" fill="#C26926"/>
    <path d="M469.009 284.584H379.577C382.481 279.364 386.986 276.959 391.535 276.346C397.397 275.817 401.788 278.694 408.638 278.694C410.747 278.694 413.197 274.837 417.027 272.025C419.826 269.969 424.048 268.7 426.002 268.764C435.993 269.093 438.044 272.169 447.015 281.929C448.982 278.583 457.286 272.888 469.009 284.584Z" fill="#C26926"/>
    <circle cx="425.767" cy="277.342" r="3.55164" fill="#A75517"/>
    <circle r="3.55164" transform="matrix(-1 0 0 1 485.962 286.857)" fill="#A75517"/>
    <path d="M482.233 306.246H419.652C422.545 300.833 425.496 297.083 430.251 293.687C433.05 291.631 437.272 290.362 439.226 290.426C443.757 290.116 451.268 293.831 460.239 303.591C462.206 300.245 470.51 294.551 482.233 306.246Z" fill="#C26926"/>
    <circle cx="447.51" cy="300.203" r="1.1788" fill="#A75517"/>
    <circle cx="435.314" cy="298.327" r="3.05439" fill="#A75517"/>
    <path d="M478.639 321.321H513.047C511.456 318.345 509.834 316.283 507.22 314.416C505.681 313.286 503.359 312.588 502.285 312.624C499.794 312.453 495.664 314.496 490.732 319.862C489.651 318.022 485.085 314.891 478.639 321.321Z" fill="#C26926"/>
    <circle r="1.67932" transform="matrix(-1 0 0 1 502.145 317.269)" fill="#A75517"/>
    <path d="M145.611 230.573C149.601 215.957 162.35 207.567 174.77 207.321C199.374 207.321 203.889 234.243 203.889 234.243C205.823 243.052 206.161 258.27 199.323 265.845C193.512 272.281 181.144 271.822 174.77 271.822C160.892 271.822 152.758 269.946 148.184 263.766C141.551 254.806 143.167 239.528 145.611 230.573Z" fill="#F88A24"/>
    <ellipse cx="183.72" cy="236.368" rx="13.1576" ry="16.5811" transform="rotate(-6.36536 183.72 236.368)" fill="#F7CC7F"/>
    <path d="M190.949 242.199C190.713 241.756 190.473 241.315 190.217 240.881C189.99 240.495 189.74 240.4 189.306 240.547C188.756 240.734 188.221 240.962 187.669 241.136C186.605 241.475 185.516 241.608 184.407 241.379C183.017 241.093 182.2 240.191 181.63 238.977L185.282 238.602C185.568 238.573 185.776 238.318 185.746 238.032L185.628 236.881C185.599 236.594 185.344 236.387 185.057 236.416L181.056 236.827C181.023 236.505 180.987 236.198 180.959 235.889L184.961 235.479C185.248 235.449 185.455 235.195 185.426 234.908L185.307 233.757C185.278 233.47 185.023 233.263 184.737 233.293L181.239 233.652C181.237 233.638 181.236 233.624 181.242 233.616C181.564 232.618 182.097 231.789 183.06 231.287C184.181 230.706 185.375 230.594 186.604 230.719C187.186 230.775 187.764 230.893 188.347 230.964C188.773 231.016 189.002 230.868 189.14 230.462C189.301 229.993 189.443 229.519 189.585 229.041C189.719 228.593 189.583 228.299 189.153 228.103C189.045 228.054 188.935 228.016 188.822 227.985C187.069 227.5 185.305 227.434 183.54 227.905C182.298 228.237 181.164 228.792 180.227 229.687C179.046 230.812 178.348 232.209 178.023 233.801L177.982 233.986L176.184 234.17C175.897 234.2 175.69 234.454 175.72 234.741L175.838 235.892C175.867 236.179 176.122 236.386 176.409 236.356L177.825 236.211C177.858 236.526 177.889 236.83 177.921 237.148L176.505 237.294C176.218 237.323 176.011 237.578 176.04 237.865L176.158 239.015C176.188 239.302 176.442 239.509 176.729 239.48L178.436 239.305C178.609 239.711 178.761 240.127 178.967 240.512C180.044 242.508 181.645 243.843 183.897 244.326C185.758 244.725 187.572 244.521 189.336 243.835C189.795 243.657 190.246 243.441 190.673 243.189C191.086 242.945 191.163 242.597 190.949 242.199Z" fill="#F88A24"/>
    <path d="M187.922 192.281C189.768 193.888 185.873 196.499 183.204 202.504C175.017 201.388 165.366 203.018 165.366 203.018C162.733 198.651 160.204 196.204 159.661 194.48C159.118 192.755 159.846 192.294 161.713 192.058C163.58 191.822 163.531 191.025 164.921 190.658C167.599 190.315 167.929 192.522 169.912 192.722C171.895 192.922 173.11 190.242 175.439 190.315C177.767 190.389 178.537 193.226 180.233 193.534C181.929 193.841 184.588 189.993 187.922 192.281Z" fill="#F88A24"/>
    <path d="M173.84 200.479C173.84 200.479 183.783 200.479 184.096 203.77C184.175 204.6 183.522 205.829 182.438 206.667H165.522C164.657 205.874 163.905 204.793 164.159 203.77C164.693 201.459 169.924 200.403 173.84 200.479Z" fill="#F7CC7F"/>
    <path d="M173.873 204.151C173.873 204.151 184.906 203.773 184.081 207.554C183.256 211.335 177.928 207.966 173.873 208.207C169.817 208.448 164.386 211.06 164.077 207.554C163.767 204.048 173.873 204.151 173.873 204.151Z" fill="#F1B13D"/>
    <path d="M94.1265 193.213L96.9468 192.57L95.0419 195.44L94.1265 193.213Z" fill="#E9B319"/>
    <path d="M94.7586 163.499L94.5384 178.695L96.08 196.093L91.235 197.414V166.142L94.7586 163.499Z" fill="#913F26"/>
    <path d="M96.961 192.569C95.992 194.067 94.4064 195.168 92.5564 196.093L96.0801 225.604C96.0801 225.604 100.485 227.366 102.687 226.044C104.008 225.163 105.11 222.08 105.33 220.318C105.506 218.689 104.449 215.914 102.247 212.831C102.247 212.831 98.7229 208.426 97.8419 205.783C96.961 203.14 96.961 192.569 96.961 192.569Z" fill="#FDD02E"/>
    <path d="M128.842 260.851C128.666 260.586 110.527 232.96 105.814 226.969C101.321 221.243 92.9087 216.575 92.8206 216.53L94.9348 212.654C95.3312 212.875 104.184 217.808 109.25 224.239C114.095 230.405 129.863 255.071 130.524 256.128L128.842 260.851Z" fill="#709FD4"/>
    <path d="M98.2822 213.711C98.2822 213.711 96.9609 222.212 98.2822 223.005C99.6036 223.798 100.044 221.199 100.044 221.199C100.485 218.556 102.246 217.676 103.656 218.38L98.2822 213.711Z" fill="#FDD02E"/>
    <path d="M98.2822 213.711C98.2822 213.711 96.9609 222.212 98.2822 223.005C99.6036 223.798 100.044 221.199 100.044 221.199C100.485 218.556 102.246 217.676 103.656 218.38" stroke="#E9B319" stroke-miterlimit="10" stroke-linecap="round"/>
    <path d="M95.1991 206.223C97.9317 218.441 100.113 235.08 102.727 252.471C104.058 261.329 105.001 267.319 107.894 282.413C102.906 286.371 99.7053 287.699 93.8597 286.672C88.9963 275.656 84.7273 268.515 85.9964 254.202L81.5448 238.586L81.5449 208.426L95.1991 206.223Z" fill="#113956"/>
    <path d="M93.2764 285.666C97.8098 286.105 104.275 284.099 107.573 281.152C107.866 280.911 108.322 281.079 108.401 281.465C109.637 289.274 113.479 303.528 116.491 306.752C120.773 310.681 128.589 309.081 131.931 307.332C135.272 305.582 136.227 309.167 136.227 309.167C136.227 309.167 137.732 313.081 135.459 315.436C133.474 317.23 131.052 318.268 128.313 319.131C125.574 319.993 121.429 319.976 119.087 320.717C116.746 321.457 116.335 322.989 112.393 324.258C108.451 325.527 105.482 324.185 105.482 324.185C103.553 323.212 103.654 322.327 102.776 318.626C101.918 315.022 101.507 307.023 92.5971 286.669C92.3707 286.153 92.743 285.614 93.2764 285.666Z" fill="#C56C2A"/>
    <path d="M136.699 312.851C135.918 313.553 134.104 314.709 129.903 316.091C123.168 318.254 121.171 317.536 118.636 318.316C116.133 319.15 115.68 320.67 111.491 322.01C107.301 323.35 103.595 322.038 103.595 322.038C103.951 323.091 104.359 323.61 105.482 324.185C105.482 324.185 108.451 325.528 112.393 324.258C116.336 322.989 116.842 321.438 119.142 320.686C121.441 319.934 125.628 319.962 128.367 319.1C131.106 318.237 133.528 317.199 135.513 315.405C136.221 314.637 136.556 313.724 136.699 312.851Z" fill="#9C5C30"/>
    <path d="M83.9978 244.74C83.9978 244.74 84.3434 249.116 86.0365 254.247C88.4089 248.291 86.719 236.451 87.5999 229.007C88.4808 221.563 91.7195 210.408 91.7195 210.408L83.4829 218.424L82.0732 237.683L83.9978 244.74Z" fill="#0E2940"/>
    <path d="M69.6523 252.912C61.2821 262.166 58.8688 269.589 56.9151 282.005C61.4518 283.723 66.3907 287.648 71.1477 286.018C75.1367 276.495 77.3548 271.548 79.3809 266.526C81.5392 261.153 83.747 257.757 85.0683 252.472C85.9493 248.067 84.6279 233.532 85.0683 218.557L95.1989 206.224C94.7836 204.289 94.4321 202.341 94.1384 200.38H62.815C61.8067 206.601 60.8634 211.989 60.8431 216.266C60.8431 230.889 69.6523 252.912 69.6523 252.912Z" fill="#113956"/>
    <path d="M62.6355 202.521L63.9265 141.872L71.4143 138.789C71.4143 138.789 74.0571 145.836 83.3068 145.836C88.1518 145.836 87.7114 140.551 87.7114 140.551C90.8386 142.18 94.3183 144.515 95.1992 145.836C96.3003 147.818 96.8289 162.265 96.8289 168.168C95.3313 169.078 93.2752 169.496 91.2339 169.653C91.2339 189.655 94.7804 203.2 94.7804 203.2C85.8937 206.575 74.7717 206.764 62.6355 202.521Z" fill="#537FF5"/>
    <path d="M69.1969 153.846C70.4737 170.584 68.872 169.601 70.4737 180.212C70.926 183.783 70.9778 183.34 71.8824 187.098C72.6069 189.206 74.4839 189.93 75.8841 191.674C77.7458 193.993 76.4019 201.956 79.1503 205.746C75.0999 205.653 73.0652 205.328 69.7297 204.411L64.763 165.744L69.1969 153.846Z" fill="#416BDC"/>
    <path d="M91.2683 151.626V169.718L93.5838 169.337L91.2683 151.626Z" fill="#416BDC"/>
    <path d="M69.6525 252.912C69.6525 252.912 60.8433 230.889 60.8433 216.266C60.8615 212.451 61.6138 207.753 62.4916 202.368L72.4117 204.954L74.6737 228.246C75.5546 229.964 75.8189 233.972 71.8548 232.827C68.1109 231.462 65.7764 231.462 66.1288 233.972C67.8466 240.623 69.0799 246.922 69.6525 252.912Z" fill="#0E2940"/>
    <path d="M57.3463 280.594C60.9207 283.421 67.4498 285.262 71.7888 284.555C72.1748 284.476 72.4779 284.877 72.3327 285.248C69.1237 292.459 64.624 306.53 65.416 310.891C66.8705 316.525 74.3006 319.428 78.088 319.759C81.8753 320.09 80.6936 323.649 80.6936 323.649C80.6936 323.649 79.8233 327.748 76.6589 328.496C74.0339 328.933 71.4242 328.461 68.6587 327.72C65.8933 326.979 62.4062 324.677 60.0663 324.05C57.7263 323.423 56.4483 324.449 52.449 323.377C48.4498 322.305 46.6798 319.551 46.6798 319.551C45.5897 317.663 46.1778 317 47.4135 313.409C48.6264 309.904 52.621 302.994 56.2279 281.024C56.3107 280.545 56.9239 280.299 57.3463 280.594Z" fill="#C56C2A"/>
    <path d="M79.0126 327.029C77.9626 327.204 75.8262 327.179 71.5717 326.039C64.7219 324.203 63.4472 322.494 60.8945 321.81C58.3418 321.126 57.1489 322.174 52.8943 321.034C48.6398 319.894 46.2461 316.745 46.2461 316.745C45.9611 317.808 46.0454 318.515 46.6683 319.594C46.6683 319.594 48.4383 322.348 52.4375 323.42C56.4368 324.491 57.7148 323.466 60.0547 324.093C62.3947 324.72 65.8818 327.022 68.6472 327.763C71.4127 328.504 74.0224 328.975 76.6474 328.539C77.6776 328.268 78.4245 327.693 79.0126 327.029Z" fill="#9C5C30"/>
    <path d="M58.2006 197.855C62.2088 200.41 69.2121 198.736 72.2953 194.331C67.8907 194.331 62.1207 195.961 58.2006 197.855Z" fill="#E9B319"/>
    <path d="M57.7601 168.784C57.7601 168.784 57.3196 178.034 57.3196 180.236C57.3196 182.439 62.7813 200.497 62.7813 200.497L70.5334 197.855L66.5693 179.355V168.344L57.7601 168.784Z" fill="#913F26"/>
    <path d="M65.2479 199.661C63.9705 194.727 60.4028 180.545 60.4028 178.034C60.4028 174.951 63.0456 170.106 63.0456 170.106L63.2218 168.52L57.7601 168.784C57.7601 168.784 57.3196 178.034 57.3196 180.236C57.3196 182.439 62.7813 200.497 62.7813 200.497L65.2479 199.661Z" fill="#72311D"/>
    <path d="M54.6768 170.546C54.6768 170.546 62.605 171.427 67.6703 170.546C68.7715 159.535 71.4142 142.357 63.9264 141.917C54.2363 141.036 55.5577 161.737 54.6768 170.546Z" fill="#537FF5"/>
    <circle cx="63.3832" cy="161.926" r="1.52841" fill="#7DA1FF"/>
    <circle cx="76.8943" cy="153.774" r="1.52841" fill="#7DA1FF"/>
    <circle cx="76.8943" cy="179.822" r="1.52841" fill="#7DA1FF"/>
    <circle cx="84.0268" cy="167.595" r="1.52841" fill="#7DA1FF"/>
    <circle cx="85.5165" cy="191.842" r="1.52841" fill="#7DA1FF"/>
    <path d="M71.4144 138.833C74.6738 135.794 76.788 131.301 77.5808 125.179L85.0686 129.584C84.6282 134.385 85.2448 138.261 87.7114 140.595C89.9137 153.809 72.2953 146.321 71.4144 138.833Z" fill="#913F26"/>
    <path d="M77.2061 125.758L85.0684 129.584C84.9803 130.773 84.8776 132.499 85.0074 134.018C82.4968 133.666 77.6465 130.163 77.2061 125.758Z" fill="#72311D"/>
    <path d="M95.95 113.226C95.95 113.226 95.0501 125.983 87.3116 131.23C85.4653 132.482 80.2185 129.609 78.4534 128.056C76.6883 126.503 75.5032 125.212 75.0514 123.056C75.0514 123.056 72.1743 123.056 71.1424 118.911C70.5012 115.723 72.7785 114.153 75.5745 115.384C75.5745 115.384 76.2553 106.515 86.0174 106.72C95.7794 106.925 95.95 113.226 95.95 113.226Z" fill="#913F26"/>
    <path d="M73.2208 118.024C73.2208 118.024 75.0165 117.55 75.5761 119.733" stroke="#252425" stroke-width="0.7" stroke-linecap="round"/>
    <path d="M75.5611 119.713C75.0596 119.241 74.7381 119.143 74.1044 119.244" stroke="#252425" stroke-width="0.7" stroke-linecap="round"/>
    <ellipse rx="2.08764" ry="0.711746" transform="matrix(-0.995783 0.0917355 0.0917355 0.995783 84.2653 116.426)" fill="#252425"/>
    <ellipse cx="92.0512" cy="116.535" rx="2.08764" ry="0.711746" transform="rotate(6.87512 92.0512 116.535)" fill="#252425"/>
    <circle r="0.835757" transform="matrix(-0.999901 -0.0140639 -0.0140639 0.999901 85.0828 119.95)" fill="#252425"/>
    <circle r="0.835757" transform="matrix(-0.999901 -0.0140639 -0.0140639 0.999901 91.6965 120.043)" fill="#252425"/>
    <path d="M89.0951 119.749L90.0344 123.398C90.0854 123.596 89.9339 123.789 89.7292 123.786L87.7373 123.758C87.5321 123.755 87.3861 123.558 87.4433 123.361L88.496 119.739C88.5842 119.436 89.0164 119.443 89.0951 119.749Z" fill="#CE6A4C"/>
    <path d="M87.7852 126.388C86.6207 127.099 84.8679 126.925 84.3692 125.15" stroke="#252425" stroke-width="0.7" stroke-linecap="round"/>
    <path d="M75.5604 115.5C75.5604 115.5 77.0687 116.264 77.4115 119.199C77.5931 120.037 78.347 117.813 78.6607 116.824C78.9743 115.836 79.2079 114.353 79.3323 113.545C79.3323 113.545 79.7302 111.215 83.8135 111.671C87.4504 112.078 94.6115 115.448 97.7013 112.96C101.726 109.717 100.267 100.988 91.5739 102.156C91.7646 98.8185 85.3561 94.2421 80.3183 100.026C77.679 96.0675 69.5618 98.8818 70.3717 106.333C64.4418 105.328 62.4366 112.501 67.1289 115.5C63.4558 119.875 66.0026 125.568 71.1347 125.042C70.3904 128.458 73.2406 131.38 76.6913 129.82L77.4115 126.973C75.8412 125.531 76.1147 123.724 75.8926 122.826C73.8942 123.025 72.5525 121.606 72.1347 120.776C71.6654 119.844 71.3733 119.199 71.4941 117.751C71.7227 115.008 74.3516 114.747 75.5604 115.5Z" fill="#252425"/>
    <path d="M186.541 284.422L184.453 288.3L195.893 294.461L197.982 290.582L186.541 284.422Z" fill="#709FD4"/>
    <path d="M223.813 272.337L180.076 294.14L138.937 278.723C132.154 276.257 128.806 262.647 124.666 246.746L223.813 272.337Z" fill="#B7D2F0"/>
    <path d="M223.814 272.337L211.349 278.547L126.296 252.78C125.767 250.798 125.239 248.816 124.71 246.746L223.814 272.337Z" fill="#ACC8EB"/>
    <path d="M121.539 247.935L121.23 245.425C121.186 245.116 121.318 244.852 121.539 244.676L122.596 243.883C122.772 243.751 123.036 243.707 123.3 243.751L224.914 269.606C225.047 269.65 225.179 269.694 225.267 269.826L227.117 271.676C227.469 272.028 227.425 272.557 227.073 272.865L225.443 274.231C225.223 274.407 224.959 274.451 224.738 274.407L122.155 248.64C121.847 248.552 121.583 248.288 121.539 247.935Z" fill="#89B2E7"/>
    <path d="M210.82 326.469C222.375 326.469 231.742 317.102 231.742 305.547C231.742 293.993 222.375 284.626 210.82 284.626C199.265 284.626 189.898 293.993 189.898 305.547C189.898 317.102 199.265 326.469 210.82 326.469Z" fill="#2B4171"/>
    <path d="M210.82 318.541C217.996 318.541 223.813 312.723 223.813 305.547C223.813 298.371 217.996 292.554 210.82 292.554C203.644 292.554 197.826 298.371 197.826 305.547C197.826 312.723 203.644 318.541 210.82 318.541Z" fill="#1A2F5A"/>
    <path d="M210.82 309.922C213.236 309.922 215.194 307.963 215.194 305.547C215.194 303.131 213.236 301.173 210.82 301.173C208.404 301.173 206.446 303.131 206.446 305.547C206.446 307.963 208.404 309.922 210.82 309.922Z" fill="#415786"/>
    <path d="M227.909 314.445C229.803 315.105 231.962 315.678 233.812 315.678C235.529 315.678 236.983 315.193 237.688 313.784C237.908 313.255 238.084 312.639 237.82 311.846C237.158 310.034 234.069 308.359 231.695 307.215L231.324 309.822C232.541 310.494 233.726 311.254 233.415 311.493C232.622 311.934 229.451 310.745 229.451 310.745L137.835 275.948C134.356 274.627 124.622 270.751 121.538 268.681C118.631 266.787 100.705 243.53 93.9657 234.765C91.8955 232.079 90.3979 230.096 89.6492 229.171C85.5969 224.062 76.4794 220.23 76.083 220.054L74.3652 224.106C74.4533 224.106 82.822 227.674 86.1695 231.902C86.8743 232.827 88.4599 234.853 90.442 237.452C105.55 257.009 116.165 270.443 119.072 272.381C123.168 275.111 135.721 279.868 136.25 280.089L227.909 314.445Z" fill="#709FD4"/>
    <path d="M58.2006 197.855C62.6052 199.176 69.2121 197.414 72.2953 194.331C72.4275 200.145 72.6477 205.739 73.1762 209.747C73.6167 211.95 75.0262 213.227 76.8321 214.901C78.9903 216.971 80.388 219.284 80.6523 222.367L77.1404 220.759C76.3916 222.741 75.9511 225.031 75.819 227.674C75.775 228.291 75.5547 228.907 75.0262 229.304C73.8369 230.229 71.987 229.656 71.3704 228.247C69.6085 229.128 67.7145 228.247 67.4062 226.485C65.7765 226.309 64.7635 225.56 64.323 224.282C64.323 224.282 62.1207 223.402 62.1207 221.199C62.1207 218.997 65.2039 214.592 64.8075 211.289C64.367 205.783 58.2006 197.855 58.2006 197.855Z" fill="#FDD02E"/>
    <path d="M71.4144 228.246L71.8548 222.52" stroke="#E9B319" stroke-miterlimit="10" stroke-linecap="round"/>
    <path d="M67.4501 226.485L67.8906 220.759" stroke="#E9B319" stroke-miterlimit="10" stroke-linecap="round"/>
    <path d="M64.367 224.283L64.8074 219.878" stroke="#E9B319" stroke-miterlimit="10" stroke-linecap="round"/>
    <path d="M61.0634 142.357C54.5006 145.484 55.4255 162.706 54.6768 170.502C54.6768 170.502 56.7469 170.723 59.4337 170.855C56.835 163.367 57.1433 150.153 61.0634 142.357Z" fill="#416BDC"/>
    <path d="M136.382 318.761C135.501 318.761 134.62 318.585 133.739 318.233L133.695 318.189C128.938 316.163 127.881 308.587 130.612 295.637C132.55 286.431 135.765 277.622 135.809 277.534L138.276 278.459C133.519 291.453 128.322 313.035 134.664 315.766C137.527 316.823 140.258 316.339 151.182 301.231C161.973 286.255 178.578 292.157 178.754 292.202L177.829 294.668C177.213 294.448 162.942 289.427 153.34 302.728C144.795 314.533 140.566 318.761 136.382 318.761Z" fill="#709FD4"/>
    <path d="M201.709 110.844C204.443 100.828 213.18 95.0782 221.691 94.9097C238.553 94.9097 241.647 113.359 241.647 113.359C242.972 119.396 243.204 129.825 238.518 135.016C234.536 139.426 226.06 139.112 221.691 139.112C212.181 139.112 206.607 137.826 203.472 133.591C198.927 127.451 200.034 116.981 201.709 110.844Z" fill="#F88A24"/>
    <ellipse cx="227.825" cy="114.815" rx="9.01687" ry="11.3631" transform="rotate(-6.36536 227.825 114.815)" fill="#F7CC7F"/>
    <path d="M231.826 117.113L231.568 117.611C231.34 118.049 230.936 118.372 230.459 118.498C230.033 118.611 229.561 118.553 229.161 118.341C228.853 118.151 228.52 118.01 228.173 117.921C228.439 117.291 228.533 116.605 228.444 115.918C228.439 115.874 228.432 115.829 228.425 115.785L230.756 115.484L230.527 113.705L227.698 114.07C227.172 113.549 226.996 113.144 226.947 112.763C226.823 111.805 227.502 110.924 228.461 110.8C229.222 110.702 229.95 111.102 230.275 111.796L231.899 111.036C231.583 110.36 231.07 109.809 230.416 109.443C229.748 109.069 228.993 108.923 228.232 109.021C226.292 109.272 224.918 111.053 225.168 112.993C225.23 113.47 225.387 113.928 225.627 114.338L224.079 114.537L224.308 116.316L226.644 116.015C226.653 116.059 226.66 116.103 226.666 116.148C226.77 116.956 226.372 117.78 225.675 118.202C225.167 118.462 224.726 118.845 224.398 119.309L224.074 119.767L225.539 120.802L225.863 120.344C225.997 120.154 226.172 119.99 226.371 119.866C226.371 119.866 226.495 119.8 226.532 119.778C226.634 119.729 226.74 119.69 226.846 119.662C227.316 119.538 227.82 119.615 228.231 119.875L228.279 119.903C228.945 120.268 229.725 120.415 230.476 120.318C230.625 120.299 230.773 120.27 230.917 120.232C231.882 119.977 232.699 119.323 233.159 118.437L233.417 117.94L231.826 117.113Z" fill="#F88A24"/>
    <path d="M230.705 84.6026C231.969 85.7038 229.3 87.4928 227.471 91.6081C221.861 90.8435 215.247 91.9603 215.247 91.9603C213.442 88.9682 211.71 87.2912 211.338 86.1093C210.965 84.9273 211.464 84.6116 212.744 84.4498C214.023 84.288 213.989 83.7417 214.942 83.49C216.778 83.2554 217.004 84.7675 218.363 84.9045C219.722 85.0415 220.554 83.205 222.15 83.2554C223.745 83.3058 224.273 85.2499 225.435 85.4609C226.598 85.6718 228.42 83.0346 230.705 84.6026Z" fill="#F88A24"/>
    <path d="M221.054 90.2207C221.054 90.2207 227.868 90.2207 228.083 92.4759C228.137 93.0449 227.69 93.8867 226.947 94.4613H215.354C214.761 93.9181 214.246 93.1768 214.42 92.4759C214.786 90.892 218.37 90.1683 221.054 90.2207Z" fill="#F7CC7F"/>
    <path d="M221.076 92.7371C221.076 92.7371 228.638 92.478 228.072 95.069C227.507 97.66 223.856 95.3516 221.076 95.5165C218.297 95.6814 214.575 97.4716 214.363 95.069C214.151 92.6664 221.076 92.7371 221.076 92.7371Z" fill="#F1B13D"/>
    <path d="M168.044 87.7492L169.92 87.3214L168.653 89.2301L168.044 87.7492Z" fill="#E9B319"/>
    <path d="M168.465 67.9856L168.318 78.0927L169.343 89.6647L166.121 90.5435V69.7434L168.465 67.9856Z" fill="#E8A374"/>
    <path d="M169.825 83.4311L168.732 71.6548L165.053 70.9125L165.675 84.6069L169.825 83.4311Z" fill="#7A61E1"/>
    <path d="M169.929 87.3212C169.285 88.3172 168.23 89.0496 167 89.6648L169.344 109.293C169.344 109.293 172.273 110.465 173.738 109.586C174.617 109 175.349 106.95 175.496 105.778C175.613 104.694 174.91 102.848 173.445 100.797C173.445 100.797 171.101 97.8677 170.515 96.11C169.929 94.3522 169.929 87.3212 169.929 87.3212Z" fill="#FDD02E"/>
    <path d="M191.134 132.737C191.017 132.561 178.953 114.186 175.818 110.201C172.83 106.393 167.234 103.288 167.176 103.258L168.582 100.68C168.845 100.827 174.734 104.108 178.103 108.385C181.326 112.486 191.814 128.892 192.253 129.595L191.134 132.737Z" fill="#709FD4"/>
    <path d="M170.808 101.383C170.808 101.383 169.929 107.037 170.808 107.565C171.687 108.092 171.98 106.364 171.98 106.364C172.273 104.606 173.445 104.02 174.382 104.489L170.808 101.383Z" fill="#FDD02E"/>
    <path d="M170.808 101.383C170.808 101.383 169.929 107.037 170.808 107.565C171.687 108.092 171.98 106.364 171.98 106.364C172.273 104.606 173.445 104.02 174.382 104.489" stroke="#E9B319" stroke-miterlimit="10" stroke-linecap="round"/>
    <path d="M168.758 96.4028C170.575 104.529 172.026 115.596 173.764 127.163C174.65 133.055 175.277 137.039 177.201 147.078C173.883 149.711 171.755 150.594 167.867 149.911C164.632 142.584 161.793 137.834 162.637 128.315L159.676 117.928L159.676 97.8676L168.758 96.4028Z" fill="#1B3767"/>
    <path d="M167.479 149.242C170.494 149.534 174.794 148.199 176.988 146.239C177.182 146.079 177.486 146.191 177.539 146.448C178.361 151.642 180.916 161.122 182.919 163.266C185.768 165.88 190.966 164.816 193.189 163.652C195.411 162.489 196.046 164.873 196.046 164.873C196.046 164.873 197.047 167.477 195.535 169.043C194.215 170.236 192.604 170.927 190.783 171.5C188.961 172.073 186.204 172.063 184.646 172.555C183.089 173.048 182.816 174.066 180.194 174.911C177.571 175.755 175.597 174.862 175.597 174.862C174.314 174.215 174.381 173.626 173.797 171.164C173.226 168.767 172.953 163.447 167.027 149.909C166.876 149.566 167.124 149.207 167.479 149.242Z" fill="#C56C2A"/>
    <path d="M196.36 167.323C195.841 167.79 194.634 168.559 191.84 169.478C187.36 170.917 186.032 170.439 184.346 170.958C182.681 171.513 182.38 172.524 179.593 173.415C176.807 174.306 174.342 173.434 174.342 173.434C174.579 174.134 174.85 174.48 175.597 174.862C175.597 174.862 177.571 175.755 180.194 174.911C182.816 174.066 183.153 173.035 184.682 172.534C186.211 172.034 188.997 172.053 190.819 171.479C192.64 170.906 194.251 170.215 195.571 169.022C196.042 168.512 196.265 167.904 196.36 167.323Z" fill="#9C5C30"/>
    <path d="M161.307 122.021C161.307 122.021 161.537 124.932 162.663 128.344C164.241 124.383 163.117 116.508 163.703 111.557C164.289 106.606 166.443 99.186 166.443 99.186L160.965 104.518L160.027 117.328L161.307 122.021Z" fill="#12274A"/>
    <path d="M151.766 127.457C146.199 133.612 144.593 138.549 143.294 146.807C146.311 147.949 149.596 150.56 152.76 149.476C155.414 143.142 156.889 139.852 158.236 136.512C159.672 132.938 161.14 130.679 162.019 127.164C162.605 124.234 161.726 114.567 162.019 104.606L168.757 96.403C168.481 95.1159 168.247 93.8205 168.052 92.5165H147.218C146.547 96.654 145.92 100.238 145.907 103.082C145.907 112.809 151.766 127.457 151.766 127.457Z" fill="#1B3767"/>
    <path d="M147.099 93.9404L147.957 53.6013L152.938 51.5505C152.938 51.5505 154.696 56.2379 160.848 56.2379C164.07 56.2379 163.777 52.7224 163.777 52.7224C165.857 53.8063 168.172 55.359 168.758 56.2379C169.49 57.5562 168.719 67.775 168.719 71.7007C167.723 72.3064 167.478 71.9742 166.12 72.0789C166.12 85.383 168.479 94.3921 168.479 94.3921C162.568 96.6364 155.171 96.7625 147.099 93.9404Z" fill="#7A61E1"/>
    <path d="M156.393 66.251C159.493 66.5513 161.156 66.6269 163.713 66.251V70.5988C160.993 71.3303 159.467 71.1332 156.747 70.5988L156.393 66.251Z" fill="#977DFF"/>
    <path d="M150.05 59.7026C151.936 66.1035 151.247 72.0444 152.312 79.1019C152.613 81.4772 152.647 81.1825 153.249 83.682C153.731 85.0838 154.979 85.5657 155.911 86.7256C157.149 88.2677 156.255 93.5642 158.083 96.0851C155.389 96.0234 154.036 95.8071 151.817 95.1974L148.514 69.4791L150.05 59.7026Z" fill="#614AC0"/>
    <path d="M166.143 60.089C166.004 69.1392 165.658 73.9495 166.832 84.2957L168.218 83.8336C167.042 75.3915 166.737 69.8531 166.143 60.089Z" fill="#614AC0"/>
    <path d="M151.766 127.457C151.766 127.457 145.907 112.809 145.907 103.082C145.919 100.545 146.419 97.4199 147.003 93.8383L153.601 95.5584L155.106 111.051C155.692 112.193 155.867 114.859 153.231 114.098C150.741 113.189 149.188 113.189 149.422 114.859C150.565 119.283 151.385 123.472 151.766 127.457Z" fill="#12274A"/>
    <path d="M143.581 145.869C145.958 147.749 150.301 148.973 153.187 148.503C153.444 148.451 153.645 148.717 153.549 148.964C151.414 153.76 148.421 163.119 148.948 166.02C149.916 169.767 154.857 171.698 157.377 171.918C159.896 172.138 159.11 174.505 159.11 174.505C159.11 174.505 158.531 177.232 156.426 177.729C154.68 178.02 152.944 177.706 151.105 177.213C149.266 176.72 146.946 175.189 145.39 174.772C143.833 174.355 142.983 175.037 140.323 174.324C137.663 173.612 136.486 171.78 136.486 171.78C135.761 170.524 136.152 170.083 136.974 167.695C137.781 165.363 140.438 160.767 142.837 146.155C142.892 145.836 143.3 145.672 143.581 145.869Z" fill="#C56C2A"/>
    <path d="M157.992 176.754C157.293 176.87 155.872 176.853 153.042 176.095C148.486 174.874 147.639 173.737 145.941 173.282C144.243 172.827 143.449 173.524 140.62 172.766C137.79 172.008 136.198 169.913 136.198 169.913C136.008 170.621 136.064 171.09 136.479 171.808C136.479 171.808 137.656 173.64 140.316 174.353C142.976 175.065 143.826 174.383 145.382 174.8C146.939 175.217 149.258 176.749 151.097 177.242C152.937 177.734 154.672 178.048 156.418 177.758C157.104 177.577 157.6 177.195 157.992 176.754Z" fill="#9C5C30"/>
    <path d="M144.149 90.8366C146.815 92.5358 151.473 91.4225 153.524 88.4929C150.594 88.4929 146.756 89.5769 144.149 90.8366Z" fill="#E9B319"/>
    <path d="M143.856 71.5011C143.856 71.5011 143.563 77.6533 143.563 79.1181C143.563 80.5829 147.196 92.5942 147.196 92.5942L152.352 90.8365L149.715 78.5321V71.2081L143.856 71.5011Z" fill="#F2B88D"/>
    <path d="M148.836 92.0376C147.987 88.7565 145.614 79.3231 145.614 77.6533C145.614 75.6025 147.371 72.38 147.371 72.38L147.489 71.3253L143.856 71.5011C143.856 71.5011 143.563 77.6533 143.563 79.1181C143.563 80.5829 147.196 92.5942 147.196 92.5942L148.836 92.0376Z" fill="#E8A374"/>
    <path d="M142.671 78.6988C142.671 78.6988 142.903 80.6991 144.244 86.0066C146.322 87.0458 150.145 85.9875 151.607 84.3342C150.427 79.9773 150.609 79.4423 150.396 78.0035C150.193 68.3256 151.327 53.8289 147.957 53.6307C141.512 53.0448 142.355 75.1326 142.671 78.6988Z" fill="#7A61E1"/>
    <path d="M152.938 51.5801C155.106 49.5586 156.512 46.5704 157.039 42.4983L162.02 45.4279C161.727 48.6212 162.137 51.1992 163.777 52.7519C165.242 61.5407 153.524 56.5604 152.938 51.5801Z" fill="#F2B88D"/>
    <path d="M156.79 42.8834L162.019 45.4278C161.961 46.2188 161.892 47.3668 161.979 48.3775C160.309 48.1431 157.083 45.813 156.79 42.8834Z" fill="#E8A374"/>
    <path d="M169.496 34.0724C169.496 34.0724 168.674 45.786 163.643 46.2698C162.139 46.4145 158.838 45.1718 157.642 44.1195C156.446 43.0672 155.644 42.1931 155.338 40.7323C155.338 40.7323 153.441 40.2257 153.007 38.0659C152.573 35.9061 153.798 34.701 155.692 35.535C155.692 35.535 156.153 29.5264 162.767 29.6651C169.38 29.8038 169.496 34.0724 169.496 34.0724Z" fill="#F2B88D"/>
    <path d="M154.605 37.6668C154.605 37.6668 155.643 37.393 155.966 38.6543" stroke="#4A2923" stroke-width="0.4" stroke-linecap="round"/>
    <path d="M155.958 38.6431C155.668 38.3699 155.482 38.3133 155.116 38.3719" stroke="#4A2923" stroke-width="0.4" stroke-linecap="round"/>
    <ellipse rx="1.41597" ry="0.482751" transform="matrix(-0.994395 0.105731 0.105731 0.994395 162.013 36.3313)" fill="#4A2923"/>
    <ellipse cx="167.294" cy="36.3313" rx="1.41597" ry="0.482751" transform="rotate(6.06929 167.294 36.3313)" fill="#4A2923"/>
    <circle r="0.566863" transform="matrix(-1 1.28224e-09 1.28224e-09 1 162.601 38.7133)" fill="#4A2923"/>
    <circle r="0.566863" transform="matrix(-1 1.28224e-09 1.28224e-09 1 167.087 38.7133)" fill="#4A2923"/>
    <path d="M165.416 38.8909L165.958 40.8787C166.011 41.0763 165.863 41.271 165.658 41.271L164.569 41.271C164.364 41.271 164.215 41.0756 164.269 40.8778L164.817 38.89C164.901 38.5854 165.333 38.586 165.416 38.8909Z" fill="#EF6179"/>
    <path d="M164.449 43.0476C163.688 43.5123 162.543 43.3983 162.217 42.2391" stroke="#4A2923" stroke-width="0.5" stroke-linecap="round"/>
    <path d="M156.936 38.119C156.704 36.1306 155.682 35.9498 155.682 35.9498C155.372 35.8397 154.056 35.6278 153.701 37.2757C153.395 38.6947 154.323 40.6818 156.252 40.2178C156.124 41.5799 156.252 42.7213 156.936 43.3857C156.769 44.1849 156.671 44.6174 156.483 45.3506C155.123 43.8387 154.267 42.8494 153.502 41.5799C150.985 37.4027 151.101 32.5492 152.099 30.6137C152.536 29.7656 153.384 28.7445 154.221 28.5647C155.058 28.3848 155.658 28.6131 156.327 28.9032C158.43 26.3642 161.936 25.5317 166.531 26.5729C171.125 27.614 172.653 31.8568 170.682 33.8921C169.241 35.7798 160.836 34.039 159.728 34.1663C158.784 34.3083 158.732 35.483 158.169 36.5471C157.783 37.2757 157.059 38.6869 156.936 38.119Z" fill="#4A2923"/>
    <path d="M229.511 148.415L228.122 150.994L235.732 155.091L237.121 152.512L229.511 148.415Z" fill="#709FD4"/>
    <path d="M254.302 140.376L225.211 154.878L197.849 144.624C193.337 142.984 191.11 133.931 188.357 123.355L254.302 140.376Z" fill="#B7D2F0"/>
    <path d="M254.302 140.376L246.011 144.507L189.441 127.369C189.089 126.051 188.738 124.732 188.386 123.355L254.302 140.376Z" fill="#ACC8EB"/>
    <path d="M186.277 124.146L186.071 122.476C186.042 122.271 186.13 122.096 186.277 121.978L186.98 121.451C187.097 121.363 187.273 121.334 187.448 121.363L255.034 138.56C255.122 138.589 255.21 138.619 255.269 138.706L256.499 139.937C256.733 140.171 256.704 140.523 256.47 140.728L255.386 141.636C255.239 141.753 255.064 141.782 254.917 141.753L186.687 124.615C186.482 124.556 186.306 124.381 186.277 124.146Z" fill="#89B2E7"/>
    <path d="M245.66 176.381C253.345 176.381 259.575 170.151 259.575 162.466C259.575 154.78 253.345 148.55 245.66 148.55C237.974 148.55 231.744 154.78 231.744 162.466C231.744 170.151 237.974 176.381 245.66 176.381Z" fill="#2B4171"/>
    <path d="M245.66 171.108C250.433 171.108 254.302 167.238 254.302 162.465C254.302 157.692 250.433 153.823 245.66 153.823C240.887 153.823 237.017 157.692 237.017 162.465C237.017 167.238 240.887 171.108 245.66 171.108Z" fill="#1A2F5A"/>
    <path d="M245.66 165.375C247.267 165.375 248.569 164.072 248.569 162.465C248.569 160.859 247.267 159.556 245.66 159.556C244.053 159.556 242.75 160.859 242.75 162.465C242.75 164.072 244.053 165.375 245.66 165.375Z" fill="#415786"/>
    <path d="M257.026 168.383C258.286 168.823 259.722 169.203 260.952 169.203C262.095 169.203 263.061 168.881 263.53 167.944C263.677 167.592 263.794 167.182 263.618 166.655C263.178 165.449 261.123 164.336 259.544 163.575L259.297 165.309C260.107 165.756 260.895 166.261 260.688 166.42C260.161 166.713 258.052 165.922 258.052 165.922L197.116 142.778C194.802 141.9 188.327 139.322 186.276 137.945C184.343 136.685 172.419 121.217 167.937 115.387C166.56 113.6 165.564 112.281 165.066 111.666C162.371 108.268 156.307 105.719 156.043 105.602L154.9 108.297C154.959 108.297 160.525 110.67 162.752 113.482C163.221 114.098 164.275 115.445 165.593 117.174C175.642 130.181 182.702 139.116 184.636 140.405C187.36 142.222 195.71 145.386 196.061 145.532L257.026 168.383Z" fill="#709FD4"/>
    <path d="M144.149 90.8366C147.079 91.7155 151.473 90.5436 153.524 88.4929C153.612 92.36 153.758 96.0806 154.11 98.7465C154.403 100.211 155.34 101.061 156.541 102.174C157.977 103.551 158.906 105.089 159.082 107.14L156.746 106.071C156.248 107.389 155.955 108.912 155.867 110.67C155.838 111.08 155.692 111.49 155.34 111.754C154.549 112.369 153.319 111.988 152.908 111.051C151.737 111.637 150.477 111.051 150.272 109.879C149.188 109.762 148.514 109.264 148.221 108.414C148.221 108.414 146.756 107.828 146.756 106.363C146.756 104.899 148.807 101.969 148.543 99.7719C148.25 96.1099 144.149 90.8366 144.149 90.8366Z" fill="#FDD02E"/>
    <path d="M152.938 111.051L153.231 107.242" stroke="#E9B319" stroke-miterlimit="10" stroke-linecap="round"/>
    <path d="M150.301 109.879L150.594 106.071" stroke="#E9B319" stroke-miterlimit="10" stroke-linecap="round"/>
    <path d="M148.25 108.414L148.543 105.485" stroke="#E9B319" stroke-miterlimit="10" stroke-linecap="round"/>
    <path d="M196.149 171.254C195.563 171.254 194.977 171.137 194.392 170.903L194.362 170.874C191.198 169.526 190.495 164.487 192.312 155.874C193.601 149.751 195.739 143.892 195.768 143.833L197.409 144.449C194.245 153.091 190.788 167.446 195.007 169.262C196.911 169.965 198.727 169.643 205.993 159.595C213.17 149.634 224.215 153.56 224.332 153.589L223.717 155.23C223.307 155.083 213.815 151.743 207.428 160.591C201.745 168.442 198.932 171.254 196.149 171.254Z" fill="#709FD4"/>
    <path d="M237.933 377.493C283.604 379.74 311.303 376.89 343.764 375.405C376.224 373.921 425.288 367.005 447.992 362.247C447.662 361.289 445.261 354.31 436.688 351.23C432.076 349.587 425.738 349.122 417.142 351.673C417.142 351.673 420.263 338.516 400.34 339.379C400.34 339.379 410.446 335.652 404.86 334.223C399.22 332.795 387.217 336.032 387.217 336.032C387.217 336.032 385.729 331.286 381.399 331.644C377.069 332.002 372.698 334.863 372.698 334.863C372.698 334.863 369.33 323.327 348.322 323.654C327.314 323.981 320.778 336.573 320.778 336.573C320.778 336.573 308.658 328.674 301.2 331.219C293.741 333.763 297.5 337.788 297.5 337.788C297.5 337.788 281.523 337.211 279.206 339.226C276.888 341.241 284.419 341.908 284.419 341.908C284.419 341.908 262.198 348.123 274.899 353.349C274.845 353.349 242.566 354.471 237.933 377.493Z" fill="#5F853C"/>
</svg>
