<svg width="1237" height="655" fill="none" xmlns="http://www.w3.org/2000/svg"><mask id="a" mask-type="alpha" maskUnits="userSpaceOnUse" x="166" y="110" width="1072" height="482"><path d="M1066.71 590.15c98.61 10.83 170.92-31.95 170.92-31.95V168.87c-111.87-32.63-186.96-11.83-267.73 3.31-79.58 14.91-127.76 10.45-232.82-31.84-86.53-34.84-142.84-54.71-229.27 27.16-75.11 71.15-66.15 76.84-199.34 93.25-107.74 13.27-175.6 191.8-125.87 222.87 49.72 31.08 164.7 1.55 292.11 27.97 127.42 26.41 173.25 27.2 298.33 8.64 121.58-18.02 166.26 55.94 293.67 69.92z" fill="#C1DCF3"/></mask><g mask="url(#a)"><path opacity=".5" d="M1066.71 590.15c98.61 10.83 170.92-31.95 170.92-31.95V168.87c-111.87-32.63-186.96-11.83-267.73 3.31-79.58 14.91-127.76 10.45-232.82-31.84-86.53-34.84-142.84-54.71-229.27 27.16-75.11 71.15-66.15 76.84-199.34 93.25-107.74 13.27-175.6 191.8-125.87 222.87 49.72 31.08 164.7 1.55 292.11 27.97 127.42 26.41 173.25 27.2 298.33 8.64 121.58-18.02 166.26 55.94 293.67 69.92z" fill="#C1DCF3"/><path d="M896.68 240.46c-.15-.3.15-.6.45-.46 2.05 1.31 6.6 4.27 6.9 4.53.4.35 1.06 4.01 1.06 4.01s3.2-.3 3.6.4l.55.4-.65.16s-1.6.6-2.15.75c-.6.15-2.7 1.4-6.71 1.66l-2.9 1.3s-.75-1.5-.6-3.46l3.3-.05.8-.15s-.1-3.42-.25-3.77c-.05-.15-2.3-3.52-3.4-5.32z" fill="url(#b)"/><path d="M856.78 241.51s-.05 1.66-.15 2.01c-.1.25-1.06 1.76-1.66 2.71-.15.2.1.5.35.35 1.3-.65 3.6-1.95 4.26-2.7.85-1.06 1.9-3.32 1.9-3.32s2.05-.4 2.2-.9l.86-.26s-.76-.4-.8-.45c-.06-.05-.56-.9-2.66-.4 0 0-1.1-3.97-1.6-4.37-.45-.35-4.36-2.06-7.26-2.86-.25-.05-.45.25-.25.4 1.2 1.4 4.05 4.67 4.25 5.02.25.45.4 1.96.4 1.96s-2.15.6-2.45.6a25 25 0 0 1-2.75-.65s-.8 2.36.5 4.52l2.5-1.6 2.36-.06z" fill="url(#c)"/><path d="M832.2 262.86s-1.8.25-2.96.35c0 0 .15 2.2 1.45 3.26 0 0 1.7-1.9 2.4-2.16 0 0 1.36 1.26 1.4 1.4.06.1.36 3.82.5 5.33 0 .2.3.3.4.1.71-1.15 2.31-3.77 2.41-5.22.15-1.91-.65-2.92-.65-2.92s1.55-.65 1.65-1.4l1-.55-1.15-.15s-.75-.5-2.5.25c0 0 0-1.4-.35-1.4-.4.04-2.95 1.3-3.6 3.1z" fill="url(#d)"/><path d="M748.04 224.72 758.17 235H597.7l15.22-12.89a26.27 26.27 0 0 1 23.02-5.51 26.26 26.26 0 0 0 19.98-3.3l2.54-1.59a33.46 33.46 0 0 1 34-.87l9.42 5.23a25.82 25.82 0 0 0 20.16 2.1 25.83 25.83 0 0 1 26 6.55zm528.17 23.88 10.13 10.27h-160.47l15.21-12.88a26.28 26.28 0 0 1 23.02-5.52 26.27 26.27 0 0 0 19.98-3.29l2.55-1.6a33.45 33.45 0 0 1 33.99-.87l9.42 5.23a25.82 25.82 0 0 0 20.16 2.1 25.84 25.84 0 0 1 26.01 6.55z" fill="#fff"/><path d="M370.5 354.46c-76.01-3.4-168.65 33.21-185.8 73.26v167.83h1053.77V317.03c-21.74 9.92-104.67 29.75-182.47 29.75-97.26 0-149.34-23.18-263.76-27.76-114.41-4.57-167 19.66-236.84 32.04-36.99 6.56-105.3 6.96-184.9 3.4z" fill="#D0E2C7"/><path d="M137.39 417.89c491.91-37.48 904.31 7.3 1101.08 55.52v129.78H137.39V417.9z" fill="#7DAA41"/><path d="M708.1 262.75h4l4.06 144.56h-11.7l3.64-144.56z" fill="#fff"/><rect x="702.64" y="259.72" width="14.88" height="4.25" rx="2.13" fill="#fff"/><mask id="e" mask-type="alpha" maskUnits="userSpaceOnUse" x="676" y="261" width="41" height="51"><path d="m677.32 309.23 36.92-47.81 2.03 1.52-2.84 4.3c4 4 3.82 10.53-.39 14.3l-33.33 29.9a1.63 1.63 0 0 1-2.39-2.21z" fill="#fff"/></mask><g mask="url(#e)"><path d="m677.32 309.23 36.92-47.81 2.03 1.52-2.84 4.3c4 4 3.82 10.53-.39 14.3l-33.33 29.9a1.63 1.63 0 0 1-2.39-2.21z" fill="#fff"/><path d="m677.08 312.58 36.84-45.84 7.03 9.72-41.75 37.76-2.12-1.64z" fill="#A9CAF0"/></g><mask id="f" mask-type="alpha" maskUnits="userSpaceOnUse" x="691" y="194" width="25" height="67"><path d="m695.24 196.16 20.63 63.3-2.56.93-1.56-3.83A11.26 11.26 0 0 1 699 247l-7.18-50.06a1.76 1.76 0 0 1 3.42-.8z" fill="#fff"/></mask><g mask="url(#f)"><path d="m695.24 196.16 20.63 63.3-2.56.93-1.56-3.83A11.26 11.26 0 0 1 699 247l-7.18-50.06a1.76 1.76 0 0 1 3.42-.8z" fill="#fff"/><path d="m692.8 193.84 19.05 62.93h-11.59l-9.86-61.95 2.4-.98z" fill="#A9CAF0"/></g><mask id="g" mask-type="alpha" maskUnits="userSpaceOnUse" x="715" y="256" width="62" height="23"><path d="m721.33 261.43-4.72-.79-.8 2.36 58.67 15.57a1.29 1.29 0 0 0 .89-2.41l-39.72-18.92a11.2 11.2 0 0 0-14.32 4.19z" fill="#fff"/></mask><g mask="url(#g)"><path d="m721.33 261.43-4.72-.79-.8 2.36 58.67 15.57a1.29 1.29 0 0 0 .89-2.41l-39.72-18.92a11.2 11.2 0 0 0-14.32 4.19z" fill="#fff"/><path d="m776.78 277.82-55.64-16.49 6.91-8.19 48.73 23.16v1.52z" fill="#A9CAF0"/></g><path d="m885.16 422.15 8.07-26.88 5.75 26.88 6.92-14.97 4.89 18.06 3.03.37h12.43l5-27.26 8.06 30.33-25.49-3.07h-2.93l-.1-.37-25.63-3.09zm-172.14-11.83 7.9-29.54 7.21 29.54 5.29.94 4.48.2 6.15-23.2 6.06 23.78-12.21-.57-.15.56-4.33-.77-20.4-.94z" fill="#7DAA41"/><mask id="h" mask-type="alpha" maskUnits="userSpaceOnUse" x="946" y="381" width="31" height="75"><path d="m961.67 381.63 7.66 37.86-4.57-1.61 4.99 3.7 3.45 17.06-7.78-2.34 8.23 4.57 3.02 14.9h-30l5.48-27.1 5.36-5.06-4.84 2.48 4.13-20.38 2.78-2.49-2.55 1.34 4.64-22.93z" fill="#3B6221"/></mask><g mask="url(#h)"><path d="m961.67 381.63 7.66 37.86-4.57-1.61 4.99 3.7 3.45 17.06-7.78-2.34 8.23 4.57 3.02 14.9h-30l5.48-27.1 5.36-5.06-4.84 2.48 4.13-20.38 2.78-2.49-2.55 1.34 4.64-22.93z" fill="#3B6221"/><path d="M961.72 457.39v-76.44l18.27 76.44h-18.27z" fill="#48752B"/></g><path d="m288.46 409.53 9.8-35.56 11.23 35.56 9.54-29.2 11.18 29.2 12.23-36.56 12.41 36.56h11.45l8.65-25.95 8.08 25.95h-94.57z" fill="#7DAA41"/><path d="M1238.84 471.28c-389.6-49.46-812.25-8.24-964.56 28.18v109.26h964.56V471.28z" fill="#96BD61"/><mask id="i" mask-type="alpha" maskUnits="userSpaceOnUse" x="1046" y="356" width="102" height="252"><path d="m1096.83 356.44 25.96 128.28-15.45-5.45 16.89 12.56 11.69 57.8-26.35-7.94 27.88 15.5 10.22 50.5H1046l18.59-91.86 18.15-17.14-16.39 8.42 13.97-69.07 9.44-8.44-8.65 4.53 15.72-77.7z" fill="#3B6221"/></mask><g mask="url(#i)"><path d="m1096.83 356.44 25.96 128.28-15.45-5.45 16.89 12.56 11.69 57.8-26.35-7.94 27.88 15.5 10.22 50.5H1046l18.59-91.86 18.15-17.14-16.39 8.42 13.97-69.07 9.44-8.44-8.65 4.53 15.72-77.7z" fill="#3B6221"/><path d="M1097.01 613.17V354.12l61.93 259.05h-61.93z" fill="#48752B"/></g><mask id="j" mask-type="alpha" maskUnits="userSpaceOnUse" x="1113" y="200" width="161" height="397"><path d="m1193.62 200.65 40.85 201.9-24.32-8.59 26.58 19.77 18.41 90.97-41.48-12.5 43.88 24.38 16.08 79.49h-160l29.25-144.57 28.57-26.98-25.79 13.25 21.99-108.69 14.85-13.28-13.61 7.13 24.74-122.28z" fill="#3B6221"/></mask><g mask="url(#j)"><path d="m1193.62 200.65 40.85 201.9-24.32-8.59 26.58 19.77 18.41 90.97-41.48-12.5 43.88 24.38 16.08 79.49h-160l29.25-144.57 28.57-26.98-25.79 13.25 21.99-108.69 14.85-13.28-13.61 7.13 24.74-122.28z" fill="#395F1C"/><path d="M1193.9 604.68V197.01l97.46 407.67h-97.46z" fill="#48752B"/></g><mask id="k" mask-type="alpha" maskUnits="userSpaceOnUse" x="583" y="409" width="52" height="126"><path d="m623.2 481.15-14.58-72.07-11.6 57.33 6.78-2.83-7.7 7.42-6.3 31.06 12.3-4.2-13.47 10-5.44 26.93h50.86l-9.98-49.36-9.91-7.35 9.04 3.07z" fill="#3B6221"/></mask><g mask="url(#k)"><path d="m623.2 481.15-14.58-72.07-11.6 57.33 6.78-2.83-7.7 7.42-6.3 31.06 12.3-4.2-13.47 10-5.44 26.93h50.86l-9.98-49.36-9.91-7.35 9.04 3.07z" fill="#3B6221"/><path d="M608.16 537.84V407.01l32.5 130.83h-32.5z" fill="#48752B"/></g><mask id="l" mask-type="alpha" maskUnits="userSpaceOnUse" x="613" y="336" width="81" height="199"><path d="m672.27 429.8 21.24 104.99h-80.05l5-24.75 15.16-11.36-13.86 4.99 2.78-13.74 22.55-18.22-20.37 7.4 5.5-27.14 14.87-12.58-13.15 4.04 5.72-28.24 11.6-7.56-10.58 2.52 14.8-73.2L671.3 425h-9.88l10.85 4.8z" fill="#30461E"/></mask><g mask="url(#l)"><path d="m672.27 429.8 21.24 104.99h-80.05l5-24.75 15.16-11.36-13.86 4.99 2.78-13.74 22.55-18.22-20.37 7.4 5.5-27.14 14.87-12.58-13.15 4.04 5.72-28.24 11.6-7.56-10.58 2.52 14.8-73.2L671.3 425h-9.88l10.85 4.8z" fill="#395F1C"/><path d="M653.77 548.88v-215.4l61.34 215.4h-61.34z" fill="#447121"/></g></g><path d="M211.06 137.02a.5.5 0 0 1 .67-.68 388.8 388.8 0 0 1 10.4 6.8c.6.53 1.58 6.04 1.58 6.04s4.82-.45 5.42.6l.83.61-.98.23s-2.4.9-3.24 1.13c-.9.23-4.06 2.12-10.09 2.5l-4.37 1.96s-1.13-2.27-.9-5.21l4.97-.08 1.2-.23s-.15-5.13-.37-5.66c-.08-.23-3.47-5.3-5.12-8.01z" fill="url(#m)"/><path d="M151.03 138.6s-.07 2.5-.23 3.03c-.15.38-1.58 2.64-2.48 4.08-.23.3.15.75.53.53 1.95-.99 5.42-2.95 6.4-4.08 1.28-1.59 2.86-4.99 2.86-4.99s3.09-.6 3.31-1.36l1.28-.38s-1.13-.6-1.2-.68c-.08-.07-.83-1.36-4-.6 0 0-1.65-5.97-2.4-6.58-.68-.52-6.56-3.1-10.92-4.3-.38-.08-.68.38-.38.6 1.8 2.12 6.1 7.03 6.4 7.56.38.68.6 2.94.6 2.94s-3.24.91-3.69.91c-.37.08-4.14-.98-4.14-.98s-1.2 3.55.75 6.8l3.77-2.42 3.54-.08z" fill="url(#n)"/><path d="M114.05 170.72s-2.71.37-4.44.52c0 0 .22 3.33 2.18 4.91 0 0 2.56-2.87 3.61-3.24 0 0 2.04 1.88 2.11 2.11.08.15.53 5.74.76 8.01 0 .3.45.45.6.15 1.05-1.74 3.46-5.67 3.61-7.86.23-2.87-.98-4.38-.98-4.38s2.34-.98 2.5-2.11l1.5-.83-1.73-.23s-1.13-.76-3.77.38c0 0 0-2.12-.53-2.12-.6.08-4.44 1.97-5.42 4.69z" fill="url(#o)"/><path d="M432.2 263.75h4l4.06 144.56h-11.7l3.63-144.56z" fill="#fff"/><rect x="426.74" y="260.72" width="14.88" height="4.25" rx="2.13" fill="#fff"/><mask id="p" mask-type="alpha" maskUnits="userSpaceOnUse" x="401" y="262" width="40" height="51"><path d="m401.42 310.23 36.92-47.81 2.02 1.52-2.83 4.3c4 4 3.81 10.53-.4 14.3l-33.33 29.9a1.63 1.63 0 0 1-2.38-2.21z" fill="#fff"/></mask><g mask="url(#p)"><path d="m401.42 310.23 36.92-47.81 2.02 1.52-2.83 4.3c4 4 3.81 10.53-.4 14.3l-33.33 29.9a1.63 1.63 0 0 1-2.38-2.21z" fill="#fff"/><path d="m401.18 313.58 36.84-45.84 7.02 9.72-41.75 37.76-2.11-1.64z" fill="#A9CAF0"/></g><mask id="q" mask-type="alpha" maskUnits="userSpaceOnUse" x="415" y="195" width="25" height="67"><path d="m419.34 197.16 20.63 63.3-2.57.93-1.56-3.83A11.26 11.26 0 0 1 423.1 248l-7.17-50.06a1.76 1.76 0 0 1 3.42-.8z" fill="#fff"/></mask><g mask="url(#q)"><path d="m419.34 197.16 20.63 63.3-2.57.93-1.56-3.83A11.26 11.26 0 0 1 423.1 248l-7.17-50.06a1.76 1.76 0 0 1 3.42-.8z" fill="#fff"/><path d="m416.89 194.84 19.05 62.93h-11.58l-9.87-61.95 2.4-.98z" fill="#A9CAF0"/></g><mask id="r" mask-type="alpha" maskUnits="userSpaceOnUse" x="439" y="257" width="62" height="23"><path d="m445.43 262.43-4.72-.79-.8 2.36 58.67 15.57a1.29 1.29 0 0 0 .88-2.41l-39.71-18.92a11.2 11.2 0 0 0-14.32 4.19z" fill="#fff"/></mask><g mask="url(#r)"><path d="m445.43 262.43-4.72-.79-.8 2.36 58.67 15.57a1.29 1.29 0 0 0 .88-2.41l-39.71-18.92a11.2 11.2 0 0 0-14.32 4.19z" fill="#fff"/><path d="m500.87 278.82-55.64-16.49 6.92-8.19 48.72 23.16v1.52z" fill="#A9CAF0"/></g><path d="M451.93 385.97H404l15.1 28.16h47.92l-15.1-28.16z" stroke="#fff" stroke-width="1.6" stroke-linecap="round" stroke-linejoin="round"/><mask id="s" mask-type="alpha" maskUnits="userSpaceOnUse" x="385" y="384" width="69" height="32"><path d="M401.67 384.76h51.77l-16.31 30.42h-51.77l16.31-30.42z" fill="#E2F0FC"/></mask><g mask="url(#s)" stroke="#fff"><path d="M401.67 384.76h51.77l-16.31 30.42h-51.77l16.31-30.42z" fill="#4E8AFF" stroke-width="2.01"/><path d="M443.81 382.07 422.9 419m-27.74-23.8h57.41M389.05 406h57.4m-16.91-23.93L408.6 419m6.67-36.93L394.34 419" opacity=".5" stroke-width="1.2"/></g><path d="M513.1 385.97h-47.92l15.1 28.16h47.92l-15.1-28.16z" stroke="#fff" stroke-width="1.6" stroke-linecap="round" stroke-linejoin="round"/><mask id="t" mask-type="alpha" maskUnits="userSpaceOnUse" x="446" y="384" width="69" height="32"><path d="M462.84 384.76h51.77l-16.31 30.42h-51.77l16.31-30.42z" fill="#E2F0FC"/></mask><g mask="url(#t)" stroke="#fff"><path d="M462.84 384.76h51.77l-16.31 30.42h-51.77l16.31-30.42z" fill="#4E8AFF" stroke-width="2.01"/><path d="M504.98 382.07 484.06 419m-27.73-23.8h57.41M450.22 406h57.4m-16.92-23.93L469.79 419m6.65-36.93L455.5 419" opacity=".5" stroke-width="1.2"/></g><path d="M574.27 385.97h-47.92l15.1 28.16h47.92l-15.1-28.16z" stroke="#fff" stroke-width="1.6" stroke-linecap="round" stroke-linejoin="round"/><mask id="u" mask-type="alpha" maskUnits="userSpaceOnUse" x="507" y="384" width="69" height="32"><path d="M524.01 384.76h51.77l-16.31 30.42H507.7l16.31-30.42z" fill="#E2F0FC"/></mask><g mask="url(#u)" stroke="#fff"><path d="M524.01 384.76h51.77l-16.31 30.42H507.7l16.31-30.42z" fill="#4E8AFF" stroke-width="2.01"/><path d="M566.15 382.07 545.23 419m-27.73-23.8h57.41M511.39 406h57.4m-16.91-23.93L530.95 419m6.65-36.93L516.69 419" opacity=".5" stroke-width="1.2"/></g><path d="M415.23 414.51H367.3l15.1 28.16h47.91l-15.1-28.16z" stroke="#fff" stroke-width="1.6" stroke-linecap="round" stroke-linejoin="round"/><mask id="v" mask-type="alpha" maskUnits="userSpaceOnUse" x="348" y="413" width="69" height="31"><path d="M364.97 413.3h51.77l-16.31 30.43h-51.77l16.31-30.42z" fill="#E2F0FC"/></mask><g mask="url(#v)" stroke="#fff"><path d="M364.97 413.3h51.77l-16.31 30.43h-51.77l16.31-30.42z" fill="#4E8AFF" stroke-width="2.01"/><path d="m407.1 410.62-20.92 36.93m-27.72-23.8h57.41m-63.52 10.79h57.4m-16.91-23.92-20.93 36.93m6.65-36.93-20.92 36.93" opacity=".5" stroke-width="1.2"/></g><path d="M478.44 414.51h-47.92l15.1 28.16h47.91l-15.1-28.16z" stroke="#fff" stroke-width="1.6" stroke-linecap="round" stroke-linejoin="round"/><mask id="w" mask-type="alpha" maskUnits="userSpaceOnUse" x="411" y="413" width="69" height="31"><path d="M428.18 413.3h51.77l-16.31 30.43h-51.77l16.31-30.42z" fill="#E2F0FC"/></mask><g mask="url(#w)" stroke="#fff"><path d="M428.18 413.3h51.77l-16.31 30.43h-51.77l16.31-30.42z" fill="#4E8AFF" stroke-width="2.01"/><path d="m470.32 410.62-20.93 36.93m-27.72-23.8h57.41m-63.52 10.79h57.4m-16.91-23.92-20.93 36.93m6.65-36.93-20.92 36.93" opacity=".5" stroke-width="1.2"/></g><path d="M541.64 414.31h-47.91l15.1 28.36h47.91l-15.1-28.36z" stroke="#fff" stroke-width="1.6" stroke-linecap="round" stroke-linejoin="round"/><mask id="x" mask-type="alpha" maskUnits="userSpaceOnUse" x="475" y="413" width="69" height="31"><path d="M491.39 413.3h51.77l-16.31 30.43h-51.77l16.31-30.42z" fill="#E2F0FC"/></mask><g mask="url(#x)" stroke="#fff"><path d="M491.39 413.3h51.77l-16.31 30.43h-51.77l16.31-30.42z" fill="#4E8AFF" stroke-width="2.01"/><path d="m532.04 410.62-20.92 36.93m-26.24-23.8h57.41m-63.53 10.79h57.41m-16.91-23.92-20.93 36.93m6.65-36.93-20.92 36.93" opacity=".5" stroke-width="1.2"/></g><path d="M838.07 150.02h9.42l9.55 340.02h-27.53l8.56-340.02z" fill="#fff"/><rect x="825.25" y="142.9" width="35" height="10" rx="5" fill="#fff"/><mask id="y" mask-type="alpha" maskUnits="userSpaceOnUse" x="768" y="147" width="89" height="112"><path d="m769.56 252.82 81.22-105.17 4.45 3.34-6.23 9.47 1.25 1.25a20 20 0 0 1-.8 29.03l-74.65 66.95a3.6 3.6 0 0 1-5.24-4.87z" fill="#fff"/></mask><g mask="url(#y)"><path d="m769.56 252.82 81.22-105.17 4.45 3.34-6.23 9.47 1.25 1.25a20 20 0 0 1-.8 29.03l-74.65 66.95a3.6 3.6 0 0 1-5.24-4.87z" fill="#fff"/><path d="m769.03 260.2 81.05-100.84 15.45 21.37-91.85 83.09-4.65-3.62z" fill="#A9CAF0"/></g><mask id="z" mask-type="alpha" maskUnits="userSpaceOnUse" x="801" y="1" width="54" height="145"><path d="m808.98 4.07 45.38 139.26-5.64 2.05-3.43-8.43-4.72.68a20 20 0 0 1-22.65-16.96L801.46 5.82a3.88 3.88 0 0 1 7.52-1.75z" fill="#fff"/></mask><g mask="url(#z)"><path d="m808.98 4.07 45.38 139.26-5.64 2.05-3.43-8.43-4.72.68a20 20 0 0 1-22.65-16.96L801.46 5.82a3.88 3.88 0 0 1 7.52-1.75z" fill="#fff"/><path d="m803.59-1.03 41.92 138.45h-25.48L798.32 1.12l5.27-2.15z" fill="#A9CAF0"/></g><mask id="A" mask-type="alpha" maskUnits="userSpaceOnUse" x="854" y="134" width="133" height="52"><path d="M866.37 147.67 856 145.94l-1.77 5.18 129.08 34.26a2.84 2.84 0 0 0 1.95-5.3l-91.11-43.4a20 20 0 0 0-25.57 7.47l-2.2 3.52z" fill="#fff"/></mask><g mask="url(#A)"><path d="M866.37 147.67 856 145.94l-1.77 5.18 129.08 34.26a2.84 2.84 0 0 0 1.95-5.3l-91.11-43.4a20 20 0 0 0-25.57 7.47l-2.2 3.52z" fill="#fff"/><path d="m988.35 183.74-122.4-36.28 15.21-18.03 107.2 50.96v3.35z" fill="#A9CAF0"/></g><path d="M566.65 151.43h8.56l8.7 309.1h-25.04l7.78-309.1z" fill="#fff"/><rect x="554.99" y="144.96" width="31.82" height="9.09" rx="4.55" fill="#fff"/><mask id="B" mask-type="alpha" maskUnits="userSpaceOnUse" x="503" y="149" width="80" height="102"><path d="m504.37 244.89 73.84-95.61 4.04 3.04-5.66 8.6a19.7 19.7 0 0 1-.78 28.6l-66.68 59.8a3.27 3.27 0 0 1-4.76-4.43z" fill="#fff"/></mask><g mask="url(#B)"><path d="m504.37 244.89 73.84-95.61 4.04 3.04-5.66 8.6a19.7 19.7 0 0 1-.78 28.6l-66.68 59.8a3.27 3.27 0 0 1-4.76-4.43z" fill="#fff"/><path d="m503.89 251.6 73.68-91.67 14.04 19.42-83.5 75.53-4.22-3.29z" fill="#A9CAF0"/></g><mask id="C" mask-type="alpha" maskUnits="userSpaceOnUse" x="533" y="16" width="49" height="132"><path d="m540.2 18.75 41.26 126.6-5.13 1.86-3.12-7.66-2.49.36a20 20 0 0 1-22.64-16.96l-14.71-102.6a3.52 3.52 0 0 1 6.84-1.6z" fill="#fff"/></mask><g mask="url(#C)"><path d="m540.2 18.75 41.26 126.6-5.13 1.86-3.12-7.66-2.49.36a20 20 0 0 1-22.64-16.96l-14.71-102.6a3.52 3.52 0 0 1 6.84-1.6z" fill="#fff"/><path d="m535.3 14.11 38.11 125.86h-23.16L530.5 16.07l4.8-1.96z" fill="#A9CAF0"/></g><mask id="D" mask-type="alpha" maskUnits="userSpaceOnUse" x="581" y="138" width="121" height="46"><path d="m592.38 149.3-9.43-1.58-1.61 4.71 117.34 31.15a2.58 2.58 0 0 0 1.78-4.82L619.09 140a20 20 0 0 0-25.57 7.47l-1.14 1.82z" fill="#fff"/></mask><g mask="url(#D)"><path d="m592.38 149.3-9.43-1.58-1.61 4.71 117.34 31.15a2.58 2.58 0 0 0 1.78-4.82L619.09 140a20 20 0 0 0-25.57 7.47l-1.14 1.82z" fill="#fff"/><path d="M703.27 182.08 592 149.11l13.84-16.4 97.44 46.33v3.04z" fill="#A9CAF0"/></g><path d="M309.6 209.46h6.43l6.51 231.83h-18.77l5.84-231.83z" fill="#fff"/><rect x="300.86" y="204.61" width="23.86" height="6.82" rx="3.41" fill="#fff"/><mask id="E" mask-type="alpha" maskUnits="userSpaceOnUse" x="262" y="207" width="60" height="77"><path d="m262.9 279.56 55.37-71.71 3.04 2.28-4.25 6.46c5.99 6 5.72 15.78-.59 21.44l-50 44.85a2.45 2.45 0 0 1-3.58-3.32z" fill="#fff"/></mask><g mask="url(#E)"><path d="m262.9 279.56 55.37-71.71 3.04 2.28-4.25 6.46c5.99 6 5.72 15.78-.59 21.44l-50 44.85a2.45 2.45 0 0 1-3.58-3.32z" fill="#fff"/><path d="m262.53 284.59 55.27-68.75 10.53 14.56-62.62 56.65-3.18-2.46z" fill="#A9CAF0"/></g><mask id="F" mask-type="alpha" maskUnits="userSpaceOnUse" x="284" y="108" width="37" height="99"><path d="m289.77 109.95 30.95 94.95-3.85 1.4-2.34-5.75a16.88 16.88 0 0 1-19.12-14.31l-10.77-75.1a2.64 2.64 0 0 1 5.13-1.19z" fill="#fff"/></mask><g mask="url(#F)"><path d="m289.77 109.95 30.95 94.95-3.85 1.4-2.34-5.75a16.88 16.88 0 0 1-19.12-14.31l-10.77-75.1a2.64 2.64 0 0 1 5.13-1.19z" fill="#fff"/><path d="m286.1 106.47 28.58 94.4H297.3l-14.8-92.93 3.6-1.47z" fill="#A9CAF0"/></g><mask id="G" mask-type="alpha" maskUnits="userSpaceOnUse" x="320" y="199" width="92" height="35"><path d="m328.9 207.86-7.07-1.18-1.21 3.53 88 23.37a1.94 1.94 0 0 0 1.34-3.62l-59.57-28.38a16.8 16.8 0 0 0-21.49 6.28z" fill="#fff"/></mask><g mask="url(#G)"><path d="m328.9 207.86-7.07-1.18-1.21 3.53 88 23.37a1.94 1.94 0 0 0 1.34-3.62l-59.57-28.38a16.8 16.8 0 0 0-21.49 6.28z" fill="#fff"/><path d="m412.07 232.45-83.46-24.73L339 195.43l73.08 34.74v2.28z" fill="#A9CAF0"/></g><path d="M1042.04 222.46h6.42l6.52 231.83h-18.77l5.83-231.83z" fill="#fff"/><rect x="1033.3" y="217.61" width="23.86" height="6.82" rx="3.41" fill="#fff"/><mask id="H" mask-type="alpha" maskUnits="userSpaceOnUse" x="994" y="220" width="60" height="77"><path d="m995.33 292.56 55.38-71.71 3.03 2.28-4.25 6.46c5.99 6 5.73 15.78-.58 21.44l-50 44.85a2.45 2.45 0 0 1-3.58-3.32z" fill="#fff"/></mask><g mask="url(#H)"><path d="m995.33 292.56 55.38-71.71 3.03 2.28-4.25 6.46c5.99 6 5.73 15.78-.58 21.44l-50 44.85a2.45 2.45 0 0 1-3.58-3.32z" fill="#fff"/><path d="m994.97 297.59 55.26-68.75 10.53 14.56-62.62 56.65-3.17-2.46z" fill="#A9CAF0"/></g><mask id="I" mask-type="alpha" maskUnits="userSpaceOnUse" x="1017" y="121" width="37" height="99"><path d="m1022.21 122.95 30.94 94.95-3.85 1.4-2.34-5.75a16.89 16.89 0 0 1-19.12-14.31l-10.76-75.1a2.64 2.64 0 0 1 5.13-1.19z" fill="#fff"/></mask><g mask="url(#I)"><path d="m1022.21 122.95 30.94 94.95-3.85 1.4-2.34-5.75a16.89 16.89 0 0 1-19.12-14.31l-10.76-75.1a2.64 2.64 0 0 1 5.13-1.19z" fill="#fff"/><path d="m1018.53 119.47 28.58 94.4h-17.37l-14.8-92.93 3.59-1.47z" fill="#A9CAF0"/></g><mask id="J" mask-type="alpha" maskUnits="userSpaceOnUse" x="1053" y="212" width="91" height="35"><path d="m1061.34 220.86-7.08-1.18-1.2 3.53 88 23.37a1.93 1.93 0 0 0 1.33-3.62l-59.57-28.38a16.8 16.8 0 0 0-21.48 6.28z" fill="#fff"/></mask><g mask="url(#J)"><path d="m1061.34 220.86-7.08-1.18-1.2 3.53 88 23.37a1.93 1.93 0 0 0 1.33-3.62l-59.57-28.38a16.8 16.8 0 0 0-21.48 6.28z" fill="#fff"/><path d="m1144.51 245.45-83.46-24.73 10.38-12.29 73.08 34.74v2.28z" fill="#A9CAF0"/></g><circle cx="431.94" cy="137.16" r="30.09" fill="#FFD12E"/><path d="M215.7 547.14c-71.7 19.18-73.88 22.09-159.07 22.09-23.8 0-71.46 17.54-51.3 56.17 25.22 48.3 144.9 26.04 206.27 10.71 64.99-16.23 189.27-4.28 189.27-60.46 0-61.17-120.19-45.88-185.16-28.5z" fill="#D1E7FF"/><path d="M288.26 607.52h-160.5V432.7c0-44.47 29.95-100.33 39.67-117.3a10.28 10.28 0 0 1 8.99-5.13h105.16a6.68 6.68 0 0 1 6.68 6.68v290.58z" fill="#C6DCF5"/><path fill="#6995C8" d="M154.05 462.95h43.73v5.25h-43.73z"/><path d="M225.46 433.88V607.2l62.7.06V317.01a6.68 6.68 0 0 0-6.68-6.68h-14.24l-30.61 70.08a133.6 133.6 0 0 0-11.17 53.47z" fill="#29478A"/><path d="M214.28 453.16h-76.61l.96-27.18a133.6 133.6 0 0 1 12.38-51.57l20.56-44.22h76.17l-19.99 41.08a133.59 133.59 0 0 0-13.47 58.46v23.43z" fill="#0E2D5A"/><path d="M187.51 410.15h21.8" stroke="#87B448" stroke-width="3" stroke-linecap="round" stroke-linejoin="round"/><path d="M184.01 366.38h21.8m-25.29 8.39h14.5" stroke="#4286FF" stroke-width="3" stroke-linecap="round" stroke-linejoin="round"/><path d="m180.64 353.75-9.3-23.53h76.54l-11.66 23.53h-55.58z" fill="#8DB2DD"/><path d="m137.69 453.31 18.91-16.02s3.8-25.61 7.78-42.55c3.94-16.73 16.3-41.18 16.3-41.18l-9.25-23.16c-5.6 10.52-18.32 34.93-25.95 56.52-7.64 21.6-8.53 53.99-7.8 66.4z" fill="#6995C8"/><path d="M214.32 437.13h-57.67l-18.93 16.16h76.6v-16.16z" fill="#8DB2DD"/><path d="m158.81 423.3-2.24 13.85h57.74l.66-13.85H158.8z" fill="#C6DCF5"/><path d="M179.76 303.44h99.9v6.82h-99.9v-6.82z" fill="#6995C8"/><path d="M179.76 303.44h80.65v6.82h-80.65v-6.82z" fill="#8DB2DD"/><path d="M171.25 266.53c0-1.48 1.2-2.68 2.67-2.68h111.57c1.48 0 2.67 1.2 2.67 2.68v34.23c0 1.48-1.2 2.67-2.67 2.67H173.92a2.67 2.67 0 0 1-2.67-2.67v-34.23z" fill="#29478A"/><path d="M171.25 266.53c0-1.48 1.2-2.68 2.67-2.68h92.33c1.48 0 2.67 1.2 2.67 2.68v34.23c0 1.48-1.2 2.67-2.67 2.67h-92.33a2.67 2.67 0 0 1-2.67-2.67v-34.23z" fill="#C6DCF5"/><path d="M205.63 289.07h-6.95l-1.15 3.33h-3.68l6.28-17.51h4.08l6.28 17.5h-3.7l-1.16-3.32zm-.95-2.8-2.53-7.32-2.52 7.31h5.05zm20.04-11.36v2.83h-4.65v14.66h-3.5v-14.66h-4.66v-2.83h12.81zm21.6 0v17.49h-3.5v-11.37l-4.68 11.37h-2.65l-4.7-11.37v11.37h-3.51v-17.5h3.98l5.55 13 5.56-13h3.95z" fill="#0E2D5A"/><path fill="#29478A" d="M165.61 427.6h43.73v5.25h-43.73z"/><ellipse cx="170.05" cy="441.8" rx="2.64" ry="1.31" fill="#29478A"/><ellipse cx="178.8" cy="441.8" rx="2.64" ry="1.31" fill="#29478A"/><ellipse cx="187.54" cy="441.8" rx="2.64" ry="1.31" fill="#29478A"/><ellipse cx="196.29" cy="441.8" rx="2.64" ry="1.31" fill="#29478A"/><ellipse cx="164.8" cy="447.75" rx="2.64" ry="1.31" fill="#29478A"/><ellipse cx="173.55" cy="447.75" rx="2.64" ry="1.31" fill="#29478A"/><ellipse cx="182.3" cy="447.75" rx="2.64" ry="1.31" fill="#29478A"/><ellipse cx="191.04" cy="447.75" rx="2.64" ry="1.31" fill="#29478A"/><mask id="K" mask-type="alpha" maskUnits="userSpaceOnUse" x="32" y="366" width="29" height="62"><path d="m33.13 400.21 21.45-33.64 2.93 20.57-9.47 15.63 12.9 12.85-1.07 11.83-25.15-18.62a6.42 6.42 0 0 1-1.6-8.62z" fill="#87B448"/></mask><g mask="url(#K)"><path d="m33.13 400.21 21.45-33.64 2.93 20.57-9.47 15.63 12.9 12.85-1.07 11.83-25.15-18.62a6.42 6.42 0 0 1-1.6-8.62z" fill="#87B448"/><path d="M41.22 344.2v106.53M51.99 344.2v106.53" stroke="#5B8520" stroke-width="1.5"/></g><path d="M82 362.84v-14.52l-11.5-.67-2.77 15.19H82z" fill="#FEC6CE"/><path d="M87.84 349.8c1.7-3.73 1.14-21.38-4.37-29.02-7.48-10.37-18.9-5.29-23.53 0-3.94 4.52-8.09 15.73 2.02 24.4 10.5 9 24.4 7.85 25.88 4.61z" fill="#FEC6CE"/><path d="M82.74 358.94h-15.2a2.57 2.57 0 0 0-2.56 2.57v1.72h21.59L85 360.3a2.57 2.57 0 0 0-2.26-1.36z" fill="#087889"/><path d="M69.3 607.52v-11.53h9.01v4.64s11.06 0 15.28 6.89h-24.3z" fill="#0E1B3E"/><path d="M89.03 607.52v-11.53h9.02v4.64s10.14 0 15.27 6.89H89.03z" fill="#0E1B3E"/><mask id="M" mask-type="alpha" maskUnits="userSpaceOnUse" x="58" y="444" width="54" height="155"><path d="M65.83 598.18s-10.56-113.06-5.92-153.4h47.8c1.91 4.99 3.74 15.65 3.74 27.65 0 12-5.47 89.6-9.99 125.75H86.67l-2.6-123.44-3.74 123.44h-14.5z" fill="url(#L)"/></mask><g mask="url(#M)"><path d="M65.83 598.18s-10.56-113.06-5.92-153.4h47.8c1.91 4.99 3.74 15.65 3.74 27.65 0 12-5.47 89.6-9.99 125.75H86.67l-2.6-123.44-3.74 123.44h-14.5z" fill="url(#N)"/><path opacity=".5" d="M69.68 458.39c5.03-11.28 27.84-11.18 39.85-11.51l-49.69-5.62-5.2 26.08 8.92 132.76h6.46c-.16-22.72-.8-72.83-1.99-91.54-1.49-23.38-2.79-40.22 1.65-50.17z" fill="url(#O)"/></g><mask id="Q" mask-type="alpha" maskUnits="userSpaceOnUse" x="53" y="362" width="59" height="86"><path d="M59.58 362.95h31.16a6.41 6.41 0 0 1 6.32 5.28l14.3 79.35H56.97c1.24-7.4 3.73-24.34 3.73-32.82 0-7.1-4.26-29-7.44-44a6.47 6.47 0 0 1 6.31-7.81z" fill="url(#P)"/></mask><g mask="url(#Q)"><path d="M51.58 362.95h44.53l15.24 84.63H56.98c1.24-7.4 3.73-24.34 3.73-32.82s-6.08-38.07-9.13-51.81z" fill="#87B448"/><path fill-rule="evenodd" clip-rule="evenodd" d="M74.3 458.43V351.89h1.54v106.54H74.3zm-10.77 0V351.89h1.54v106.54h-1.54zm-10.77 0V351.89h1.54v106.54h-1.54zm32.3 0V351.89h1.55v106.54h-1.55zm10.77 0V351.89h1.54v106.54h-1.54zm10.77 0V351.89h1.54v106.54h-1.54z" fill="#5B8520"/><path opacity=".4" d="M74.16 378.88c4.14-6.72 3.95-8.7 2.37-16.8l-21.51 16.8c.79 8.69 2.72 27.53 4.14 33.38 1.42 5.85-2.17 26.14-4.14 35.55H70.6c5.13-10.46-5.33-39.9-5.13-48 .2-8.1 4.53-14.22 8.68-20.93z" fill="url(#R)"/><path opacity=".4" d="m96.94 418.42-9.56-42.9 24.96 44.76-6.74 2.7a6.42 6.42 0 0 1-8.66-4.56z" fill="url(#S)"/></g><path d="m143.86 386.83-5.46 2.56 2.63 7.38 10.38-1.63c.63-.1 1.09-.63 1.09-1.27v-4.65h5.95a.91.91 0 0 0 .09-1.82l-11.3-1.14a6.43 6.43 0 0 0-3.38.57z" fill="#FEC6CE"/><mask id="T" mask-type="alpha" maskUnits="userSpaceOnUse" x="84" y="363" width="59" height="51"><path d="m110.7 397.18-12.47-29.65a7.17 7.17 0 1 0-13.17 5.7l16.17 36.37a6.42 6.42 0 0 0 8.66 3.17l32.21-15.59-3.31-8.68-28.09 8.68z" fill="#87B448"/></mask><g mask="url(#T)"><mask id="U" mask-type="alpha" maskUnits="userSpaceOnUse" x="84" y="363" width="59" height="51"><path d="m110.7 397.18-12.47-29.65a7.17 7.17 0 1 0-13.17 5.7l16.17 36.37a6.42 6.42 0 0 0 8.66 3.17l32.21-15.59-3.31-8.68-28.09 8.68z" fill="#87B448"/></mask><g mask="url(#U)"><path d="m110.7 397.18-12.47-29.65a7.17 7.17 0 1 0-13.17 5.7l16.17 36.37a6.42 6.42 0 0 0 8.66 3.17l32.21-15.59-3.31-8.68-28.09 8.68z" fill="#87B448"/><path d="M107.37 359.6v106.53M96.6 359.6v106.53M85.83 359.6v106.53m32.31-106.53v106.53M128.9 359.6v106.53m10.77-106.53v106.53" stroke="#5B8520" stroke-width="1.28"/></g><path d="m139.35 400.33-4.91-11.75 4.91-.94 3.7 9.98-3.7 2.7z" fill="#087889"/></g><path d="M77.23 353.74c-1.26-6.28 0-9.68 4.57-13.71 7.6-6.72 9.04-12.98 6.68-17.8-3.2-6.53-14.92-11.6-24.05-6.8-9.5 5-7.59 14.2-14.02 20.77-6.42 6.55-1.44 10.3-.6 15.33.82 4.83-.23 5.05-3.2 9.06-4.7 6.32.04 10.14 3.2 13.26 3.25 3.2 3.41 7.27 3.41 11.81 0 6.82 4.43 6.66 5.98 3.94 1.56-2.73 1.52-6.15 6.17-6.6 6.16-.6 7.59-.93 7.59-7.55 0-4.1 7.06-5.9 7.18-10.78.1-4.89-1.25-2.72-2.9-10.93z" fill="#4F2F1C"/><defs><linearGradient id="b" x1="895.82" y1="246.73" x2="908.86" y2="245.51" gradientUnits="userSpaceOnUse"><stop stop-color="#234B52" stop-opacity=".5"/><stop offset=".02" stop-color="#20464E" stop-opacity=".51"/><stop offset=".13" stop-color="#183542" stop-opacity=".57"/><stop offset=".27" stop-color="#122A39" stop-opacity=".64"/><stop offset=".46" stop-color="#0E2334" stop-opacity=".73"/><stop offset="1" stop-color="#0D2133"/></linearGradient><linearGradient id="c" x1="850.87" y1="239.25" x2="864.28" y2="238" gradientUnits="userSpaceOnUse"><stop stop-color="#234B52" stop-opacity=".5"/><stop offset=".02" stop-color="#20464E" stop-opacity=".51"/><stop offset=".13" stop-color="#183542" stop-opacity=".57"/><stop offset=".27" stop-color="#122A39" stop-opacity=".64"/><stop offset=".46" stop-color="#0E2334" stop-opacity=".73"/><stop offset="1" stop-color="#0D2133"/></linearGradient><linearGradient id="d" x1="829.47" y1="266.07" x2="840.12" y2="265.07" gradientUnits="userSpaceOnUse"><stop stop-color="#234B52" stop-opacity=".5"/><stop offset=".02" stop-color="#20464E" stop-opacity=".51"/><stop offset=".13" stop-color="#183542" stop-opacity=".57"/><stop offset=".27" stop-color="#122A39" stop-opacity=".64"/><stop offset=".46" stop-color="#0E2334" stop-opacity=".73"/><stop offset="1" stop-color="#0D2133"/></linearGradient><linearGradient id="m" x1="209.77" y1="146.46" x2="229.38" y2="144.63" gradientUnits="userSpaceOnUse"><stop stop-color="#234B52" stop-opacity=".5"/><stop offset=".02" stop-color="#20464E" stop-opacity=".51"/><stop offset=".13" stop-color="#183542" stop-opacity=".57"/><stop offset=".27" stop-color="#122A39" stop-opacity=".64"/><stop offset=".46" stop-color="#0E2334" stop-opacity=".73"/><stop offset="1" stop-color="#0D2133"/></linearGradient><linearGradient id="n" x1="142.15" y1="135.2" x2="162.32" y2="133.31" gradientUnits="userSpaceOnUse"><stop stop-color="#234B52" stop-opacity=".5"/><stop offset=".02" stop-color="#20464E" stop-opacity=".51"/><stop offset=".13" stop-color="#183542" stop-opacity=".57"/><stop offset=".27" stop-color="#122A39" stop-opacity=".64"/><stop offset=".46" stop-color="#0E2334" stop-opacity=".73"/><stop offset="1" stop-color="#0D2133"/></linearGradient><linearGradient id="o" x1="109.95" y1="175.55" x2="125.98" y2="174.05" gradientUnits="userSpaceOnUse"><stop stop-color="#234B52" stop-opacity=".5"/><stop offset=".02" stop-color="#20464E" stop-opacity=".51"/><stop offset=".13" stop-color="#183542" stop-opacity=".57"/><stop offset=".27" stop-color="#122A39" stop-opacity=".64"/><stop offset=".46" stop-color="#0E2334" stop-opacity=".73"/><stop offset="1" stop-color="#0D2133"/></linearGradient><linearGradient id="L" x1="85.15" y1="426.1" x2="164.58" y2="545.2" gradientUnits="userSpaceOnUse"><stop stop-color="#0E2D5A"/><stop offset="1" stop-color="#34497E"/></linearGradient><linearGradient id="N" x1="85.15" y1="426.1" x2="164.58" y2="545.2" gradientUnits="userSpaceOnUse"><stop stop-color="#0E2D5A"/><stop offset="1" stop-color="#34497E"/></linearGradient><linearGradient id="O" x1="82.08" y1="434.18" x2="82.08" y2="600.1" gradientUnits="userSpaceOnUse"><stop stop-color="#000921"/><stop offset="1" stop-color="#000E32" stop-opacity="0"/></linearGradient><linearGradient id="P" x1="51.58" y1="356.02" x2="105.67" y2="453.79" gradientUnits="userSpaceOnUse"><stop stop-color="#87B448"/><stop offset="1" stop-color="#13AED0"/></linearGradient><linearGradient id="R" x1="61.31" y1="459.57" x2="30.27" y2="384.89" gradientUnits="userSpaceOnUse"><stop stop-color="#165748" stop-opacity="0"/><stop offset="1" stop-color="#0A4631"/></linearGradient><linearGradient id="S" x1="110.54" y1="431.81" x2="92.16" y2="382.01" gradientUnits="userSpaceOnUse"><stop stop-color="#165748" stop-opacity="0"/><stop offset="1" stop-color="#0A4631"/></linearGradient></defs></svg>