<svg width="87" height="35" fill="none" xmlns="http://www.w3.org/2000/svg"><path d="M10.12 4.61c.01-.7-.05-1.41-.18-2.11 0-.13-.2-1.97-.24-1.97 1.47.2 2.1 2.36 3.57 2.7 1.67.11 3.35-.06 4.96-.53h.23a8.3 8.3 0 0 1-.36-1.04 2.06 2.06 0 0 1 1.65.87c1.05-.14 2.1-.25 3.17-.28 0-.28-.1-.54-.18-.78a9 9 0 0 1-.42-1.3 4.09 4.09 0 0 1 3.04 2.28 18.39 18.39 0 0 1 6.63 2.35c.54.31 1.4.61.95 1.31a1.5 1.5 0 0 1-.44.43c-.73.39-1.52.65-2.33.78-2.13.46-4.31.6-6.48.45h-.17a2.84 2.84 0 0 1-2.63 1.3c.15-.28.32-.56.52-.83.1-.21.21-.42.3-.64a40.18 40.18 0 0 1-4.05-.88c-1.09-.3-2.1-.65-3.2-.87a5.62 5.62 0 0 0-3.02 0c-.52.22-1.32 1.15-1.86.84 0-.82.48-1.37.54-2.08zm.55 11.42a10.8 10.8 0 0 0-.15-2.27 44 44 0 0 0-.21-2.13c1.57.26 2.19 2.62 3.77 2.97 1.79.16 3.6 0 5.33-.49h.25a9.35 9.35 0 0 1-.36-1.14 2.23 2.23 0 0 1 1.76.97c1.13-.14 2.26-.22 3.4-.24a6.59 6.59 0 0 0-.17-.82c-.17-.5-.3-1-.4-1.5a4.44 4.44 0 0 1 3.23 2.52 19.62 19.62 0 0 1 7.06 2.63c.58.34 1.5.68 1 1.45-.12.2-.28.36-.48.46-.8.4-1.65.67-2.52.8-2.3.44-4.64.56-6.97.36h-.18a3.05 3.05 0 0 1-2.82 1.31c-.08 0 .52-.81.56-.89.13-.22.24-.45.33-.68a39.9 39.9 0 0 1-4.32-1.03c-1.17-.34-2.25-.73-3.43-.98a6.05 6.05 0 0 0-3.24 0c-.57.23-1.32 1.23-2.01.88-.03-.84.5-1.45.57-2.18zm-22.09-8.08c0-.57-.05-1.15-.16-1.7 0-.13-.2-1.65-.22-1.66 1.23.15 1.79 1.94 3.02 2.2 1.4.06 2.79-.13 4.11-.56h.2c-.14-.3-.26-.6-.36-.9a1.76 1.76 0 0 1 1.4.69 29.2 29.2 0 0 1 2.62-.29 4.61 4.61 0 0 0-.15-.64 6.03 6.03 0 0 1-.38-1.08 3.42 3.42 0 0 1 2.62 1.85 15.76 15.76 0 0 1 5.53 1.8c.45.25 1.18.49.82 1.1-.1.14-.22.26-.36.36-.6.34-1.26.57-1.94.7-1.76.41-3.57.58-5.37.5H-.2a2.39 2.39 0 0 1-2.18 1.07c.11-.25.25-.49.42-.7.08-.18.16-.36.22-.55-1.14-.17-2.28-.4-3.37-.67-1.1-.27-1.76-.5-2.7-.65a4.65 4.65 0 0 0-2.45.08c-.44.2-1.03 1-1.53.73-.05-.58.33-1.06.37-1.68zm-1.05 19.32c0-.6-.07-1.18-.2-1.76 0-.1-.2-1.63-.22-1.64 1.24.16 1.79 1.93 3.02 2.2 1.4.05 2.79-.13 4.11-.56h.2a7.02 7.02 0 0 1-.32-.87 1.76 1.76 0 0 1 1.4.7 25.6 25.6 0 0 1 2.62-.29c0-.22-.09-.45-.14-.64a6.57 6.57 0 0 1-.38-1.12 3.43 3.43 0 0 1 2.63 1.85 15 15 0 0 1 5.56 1.82c.45.26 1.19.48.82 1.1-.1.15-.21.27-.36.37-.6.34-1.26.57-1.94.7-1.76.4-3.58.58-5.39.5h-.14a2.36 2.36 0 0 1-2.14 1.07c.12-.25.26-.48.4-.71.1-.17.18-.35.24-.54a36.5 36.5 0 0 1-3.37-.66c-1.1-.26-1.76-.5-2.7-.65a4.7 4.7 0 0 0-2.52.08c-.42.2-1 .98-1.5.73-.1-.62.28-1.11.32-1.68zm82.03-10.91a7.1 7.1 0 0 0-.17-1.53c0-.09-.17-1.42-.2-1.42 1.06.13 1.55 1.67 2.63 1.9 1.2.06 2.4-.1 3.56-.48h.15c-.1-.24-.19-.5-.26-.75a1.51 1.51 0 0 1 1.2.6c.75-.11 1.5-.2 2.27-.24a4.9 4.9 0 0 0-.13-.55 7.08 7.08 0 0 1-.33-.98 3.02 3.02 0 0 1 2.22 1.6 13.26 13.26 0 0 1 4.8 1.58c.4.21 1.02.42.72.95-.09.12-.2.23-.32.31-.52.3-1.1.5-1.68.6-1.52.37-3.09.51-4.65.43h-.12a2.05 2.05 0 0 1-1.86.93c.1-.21.23-.42.36-.62 0-.13.13-.29.2-.46-.98-.13-1.96-.33-2.92-.57-.78-.2-1.52-.44-2.32-.57a4.23 4.23 0 0 0-2.18.07c-.37.17-.88.86-1.31.64-.03-.52.3-.96.34-1.44zm-33.79-5.78c0-.6-.07-1.18-.2-1.75 0-.12-.19-1.64-.22-1.64 1.23.14 1.79 1.93 3.02 2.18 1.4.07 2.8-.11 4.12-.55h.2a6.31 6.31 0 0 1-.32-.87 1.76 1.76 0 0 1 1.39.7 28.2 28.2 0 0 1 2.63-.3c0-.22-.1-.44-.15-.64a6.57 6.57 0 0 1-.38-1.11 3.43 3.43 0 0 1 2.63 1.85c1.95.26 3.84.88 5.57 1.82.44.25 1.17.49.81 1.1-.1.15-.22.27-.35.38-.61.32-1.27.55-1.95.68-1.76.41-3.57.58-5.38.5h-.15a2.38 2.38 0 0 1-2.14 1.09c.12-.25.25-.49.41-.71.1-.17.17-.35.24-.54a31.33 31.33 0 0 1-3.38-.67c-.92-.24-1.76-.5-2.63-.66a4.8 4.8 0 0 0-2.52.08c-.42.2-1.01 1-1.52.75-.15-.64.2-1.13.27-1.7zm6.03 12.19a8.79 8.79 0 0 0-.2-1.69c0-.11-.2-1.64-.22-1.64 1.22.15 1.79 1.93 3.02 2.18 1.4.08 2.79-.1 4.11-.54h.2a6.86 6.86 0 0 1-.31-.85 1.7 1.7 0 0 1 1.39.7 21.8 21.8 0 0 1 2.63-.3 5.95 5.95 0 0 0-.15-.64 7.05 7.05 0 0 1-.38-1.11 3.42 3.42 0 0 1 2.63 1.84 15.03 15.03 0 0 1 5.57 1.82c.44.25 1.18.49.81 1.1-.1.15-.21.28-.35.37-.6.34-1.27.57-1.95.69-1.76.42-3.57.59-5.38.5h-.15a2.35 2.35 0 0 1-2.14 1.09c.12-.25.25-.49.4-.71.1-.18.18-.36.25-.54a31.33 31.33 0 0 1-3.38-.67c-.92-.23-1.76-.5-2.7-.66-.83-.2-1.7-.16-2.51.1-.43.18-1.02.98-1.52.73-.09-.71.3-1.2.33-1.77zm-23.44 8.6c0-.6-.07-1.18-.2-1.76 0-.12-.2-1.64-.22-1.64 1.22.15 1.78 1.93 3.02 2.18 1.39.07 2.78-.11 4.11-.54h.2a7.88 7.88 0 0 1-.32-.87 1.72 1.72 0 0 1 1.4.7c.86-.14 1.74-.24 2.62-.3 0-.21-.1-.44-.14-.63a7.05 7.05 0 0 1-.38-1.12 3.4 3.4 0 0 1 2.62 1.85 15 15 0 0 1 5.57 1.81c.45.27 1.17.49.82 1.1-.1.15-.22.28-.36.37a6.1 6.1 0 0 1-1.94.7c-1.77.41-3.58.58-5.39.49h-.14a2.35 2.35 0 0 1-2.14 1.09c.12-.25.25-.48.4-.71.1-.17.18-.35.24-.54a31.3 31.3 0 0 1-3.44-.64c-.92-.23-1.76-.49-2.63-.65a4.7 4.7 0 0 0-2.52.08c-.42.2-1.01.99-1.52.74-.08-.65.3-1.15.34-1.71z" opacity=".5" fill="#A7C7F2"/></svg>