<?xml version="1.0" encoding="UTF-8"?>
<svg fill="none" viewBox="0 0 620 434" xmlns="http://www.w3.org/2000/svg">
<path d="m419.47 44.04s9.041-2.5842 9.386-8.2183c0.346-5.6341-15.101-5.3079-15.101-5.3079s-5.13-4.2229-8.834-3.2065c0 0-9.617-7.3404-19.742-0.5886 0 0-10.474-2.5371-17.481-0.3019-7.006 2.2353-0.7 11.416-0.7 11.416s-3.08 1.4692-3.345 4.8284c-0.266 3.3591 3.233 3.2775 3.233 3.2775s0.28 4.6066 6.163 4.76c0 0-0.405 4.6829 6.399 6.2252 6.804 1.5424 12.925-2.6718 12.925-2.6718s5.684 4.8491 9.29 4.9517c3.606 0.1027 1.643-2.6529 1.643-2.6529s3.748 1.651 6.624 0.6134c2.877-1.0376 2.247-3.3265 2.247-3.3265s9.103 0.7654 9.757-2.6588c0 0 6.78-1.9234 7.253-3.8486 0.445-1.9565-9.717-3.2902-9.717-3.2902z" fill="#95A491"/>
<path d="m463.85 102.54s-35.427 15.209-46.464 13.17c-11.036-2.068 3.126-9.461 3.126-9.461s-16.716 8.48-30.274 4.569c-13.558-3.91-13.245-9.014-13.245-9.014s-28.442 8.501-37.476-0.136c-9.036-8.6074 3.097-20.092 3.097-20.092s-6.879-0.8067-6.802-5.9243c0.047-5.1194 15.474-9.4736 15.474-9.4736s-9.143-6.8672-5.348-12.734c3.794-5.8668 22.879-4.6967 22.879-4.6967s5.885-13.407 17.792-12.5c11.904 0.9371 9.239 9.6268 9.239 9.6268s14.543-7.3101 26.486-2.6695c0 0 23.598-0.9515 27.073 4.1766 3.476 5.1282-8.803 5.9447-8.803 5.9447s17.202 1.4691 21.75 9.387c4.548 7.918-1.975 14.831-1.975 14.831s15.31 6.2387 9.193 10.394l-6.118 4.1551s17.03 2.3468 0.396 10.446z" fill="#95A491"/>
<path d="m384.46 293.92s3.971-110.64 4.339-143.69c0 0 23.391-13.518 37.573-31.865l-2.132-2.884s-24.838 19.736-35.104 22.008l1.342-46.522c0.098-3.0438-2.535-5.4851-5.577-5.1386-2.414 0.2665-4.281 2.2246-4.457 4.6122-1.744 23.61-10.41 141.78-14.264 203.19l18.28 0.291z" fill="#95A491"/>
<path d="m375.63 225.5s0.798 3.898 0.863 10.564 1.203 13.694 0.261 13.606c-0.97-0.118-1.328-11.658-1.86-12.164-0.533-0.477-3.293 3.973-3.199 2.439 0.092-1.505 1.994-5.474 2.106-7.303 0.14-1.798 1.254-11.767 1.829-7.142z" fill="#95A491"/>
<path d="m388.8 150.23c-0.368 33.051-4.339 143.69-4.339 143.69l-4.022-0.069c9.807-113.6-1.471-144.08 6.912-145.58 8.533-1.55 38.993-29.913 38.993-29.913-14.151 18.319-37.544 31.867-37.544 31.867z" fill="#95A491"/>
<path d="m373.9 180.39c1.31 2.775 1.642 6.052 0.665 8.953 0.364 0.822 1.631-0.048 1.862-0.922 0.232-0.874 0.75-2.086 1.62-1.796-1.208 5.226-2.417 10.452-3.598 15.709-0.205 0.935-0.438 1.839-0.496 2.783-0.065 1.062 0.076 2.136 0.188 3.209 0.402 3.578 0.624 7.204-0.037 10.746-0.528 2.81-1.643 5.554-3.466 7.752 1.059-15.332 2.175-31.134 3.262-46.434z" fill="#95A491"/>
<path d="m377.42 132.44c0.413 0.026 0.859-6e-3 1.277-0.07 0.448-0.061 0.986-0.146 1.261 0.196 0.165 0.218 0.176 0.514 0.16 0.78-0.06 2.424 0.057 4.859 0.324 7.274 0.08 0.627 0.158 1.283 0.419 1.861 0.26 0.579 0.674 1.078 0.724 1.703 0.073 0.744-0.382 1.398-0.746 2.027-1.527 2.689-1.733 6.052-0.607 8.934-0.682 0.017-1.143-0.662-1.715-0.993-0.889-0.47-1.921-0.059-2.702 0.604 0.519-8.081 1.051-15.628 1.605-22.316z" fill="#95A491"/>
<path d="m377.02 101.81s-28.443 8.501-37.477-0.136c-9.036-8.6076 3.097-20.092 3.097-20.092s-6.879-0.8067-6.802-5.9243c0.011-2.1016 2.679-4.0994 5.767-5.6866-0.325 3.8588-0.345 7.5587 1.834 10.653 3.049 4.3618 9.038 5.2026 14.337 5.7052-2.436 2.545-3.876 6.2171-3.047 9.6137 0.826 3.4261 9.431 3.3293 12.878 2.6523 1.378-0.2708 7.234-3.1681 8.405-3.9253 7.616-4.9219 5.096-5.4594 11.807-11.562-0.427 2.609 2.216 4.9029 4.867 5.1247 2.651 0.2217 5.155-1.0164 7.536-2.1732 2.38-1.1569 4.969-2.3306 7.581-1.9631 1.293 0.168 2.503 0.716 3.788 1.002 7.892 1.6682 14.404-6.9928 22.452-7.8615 5.99-0.6394 12.064 3.1676 17.852 1.4795 5.278-1.5714 8.127-6.9928 12.069-10.926 0.426 5.6222-3.562 9.819-3.562 9.819s15.31 6.2387 9.192 10.394l-6.117 4.1551s17.004 2.286 0.341 10.384c0 0-35.427 15.209-46.465 13.17-11.037-2.039 3.127-9.461 3.127-9.461s-16.716 8.48-30.274 4.569c-13.499-3.907-13.186-9.01-13.186-9.01z" fill="#95A491"/>
<path d="m410.65 78.793s3.704 6.2376-1.624 5.7333c0 0 4.421 4.6828 4.066 7.0889-0.353 2.3767-7.365-0.1258-7.365-0.1258s1.939 2.6652-2.492 4.9103c-4.402 2.2469-7.516 0.3979-7.516 0.3979s-2.218 1.4037-6.05 0.162c-3.803-1.2398-3.855-2.309-3.855-2.309s-5.909 2.6875-10.003-0.0803c-4.094-2.7677 0.262-4.2772 0.262-4.2772s-7.959 1.3478-9.94-2.5636c-1.98-3.9113 8.02-7.177 8.02-7.177s-5.053-0.1617-4.843-1.6589c0.183-1.5285 7.879-3.4253 7.879-3.4253s-0.311-1.2035 3.631-2.235 10.432 1.291 10.432 1.291 2.746-3.74 5.623-2.853c2.845 0.9147 2.499 2.2258 2.499 2.2258s7.507-2.2045 9.315 1.6371c0.029 0.0018 0.227-0.8151 1.961 3.2588z" fill="#95A491"/>
<path d="m460.53 107.43s5.773 9.681-2.502 8.937c0 0 6.867 7.29 6.313 11.016-0.525 3.729-11.447-0.198-11.447-0.198s3.004 4.122-3.873 7.639c-6.878 3.516-11.674 0.616-11.674 0.616s-3.451 2.187-9.372 0.255c-5.922-1.933-5.97-3.564-5.97-3.564s-9.17 4.205-15.567-0.125c-6.396-4.331 0.407-6.637 0.407-6.637s-12.356 2.084-15.477-3.999c-3.091-6.082 12.467-11.138 12.467-11.138s-7.831-0.244-7.539-2.595c0.292-2.35 12.26-5.347 12.26-5.347s-0.476-1.895 5.661-3.4728c6.137-1.5779 16.19 2.0288 16.19 2.0288s4.296-5.8359 8.739-4.4088c4.444 1.3976 3.875 3.4353 3.875 3.4353s11.64-3.4316 14.471 2.5455c-0.028-0.031 0.317-1.313 3.038 5.012z" fill="#95A491"/>
<path d="m275.7 44.04s9.041-2.5842 9.387-8.2183c0.345-5.6341-15.101-5.3079-15.101-5.3079s-5.13-4.2229-8.834-3.2065c0 0-9.617-7.3404-19.743-0.5886 0 0-10.474-2.5371-17.48-0.3019-7.006 2.2353-0.7 11.416-0.7 11.416s-3.08 1.4692-3.346 4.8284c-0.265 3.3591 3.234 3.2775 3.234 3.2775s0.28 4.6066 6.163 4.76c0 0-0.406 4.6829 6.399 6.2252 6.804 1.5424 12.925-2.6718 12.925-2.6718s5.684 4.8491 9.29 4.9517c3.606 0.1027 1.643-2.6529 1.643-2.6529s3.748 1.651 6.624 0.6134c2.877-1.0376 2.247-3.3265 2.247-3.3265s9.102 0.7654 9.756-2.6588c0 0 6.78-1.9234 7.254-3.8486 0.445-1.9565-9.718-3.2902-9.718-3.2902z" fill="#95A491"/>
<path d="m320.08 102.54s-35.427 15.209-46.464 13.17c-11.036-2.068 3.126-9.461 3.126-9.461s-16.716 8.48-30.274 4.569c-13.558-3.91-13.245-9.014-13.245-9.014s-28.442 8.501-37.476-0.136c-9.036-8.6074 3.097-20.092 3.097-20.092s-6.879-0.8067-6.802-5.9243c0.047-5.1194 15.474-9.4736 15.474-9.4736s-9.143-6.8672-5.349-12.734c3.795-5.8668 22.88-4.6967 22.88-4.6967s5.885-13.407 17.791-12.5c11.905 0.9371 9.24 9.6268 9.24 9.6268s14.542-7.3101 26.486-2.6695c0 0 23.598-0.9515 27.073 4.1766 3.476 5.1282-8.803 5.9447-8.803 5.9447s17.202 1.4691 21.75 9.387c4.548 7.918-1.975 14.831-1.975 14.831s15.31 6.2387 9.192 10.394l-6.117 4.1551s17.029 2.3468 0.396 10.446z" fill="#95A491"/>
<path d="m240.7 293.92s3.971-110.64 4.339-143.69c0 0 23.391-13.518 37.573-31.865l-2.133-2.884s-24.838 19.736-35.103 22.008l1.342-46.522c0.098-3.0438-2.536-5.4851-5.577-5.1386-2.415 0.2665-4.282 2.2246-4.458 4.6122-1.743 23.61-10.409 141.78-14.263 203.19l18.28 0.291z" fill="#95A491"/>
<path d="m231.86 225.5s0.798 3.898 0.863 10.564 1.203 13.694 0.261 13.606c-0.97-0.118-1.328-11.658-1.86-12.164-0.533-0.477-3.293 3.973-3.199 2.439 0.092-1.505 1.994-5.474 2.106-7.303 0.14-1.798 1.254-11.767 1.829-7.142z" fill="#95A491"/>
<path d="m245.03 150.23c-0.368 33.051-4.339 143.69-4.339 143.69l-4.022-0.069c9.807-113.6-1.471-144.08 6.911-145.58 8.534-1.55 38.994-29.913 38.994-29.913-14.152 18.319-37.544 31.867-37.544 31.867z" fill="#95A491"/>
<path d="m230.13 180.39c1.311 2.775 1.643 6.052 0.665 8.953 0.365 0.822 1.632-0.048 1.863-0.922s0.75-2.086 1.62-1.796c-1.208 5.226-2.417 10.452-3.598 15.709-0.205 0.935-0.438 1.839-0.496 2.783-0.065 1.062 0.076 2.136 0.188 3.209 0.402 3.578 0.624 7.204-0.037 10.746-0.528 2.81-1.644 5.554-3.466 7.752 1.058-15.332 2.175-31.134 3.261-46.434z" fill="#95A491"/>
<path d="m233.66 132.44c0.413 0.026 0.859-6e-3 1.277-0.07 0.448-0.061 0.986-0.146 1.261 0.196 0.165 0.218 0.176 0.514 0.16 0.78-0.06 2.424 0.057 4.859 0.324 7.274 0.08 0.627 0.158 1.283 0.418 1.861 0.261 0.579 0.675 1.078 0.725 1.703 0.073 0.744-0.382 1.398-0.746 2.027-1.527 2.689-1.733 6.052-0.607 8.934-0.682 0.017-1.144-0.662-1.716-0.993-0.889-0.47-1.921-0.059-2.701 0.604 0.519-8.081 1.05-15.628 1.605-22.316z" fill="#95A491"/>
<path d="m233.26 101.81s-28.442 8.501-37.476-0.136c-9.036-8.6076 3.097-20.092 3.097-20.092s-6.879-0.8067-6.802-5.9243c0.01-2.1016 2.679-4.0994 5.767-5.6866-0.325 3.8588-0.345 7.5587 1.834 10.653 3.049 4.3618 9.038 5.2026 14.336 5.7052-2.436 2.545-3.875 6.2171-3.047 9.6137 0.827 3.4261 9.432 3.3293 12.878 2.6523 1.379-0.2708 7.235-3.1681 8.406-3.9253 7.615-4.9219 5.096-5.4594 11.807-11.562-0.427 2.609 2.216 4.9029 4.867 5.1247 2.651 0.2217 5.155-1.0164 7.535-2.1732 2.381-1.1569 4.97-2.3306 7.582-1.9631 1.293 0.168 2.503 0.716 3.788 1.002 7.892 1.6682 14.404-6.9928 22.452-7.8615 5.99-0.6394 12.064 3.1676 17.852 1.4795 5.278-1.5714 8.127-6.9928 12.069-10.926 0.425 5.6222-3.563 9.819-3.563 9.819s15.311 6.2387 9.193 10.394l-6.117 4.1551s17.003 2.286 0.34 10.384c0 0-35.426 15.209-46.464 13.17-11.037-2.039 3.127-9.461 3.127-9.461s-16.716 8.48-30.274 4.569c-13.499-3.907-13.187-9.01-13.187-9.01z" fill="#95A491"/>
<path d="m266.88 78.793s3.704 6.2376-1.624 5.7333c0 0 4.42 4.6828 4.066 7.0889-0.353 2.3767-7.365-0.1258-7.365-0.1258s1.938 2.6652-2.493 4.9103c-4.401 2.2469-7.515 0.3979-7.515 0.3979s-2.218 1.4037-6.05 0.162c-3.803-1.2398-3.856-2.309-3.856-2.309s-5.909 2.6875-10.003-0.0803c-4.094-2.7677 0.263-4.2772 0.263-4.2772s-7.959 1.3478-9.94-2.5636c-1.981-3.9113 8.02-7.177 8.02-7.177s-5.053-0.1617-4.843-1.6589c0.183-1.5285 7.879-3.4253 7.879-3.4253s-0.311-1.2035 3.631-2.235 10.432 1.291 10.432 1.291 2.746-3.74 5.623-2.853c2.845 0.9147 2.498 2.2258 2.498 2.2258s7.508-2.2045 9.316 1.6371c0.029 0.0018 0.227-0.8151 1.961 3.2588z" fill="#95A491"/>
<path d="m316.76 107.43s5.773 9.681-2.502 8.937c0 0 6.867 7.29 6.312 11.016-0.524 3.729-11.446-0.198-11.446-0.198s3.004 4.122-3.873 7.639c-6.878 3.516-11.675 0.616-11.675 0.616s-3.45 2.187-9.372 0.255c-5.921-1.933-5.969-3.564-5.969-3.564s-9.17 4.205-15.567-0.125c-6.396-4.331 0.407-6.637 0.407-6.637s-12.356 2.084-15.477-3.999c-3.092-6.082 12.467-11.138 12.467-11.138s-7.831-0.244-7.539-2.595c0.292-2.35 12.26-5.347 12.26-5.347s-0.476-1.895 5.661-3.4728c6.137-1.5779 16.19 2.0288 16.19 2.0288s4.296-5.8359 8.739-4.4088c4.444 1.3976 3.875 3.4353 3.875 3.4353s11.639-3.4316 14.471 2.5455c-0.028-0.031 0.317-1.313 3.038 5.012z" fill="#95A491"/>
<path d="m309.52 289.74 8.938-178.43s-16.362 18.623-19.14 16.081 6.328-15.512 6.328-15.512-25.274 18.801-30.193 17.061c-4.918-1.74-6.583-12.273 29.428-45.312 0 0-10.604 8.6302-17.594 8.0159s-0.41-9.2289 22.57-25.806c0 0-10.679 4.4995-13.912 2.7392-3.234-1.7602-1.308-9.8417 29.392-35.084 0 0 23.087 17.686 24.57 22.897 1.482 5.2105-12.842 1.1143-14.862-0.2646 0 0 21.085 16.687 24.007 21.236 2.921 4.5482-1.634 12.203-23.18-2.615 0 0 26.961 27.741 32.216 35.83 5.254 8.089 2.397 12.35-8.238 8.035-10.69-4.312-24.975-14.883-24.975-14.883s20.756 19.096 21.258 23.044c0.502 3.949-19.106-0.294-30.877-13.043l0.713 175.28-16.449 0.731z" fill="#AAB7A7"/>
<path d="m234.15 288.99 5.585-58.989s-5.704 5.94-6.561 5.054c-0.857-0.887 2.335-5.054 2.335-5.054s-8.659 5.852-10.255 5.201c-1.596-0.65-2.01-4.167 10.403-14.569 0 0-3.635 2.718-5.94 2.393-2.306-0.295 0-3.044 7.861-8.215 0 0-3.606 1.329-4.64 0.709-1.034-0.621-0.296-3.281 10.255-11.201 0 0 7.388 6.206 7.802 7.95s-4.256 0.177-4.906-0.296c0 0 6.738 5.852 7.625 7.389s-0.709 4.019-7.625-1.212c0 0 8.541 9.605 10.137 12.353 1.625 2.749 0.621 4.138-2.867 2.542-3.487-1.596-8.038-5.29-8.038-5.29s6.59 6.649 6.708 7.95c0.119 1.3-6.324-0.384-10.048-4.788l-2.364 58.073h-5.467z" fill="#AAB7A7"/>
<path d="m186.42 333.82 14.865-157.02s-15.161 15.781-17.495 13.447c-2.335-2.335 6.176-13.447 6.176-13.447s-23.022 15.574-27.307 13.86-5.32-11.082 27.721-38.803c0 0-9.693 7.211-15.84 6.413-6.148-0.798 0-8.127 20.923-21.87 0 0-9.605 3.547-12.353 1.862-2.748-1.684-0.768-8.718 27.307-29.819 0 0 19.683 16.491 20.776 21.16 1.094 4.67-11.348 0.443-13.092-0.827 0 0 17.939 15.574 20.333 19.682s-1.921 10.699-20.333-3.192c0 0 22.697 25.535 27.012 32.864s1.655 10.994-7.595 6.767c-9.25-4.226-21.426-14.096-21.426-14.096s17.584 17.672 17.85 21.16c0.266 3.487-16.846-1.005-26.746-12.738l-6.295 154.59h-14.481z" fill="#AAB7A7"/>
<path d="m227.51 287.99 10.462-110.56s-10.669 11.113-12.324 9.458 4.344-9.458 4.344-9.458-16.224 10.965-19.209 9.753c-3.015-1.212-3.754-7.802 19.535-27.337 0 0-6.827 5.083-11.142 4.492-4.315-0.561 0-5.733 14.747-15.397 0 0-6.768 2.483-8.718 1.33-1.951-1.153-0.532-6.147 19.239-20.983 0 0 13.861 11.614 14.629 14.895 0.768 3.28-7.979 0.325-9.221-0.591 0 0 12.649 10.964 14.304 13.86 1.685 2.897-1.359 7.537-14.304-2.246 0 0 15.989 17.998 19.003 23.141 3.044 5.171 1.153 7.743-5.349 4.758-6.502-2.956-15.072-9.93-15.072-9.93s12.383 12.442 12.56 14.895-11.851-0.71-18.826-8.955l-4.433 108.88h-10.225z" fill="#6B8166"/>
<path d="m276.16 333.82 14.865-157.02s-15.161 15.781-17.496 13.447c-2.334-2.335 6.177-13.447 6.177-13.447s-23.022 15.574-27.307 13.86-5.32-11.082 27.721-38.803c0 0-9.694 7.211-15.841 6.413s0-8.127 20.924-21.87c0 0-9.605 3.547-12.353 1.862-2.749-1.684-0.769-8.718 27.307-29.819 0 0 19.683 16.491 20.776 21.16 1.094 4.67-11.348 0.443-13.092-0.827 0 0 17.939 15.574 20.333 19.682s-1.921 10.699-20.333-3.192c0 0 22.697 25.535 27.012 32.864s1.655 10.994-7.595 6.767c-9.251-4.226-21.427-14.096-21.427-14.096s17.585 17.672 17.851 21.16c0.266 3.487-16.846-1.005-26.746-12.738l-6.295 154.59h-14.481z" fill="#95A491"/>
<path d="m144.07 292.52 2.081-68.296s-6.122 7.238-7.188 6.3c-1.066-0.937 2.309-5.987 2.309-5.987s-9.521 7.358-11.41 6.733c-1.89-0.625-2.601-4.635 10.912-17.537 0 0-4.001 3.371-6.671 3.217-2.673-0.185-0.226-3.522 8.44-10.046 0 0-4.039 1.783-5.28 1.149s-0.565-3.76 10.968-13.647c0 0 8.953 6.563 9.568 8.568 0.613 1.972-4.899 0.508-5.677 7e-3 0 0 8.185 6.223 9.333 7.934 1.147 1.711-0.544 4.675-8.878-0.826 0 0 10.531 10.421 12.575 13.469 2.045 3.049 1.015 4.704-3.107 3.152-4.123-1.553-9.664-5.513-9.664-5.513s8.081 7.139 8.308 8.649c0.226 1.511-7.297 0.046-11.919-4.751l1.567 66.991-6.269 0.402 2e-3 0.032z" fill="#AAB7A7"/>
<path d="m343.8 288.99 7.447-78.878s-7.595 7.92-8.777 6.738 3.103-6.738 3.103-6.738-11.585 7.831-13.713 6.974-2.689-5.585 13.92-19.505c0 0-4.876 3.606-7.95 3.221-3.074-0.413 0-4.078 10.521-10.994 0 0-4.817 1.774-6.206 0.946-1.389-0.827-0.384-4.374 13.713-14.983 0 0 9.87 8.275 10.432 10.639 0.561 2.335-5.704 0.236-6.59-0.414 0 0 9.013 7.832 10.195 9.9 1.183 2.069-0.975 5.379-10.195-1.595 0 0 11.407 12.826 13.565 16.52 2.157 3.665 0.827 5.526-3.813 3.399-4.64-2.128-10.757-7.093-10.757-7.093s8.836 8.866 8.954 10.609c0.119 1.744-8.452-0.502-13.417-6.383l-3.162 77.666h-7.27v-0.029z" fill="#AAB7A7"/>
<path d="m305.31 298.68s13.444-57.312 9.633-58.317c-3.812-1.039-11.123 52.08-11.123 52.08s5.821-70.063 2.911-71.415c-2.911-1.386-4.748 69.717-4.748 69.717s1.56-82.78-0.831-83.993c-2.391-1.178-1.698 85.726-1.698 85.726s-3.084-52.461-4.782-53.119c-1.698-0.659 2.114 51.802 2.114 51.802s-7.762-54.713-9.841-54.852c-2.114-0.138 6.896 52.461 6.896 52.461s-5.129-29.349-8.143-30.076c-2.634-0.624 4.504 28.586 4.504 28.586s-11.33-41.13-13.687-41.476c-2.356-0.347 12.613 49.827 12.613 49.827l16.182 3.049z" fill="#AAB7A7"/>
<path d="m319.88 206.39 7.23 42.21-4.549-1.839 4.95 4.178 3.255 19.024-7.756-2.695 8.185 5.166 2.839 16.611-30.016-0.311 5.805-30.106 5.418-5.569-4.875 2.711 4.362-22.631 2.818-2.746-2.57 1.457 4.904-25.46z" fill="#95A491"/>
<path d="m319.93 206.67-0.851 82.22 14.964 0.155-2.854-16.611-8.185-5.181 7.756 2.695-3.255-19.023-4.95-4.178 4.549 1.839-7.174-41.916z" fill="#95A491"/>
<path d="m314.45 276.2-7.398-99.899s9.399 10.206 10.924 8.742c1.524-1.464-3.751-8.597-3.751-8.597s14.444 10.196 17.156 9.167 3.542-6.991-17.097-25.012c0 0 6.072 4.683 9.967 4.276 3.896-0.445 0.104-5.156-13.018-14.167 0 0 6.044 2.365 7.821 1.354 1.777-1.01 0.597-5.519-16.951-19.291 0 0-12.69 10.208-13.46 13.182-0.769 2.937 7.204 0.445 8.342-0.354 0 0-11.595 9.669-13.142 12.254s1.095 6.824 12.929-1.756c0 0-14.748 15.921-17.569 20.536-2.821 4.577-1.188 6.965 4.732 4.394 5.919-2.572 13.78-8.691 13.78-8.691s-11.397 10.981-11.591 13.182 10.697-0.419 17.124-7.726l2.011 98.258 9.19 0.186 1e-3 -0.038z" fill="#6B8166"/>
<path d="m383.43 288.99 6.324-66.968s-6.472 6.738-7.447 5.733c-1.005-1.005 2.63-5.733 2.63-5.733s-9.812 6.649-11.644 5.91-2.276-4.728 11.821-16.55c0 0-4.137 3.074-6.767 2.719-2.631-0.354 0-3.457 8.925-9.339 0 0-4.108 1.508-5.261 0.798-1.182-0.709-0.325-3.723 11.644-12.708 0 0 8.393 7.034 8.866 9.014s-4.847 0.207-5.585-0.354c0 0 7.654 6.649 8.659 8.393 1.005 1.743-0.828 4.58-8.659-1.36 0 0 9.693 10.905 11.525 14.009 1.833 3.132 0.71 4.699-3.25 2.896-3.931-1.803-9.132-6.029-9.132-6.029s7.506 7.536 7.624 9.014c0.119 1.477-7.181-0.444-11.407-5.438l-2.69 65.963h-6.176v0.03z" fill="#AAB7A7"/>
<path d="m345.72 333.82 16.845-178s-17.17 17.88-19.83 15.22 7.004-15.22 7.004-15.22-26.125 17.643-30.942 15.722c-4.847-1.921-6.059-12.56 31.444-44.005 0 0-10.994 8.157-17.939 7.241s0-9.221 23.732-24.795c0 0-10.876 4.019-14.009 2.128-3.132-1.892-0.857-9.901 30.972-33.81 0 0 22.313 18.678 23.554 23.968 1.242 5.29-12.855 0.532-14.835-0.945 0 0 20.332 17.643 23.051 22.312 2.69 4.67-2.187 12.147-23.051-3.635 0 0 25.741 28.963 30.617 37.267 4.876 8.305 1.862 12.442-8.6 7.684-10.492-4.788-24.293-15.988-24.293-15.988s19.919 20.037 20.244 23.967c0.325 3.931-19.091-1.152-30.292-14.422l-7.152 175.28h-16.52v0.029z" fill="#566E50"/>
<path d="m448.94 300.05 15.811-167.24s-16.136 16.816-18.618 14.304c-2.512-2.512 6.59-14.304 6.59-14.304s-24.529 16.579-29.08 14.776c-4.552-1.802-5.675-11.821 29.523-41.345 0 0-10.343 7.655-16.875 6.827-6.531-0.857 0-8.659 22.284-23.288 0 0-10.226 3.7828-13.181 1.9801-2.955-1.7732-0.798-9.3094 29.08-31.74 0 0 20.954 17.555 22.136 22.52s-12.087 0.4729-13.949-0.8866c0 0 19.121 16.579 21.662 20.953 2.542 4.374-2.039 11.408-21.662-3.3985 0 0 24.174 27.218 28.755 35.02s1.744 11.703-8.097 7.211c-9.842-4.492-22.816-15.013-22.816-15.013s18.737 18.826 19.003 22.52c0.296 3.694-17.939-1.064-28.489-13.565l-6.709 164.67h-15.368z" fill="#AAB7A7"/>
<path d="m426.54 300.05 15.811-167.24s-16.136 16.816-18.619 14.304c-2.512-2.512 6.591-14.304 6.591-14.304s-24.53 16.579-29.081 14.776c-4.551-1.802-5.674-11.821 29.524-41.345 0 0-10.344 7.655-16.875 6.827-6.531-0.857 0-8.659 22.283-23.288 0 0-10.225 3.7828-13.181 1.9801-2.955-1.7732-0.798-9.3094 29.081-31.74 0 0 20.953 17.555 22.135 22.52 1.183 4.965-12.087 0.4729-13.949-0.8866 0 0 19.121 16.579 21.663 20.953 2.541 4.374-2.039 11.408-21.663-3.3985 0 0 24.175 27.218 28.756 35.02 4.58 7.802 1.743 11.703-8.098 7.211s-22.815-15.013-22.815-15.013 18.737 18.826 19.003 22.52c0.295 3.694-17.939-1.064-28.49-13.565l-6.708 164.67h-15.368z" fill="#95A491"/>
<path d="m412.21 333.82 14.156-149.69s-14.452 15.043-16.668 12.797c-2.246-2.246 5.91-12.797 5.91-12.797s-21.958 14.836-26.036 13.211c-4.079-1.626-5.083-10.581 26.421-37.001 0 0-9.251 6.856-15.102 6.088-5.852-0.769 0-7.743 19.948-20.835 0 0-9.161 3.369-11.792 1.773-2.63-1.596-0.738-8.334 26.037-28.431 0 0 18.766 15.723 19.801 20.156 1.034 4.462-10.817 0.443-12.472-0.798 0 0 17.112 14.836 19.387 18.766 2.276 3.931-1.832 10.226-19.387-3.044 0 0 21.633 24.352 25.741 31.327 4.108 6.974 1.567 10.462-7.24 6.472s-20.422-13.447-20.422-13.447 16.757 16.846 17.023 20.156-16.047-0.946-25.475-12.147l-5.999 147.38h-13.831v0.059z" fill="#6B8166"/>
<path d="m472.22 333.82 12.945-136.89s-13.211 13.772-15.25 11.703 5.379-11.703 5.379-11.703-20.097 13.565-23.791 12.087c-3.723-1.478-4.64-9.664 24.175-33.839 0 0-8.452 6.266-13.801 5.586-5.35-0.709 0-7.093 18.264-19.062 0 0-8.364 3.103-10.787 1.626-2.424-1.449-0.651-7.596 23.82-25.978 0 0 17.17 14.363 18.116 18.441 0.946 4.079-9.901 0.414-11.408-0.709 0 0 15.634 13.565 17.732 17.171 2.099 3.605-1.684 9.339-17.732-2.808 0 0 19.801 22.283 23.554 28.667 3.754 6.383 1.448 9.575-6.62 5.911-8.068-3.665-18.677-12.295-18.677-12.295s15.338 15.398 15.574 18.442c0.237 3.044-14.688-0.887-23.317-11.083l-5.497 134.79h-12.679v-0.059z" fill="#95A491"/>
<path d="m545.32 333.82 15.811-167.24s-16.136 16.816-18.619 14.304c-2.512-2.512 6.591-14.304 6.591-14.304s-24.529 16.58-29.081 14.777c-4.551-1.803-5.674-11.821 29.524-41.345 0 0-10.343 7.654-16.875 6.827-6.531-0.857 0-8.659 22.283-23.288 0 0-10.225 3.782-13.18 1.98-2.956-1.773-0.798-9.31 29.08-31.741 0 0 20.954 17.555 22.136 22.52s-12.088 0.473-13.95-0.887c0 0 19.122 16.58 21.663 20.954 2.542 4.374-2.039 11.407-21.663-3.399 0 0 24.175 27.219 28.756 35.021s1.744 11.703-8.098 7.211c-9.841-4.492-22.815-15.013-22.815-15.013s18.737 18.825 19.003 22.52c0.295 3.694-17.939-1.064-28.49-13.565l-6.708 164.67h-15.368z" fill="#95A491"/>
<path d="m572.78 298.48s11.439-48.771 8.175-49.642c-3.263-0.87-9.449 44.326-9.449 44.326s4.973-59.619 2.487-60.8c-2.487-1.182-4.041 59.339-4.041 59.339s1.305-70.467-0.715-71.493c-2.052-1.026-1.43 72.954-1.43 72.954s-2.642-44.637-4.072-45.227c-1.43-0.591 1.803 44.077 1.803 44.077s-6.59-46.564-8.393-46.688c-1.803-0.125 5.875 44.636 5.875 44.636s-4.383-24.991-6.932-25.582c-2.238-0.528 3.824 24.308 3.824 24.308s-9.668-35.032-11.657-35.311c-1.989-0.28 10.755 42.429 10.755 42.429l13.77 2.674z" fill="#AAB7A7"/>
<path d="m533.04 300.97 6.048-80.071s-7.57 8.174-8.772 7.017c-1.201-1.157 3.028-6.908 3.028-6.908s-11.567 8.136-13.752 7.303c-2.185-0.834-2.808-5.579 13.738-20.013 0 0-4.876 3.746-8.003 3.425-3.127-0.359-0.079-4.147 10.44-11.35 0 0-4.836 1.881-6.259 1.071-1.424-0.81-0.466-4.444 13.596-15.443 0 0 10.165 8.178 10.781 10.564 0.615 2.348-5.778 0.339-6.666-0.291 0 0 9.281 7.738 10.539 9.808 1.257 2.069-0.886 5.458-10.379-1.439 0 0 11.813 12.79 14.052 16.477 2.24 3.687 0.944 5.576-3.814 3.536-4.758-2.041-11.055-6.982-11.055-6.982s9.111 8.807 9.297 10.592c0.186 1.786-8.569-0.331-13.743-6.207l-1.696 78.732-7.38 0.141v0.038z" fill="#AAB7A7"/>
<path d="m532.86 216.39 3.987 37.485-3.893-1.87 4.115 3.948 1.793 16.893-6.662-2.801 6.901 4.997 1.564 14.75-26.351-1.954 6.785-26.122 5.072-4.588-4.434 2.108 5.099-19.636 2.63-2.255-2.34 1.136 5.734-22.091z" fill="#95A491"/>
<path d="m532.89 216.64-5.353 72.18 13.136 0.974-1.576-14.751-6.9-5.01 6.662 2.801-1.793-16.893-4.115-3.948 3.893 1.871-3.954-37.224z" fill="#95A491"/>
<path d="m514.5 329.38 4.421-128.55s-11.584 13.601-13.56 11.794c-2.033-1.803 4.365-11.244 4.365-11.244s-17.969 13.814-21.551 12.613-4.884-8.766 20.674-32.942c0 0-7.546 6.34-12.608 5.963-5.061-0.376-0.395-6.6 15.97-18.846 0 0-7.669 3.347-9.95 2.125-2.338-1.219-1.046-7.071 20.774-25.588 0 0 16.825 12.467 17.954 16.193 1.128 3.725-9.228 0.948-10.703-0.039 0 0 15.371 11.818 17.488 15.032 2.117 3.213-1.056 8.838-16.684-1.606 0 0 19.749 19.709 23.601 25.423 3.856 5.77 1.891 8.888-5.874 5.899-7.709-2.992-18.121-10.464-18.121-10.464s15.19 13.527 15.585 16.334c0.394 2.807-13.759-0.025-22.397-9.076l2.403 126.22-11.79 0.706 3e-3 0.056z" fill="#6B8166"/>
<path d="m553.57 299.16 1.801-62.343s5.187 6.926 6.209 6.13c1.022-0.797-1.78-5.581-1.78-5.581s8.277 7.22 10.032 6.753c1.756-0.468 2.621-4.083-8.994-16.571 0 0 3.464 3.288 5.905 3.293 2.445-0.024 0.396-3.197-7.147-9.611 0 0 3.583 1.844 4.749 1.333 1.165-0.511 0.718-3.395-9.255-13.029 0 0-8.513 5.496-9.182 7.289-0.666 1.764 4.436 0.729 5.172 0.314 0 0-7.795 5.228-8.933 6.724-1.139 1.497 0.242 4.289 8.134-0.272 0 0-10.16 8.926-12.188 11.593s-1.179 4.231 2.661 3.039c3.84-1.191 9.105-4.5 9.105-4.5s-7.751 6.068-8.039 7.432 6.646 0.436 11.118-3.685l-5.054 60.958 5.69 0.705-4e-3 0.029z" fill="#6B8166"/>
<path d="m154.06 331.73 13.86-146.38s-14.126 14.717-16.313 12.53c-2.187-2.186 5.763-12.53 5.763-12.53s-21.456 14.511-25.446 12.915c-3.989-1.596-4.965-10.344 25.83-36.174 0 0-9.043 6.709-14.747 5.97s0-7.595 19.505-20.392c0 0-8.955 3.31-11.526 1.744s-0.709-8.127 25.446-27.78c0 0 18.352 15.367 19.357 19.712 1.035 4.344-10.58 0.414-12.205-0.769 0 0 16.727 14.511 18.943 18.353 2.217 3.842-1.802 9.989-18.943-2.985 0 0 21.16 23.82 25.179 30.647s1.537 10.255-7.093 6.324c-8.629-3.93-19.978-13.151-19.978-13.151s16.373 16.461 16.639 19.712-15.693-0.945-24.914-11.851l-5.881 144.1h-13.476z" fill="#6B8166"/>
<path d="m217.63 135.61 14.688 87.538-8.748-3.724 9.576 8.57 6.62 39.454-14.925-5.408 15.782 10.58 5.792 34.459h-57.57l10.521-62.683 10.285-11.703-9.28 5.734 7.92-47.138 5.349-5.763-4.905 3.103 8.895-53.019z" fill="#39602D"/>
<path d="m217.72 136.2v170.88h28.696l-5.792-34.489-15.782-10.55 14.925 5.408-6.62-39.454-9.576-8.57 8.748 3.724-14.599-86.946z" fill="#497E33"/>
<path d="m486.51 141.46 15.427 84.789-9.191-3.606 10.048 8.305 6.945 38.212-15.664-5.26 16.58 10.225 6.058 33.366h-60.407l11.053-60.703 10.787-11.319-9.752 5.556 8.304-45.63 5.615-5.586-5.142 2.985 9.339-51.334z" fill="#345629"/>
<path d="m486.63 142.02v165.47h30.115l-6.088-33.366-16.579-10.255 15.663 5.261-6.945-38.213-10.048-8.304 9.191 3.605-15.309-84.197z" fill="#416A30"/>
<path d="m342.47 206.39 7.23 42.21-4.549-1.839 4.95 4.178 3.255 19.024-7.756-2.695 8.185 5.166 2.839 16.611-30.016-0.311 5.805-30.106 5.418-5.569-4.875 2.711 4.362-22.631 2.818-2.746-2.57 1.457 4.904-25.46z" fill="#95A491"/>
<path d="m342.53 206.67-0.851 82.22 14.964 0.155-2.854-16.611-8.185-5.181 7.756 2.695-3.255-19.023-4.95-4.178 4.549 1.838-7.174-41.915z" fill="#95A491"/>
<path d="m148.76 205.98 7.229 42.21-4.548-1.839 4.95 4.179 3.254 19.023-7.756-2.695 8.186 5.166 2.838 16.611-30.015-0.311 5.804-30.106 5.418-5.569-4.874 2.711 4.361-22.631 2.819-2.746-2.571 1.457 4.905-25.46z" fill="#6B8166"/>
<path d="m148.82 206.26-0.852 82.22 14.964 0.155-2.853-16.611-8.186-5.181 7.756 2.695-3.254-19.023-4.95-4.178 4.548 1.839-7.173-41.916z" fill="#6B8166"/>
<path d="m130.66 201.57 10.875 59.727-6.472-2.542 7.063 5.852 4.906 26.923-11.023-3.694 11.673 7.211 4.286 23.525h-42.616l7.772-42.764 7.595-7.98-6.856 3.931 5.852-32.154 3.96-3.931-3.606 2.099 6.591-36.203z" fill="#345629"/>
<path d="m130.72 201.99v116.59h21.219l-4.285-23.525-11.674-7.211 11.024 3.694-4.877-26.923-7.092-5.851 6.472 2.541-10.787-59.314z" fill="#416A30"/>
<path d="m570.74 312.64 12.058-127.49s-12.294 12.826-14.215 10.905c-1.892-1.891 5.024-10.905 5.024-10.905s-18.707 12.649-22.165 11.26-4.315-9.014 22.52-31.504c0 0-7.891 5.851-12.856 5.201s0-6.59 16.993-17.761c0 0-7.802 2.866-10.048 1.507-2.246-1.36-0.621-7.093 22.165-24.204 0 0 15.988 13.387 16.875 17.17s-9.221 0.384-10.639-0.68c0 0 14.57 12.649 16.491 15.989 1.921 3.339-1.567 8.689-16.491-2.601 0 0 18.441 20.747 21.928 26.687 3.488 5.94 1.33 8.925-6.176 5.497-7.507-3.428-17.407-11.437-17.407-11.437s14.274 14.333 14.481 17.17c0.236 2.837-13.683-0.827-21.692-10.344l-5.113 125.51h-11.733v0.029z" fill="#345629"/>
<path d="m570.74 312.64 12.058-127.49s-12.294 12.826-14.215 10.905c-1.892-1.891 5.024-10.905 5.024-10.905s-18.707 12.649-22.165 11.26-4.315-9.014 22.52-31.504c0 0-7.891 5.851-12.856 5.201s0-6.59 16.993-17.761c0 0-7.802 2.866-10.048 1.507-2.246-1.36-0.621-7.093 22.165-24.204 0 0 15.988 13.387 16.875 17.17s-9.221 0.384-10.639-0.68c0 0 14.57 12.649 16.491 15.989 1.921 3.339-1.567 8.689-16.491-2.601 0 0 18.441 20.747 21.928 26.687 3.488 5.94 1.33 8.925-6.176 5.497-7.507-3.428-17.407-11.437-17.407-11.437s14.274 14.333 14.481 17.17c0.236 2.837-13.683-0.827-21.692-10.344l-5.113 125.51h-11.733v0.029z" fill="#BD6125"/>
<path d="m568.58 196.05c1.921 1.921 14.215-10.905 14.215-10.905l4.788 1.95c8.009 9.517 21.928 13.181 21.692 10.344-0.207-2.837-14.481-17.17-14.481-17.17s9.9 8.009 17.407 11.437c7.506 3.428 9.664 0.443 6.176-5.497-3.487-5.94-21.928-26.687-21.928-26.687 14.924 11.29 18.412 5.94 16.491 2.601-1.921-3.34-16.491-15.989-16.491-15.989 1.418 1.064 11.526 4.463 10.639 0.68s-16.875-17.17-16.875-17.17c-22.786 17.111-24.411 22.844-22.165 24.204 2.246 1.359 10.048-1.507 10.048-1.507-16.993 11.171-21.958 17.111-16.993 17.761s12.856-5.201 12.856-5.201c-26.835 22.49-25.978 30.115-22.52 31.504s22.165-11.26 22.165-11.26-6.916 9.014-5.024 10.905z" fill="#345629"/>
<path d="m534.74 288.64 8.63-91.32s-8.807 9.191-10.167 7.802c-1.359-1.359 3.606-7.802 3.606-7.802s-13.388 9.043-15.87 8.068c-2.483-1.005-3.103-6.443 16.136-22.579 0 0-5.645 4.197-9.221 3.724s0-4.729 12.176-12.708c0 0-5.585 2.069-7.181 1.093-1.596-0.975-0.444-5.083 15.899-17.347 0 0 11.438 9.575 12.088 12.294s-6.591 0.266-7.625-0.473c0 0 10.432 9.043 11.821 11.437s-1.123 6.236-11.821-1.862c0 0 13.21 14.866 15.722 19.121 2.512 4.256 0.946 6.384-4.433 3.931-5.378-2.453-12.471-8.216-12.471-8.216s10.225 10.285 10.373 12.294c0.148 2.01-9.812-0.591-15.545-7.388l-3.665 89.931h-8.452z" fill="#416A30"/>
<path d="m412.53 106.71 17.171 102.31-10.226-4.344 11.172 10.018 7.743 46.104-17.437-6.325 18.441 12.353 6.768 40.282h-67.263l12.294-73.263 11.998-13.683-10.846 6.708 9.251-55.087 6.235-6.738-5.704 3.605 10.403-61.944z" fill="#345629"/>
<path d="m412.64 107.42v199.66h33.484l-6.739-40.281-18.47-12.353 17.436 6.324-7.713-46.103-11.172-10.019 10.196 4.374-17.022-101.6z" fill="#416A30"/>
<path d="m272.61 106.71 17.171 102.31-10.226-4.344 11.172 10.018 7.743 46.104-17.437-6.325 18.441 12.353 6.768 40.282h-67.263l12.294-73.263 11.999-13.683-10.847 6.708 9.251-55.087 6.235-6.738-5.703 3.605 10.402-61.944z" fill="#345629"/>
<path d="m272.73 107.42v199.66h33.513l-6.768-40.281-18.441-12.353 17.437 6.324-7.743-46.103-11.172-10.019 10.226 4.374-17.052-101.6z" fill="#416A30"/>
<path d="m450.43 194.45 11.23 55.442-6.679-2.364 7.299 5.438 5.054 24.973-11.408-3.429 12.058 6.709 4.404 21.84h-43.946l8.038-39.72 7.862-7.418-7.093 3.635 6.029-29.849 4.078-3.635-3.724 1.951 6.798-33.573z" fill="#345629"/>
<path d="m450.52 194.84v108.22h21.87l-4.404-21.84-12.057-6.679 11.407 3.428-5.053-24.972-7.3-5.438 6.679 2.364-11.142-55.088z" fill="#416A30"/>
<path d="m323.22 288.99 9.162-96.729s-9.339 9.723-10.787 8.275 3.812-8.275 3.812-8.275-14.185 9.605-16.816 8.541c-2.63-1.064-3.28-6.827 17.082-23.908 0 0-5.969 4.433-9.752 3.93-3.783-0.502 0-5.024 12.885-13.476 0 0-5.911 2.187-7.625 1.152-1.714-1.034-0.473-5.378 16.816-18.352 0 0 12.117 10.166 12.797 13.033 0.679 2.866-7.004 0.295-8.068-0.503 0 0 11.053 9.576 12.53 12.117 1.478 2.542-1.182 6.591-12.53-1.98 0 0 13.978 15.723 16.638 20.244 2.66 4.522 1.005 6.768-4.669 4.167-5.704-2.6-13.211-8.688-13.211-8.688s10.817 10.875 10.994 13.033c0.178 2.157-10.373-0.621-16.461-7.832l-3.871 95.251h-8.926z" fill="#BD6125"/>
<path d="m321.6 200.54c1.448 1.448 10.787-8.275 10.787-8.275l3.635 1.478c6.088 7.211 16.639 9.989 16.461 7.832-0.177-2.158-10.994-13.033-10.994-13.033s7.507 6.088 13.211 8.688c5.674 2.601 7.329 0.355 4.669-4.167-2.66-4.521-16.638-20.244-16.638-20.244 11.348 8.571 14.008 4.522 12.53 1.98-1.477-2.541-12.53-12.117-12.53-12.117 1.064 0.798 8.747 3.369 8.068 0.503-0.68-2.867-12.797-13.033-12.797-13.033-17.289 12.974-18.53 17.318-16.816 18.352 1.714 1.035 7.625-1.152 7.625-1.152-12.885 8.452-16.668 12.974-12.885 13.476 3.783 0.503 9.752-3.93 9.752-3.93-20.362 17.081-19.712 22.844-17.082 23.908 2.631 1.064 16.816-8.541 16.816-8.541s-5.26 6.827-3.812 8.275z" fill="#416A30"/>
<path d="m234.46 290.01 9.752-103.11s-9.959 10.374-11.496 8.837 4.049-8.837 4.049-8.837-15.131 10.226-17.939 9.103c-2.807-1.123-3.487-7.27 18.205-25.505 0 0-6.384 4.729-10.403 4.197s0-5.349 13.743-14.363c0 0-6.295 2.335-8.128 1.241-1.802-1.093-0.502-5.733 17.939-19.564 0 0 12.915 10.816 13.654 13.89 0.709 3.073-7.448 0.295-8.6-0.532 0 0 11.792 10.225 13.358 12.915 1.566 2.689-1.271 7.033-13.358-2.099 0 0 14.924 16.787 17.732 21.574 2.837 4.818 1.093 7.211-4.995 4.463-6.088-2.749-14.008-9.28-14.008-9.28s11.555 11.615 11.733 13.89c0.177 2.276-11.053-0.65-17.555-8.363l-4.137 101.54h-9.546z" fill="#416A30"/>
<path d="m369.74 186.24 11.319 56.004-6.739-2.394 7.389 5.497 5.112 25.239-11.496-3.458 12.176 6.768 4.463 22.047h-44.389l8.127-40.104 7.92-7.477-7.152 3.664 6.088-30.144 4.108-3.694-3.783 1.98 6.857-33.928z" fill="#345629"/>
<path d="m369.83 186.62v109.29h22.106l-4.462-22.047-12.176-6.767 11.526 3.487-5.113-25.239-7.388-5.497 6.767 2.394-11.26-55.619z" fill="#416A30"/>
<path d="m432.63 297.24s-5.94-24.707 1.241-30.588c7.152-5.881 10.994 5.32 10.994 5.32s7.418-22.934 20.954-23.229c13.535-0.296 21.987 38.892 21.987 38.892s11.762-10.639 20.717-10.905 15.338 7.566 15.338 7.566-1.27-9.221 7.418-9.221c8.689 0 21.988 16.225 21.988 16.225s15.072-3.931 21.219 8.127c6.118 11.999-141.86-2.187-141.86-2.187z" fill="#5C8636"/>
<path d="m149.63 308.96s-7.448-19.506-1.596-24.973 10.255 3.251 10.255 3.251 4.581-19.358 16.609-20.894c12.028-1.537 22.993 29.494 22.993 29.494s9.516-9.782 17.466-10.876c7.949-1.093 14.303 4.67 14.303 4.67s-1.95-7.389 5.793-8.216c7.743-0.828 20.983 11.053 20.983 11.053s13.062-4.64 19.594 4.551c6.531 9.191-126.4 11.94-126.4 11.94z" fill="#5C8636"/>
<path d="m351.83 302.41s11.467-48.881 8.216-49.739c-3.251-0.886-9.487 44.419-9.487 44.419s4.965-59.757 2.483-60.909c-2.483-1.182-4.049 59.461-4.049 59.461s1.33-70.603-0.709-71.637c-2.039-1.005-1.448 73.115-1.448 73.115s-2.631-44.744-4.079-45.306c-1.448-0.561 1.803 44.183 1.803 44.183s-6.62-46.665-8.393-46.783c-1.803-0.118 5.881 44.744 5.881 44.744s-4.374-25.032-6.945-25.653c-2.246-0.532 3.842 24.382 3.842 24.382s-9.664-35.08-11.674-35.376c-2.009-0.295 10.758 42.498 10.758 42.498l13.801 2.601z" fill="#5C8636"/>
<path d="m345.5 283.58s-7.093-15.781-17.614-10.964c0 0-7.654-9.102-12.058-1.034 0 0-8.777-3.783-10.609 1.802 0 0-5.172-2.807-6.029-0.502-0.857 2.276 2.541 5.94 2.541 5.94s-7.299-1.3-9.25 1.566c0 0-2.66-4.285-4.344-0.384-1.685 3.901-1.685 3.901-1.685 3.901s-10.935-2.423-11.91 2.956c-0.975 5.378 70.189 6.058 70.189 6.058l0.769-9.339z" fill="#5C8636"/>
<path d="m578.12 301.85s-120.81-23.731-352.39-11.319c-173.95 9.324-160.71 54.847-104.03 65.904 51.142 9.977-26.15 35.439 45.305 51.01 127.08 21.189 313.41 4.876 373.38-18.56 55.265-21.603-34.548-32.597 5.467-46.192 38.154-12.974 103.67-29.701 32.272-40.843z" fill="#8CB556"/>
<path d="m525.01 332.15c2.255-1.672 4.32-0.189 4.541 1.671h-11.825c0.315-2.428 1.829-4.084 3.894-4.084 1.577 0 2.807 1.12 3.39 2.413z" fill="#3E6D32"/>
<path d="m502.83 361.17-10.56 5.946-5.946 9.997v14.574h22.452l0.581-1.538-3.451-23.033-3.076-5.946z" fill="#8CB2E2"/>
<path d="m483.25 364.44 9.022 2.682-5.946 9.997-3.076-12.679z" fill="#A6C4E9"/>
<path d="m478.07 360.27 5.177 4.164 9.022 2.682 10.56-5.946-0.582-1.332-15.155-3.845-9.022 4.277z" fill="#C9E0FB"/>
<path d="m478.07 360.27 5.177 4.164 3.076 12.679v14.574h-20.201l3.601-13.917 8.347-17.5z" fill="#699AD1"/>
<path d="m495.44 382.76v-1.407l2.4-0.3v-1.857l1.238-0.844 1.351 0.769v2.72l-1.613 0.919-1.557-0.863-1.819 0.863z" fill="#67902F"/>
<path d="m508.64 385.37-1.5-0.3-1.144-4.989-1.332-1.726-2.889 0.188-2.888-3.264 1.538-3.189h2.138l-0.788-1.594-1.725 0.563-1.426-0.563 0.263-2.307 2.082-1.069 2.663 1.369 1.013-3.789 1.257 2.42 2.738 18.25z" fill="#67902F"/>
<path d="m494.73 365.75 1.482 0.9 0.956-1.538h1.201l0.487 1.538 1.576-0.375-0.507-1.163 2.551-0.675 0.357-2.214-0.676-0.656-7.427 4.183z" fill="#67902F"/>
<path d="m502.16 361.57-1.144-0.863-5.571 0.244 0.581-0.825-1.932-0.582-1.819 0.732 2.026 0.806-0.601 0.488-5.927-0.788-1.725 1.069 2.494 1.351 3.733-0.582 2.213 0.957-1.05 0.863-1.163-0.338-0.769 0.6 1.257 0.807 1.969 0.244 7.428-4.183z" fill="#7DAA41"/>
<path d="m359.84 373.1s9.546-2.719 14.57 4.905c5.024 7.625-9.782 17.88-9.782 17.88l2.128 3.694s0.118 2.158-1.36 3.458c-1.507 1.33-10.048-0.857-10.048-0.857l-43.71 26.332s-16.106 10.698-27.927 1.212c-11.822-9.487-1.242-20.688-1.242-20.688l77.371-35.936z" fill="#BD6125"/>
<path d="m352.83 398.37s3.6-1.694 8.979-5.632c5.379-3.937 9.096-7.94 8.462-8.643-0.675-0.706-7.54 6.623-8.264 6.5-0.701-0.142 1.212-5.016 0.04-4.023-1.15 0.974-3.192 4.873-4.591 6.058-1.356 1.188-8.675 8.047-4.626 5.74z" fill="#3E6D32"/>
<path d="m337.42 399.13s2.382-1.797 1.337-3.803 6.478-5.35 6.959-6.959-1.108-0.606-5.475 1.463c-4.368 2.069-5.183 3.427-5.454 5.454-0.293 2.048-4.222 4.973-3.344 5.851s5.977-2.006 5.977-2.006z" fill="#3E6D32"/>
<path d="m312.99 394.9c3.06 0.231 6.239-0.631 8.599-2.581 0.898 0.046 0.539 1.541-0.195 2.069-0.734 0.529-1.68 1.446-1.098 2.156 4.448-2.998 8.897-5.996 13.384-8.979 0.799-0.526 1.56-1.067 2.421-1.458 0.968-0.441 2.022-0.693 3.064-0.972 3.485-0.904 6.95-1.993 10.022-3.878 2.435-1.497 4.599-3.521 6-6.009-13.939 6.472-28.297 13.166-42.197 19.652z" fill="#3E6D32"/>
<path d="m419.43 401.95s-5.763-10.167-4.699-13.27c1.064-3.133 5.615 10.521 5.615 10.521s-3.546-18.619-2.334-19.18c1.211-0.562 3.398 12.856 3.989 18.116 0 0-0.532-16.609 0.503-17.111 1.034-0.473 1.3 6.147 0.975 16.697 0 0 5.408-25.947 7.034-26.509 1.625-0.561 0.325 13.654-5.409 26.125 0 0 7.33-9.25 9.192-9.339 1.861-0.059-2.01 6.916-9.398 13.92h-5.468v0.03z" fill="#5C8636"/>
<path d="m175.84 330.37s-0.769-31.444 7.92-40.281c15.486-15.722 52.9-2.305 99.831-22.579 5.083-2.187 6.975-8.452 3.99-13.121-1.951-3.074-5.586-4.699-9.162-4.049-22.933 3.96-70.839 10.018-81.951-0.68-6.916-6.649-4.078-26.48 0.916-48.704 7.979-35.582 12.265-59.786-2.128-87.892-1.064-2.068-3.753-2.748-5.615-4.108 0 0 9.132 27.81 1.034 35.789 0 0-17.052-19.327-18.736-43.916l-3.222 1.862s-1.005 19.505 8.925 37.385c15.279 27.396 9.783 48.054 5.024 49.502-4.787 1.448-41.197-24.943-59.491-79.558l-3.191-1.271s-1.094 30.056 27.957 65.107c0 0-10.077 10.698-23.022 0.295-12.353-9.93-3.369-14.54-44.951-43.059-14.333-7.329-19.564-22.697-19.564-22.697l-2.719-0.355s2.7781 12.59 11.23 22.549c1.3595 1.596-0.1773 4.02-2.2165 3.399-7.8612-2.305-22.136-9.28-29.346-30.292l-2.4825 0.591s7.477 41.847 41.02 43.059c31.711 1.153 19.062 43.828 59.284 48.438 0 0 28.756-0.354 34.312 11.378 6.324 7.211-38.361 52.694-39.986 128.29l46.34-5.084z" fill="#BD6125"/>
<path d="m244.86 259.76c-12.842 5.378-19.155 2.091-23.668-4.136 10.346-0.053 15.392-0.379 25.168-2.078l-1.5 6.214z" fill="#915129"/>
<path d="m88.01 32.646s20.126 21.456 25.209 53.787l-4.315 2.0983s-9.7525-36.026-23.583-52.369l2.6893-3.5168z" fill="#BD6125"/>
<path d="m92.62 80.139s-7.5361 14.658 2.3347 14.274c0 0-8.6591 10.787-8.3045 16.668s13.594 0.798 13.594 0.798-3.8419 6.177 4.019 12.353c7.891 6.177 13.802 2.099 13.802 2.099s3.93 3.753 11.112 1.3c7.181-2.453 7.359-5.054 7.359-5.054s10.58 7.477 18.47 1.301c7.891-6.177 0-10.462 0-10.462s14.511 4.433 18.649-4.788c4.108-9.25-13.979-18.707-13.979-18.707s9.309 0.3842 9.132-3.3395c-0.177-3.7238-14.156-9.5753-14.156-9.5753s0.709-2.9258-6.443-5.9994c-7.181-3.0735-19.357 1.6255-19.357 1.6255s-4.67-9.5753-10.048-7.7726c-5.379 1.7732-4.847 5.0241-4.847 5.0241s-13.565-6.5017-17.348 2.6007c0 0.0296-0.3251-2.0096-3.9897 7.6543z" fill="#2D4923"/>
<path d="m78.05 29.455s-6.354 9.3093 1.9505 9.0729c0 0-7.2997 6.8564-6.9746 10.61 0.2955 3.7533 11.437 0.5024 11.437 0.5024s-3.2509 3.9306 3.3986 7.8612 11.614 1.3299 11.614 1.3299 3.3104 2.3938 9.3384 0.8275c6.059-1.5368 6.207-3.1918 6.207-3.1918s8.895 4.7581 15.545 0.8275c6.649-3.9306 0-6.6495 0-6.6495s12.205 2.8371 15.693-3.044c3.457-5.8811-11.763-11.88-11.763-11.88s7.832 0.2365 7.684-2.1278-11.91-6.088-11.91-6.088 0.591-1.8619-5.438-3.8124c-6.028-1.9505-16.313 1.0048-16.313 1.0048s-3.901-6.0584-8.452-4.9354c-4.522 1.123-4.0787 3.1918-4.0787 3.1918s-11.408-4.1375-14.599 1.655c0 0-0.2364-1.3004-3.3395 4.8467z" fill="#2D4923"/>
<path d="m148.12 333.41c10.491-37.651 2.748-28.43 5.319-56.328 2.808-30.47 20.924-51.571 23.2-62.447 2.305-10.875-3.724-19.475-30.647-21.19-26.923-1.714-34.371-12.589-42.941-30.912-8.6004-18.324-16.609-16.048-38.656-20.895-22.047-4.876-25.268-29.701-25.268-29.701h-2.2461c3.9602 12.117 14.57 34.548 38.981 35.435 31.71 1.152 19.062 43.827 59.284 48.438 0 0 28.755-0.355 34.311 11.378 6.325 7.211-38.36 52.693-39.986 128.29l18.649-2.069z" fill="#915129"/>
<path d="m157.94 322.92s8.6-44.655 17.702-46.369c9.103-1.714-12.028 36.557-12.028 36.557s11.378-13.683 16.225-13.387c4.876 0.265-17.171 19.593-17.171 19.593s13.772-8.6 18.826-7.713-8.157 8.748-19.151 13.063" fill="#3E6D32"/>
<path d="m106.82 342.42c20.225 2.024 33.831 3.402 58.969 3.432 25.388 0 48.518-1.379 68.886-3.432-0.215-0.674-1.721-5.279-7.387-7.478-3.048-1.173-7.243-1.525-12.945 0.235 0 0 2.116-9.239-11.081-8.711 0 0 6.706-2.581 3.012-3.607-3.729-1.027-11.69 1.202-11.69 1.202s-0.968-3.343-3.837-3.108c-2.869 0.234-5.773 2.228-5.773 2.228s-2.188-8.123-16.101-7.977c-13.914 0.147-18.289 8.975-18.289 8.975s-7.997-5.602-12.945-3.842c-4.949 1.759-2.475 4.604-2.475 4.604s-10.578-0.469-12.12 0.939c-1.542 1.407 3.442 1.906 3.442 1.906s-12.927 2.974-6.347 8.006c-0.036 0-11.337-3.195-13.319 6.628z" fill="#5C8636"/>
<path d="m176.7 368.72-3.717-2.783 9.76-28.847 10.467-9.304 23.261 4.401 8.848 11.174 7.434 24.196-13.432 0.273-7.616 2.919-35.005-2.029z" fill="#8CB2E2"/>
<path d="m225.32 343.36-11.973 7.571 5.975 16.898 13.432-0.273-7.434-24.196z" fill="#7CA9DC"/>
<path d="m213.35 350.93-20.136-23.146 23.261 4.401 8.848 11.174-11.973 7.571z" fill="#C9E0FB"/>
<path d="m219.8 346.85-16.533-7.502 10.08 11.584 6.453-4.082z" fill="#A6C4E9"/>
<path d="m197.84 369.95 9.213-8.78 6.979-1.163 14.184 3.239 6.066-0.913 7.434 1.848 7.503 6.567h-37.513l-13.866-0.798z" fill="#7CA9DC"/>
<path d="m207.06 361.17 6.842 4.196 14.8-0.957 8.141 2.098 8.187 0.57-3.307-2.896-7.434-1.848-6.066 0.913-14.185-3.239-6.978 1.163z" fill="#A6C4E9"/>
<path d="m213.9 365.36-2.189 5.382-13.866-0.798 9.213-8.78 6.842 4.196z" fill="#699AD1"/>
<path d="m228.7 364.41-0.525 6.339h1.118l5.381-4.789-5.974-1.55z" fill="#699AD1"/>
<path d="m204.57 363.54 0.479 2.417 1.619 1.118 0.387 1.641 4.653 2.03-13.866-0.798 6.728-6.408z" fill="#67902F"/>
<path d="m208.54 365.36h1.642l0.364 1.369-1.277 1.094-0.729-0.251v-2.212z" fill="#67902F"/>
<path d="m193.22 327.78 5.245 6.043-2.622 4.698 0.616 4.834-2.076 3.489-2.326 0.707h-2.075l-6.066 2.326-1.391 4.652 0.456 4.173-2.577 2.463-5.997 0.548 8.346-24.629 10.467-9.304z" fill="#67902F"/>
<path d="m184.62 361.51v-4.492l2.326-2.258h0.844l1.231 1.391h2.098l1.597 1.984-2.532 3.375h-5.564z" fill="#67902F"/>
<path d="m309.9 427.36c-1.389 2.452-5.408 4.58-5.438 4.58 4.256-1.507 7.152-3.428 7.152-3.428l35.553-21.426h-6.532c-3.073 0-9.102 6.827-11.466 7.802-2.365 0.975-3.961-2.069-6.325-1.98s-2.866-3.96-4.64-3.96c-1.773 0-3.369-1.98-4.344-0.503-0.975 1.478 5.231 3.251 4.935 3.547-0.295 0.295-0.295 5.142-2.275 6.531s0 5.94 0 5.94-5.231 0.444-6.62 2.897z" fill="#3E6D32"/>
<path d="m283.68 429.76c6.531 5.231 14.333 4.345 20.037 2.453 3.399-3.369 7.743-10.018 0.709-18.116-8.127-9.368-17.229-7.004-20.657-5.645l-1.389 0.65c0.059-0.029-10.521 11.142 1.3 20.658z" fill="#EA7B3E"/>
<path d="m289.03 424.46c2.837 2.276 6.266 1.892 8.748 1.064 1.478-1.477 3.369-4.374 0.325-7.891-3.546-4.078-7.506-3.044-8.984-2.452l-0.591 0.265c-0.03 0-4.64 4.877 0.502 9.014z" fill="#F2986B"/>
<path d="m315.51 346c8.186-0.444 10.757 7.388 10.757 13.033-7.683 0.65-16.047 1.034-24.972 1.004-8.246-0.029-16.018-0.413-23.2-1.004 0.178-0.769 0.828-2.66 2.601-4.315 1.36-1.271 3.133-2.187 4.936-2.187 2.925 0 5.23 0.68 6.649 2.335 0.739-1.951 3.192-6.029 7.152-6.65 3.96-0.62 6.856 2.601 7.802 4.285 0.414-1.034 2.453-6.176 8.275-6.501z" fill="#3E6D32"/>
<path d="m562.96 322.88s-3.366-5.948-2.743-7.769c0.622-1.822 3.274 6.155 3.274 6.155s-2.075-10.882-1.361-11.204c0.715-0.323 1.983 7.516 2.329 10.582 0 0-0.323-9.729 0.277-10.006 0.599-0.277 0.76 3.597 0.576 9.775 0 0 3.158-15.17 4.104-15.493 0.945-0.322 0.184 7.977-3.159 15.286 0 0 4.288-5.418 5.372-5.464s-1.176 4.058-5.487 8.138h-3.182z" fill="#3E6D32"/>
<path d="m558.15 322.72c-3.297-2.444-6.317-0.277-6.64 2.444h17.291c-0.461-3.551-2.674-5.971-5.694-5.971-2.306 0-4.104 1.636-4.957 3.527z" fill="#5C8636"/>
<path d="m307.27 309.68c4.226-3.133 8.097-0.355 8.511 3.132h-22.165c0.591-4.551 3.428-7.654 7.3-7.654 2.955 0 5.26 2.098 6.354 4.522z" fill="#5C8636"/>
<path d="m100.01 88.266s15.899 5.6152 15.899 15.693c0 10.078-27.603 7.861-27.603 7.861s-9.6049 7.004-16.107 4.758c0 0-17.968 12.058-35.346-1.123 0 0-19.003 3.369-31.297-1.389-12.294-4.758 0-20.48 0-20.48s-5.4083-2.9554-5.4969-8.9843c-0.08866-6.0289 6.1767-5.4969 6.1767-5.4969s1.0048-8.2158 11.526-7.8612c0 0-0.2069-8.4227 12.117-10.432 12.324-2.0096 22.815 6.2063 22.815 6.2063s10.698-8.0386 17.17-7.8612c6.4722 0.1773 2.6302 4.9354 2.6302 4.9354s6.8564-2.5712 11.91-0.3547c5.0537 2.2165 3.6351 6.2062 3.6351 6.2062s16.373-0.3546 17.171 5.8516c0 0 11.91 4.1966 12.531 7.6839 0.62 3.5168-17.732 4.7876-17.732 4.7876z" fill="#345629"/>
<path d="m183.67 188.95c11.733-6.767 5.143-37.769-4.521-51.836-7.448-10.846-9.783-26.51-10.492-33.13-0.029 4.64 0.532 20.954 8.955 36.115 14.185 25.386 10.462 45.009 6.058 48.851z" fill="#915129"/>
<path d="m137.07 103.66s49.708 25.062 65.815 23.081c16.107-1.98-3.665-13.89-3.665-13.89s23.347 13.713 43.207 9.251c19.86-4.463 19.86-11.822 19.86-11.822s40.252 14.747 54.024 3.133c13.801-11.615-2.69-29.199-2.69-29.199s9.96-0.5615 10.344-7.9498c0.384-7.3588-21.456-15.043-21.456-15.043s13.802-9.0729 8.807-17.88c-4.994-8.8069-32.567-8.7773-32.567-8.7773s-7.271-19.86-24.53-19.564-14.185 13.033-14.185 13.033-20.304-11.821-37.947-6.2063c0 0-33.957-3.4577-39.395 3.6351-5.437 7.0928 12.176 9.3684 12.176 9.3684s-24.943 0.5911-32.183 11.614c-7.27 11.053 1.536 21.544 1.536 21.544s-22.608 7.6544-14.185 14.186l8.423 6.5313s-24.648 1.8027-1.389 14.954z" fill="#2D4923"/>
<path d="m507.11 98.994s-8.837 10.314 0.768 11.171c0 0-9.516 7.211-9.782 11.762s13.092 2.246 13.092 2.246-4.374 4.256 2.63 9.901c7.004 5.644 13.151 3.251 13.151 3.251s3.429 3.339 10.64 2.334 7.654-2.985 7.654-2.985 9.487 6.975 17.762 3.192 1.093-7.979 1.093-7.979 13.624 5.112 18.589-1.448c4.965-6.561-11.614-15.959-11.614-15.959s8.984 1.389 9.22-1.478c0.207-2.867-12.737-8.984-12.737-8.984s1.005-2.158-5.645-5.3493c-6.62-3.2213-18.944-1.0639-18.944-1.0639s-3.516-7.8612-8.925-7.1519c-5.408 0.7092-5.231 3.2508-5.231 3.2508s-12.471-6.5608-17.111-0.0886c0.029 0.0295-0.03-1.5664-4.61 5.3787z" fill="#345629"/>
<path d="m427.37 111.32s34.43 17.347 45.572 15.988c11.141-1.389-2.542-9.634-2.542-9.634s16.166 9.486 29.938 6.413c13.772-3.074 13.772-8.187 13.772-8.187s27.869 10.226 37.414 2.158c9.546-8.039-1.862-20.244-1.862-20.244s6.916-0.3842 7.152-5.4969c0.266-5.1128-14.865-10.403-14.865-10.403s9.546-6.2949 6.118-12.383c-3.429-6.088-22.55-6.088-22.55-6.088s-5.053-13.742-16.993-13.565c-11.939 0.2069-9.812 9.0433-9.812 9.0433s-14.067-8.1863-26.273-4.2852c0 0-23.495-2.3938-27.277 2.512-3.783 4.9059 8.422 6.4722 8.422 6.4722s-17.259 0.4138-22.283 8.0385c-5.024 7.6248 1.064 14.924 1.064 14.924s-15.663 5.2901-9.812 9.8117l5.852 4.5219s-17.141 1.3-1.035 10.403z" fill="#2D4923"/>
<path d="m195.41 32.794s-29.081 21.249-27.869 49.236c0 0 0.709 1.8028 6.295 1.5072 0 0-0.621-6.9155 2.098-12.028s32.982-1.2412 41.286-15.693l-2.6-1.2412s-12.767 9.4275-36.883 8.866c-0.029 0 24.116-27.544 17.673-30.647z" fill="#BD6125"/>
<path d="m280.28 51.187s3.461-13.296-11.762-14.551c0 0 11.762-10.107 11.762-15.988s-17.141-1.8619-17.141-1.8619 5.35-5.8811-4.167-12.649c-9.516-6.7677-17.347-3.1622-17.347-3.1622s-4.699-4.0488-13.979-2.1574c-9.28 1.8914-9.664 4.4626-9.664 4.4626s-12.826-8.275-23.259-2.7189c-10.432 5.5265-0.768 10.432-0.768 10.432s-18.057-5.5856-23.968 3.3395c-5.911 8.8956 16.314 19.742 16.314 19.742s-11.763-1.0935-11.822 2.6302 17.2 10.639 17.2 10.639-1.123 2.8667 7.714 6.4722c8.836 3.6056 24.618-0.1182 24.618-0.1182s5.172 9.9004 12.117 8.541c6.945-1.3595 6.501-4.6399 6.501-4.6399s16.698 7.5361 22.165-1.2413c0 0 13.163 2.5316 15.486-7.1707z" fill="#345629"/>
<path d="m115.88 103.99c0-7.6245-9.073-12.708-13.506-14.717 1.891 1.0935 5.231 6.7973 3.458 7.3293-0.857 0.2659-1.803 0.0886-2.66-0.1774-2.276-0.7092-4.374-1.9209-5.9699-3.5464 1.0344 2.6894 1.655 6.4131-1.123 7.7138-0.8275 0.384-1.8028 0.443-2.7485 0.413-3.5464-0.088-7.0632-1.0635-10.048-2.7776-3.8715 4.6106-12.353 5.2016-16.964 1.1526-2.9849 2.098-6.0289 4.226-9.5753 5.379-3.5464 1.152-7.743 1.211-10.876-0.68-3.31-2.01-4.8172-5.8812-4.5808-9.4867-3.6055 1.6255-7.3293 3.0736-11.112 4.3444-1.4481 0.5024-2.9849 0.9457-4.5512 0.8275-1.5368-0.1478-3.1327-1.0639-3.4282-2.4234-0.3251-1.5368 0.9162-2.9553 2.0983-4.1079-5.5265 1.7436-11.91 1.0639-16.875-1.8028-3.2509-1.8618-5.822-4.6694-7.3588-7.8612-0.029553 0.3251-0.059107 0.6797-0.059107 1.0639 0.08866 6.0289 5.4674 8.9843 5.4674 8.9843s-12.294 15.722 0 20.481c12.294 4.758 31.297 1.389 31.297 1.389 17.348 13.18 35.346 1.123 35.346 1.123 6.5017 2.246 16.107-4.758 16.107-4.758s27.662 2.216 27.662-7.862z" fill="#2D4923"/>
<path d="m283.56 267.51c1.211-0.532 2.216-1.271 3.044-2.187-18.205 8.866-63.126 10.314-86.148 10.019-23.023-0.296-21.601 24.708-21.601 24.708 1.387-4.7 2.566-7.303 4.903-9.931 15.486-15.752 52.871-2.306 99.802-22.609z" fill="#915129"/>
<path d="m256.82 274.78c-3.635-0.177-13.358 1.567-13.772 0.089s5.852-7.181 5.852-7.181-2.631-3.724-3.724-3.724c-1.064 0-5.024 4.61-5.024 4.61s1.005 4.197 0 4.463-5.024 4.551-9.487 5.851c-4.462 1.301-7.359-0.088-8.659-0.591-1.3-0.502 3.133-2.482 1.566-3.28-1.566-0.798-2.482-5.704-3.96-5.29-1.477 0.414-2.807 5.851-4.699 5.94-1.891 0.089-2.571 4.61-5.112 4.699-2.572 0.059-5.35-2.128-5.763-2.128-0.414 0-3.281 4.256-3.281 4.256 14.718-2.571 35.257-1.301 59.432-7.182-1.034-0.236-2.216-0.472-3.369-0.532z" fill="#5C8636"/>
<path d="m252.5 282.64c-1.585-0.149-3.039 1.475-3.242 3.623l-0.878 9.322 5.749 0.542 0.879-9.322c0.202-2.148-0.922-4.015-2.508-4.165z" fill="#FFB4AB"/>
<path d="m246.1 297.72c3.792 11.362 12.277 12.45 12.468 9.668l-11.6-11.149c-0.318-0.229-1.038 1.225-0.868 1.481z" fill="#382632"/>
<path d="m258.69 307.34c3.622-4.023-4.208-6.008-4.182-14.755-0.292 3.926-4.072 1.67-5.769-0.727-0.42 1.787-1.568 3.012-1.934 4.624 3.15 10.342 10.65 12.23 11.885 10.858z" fill="#694C51"/>
<path d="m255.23 297.38c-0.857-0.745-2.369-0.536-3.693 0.793" stroke="#B6828B" stroke-linecap="round" stroke-width=".8"/>
<path d="m256.17 299.29c-0.857-0.745-2.369-0.535-3.693 0.793" stroke="#B6828B" stroke-linecap="round" stroke-width=".8"/>
<path d="m257.67 301.13c-0.857-0.745-2.37-0.535-3.693 0.794" stroke="#B6828B" stroke-linecap="round" stroke-width=".8"/>
<path d="m223.7 282.29c1.554-0.349 3.203 1.078 3.676 3.182l2.056 9.134-5.633 1.269-2.057-9.135c-0.473-2.104 0.405-4.1 1.958-4.45z" fill="#FFB4AB"/>
<path d="m231.97 296.44c-2.318 11.752-10.595 13.909-11.138 11.174l10.089-12.533c0.286-0.267 1.185 1.083 1.049 1.359z" fill="#382632"/>
<path d="m220.71 307.58c-4.103-3.53 3.41-6.494 2.273-15.167 0.79 3.858 4.252 1.14 5.63-1.453 0.644 1.719 1.939 2.788 2.506 4.34-1.81 10.658-9.009 13.485-10.409 12.28z" fill="#694C51"/>
<path d="m222.88 297.26c0.755-0.848 2.282-0.832 3.764 0.318" stroke="#B6828B" stroke-linecap="round" stroke-width=".8"/>
<path d="m222.19 299.28c0.755-0.848 2.282-0.832 3.764 0.318" stroke="#B6828B" stroke-linecap="round" stroke-width=".8"/>
<path d="m220.94 301.29c0.756-0.847 2.283-0.832 3.764 0.318" stroke="#B6828B" stroke-linecap="round" stroke-width=".8"/>
<path d="m259.89 253.92c1.075 0 2.135 0.726 3.547 1.631 1.413 0.904 3.852 2.468 4.425 0.351 0.741-3.03-5.513-6.053-6.707-6.287-1.195-0.234-3.844 0.206-4.561 0.673 1.386 3.377-0.153 6.191 0.799 6.36 1.182 0.21 1.421-2.728 2.497-2.728z" fill="#FFB4AB"/>
<path d="m245.91 212.75c2.023-1.019 4.479 0.196 5.457 2.69l10.319 35.599c-1.232-1.666-3.19-1.159-4.416 1.549l-12.639-33.335c-0.992-2.491-0.746-5.499 1.279-6.503z" fill="#FFB4AB"/>
<path d="m246.5 212.77c2.802-1.111 5.137 0.454 6.23 3.258l8.435 30.644c-0.706 1.807-4.444 2.679-6.756 2.176l-10.34-29.151c-1.111-2.802-0.374-5.834 2.431-6.927z" fill="#537FF5"/>
<path d="m249.36 219.46c-0.113 5.195-0.224 8.193-0.488 13.653l5.782 16.44 1.741-0.557c-3.855-11.413-5.866-17.862-7.035-29.536z" fill="#416BDC"/>
<path d="m228.73 252.18 20.313 9.488-1.077 26.062c1.102 2.296 5.656 2.349 7.86 1.522 4.564-22.261 8.314-32.246 4.564-35.085-8.953-6.778-13.968-10.697-27.344-17.04l-4.316 15.053z" fill="#1B3767"/>
<path d="m211.99 258.73c-1.075 0-2.135 0.726-3.548 1.631-1.412 0.904-3.852 2.468-4.425 0.351-0.741-3.03 5.513-6.053 6.708-6.286 1.194-0.234 3.843 0.205 4.56 0.673-1.385 3.376 0.154 6.19-0.799 6.359-1.182 0.21-1.421-2.728-2.496-2.728z" fill="#FFB4AB"/>
<path d="m227.41 213.49c-2.181-1.116-4.839 0.233-5.906 2.985l-11.291 39.266c1.337-1.84 2.761-1.019 4.074 1.96l14.479-37.052c1.081-2.749 0.828-6.062-1.356-7.159z" fill="#FFB4AB"/>
<path d="m227.16 212.77c-2.802-1.111-5.138 0.454-6.231 3.258l-10.003 32.82c0.706 1.807 4.843 3.036 7.155 2.534l11.367-31.356c1.111-2.802 0.517-6.163-2.288-7.256z" fill="#537FF5"/>
<path d="m225.28 219.83c0.359 3.729 0.483 5.98 0.551 10.346l-7.758 21.238c-0.943 0.117-1.443 0.137-2.248 0.027 4.275-12.62 8.394-20.414 9.455-31.611z" fill="#416BDC"/>
<path d="m243.53 251.38-18.762 11.195 4.219 24.092c-1.102 2.296-6.161 3.414-8.365 2.587-5.942-24.889-11.751-31.105-2.687-37.874 10.239-7.647 13.022-8.582 13.022-8.582l12.573 8.582z" fill="#1B3767"/>
<path d="m250.12 246.54c-6.016 9.63-21.889 7.414-24.996-0.353l24.996 0.353z" fill="#12274A"/>
<path d="m225.19 246.15c5.972 6.857 19.827 4.718 24.964 0.418-2.717-4.348-0.596-29.463 0-33.737-1.846-0.878-6.302-3.063-9.502-3.974-1.29-0.368-2.246-0.61-3.468-0.663 0 0-3.997 0.903-8.446 2.435-5.126 1.967-7.118 2.327-8.497 7.512l5.156 3.332c0.586 9.299 0.417 18.014-0.207 24.677z" fill="#537FF5"/>
<path d="m231.82 209.7c1.444 6.056 9.457 7.081 11.274-0.233" stroke="#7DA1FF" stroke-linecap="round" stroke-width=".5"/>
<path d="m228.65 223.93 1.524 3.092-1.52 3.094-1.524-3.092 1.52-3.094z" fill="#7DA1FF"/>
<path d="m246.72 223.9 1.498 3.041-1.495 3.042-1.518-2.726 1.515-3.357z" fill="#7DA1FF"/>
<path d="m243.68 224.34 1.54 2.936-1.536 3.25-1.337-2.908 1.333-3.278z" fill="#7DA1FF"/>
<path d="m240.87 224.58 1.49 3.062-1.487 3.149-1.463-2.99 1.46-3.221z" fill="#7DA1FF"/>
<path d="m237.86 224.6 1.573 3.192-1.569 3.194-1.554-3.282 1.55-3.104z" fill="#7DA1FF"/>
<path d="m234.76 224.53 1.56 3.166-1.556 3.168-1.568-3.346 1.564-2.988z" fill="#7DA1FF"/>
<path d="m231.66 224.35 1.56 3.211-1.557 2.995-1.527-3.493 1.524-2.713z" fill="#7DA1FF"/>
<path d="m226.88 223.44c6.64 1.265 14.728 1.482 20.927-0.014" stroke="#7DA1FF" stroke-linecap="round" stroke-width=".5"/>
<path d="m227.13 230.05c3.689 0.868 13.472 1.388 20.145 0.035" stroke="#7DA1FF" stroke-linecap="round" stroke-width=".5"/>
<path d="m233.53 209.2c0.885-1.491 0.822-3.127 0.987-5.955h5.256c0.143 2.667 0 4.46 1.597 5.83-1.597 4.907-6.416 4.477-7.84 0.125z" fill="#FFB4AB"/>
<path d="m234.34 206.62c1.571 1.089 4.113 1.02 5.677 0-0.1-0.513-0.17-1.493-0.197-2.234l-5.335 0.147-0.145 2.087z" fill="#F79F95"/>
<path d="m231.02 189.13h12.003v10.803c0 3.315-2.687 6.002-6.001 6.002-3.315 0-6.002-2.687-6.002-6.002v-10.803z" fill="#FFB4AB"/>
<path d="m230.17 194.04 0.829 2.806 0.219-2.806c0.169-0.719 1.049-1.23 1.204-2.55 3.574-1.702 5.92 1.071 9.983 1.071l0.664 4.129 0.567-4.129c2.628-0.545 4.096-3.988 2.151-6.93-1.014 1.361-2.441 0.656-3.382 0.466-1.795-0.592-2.945-2.451-5.581-2.274-2.037 0.137-3.895 1.132-4.402 2.653-0.632-0.192-0.858-0.666-0.694-1.412-0.732 0.561-0.943 1.256-0.714 2.194-0.488-0.615-1.51-0.639-2.148 0 0.464 0 1.042 0.057 1.042 0.968-3.191 1.379-1.923 5.494 0.262 5.814z" fill="#ED7F19"/>
<ellipse transform="matrix(-.9944 .10573 .10573 .9944 234.28 193.58)" rx="1.4085" ry=".48021" fill="#ED7F19"/>
<ellipse transform="rotate(6.0693 239.6 193.58)" cx="239.6" cy="193.58" rx="1.4085" ry=".48021" fill="#ED7F19"/>
<path d="m231.76 197.67c-1.803-2.784-4.206-1.482-4.206 0 0 1.222 0.781 2.792 4.206 1.65v-1.65z" fill="#FFB4AB"/>
<path d="m228.88 197.38s1.241-0.327 1.627 1.18" stroke="#4A2923" stroke-linecap="round" stroke-width=".5"/>
<path d="m230.5 198.55c-0.347-0.326-0.569-0.394-1.006-0.324" stroke="#4A2923" stroke-linecap="round" stroke-width=".5"/>
<path d="m241.94 199.14c3.106 1.188 4.206-0.429 4.206-1.65 0-0.53-0.106-1.101-0.591-1.451-0.885-0.639-2.53-0.413-3.615 1.451v1.65z" fill="#FFB4AB"/>
<path d="m244.97 197.06s-1.24-0.327-1.626 1.18" stroke="#4A2923" stroke-linecap="round" stroke-width=".5"/>
<path d="m243.36 198.23c0.346-0.327 0.568-0.395 1.006-0.325" stroke="#4A2923" stroke-linecap="round" stroke-width=".5"/>
<path d="m237.2 197.49 0.469 1.97c0.06 0.251-0.131 0.493-0.389 0.493h-0.741c-0.258 0-0.449-0.241-0.389-0.492l0.466-1.97c0.073-0.308 0.511-0.308 0.584-1e-3z" fill="#EF6179"/>
<path d="m236.45 201.52h1.998" stroke="#4A2923" stroke-linecap="round" stroke-width=".5"/>
<circle transform="matrix(-1 1.2822e-9 1.2822e-9 1 234.24 196.69)" r=".56388" fill="#4A2923"/>
<circle transform="matrix(-1 1.2822e-9 1.2822e-9 1 239.6 196.69)" r=".56388" fill="#4A2923"/>
<path d="m149.66 265.85c0.651 0.325 1.035 1.035 1.596 1.478 0.562 0.443 1.655 0.473 1.833-0.237 0.413 0.592 1.123 0.976 1.861 0.976-1.359-2.66-2.719-5.349-4.108-8.009-0.206-0.384-0.413-0.828-0.236-1.241 0.118-0.296 0.443-0.473 0.68-0.71 1.832-1.714-0.325-5.644 1.832-6.945 0.355-0.207 0.768-0.295 1.153-0.473 0.502-0.236 0.886-0.62 1.33-0.945 3.014-2.394 7.358-2.926 10.846-1.36-1.655-4.876-3.281-10.196-1.537-15.043 0.177-0.472 0.384-1.004 0.207-1.507-0.325-0.886-1.537-0.886-2.453-0.768 1.152-4.079 3.132-7.92 5.792-11.201 0.621-0.768 1.301-1.773 0.828-2.63-0.296-0.562-0.946-0.739-1.626-0.739-4.817 10.196-15.988 27.721-25.002 51.866 1.182-0.325 2.305-0.798 3.31-1.448 1.153-0.709 2.483-1.655 3.694-1.064z" fill="#3E6D32"/>
<path d="m135 302.23c0.355-0.295 0.502-0.768 0.65-1.182 0.857-2.6 1.626-5.29 1.685-8.009 0.029-1.743-0.266-3.546-0.946-5.142-1.3 4.876-2.483 9.93-3.487 15.191 0.236-0.119 0.472-0.207 0.709-0.296 0.473-0.177 1.005-0.236 1.389-0.562z" fill="#5C8636"/>
<path d="m163.55 256.75s-0.413 2.955 1.744 3.635-0.798 8.363 0 9.841 1.212-0.354 2.837-4.906c1.626-4.551 1.241-6.088 0-7.713-1.241-1.655-0.532-6.502-1.773-6.502s-2.808 5.645-2.808 5.645z" fill="#3E6D32"/>
<path d="m206.84 364.29c-1.744-1.242-14.215 3.28-14.215 3.28s13.653-13.122 10.521-12.826c-3.133 0.295-14.393 13.506-14.393 13.506 6.147-12.383 6.266-26.716 4.551-26.155-1.714 0.591-7.27 26.835-7.27 26.835s-1.389-15.073-3.044-14.718 1.035 13.861 1.035 13.861-8.955-17.851-9.783-13.565c-0.827 4.285 6.827 14.156 6.827 14.156s-9.191-7.832-9.93-6.532c-0.768 1.301 4.788 6.561 4.788 6.561s-20.185-10.61-20.451-6.886 21.781 10.728 21.781 10.728h11.733c-0.03 0.03 19.594-7.004 17.85-8.245z" fill="#557D31"/>
<path d="m529.42 310.39s10.876-46.369 7.773-47.197c-3.103-0.827-8.984 42.144-8.984 42.144s4.728-56.684 2.364-57.807-3.842 56.418-3.842 56.418 1.241-66.998-0.68-67.973c-1.95-0.976-1.359 69.362-1.359 69.362s-2.512-42.439-3.872-43.001c-1.359-0.561 1.714 41.907 1.714 41.907s-6.265-44.271-7.979-44.389 5.586 42.439 5.586 42.439-4.167-23.761-6.591-24.323c-2.128-0.502 3.635 23.111 3.635 23.111s-9.191-33.307-11.082-33.573c-1.892-0.266 10.225 40.341 10.225 40.341l13.092 2.541z" fill="#3E6D32"/>
<path d="m533.5 300.58c-2.542-3.104-7.064-5.616-12.649-5.704-5.556-0.118-11.526 2.394-14.156 5.91 1.064-2.187-0.798-4.58-3.931-5.083-3.339-0.532-7.181 0.975-9.457 2.985s-3.31 4.433-4.315 6.768c0-1.773-3.014-2.808-5.644-2.305-2.631 0.502-4.699 2.127-5.763 3.842-0.237 0.384-0.503 0.827-1.035 1.093-1.211 0.562-2.512-0.236-3.783-0.473-1.802-0.354-3.989 0.503-5.171 1.655-1.183 1.153-1.567 2.512-1.921 3.842 10.462 0.325 21.899 0.384 34.193 0.059 13.535-0.354 26.155-1.123 37.621-2.128 0.296-2.009-0.443-6.088-3.989-10.461z" fill="#5C8636"/>
<path d="m461.93 54.701s-8.866-3.1327-8.866-8.7774 15.397-4.3739 15.397-4.3739 5.379-3.901 9.014-2.6598c0 0 10.048-6.7382 19.741 0.6206 0 0 10.61-1.8914 17.466 0.7684 6.857 2.6598 0 11.437 0 11.437s2.985 1.655 3.044 5.0241-3.428 3.0735-3.428 3.0735-0.561 4.5808-6.443 4.3739c0 0 0.119 4.699-6.767 5.822-6.886 1.1231-12.738-3.4577-12.738-3.4577s-5.97 4.4921-9.575 4.3739c-3.606-0.1182-1.478-2.7485-1.478-2.7485s-3.842 1.4186-6.649 0.2069c-2.808-1.2117-2.039-3.4577-2.039-3.4577s-9.132 0.2068-9.576-3.2509c0 0-6.649-2.3347-7.004-4.2853-0.325-1.98 9.901-2.6893 9.901-2.6893z" fill="#2D4923"/>
<path d="m427.37 111.32s34.43 17.347 45.572 15.988c11.141-1.389-2.542-9.634-2.542-9.634s16.166 9.486 29.938 6.413c13.772-3.074 13.772-8.187 13.772-8.187s27.869 10.226 37.414 2.158c9.546-8.039-1.862-20.244-1.862-20.244s6.916-0.3842 7.152-5.4969c0.266-5.1128-14.865-10.403-14.865-10.403s9.546-6.2949 6.118-12.383c-3.429-6.088-22.55-6.088-22.55-6.088s-5.053-13.742-16.993-13.565c-11.939 0.2069-9.812 9.0433-9.812 9.0433s-14.067-8.1862-26.273-4.2852c0 0-23.495-2.3938-27.277 2.512-3.783 4.9059 8.422 6.4722 8.422 6.4722s-17.259 0.4138-22.283 8.0386c-5.024 7.6247 1.064 14.924 1.064 14.924s-15.663 5.2901-9.812 9.8117l5.852 4.5219s-17.141 1.3-1.035 10.403z" fill="#345629"/>
<path d="m494.9 307.2s2.808-110.68 4.463-143.69c0 0-22.52-14.925-35.553-34.105l2.305-2.748s23.584 21.219 33.691 24.115l1.507-46.517c0.089-3.044 2.867-5.3193 5.881-4.7873 2.394 0.4137 4.138 2.4823 4.167 4.8763 0.296 23.672 1.714 142.15 1.803 203.68l-18.264-0.828z" fill="#BD6125"/>
<path d="m507.9 239.44s-1.035 3.842-1.508 10.491c-0.472 6.65-2.039 13.595-1.093 13.565 0.975-0.059 2.039-11.555 2.601-12.028 0.561-0.443 3.044 4.167 3.044 2.63 0-1.507-1.655-5.585-1.655-7.418-0.03-1.803-0.532-11.821-1.389-7.24z" fill="#3E6D32"/>
<path d="m499.36 163.51c-1.655 33.011-4.463 143.69-4.463 143.69l4.019 0.178c-2.837-113.99 10.285-143.72 2.01-145.73-8.423-2.069-37.09-32.243-37.09-32.243 13.004 19.151 35.524 34.105 35.524 34.105z" fill="#915129"/>
<path d="m512.4 194.52c-1.478 2.689-2.01 5.94-1.212 8.895-0.414 0.798-1.625-0.148-1.803-1.034-0.177-0.887-0.62-2.128-1.507-1.892 0.887 5.29 1.773 10.58 2.63 15.9 0.148 0.946 0.325 1.862 0.325 2.808 0 1.064-0.206 2.127-0.384 3.191-0.62 3.547-1.064 7.152-0.62 10.728 0.354 2.837 1.3 5.645 2.985 7.95-0.119-15.368-0.266-31.208-0.414-46.546z" fill="#3E6D32"/>
<path d="m511.81 146.44c-0.414 0-0.857-0.059-1.271-0.148-0.444-0.089-0.975-0.207-1.271 0.118-0.177 0.207-0.207 0.502-0.207 0.768-0.089 2.424-0.355 4.847-0.768 7.241-0.118 0.621-0.237 1.271-0.532 1.832-0.296 0.562-0.739 1.035-0.828 1.655-0.118 0.739 0.296 1.419 0.621 2.069 1.359 2.778 1.359 6.147 0.059 8.955 0.68 0.059 1.182-0.591 1.773-0.887 0.916-0.414 1.921 0.059 2.66 0.769-0.024-8.098-0.092-15.664-0.236-22.372z" fill="#3E6D32"/>
<path d="m514.08 115.9s27.869 10.226 37.415 2.158c9.546-8.039-1.862-20.244-1.862-20.244s6.915-0.3842 7.152-5.4969c0.118-2.0983-2.424-4.2557-5.408-6.0289 0.088 3.8715-0.119 7.5657-2.483 10.521-3.31 4.1671-9.339 4.6401-14.658 4.8171 2.275 2.689 3.487 6.443 2.453 9.782-1.035 3.369-9.618 2.746-13.017 1.86-1.359-0.355-7.027-3.605-8.15-4.433-7.299-5.379-4.752-5.761-11.076-12.262 0.266 2.6302-2.512 4.7585-5.172 4.8175s-5.083-1.33-7.388-2.6306c-2.306-1.3003-4.818-2.6302-7.448-2.4234-1.3 0.0887-2.541 0.5616-3.842 0.7684-7.979 1.1822-13.949-7.8612-21.928-9.2206-5.941-1.0048-12.236 2.4234-17.91 0.3842-5.172-1.8914-7.684-7.477-11.378-11.644-0.768 5.5856 2.956 10.019 2.956 10.019s-15.664 5.2901-9.812 9.8118l5.851 4.5217s-17.111 1.241-0.975 10.344c0 0 34.43 17.347 45.571 15.988 11.142-1.359-2.541-9.634-2.541-9.634s16.166 9.486 29.937 6.413c13.713-3.074 13.713-8.187 13.713-8.187z" fill="#2D4923"/>
<path d="m481.93 90.867s-4.078 5.9993 1.271 5.822c0 0-4.699 4.4033-4.492 6.8273 0.206 2.393 7.358 0.325 7.358 0.325s-2.098 2.541 2.187 5.053c4.256 2.512 7.477 0.857 7.477 0.857s2.128 1.537 6.029 0.532c3.872-1.005 3.99-2.068 3.99-2.068s5.733 3.043 9.989 0.531 0-4.285 0-4.285 7.861 1.833 10.078-1.95c2.216-3.7831-7.566-7.6546-7.566-7.6546s5.054 0.1477 4.935-1.3595c-0.088-1.5368-7.654-3.901-7.654-3.901s0.384-1.1822-3.487-2.453c-3.872-1.2708-10.492 0.6502-10.492 0.6502s-2.512-3.901-5.437-3.1918c-2.897 0.7389-2.631 2.0688-2.631 2.0688s-7.358-2.6598-9.398 1.0639c-0.029 0-0.177-0.8275-2.157 3.1327z" fill="#345629"/>
<path d="m430.39 116.4s-6.354 9.309 1.95 9.073c0 0-7.299 6.856-6.974 10.609 0.295 3.754 11.437 0.503 11.437 0.503s-3.251 3.93 3.399 7.861c6.649 3.931 11.614 1.33 11.614 1.33s3.31 2.394 9.339 0.827c6.029-1.566 6.177-3.191 6.177-3.191s8.895 4.758 15.545 0.827c6.649-3.931 0-6.649 0-6.649s12.205 2.837 15.693-3.044c3.457-5.882-11.763-11.881-11.763-11.881s7.832 0.237 7.684-2.128c-0.148-2.364-11.91-6.088-11.91-6.088s0.591-1.862-5.438-3.812c-6.028-1.951-16.284 1.034-16.284 1.034s-3.93-6.088-8.452-4.935c-4.521 1.123-4.078 3.192-4.078 3.192s-11.408-4.138-14.6 1.655c0.03-0.03-0.236-1.33-3.339 4.817z" fill="#345629"/>
<path d="m419.95 292.78c0.473-2.453-0.798-5.113-3.015-6.295-2.187-1.182-5.142-0.739-6.886 1.005 0.148-3.428-2.541-6.738-5.91-7.3-3.369-0.561-7.005 1.685-7.98 4.965 0-2.009-1.743-3.842-3.724-3.989-2.009-0.148-3.96 1.448-4.255 3.428-0.798-1.389-2.305-2.453-3.872-2.335-1.596 0.118-3.014 1.744-2.571 3.281-2.896-2.069-7.388-1.419-9.575 1.389-0.532 0.679-1.035 1.536-1.892 1.773-0.591 0.148-1.182-0.059-1.773-0.178-3.812-0.797-7.95 2.306-8.275 6.207l66.023 0.886c-0.06-2.896-4.138-4.728-6.295-2.837z" fill="#5C8636"/>
<path d="m253.02 401.15c3.179 2.037 4.765 6.174 3.762 9.792 3.459-2.575 9.355 1.362 9.097 5.709-41.806-1.752-70.703-4.47-99.034-9.181 0.955-5.805 7.746-10.722 13.362-9.07 0.871 0.248 1.732 0.629 2.635 0.479 1.312-0.252 2.168-1.476 3.046-2.43 3.613-3.945 10.421-4.38 14.512-0.934-0.48-2.355 1.84-4.621 4.245-4.606 2.361 0.01 4.492 1.785 5.521 3.961 0.68-2.931 3.794-5.088 6.787-4.626 2.948 0.459 5.341 3.413 5.1 6.424 1.855-4.798 7.57-7.727 12.55-6.482s8.613 6.526 7.981 11.644c2.821-2.403 7.302-2.713 10.436-0.68z" fill="#5C8636"/>
<ellipse cx="474.68" cy="343.52" rx="27.075" ry="4.7657" fill="#749D46"/>
<path d="m464.06 294.08h14.956c3.355 0 6.065 2.554 6.065 5.715-3.708 18.383-6.432 38.15-6.996 39.085l-20.11-6.4v-32.685c0-3.161 2.73-5.715 6.085-5.715z" fill="#D84545"/>
<path d="m465.91 294.1c0.885-1.491 0.809-3.002 0.974-5.83h5.256c0.143 2.668 0 4.46 1.597 5.83-1.244 3.755-4.322 2.962-6.288 2.593-1.394-0.737-1.843-1.115-1.539-2.593z" fill="#AD4E39"/>
<path d="m466.7 291.64c1.571 1.089 4.064 0.799 5.628-0.221l-0.149-2.013-5.334 0.147-0.145 2.087z" fill="#893B2A"/>
<path d="m463.39 274.16h12.003v10.804c0 3.314-2.687 6.001-6.002 6.001-3.314 0-6.001-2.687-6.001-6.001v-10.804z" fill="#AD4E39"/>
<path d="m462.54 279.06 0.829 2.805 0.219-2.805c0.756 0 1.813-0.902 1.204-2.551 0.949 0.663 2.741 0.377 3.225-1.29 0.842 1.201 2.651 1.523 4.07 0.204 0.632 1.575 1.22 2.05 2.688 2.157l0.664 4.129 0.567-4.129c3.633-0.753 2.511-6.139-0.941-5.493 0.418-0.472 0.6-0.769 0.65-1.457-0.548 0.359-0.875 0.425-1.48 0.381-0.89-1.72-2.961-1.912-4.147-0.874-0.014-0.818-0.135-1.239-0.584-1.914-0.436 1.035-0.811 1.477-1.63 2.108-2.492-1.403-4.266 0.282-4.49 1.946-0.671 0.315-1.09 0.198-1.895-0.404-0.076 0.819-8e-3 1.227 0.385 1.827-2.747 1.355-1.519 5.04 0.666 5.36z" fill="#000"/>
<path d="m464.12 282.69c-1.803-2.784-4.206-1.482-4.206 0 0 1.222 0.781 2.792 4.206 1.651v-1.651z" fill="#AD4E39"/>
<path d="m474.31 284.16c3.106 1.187 4.206-0.429 4.206-1.651 0-0.53-0.107-1.101-0.591-1.451-0.885-0.639-2.531-0.413-3.615 1.451v1.651z" fill="#AD4E39"/>
<path d="m469.57 282.51 0.469 1.97c0.06 0.252-0.131 0.493-0.389 0.493h-0.741c-0.258 0-0.449-0.241-0.389-0.492l0.466-1.97c0.073-0.308 0.511-0.308 0.584-1e-3z" fill="#D86850"/>
<path d="m468.78 286.55h1.998" stroke="#4A2923" stroke-linecap="round" stroke-width=".5"/>
<path d="m461.2 282.37s1.241-0.327 1.627 1.18" stroke="#4A2923" stroke-linecap="round" stroke-width=".5"/>
<path d="m462.82 283.54c-0.347-0.327-0.569-0.394-1.006-0.324" stroke="#4A2923" stroke-linecap="round" stroke-width=".5"/>
<path d="m477.37 282.08s-1.24-0.327-1.627 1.18" stroke="#4A2923" stroke-linecap="round" stroke-width=".5"/>
<path d="m475.75 283.25c0.346-0.327 0.568-0.394 1.006-0.324" stroke="#4A2923" stroke-linecap="round" stroke-width=".5"/>
<ellipse transform="matrix(-.9944 .10573 .10573 .9944 466.9 278.04)" rx="1.4085" ry=".48021" fill="#4A2923"/>
<ellipse transform="rotate(6.0693 471.88 278.04)" cx="471.88" cy="278.04" rx="1.4085" ry=".48021" fill="#4A2923"/>
<circle transform="matrix(-1 1.2822e-9 1.2822e-9 1 466.61 281.72)" r=".56388" fill="#4A2923"/>
<circle transform="matrix(-1 1.2822e-9 1.2822e-9 1 471.96 281.72)" r=".56388" fill="#4A2923"/>
<circle cx="472.26" cy="281.61" r="2.0821" stroke="#252425" stroke-linecap="round" stroke-width=".5"/>
<circle transform="matrix(-1 0 0 1 466.32 281.61)" r="2.0821" stroke="#252425" stroke-linecap="round" stroke-width=".5"/>
<path d="m470.22 281.23h-1.839" stroke="#252425" stroke-linecap="round" stroke-width=".5"/>
<path d="m474.29 281.07 1.059 0.321" stroke="#252425" stroke-linecap="round" stroke-width=".5"/>
<path d="m464.24 281.38-0.918 0.495" stroke="#252425" stroke-linecap="round" stroke-width=".5"/>
<path d="m472.8 292.91 1.436 1.409s-0.249 4.172-5.626 5.891l-1.166-3.547s4.312-0.386 5.356-3.753z" fill="#F7F6F8"/>
<path d="m467.44 296.67s-1.578-0.728-1.085-3.539l-1.326 0.991s-1.405 2.832 0.193 5.087l2.218-2.539z" fill="#F7F6F8"/>
<path d="m451.49 344.2h19.348c4.268 0 7.016-2.583 8.002-7.953 0.547-2.978 0.583-4.426 1.13-7.404h-29.435l0.955 15.357z" fill="#12274A"/>
<path d="m493.72 340.57c1.075 0 2.135 0.726 3.548 1.63s3.852 2.468 4.425 0.351c0.741-3.029-5.513-6.052-6.708-6.286-1.194-0.234-3.843 0.205-4.56 0.673 1.385 3.376-0.154 6.19 0.799 6.359 1.182 0.211 1.421-2.727 2.496-2.727z" fill="#AD4E39"/>
<path d="m478.3 295.33c2.181-1.115 4.839 0.233 5.906 2.985l11.291 39.267c-1.337-1.841-2.761-1.019-4.074 1.96l-14.479-37.052c-1.081-2.75-0.828-6.062 1.356-7.16z" fill="#AD4E39"/>
<path d="m478.55 294.62c2.802-1.111 5.138 0.454 6.231 3.259l6.99 23.545c-1.1 1.431-4.678 3.135-6.99 2.633l-8.519-22.181c-1.111-2.802-0.516-6.163 2.288-7.256z" fill="#FF6A6A"/>
<path d="m492.13 320.1-8.689 2.831 2.256 4.653 7.44-2.508-1.007-4.976z" fill="#F7F6F8"/>
<path d="m463.98 343.48c-3.925 1.104-8.087-0.956-9.274-4.62l-9.21-28.326c-1.187-3.649 1.028-7.519 4.969-8.623 3.793-0.644 6.364 0.549 8.88 4.338 0 0 13.846 22.47 20.623 22.47 0 0-12.047 13.658-15.988 14.761z" fill="#12274A"/>
<path d="m460.92 341.82c-3.212 2.178-9.079 1.328-11.26-1.879l-17.583-28.142c-2.18-3.206-1.329-7.561 1.882-9.738 3.212-2.163 7.573-1.313 9.754 1.879l19.074 28.157c2.18 3.206 1.329 7.561-1.867 9.723z" fill="#12274A"/>
<path d="m455.14 338.03c1.947-0.145 3.688 1.854 3.881 4.456l0.838 11.293-7.063 0.524-0.838-11.293c-0.193-2.602 1.234-4.836 3.182-4.98z" fill="#AD4E39"/>
<path d="m428.49 338.13c1.839 0.573 2.703 3.065 1.927 5.556l-3.371 10.811-6.668-2.078 3.37-10.812c0.777-2.491 2.904-4.05 4.742-3.477z" fill="#AD4E39"/>
<path d="m428.59 357.95c-9.535 10.908-19.509 8.161-18.424 4.968l18.147-7.027c0.462-0.106 0.587 1.852 0.277 2.059z" fill="#0E1B3E"/>
<path d="m410.06 362.81c-2.163-6.179 7.5-4.74 11.554-14.513-1.506 4.518 3.764 3.765 6.776 1.883-0.365 2.19 0.345 4.092 0 6.061-8.341 10.07-17.592 8.677-18.33 6.569z" fill="#31477C"/>
<path d="m418.57 353.3c1.304-0.431 2.894 0.509 3.751 2.61" stroke="#6482CA" stroke-linecap="round" stroke-width=".8"/>
<path d="m416.63 355c1.304-0.431 2.894 0.508 3.751 2.609" stroke="#6482CA" stroke-linecap="round" stroke-width=".8"/>
<path d="m414.1 356.36c1.304-0.431 2.894 0.508 3.75 2.609" stroke="#6482CA" stroke-linecap="round" stroke-width=".8"/>
<path d="m430 347.19 15.162-36.999c1.188-3.86-0.99-7.963-4.858-9.137-3.864-1.19-7.971 0.983-9.144 4.847l-8.996 38.98c1.399 2.309 3.29 3.181 7.836 2.309z" fill="#1B3767"/>
<path d="m460.4 347.34-0.823-39.023c-0.342-3.985-3.865-6.944-7.852-6.586-3.99 0.343-6.953 3.863-6.596 7.845l6.395 38.119c2.556 2.023 7.096 0.8 8.876-0.355z" fill="#1B3767"/>
<path d="m478.58 337.5c0-6.166-5.002-11.988-11.124-19.599l12.861 8.577c-0.473 3.676-0.8 6.915-1.737 11.022z" fill="#D84545"/>
<path d="m450.94 371.64c-3.124 0-4.927-3.686-3.171-5.368l12.157-11.132c1.244 6.215-1.711 16.5-8.986 16.5z" fill="#0E1B3E"/>
<path d="m448.72 369c-3.41-4.173 1.882-7.529 3.857-17.787 1.79 3.105 4.67 1.941 7.079-0.035 0.338 3.19 0.684 4.995 0.131 8.728-1.18 7.969-8.209 12.593-11.067 9.094z" fill="#31477C"/>
<path d="m451.97 357.44c1.365-0.752 3.75-0.878 5.216 0.722" stroke="#6482CA" stroke-linecap="round" stroke-width=".8"/>
<path d="m451.23 359.96c1.366-0.751 3.751-0.877 5.217 0.723" stroke="#6482CA" stroke-linecap="round" stroke-width=".8"/>
<path d="m450.07 362.67c1.365-0.752 3.75-0.878 5.216 0.722" stroke="#6482CA" stroke-linecap="round" stroke-width=".8"/>
<path d="m396.38 410.61s-2.535-13.512-7.489-25.093-8.037-20.874-0.657-30.083c0 0 8.657 12.045 9.447 54.876l-1.301 0.3z" fill="#3E6D32"/>
<path d="m402.27 407.18s-5.835-30.685-1.336-38.101c0 0 7.177 10.682 4.442 19.89-2.734 9.208-2.316 17.846-2.316 17.846l-0.79 0.365z" fill="#3E6D32"/>
<path d="m549.75 384.7s-16.337-30.455-31.823-22.83-3.753 16.846-24.884 19.653c-21.13 2.808-28.164-11.644-48.349 5.615-20.185 17.26-73.396 19.951-78.597 28.521 26.376-1.354 134.54-6.807 183.65-30.959z" fill="#5C8636"/>
<ellipse cx="369.85" cy="320.06" rx="23.335" ry="6.4084" fill="#749D46"/>
<path d="m360.04 298.76 0.396 7.982c-1.887 4.596 5.271 4.037 6.099 1.671l-0.31-9.903-6.185 0.25z" fill="#DFA070"/>
<path d="m375.72 297.5 1.888 10.853c1.848 2.464 5.275 3.437 6.235 0l-1.79-11.728-6.333 0.875z" fill="#DFA070"/>
<path d="m357.28 248.89c-0.082 1.208 0.082 2.235 0.534 3.82 0.452 1.586 0.817 4.359-1.294 4.104-2.992-0.436-3.433-7.155-3.209-8.314 0.225-1.158 1.583-3.379 2.264-3.853 2.87-0.401 4.984 6.056 3.691 6.549-1.117 0.426-1.798-3.277-1.986-2.306z" fill="#DFA070"/>
<path d="m357.36 234.39c-0.02 1.686-0.744 9.271 0.486 11.378l-4.598 3.458c0-3.516-0.224-12.465-0.387-14.836h4.499z" fill="#DFA070"/>
<path d="m351.7 242.12c-0.408-20.167-0.056-36.449 1.572-38.905 1.378 12.994 2.348 25.912 3.726 38.905-2.225 0.47-3.574 0.638-5.298 0z" fill="#674CD3"/>
<path d="m376.58 235.7h-22.015l4.702 67.038c1.95 1.884 5.978 1.624 8.211-0.455v-45.919l8.233 47.6c2.305 1.651 6.042 1.274 8.272-0.591l-7.403-67.673z" fill="#1B3767"/>
<path d="m367.48 302.28c-0.58 0.519-1.148 0.881-1.915 1.2l-0.473-52.011c1.104 1.499 1.947 3.073 2.347 4.796l0.041 46.015z" fill="#12274A"/>
<path d="m354.97 242.37c3.666 6.339 26.673 3.192 22.759-1.465l-22.759 1.465z" fill="#12274A"/>
<path d="m386.71 325.48c2.73-0.233 4.033-3.588 2.373-4.929l-11.456-8.828c-0.625 5.526 2.723 14.297 9.083 13.757z" fill="#9C5C30"/>
<path d="m388.45 323.01c2.671-3.902-2.205-6.442-4.694-15.263-1.334 2.847-3.939 2.044-6.191 0.495-0.058 2.815-0.227 4.418 0.534 7.641 1.624 6.878 8.112 10.398 10.351 7.127z" fill="#C56C2A"/>
<path d="m384.75 313.14c-1.25-0.556-3.344-0.489-4.507 1.019" stroke="#EC9351" stroke-linecap="round" stroke-width=".8"/>
<path d="m385.58 315.29c-1.249-0.556-3.344-0.488-4.506 1.019" stroke="#EC9351" stroke-linecap="round" stroke-width=".8"/>
<path d="m386.8 317.57c-1.25-0.556-3.344-0.488-4.507 1.019" stroke="#EC9351" stroke-linecap="round" stroke-width=".8"/>
<path d="m367.12 314.52c-8.341 9.543-17.5 7.639-16.55 4.845l16.118-6.416c0.404-0.093 0.703 1.391 0.432 1.571z" fill="#9C5C30"/>
<path d="m350.48 319.27c-1.892-5.406 6.419-3.984 9.966-12.533-1.318 3.952 4.636 4.214 6.041 0.627 0.202 0.994 0.728 4.129 0.427 5.852-7.298 8.809-15.788 7.898-16.434 6.054z" fill="#C56C2A"/>
<path d="m357.92 310.96c1.141-0.377 2.531 0.445 3.281 2.283" stroke="#EC9351" stroke-linecap="round" stroke-width=".8"/>
<path d="m356.22 312.44c1.141-0.377 2.532 0.445 3.281 2.283" stroke="#EC9351" stroke-linecap="round" stroke-width=".8"/>
<path d="m354.01 313.63c1.141-0.377 2.532 0.445 3.281 2.283" stroke="#EC9351" stroke-linecap="round" stroke-width=".8"/>
<path d="m353.26 203.22c0.062 12.929 0.717 25.915 1.693 39.034 2.858 2.175 17.188 2.746 22.591-0.906-0.59-13.842-2.266-27.244 1.669-40.064-1.15-1.183-6.016-3.225-9.849-4.926h-6.904c-0.665 0.291-1.306 0.593-1.92 0.904-3.486 1.765-6.109 3.827-7.28 5.958z" fill="#7A61E1"/>
<path d="m365.59 201.39c-2.415 0-4.725-1.585-5.043-4.113l1.757-0.926 3.286-0.428h3.162l2.484 1.307c-0.137 1.915-1.787 4.16-5.646 4.16z" fill="#9B82FF"/>
<path d="m350.29 187.89c2.116 0.702 4.645 0.694 6.602-1.238l16.986-0.282c2.199 2.209 4.748 3.033 8.023 2.404-1.277 1.095-2.167 1.212-3.933 0.905 0.646 0.525 1.053 0.709 1.838 0.888-4.903 6.392-20.239 9.111-27.164 0.583 0.863-0.283 1.334-0.467 1.981-1.197-2.458 0.382-3.479-0.654-4.333-2.063z" fill="#000"/>
<path d="m370.98 184.92v-2.602l2.381 0.901v0.952l-2.381 0.749z" fill="#000"/>
<path d="m357.77 183.61 0.158 0.953 2.874 2.1-0.261-4.779-2.771 1.726z" fill="#000"/>
<path d="m362.28 196.36c0.827-1.394 0.756-2.806 0.911-5.449h4.912c0.133 2.493 0 4.169 1.492 5.449 0 1.569-1.492 2.736-3.826 2.736s-3.773-1.354-3.489-2.736z" fill="#DFA070"/>
<path d="m362.97 194.29c1.469 1.018 3.897 0.729 5.359-0.225-0.137-0.886-0.158-1.431-0.165-2.169l-5.012 0.218c-0.051 0.733-0.088 1.193-0.182 2.176z" fill="#D18D5A"/>
<path d="m359.92 176.3h11.219v11.511c0 3.098-2.511 5.609-5.609 5.609s-5.61-2.511-5.61-5.609v-11.511z" fill="#DFA070"/>
<path d="m373.36 183.83c-3.255-1.451-6.574-3.928-7.895-6.323 0 0 0.967 3.366-0.384 2.97-1.352-0.397-1.572-3.424-1.572-3.424-1.032 3.906-3.353 6.359-5.659 7.057-1.298-5.814 2.256-12.14 6.218-10.096-0.559-1.54 0.289-2.649 1.921-2.76-0.958 0.941-1.219 1.531-0.908 2.76 2.006-3.153 8.735 0.703 8.279 9.816z" fill="#000"/>
<path d="m360.6 185.7c-1.685-2.602-3.931-1.385-3.931 0 0 1.142 0.73 2.61 3.931 1.543v-1.543z" fill="#DFA070"/>
<path d="m357.91 185.45s0.966-0.255 1.267 0.919" stroke="#000" stroke-linecap="round" stroke-width=".3"/>
<path d="m359.17 186.36c-0.27-0.255-0.443-0.307-0.784-0.253" stroke="#000" stroke-linecap="round" stroke-width=".3"/>
<path d="m355.26 190.68 3.159-3.689-0.895 4.985-2.264-1.296z" stroke="#fff" stroke-linecap="round" stroke-linejoin="round" stroke-width=".4"/>
<path d="m370.12 187.07c2.903 1.111 3.932-0.4 3.932-1.542 0-0.496-0.1-1.029-0.553-1.356-0.827-0.598-2.365-0.386-3.379 1.356v1.542z" fill="#DFA070"/>
<path d="m372.97 185.17s-0.966-0.255-1.267 0.919" stroke="#000" stroke-linecap="round" stroke-width=".3"/>
<path d="m371.71 186.08c0.27-0.254 0.442-0.307 0.783-0.252" stroke="#000" stroke-linecap="round" stroke-width=".3"/>
<path d="m375.63 190.35-3.159-3.688 0.895 4.985 2.264-1.297z" stroke="#fff" stroke-linecap="round" stroke-linejoin="round" stroke-width=".4"/>
<path d="m365.71 185.61 0.412 1.729c0.06 0.251-0.131 0.493-0.389 0.493h-0.626c-0.259 0-0.449-0.241-0.39-0.492l0.41-1.729c0.072-0.308 0.51-0.308 0.583-1e-3z" fill="#DF744A"/>
<path d="m361.2 182.84c0.104 0.11 0.873-0.101 1.674-0.187 0.802-0.085 1.249-0.017 1.332-0.35 0.037-0.144 0.048-0.437-0.295-0.484s-0.82 0-1.187 0.087c-0.791 0.169-1.703 0.747-1.524 0.934z" fill="#000"/>
<path d="m369.56 182.84c-0.104 0.11-0.873-0.101-1.674-0.187-0.802-0.085-1.249-0.017-1.333-0.35-0.036-0.144-0.047-0.437 0.296-0.484s0.82 0 1.187 0.087c0.791 0.169 1.703 0.747 1.524 0.934z" fill="#000"/>
<path d="m361.9 184.81c0 0.204 1.164 0.369 1.461 0.369 0.298 0 0.539-0.165 0.539-0.369s-0.241-0.369-0.539-0.369c-0.297 0-1.461 0.165-1.461 0.369z" fill="#000"/>
<path d="m369.04 184.81c0 0.204-1.163 0.369-1.461 0.369-0.297 0-0.539-0.165-0.539-0.369s0.242-0.369 0.539-0.369c0.298 0 1.461 0.165 1.461 0.369z" fill="#000"/>
<path d="m365.16 189.23h1.867" stroke="#000" stroke-linecap="round" stroke-width=".5"/>
<path d="m377.07 248.88c0.131 1.203 0.011 2.236-0.375 3.839s-0.635 4.389 1.463 4.046c2.971-0.56 3.133-7.291 2.861-8.44-0.273-1.148-1.722-3.31-2.422-3.755-2.885-0.282-4.728 6.258-3.416 6.697 1.133 0.379 1.66-3.35 1.889-2.387z" fill="#DFA070"/>
<path d="m376.38 234.4c0.09 1.684 1.129 9.232-0.012 11.388l4.737 3.264c-0.147-3.512-0.294-12.463-0.23-14.839l-4.495 0.187z" fill="#DFA070"/>
<path d="m382.2 241.65c-0.219-20.311 0.581-40.593-4.132-40.974s-3.77 8.113-3.195 19.927c0.303 6.226 0.589 14.165 0.887 21.315 1.691 0.86 4.665 0.754 6.44-0.268z" fill="#987EFF"/>
<path d="m330.67 362.73 86.517-299.1h-10.345l-86.615 299.1h10.443z" fill="url(#a)" fill-opacity=".3"/>
<path d="m349.72 209.16 53.443-145.53h-18.429l-208.24 318.14h100.72l88.479-226.06-15.972 53.443z" fill="url(#a)" fill-opacity=".3"/>
<path d="m189.39 295.77 186.13-232.14h-25.8l-191.66 202.65 52.835-40.538-98.334 126.54 106.31-107.5-29.486 50.986z" fill="url(#a)" fill-opacity=".3"/>
<path d="m401.25 392 23.914-327.02h7.772l-2.989 322.24-28.697 4.783z" fill="url(#c)" fill-opacity=".3"/>
<path d="m461.63 390.21-20.925-327.02h12.555l42.447 160.22-34.077-79.514 42.447 246.31h-42.447z" fill="url(#b)" fill-opacity=".2"/>
<path d="m306.21 74.204s-10.718-3.7723-10.718-10.592c0-6.8202 18.612-5.2963 18.612-5.2963s6.495-4.7216 10.867-3.2227c0 0 12.142-8.1442 23.833 0.7495 0 0 12.816-2.2734 21.135 0.9493 8.294 3.2227 0 13.815 0 13.815s3.623 1.9986 3.698 6.0707-4.147 3.6973-4.147 3.6973-0.675 5.5461-7.77 5.2962c0 0 0.125 5.671-8.169 7.02-8.319 1.3491-15.414-4.197-15.414-4.197s-7.22 5.4212-11.592 5.2963-1.773-3.3227-1.773-3.3227-4.647 1.7238-8.045 0.2499c-3.397-1.474-2.448-4.1971-2.448-4.1971s-11.042 0.2499-11.592-3.9471c0 0-8.044-2.848-8.444-5.1714-0.424-2.3233 11.967-3.1977 11.967-3.1977z" fill="#345629"/>
<path d="m256.21 105.67s-12.678-4.463-12.678-12.531c0-8.0681 22.017-6.2653 22.017-6.2653s7.684-5.5856 12.856-3.8124c0 0 14.363-9.6344 28.194 0.8866 0 0 15.161-2.6894 25.002 1.123 9.812 3.8124 0 16.343 0 16.343s4.285 2.364 4.374 7.182c0.089 4.817-4.906 4.374-4.906 4.374s-0.798 6.56-9.191 6.265c0 0 0.148 6.708-9.664 8.304-9.841 1.596-18.234-4.965-18.234-4.965s-8.541 6.413-13.713 6.266c-5.172-0.148-2.098-3.931-2.098-3.931s-5.497 2.039-9.517 0.296c-4.019-1.744-2.896-4.965-2.896-4.965s-13.062 0.295-13.713-4.67c0 0-9.516-3.369-9.989-6.117-0.502-2.749 14.156-3.783 14.156-3.783z" fill="#416A30"/>
<path d="m468.81 78.979s2.104-15.562-15.343-14.899c0 0 18.893-6.9832 11.156-19.756-3.976-6.5637-19.706 0.2371-19.706 0.2371s5.263-7.407-6.463-13.782c-11.726-6.3751-20.119-1.2101-20.119-1.2101s-5.887-3.9502-16.159-0.5317c-10.271 3.4185-10.354 6.3888-10.354 6.3888s-15.689-7.6318-26.766 0.1032c-11.08 7.7014 0.559 11.944 0.559 11.944s-21.257-3.8629-26.74 7.0754c-5.488 10.905 21.218 20.166 21.218 20.166s-13.497 0.3717-13.054 4.6053c0.444 4.2337 20.977 9.715 20.977 9.715s-0.882 3.407 9.64 6.287c10.521 2.88 27.919-3.5091 27.919-3.5091s7.226 10.526 14.921 8.0309 6.742-6.1566 6.742-6.1566 19.981 6.2626 24.982-4.4471c0 0 15.283 1.0682 16.59-10.26z" fill="#416A30"/>
<ellipse cx="240.6" cy="322.77" rx="24.881" ry="5.4454" fill="#749D46"/>
<defs>
<linearGradient id="a" x1="264.87" x2="264.87" y1="63.63" y2="381.77" gradientUnits="userSpaceOnUse">
<stop stop-color="#FDD02E" offset="0"/>
<stop stop-color="#FDD02E" stop-opacity="0" offset="1"/>
</linearGradient>
<linearGradient id="c" x1="417.09" x2="417.09" y1="64.98" y2="392" gradientUnits="userSpaceOnUse">
<stop stop-color="#FDD02E" offset="0"/>
<stop stop-color="#FDD02E" stop-opacity="0" offset="1"/>
</linearGradient>
<linearGradient id="b" x1="472.39" x2="472.39" y1="63.186" y2="390.21" gradientUnits="userSpaceOnUse">
<stop stop-color="#FDD02E" offset="0"/>
<stop stop-color="#FDD02E" stop-opacity="0" offset="1"/>
</linearGradient>
</defs>
</svg>
