<svg fill="none" width="1440" height="630" xmlns="http://www.w3.org/2000/svg"><g mask="url(#bk)"><circle cx="530.38" cy="109.91" r="40.42" fill="#FFD12E"/><path d="m739.66 403.84 75.3 55.07h-817V255.18L39 245.64a200.01 200.01 0 0 1 152.01 25.66l7.67 4.84a200 200 0 0 0 125.95 29.92l15.99-1.54a200 200 0 0 1 124.19 28.83l37.15 22.9a157.44 157.44 0 0 0 113.7 20.33 157.44 157.44 0 0 1 124 27.26z" fill="#B1D4F2" opacity=".6"/><path d="m700.23 207.76 11.4 11.65h-180l17.1-14.58a29.29 29.29 0 0 1 25.8-6.2 29.28 29.28 0 0 0 22.39-3.71l2.87-1.8a37.35 37.35 0 0 1 38.14-1l10.56 5.91a28.8 28.8 0 0 0 22.61 2.37 28.8 28.8 0 0 1 29.13 7.36z" fill="#fff"/><path d="M514.92 304.86c-.15-.3.15-.6.45-.45 2.05 1.3 6.6 4.27 6.9 4.52.4.35 1.06 4.01 1.06 4.01s3.2-.3 3.6.4l.56.4-.65.16s-1.6.6-2.16.75c-.6.15-2.7 1.4-6.7 1.66l-2.91 1.3s-.75-1.5-.6-3.46l3.3-.05.8-.15s-.1-3.42-.25-3.77c-.05-.15-2.3-3.51-3.4-5.32z" fill="url(#a)"/><path d="M475.02 305.91s-.05 1.66-.15 2c-.1.26-1.05 1.77-1.65 2.72-.15.2.1.5.35.35 1.3-.65 3.6-1.96 4.25-2.71.85-1.05 1.9-3.31 1.9-3.31s2.06-.4 2.2-.9l.86-.26s-.75-.4-.8-.45c-.05-.05-.55-.9-2.66-.4 0 0-1.1-3.97-1.6-4.37-.45-.35-4.35-2.06-7.26-2.87-.25-.05-.45.26-.25.4 1.2 1.41 4.06 4.68 4.26 5.03.25.45.4 1.96.4 1.96s-2.15.6-2.45.6c-.25.05-2.76-.65-2.76-.65s-.8 2.36.5 4.52l2.5-1.61 2.36-.05z" fill="url(#b)"/><path d="M450.44 327.26s-1.8.25-2.95.35c0 0 .15 2.21 1.45 3.27 0 0 1.7-1.91 2.4-2.16 0 0 1.35 1.25 1.4 1.4.05.1.35 3.82.5 5.33 0 .2.3.3.4.1.7-1.16 2.3-3.77 2.4-5.23.16-1.9-.64-2.9-.64-2.9s1.55-.66 1.65-1.42l1-.55-1.15-.15s-.75-.5-2.5.25c0 0 0-1.4-.35-1.4-.4.05-2.96 1.3-3.61 3.11z" fill="url(#c)"/><path d="M718.76 75.88s17.68-15.79 33.98-16.41c16.3-.63 17.6 3.26 32.29-4.89 14.67-8.14 22.6-14.73 40.64-5.17 26.16 13.86 34.98 0 66.87 26.47H718.75zM1458 143.64l13.93 14.24h-220l20.91-17.82a35.78 35.78 0 0 1 31.51-7.58c9.37 2.23 19.23.6 27.37-4.54l3.51-2.2a45.66 45.66 0 0 1 46.63-1.21l12.9 7.22a35.21 35.21 0 0 0 27.64 2.9 35.2 35.2 0 0 1 35.6 8.99zM365.57 175.66h6.28l6.37 226.68h-18.36l5.71-226.68z" fill="#fff"/><rect x="357.02" y="170.91" width="23.33" height="6.67" rx="3.33" fill="#fff"/><mask id="d" x="319" y="173" width="60" height="77" mask-type="alpha" maskUnits="userSpaceOnUse"><path d="m319.79 245.55 55.38-71.71 3.04 2.28-4.25 6.46c5.98 6 5.72 15.78-.59 21.44l-50 44.85a2.45 2.45 0 0 1-3.58-3.32z" fill="#fff"/></mask><g mask="url(#d)"><path d="m319.79 245.55 55.38-71.71 3.04 2.28-4.25 6.46c5.98 6 5.72 15.78-.59 21.44l-50 44.85a2.45 2.45 0 0 1-3.58-3.32z" fill="#fff"/><path d="m319.43 250.58 55.26-68.75 10.53 14.57-62.62 56.65-3.17-2.47z" fill="#A9CAF0"/></g><mask id="e" x="341" y="74" width="37" height="99" mask-type="alpha" maskUnits="userSpaceOnUse"><path d="m346.67 75.95 30.94 94.94-3.84 1.4-2.34-5.75a16.88 16.88 0 0 1-19.12-14.31l-10.77-75.09a2.64 2.64 0 0 1 5.13-1.2z" fill="#fff"/></mask><g mask="url(#e)"><path d="m346.67 75.95 30.94 94.94-3.84 1.4-2.34-5.75a16.88 16.88 0 0 1-19.12-14.31l-10.77-75.09a2.64 2.64 0 0 1 5.13-1.2z" fill="#fff"/><path d="m343 72.47 28.58 94.4-17.48 1.46-14.7-94.4 3.6-1.46z" fill="#A9CAF0"/></g><mask id="f" x="377" y="165" width="91" height="35" mask-type="alpha" maskUnits="userSpaceOnUse"><path d="m385.8 173.85-7.08-1.18-1.2 3.54 88 23.36a1.94 1.94 0 0 0 1.34-3.62l-59.57-28.38a16.8 16.8 0 0 0-21.49 6.28z" fill="#fff"/></mask><g mask="url(#f)"><path d="m385.8 173.85-7.08-1.18-1.2 3.54 88 23.36a1.94 1.94 0 0 0 1.34-3.62l-59.57-28.38a16.8 16.8 0 0 0-21.49 6.28z" fill="#fff"/><path d="m468.97 198.44-83.46-24.73 7.78-13.74 75.68 36.19v2.28z" fill="#A9CAF0"/></g><path d="M240.84 237.62h4.18l4.25 151.12h-12.23l3.8-151.12z" fill="#fff"/><rect x="235.14" y="234.46" width="15.56" height="4.44" rx="2.22" fill="#fff"/><mask id="g" x="209" y="236" width="41" height="51" mask-type="alpha" maskUnits="userSpaceOnUse"><path d="m210.32 284.22 36.92-47.8 2.02 1.52-2.83 4.3c4 4 3.81 10.52-.39 14.3l-33.34 29.9a1.63 1.63 0 0 1-2.38-2.22z" fill="#fff"/></mask><g mask="url(#g)"><path d="m210.32 284.22 36.92-47.8 2.02 1.52-2.83 4.3c4 4 3.81 10.52-.39 14.3l-33.34 29.9a1.63 1.63 0 0 1-2.38-2.22z" fill="#fff"/><path d="m210.08 287.57 36.84-45.84 7.02 9.72-41.74 37.76-2.12-1.64z" fill="#A9CAF0"/></g><mask id="h" x="224" y="169" width="25" height="67" mask-type="alpha" maskUnits="userSpaceOnUse"><path d="m228.24 171.15 20.63 63.3-2.57.93-1.56-3.83A11.26 11.26 0 0 1 232 222l-7.18-50.05a1.76 1.76 0 0 1 3.42-.8z" fill="#fff"/></mask><g mask="url(#h)"><path d="m228.24 171.15 20.63 63.3-2.57.93-1.56-3.83A11.26 11.26 0 0 1 232 222l-7.18-50.05a1.76 1.76 0 0 1 3.42-.8z" fill="#fff"/><path d="m225.79 168.83 19.05 62.93-11.65.98-9.8-62.93 2.4-.98z" fill="#A9CAF0"/></g><mask id="i" x="248" y="231" width="62" height="23" mask-type="alpha" maskUnits="userSpaceOnUse"><path d="m254.32 236.42-4.72-.79-.8 2.36 58.67 15.57a1.3 1.3 0 0 0 .89-2.41l-39.72-18.92a11.2 11.2 0 0 0-14.32 4.19z" fill="#fff"/></mask><g mask="url(#i)"><path d="m254.32 236.42-4.72-.79-.8 2.36 58.67 15.57a1.3 1.3 0 0 0 .89-2.41l-39.72-18.92a11.2 11.2 0 0 0-14.32 4.19z" fill="#fff"/><path d="m309.77 252.81-55.64-16.49 5.18-9.15 50.46 24.12v1.52z" fill="#A9CAF0"/></g><path d="M31.47 213.62h4.18l4.25 151.12H27.66l3.8-151.12z" fill="#fff"/><rect x="25.77" y="210.46" width="15.56" height="4.44" rx="2.22" fill="#fff"/><mask id="j" x="0" y="212" width="40" height="51" mask-type="alpha" maskUnits="userSpaceOnUse"><path d="m.95 260.22 36.92-47.8 2.02 1.52-2.83 4.3c4 4 3.81 10.52-.4 14.3l-33.33 29.9a1.63 1.63 0 0 1-2.38-2.22z" fill="#fff"/></mask><g mask="url(#j)"><path d="m.95 260.22 36.92-47.8 2.02 1.52-2.83 4.3c4 4 3.81 10.52-.4 14.3l-33.33 29.9a1.63 1.63 0 0 1-2.38-2.22z" fill="#fff"/><path d="m.7 263.57 36.85-45.84 7.02 9.72L2.82 265.2l-2.11-1.64z" fill="#A9CAF0"/></g><mask id="k" x="15" y="145" width="25" height="67" mask-type="alpha" maskUnits="userSpaceOnUse"><path d="m18.87 147.15 20.63 63.3-2.57.93-1.56-3.83A11.26 11.26 0 0 1 22.63 198l-7.18-50.05a1.76 1.76 0 0 1 3.42-.8z" fill="#fff"/></mask><g mask="url(#k)"><path d="m18.87 147.15 20.63 63.3-2.57.93-1.56-3.83A11.26 11.26 0 0 1 22.63 198l-7.18-50.05a1.76 1.76 0 0 1 3.42-.8z" fill="#fff"/><path d="m16.42 144.83 19.05 62.93-11.65.98-9.8-62.93 2.4-.98z" fill="#A9CAF0"/></g><mask id="l" x="39" y="207" width="61" height="23" mask-type="alpha" maskUnits="userSpaceOnUse"><path d="m44.96 212.42-4.72-.79-.8 2.36 58.67 15.57a1.29 1.29 0 0 0 .88-2.41l-39.71-18.92a11.2 11.2 0 0 0-14.32 4.19z" fill="#fff"/></mask><g mask="url(#l)"><path d="m44.96 212.42-4.72-.79-.8 2.36 58.67 15.57a1.29 1.29 0 0 0 .88-2.41l-39.71-18.92a11.2 11.2 0 0 0-14.32 4.19z" fill="#fff"/><path d="m100.4 228.81-55.64-16.49 5.18-9.15 50.46 24.12v1.52z" fill="#A9CAF0"/></g><path d="M139.57 137.66h6.28l6.37 226.68h-18.36l5.71-226.68z" fill="#fff"/><rect x="131.02" y="132.91" width="23.33" height="6.67" rx="3.33" fill="#fff"/><mask id="m" x="93" y="135" width="60" height="77" mask-type="alpha" maskUnits="userSpaceOnUse"><path d="m93.8 207.55 55.37-71.71 3.04 2.28-4.25 6.46c5.99 6 5.72 15.78-.59 21.44l-50 44.85a2.45 2.45 0 0 1-3.58-3.32z" fill="#fff"/></mask><g mask="url(#m)"><path d="m93.8 207.55 55.37-71.71 3.04 2.28-4.25 6.46c5.99 6 5.72 15.78-.59 21.44l-50 44.85a2.45 2.45 0 0 1-3.58-3.32z" fill="#fff"/><path d="m93.43 212.58 55.26-68.75 10.54 14.57-62.62 56.65-3.18-2.47z" fill="#A9CAF0"/></g><mask id="n" x="115" y="36" width="37" height="99" mask-type="alpha" maskUnits="userSpaceOnUse"><path d="m120.67 37.95 30.94 94.94-3.84 1.4-2.34-5.75a16.88 16.88 0 0 1-19.13-14.31l-10.76-75.09a2.64 2.64 0 0 1 5.13-1.2z" fill="#fff"/></mask><g mask="url(#n)"><path d="m120.67 37.95 30.94 94.94-3.84 1.4-2.34-5.75a16.88 16.88 0 0 1-19.13-14.31l-10.76-75.09a2.64 2.64 0 0 1 5.13-1.2z" fill="#fff"/><path d="m117 34.47 28.58 94.4-17.48 1.46-14.7-94.4 3.6-1.46z" fill="#A9CAF0"/></g><mask id="o" x="151" y="127" width="91" height="35" mask-type="alpha" maskUnits="userSpaceOnUse"><path d="m159.8 135.85-7.08-1.18-1.2 3.54 88 23.36a1.94 1.94 0 0 0 1.34-3.62l-59.57-28.38a16.8 16.8 0 0 0-21.49 6.28z" fill="#fff"/></mask><g mask="url(#o)"><path d="m159.8 135.85-7.08-1.18-1.2 3.54 88 23.36a1.94 1.94 0 0 0 1.34-3.62l-59.57-28.38a16.8 16.8 0 0 0-21.49 6.28z" fill="#fff"/><path d="m242.97 160.44-83.46-24.73 7.78-13.74 75.68 36.19v2.28z" fill="#A9CAF0"/></g><path d="m78.87 307.84 10.6 34.9a199.98 199.98 0 0 1 87.46 3.5l9.4-30.77 9.27 36.73c1.45.54 2.89 1.1 4.32 1.68l9.11-26.58 10.13 35.44 30.41 15.18a199.98 199.98 0 0 0 42.1 15.4l11.02-44.79 8.95 48.57c3.74.5 7.49.92 11.25 1.22l5.84-31.93 7.15 32.55c11.52.17 23.1-.66 34.58-2.5l30.53-4.88a200 200 0 0 1 109.37 13.23l131.82 55.65H1.37V360.37l68.27-13.69 9.23-38.84z" clip-rule="evenodd" fill="#7DAA41" fill-rule="evenodd"/><mask id="p" x="565" y="385" width="31" height="75" mask-type="alpha" maskUnits="userSpaceOnUse"><path d="m589.37 427.8-8.6-42.5-6.84 33.8 4-1.67-4.55 4.38-3.7 18.32 7.25-2.47-7.95 5.9-3.21 15.87h30l-5.89-29.1-5.84-4.34 5.33 1.81z" fill="#3B6221"/></mask><g mask="url(#p)"><path d="m589.37 427.8-8.6-42.5-6.84 33.8 4-1.67-4.55 4.38-3.7 18.32 7.25-2.47-7.95 5.9-3.21 15.87h30l-5.89-29.1-5.84-4.34 5.33 1.81z" fill="#3B6221"/><path d="M580.5 461.23v-77.16l19.17 77.16H580.5z" fill="#48752B"/></g><mask id="q" x="122" y="385" width="31" height="75" mask-type="alpha" maskUnits="userSpaceOnUse"><path d="m145.82 427.8-8.6-42.5-6.84 33.8 4-1.67-4.55 4.38-3.7 18.32 7.25-2.47-7.95 5.9-3.21 15.87h30l-5.89-29.1-5.84-4.34 5.33 1.81z" fill="#3B6221"/></mask><g mask="url(#q)"><path d="m145.82 427.8-8.6-42.5-6.84 33.8 4-1.67-4.55 4.38-3.7 18.32 7.25-2.47-7.95 5.9-3.21 15.87h30l-5.89-29.1-5.84-4.34 5.33 1.81z" fill="#3B6221"/><path d="M136.95 461.23v-77.16l19.17 77.16h-19.17z" fill="#48752B"/></g><path d="M1172.2 42.88V460h-75.22V78.87l75.22-35.98z" fill="#9CBDE7"/><path d="M1097 459.99V78.86h-43.06v380.78l43.06.34z" fill="#B7D2F0"/><path d="M1116.4 97.09h37.24m-37.24 15.81h37.24m-37.24 15.8h37.24m-37.24 15.81h37.24m-37.24 15.8h37.24m-37.24 15.81h37.24m-37.24 15.81h37.24m-37.24 15.8h37.24m-37.24 15.81h37.24m-37.24 15.8h37.24m-37.24 15.81h37.24m-37.24 15.8h37.24m-37.24 15.81h37.24m-37.24 15.81h37.24m-37.24 15.81h37.24m-37.24 15.8h37.24m-37.24 15.8h37.24m-37.24 15.81h37.24m-37.24 15.81h37.24m-37.24 15.8h37.24m-37.24 15.8h37.24m-37.24 15.81h37.24" stroke="#699AD1" stroke-linecap="round" stroke-linejoin="round" stroke-miterlimit="10" stroke-width="3"/><path d="m1089.9 42.88-35.97 35.99h43.06l75.22-35.99h-82.31z" fill="#ABCAED"/><path d="M1197.6 459.65V78.87h45.83l66.56 37.65v343.14" fill="#9CBDE7"/><path d="M1310 133.48h-68.79v11.03H1310m0 13.63h-68.79v11.03H1310m0 13.63h-68.79v11.03H1310m0 13.63h-68.79v11.03H1310m0 13.63h-68.79v11.03H1310m0 13.62h-68.79v11.03H1310m0 13.63h-68.79v11.03H1310m0 13.63h-68.79v11.03H1310m0 13.63h-68.79v11.03H1310m0 13.62h-68.79v11.03H1310m0 13.64h-68.79v11.02H1310m0 13.64h-68.79v11.02H1310m0 13.64h-68.79v11.02H1310" fill="#7CA9DC"/><path d="M1341.3 459.99V193.58h70.99v266.41" fill="#8CB2E2"/><path d="M1355.1 209.64h41.84m-41.84 13.9h41.84m-41.84 13.9h41.84m-41.84 13.89h41.84m-41.84 13.89h41.84m-41.84 13.9h41.84m-41.84 13.9h41.84m-41.84 13.89h41.84m-41.84 13.9h41.84m-41.84 13.89h41.84m-41.84 13.9h41.84m-41.84 13.9h41.84m-41.84 13.9h41.84m-41.84 13.89h41.84m-41.84 13.9h41.84m-41.84 13.9h41.84m-41.84 13.89h41.84m-41.84 13.89h41.84" stroke="#699AD1" stroke-linecap="round" stroke-linejoin="round" stroke-miterlimit="10" stroke-width="3"/><path d="M1412.3 193.58v266.41h27.72V210.76l-27.72-17.19z" fill="#9CBDE7"/><path d="m828.52 221.72-40.6 23.99v213.94h40.6V221.73z" fill="#B7D2F0"/><path d="M828.52 221.72v237.92h63.38l.09-237.92h-63.47z" fill="#9CBDE7"/><path d="M840.84 242.12h42.26m-42.26 13.8h42.26m-42.26 13.81h42.26m-42.26 13.8h42.26m-42.26 13.8h42.26m-42.26 13.81h42.26m-42.26 13.8h42.26m-42.26 13.81h42.26m-42.26 13.8h42.26m-42.26 13.81h42.26m-42.26 13.8h42.26m-42.26 13.8h42.26m-42.26 13.81h42.26m-42.26 13.8h42.26m-42.26 13.81h42.26" stroke="#699AD1" stroke-linecap="round" stroke-linejoin="round" stroke-miterlimit="10" stroke-width="3"/><path d="M963.79 459.65V167.74h40.13v292.25" fill="#B7D2F0"/><path d="M1074.2 167.74h-70.33v292.25h70.33V167.74z" fill="#9CBDE7"/><path d="M1023.9 181.88h-12.95v8.98h12.95v-8.98zm42 0h-34.37v8.98h34.37v-8.98zm-42 18.3h-12.95v8.98h12.95v-8.98zm42 0h-34.37v8.98h34.37v-8.98zm-42 18.3h-12.95v8.98h12.95v-8.98zm42 0h-34.37v8.98h34.37v-8.98zm-42 18.29h-12.95v8.98h12.95v-8.98zm42 0h-34.37v8.98h34.37v-8.98zm-42 18.29h-12.95v8.98h12.95v-8.98zm42 0h-34.37v8.98h34.37v-8.98zm-42 18.3h-12.95v8.98h12.95v-8.98zm42 0h-34.37v8.98h34.37v-8.98zm-42 18.29h-12.95v8.98h12.95v-8.98zm42 0h-34.37v8.98h34.37v-8.98zm-42 18.3h-12.95v8.98h12.95v-8.98zm42 0h-34.37v8.98h34.37v-8.98zm-42 18.3h-12.95v8.98h12.95v-8.98zm42 0h-34.37v8.98h34.37v-8.98zm-42 18.29h-12.95v8.98h12.95v-8.98zm42 0h-34.37v8.98h34.37v-8.98zm-42 18.3h-12.95v8.98h12.95v-8.98zm42 0h-34.37v8.98h34.37v-8.98z" fill="#7CA9DC"/><path d="M1023.9 383.13h-12.95v8.98h12.95v-8.98z" stroke="#999" stroke-miterlimit="10" stroke-width="2"/><path d="M1065.9 383.13h-34.37v8.98h34.37v-8.98z" fill="#7CA9DC"/><path d="M1023.9 401.43h-12.95v8.98h12.95v-8.98z" stroke="#999" stroke-miterlimit="10" stroke-width="2"/><path d="M1065.9 401.43h-34.37v8.98h34.37v-8.98z" fill="#7CA9DC"/><path d="M1023.9 419.72h-12.95v8.98h12.95v-8.98z" stroke="#999" stroke-miterlimit="10" stroke-width="2"/><path d="M1065.9 419.72h-34.37v8.98h34.37v-8.98z" fill="#7CA9DC"/><path d="M1023.9 438.02h-12.95V447h12.95v-8.98z" stroke="#999" stroke-miterlimit="10" stroke-width="2"/><path d="M1065.9 438.02h-34.37V447h34.37v-8.98z" fill="#7CA9DC"/><path d="m1035.6 132.92-27.84 22.84v11.98h55.68v-11.98l-27.84-22.84z" fill="#8CB2E2"/><path d="m1003.1 132.92-27.82 22.84v11.98h32.56v-11.98l27.84-22.84h-32.58z" fill="#B7D2F0"/><path d="M1007.8 155.76h-32.57v11.99h32.57v-11.99zm347.3 187.35H1305v116.88h50.1V343.11z" fill="#9CBDE7"/><path d="m1305 343.11-19.83-22.37-19.83 22.37v116.88H1305V343.11z" fill="#C9E0FB"/><path d="M1335.3 320.74h-50.1l19.83 22.37h50.1l-19.83-22.37z" fill="#8CB2E2"/><path d="M1314.8 366.43v73.15m10.2-73.15v73.15m10.2-73.15v73.15m10.1-73.15v73.15" stroke="#699AD1" stroke-linecap="round" stroke-linejoin="round" stroke-miterlimit="10" stroke-width="3"/><path d="M1225.2 217.74h-65.92v242.25h65.92V217.74z" fill="#A6C4E9"/><path d="M1159.2 217.74h-32.92v242.25h32.92V217.74z" fill="#C9E0FB"/><path d="M1173 239.34v206.81m12.8-206.81v206.81m12.7-206.81v206.81m12.7-206.81v206.81" stroke="#699AD1" stroke-linecap="round" stroke-linejoin="round" stroke-miterlimit="10" stroke-width="3"/><path d="M903.58 268.93h-32.53v190.72h32.53V268.93z" fill="#C9E0FB"/><path d="M1026.7 459.99v-93.43l-54.67-17.14V460h54.67z" fill="#A6C4E9"/><path d="M979.74 459.99V268.93h-76.17v190.72l76.17.34z" fill="#A6C4E9"/><path d="M925.21 286.95h-7.36V447h7.36V286.95zm20.13 0h-7.36V447h7.36V286.95zm20.14 0h-7.36V447h7.36V286.95z" fill="#7CA9DC"/><path d="M1015.7 388.33h-33.57m33.57 16.69h-33.57m33.57 16.7h-33.57m33.57 16.7h-33.57" stroke="#699AD1" stroke-linecap="round" stroke-linejoin="round" stroke-miterlimit="10" stroke-width="3"/><path d="M694.69 326.31H640V460h54.69V326.31z" fill="#B7D2F0"/><path d="M810.22 326.31H694.69V460H810.2V326.31z" fill="#A6C4E9"/><path d="M710.45 340.69h42.94m14.27 0h30.4m-87.61 12.85h42.94m14.27 0h30.4m-87.61 12.86h42.94m14.27 0h30.4m-87.61 12.85h42.94m14.27 0h30.4m-87.61 12.86h42.94m14.27 0h30.4m-87.61 12.85h42.94m14.27 0h30.4m-87.61 12.85h42.94m14.27 0h30.4m-87.61 12.86h42.94m14.27 0h30.4m-87.61 12.85h42.94m14.27 0h30.4" stroke="#699AD1" stroke-linecap="round" stroke-linejoin="round" stroke-miterlimit="10" stroke-width="3"/><path d="M0 460h1440v100H0V460z" fill="#96BD61"/><path d="M1394.7 549.64c-14.05-10.41-26.88-1.21-28.28 10.36h73.56c-1.94-15.07-11.38-25.38-24.22-25.38-9.78 0-17.43 7.03-21.06 15.02z" fill="#457828"/><path d="M1009.3 549.64c-14.05-10.41-26.88-1.21-28.28 10.36h73.56c-1.94-15.07-11.38-25.38-24.22-25.38-9.78 0-17.43 7.03-21.06 15.02z" fill="#55992E"/><path d="M414.42 439.64a1 1 0 0 1 1-1h6.85a1 1 0 0 1 1 1v118.54a1 1 0 0 1-1 1h-6.85a1 1 0 0 1-1-1V439.64z" fill="#fff"/><path d="M418.84 439.64a1 1 0 0 1 1-1h2.42a1 1 0 0 1 1 1v118.54a1 1 0 0 1-1 1h-2.42a1 1 0 0 1-1-1V439.64z" fill="#B7D2F0"/><path d="M524.47 439.64a1 1 0 0 1 1-1h6.85a1 1 0 0 1 1 1v118.54a1 1 0 0 1-1 1h-6.85a1 1 0 0 1-1-1V439.64z" fill="#fff"/><path d="M528.89 439.64a1 1 0 0 1 1-1h2.42a1 1 0 0 1 1 1v118.54a1 1 0 0 1-1 1h-2.42a1 1 0 0 1-1-1V439.64z" fill="#B7D2F0"/><path d="M560.37 497.88a1 1 0 0 1 1-1h6.85a1 1 0 0 1 1 1v60.3a1 1 0 0 1-1 1h-6.85a1 1 0 0 1-1-1v-60.3z" fill="#fff"/><path d="M564.8 497.88a1 1 0 0 1 1-1h2.42a1 1 0 0 1 1 1v60.3a1 1 0 0 1-1 1h-2.42a1 1 0 0 1-1-1v-60.3z" fill="#B7D2F0"/><path d="M444.15 497.88a1 1 0 0 1 1-1H452a1 1 0 0 1 1 1v60.3a1 1 0 0 1-1 1h-6.85a1 1 0 0 1-1-1v-60.3z" fill="#fff"/><path d="M448.58 497.88a1 1 0 0 1 1-1H452a1 1 0 0 1 1 1v60.3a1 1 0 0 1-1 1h-2.42a1 1 0 0 1-1-1v-60.3z" fill="#B7D2F0"/><path d="M399.9 498.88c0-1.1.9-2 2-2h166a2 2 0 0 1 2 2v4.85a2 2 0 0 1-2 2h-166a2 2 0 0 1-2-2v-4.85z" fill="#9C5C30"/><path d="M444.15 498.88c0-1.1.9-2 2-2H567.9a2 2 0 0 1 2 2v4.85a2 2 0 0 1-2 2H446.15a2 2 0 0 1-2-2v-4.85z" fill="#C56C2A"/><path d="M399.9 481.18c0-1.1.9-2 2-2h143.88a2 2 0 0 1 2 2v8.5a2 2 0 0 1-2 2H401.9a2 2 0 0 1-2-2v-8.5z" fill="#9C5C30"/><path d="M405.43 481.18c0-1.1.9-2 2-2h138.34a2 2 0 0 1 2 2v8.5a2 2 0 0 1-2 2H407.43a2 2 0 0 1-2-2v-8.5z" fill="#C56C2A"/><path d="M399.9 464.26c0-1.1.9-2 2-2h143.88a2 2 0 0 1 2 2v8.5a2 2 0 0 1-2 2H401.9a2 2 0 0 1-2-2v-8.5z" fill="#9C5C30"/><path d="M405.43 464.26c0-1.1.9-2 2-2h138.34a2 2 0 0 1 2 2v8.5a2 2 0 0 1-2 2H407.43a2 2 0 0 1-2-2v-8.5z" fill="#C56C2A"/><path d="M399.9 447.66c0-1.1.9-2 2-2h143.88a2 2 0 0 1 2 2v8.5a2 2 0 0 1-2 2H401.9a2 2 0 0 1-2-2v-8.5z" fill="#9C5C30"/><path d="M405.43 447.66c0-1.1.9-2 2-2h138.34a2 2 0 0 1 2 2v8.5a2 2 0 0 1-2 2H407.43a2 2 0 0 1-2-2v-8.5z" fill="#C56C2A"/><path d="m477.52 429.14 3.22.42a9.8 9.8 0 0 1 8.15 6.97l8.04 27.5 10.79 3.06v6.07l-22.1-1.36-10.95-29.58 2.85-13.08z" fill="#F7F6F8"/><path d="m481.04 459.43 4.58 12.38 8.92.54-11.45-34.41-2.05 21.49z" fill="url(#r)" opacity=".4"/><path d="m457.35 427.27 20.59 1.78a8 8 0 0 1 7.3 8.34l-2.8 38.14h-35.65l1.9-40.68a8 8 0 0 1 8.66-7.58z" fill="#537FF5"/><path d="m470.36 465.1-10.85-6.44.56-23.13-11.83 8.8-1.45 31.2h20.1l3.47-10.43z" fill="url(#s)" opacity=".4"/><path d="m467.16 418.43-1.47 9.54s1.38 4.18 5.73 4.18c4.35 0 3.6-2.82 3.6-2.82l-.07-5.58-7.79-5.32z" fill="#F2B88D"/><path d="M469.33 422.8s.72 4.87 5.45 5.8l.23.04-.06-4.88-2.5-1.19-2.52-1.3-.6 1.53z" fill="#E8A374"/><path d="M481.56 411.68s-.2 10.91-1.58 12.86c-1.78 2.5-6.66 2.99-11.59-2.87a8.34 8.34 0 0 1-1.92-3.95s-1.68-.25-2.07-2.42c-.39-2.16 1.46-3.27 3.33-2.4 0 0 .6-6.05 7.2-5.77 6.6.28 6.63 4.55 6.63 4.55z" fill="#F2B88D"/><path d="M467.72 412.92s.4-.04.58.92c.19.96 1.17-.85 1.4-2.2 0 0 8.54 2.77 13.06-.71 2.8-2.16.37-5.94-3.11-6.8-4.57-1.13-9.96-.39-12.12 2.1a2.77 2.77 0 0 0-3.65 1.34c-1.45 2.66-2.87 12.61 2.73 14.37l.4-2.54a9.45 9.45 0 0 1-.6-1.78 2.94 2.94 0 0 1-2.07-3.25c.28-2.28 3.08-1.82 3.38-1.45z" fill="#252425"/><path d="m465.98 425.98-1.82 2s-.6 4.99 6.2 8.52l2.37-4.48s-5.8-.24-6.75-6.04zm6.75 6.04s2.28-.61 2.26-4.49l1.55 1.63s1.23 4.11-1.42 6.76l-2.39-3.9z" fill="#F7F6F8"/><path d="m502.55 551.71-.8 8.5h26.5l-14.37-8.29-11.33-.21z" fill="#08040D"/><path d="m458.79 475.53-.75 7.97a13.05 13.05 0 0 0 12.98 14.24h24.87l6.66 53.95 11.32.2 3.1-60.79a15.3 15.3 0 0 0-7.15-13.17 15.27 15.27 0 0 0-7.9-2.33l-6.42-.07h-36.7z" fill="#113956"/><path d="M507.72 493.18a14.16 14.16 0 0 0-13.84-16.12l-7.1-.1h-28.13l-.61 6.55a12.24 12.24 0 0 0 .12 3.4v.08a13.06 13.06 0 0 0 12.85 10.77h24.87l5.7 46.28 6.14-50.86z" fill="#08040D" opacity=".3"/><path d="m446.79 475.53-.75 7.97a13.07 13.07 0 0 0 12.98 14.24h24.48l-.95 53.95 12.12.2 9.75-60.14a14.16 14.16 0 0 0-13.83-16.13l-7.09-.09h-36.7z" fill="#113956"/><path d="m482.54 551.71-.8 8.5h19.5l-6.57-8.29-12.13-.21z" fill="#08040D"/><path d="M448.88 432.17 440 460.79a5.99 5.99 0 0 0 8.16 7.25 5.98 5.98 0 0 0 3.17-3.32l10.8-27.95a7.02 7.02 0 1 0-13.25-4.6z" fill="#F7F6F8"/><path d="m469.58 466.31 4.19 1.43a8 8 0 0 1 3.87 2.84l2.09 2.85h-9.5l-3.52-1.06 2.87-6.06z" fill="#F2B88D"/><path d="m444.03 468.31 24.27 4.72 2.81-7.65-23.28-7.7-3.8 10.63z" fill="#F7F6F8"/><path d="m488.95 454.64-8.55 18.78h-19.27a1.06 1.06 0 0 0 0 2.11h47.91a2.67 2.67 0 0 0 2.43-1.56l8.8-19.32a1.13 1.13 0 0 0-.07-1.07 1.12 1.12 0 0 0-.95-.51h-27.88a2.68 2.68 0 0 0-2.42 1.57z" fill="#ABBCE9"/><path d="M502.9 466.3c.96-.99 1.11-2.4.33-3.17s-2.2-.58-3.16.4c-.97 1-1.12 2.41-.33 3.18.78.76 2.2.58 3.16-.41z" fill="#E3F1FC"/><path d="m515.67 464.75.6-1.3s1.7 2 .22 5.58c-.47 1.15-1.15 1.82-3.02 2.7-.56.23-1.17.35-1.78.36a1.06 1.06 0 0 1-1.03-.7 1.05 1.05 0 0 1-.06-.42c.08-1.66.32-4.7.96-5.17.9-.65 4.11-1.05 4.11-1.05z" fill="#F2B88D"/><path d="M399.01 549.64c-14.04-10.41-26.88-1.21-28.27 10.36h73.55c-1.93-15.07-11.38-25.38-24.21-25.38-9.78 0-17.44 7.03-21.07 15.02z" fill="#55992E"/><path d="M116.36 535.12c15.63-.84 20.55 14.1 20.55 24.88H44.88c1-5.47 7.47-12.44 14.43-12.44 5.57 0 9.97 1.3 12.68 4.48 1.41-3.73 6.12-11.5 13.68-12.69 7.56-1.2 13.1 4.98 14.93 8.21.74-1.99 4.61-11.84 15.76-12.44z" fill="#457828"/><path d="M129.3 540.74c-11.09 1.28-16.35 12.62-18.42 19.26h92.03c-1-5.48-7.46-12.44-14.43-12.44-5.57 0-9.97 1.3-12.68 4.48-1.4-3.74-6.12-11.5-13.68-12.69-7.56-1.2-13.1 4.97-14.92 8.2 0 0-5.83-8.2-17.9-6.81z" fill="#55992E"/><path d="M829.5 397.75v110.93m40-110.93v110.93m-.34-23.18h-39.24m39.24-25h-39.24m39.24-25h-39.24" stroke="#fff" stroke-linecap="round" stroke-linejoin="round" stroke-width="3"/><path d="M816.23 503.83c-9.55-7.08-18.27-.82-19.22 7.04h50c-1.31-10.24-7.73-17.25-16.46-17.25-6.65 0-11.85 4.78-14.32 10.21z" fill="#55992E"/><path d="M962.67 511.32h38l-92.27-94.23h-39.98l94.25 94.23z" fill="#D84545"/><path d="M886.04 395.45h-37.1v21.98h37.1a50 50 0 0 1 35.36 14.64l79.24 79.24v-21.97L921.4 410.1a50 50 0 0 0-35.36-14.65z" fill="#FF6A6A"/><path d="M848.04 395.45h-20.1v21.98h20.1a50 50 0 0 1 35.36 14.64l79.24 79.24v-21.97L883.4 410.1a50 50 0 0 0-35.36-14.65z" fill="#FF6A6A"/><path d="M1109.4 405.96c-2.29 18.72 1.26 60.09 25.84 79.8" stroke="#5D341D" stroke-linecap="round" stroke-linejoin="round" stroke-width="1.5"/><mask id="t" x="1047" y="393" width="16" height="34" mask-type="alpha" maskUnits="userSpaceOnUse"><path d="m1048.7 409.02 10.12-15.87 1.59 11.12-5.12 8.45 6.97 6.95-.58 6.4-11.39-8.44a6.42 6.42 0 0 1-1.59-8.61z" fill="#87B448"/></mask><g mask="url(#t)"><path d="m1048.7 409.02 10.12-15.87 1.59 11.12-5.12 8.45 6.97 6.95-.58 6.4-11.39-8.44a6.42 6.42 0 0 1-1.59-8.61z" fill="#7A61E1"/></g><path d="M1073.7 391.12v-7.85l-6.22-.36-1.5 8.21h7.72z" fill="#FEC6CE"/><path d="M1076.8 384.07c.91-2 .61-11.56-2.37-15.69-4.04-5.6-10.22-2.86-12.72 0-2.13 2.45-4.37 8.51 1.09 13.2 5.68 4.86 13.2 4.24 14 2.49z" fill="#FEC6CE"/><path d="M1073.4 389.02h-6.58a2.32 2.32 0 0 0-2.32 2.32h11.68l-.51-.96a2.58 2.58 0 0 0-2.27-1.36z" fill="#fff"/><path d="M1066.8 523.43v-6.24h4.87v2.51s5.98 0 8.26 3.73h-13.13z" fill="#0E1B3E"/><path d="M1077.5 523.43v-6.24h4.88v2.51s5.48 0 8.26 3.73h-13.14z" fill="#0E1B3E"/><mask id="v" x="1061" y="435" width="29" height="84" mask-type="alpha" maskUnits="userSpaceOnUse"><path d="M1064.9 518.38s-5.71-61.14-3.2-82.95h25.85c1.04 2.7 2.02 8.46 2.02 14.95s-2.96 48.45-5.4 68h-8l-1.4-66.75-2.02 66.75h-7.85z" fill="url(#u)"/></mask><g mask="url(#v)"><path d="M1064.9 518.38s-5.71-61.14-3.2-82.95h25.85c1.04 2.7 2.02 8.46 2.02 14.95s-2.96 48.45-5.4 68h-8l-1.4-66.75-2.02 66.75h-7.85z" fill="url(#u)"/><path d="M1067 442.79c2.72-6.1 15.05-6.05 21.54-6.23l-26.86-3.03-2.82 14.1 4.83 71.79h3.49c-.09-12.29-.43-39.38-1.07-49.5-.81-12.64-1.51-21.75.89-27.13z" fill="url(#w)" opacity=".5"/></g><mask id="y" x="1058" y="391" width="32" height="46" mask-type="alpha" maskUnits="userSpaceOnUse"><path d="M1065.2 391.18h10.71a6.42 6.42 0 0 1 6.32 5.28l7.29 40.49h-29.4c.67-4.01 2.02-13.17 2.02-17.75 0-3.3-1.71-12.52-3.28-20.2a6.5 6.5 0 0 1 6.34-7.82z" fill="url(#x)"/></mask><g mask="url(#y)"><path d="M1057.2 391.18h24.08l8.24 45.77h-29.4c.67-4.01 2.02-13.17 2.02-17.75 0-4.59-3.29-20.6-4.94-28.02z" fill="#7A61E1"/><path d="M1069.4 399.8c2.24-3.63 2.13-4.7 1.28-9.08l-11.63 9.08c.43 4.7 1.47 14.89 2.24 18.05.77 3.16-1.17 14.14-2.24 19.23h8.43c2.77-5.66-2.88-21.58-2.78-25.96.11-4.38 2.46-7.69 4.7-11.32z" fill="url(#z)" opacity=".4"/><path d="m1081 417.79-4.41-19.81 13.5 24.2-.43.17a6.43 6.43 0 0 1-8.66-4.56z" fill="url(#A)" opacity=".4"/></g><path d="m1107.1 403.46-2.92 1.79 1.45 4.22 5.35-.84a1.3 1.3 0 0 0 1.05-.97l.69-2.93a1 1 0 0 0-.81-1.22l-2.75-.45a3.01 3.01 0 0 0-2.06.4z" fill="#FEC6CE"/><mask id="B" x="1074" y="391" width="33" height="28" mask-type="alpha" maskUnits="userSpaceOnUse"><path d="m1089.2 409.7-6.75-16.04a3.88 3.88 0 1 0-7.12 3.08l8.26 18.58a4.63 4.63 0 0 0 6.25 2.29l16.34-7.91-1.79-4.7-15.19 4.7z" fill="#87B448"/></mask><g mask="url(#B)"><mask id="C" x="1074" y="391" width="33" height="28" mask-type="alpha" maskUnits="userSpaceOnUse"><path d="m1089.2 409.7-6.75-16.04a3.88 3.88 0 1 0-7.12 3.08l8.26 18.58a4.63 4.63 0 0 0 6.25 2.29l16.34-7.91-1.79-4.7-15.19 4.7z" fill="#87B448"/></mask><g mask="url(#C)"><path d="m1089.2 409.7-6.75-16.04a3.88 3.88 0 1 0-7.12 3.08l8.26 18.58a4.63 4.63 0 0 0 6.25 2.29l16.34-7.91-1.79-4.7-15.19 4.7z" fill="#7A61E1"/></g><path d="m1104.7 411.4-2.66-6.35 2.66-.51 2 5.4-2 1.46z" fill="#fff"/></g><path d="M1071.1 386.2c-.68-3.4 0-5.24 2.47-7.42 4.11-3.63 4.89-7.01 3.61-9.62-1.72-3.53-8.06-6.27-13-3.67-5.14 2.7-4.11 7.68-7.58 11.22-3.47 3.55-.78 5.57-.32 8.3.44 2.6-.13 2.73-1.74 4.9-2.54 3.4.02 5.48 1.74 7.16 1.75 1.73 1.84 3.93 1.84 6.4 0 3.68 2.39 3.6 3.23 2.12.84-1.48.82-3.33 3.34-3.57 3.33-.33 4.1-.5 4.1-4.08 0-2.22 3.82-3.2 3.88-5.83.06-2.64-.67-1.47-1.57-5.91z" fill="#4F2F1C"/><mask id="D" x="1146" y="469" width="9" height="12" mask-type="alpha" maskUnits="userSpaceOnUse"><path d="M1146.9 471.09v9.22h7.78l-5.71-9.78a1.11 1.11 0 0 0-2.07.56z" fill="#fff"/></mask><g mask="url(#D)"><path d="M1141.3 485.87h18.89v-21.45h-18.89v21.45z" clip-rule="evenodd" fill="#5D341D" fill-rule="evenodd"/></g><mask id="E" x="1110" y="511" width="9" height="13" mask-type="alpha" maskUnits="userSpaceOnUse"><path d="m1110.2 511.09 1.42 9.05a3.9 3.9 0 0 0 3.84 3.3h2.87c.25 0 .46-.22.46-.48V511.1h-8.59z" fill="#fff"/></mask><g mask="url(#E)"><path d="M1104.7 528.99h19.7v-23.45h-19.7v23.45z" clip-rule="evenodd" fill="#C17D56" fill-rule="evenodd"/><path d="M1115.6 522.65v.77m2.2-.77v.77" stroke="#CF7D55" stroke-linecap="round" stroke-width=".83"/></g><mask id="F" x="1134" y="511" width="10" height="13" mask-type="alpha" maskUnits="userSpaceOnUse"><path d="m1134.7 511.09 1.42 9.05a3.88 3.88 0 0 0 3.84 3.3h2.86c.26 0 .47-.22.47-.48V511.1h-8.59z" fill="#fff"/></mask><g mask="url(#F)"><path d="M1129.1 528.99h19.7v-23.45h-19.7v23.45z" clip-rule="evenodd" fill="#C17D56" fill-rule="evenodd"/><path d="M1140 522.65v.77m2.2-.77v.77" stroke="#CF7D55" stroke-linecap="round" stroke-width=".83"/></g><mask id="G" x="1120" y="508" width="9" height="14" mask-type="alpha" maskUnits="userSpaceOnUse"><path d="m1120.2 508.87 1.42 9.05a3.9 3.9 0 0 0 3.84 3.3h2.86c.26 0 .47-.22.47-.48v-11.87h-8.59z" fill="#fff"/></mask><g mask="url(#G)"><path d="M1114.7 526.77h19.7v-23.45h-19.7v23.45z" clip-rule="evenodd" fill="#5D341D" fill-rule="evenodd"/></g><mask id="H" x="1144" y="508" width="10" height="14" mask-type="alpha" maskUnits="userSpaceOnUse"><path d="m1144.7 508.87 1.41 9.05a3.9 3.9 0 0 0 3.85 3.3h2.86c.26 0 .47-.22.47-.48v-11.87h-8.59z" fill="#fff"/></mask><g mask="url(#H)"><path d="M1139.1 526.77h19.7v-23.45h-19.7v23.45z" clip-rule="evenodd" fill="#5D341D" fill-rule="evenodd"/></g><mask id="I" x="1104" y="485" width="56" height="34" mask-type="alpha" maskUnits="userSpaceOnUse"><path d="M1122.9 485.54a16.67 16.67 0 0 0-16.53 14.54l-1.7 13.26a4.16 4.16 0 0 0 4.13 4.7h46.2a4.16 4.16 0 0 0 4.17-4.17v-28.33h-36.27z" fill="#fff"/></mask><g mask="url(#I)"><path d="M1099.1 523.59h65.65v-43.61h-65.65v43.61z" clip-rule="evenodd" fill="#C17D56" fill-rule="evenodd"/><path d="M1159.2 499.11c-15.28-.65-21.91-9.2-23.84-14.16h-2.73c4.53 13.48 17.99 16.73 26.57 16.73v-2.57z" fill="#5D341D"/><path d="M1113.6 518.27c0-.18-.02-.35-.04-.53l-.85-3.32m9.69 3.85c0-.18-.01-.35-.03-.53l-.85-3.32m8.68 3.85c0-.18-.01-.35-.03-.53l-.86-3.32m8.69 3.85c0-.18-.01-.35-.03-.53l-.86-3.32m8.69 3.85c0-.18-.01-.35-.04-.53l-.85-3.32" stroke="#5D341D" stroke-linecap="round" stroke-width=".83"/></g><mask id="J" x="1135" y="473" width="25" height="25" mask-type="alpha" maskUnits="userSpaceOnUse"><path d="M1140.6 473.31a5 5 0 0 0-5 5v19.03h23.64v-15.7c0-4.6-3.73-8.33-8.33-8.33h-10.31z" fill="#fff"/></mask><g mask="url(#J)"><path d="M1130 502.9h34.75v-35.14H1130v35.14z" clip-rule="evenodd" fill="#C17D56" fill-rule="evenodd"/><path d="M1159.2 499.11c-15.28-.65-21.91-9.2-23.84-14.16h-2.73c4.53 13.48 17.99 16.73 26.57 16.73v-2.57z" fill="#5D341D"/></g><mask id="K" x="1146" y="477" width="3" height="3" mask-type="alpha" maskUnits="userSpaceOnUse"><path d="M1146.9 478.72c0 .53.42.96.94.96s.94-.43.94-.96-.42-.96-.94-.96-.94.43-.94.96z" fill="#fff"/></mask><g mask="url(#K)"><path d="M1141.3 485.23h13V472.2h-13v13.03z" clip-rule="evenodd" fill="#3F2F1E" fill-rule="evenodd"/></g><mask id="L" x="1155" y="477" width="3" height="3" mask-type="alpha" maskUnits="userSpaceOnUse"><path d="M1155.8 478.72c0 .53.42.96.94.96s.94-.43.94-.96-.42-.96-.94-.96-.94.43-.94.96z" fill="#fff"/></mask><g mask="url(#L)"><path d="M1150.2 485.23h13V472.2h-13v13.03z" clip-rule="evenodd" fill="#3F2F1E" fill-rule="evenodd"/></g><mask id="M" x="1142" y="479" width="23" height="15" mask-type="alpha" maskUnits="userSpaceOnUse"><path d="M1149.1 479.98a6.67 6.67 0 0 0-6.67 6.67v6.67h22.23v-6.67a6.67 6.67 0 0 0-6.67-6.67h-8.89z" fill="#fff"/></mask><g mask="url(#M)"><path d="M1136.9 498.87h33.33v-24.44h-33.33v24.44z" clip-rule="evenodd" fill="#FFF8F0" fill-rule="evenodd"/></g><mask id="N" x="1152" y="479" width="8" height="5" mask-type="alpha" maskUnits="userSpaceOnUse"><path d="m1152.4 479.98 2.45 3.26a1.12 1.12 0 0 0 1.78 0l2.38-3.18a6.57 6.57 0 0 0-1.05-.08h-5.56z" fill="#fff"/></mask><g mask="url(#N)"><path d="M1146.9 489.24h17.78v-14.81h-17.78v14.81z" clip-rule="evenodd" fill="#3F2F1E" fill-rule="evenodd"/></g><mask id="O" x="1142" y="491" width="5" height="6" mask-type="alpha" maskUnits="userSpaceOnUse"><path d="M1142.4 491.09v5.55h2.23c1.22 0 2.22-.99 2.22-2.22v-3.33h-4.45z" fill="#fff"/></mask><g mask="url(#O)"><path d="M1136.9 502.2h15.55v-16.67h-15.55v16.67z" clip-rule="evenodd" fill="#F3E8DA" fill-rule="evenodd"/></g><mask id="P" x="1146" y="491" width="6" height="6" mask-type="alpha" maskUnits="userSpaceOnUse"><path d="M1146.9 491.09v5.55h2.22c1.23 0 2.22-.99 2.22-2.22v-3.33h-4.44z" fill="#fff"/></mask><g mask="url(#P)"><path d="M1141.3 502.2h15.56v-16.67h-15.56v16.67z" clip-rule="evenodd" fill="#F3E8DA" fill-rule="evenodd"/></g><mask id="Q" x="1151" y="491" width="5" height="6" mask-type="alpha" maskUnits="userSpaceOnUse"><path d="M1151.3 491.09v5.55h2.22c1.23 0 2.23-.99 2.23-2.22v-3.33h-4.45z" fill="#fff"/></mask><g mask="url(#Q)"><path d="M1145.8 502.2h15.55v-16.67h-15.55v16.67z" clip-rule="evenodd" fill="#F3E8DA" fill-rule="evenodd"/></g><mask id="R" x="1155" y="491" width="6" height="6" mask-type="alpha" maskUnits="userSpaceOnUse"><path d="M1155.8 491.09v5.55h2.22c1.23 0 2.22-.99 2.22-2.22v-3.33h-4.44z" fill="#fff"/></mask><g mask="url(#R)"><path d="M1150.2 502.2h15.56v-16.67h-15.56v16.67z" clip-rule="evenodd" fill="#F3E8DA" fill-rule="evenodd"/></g><mask id="S" x="1160" y="491" width="5" height="6" mask-type="alpha" maskUnits="userSpaceOnUse"><path d="M1160.2 491.09v5.55h2.22c1.23 0 2.23-.99 2.23-2.22v-3.33h-4.45z" fill="#fff"/></mask><g mask="url(#S)"><path d="M1154.7 502.2h15.55v-16.67h-15.55v16.67z" clip-rule="evenodd" fill="#F3E8DA" fill-rule="evenodd"/></g><mask id="T" x="1135" y="469" width="9" height="12" mask-type="alpha" maskUnits="userSpaceOnUse"><path d="M1135.6 471.03v9.28h7.92l-5.85-9.85a1.11 1.11 0 0 0-2.07.57z" fill="#fff"/></mask><g mask="url(#T)"><path d="M1130.1 485.87h19.02v-21.5h-19.02v21.5z" clip-rule="evenodd" fill="#5D341D" fill-rule="evenodd"/></g><path d="M1212.4 450.58s-1.54 18.92-1.54 20.57c0 1.64 6.53 2.1 6.53 2.1l2-19.41-6.99-3.26z" fill="#385187"/><path d="M1222.1 445.98s-4.23-2.27-7.72-.19c-3.5 2.08-4.45 14.29-4.45 14.29l11.19 1.34.98-15.44z" fill="#385187"/><path d="M1248 508.26s-2.14 8.73-3.73 10.1c-1.6 1.37-6.8 4-5.44 4.27 1.36.28 11.43.52 11.16-1.16a32.11 32.11 0 0 0-.57-2.76l2.67-6.24-4.09-4.21z" fill="#AD4E39"/><path d="M1238.1 522.99c2.45.24 9.63.5 11.72.24 0 0 .39-.08.11-1.76-.06-.42-.13-.79-.2-1.12-1.89.5-6.02-.56-7.66-.78-1.77.85-3.78 2.12-4.42 2.23-.93.15-.93 1.05.45 1.19z" fill="#0E1B3E"/><path d="M1271.5 515.58s.23 2.2.23 3.18-.91 3.72-.49 4.13c.42.42 12.42.37 12.42-.02 0-.4-2.12-1.6-5-2.41-2.88-.83-3.86-4.02-3.11-5.85l-4.05.97z" fill="#AD4E39"/><path d="M1283.8 522.9c0-.37-1.97-1.5-4.52-2.28-2.72.92-6.49.16-7.9-.1-.44 1.12-.57 2.2-.35 2.42.42.42 12.77.35 12.77-.04z" fill="#0E1B3E"/><path d="m1258.4 478.67-2.15 1.9s-2.43 6.57-2.57 7l-8.04 25.9 5.47 1.97s5.42-10.56 6.32-14.23c.89-3.66 9.88-19 9.88-19l-8.91-3.54zm9.6 3.89 2.61 33.52h6.06s2.17-25.09 1.43-33.89l-10.1.37z" fill="#C9E0FB"/><path d="M1235.5 459.21s1.84 9 3.46 10.63c.92.92 3.43 4.64 5.36 4.64 1.53 0 2.45.11 2.7.11.6 0-.07 3.67-.63 4.23 0 0-.19.56-1.31.56s-7.07-4.08-8.87-5.87-5.13-11.6-5.13-11.6l4.42-2.7z" fill="#F7A491"/><path d="M1265 447.9s-2.32 2.7-5.39 7.26c-3.07 4.57-10.91 17.25-11.76 18.09-.26.22-.54.42-.84.61 0 0-1.1-.24-1.69-.02s-1.36 1.34-1.08 1.61c.27.28 1.33-.64 1.65-.63.32 0 .35 0 .35.18s-1.31.9-1.68 1-1.36 1.62-1.17 2.12c.19.5.17.68.65.68.47 0 .55.37.95.37.39 0 .5-.5.94-.3.45.2.58.15 1.98-.7 1.39-.85 4-4 5.31-5.31s13.27-14.35 13.27-14.35L1265 447.9z" fill="#AD4E39"/><path d="M1270.1 427.83s-2.85-1.04-4.7 1.86-.85 2.62-1.75 4.07c-.89 1.45-3.24 1.14-3.24 3.39s1.05 2.6 1.05 2.6-.95 1.74.1 3.54 3.66 3.34 5.85 3.1c0 0 3.28 1.8 6.57.94 3.3-.85 2.15-.85 3.5-.85s4.99-1.85 4.39-4.54c0 0 2.22-2.64.07-4.8-2.16-2.15-2.57-4.33-3.81-7.23-1.25-2.9-6.53-2.78-8.03-2.08z" fill="#000"/><path d="M1229.5 446.89c.42.15 2.16 1.38 3.17 3.33s3.68 10.08 3.68 10.08l-4.4 1.6-2.45-15.01z" fill="#537FF5"/><path d="M1207.4 513.96s-.72 2.57-1.3 3.14c-.57.58-2.48 2.8-2 3.9.47 1.11 12.06 2.7 12.5 2.26.44-.44-2-2.3-3.39-3.45s-2.38-2.54-1.8-4.25.58-1.53.58-1.7c0-.17-4.59.1-4.59.1z" fill="#F7A491"/><path d="M1216.6 523.25c.52-.4-1.11-2.15-3.47-3.5-.99 0-2.31-.08-3.42-.36-1.75-.43-3.09-1.95-3.48-2.44-.04.05-2.85 2.76-2.3 4.05.46 1.1 11.62 3.03 12.67 2.25z" fill="#0E1B3E"/><path d="M1226.6 515.2s.21 2.64-.22 3.33c-.44.68-1.96 3.4-1.11 4.25.77.76 11.39.27 11.72-.26.34-.52-1.49-2.09-3.09-2.9s-2.87-1.97-2.68-3.76c.2-1.78.23-1.62.2-1.79-.04-.16-4.82 1.13-4.82 1.13z" fill="#F7A491"/><path d="M1238.3 522.95c.56-.35-1.89-2.57-4.49-3.38-.96.22-2.26.44-3.41.42-1.8-.05-3.45-1.23-3.94-1.62-.02.05-2.44 3.56-1.36 4.45.85.7 12.36.66 13.2.13z" fill="#0E1B3E"/><path d="m1227.4 477.82-6.85 19.87-7.87 18.39-6.59-1.65s2.38-12.75 4.61-16.76c1.69-3.03 2.87-20.42 2.87-20.42l13.83.57z" fill="#5A607C"/><path d="m1224.1 481.17 2.38 34.92h5.61s2.45-36.59 1.55-40.07c-.89-3.48-10.24-2.7-10.24-2.7l.7 7.85z" fill="#5A607C"/><path d="M1229.5 446.89s-7.24-2.17-8.35-2.03c-1.22.15-4.18 1.72-4.18 1.72s.18 12.57-.35 16.12c-.52 3.56-4.19 14.93-4.19 14.93s5.17 3 13.85 2.02 8.08-3.07 8.08-3.07-.82-12.58-1.64-18.12a61.1 61.1 0 0 0-3.22-11.57z" fill="#537FF5"/><path d="M1278.6 448.8a46.97 46.97 0 0 0-8.24-1.25c-2.27-.13-5.31.35-5.31.35s-2.77 6.21-3.6 11.3c-.82 5.1-5.31 21.41-5.31 21.41s9.13 7.04 22.45 2.4l.01-34.21z" fill="#F88A24"/><path d="M1268.2 443.24s.12 3.98-.26 4.35c-.37.37-.89.99-.34 1.94s2.93.34 4.04-.2a5.14 5.14 0 0 0 1.75-1.5l-.55-6.29-4.64 1.7z" fill="#AD4E39"/><path d="M1269.8 444.88c.76-.27 2.1-.78 3.13-2.46l-.07-.88-4.64 1.7s.02.96.01 1.99a5.26 5.26 0 0 0 1.57-.35z" fill="#B75742"/><path d="M1205.5 429.26s-.38 1.77 1.46 2.38c1.84.62 2.99-5.86 4.03-7.14 1.05-1.28 4.23-1.63 5.89.93.9 1.4 1.19 2.02 1.26 2.29.06.21-.02.2-.02.2l-.5.93s-1.6-.96-2.21.8c-.6 1.77 1.18 4.68-.35 7.1-1.52 2.4-4.32.7-4.32.7-2.32 1.56-4.99-.83-5.85-3.08-.86-2.25.61-5.11.61-5.11z" fill="#D34721"/><path d="m1223.7 438.24-.25 2.6-2.33 4.02s4.6 5.56 6.02 4.23c.31-.3 1.11-6.18 1.11-6.18l-4.55-4.67z" fill="#F7A491"/><path d="m1223.4 440.85-.49.89a17.15 17.15 0 0 0 5.01 3.11c.17-1.08.28-1.94.28-1.94l-4.55-4.67-.25 2.61z" fill="#F48C7F"/><path d="M1228.4 429.68s1.21 1.1 1.66 1.72c2.66 3.7.5 11.01-.88 11.62-2.1.92-4.84-.32-7.92-2.4s-4.06-5.48-1.23-8.42 8.37-2.52 8.37-2.52z" fill="#F7A491"/><path d="m1218.2 429.03.84-.8c3.29 0 5.93-1.99 9.61 0 2.44 1.32 1.44 3.17 1.44 3.17-9.03 0-5.77 7.12-6.88 9.95-1.11 2.84-8.01-3.29-5.01-12.32z" fill="#D34721"/><path d="M1224.5 437.04s-.13-2.34-1.56-1.87c-1.43.46-.32 3.98.87 3.85 1.19-.12.69-1.98.69-1.98z" fill="#F7A491"/><path d="M1273.7 437.05s.11-2.34 1.55-1.88c1.43.46.34 3.98-.85 3.86s-.7-1.98-.7-1.98z" fill="#AD4E39"/><path d="M1218 427.27s1.36.84 1.9.77c.55-.07-.84 1.71-1.57 1.9-.74.18-.48-.53-.63-.77-.16-.24-.73-.05-.86-.23-.31-.41.51-1.6 1.16-1.67z" fill="#50BFA5"/><path d="M1243.4 478.67s1.26-1.95 1.67-2.04-.09 1.33-.09 1.6.75-2.01 1.16-2.01.47.3.3.88-.56 1.33-.38 1.33c.19 0 .72-2.52 1.03-2.2s.19 2.36-.39 2.94-2.3.22-3.3-.5z" fill="#F7A491"/><path d="M1265.7 463.59c.51.27 1.15-.07 1.41-.57.36-.68.14-1.38-.37-1.62-.54-.25-1.15 0-1.48.64-.3.6-.09 1.33.44 1.55zm-3.5-4.3c.21-.21.82-1.1 1.86-.74.91.3 1.26 1.23 1.52 1.65-.08-.42-.25-1.15-.05-1.98.53-2.2 3.23-2 3.18.04-.02.8-.3 1.3-.71 2.15.16-.18.66-.78 1.34-1.13 1.99-1.03 3.06 1.47 1.66 2.8-.73.69-1.66.7-2.22.77.49.14.78.18 1.26.48a1.86 1.86 0 0 1-2.84 1.74l-.02-.01c.09.58.25 1.29.01 2.1-.64 2.23-3.6 1.84-3.09-.68.16-.79.69-1.62.72-1.68-.36.38-.89 1-1.65 1.3-1.95.77-2.89-2-1.08-3.16.8-.53 1.6-.45 1.89-.53-.67-.16-1.3-.35-1.76-.9-.62-.76-.29-1.51-.3-1.62l.28-.6z" fill="#F7CC7F"/><path d="M1269.1 429.42s-2.24-.05-3.39 1.7-2.39 6.73-.49 10.18 4.31 2.6 5.31 2.24 2.97-1.12 3.97-4.34.27-10.45-5.4-9.78z" fill="#AD4E39"/><path d="M1218.1 446s1.62-.25 3.03 5.04c1.58 5.98-.12 12.18-2.74 13.75s-3.7 1.27-3.7 1.27l.41 3.7s7.74-1.74 8.79-8.35c1.73-10.83-3.36-16.41-3.36-16.41s-.97.15-1.26.27a9.5 9.5 0 0 0-1.17.73z" fill="#385187"/><path d="M1214.1 458.51v7.74c0 1.34 1.54 10.47 3.44 13.59s4.47 6.61 5 6.8 1.69.94 2.29.34c.6-.6 1.07-.32 1.82-.65.75-.32-.1-1.4-1.15-2.44-1.05-1.05-1.27-1.3-1.1-1.48s1.02.8 1.47.65-.27-1.72-1.45-2.27c-1.17-.55-3.04-1.62-3.21-2.2s-.17-.42-.17-.57-1.33-9.2-1.33-10.98c0-1.77-.52-7.53-.52-7.53l-5.09-1z" fill="#F7A491"/><path d="M1217.6 446.27c-.68.09-2.53.76-3.17 2.96s-2.36 8.43-2.06 11.47c0 0 7.29.95 7.29.65 0-.3 1.58-8.1.78-11.52-.68-2.99-1.66-3.7-2.84-3.56z" fill="#537FF5"/><path d="m1228.3 446.56 5.06 18.2c-.22-2.38-.47-4.65-.71-6.3-.83-5.53-3.22-11.57-3.22-11.57l-1.13-.33z" fill="#385187"/><path d="M1257.9 483.25h14.02v-19.24l-14.02.75v18.49z" fill="#3C8F7C"/><path d="M1257.9 463.25h13.4c.34 0 .62.34.62.75s-.28.75-.62.75h-13.4.01c.93-.42.93-1.08-.01-1.5z" fill="#3C8F7C"/><path d="M1258.2 463.47h12.55c.24 0 .43.23.43.53s-.19.53-.43.53h-12.55c.42-.33.42-.73 0-1.06z" fill="#FAE0B2"/><path d="M1278.6 448.8s-1.05 1.05-2.18 5.04c-1.12 3.99-1.69 13.32-2.66 14.3-.98.97-7.34 6.04-8.48 5.86-1.15-.17-3.72-3.17-4.52-3.17s-.7.73-.3 1.13.89.86.65 1.1l-.24.23s-3.56-.94-4.16-.59.58 1.18.58 1.78c0 .6-.15.58-.08 1.24.07.66.24 1.19.55 1.5.32.31 4.25 1.45 8.09.92s8.54-2.37 12-6.66c3.46-4.3 2.78-17.78 2.7-19.13-.21-3.4-1.95-3.55-1.95-3.55z" fill="#AD4E39"/><path d="M213.05 433.18h-47.49l14.97 27.9H228l-14.96-27.9z" stroke="#fff" stroke-linecap="round" stroke-linejoin="round" stroke-width="1.8"/><mask id="U" x="146" y="431" width="68" height="32" mask-type="alpha" maskUnits="userSpaceOnUse"><path d="M162.44 431.98h51.3l-16.16 30.15h-51.3l16.16-30.15z" fill="#E2F0FC"/></mask><g mask="url(#U)" stroke="#fff"><path d="m147.52 461.38 15.36-28.65h49.6l-15.36 28.65h-49.6z" fill="#4E8AFF" stroke-width="1.5"/><path d="m204.2 429.32-20.74 36.6m-27.47-23.59h56.9m-62.97 10.7h56.9m-16.76-23.71-20.74 36.6m6.59-36.6-20.74 36.6" opacity=".5"/></g><path d="M273.79 433.18H226.3l14.97 27.9h47.48l-14.96-27.9z" stroke="#fff" stroke-linecap="round" stroke-linejoin="round" stroke-width="1.8"/><mask id="V" x="206" y="431" width="69" height="32" mask-type="alpha" maskUnits="userSpaceOnUse"><path d="M223.06 431.98h51.3l-16.16 30.15h-51.3l16.16-30.15z" fill="#E2F0FC"/></mask><g mask="url(#V)" stroke="#fff"><path d="m208.15 461.38 15.36-28.65h49.6l-15.36 28.65h-49.6z" fill="#4E8AFF" stroke-width="1.5"/><path d="m264.83 429.32-20.74 36.6m-27.48-23.59h56.9m-62.96 10.7h56.9m-16.77-23.71-20.74 36.6m6.59-36.6-20.74 36.6" opacity=".5"/></g><path d="M334.37 433.18h-47.49l14.97 27.9h47.49l-14.97-27.9z" stroke="#fff" stroke-linecap="round" stroke-linejoin="round" stroke-width="1.8"/><mask id="W" x="267" y="431" width="68" height="32" mask-type="alpha" maskUnits="userSpaceOnUse"><path d="M283.69 431.98h51.3l-16.16 30.15h-51.3l16.16-30.15z" fill="#E2F0FC"/></mask><g mask="url(#W)" stroke="#fff"><path d="m268.78 461.38 15.36-28.65h49.6l-15.36 28.65h-49.6z" fill="#4E8AFF" stroke-width="1.5"/><path d="m325.45 429.32-20.74 36.6m-27.47-23.59h56.9m-62.96 10.7h56.9m-16.77-23.71-20.74 36.6m6.59-36.6-20.74 36.6" opacity=".5"/></g><path d="M180.88 461.48h-47.49l14.97 27.9h47.48l-14.96-27.9z" stroke="#fff" stroke-linecap="round" stroke-linejoin="round" stroke-width="1.8"/><mask id="X" x="113" y="460" width="69" height="31" mask-type="alpha" maskUnits="userSpaceOnUse"><path d="M130.1 460.28h51.3l-16.16 30.15h-51.3l16.16-30.15z" fill="#E2F0FC"/></mask><g mask="url(#X)" stroke="#fff"><path d="m115.19 489.68 15.36-28.65h49.6l-15.36 28.65h-49.6z" fill="#4E8AFF" stroke-width="1.5"/><path d="m171.87 457.61-20.74 36.6m-27.48-23.59h56.9m-62.96 10.7h56.9m-16.77-23.71-20.74 36.6m6.6-36.6-20.74 36.6" opacity=".5"/></g><path d="M241.64 461.47h-47.49l14.96 27.9h47.5l-14.97-27.9z" stroke="#fff" stroke-linecap="round" stroke-linejoin="round" stroke-width="1.8"/><mask id="Y" x="174" y="460" width="69" height="31" mask-type="alpha" maskUnits="userSpaceOnUse"><path d="M190.73 460.28h51.3l-16.16 30.15h-51.3l16.16-30.15z" fill="#E2F0FC"/></mask><g mask="url(#Y)" stroke="#fff"><path d="m175.82 489.68 15.36-28.65h49.6l-15.36 28.65h-49.6z" fill="#4E8AFF" stroke-width="1.5"/><path d="m232.49 457.61-20.74 36.6m-27.47-23.59h56.9m-62.96 10.7h56.9m-16.77-23.71-20.74 36.6m6.59-36.6-20.74 36.6" opacity=".5"/></g><path d="M302.27 461.09h-47.49l14.96 28.3h47.5l-14.97-28.3z" stroke="#fff" stroke-linecap="round" stroke-linejoin="round" stroke-width="1.8"/><mask id="Z" x="235" y="460" width="68" height="31" mask-type="alpha" maskUnits="userSpaceOnUse"><path d="M251.36 460.28h51.3l-16.16 30.15h-51.3l16.16-30.15z" fill="#E2F0FC"/></mask><g mask="url(#Z)" stroke="#fff"><path d="m236.44 489.68 15.36-28.65h49.6l-15.36 28.65h-49.6z" fill="#4E8AFF" stroke-width="1.5"/><path d="m293.12 457.61-20.74 36.6m-27.48-23.59h56.9m-62.96 10.7h56.9m-16.77-23.71-20.74 36.6m6.6-36.6-20.74 36.6" opacity=".5"/></g><path d="M-9.94 433.18h-47.5l14.97 27.9H5.02l-14.96-27.9z" stroke="#fff" stroke-linecap="round" stroke-linejoin="round" stroke-width="1.62"/><path d="M50.68 433.18H3.2l14.97 27.9h47.49l-14.97-27.9z" stroke="#fff" stroke-linecap="round" stroke-linejoin="round" stroke-width="1.8"/><mask id="aa" x="-16" y="431" width="69" height="32" mask-type="alpha" maskUnits="userSpaceOnUse"><path d="M.88 431.98h51.3l-16.16 30.15H-15.3L.88 431.98z" fill="#E2F0FC"/></mask><g mask="url(#aa)" stroke="#fff"><path d="m-14.04 461.38 15.37-28.65h49.6l-15.36 28.65h-49.6z" fill="#4E8AFF" stroke-width="1.5"/><path d="m42.64 429.32-20.74 36.6m-27.48-23.59h56.9m-62.96 10.7h56.9M28.5 429.32l-20.75 36.6m6.6-36.6-20.74 36.6" opacity=".5"/></g><path d="M111.31 433.18H63.82l14.97 27.9h47.48l-14.96-27.9z" stroke="#fff" stroke-linecap="round" stroke-linejoin="round" stroke-width="1.8"/><mask id="ab" x="45" y="431" width="68" height="32" mask-type="alpha" maskUnits="userSpaceOnUse"><path d="M61.5 431.98h51.3l-16.16 30.15h-51.3l16.16-30.15z" fill="#E2F0FC"/></mask><g mask="url(#ab)" stroke="#fff"><path d="m46.59 461.38 15.36-28.65h49.6L96.2 461.38H46.6z" fill="#4E8AFF" stroke-width="1.5"/><path d="m103.26 429.32-20.74 36.6m-27.47-23.59h56.9m-62.96 10.7h56.9m-16.77-23.71-20.74 36.6m6.59-36.6-20.74 36.6" opacity=".5"/></g><path d="M18.35 461.47h-47.5l14.97 27.9h47.5l-14.97-27.9z" stroke="#fff" stroke-linecap="round" stroke-linejoin="round" stroke-width="1.8"/><mask id="ac" x="-48" y="460" width="68" height="31" mask-type="alpha" maskUnits="userSpaceOnUse"><path d="M-31.46 460.28h51.3L3.69 490.43h-51.3l16.16-30.15z" fill="#E2F0FC"/></mask><g mask="url(#ac)" stroke="#fff"><path d="m-46.37 489.68 15.36-28.65h49.6L3.24 489.68h-49.6z" fill="#4E8AFF" stroke-width="1.5"/><path d="m10.3 457.61-20.73 36.6m-27.47-23.59h56.89m-62.96 10.7h56.9" opacity=".5"/></g><path d="M78.97 461.47H31.48l14.97 27.9h47.49l-14.97-27.9z" stroke="#fff" stroke-linecap="round" stroke-linejoin="round" stroke-width="1.8"/><mask id="ad" x="13" y="460" width="68" height="31" mask-type="alpha" maskUnits="userSpaceOnUse"><path d="M29.17 460.28h51.3l-16.16 30.15H13l16.16-30.15z" fill="#E2F0FC"/></mask><g mask="url(#ad)" stroke="#fff"><path d="m14.25 489.68 15.37-28.65h49.6l-15.36 28.65h-49.6z" fill="#4E8AFF" stroke-width="1.5"/><path d="m70.93 457.61-20.74 36.6m-27.47-23.59h56.9m-62.97 10.7h56.9m-16.77-23.71-20.73 36.6m6.59-36.6-20.74 36.6" opacity=".5"/></g><path d="M0 560h1440v100H0V560z" fill="#CDE0B3"/><path fill="#67912F" d="M0 560h1440v15H0z"/><path d="M1223.4 635.12c15.63-.84 20.56 14.1 20.56 24.88h-92.04c.99-5.47 7.47-12.44 14.43-12.44 5.57 0 9.97 1.3 12.68 4.48 1.41-3.73 6.12-11.5 13.68-12.69 7.57-1.2 13.1 4.98 14.93 8.21.74-1.99 4.62-11.84 15.76-12.44z" fill="#457828"/><path d="M1236.3 640.74c-11.09 1.28-16.35 12.62-18.42 19.26h92.04c-1-5.48-7.47-12.44-14.44-12.44-5.57 0-9.96 1.3-12.68 4.48-1.41-3.74-6.12-11.5-13.68-12.69-7.56-1.2-13.1 4.97-14.92 8.2 0 0-5.83-8.2-17.9-6.81z" fill="#55992E"/><mask id="ae" x="85" y="461" width="81" height="200" mask-type="alpha" maskUnits="userSpaceOnUse"><path d="m125.63 461.31 20.52 101.45-12.22-4.31 13.36 9.93 9.25 45.7-20.84-6.27 22.05 12.25 8.08 39.94h-80.4l14.7-72.64 14.35-13.56-12.96 6.66 11.05-54.62 7.47-6.67-6.84 3.58 12.43-61.44z" fill="#3B6221"/></mask><g mask="url(#ae)"><path d="m125.63 461.31 20.52 101.45-12.22-4.31 13.36 9.93 9.25 45.7-20.84-6.27 22.05 12.25 8.08 39.94h-80.4l14.7-72.64 14.35-13.56-12.96 6.66 11.05-54.62 7.47-6.67-6.84 3.58 12.43-61.44z" fill="#3B6221"/><path d="M125.77 664.33V459.48l48.97 204.85h-48.97z" fill="#48752B"/></g><mask id="af" x="-22" y="347" width="128" height="313" mask-type="alpha" maskUnits="userSpaceOnUse"><path d="m42.17 347.31 32.3 159.65-19.23-6.79 21.02 15.63 14.55 71.94-32.8-9.88 34.7 19.28L105.45 660H-21.1L2.04 545.67l22.59-21.34-20.4 10.48 17.4-85.95 11.73-10.5L22.61 444l19.56-96.7z" fill="#3B6221"/></mask><g mask="url(#af)"><path d="m42.17 347.31 32.3 159.65-19.23-6.79 21.02 15.63 14.55 71.94-32.8-9.88 34.7 19.28L105.45 660H-21.1L2.04 545.67l22.59-21.34-20.4 10.48 17.4-85.95 11.73-10.5L22.61 444l19.56-96.7z" fill="#395F1C"/><path d="M42.4 666.81V344.42l77.06 322.39H42.4z" fill="#48752B"/></g><path d="M271.43 576.08c0-9.1 7.33-16.48 16.37-16.48h.78c8.6 0 15.59 7.03 15.59 15.7v17.26" stroke="#4D5C67" stroke-linecap="round" stroke-width="6.97"/><path d="M239.69 615.28h31.28c1.12 0 2.03.9 2.03 2.03v.13c0 1.12-.9 2.03-2.03 2.03H239.7a2.03 2.03 0 0 1-2.03-2.03v-.13c0-1.12.91-2.03 2.03-2.03zm54.09-15.92h4.89v20.58a2.44 2.44 0 1 1-4.89 0v-20.58z" fill="#98A5AF"/><path d="M244.88 618.03h31.28c1.12 0 2.03.9 2.03 2.03v.13c0 1.12-.9 2.03-2.03 2.03h-31.28a2.03 2.03 0 0 1-2.03-2.03v-.13c0-1.12.91-2.03 2.03-2.03z" fill="#707C87"/><mask id="ag" x="256" y="580" width="51" height="43" mask-type="alpha" maskUnits="userSpaceOnUse"><path d="m256.23 619.71 26.74-32.1a19.01 19.01 0 0 1 14.6-6.85 8.9 8.9 0 0 1 8.92 8.9v17.8l-26.02 13.6a10.14 10.14 0 0 1-4.7 1.15h-19.54v-2.5z" fill="#fff"/></mask><g mask="url(#ag)"><path d="m256.23 619.71 26.74-32.1a19.01 19.01 0 0 1 14.6-6.85 8.9 8.9 0 0 1 8.92 8.9v17.8l-26.02 13.6a10.14 10.14 0 0 1-4.7 1.15h-19.54v-2.5z" fill="#6F7B86"/><path d="M283.8 583.82c-.34 8.37 1.4 12.55 5.24 12.55 5.75 0 5.75-8.8 8.5-8.8s2.42 8.45 9.65 4.23c4.82-2.82 4.82-8.27 0-16.37l-12.63-1.64-10.76 10.03z" fill="#4D5C67"/></g><mask id="ah" x="251" y="597" width="25" height="22" mask-type="alpha" maskUnits="userSpaceOnUse"><path d="M263.76 618.73c6 0 11.99-3.64 11.99-9.56s-6-11.9-11.99-11.9-12.4 5.98-12.4 11.9 6.4 9.56 12.4 9.56z" fill="#fff"/></mask><g mask="url(#ah)"><path d="M263.76 618.73c6 0 11.99-3.64 11.99-9.56s-6-11.9-11.99-11.9-12.4 5.98-12.4 11.9 6.4 9.56 12.4 9.56z" fill="#4D5C67"/><path d="M260.22 597.5c2.5 2.93 3.07 5.55 1.7 7.86-1.38 2.32-5.21 3.34-11.51 3.05l6.12-12.51 3.69 1.6z" fill="#6F7B86"/></g><path d="M257.4 610.88c0 .87.81 1.57 1.82 1.57 1 0 1.82-.7 1.82-1.57m6.75 0c0 .87.81 1.57 1.82 1.57 1 0 1.82-.7 1.82-1.57" stroke="#1C1C1C" stroke-linecap="round" stroke-width="1.34"/><path d="m269.04 599.29 4.89-2.67a2.03 2.03 0 0 1 2.97 2.11l-1.38 8.48-6.48-7.92z" fill="#4D5C67"/><path d="m271.64 600.12 2.72-1.5a.5.5 0 0 1 .73.6l-1.2 3.79a7.16 7.16 0 0 0-2.24-2.89z" fill="#D78DCB"/><path d="m258.57 599.29-4.85-2.65a2.03 2.03 0 0 0-2.75.81c-.22.4-.3.87-.22 1.32l1.24 7.21 6.58-6.69z" fill="#6F7B86"/><path d="m255.97 600.12-2.72-1.5a.5.5 0 0 0-.73.6l1.2 3.79a7.16 7.16 0 0 1 2.24-2.89z" fill="#D78DCB"/><path d="M264.79 614.17c.47 0 1.14-.45 1.14-1s-.5-.74-1.14-.74c-.63 0-1.14.18-1.14.73s.67 1.01 1.14 1.01z" clip-rule="evenodd" fill="#1C1C1C" fill-rule="evenodd"/><path d="m264.73 615.8.5-.52.54.52" stroke="#020204" stroke-linecap="round" stroke-linejoin="round" stroke-width=".77"/><path d="M301.57 599.36h4.89v20.58a2.44 2.44 0 1 1-4.89 0v-20.58z" fill="#6F7B86"/><path d="m700.03 583.9-2.57 11.57-7.72-.71 1.75-12.23 8.54 1.37z" clip-rule="evenodd" fill="#913F26" fill-rule="evenodd"/><path d="m697.95 505.39-7.56 78.86 11.32 1.24 20.74-71.15-24.5-8.95z" clip-rule="evenodd" fill="#ABBCE9" fill-rule="evenodd"/><path d="m702.57 584.2-12.17-5.19-.33 3.29 12.5 1.9z" clip-rule="evenodd" fill="#002571" fill-rule="evenodd" opacity=".2"/><path d="m703.09 584.26-1.1 3.93-12.57-2.1.34-4.35 13.33 2.52z" clip-rule="evenodd" fill="#FEFEFF" fill-rule="evenodd"/><path d="m697.85 593.87 12.25 13.85c.68.77-.1 1.94-1.07 1.61l-20.6-6.92a2 2 0 0 1-1.24-2.56l2.01-5.67a2 2 0 0 1 2.2-1.3l6.45.99z" clip-rule="evenodd" fill="#0E1B3E" fill-rule="evenodd"/><circle transform="matrix(-1 0 0 1 721 598.21)" stroke="#fff" stroke-linejoin="round" stroke-width="2" r="9.47"/><path d="M787.81 629.48v-74.4m-37.2 37.2h74.4m-63.5-26.3 52.6 52.6m0-52.6-52.6 52.6" stroke="#fff" stroke-linecap="round" stroke-linejoin="round" stroke-width="2"/><circle transform="matrix(-1 0 0 1 788.06 592.63)" stroke="#2B4171" stroke-width="3" r="37.37"/><path d="M671.93 629.48v-74.4m-37.2 37.2h74.4m-63.5-26.3 52.6 52.6m0-52.6-52.6 52.6" stroke="#fff" stroke-linecap="round" stroke-linejoin="round" stroke-width="2"/><circle transform="matrix(-1 0 0 1 671.94 592.62)" stroke="#2B4171" stroke-width="3" r="37.37"/><path d="m788.06 592.38-24.12-62.79 14.22-4.09a8.12 8.12 0 0 1 9.98 5.35v0a8.12 8.12 0 0 1-5.1 10.13l-4.56 1.57" stroke="#2B4171" stroke-linecap="round" stroke-linejoin="round" stroke-width="3"/><path d="m768.36 541.51-61.16 4.5-35.24 46.62 49.34 5.58 47.06-56.7z" clip-rule="evenodd" stroke="#2B4171" stroke-linecap="round" stroke-linejoin="round" stroke-width="3"/><path d="m721 597.86-16.87-62.8" stroke="#2B4171" stroke-linecap="round" stroke-linejoin="round" stroke-width="3"/><path d="M713.22 536.28c-3.5-.44-10.87 2.02-13.9 2.02s-11.98-3.48-9.47-7.38c2.5-3.9 27.63-.03 29.4 2.66 1.76 2.68-2.53 3.14-6.03 2.7z" clip-rule="evenodd" fill="#2D2E49" fill-rule="evenodd"/><path d="m745.32 488.48 5.8 25.66 17.24 7.57-.45 8.9-29.24-8.16-7.42-28.65 14.07-5.32z" clip-rule="evenodd" fill="#444964" fill-rule="evenodd"/><path d="M764.91 470.18c0 2.82-.27 5.83-.79 8.57l.05.2c.18.72-.05 1.4-.51 1.88-.95 3.69-2.42 6.55-4.4 7.18-1.5.49-4.16-.32-6.93-2.13l-10.02 5.1-3.62-11.58 6.43-.94a19.42 19.42 0 0 1-2.49-6.25c-2.07-10.26 5.84-14.65 13.1-13.84s9.18 6.47 9.18 11.81z" clip-rule="evenodd" fill="#913F26" fill-rule="evenodd"/><mask id="ai" x="738" y="458" width="27" height="33" mask-type="alpha" maskUnits="userSpaceOnUse"><path d="M764.91 470.18c0 2.82-.27 5.83-.79 8.57l.05.2c.18.72-.05 1.4-.51 1.88-.95 3.69-2.42 6.55-4.4 7.18-1.5.49-4.16-.32-6.93-2.13l-10.02 5.1-3.62-11.58 6.43-.94a19.42 19.42 0 0 1-2.49-6.25c-2.07-10.26 5.84-14.65 13.1-13.84s9.18 6.47 9.18 11.81z" clip-rule="evenodd" fill="#fff" fill-rule="evenodd"/></mask><g mask="url(#ai)"><path d="m756.18 476.09.92-7.83-14.94 1.35c-.5 5.33 1.77 8.16 2.97 8.92l4.32 1.08 2.8-2.53c-3.52-2.6-2.17-6.12 0-6.12 1.72 0 2.67 1.72 2.67 5.13h1.26z" fill="#000" opacity=".5"/><path d="M752.48 486s-2.67-2.45-2.9-6.37c0 0-.66 4.63 1.03 7.83l1.87-1.46z" clip-rule="evenodd" fill="#2B1512" fill-rule="evenodd" opacity=".5"/></g><path d="m762.47 469.04 3.83-.4c-.44-4.33-3.72-12.2-13.58-11.5-9.85.69-12.26 8.02-12.26 14.16l20.2-2.07.4-4 1.41 3.81z" clip-rule="evenodd" fill="#000" fill-rule="evenodd"/><path d="M750.98 457.77a4.3 4.3 0 0 0-3.82-1.3m4.53 1.01a4.3 4.3 0 0 1 3.14-2.53" stroke="#000" stroke-linecap="round" stroke-linejoin="round"/><path d="m744.97 571.24-2.7 14.25h-8.77l2.48-14.25h8.99z" clip-rule="evenodd" fill="#913F26" fill-rule="evenodd"/><path d="M698.05 506.82a20.16 20.16 0 0 0 13.86 27.95l26.15 6-3.87 34.05 12.43-.47 6.64-28.72a20 20 0 0 0-12.63-23.3l-42.58-15.51z" clip-rule="evenodd" fill="#ABBCE9" fill-rule="evenodd"/><path d="m747.32 571.61-12.7-2.8-.39 3.53 13.09-.73z" clip-rule="evenodd" fill="#002571" fill-rule="evenodd" opacity=".2"/><path d="m742.9 582.53 14 7.03c.94.48.6 1.9-.45 1.9h-22.63a2 2 0 0 1-1.93-2.5l1.43-5.68a1 1 0 0 1 .97-.75h8.61z" clip-rule="evenodd" fill="#0E1B3E" fill-rule="evenodd"/><path d="m748.57 571.6-1.01 4.42-14.54.37.46-4.79h15.09z" clip-rule="evenodd" fill="#FEFEFF" fill-rule="evenodd"/><path d="M745.3 491.46s.39-12.53-7.67-13.5-29.18 3.47-41.64 28.86l27.72 10.72 21.59-26.08z" clip-rule="evenodd" fill="#5A607C" fill-rule="evenodd"/><path d="m767.71 521.71 9.64 1a5 5 0 0 1 3.1 1.52l1.78 1.87a3 3 0 0 1-1.16 4.9l-.24.08a5 5 0 0 1-4.8-.8l-2.05-1.64-6.91-.6.64-6.33z" clip-rule="evenodd" fill="#913F26" fill-rule="evenodd"/><mask id="aj" x="767" y="521" width="17" height="11" mask-type="alpha" maskUnits="userSpaceOnUse"><path d="m767.71 521.71 9.64 1a5 5 0 0 1 3.1 1.52l1.78 1.87a3 3 0 0 1-1.16 4.9l-.24.08a5 5 0 0 1-4.8-.8l-2.05-1.64-6.91-.6.64-6.33z" clip-rule="evenodd" fill="#fff" fill-rule="evenodd"/></mask><g mask="url(#aj)"><path d="m768.38 521.71 1.85 7.16h-2.85l1-7.16z" clip-rule="evenodd" fill="#2B1512" fill-rule="evenodd" opacity=".5"/></g><path d="M734.76 484.41a8.58 8.58 0 0 1 10.55 8.35v23.88l23.05 5.08v10.3l-31.05-4.76a7.87 7.87 0 0 1-6.64-7.05l-2.48-26.65a8.58 8.58 0 0 1 6.57-9.15z" clip-rule="evenodd" fill="#5A607C" fill-rule="evenodd"/></g><defs><linearGradient id="a" x1="514.06" x2="527.1" y1="311.14" y2="309.91" gradientUnits="userSpaceOnUse"><stop stop-color="#234B52" stop-opacity=".5" offset="0"/><stop stop-color="#20464E" stop-opacity=".51" offset=".02"/><stop stop-color="#183542" stop-opacity=".57" offset=".13"/><stop stop-color="#122A39" stop-opacity=".64" offset=".27"/><stop stop-color="#0E2334" stop-opacity=".73" offset=".46"/><stop stop-color="#0D2133" offset="1"/></linearGradient><linearGradient id="b" x1="469.12" x2="482.52" y1="303.65" y2="302.4" gradientUnits="userSpaceOnUse"><stop stop-color="#234B52" stop-opacity=".5" offset="0"/><stop stop-color="#20464E" stop-opacity=".51" offset=".02"/><stop stop-color="#183542" stop-opacity=".57" offset=".13"/><stop stop-color="#122A39" stop-opacity=".64" offset=".27"/><stop stop-color="#0E2334" stop-opacity=".73" offset=".46"/><stop stop-color="#0D2133" offset="1"/></linearGradient><linearGradient id="c" x1="447.71" x2="458.36" y1="330.47" y2="329.47" gradientUnits="userSpaceOnUse"><stop stop-color="#234B52" stop-opacity=".5" offset="0"/><stop stop-color="#20464E" stop-opacity=".51" offset=".02"/><stop stop-color="#183542" stop-opacity=".57" offset=".13"/><stop stop-color="#122A39" stop-opacity=".64" offset=".27"/><stop stop-color="#0E2334" stop-opacity=".73" offset=".46"/><stop stop-color="#0D2133" offset="1"/></linearGradient><linearGradient id="r" x1="484.81" x2="484.85" y1="477.07" y2="435.86" gradientUnits="userSpaceOnUse"><stop stop-color="#474C69" stop-opacity="0" offset="0"/><stop stop-color="#474C69" offset="1"/></linearGradient><linearGradient id="s" x1="455.23" x2="457.35" y1="470.11" y2="437.55" gradientUnits="userSpaceOnUse"><stop stop-color="#121A30" stop-opacity="0" offset="0"/><stop stop-color="#1A3067" offset="1"/></linearGradient><linearGradient id="u" x1="1075.4" x2="1118.3" y1="425.33" y2="489.74" gradientUnits="userSpaceOnUse"><stop stop-color="#0E2D5A" offset="0"/><stop stop-color="#34497E" offset="1"/></linearGradient><linearGradient id="w" x1="1073.7" x2="1073.7" y1="429.7" y2="519.42" gradientUnits="userSpaceOnUse"><stop stop-color="#000921" offset="0"/><stop stop-color="#000E32" stop-opacity="0" offset="1"/></linearGradient><linearGradient id="x" x1="1057.2" x2="1086.5" y1="387.44" y2="440.3" gradientUnits="userSpaceOnUse"><stop stop-color="#87B448" offset="0"/><stop stop-color="#13AED0" offset="1"/></linearGradient><linearGradient id="z" x1="1062.5" x2="1045.7" y1="443.43" y2="403.05" gradientUnits="userSpaceOnUse"><stop stop-color="#165748" stop-opacity="0" offset="0"/><stop stop-color="#0A4631" offset="1"/></linearGradient><linearGradient id="A" x1="1089.1" x2="1079.2" y1="428.42" y2="401.49" gradientUnits="userSpaceOnUse"><stop stop-color="#165748" stop-opacity="0" offset="0"/><stop stop-color="#0A4631" offset="1"/></linearGradient></defs></svg>