<svg width="337" height="347" fill="none" xmlns="http://www.w3.org/2000/svg"><path d="M220.3 159.06c9.71-11.85 9.97 5.7 9.58 15.58l-37.82-34.01c2.55-14.69 8.79-9.37 11.9 1.07 9.26-13.77 15.33 0 16.34 17.36z" fill="#7BA345"/><mask id="a" mask-type="alpha" maskUnits="userSpaceOnUse" x="34" y="131" width="303" height="216"><path d="M268.63 222.52c-29.94-25.58-42.64-35.44-75.74-63.7-36.32-31-80.68-35.6-122.89-14.36-36.5 18.37-49.56 72-17.24 106.2 35.74 37.83 75.47 46.82 133.13 69.48 71.72 28.2 123.09 37.92 143.69 9.06 25.43-35.64-24.13-75.23-60.95-106.68z" fill="#D9EBFF"/></mask><g mask="url(#a)"><path d="M268.63 222.52c-29.94-25.58-42.64-35.44-75.74-63.7-36.32-31-80.68-35.6-122.89-14.36-36.5 18.37-49.56 72-17.24 106.2 35.74 37.83 75.47 46.82 133.13 69.48 71.72 28.2 123.09 37.92 143.69 9.06 25.43-35.64-24.13-75.23-60.95-106.68z" fill="#D9EBFF"/><path d="M272.82 191.19 32.28 289.16m290.54-87.97L82.28 299.16m267.54-76.97-240.54 97.97m266.54-75.97-240.54 97.97m241.54-65.97-240.54 97.97m114.54-204.97L10.28 267.16m222.54-120.97L-7.72 244.16m230.54-125.97-240.54 97.97M211.82 99.19l-240.54 97.97" stroke="#B2CDED" stroke-width=".7"/><path opacity=".15" d="m237.87 344.22 65.88-29.5-11.54-6.35-75.43 32.13 21.1 3.72z" fill="url(#b)"/><path d="M223.49 278.71c10.47-10.93-47.58-21.79-69.6-5.7-7.81 5.7.53 15.1 21.85 10.42 28.83-6.31 40.64 2.7 47.75-4.72z" fill="#C6DCF5"/><path opacity=".15" d="m63.4 277.4 126.59-52.32-96.56-37.82-83.12 33 53.08 57.15z" fill="url(#c)"/><path d="M244.73 334.31c8.27-14.7 11.9 4.28 13.37 15.06l-47.38-18.27c-.05-16.41 7.92-17.07 13.29-6.33 7.4-16.72 16.3-9.08 20.72 9.54z" fill="#7BA345"/></g><path d="M130.4 249.32c7.69-9.37 6.89 8.52 6.59 16.33l-28.93-22.91c0-14.37 6.95-13.41 9.41-5.15 7.33-10.9 12.13-2 12.93 11.73z" fill="#7BA345"/><path d="M88.27 100.75 85.23 86.9a1 1 0 0 1 .97-1.22h6.5a1 1 0 0 1 .95.69l4.28 12.9-9.66 1.5z" fill="#70810D"/><path d="M91.73 100.75 88.69 86.9a1 1 0 0 1 .97-1.22h6.5a1 1 0 0 1 .95.69l4.28 12.9-9.66 1.5zm22.97-1.93 25.15 87.24a2.72 2.72 0 0 1-1.25 3.02 2.68 2.68 0 0 1-4.03-1.67l-23.02-87.9a1.58 1.58 0 0 1 .55-1.62 1.6 1.6 0 0 1 2.6.93z" fill="#A2A731"/><path d="M166.48 95.24V72.4l-8.24 1.5v22.34l8.24-.99z" fill="#2B4171"/><path d="M284.87 304.97a1.84 1.84 0 0 0 1.83-1.83v-11.15l5.91 4.03a1.84 1.84 0 0 0 2.02-3.04l-8.8-6.05a1.88 1.88 0 0 0-1.89-.12 1.86 1.86 0 0 0-.99 1.63v14.66a1.86 1.86 0 0 0 1.92 1.87z" fill="#6995C8"/><path d="m306.42 295.42-17.46 5.8-.1 12.84c0 .34.04.67.14.99.89 2.74 5.54 3.6 10.34 2.01 4.8-1.59 7.08-4.8 7.08-7.76 0 0-.04-1.9 0-3.08v-10.8z" fill="#46638A"/><path d="M288.96 301.22c.9 2.7 5.53 3.57 10.35 2.02 4.81-1.55 8.06-5.08 7.11-7.78-.95-2.7-5.52-3.57-10.34-2.02-4.82 1.55-8 5.1-7.12 7.78z" fill="#6995C8"/><path d="m303.66 286.77-11.94 4.03v8.85c0 1.63 3.8 2.42 7.08 1.33 3.28-1.09 4.86-3.4 4.86-5.3 0 0-.03-.74 0-1.53v-7.38z" fill="#3C5B8A"/><path d="M291.72 290.8c.63 1.83 3.8 2.42 7.08 1.33 3.28-1.09 5.46-3.47 4.86-5.3-.6-1.83-3.77-2.44-7.08-1.35-3.3 1.09-5.46 3.47-4.86 5.32z" fill="#6995C8"/><path d="m115.8 164.85 9.68 16.13-2.01 10.08a5.49 5.49 0 0 0 1.87 5.3l.69.55a5.41 5.41 0 0 0 6.04.5l10.26-5.87a5.3 5.3 0 0 0 2.42-2.94l3.61-10.62a5.45 5.45 0 0 0-3.6-6.92 5.45 5.45 0 0 0-3.1 0l-8.48 2.58-11.45-13.08a3.69 3.69 0 0 0-6.37 1.69 3.7 3.7 0 0 0 .45 2.6z" fill="#8DB2DD"/><path d="m113.79 164.85 9.67 16.13-2.01 10.08a5.47 5.47 0 0 0 1.87 5.3l.69.55a5.4 5.4 0 0 0 6.05.5l10.26-5.87a5.3 5.3 0 0 0 2.42-2.94l3.6-10.62a5.43 5.43 0 0 0-6.69-6.92l-8.48 2.58-11.45-13.08a3.68 3.68 0 0 0-6.37 1.69c-.18.9-.02 1.82.44 2.6z" fill="#5A86B8"/><path d="m70.4 183.56-9.48 3.15-6.96-3.5v-1.54l16.43.22v1.67z" fill="#6995C8"/><path d="m70.4 181.79-9.48 2.8-6.96-2.92 9.44-1.98 7 2.1z" fill="#8DB2DD"/><path d="M66.34 180.9a.32.32 0 0 0 .32-.28.33.33 0 0 0-.06-.24.32.32 0 0 0-.22-.13l-4.15-.64a.34.34 0 0 0-.4.13.34.34 0 0 0 .15.5c.04.03.1.04.15.03l4.15.63h.06z" fill="#43742B" stroke="#43742B" stroke-width=".5"/><path d="M59.73 178.38a2.98 2.98 0 0 0 .7 3.39 2.54 2.54 0 0 0 4.42-1.33 3 3 0 0 0-2.65-3.45 2.48 2.48 0 0 0-2.47 1.39z" fill="#6F7E0E"/><path d="M92.24 187.61c.09.03.18.03.26 0a.35.35 0 0 0 .14-.26l2.02-24.47a.34.34 0 0 0-.35-.4.39.39 0 0 0-.2.06l-33.31 14.9a.39.39 0 1 0 .32.7l32.61-14.82-1.81 23.37-29.8-4.68a.39.39 0 0 0-.28.07.4.4 0 0 0-.16.25.4.4 0 0 0 .32.46l30.24 4.74v.08z" fill="#2B4171"/><path d="M242.7 53.38a8.93 8.93 0 0 0-.24 2.34c.32 6.43 1.1 12.82 2.35 19.13.26 2.2.4 6.65.39 8.87l-128.5 8.55H92.06L242.7 53.38z" fill="#4E73A5"/><path d="m101.41 180.31-18.97-7.4-13.3 24.26 32.27 20.88v-37.74z" fill="#6995C8"/><path d="m82.45 172.92 22.43-2.54 20.26 3.73-23.72 6.2-18.97-7.4z" fill="#C6DCF5"/><path d="m140.5 204.95-39.09 13.1v-37.73l23.73-6.21 15.36 30.84z" fill="#8DB2DD"/><path d="m129.05 208.94-5.99-13.24-7.78 2.42 1.41 14.81 12.36-4z" fill="#70810D"/><path d="m115.28 198.12 13.77 10.82-5.99-13.24-7.78 2.42z" fill="#A2A731"/><path d="M295.31.63s21.87 27.64 17.58 78.03c-4.3 50.4-41.14 65.55-41.14 65.55l-2.26-.14-30.86-63.2 1.9-30.23L293.12.49l2.18.14zm-2.68 17.56-33.6 27.37c.72 4.09 1.18 8.21 1.39 12.36l42.77-8.29c-2.82-20.82-10.56-31.44-10.56-31.44zm11.55 44.34-43.68 3.1c0 2.53-.16 5.15-.4 7.85 0 1.13-.2 2.24-.35 3.35l36.95 24.91a67.8 67.8 0 0 0 7.04-25.52c.39-4.55.54-9.12.44-13.69zm-31.69 63.42a49.75 49.75 0 0 0 17.6-14.11l-31.73-27.27a65.9 65.9 0 0 1-2.8 8.97l16.93 32.41z" fill="#8DB2DD"/><path d="M293.13.49s21.8 27.6 17.52 78.17c-4.27 50.58-41.16 65.41-41.16 65.41l-33.12-63.4 1.9-30.23L293.13.49zm-2.76 17.56-33.62 27.37c.7 4.09 1.16 8.21 1.37 12.36l42.82-8.29c-2.83-20.82-10.57-31.44-10.57-31.44zm11.55 44.34-43.66 3.1a96.76 96.76 0 0 1-.76 11.2l36.94 24.9c4-7.95 6.4-16.62 7.04-25.51.39-4.55.54-9.1.44-13.67v-.02zm-31.68 63.42a49.74 49.74 0 0 0 17.6-14.11L256.1 84.42a66.05 66.05 0 0 1-2.8 8.98l16.93 32.4z" fill="#2B4171"/><path d="M293.13 83.82h1.45v119.31h-1.45V83.82zm7.08 1.31h1.45v115.36h-1.45V85.13z" fill="#2B4171"/><path d="M149.77 241.05c.2 0 .38-.08.5-.22l20.39-22.84 18.14 6.9a.67.67 0 0 0 .85-.39.66.66 0 0 0-.39-.84l-17.7-6.74 14-15.27a.67.67 0 0 0 .14-.27.55.55 0 0 0 0-.31.64.64 0 0 0-.36-.47l-15.7-6.38 12.97-13.46a.74.74 0 0 0 .18-.5.7.7 0 0 0-.26-.47l-13.93-10.42 11.27-13.7c.1-.15.16-.33.14-.51a.66.66 0 0 0-.28-.47l-12.82-8.9 10.08-11.55a.64.64 0 0 0 0-.9l-10.95-9.97 8.12-10.42a.69.69 0 0 0 0-.53.62.62 0 0 0-.33-.42l-9.22-5.62 7.82-5.69a.66.66 0 0 0-.46-1.19l-17.56 1.4a.67.67 0 0 0-.56.53.65.65 0 0 0 .32.7l8.1 4.37-7.94 6.87a.62.62 0 0 0-.28.46.7.7 0 0 0 .18.53l10.06 9.03-10.6 13.87a.64.64 0 0 0-.1.5.66.66 0 0 0 .28.4l11.12 7.77-11.23 12.94a.63.63 0 0 0-.14.5c.02.18.1.35.25.47l12.88 9.67-14.11 17.28a.62.62 0 0 0-.13.56c.03.1.07.2.14.27a.7.7 0 0 0 .23.2l14.71 6.8L151.35 210a.6.6 0 0 0-.17.59.67.67 0 0 0 .4.48l17.9 6.43-20.15 22.45a.66.66 0 0 0 .13 1c.1.07.23.1.35.11h-.04zm34.26-39.62-13.7 15-17.45-6.18 15.84-15.04 15.31 6.22zm-2.83-21.03-12.88 13.16-14.35-6.67 13.68-16.67 13.55 10.18zm-2.8-25.14-10.87 13.2-12.33-9.17 10.84-12.54 12.36 8.51zm-2.87-21.55-9.71 11.19-10.7-7.46 10.07-13.1 10.34 9.37zm-2.87-20.94-7.65 9.59-9.31-8.3 7.82-6.78 9.14 5.49zm-2.85-11.7-6.27 4.56-6.8-3.68 13.07-.88z" fill="#46638A"/><path d="M149.77 241.05c.1.03.22.03.32 0a.67.67 0 0 0 .27-.89l-13.71-24.19 13.5-5.58a.65.65 0 0 0 .27-1.01l-11.66-16.83 12.17-5.18a.65.65 0 0 0 .4-.43.7.7 0 0 0 0-.56l-10.67-17.01 11.19-8.87a.65.65 0 0 0 .14-.89l-9.1-13.2 9.75-9.13a.64.64 0 0 0 .14-.87l-7.95-13.08 8.6-9.07c.13-.13.2-.3.19-.49a.7.7 0 0 0-.24-.48l-6.83-7.58 8.04-5.08a.68.68 0 0 0 .28-.72.66.66 0 0 0-.6-.49l-16.5-.82a.67.67 0 0 0-.64.42.66.66 0 0 0 .2.74l7.1 5.85-8.2 5.98a.66.66 0 0 0-.2.91l7.15 10.69-10.08 10.32a.7.7 0 0 0 0 .84l8.06 11.82-10.86 8.52a.69.69 0 0 0-.14.9l8.8 13.56-11.84 9.06a.67.67 0 0 0-.12.93l9.67 12.89-11.62 5.65a.6.6 0 0 0-.38.38.78.78 0 0 0 0 .56l10.12 16.7-13.3 5.7a.66.66 0 0 0-.27.83.66.66 0 0 0 .8.37l13.44-5.74 13.77 24.19a.64.64 0 0 0 .54.38zm-.98-31.55-12.73 5.26-9.98-16.16 11.4-5.53 11.3 16.43zm.87-23.08-11.76 5.12-9.5-12.7 11.23-8.58 10.03 16.16zm.74-26.6-10.63 8.42-8.24-12.98 10.32-8.06 8.55 12.61zm1.01-23.21-9.3 8.71-7.8-11.3 9.53-9.74 7.57 12.33zm.58-22.68-7.86 8.25-6.65-9.88 8.1-5.8 6.4 7.44zm.2-13.3-6.61 4.23-5.87-4.85 12.48.62z" fill="#46638A"/><path d="m130.38 154.19 21.22 5.01v1.86l-21.22-5.01v-1.87zm54.98 45.85.36 1.71-34.27 9.7-.36-1.7 34.27-9.7zm-2.05-21.34v1.89l-32.14 7.22v-1.89l32.15-7.22z" fill="#46638A"/><path d="M180.51 153.67v1.9l-29.3 5.02v-1.9l29.3-5.02zm-3.98-21.09v1.81l-22.82 3.81v-1.81l22.82-3.81zm-3.37-20.48.2 1.8-19.08 1.4-.2-1.8 19.08-1.4zm-45.86 65.3 24.56 8.55v1.88l-24.56-8.55v-1.88zm6.4-44.86 17.71 3.07v1.8l-17.7-3.07v-1.8zm2.91-21.02 15.96 1.41-.2 1.8-15.97-1.4.21-1.8zm-11.55 85.82 26.4 12.05-.56 1.92-26.4-12.06.56-1.91z" fill="#46638A"/><path d="m139.25 102-15.82 118.93 23.82 15.75 4.24-134.13-12.24-.59v.04zm-2.28-2.74 17.39.75-4.63 141.5-29.12-19.25L136.97 99.3v-.04z" fill="#46638A"/><path d="m171.22 102.47-14.43.2-4.26 134.9 34.98-14.12-16.29-120.94v-.04zm2.28-2.66 16.89 125.36-40.66 16.35 4.48-141.45 19.27-.26h.02z" fill="#46638A"/><path d="m90.73 76.76 138.26-26.32v-.5L283.9.03l2.25.15s21.79 27.6 17.52 78.1c-4.28 50.52-41.17 65.5-41.17 65.5l-2.23-.14-32.82-62.77-135.39 11.4-1.33-15.5zm159.02-31.64c.68 3.9 1.13 7.84 1.35 11.79l40.6-7.86a79.04 79.04 0 0 0-9.73-30.14l-32.22 26.2zm1.52 20.15a97.21 97.21 0 0 1-.77 11.2l35.22 23.66a68.12 68.12 0 0 0 6.5-24.47c.4-4.45.55-8.92.47-13.39l-41.42 3zm27.31 46.03-29.85-25.7a65.15 65.15 0 0 1-2.42 7.48l16.43 31.43c6.1-3.3 11.5-7.8 15.84-13.22z" fill="#6995C8"/><path d="m159.89 68.15 64.59-11.55-1.28 19.24-63.31 6.39V68.15zM143 71.01v12.87L95.77 88.5l-.84-8.88 48.07-8.6z" fill="#4E73A5"/><path d="M286.14.19s21.79 27.6 17.52 78.1c-4.28 50.52-41.17 65.5-41.17 65.5l-2.23-.14-30.89-63.22 1.9-30.23L283.88.04l2.26.15zm-2.76 17.57-33.63 27.36c.7 4.1 1.16 8.22 1.38 12.37l42.81-8.3c-2.82-20.82-10.56-31.43-10.56-31.43zm11.57 44.35-43.68 3.1a97.22 97.22 0 0 1-.77 11.2l36.95 24.9a67.9 67.9 0 0 0 7.03-25.51c.4-4.55.56-9.12.47-13.69zm-31.69 63.4a49.49 49.49 0 0 0 17.58-14.11L249.1 84.12a66.04 66.04 0 0 1-2.8 8.97l16.95 32.42z" fill="#8DB2DD"/><path d="M283.88.04s21.8 27.6 17.48 78.12c-4.32 50.51-41.1 65.49-41.1 65.49l-33.14-63.36 1.91-30.23L283.88.04zm-2.68 17.58-33.7 27.36c.74 4.09 1.22 8.22 1.45 12.37l42.75-8.3c-2.84-20.79-10.5-31.43-10.5-31.43zm11.57 44.35-43.82 3.1c0 2.52-.18 5.14-.4 7.84 0 1.15-.23 2.26-.37 3.35l37.05 24.92a67.92 67.92 0 0 0 7.02-25.52c.39-4.56.53-9.12.44-13.7h.08zm-31.73 63.4a49.49 49.49 0 0 0 17.58-14.12l-31.69-27.27a66.04 66.04 0 0 1-2.8 8.97l16.91 32.41z" fill="#6995C8"/><path d="m86.74 171.49 29.63-6.33a1.57 1.57 0 0 0 1.25-1.56 1.59 1.59 0 0 0-1.91-1.57l-29.63 6.33a1.57 1.57 0 0 0-1.27 1.55 1.6 1.6 0 0 0 1.93 1.58z" fill="#2B4171"/><path d="m101.7 160.63-8.52-2.28-4.1 12.6 12.06 6.27.56-16.6z" fill="#6995C8"/><path d="m93.17 158.35 8.29-1.49 9.09 2.16-8.85 1.6-8.53-2.27z" fill="#C6DCF5"/><path d="m115.7 173.75-14.56 3.47.56-16.6 8.85-1.6 5.14 14.73z" fill="#8DB2DD"/><path d="m86.8 171.49 9.19-2.03a1.57 1.57 0 0 0 1.25-1.55 1.6 1.6 0 0 0-1.92-1.57l-9.18 2.02a1.57 1.57 0 0 0-1.27 1.55 1.6 1.6 0 0 0 1.94 1.58z" fill="#2B4171"/><path d="m81.22 168.9 9.17 19.36-2.02 11.35a8.4 8.4 0 0 0 1.88 6.65l.66.83a6.04 6.04 0 0 0 6.41 2.35l12.1-4.41a5.12 5.12 0 0 0 3.1-3.2l4.8-13.45a7.8 7.8 0 0 0-1.41-7.34 7.4 7.4 0 0 0-7.36-2.9l-10.08 2.32-11.83-16.27a3.03 3.03 0 0 0-4.62-.65 4.78 4.78 0 0 0-.8 5.37z" fill="#6995C8"/><path d="m79.44 168.85 8.95 19.09-2.01 11.2a8.4 8.4 0 0 0 1.83 6.58l.65.8a5.74 5.74 0 0 0 6.25 2.32l11.77-4.4a5.12 5.12 0 0 0 3.02-3.16l4.66-13.28a7.83 7.83 0 0 0-1.33-7.22 7.1 7.1 0 0 0-7.16-2.84l-9.71 2.3-11.54-16.13a2.92 2.92 0 0 0-4.49-.63 4.7 4.7 0 0 0-.89 5.37z" fill="#3A6697"/><path d="M83.45 171a1.2 1.2 0 1 0 .5-1.77 1.33 1.33 0 0 0-.5 1.77zm72.31-77.14V77.2a4.02 4.02 0 0 0-4.86-4.03 4.03 4.03 0 0 0-3.39 4.03v16.65a4.04 4.04 0 0 0 4.62 4.03 4.03 4.03 0 0 0 3.63-4.03z" fill="#2B4171"/><path d="m154.19 94.12-21.81.12v4.9l21.8 1v-6.02z" fill="#8DB2DD"/><path d="m154.18 94.12 23.9.12v5.34l-23.9.57v-6.03z" fill="#C6DCF5"/><path d="m80.63 96.45 32.6 1.08 1.6 5.79-32.98.23-1.22-7.1z" fill="#A2A731"/><path d="m82.32 97.7 23.14 98.78a2.89 2.89 0 0 1-1.35 3.27 2.9 2.9 0 0 1-4.29-1.82L79 98.5a1.71 1.71 0 0 1 .62-1.69 1.73 1.73 0 0 1 2.7.9zm-23.68 80.94a2.94 2.94 0 0 0 .7 3.39 2.51 2.51 0 0 0 4.4-1.33 2.96 2.96 0 0 0-2.62-3.45 2.5 2.5 0 0 0-2.48 1.4z" fill="#A2A731"/><path d="M59.71 180.2a1.39 1.39 0 1 0 1.35-1.53 1.46 1.46 0 0 0-1.35 1.53z" fill="#43742B"/><path d="M57.45 183.48a.3.3 0 0 0 .22 0l3.57-3a.33.33 0 0 0-.18-.58.33.33 0 0 0-.24.07l-3.57 3a.32.32 0 0 0-.07.36c.01.04.04.08.07.11.06.03.13.05.2.04z" fill="#43742B" stroke="#43742B" stroke-width=".5"/><path d="M296.8 211.9h1.45v76.9h-1.45v-76.9z" fill="#2B4171"/><path d="M101.41 197.4a1.51 1.51 0 1 0 .6-2.16 1.6 1.6 0 0 0-.6 2.17z" fill="#43742B"/><path d="M295.93 198.54a11.77 11.77 0 0 0-4.23 9.07v12.62c0 5.3 3.79 7.8 7.54 4.94h.1a11.8 11.8 0 0 0 4.03-8.97v-12.56c0-5.3-3.7-7.8-7.44-5.1z" fill="#6995C8"/><path d="M285.13 292.33a3.3 3.3 0 1 1 0-6.6 3.3 3.3 0 0 1 0 6.6z" fill="#2B4171"/><ellipse cx="224.33" cy="227.18" rx="17.5" ry="5.11" fill="#C6DCF5"/><path opacity=".5" d="M61.55 104.67c14.84-4.44 22.5 12.84 13.9 31.76 0 0-2.51-22.45-18.69-15.1-21.58 9.82-28.35 2-33.94-11.18-4.47-10.54-17.74-5.84-22.82-2.17V66.3c22.5-8.6 37.07 9.26 36.4 25.14-.66 15.88 6.84 18.71 25.15 13.23z" fill="url(#d)"/><ellipse cx="40.29" cy="118.42" rx="6" ry="3.51" fill="#fff"/><ellipse cx="16.96" cy="78.5" rx="8" ry="4.68" fill="#fff"/><ellipse cx="66.39" cy="110.22" rx="4" ry="2.34" fill="#fff"/><defs><linearGradient id="b" x1="271.54" y1="318.05" x2="251.6" y2="348.43" gradientUnits="userSpaceOnUse"><stop stop-color="#0042A6"/><stop offset="1" stop-color="#0042A6" stop-opacity="0"/></linearGradient><linearGradient id="c" x1="104.61" y1="212.17" x2="53.9" y2="291.73" gradientUnits="userSpaceOnUse"><stop stop-color="#0042A6"/><stop offset="1" stop-color="#0042A6" stop-opacity="0"/></linearGradient><linearGradient id="d" x1="-21.09" y1="25.39" x2="66.86" y2="29.73" gradientUnits="userSpaceOnUse"><stop stop-color="#C2D2E0" stop-opacity="0"/><stop offset="1" stop-color="#86A6C1"/></linearGradient></defs></svg>