<svg fill="none" width="687" height="339" xmlns="http://www.w3.org/2000/svg"><path d="M189.52 182.46c27.81-.55 44.3 26.13 49.08 39.54l-43.63.34c-1.02-2.5-9-6.75-32.72-3.75l-.6.08c-29.14 3.68-35.85 4.53-82.56-18.83-47.03-23.51-29.31 24.2-58.62 33.4s-22.5-70.55 15-86.57c37.49-16.02 67.48-5.8 90.66 16.02 23.17 21.82 28.63 20.45 63.4 19.77z" fill="url(#a)" opacity=".5"/><ellipse cx="135.11" cy="203.99" rx="15.62" ry="9.13" fill="#E5F2FC"/><path d="M313.56 140.7c32.8 1.13 42.56 33.06 43.34 48.89l-52.22.95c-6.2-6.06-28.31-25.2-50.97-20.57-37.47 7.67-47.28 2.23-69.09-25.49-21.8-27.7-36.7-16.99-79.85-23.22-34.53-4.98-35.49-25.64-40.98-41.95 22.62 25.92 42.41 16.97 85.77 4.72 43.36-12.26 53.72 20.26 82.47 41.94s40.53 13.32 81.53 14.73z" fill="url(#b)" opacity=".5"/><ellipse cx="225.87" cy="157.33" rx="9.37" ry="5.15" fill="#E5F2FC"/><ellipse cx="316.33" cy="157.13" rx="15.62" ry="9.13" fill="#E5F2FC"/><path d="M459.67 88.89c4.37 24.02 30.88 53.72 42.4 58.27h-67.23c-2.12-5.16-18.77-16.08-30.98-16.08-28.69 0-48.13 4.77-61.68-16.52-11.7-18.37-27.16-15.79-51.22-11.77l-.8.13-.37.06c-27.83 4.64-44.14 7.36-66.16-31.35C204.83 38.6 145.68 11.58 120.8.66 165.09 5.2 258.14 15.8 290.17 9.98c40.04-7.28 52.36-4.52 69.55 22.8 17.13 27.22 33.08 19.06 54.36 15.2 25.72-4.68 40.13 10.88 45.6 40.91z" fill="url(#c)" opacity=".5"/><ellipse cx="416.45" cy="79.62" rx="22.01" ry="12.87" fill="#E5F2FC"/><ellipse cx="278.84" cy="73.38" rx="23.43" ry="12.87" fill="#E5F2FC"/><ellipse cx="315.7" cy="57.07" rx="11.72" ry="6.43" fill="#E5F2FC"/><mask id="d" x="263" y="202" width="49" height="137" mask-type="alpha" maskUnits="userSpaceOnUse"><path d="m263.74 214.22 47.9-11.98v135.82h-23.63l-24.27-123.83z" fill="#75A037"/></mask><g mask="url(#d)"><path d="m263.74 214.22 47.9-11.98v135.82h-23.63l-24.27-123.83z" fill="#8EAF63"/><path d="m310.42 211.06-47.55 12.44-2.81-11.02 50.36-14.4v12.98z" fill="#6E9836"/><path d="m297.37 346.38-26.14-136.84h-10.57l27.25 136.84h9.46z" fill="#6E9836"/><circle cx="273.63" cy="222.62" r="15.62" fill="#6E9836"/><path d="m303.65 342.68-11.51-141.06 11.51-4V342.7z" fill="url(#e)" opacity=".4"/></g><mask id="f" x="303" y="181" width="55" height="158" mask-type="alpha" maskUnits="userSpaceOnUse"><path d="M357.47 193.25c0-6.26-12.05-11.34-26.91-11.34s-26.91 5.08-26.91 11.34c0 .52.08 1.02.24 1.52v143.28h53.58v-144.8z" clip-rule="evenodd" fill="#ABC08F" fill-rule="evenodd"/></mask><g mask="url(#f)"><path d="M357.47 193.25c0-6.26-12.05-11.34-26.91-11.34s-26.91 5.08-26.91 11.34c0 .52.08 1.02.24 1.52v143.28h53.58v-144.8z" clip-rule="evenodd" fill="#7BA345" fill-rule="evenodd"/><path d="M357.47 202.63c0-6.26-12.05-11.34-26.91-11.34s-26.91 5.08-26.91 11.34c0 .52.08 1.02.24 1.52v143.28h53.58v-144.8z" clip-rule="evenodd" fill="#ABC08F" fill-rule="evenodd"/><circle cx="339.93" cy="261.55" r="23.43" fill="#7BA345"/><path d="M347.74 266.41c0 1.08-.27 2.09-.8 3.03a6.48 6.48 0 0 1-2.33 2.4 7.98 7.98 0 0 1-3.62 1.16v2.6h-2.1V273a8.56 8.56 0 0 1-4.9-1.9 5.35 5.35 0 0 1-1.87-4.27h3.94c.06.84.33 1.54.8 2.1.48.54 1.15.88 2.04 1.03v-7.1a28.2 28.2 0 0 1-3.52-1.1 5.9 5.9 0 0 1-2.33-1.8 5.41 5.41 0 0 1-.93-3.36c0-1.79.62-3.26 1.87-4.42a8 8 0 0 1 4.9-2.07v-2.61h2.1v2.61c1.9.17 3.42.78 4.56 1.8a5.97 5.97 0 0 1 1.96 4.2h-3.93a3.4 3.4 0 0 0-2.58-2.87v6.97c1.44.35 2.6.71 3.51 1.1.9.37 1.67.96 2.3 1.78.62.8.93 1.9.93 3.32zm-11.88-10c0 .88.26 1.57.78 2.06.54.5 1.29.9 2.26 1.2v-6.52c-.93.1-1.67.44-2.23 1a3.1 3.1 0 0 0-.8 2.26zm5.13 13.55a3.64 3.64 0 0 0 2.23-1.13c.54-.62.8-1.36.8-2.23s-.26-1.52-.8-2a5.64 5.64 0 0 0-2.23-1.2v6.56z" fill="#fff"/><path fill="#7BA345" d="M297.66 329.02h63.4v14.95h-63.4z"/></g><mask id="g" x="380" y="162" width="63" height="178" mask-type="alpha" maskUnits="userSpaceOnUse"><path d="m380.34 177.94 62.31-15.59V339H411.9l-31.56-161.06z" fill="#75A037"/></mask><g mask="url(#g)"><path d="m380.34 177.94 62.31-15.59V339H411.9l-31.56-161.06z" fill="#8EAF63"/><path d="m441.06 172.26-61.85 16.18-3.65-14.34 65.5-18.71v16.87z" fill="#6E9836"/><path d="m422.52 349.82-34-177.98h-13.75l35.45 177.98h12.3z" fill="#6E9836"/><circle cx="391.17" cy="184.8" r="20.32" fill="#6E9836"/><path d="m432.24 345.01-14.98-183.48 14.98-5.2v188.68z" fill="url(#h)" opacity=".4"/></g><mask id="i" x="432" y="135" width="71" height="205" mask-type="alpha" maskUnits="userSpaceOnUse"><path d="M502.25 150.66c0-8.14-15.67-14.75-35-14.75s-35 6.6-35 14.75c0 .67.1 1.33.3 1.98V339h69.7V150.66z" clip-rule="evenodd" fill="#ABC08F" fill-rule="evenodd"/></mask><g mask="url(#i)"><path d="M502.25 150.66c0-8.14-15.67-14.75-35-14.75s-35 6.6-35 14.75c0 .67.1 1.33.3 1.98V339h69.7V150.66z" clip-rule="evenodd" fill="#7BA345" fill-rule="evenodd"/><path d="M502.25 162.85c0-8.14-15.67-14.75-35-14.75s-35 6.6-35 14.75c0 .67.1 1.33.3 1.98v186.36h69.7V162.85z" clip-rule="evenodd" fill="#ABC08F" fill-rule="evenodd"/><circle cx="479.85" cy="241.84" r="31.24" fill="#7BA345"/><path d="M482.04 252.35c1.75 0 3.28-.36 4.59-1.08a7.8 7.8 0 0 0 3.13-3.3h5.71a12.87 12.87 0 0 1-5.21 6.42 15.13 15.13 0 0 1-8.22 2.26 14.9 14.9 0 0 1-8.68-2.63 13.93 13.93 0 0 1-5.3-7.1h-3.83v-3.25h3.08c-.05-.77-.08-1.39-.08-1.83s.03-1.06.08-1.84h-3.08v-3.25h3.84c1-2.95 2.76-5.3 5.3-7.05a14.7 14.7 0 0 1 8.67-2.67c3.06 0 5.78.76 8.18 2.3a12.8 12.8 0 0 1 5.25 6.42h-5.71a7.53 7.53 0 0 0-3.13-3.26 9.05 9.05 0 0 0-4.59-1.12c-2.03 0-3.82.47-5.38 1.42a9.16 9.16 0 0 0-3.5 3.96h8.88V240h-9.8a13.04 13.04 0 0 0 0 3.67h9.8v3.26h-8.89a9.13 9.13 0 0 0 3.5 4c1.57.95 3.36 1.42 5.39 1.42z" fill="#fff"/><path fill="#7BA345" d="M424.46 327.71h82.47v19.45h-82.47z"/></g><mask id="j" x="162" y="231" width="38" height="108" mask-type="alpha" maskUnits="userSpaceOnUse"><path d="m162.2 240.56 37.72-9.44v106.94h-17.15l-20.57-97.5z" fill="#5B8F41"/></mask><g mask="url(#j)"><path d="m162.2 240.56 37.72-9.44v106.94h-17.15l-20.57-97.5z" fill="#8EAF63"/><path d="m201.46 239.42-38.47 9.19-2.33-10.88 40.8-10.1v11.79z" fill="#6E9836"/><path d="M192.7 352.63 165 215.79h-10.57l28.81 136.84h9.46z" fill="#6E9836"/><circle cx="170.53" cy="249.18" r="14.06" fill="#6E9836"/><path d="m196.38 341.35-8.24-111.3 11.41-3.17-3.17 114.47z" fill="url(#k)" opacity=".4"/></g><mask id="l" x="195" y="214" width="46" height="125" mask-type="alpha" maskUnits="userSpaceOnUse"><path d="M240.3 223.64c0-5.22-10.04-9.45-22.43-9.45s-22.42 4.23-22.42 9.45c0 .43.06.85.2 1.27v113.15h44.65V223.64z" clip-rule="evenodd" fill="#6AA24F" fill-rule="evenodd"/></mask><g mask="url(#l)"><path d="M240.3 223.64c0-5.22-10.04-9.45-22.43-9.45s-22.42 4.23-22.42 9.45c0 .43.06.85.2 1.27v113.15h44.65V223.64z" clip-rule="evenodd" fill="#7BA345" fill-rule="evenodd"/><path d="M240.3 231.44c0-5.22-10.04-9.45-22.43-9.45s-22.42 4.23-22.42 9.45c0 .43.06.85.2 1.27v113.15h44.65V231.44z" clip-rule="evenodd" fill="#ABC08F" fill-rule="evenodd"/><path fill="#7BA345" d="M186.74 329.02h63.4v14.95h-63.4z"/><circle cx="225.69" cy="276.12" r="19.53" fill="#7BA345"/><path d="M232.38 283.08v2.41h-12l-.52-1.6a8.73 8.73 0 0 0 1.6-2.31 7.08 7.08 0 0 0 .4-3.97H219v-2.05h2.2a9.99 9.99 0 0 1-.54-3.16c0-1.16.25-2.16.75-3.01a5 5 0 0 1 2.08-1.95c.88-.46 1.9-.7 3.06-.7 1.85 0 3.25.52 4.2 1.56a5.84 5.84 0 0 1 1.48 3.97h-2.7a3.1 3.1 0 0 0-.73-2.2c-.48-.56-1.23-.84-2.25-.84-.94 0-1.69.27-2.26.8-.55.54-.83 1.38-.83 2.52 0 .5.05.99.16 1.45.1.47.25.99.44 1.56h5.03v2.05h-4.44a6.13 6.13 0 0 1-1.6 5.47h9.33z" fill="#fff" stroke="#fff" stroke-width=".3"/></g><path d="m145.69 145.19 9.85 10.06H.12l14.76-12.59a25.29 25.29 0 0 1 22.27-5.36 25.28 25.28 0 0 0 19.34-3.2l2.47-1.56c10-6.3 22.63-6.62 32.94-.85l9.12 5.1a24.86 24.86 0 0 0 19.52 2.05 24.86 24.86 0 0 1 25.15 6.35zm531.03 50.04 9.88 10.02H530.07l14.85-12.56a25.62 25.62 0 0 1 22.45-5.38 25.62 25.62 0 0 0 19.49-3.21l2.48-1.56a32.64 32.64 0 0 1 33.17-.85l9.18 5.1c6 3.34 13.1 4.08 19.66 2.06a25.19 25.19 0 0 1 25.37 6.38zM580.63 82.9l8.6 8.1H448.1l13.14-10.35a24.59 24.59 0 0 1 20.5-4.7 24.59 24.59 0 0 0 17.66-2.76l2.15-1.26a30.97 30.97 0 0 1 29.81-.74l8.3 4.3a24.12 24.12 0 0 0 17.75 1.75c8.2-2.35 17.02-.2 23.22 5.65z" fill="#fff"/><defs><linearGradient id="a" x1="60.3" x2="151.55" y1="126.02" y2="202.58" gradientUnits="userSpaceOnUse"><stop stop-color="#C7DDF0" stop-opacity="0" offset="0"/><stop stop-color="#BCD4E9" offset="1"/></linearGradient><linearGradient id="b" x1="135.78" x2="243.4" y1="64.31" y2="160.06" gradientUnits="userSpaceOnUse"><stop stop-color="#C7DDF0" stop-opacity="0" offset="0"/><stop stop-color="#BCD4E9" offset="1"/></linearGradient><linearGradient id="c" x1="214.44" x2="363.05" y1="-29" y2="94.23" gradientUnits="userSpaceOnUse"><stop stop-color="#C7DDF0" stop-opacity="0" offset="0"/><stop stop-color="#BCD4E9" offset="1"/></linearGradient><linearGradient id="e" x1="293.09" x2="219.24" y1="362.57" y2="294.4" gradientUnits="userSpaceOnUse"><stop stop-color="#165748" stop-opacity="0" offset="0"/><stop stop-color="#0A4631" offset="1"/></linearGradient><linearGradient id="h" x1="418.52" x2="322.46" y1="370.88" y2="282.22" gradientUnits="userSpaceOnUse"><stop stop-color="#165748" stop-opacity="0" offset="0"/><stop stop-color="#0A4631" offset="1"/></linearGradient><linearGradient id="k" x1="189.08" x2="131.25" y1="357.05" y2="289.99" gradientUnits="userSpaceOnUse"><stop stop-color="#165748" stop-opacity="0" offset="0"/><stop stop-color="#0A4631" offset="1"/></linearGradient></defs></svg>