<svg width="303" height="274" fill="none" xmlns="http://www.w3.org/2000/svg"><path stroke="#C6DCF5" stroke-width="2" stroke-linecap="round" stroke-linejoin="round" d="M173.5 1.58h100v200h-100zm-.07 60.64h100m-100 70h100M223.5 1.6v200"/><path d="M163.76 192.46C110.03 206.81 108.4 209 44.56 209c-17.82 0-53.53 13.13-38.42 42.05 18.89 36.14 108.57 19.49 154.55 8.01 48.69-12.15 141.81-3.2 141.81-45.25 0-45.79-90.05-34.34-138.74-21.34z" fill="#D9EBFF"/><ellipse opacity=".15" cx="46.18" cy="233.12" rx="30" ry="7.5" fill="#0042A6"/><mask id="a" mask-type="alpha" maskUnits="userSpaceOnUse" x="45" y="188" width="37" height="50"><path fill-rule="evenodd" clip-rule="evenodd" d="M45.75 188.33h35.38l-4.85 45.47s-4.36 4-12.84 4c-9.64 0-12.84-4-12.84-4l-4.85-45.47z" fill="#fff"/></mask><g mask="url(#a)"><path fill-rule="evenodd" clip-rule="evenodd" d="M45.75 188.33h35.38l-4.85 45.47s-4.36 4-12.84 4c-9.64 0-12.84-4-12.84-4l-4.85-45.47z" fill="#fff"/><path opacity=".7" d="M45.1 198.12s6.85 3 18.73 3 18.73-3 18.73-3" stroke="#8BA9D5" stroke-width="5"/></g><path fill-rule="evenodd" clip-rule="evenodd" d="M63.15 191.3h.87c9.5-.06 17.11-1.33 17.11-2.89s-7.6-2.84-17.1-2.89h-1.18c-9.5.05-17.1 1.33-17.1 2.89 0 1.58 7.76 2.86 17.4 2.89z" fill="#474C69"/><path fill-rule="evenodd" clip-rule="evenodd" d="M61.07 188.4c-1.9-17.32-5.07-29.12-9.53-35.4a21.13 21.13 0 0 1-7.2-5.25c-2.72-3.17-5.04-3.45-10.06-3.3-5.03.13-8.22-1.53-10.4-3.6-2.2-2.06-2.82-2.54-6.57 0-3.76 2.54-10.5 3.8-16.55 1.9 4.74-8.42 9.05-12.73 12.95-12.94 5.85-.3 8.72 3.16 12.96.98 4.25-2.19 7.8-.7 10.3 3.24 2.51 3.94 8.59 3.72 10.7 8.72 2.1 5 8.53 15.44 10.37 21.33 1.84 5.9 3.59 16 4.47 24.32h-1.44z" fill="#72A35B"/><path fill-rule="evenodd" clip-rule="evenodd" d="M67.76 133.46c5.2-10.09 7.81-19.15 7.81-27.17 0-12.04-1.89-11.96-6.96-9.6-5.07 2.36-15.57 6.34-14.17 15.75.94 6.27 2.76 13.9 5.46 22.9l7.86-1.88z" fill="#54883A"/><path fill-rule="evenodd" clip-rule="evenodd" d="m68.3 96.83.63-.29c1.9-.87 3.34-1.37 4.38-.93-6 2.13-9 6.96-9 14.47l.01.67c.04 8.38.76 18.24-.76 23.72l-3.66.87c-2.7-9-4.52-16.63-5.46-22.9-1.37-9.22 8.68-13.23 13.86-15.6z" fill="#3B6924"/><path fill-rule="evenodd" clip-rule="evenodd" d="M79.35 143.85c5.64-3.75 9.08-7.5 10.33-11.27 1.88-5.65 4.34-10.96 8.74-12.64 4.41-1.67 1.4-3.3 6.58-4.03 3.45-.48 5.9-.48 7.35 0a26.22 26.22 0 0 0-11.55-5.31c-6.63-1.34-9.51-.1-13.4 3.68-3.9 3.78-7.12 8.56-11.03 10.22-3.91 1.67-5.37 1.17-6.25 8.58-.59 4.94 2.49 8.53 9.23 10.77z" fill="#54883A"/><path fill-rule="evenodd" clip-rule="evenodd" d="m87.19 114.48.2-.2c3.9-3.78 6.78-5.02 13.41-3.68 4.32.87 8.09 2.57 11.3 5.12l.25.2c-6.74-4.43-14.12-3.76-22.15 2l-3.07 2.22c-10.54 7.68-17.4 13.29-8.1 23.38l.32.33c-6.74-2.24-9.82-5.83-9.23-10.77l.05-.43c.89-6.96 2.37-6.51 6.2-8.15 3.84-1.63 7.02-6.27 10.82-10.02z" fill="#43742B"/><path fill-rule="evenodd" clip-rule="evenodd" d="M36.98 134.03c2.5 3.94 8.58 3.72 10.68 8.72.89 2.1 2.53 5.16 4.28 8.43l-.01.03c-15.57-25.09-35.64-18.06-42.45-13.48l-.64.43c-4.11 2.73-6.78 4.26-8.02 4.58l-.06.01c4.74-8.42 9.05-12.73 12.95-12.94 5.77-.3 8.64 3.07 12.8 1.06l.16-.08c4.25-2.19 7.8-.7 10.3 3.24z" fill="#54883A"/><path fill-rule="evenodd" clip-rule="evenodd" d="M61.9 188.41c-.36-12.43-.76-22.54-1.2-30.35-.44-7.8-1.52-13.16-3.25-16.06-7.43 1.02-12.02-.98-13.78-6-2.63-7.53-.06-9.49-4.81-14.87-4.75-5.38-5.17-9.25-2.58-12.23 2.58-2.98 10.16 0 15.66 0s10.19 1.03 11.28 7.9c1.1 6.86-1.09 16.8 0 20.64.73 2.56-.55 3.92-3.85 4.07 1.7 4.79 2.74 10.43 3.14 16.93.4 6.5.64 16.49.71 29.97h-1.31z" fill="#43742B"/><path fill-rule="evenodd" clip-rule="evenodd" d="M43.46 107.84v.02a9.17 9.17 0 0 0 2.38 4.21c4.33 4.46 8.28 4.9 8.36 13.03v.25a45.3 45.3 0 0 0 3.1 16.26l.15.4c-7.43 1.01-12.02-.99-13.78-6-2.6-7.46-.11-9.46-4.67-14.71l-.14-.17c-4.75-5.38-5.17-9.25-2.58-12.23 1.35-1.57 4.09-1.48 7.18-1.06z" fill="#54883A"/><path fill-rule="evenodd" clip-rule="evenodd" d="M64.98 188.4c.91-24.27 1.76-37.29 2.54-39.06 1.17-2.66 7.2-3.53 9.1-3.53 1.9 0 4.59-4.27 5.76-7.68 1.17-3.4 1.97-4.18 4.1-4.88 2.13-.71 3.18-4.75-1.14-5.45-4.32-.7-11.53 3.55-18.72 3.55-7.2 0-15.35-1-14.68 5.2.67 6.2 3.8 8.34 8.1 9.8 4.3 1.46 5.59 2.37 4.94 14.11-.42 7.83-.91 17.14-1.46 27.94h1.46z" fill="#3B6924"/><path fill-rule="evenodd" clip-rule="evenodd" d="M66.62 131.35c7.2 0 14.4-4.26 18.73-3.55 4.27.7 3.28 4.66 1.2 5.42l-.07.03c-1.91.57-3.68 1.5-5.3 2.8-2.4 1.92-6.22 1.63-8.94.44l-.45-.2c-2.45-1.08-3.51-1.13-5.7.06l-.3.17c-2.16 1.22-1.2.87-5.89-1.18l-.57-.25c-4.47-1.91-7.39-2.62-7.39.96 0 .1 0 .18-.02.26-.42-5.93 7.6-4.96 14.7-4.96zm-1.11 56.52c0-13.35 2.5-23.85 7.48-31.5 7.07 1.08 11.69-.03 13.84-3.32 3.23-4.95 5.34-10.86 13.27-10.03 5.28.55 12.17-1.95 20.66-7.52-1.99-3.2-5.37-4.8-10.14-4.8-7.15 0-8.6-4.32-14-.92-5.42 3.4-11.62 3.2-15.25 9.34-3.63 6.13-5.43 9.65-8.38 10.87-2.94 1.22-4.13 3.93-1.52 5.55-5.4 10.06-7.74 21.02-7.03 32.87h1.07v-.54z" fill="#72A35B"/><path fill-rule="evenodd" clip-rule="evenodd" d="m96.42 129.9.2-.12c5.35-3.37 6.82.83 13.79.92h.21c4.7 0 8.05 1.55 10.05 4.65l.1.15a23.45 23.45 0 0 0-11.46-2.92c-6.13 0-10.31 2.99-16.77 4.86-6.46 1.87-18.18 13-21.07 18.1l-.1-.06c-2.45-1.6-1.32-4.22 1.52-5.45l.1-.04c2.95-1.22 4.75-4.74 8.38-10.87 3.59-6.06 9.69-5.95 15.05-9.23z" fill="#54883A"/><path fill-rule="evenodd" clip-rule="evenodd" d="M59.59 132.58c-1.73-7.12-5.45-10.17-11.16-9.17-8.56 1.51-10.14.67-15.22-1.18s-3.54-1.8-9.12 0c-5.58 1.8-10.91 3-7.19 0 3.73-3 10.88-7.3 18.91-5.14 8.04 2.14 21.6.07 25.05 15.49H59.6z" fill="#72A35B"/><ellipse opacity=".15" cx="164.77" cy="229.12" rx="70" ry="12.5" fill="#0042A6"/><path d="m199.63 231.86-4.5-18.67 20.6-1.5-5.05 20.2a3 3 0 0 1-2.91 2.27h-5.22a3 3 0 0 1-2.92-2.3zm-38.47-8.32 4.5-18.67-20.59-1.5 5.05 20.2a3 3 0 0 0 2.91 2.27h5.22a3 3 0 0 0 2.91-2.3z" fill="#D86083"/><mask id="b" mask-type="alpha" maskUnits="userSpaceOnUse" x="116" y="133" width="120" height="92"><path d="M117.62 183.56c6.6 21.12 22.85 30.25 44.34 37.48 10.86 3.65 23.75 3.85 35.36 3.43 15.57-.57 31.11-12.72 35.75-27.54 5.25-16.75 1.25-37.02-20.18-51.1-19.26-12.67-45.65-16.3-68.08-9.24-20.88 6.56-33.02 28.31-27.19 46.97z" fill="#57AAF6"/></mask><g mask="url(#b)"><path d="M117.62 183.56c6.6 21.12 22.85 30.25 44.34 37.48 10.86 3.65 23.75 3.85 35.36 3.43 15.57-.57 31.11-12.72 35.75-27.54 5.25-16.75 1.25-37.02-20.18-51.1-19.26-12.67-45.65-16.3-68.08-9.24-20.88 6.56-33.02 28.31-27.19 46.97z" fill="#E07694"/><path d="M114.9 176.11c8.8 18.85 26.1 31.7 48.36 38.93 11.25 3.65 24.6 3.85 36.63 3.43 16.13-.57 32.97-12.19 35.3-27.37 2.69-17.4 3.03-37.19-19.17-51.28-19.95-12.66-47.28-16.29-70.53-9.23-21.62 6.56-38.89 27.75-30.59 45.52z" fill="#F1ABC2"/><circle cx="191.23" cy="190.18" r="5" fill="#ED91AD"/><circle cx="228.25" cy="190.18" r="5" fill="#ED91AD"/><path d="M202.92 199.97c-4.77 1.38-9.32-.73-10-6.17" stroke="#D86083" stroke-width="2.5" stroke-linecap="round" stroke-linejoin="round"/></g><path d="m121.19 222.08-4.5-41.65 24.16 23.22-9.97 19.14a2 2 0 0 1-1.78 1.07h-5.93a2 2 0 0 1-1.98-1.78zm57.36 14.82-13.93-25.4 28.27 1.88-3.2 22.5a3 3 0 0 1-2.97 2.58h-5.54a3 3 0 0 1-2.63-1.55z" fill="#F1ABC2"/><path d="M128.26 147.67c-6.03-.68-8.6-7.25-6.44-12.06 2.55-5.67 10.57-2.65 7.08 2.97-1.86 2.98-12.23 3.67-13.75-6.35" stroke="#F1ABC2" stroke-width="3" stroke-linecap="round" stroke-linejoin="round"/><mask id="c" mask-type="alpha" maskUnits="userSpaceOnUse" x="167" y="151" width="22" height="26"><path d="M188.43 158.07c-8.53 4.27-13.87 14.26-15.47 18.72-3.99-6.24-7-21.08-5.33-23.79 2.47-4.03 16.08 1.7 20.8 5.07z" fill="#DF5B81"/></mask><g mask="url(#c)"><path d="M188.43 158.07c-8.53 4.27-13.87 14.26-15.47 18.72-3.99-6.24-7-21.08-5.33-23.79 2.47-4.03 16.08 1.7 20.8 5.07z" fill="#DF5B81"/><path d="M183.46 162.61c-5.97-7.07-13.26-12.02-16.47-9.9.4-1.23 2.41-3.55 7.2-2.95 4.79.6 13.06 5.15 16.6 7.35l-7.33 5.5z" fill="#ED91AD"/></g><mask id="d" mask-type="alpha" maskUnits="userSpaceOnUse" x="209" y="144" width="22" height="21"><path d="M230.34 164.61c-6.16-5.13-16.68-8.13-21.18-8.98 5.27-4.5 14.5-12.2 18.36-10.79 3.85 1.42 2.74 14.08 2.82 19.77z" fill="#DF5B81"/></mask><g mask="url(#d)"><path d="M230.34 164.61c-6.16-5.13-16.68-8.13-21.18-8.98 5.27-4.5 14.5-12.2 18.36-10.79 3.85 1.42 2.74 14.08 2.82 19.77z" fill="#DF5B81"/><path d="M215.2 158.4c3.37-6.46 8.37-13.06 12.78-13.96a13 13 0 0 0-8.82 1.91c-3.57 2.25-10 7.91-11.73 9.64l7.78 2.41z" fill="#ED91AD"/></g><path d="M162.92 139.49c3.25-.53 11.59-.9 18.98 1.88" stroke="#0E2D5A" stroke-width="3" stroke-linecap="round" stroke-linejoin="round"/><ellipse cx="194.8" cy="174.9" rx="2" ry="3.2" fill="#CD4E72"/><ellipse cx="219.63" cy="173.37" rx="2" ry="3.2" fill="#CD4E72"/><ellipse cx="209.75" cy="186.71" rx="10" ry="8.5" fill="#DF5B81"/><path d="M206.7 184.84v4m6.58-4v4" stroke="#F1ABC2" stroke-width="3" stroke-linecap="round" stroke-linejoin="round"/><path fill-rule="evenodd" clip-rule="evenodd" d="M126.7 32.13c11.42 13.15 23.46 22.25 33.82 27.61 22.98 11.9 26.43 19.9 27.72 27.35 1.3 7.47-4.72 17.94-9.24 19.84-4.53 1.91-8.84-2.56-4.05-8.04 4.79-5.47 2.68-13.56-2.93-16.9-5.6-3.34-12.82.08-11.71 6.5 1.11 6.43 8.1 8.98 10.8 11.09 2.69 2.1 2.07 9.55-4.92 7.88-7-1.66-14.31-4.58-22.83-17.7-7.53-11.6-25.96-18.94-41.82-29.9 0 0 1.97-9.41 8.58-16.85a39.15 39.15 0 0 1 16.58-10.88z" fill="#F77A5E"/><path d="M169.62 126.77h4.04v-.02a15.06 15.06 0 0 0 14.94-15 14.85 14.85 0 0 0-14.82-14.94v-.01h-4.04v.56a15.08 15.08 0 0 0-11.03 14.45 14.86 14.86 0 0 0 10.91 14.41v.55z" fill="#C25506"/><ellipse rx="14.96" ry="14.95" transform="matrix(.99892 -.002 -.00383 1.00107 169.97 111.78)" fill="#FFB13C"/><path d="M174.93 114.88a4.17 4.17 0 0 1-2 3.47c-.65.41-1.42.66-2.3.75l-.01 1.67h-1.34l.01-1.67a5.39 5.39 0 0 1-3.11-1.21 3.4 3.4 0 0 1-1.18-2.72h2.5c.04.53.2.97.5 1.33.3.35.74.56 1.3.66l.01-4.54a17.7 17.7 0 0 1-2.23-.7 3.73 3.73 0 0 1-1.47-1.15 3.46 3.46 0 0 1-.59-2.14c0-1.15.4-2.1 1.2-2.83a5.1 5.1 0 0 1 3.13-1.33v-1.67h1.34l-.01 1.67c1.2.1 2.17.49 2.89 1.14a3.8 3.8 0 0 1 1.24 2.69h-2.5c-.04-.43-.2-.8-.5-1.13a2.14 2.14 0 0 0-1.14-.7l-.01 4.45c.91.22 1.66.46 2.23.7a3.4 3.4 0 0 1 1.45 1.13c.4.51.6 1.22.59 2.13zm-7.53-6.38c0 .56.16 1 .49 1.32.34.31.82.57 1.43.76l.02-4.17c-.59.07-1.06.28-1.42.64-.34.36-.52.84-.52 1.45zm3.23 8.66c.6-.1 1.08-.34 1.42-.73.34-.4.52-.87.52-1.42 0-.55-.17-.98-.51-1.28a3.5 3.5 0 0 0-1.41-.76l-.02 4.19z" fill="#fff"/><path fill-rule="evenodd" clip-rule="evenodd" d="M160.38 88.56c1.1 6.42 8.1 8.98 10.78 11.09 2.7 2.1 2.07 9.54-4.91 7.88-7-1.67-14.3-4.58-22.81-17.7l16.94-1.27zm8.95-23.77c10.63 4.31 18.56 7.96 27.27 15.92 8.72 7.96 13.05 19.44 11.63 23.95-1.42 4.5-6.02 2.77-8.55-3.94-2.53-6.72-8.7-17.93-20.83-22.7l-9.52-13.23z" fill="#F77A5E"/><path fill-rule="evenodd" clip-rule="evenodd" d="M184.2 79.48c11.06 6.86 17.52 24.46 12.84 26.55-3.12 1.38-5.4-4.34-11.66-16.2-6.54-11.8-8.54-14.93-1.17-10.35z" fill="#F77A5E"/></svg>