<svg fill="none" width="1440" height="488" xmlns="http://www.w3.org/2000/svg"><g opacity=".7"><path d="m520.76 324.48 177.81 44.72v69.07H-19.96V175.94l74.6 66.02h97L206.87 314h59.63l30-61.04 54.53-40.92 102.63 28.33 67.08 84.11z" fill="#A4C8F0"/><path d="m57.96 275.31-7.89 6.13 13.84 82.25 63.49-5.84-69.44-82.54z" fill="#7BA6DB" opacity=".3"/><path d="M74.95 275.49H57.72l69.11 82.36 23.24-2.15-75.12-80.21zm48.79-33.5h27.9l54.9 72.08h-30.32l-52.48-72.08zm300.47 13.4 29.15-15.05-101.7-28.75-55.19 41.88 127.74 1.92z" fill="#BFDDFF"/><path d="m446.42 397.34-10.4-115.08h25.1l47.03 116.09-61.73-1.01z" fill="#7BA6DB" opacity=".3"/><path d="m467.71 258.09-31.68 24.17h24.6l16.98-12.07-9.9-12.1z" fill="#BFDDFF"/><path d="M942.65 120.36 813.53 354.69H1440V149.95h-53l-42.64 102.64-64.56 20-75.72-75.72h-68.55l-76.51-76.51H942.65z" fill="#A4C8F0"/><path d="m1394 302.52-8.6-95.3h20.77l34.95 88.14-47.12 7.16z" fill="#7BA6DB" opacity=".3"/><path d="M1439.8 197.2h-46.93l-7.46 10.02h54.39V197.2zm-328.4-.1-74.12-76.89h21.7l77.3 76.89h-24.88zm205.7 112.95-112.85-113.26h-28.64l88.58 119.61 52.91-6.35z" fill="#BFDDFF"/><path d="m919.82 256.41-32.48 93.28 52.47-5.83v-94.95l-19.99 7.5zm118.18-64.1-12.91 10.04 22.66 134.6 103.89-9.55L1038 192.31z" fill="#7BA6DB" opacity=".3"/><path d="M1065.8 192.6h-28.2l113.1 134.79 38.03-3.52L1065.8 192.6z" fill="#BFDDFF"/></g><path d="m926.13 287.46-15.75 68.87 74.63-1.6-14.57-67.27-28.47 6.26-15.84-6.26z" fill="#4F7FB5"/><path d="m936.04 299.98 24.49-3.01 9.9-9.51-19.18-7.83-25.12 7.83 9.91 12.52zm-15.68 12.7 12.48 5.59 12.53-4.21-13.28 11.6-13.44-5.5 1.71-7.48z" fill="#A9CFFA"/><path d="M-.4 329.99c438.3 66.83 1068.5 13.52 1440.7-35.34v198.08H-.4V329.98z" fill="#6995C8"/><path d="M295.39 197h5.1a7.95 7.95 0 0 0 7.95-7.96v-13.39a2.4 2.4 0 0 0-2.4-2.4h-16.21a2.4 2.4 0 0 0-2.4 2.4v13.4a7.95 7.95 0 0 0 7.96 7.95z" clip-rule="evenodd" fill="#DCEEFF" fill-rule="evenodd"/><path d="M303.38 185.13h-10.9v-21.45h10.9v21.45z" clip-rule="evenodd" fill="#DCEEFF" fill-rule="evenodd"/><path d="M357.75 180.39a4.44 4.44 0 0 1-4.44 4.44h-39.98v-8.88h39.98a4.44 4.44 0 0 1 4.44 4.44z" clip-rule="evenodd" fill="#8A6ABE" fill-rule="evenodd"/><path d="M330.86 180.39a2.57 2.57 0 0 1-2.57 2.57h-14.85a.1.1 0 0 1-.11-.1v-4.94c0-.06.05-.1.1-.1h14.86a2.57 2.57 0 0 1 2.57 2.57z" clip-rule="evenodd" fill="#fff" fill-rule="evenodd"/><path d="M363.32 184.84v8.89h-43.63a4.44 4.44 0 1 1 0-8.89h43.63z" clip-rule="evenodd" fill="#FF6A6A" fill-rule="evenodd"/><path d="M363.32 186.73v5.1h-17.94a2.55 2.55 0 1 1 0-5.1h17.94zm-16.76-16.2-2.84-27.66h-8.87L332 170.53a4.92 4.92 0 0 0 4.89 5.42h4.77a4.92 4.92 0 0 0 4.89-5.42zm59.2 216.66H299.12V197.28h106.64v189.91z" clip-rule="evenodd" fill="#fff" fill-rule="evenodd"/><path d="M405.76 400.8h-6.14V197.28h6.14V400.8z" clip-rule="evenodd" fill="#fff" fill-rule="evenodd"/><path d="M399.62 400.81h-6.14v-13.62h6.14v13.62zm-37.38 0h-6.14v-13.62h6.14v13.62zm-63.12 0h-6.14v-13.62h6.14v13.62z" clip-rule="evenodd" fill="#8DB2DD" fill-rule="evenodd"/><path d="M274.02 400.81h-6.14v-13.62h6.14v13.62z" clip-rule="evenodd" fill="#E2F0FF" fill-rule="evenodd"/><path d="M305.26 400.8h-6.14V197.28h6.14V400.8z" clip-rule="evenodd" fill="#fff" fill-rule="evenodd"/><path d="M267.88 400.99h-6.14v-13.8h6.14v13.8z" clip-rule="evenodd" fill="#8DB2DD" fill-rule="evenodd"/><path d="M368.38 400.81h-6.14v-13.62h6.14v13.62z" clip-rule="evenodd" fill="#E2F0FF" fill-rule="evenodd"/><path d="M399.62 378.76h-43.1v-36.44h43.1v36.44zm-51.25 0h-43.1v-36.44h43.1v36.44zm51.25-44.58h-43.1v-36.44h43.1v36.44zm-51.25 0h-43.1v-36.44h43.1v36.44z" clip-rule="evenodd" fill="#8DB2DD" fill-rule="evenodd"/><path d="M399.62 289.6h-94.36v-36.44h94.36v36.44z" clip-rule="evenodd" fill="#5E8DC1" fill-rule="evenodd"/><path d="M399.62 289.6h-29.19v-36.44h29.19v36.44z" clip-rule="evenodd" fill="#8DB2DD" fill-rule="evenodd"/><path d="M399.62 245.02h-94.36v-36.44h94.36v36.44z" clip-rule="evenodd" fill="#5E8DC1" fill-rule="evenodd"/><path d="M399.62 245.02h-29.19v-36.44h29.19v36.44zm-100.5 142.17h-37.38V197.28h37.38v189.91z" clip-rule="evenodd" fill="#8DB2DD" fill-rule="evenodd"/><path d="M300.34 200h107.77a5.67 5.67 0 0 0 5.67-5.67v-.34H300.34V200z" clip-rule="evenodd" fill="#fff" fill-rule="evenodd"/><path d="M259.45 200h40.9v-6.01h-46.57v.34a5.67 5.67 0 0 0 5.67 5.67zm146.31 2.64H299.12v-2.63h106.64v2.63z" clip-rule="evenodd" fill="#8DB2DD" fill-rule="evenodd"/><path d="M378.47 245.02h-5.8v-22.13h5.8v22.13z" clip-rule="evenodd" fill="#DCEEFF" fill-rule="evenodd"/><path d="M384.27 245.02h-5.8v-22.13h5.8v22.13zm-11.59 0h-5.8v-22.13h5.8v22.13z" clip-rule="evenodd" fill="#CCE3FF" fill-rule="evenodd"/><path d="M351.62 245.02h15.27v-22.13h-15.27c-.81 0-1.48.66-1.48 1.47v19.18c0 .82.67 1.48 1.48 1.48z" clip-rule="evenodd" fill="#B6D4FF" fill-rule="evenodd"/><path d="M364.4 228.3h-11.78v-2.2h11.78v2.2zm-2.62 3.38h-6.53v-2.2h6.53v2.2z" clip-rule="evenodd" fill="#CCE3FF" fill-rule="evenodd"/><path d="M315.76 276.9v.47a3.92 3.92 0 0 0 3.92 3.92h33.96V273h-33.96a3.92 3.92 0 0 0-3.92 3.91z" clip-rule="evenodd" fill="#84BB3E" fill-rule="evenodd"/><path d="M338.7 277v.27a2.27 2.27 0 0 0 2.27 2.27h12.63c.03 0 .05-.02.05-.04v-4.72a.05.05 0 0 0-.04-.05h-12.64a2.27 2.27 0 0 0-2.27 2.27z" clip-rule="evenodd" fill="#DCEEFF" fill-rule="evenodd"/><path d="M311.01 281.29v8.31h37.08a3.92 3.92 0 0 0 3.92-3.92v-.47a3.92 3.92 0 0 0-3.92-3.92h-37.08z" clip-rule="evenodd" fill="#474C69" fill-rule="evenodd"/><path d="M311.01 283.06v4.76h15.22c1.25 0 2.25-1 2.25-2.24v-.27c0-1.24-1-2.25-2.25-2.25h-15.22z" clip-rule="evenodd" fill="#DCEEFF" fill-rule="evenodd"/><path d="M367.51 345.2h21.1a2.88 2.88 0 0 0 2.88-2.88h-26.86c0 1.6 1.29 2.88 2.88 2.88zm-51.25 0h21.1a2.88 2.88 0 0 0 2.88-2.88h-26.86c0 1.6 1.29 2.88 2.88 2.88zm0-44.58h21.1a2.88 2.88 0 0 0 2.88-2.88h-26.86a2.88 2.88 0 0 0 2.88 2.88zm51.25 0h21.1a2.88 2.88 0 0 0 2.88-2.88h-26.86a2.88 2.88 0 0 0 2.88 2.88z" clip-rule="evenodd" fill="#5E8DC1" fill-rule="evenodd"/><path d="M-21.12 370.29c-7 .63-13.97 1.52-20.92 2.67-4.14.68-8.67 1.71-11.13 5.11a52.7 52.7 0 0 0 13.69 2.83c.98-.02 1.95.2 2.82.65.7.55 1.31 1.19 1.84 1.9 2.57 2.78 6.87 2.86 10.65 2.74l38.29-1.24c5.2-.07 10.4-.4 15.57-1 3.65-.48 7.5-1.35 10.08-4 .35-.3.58-.71.63-1.17 0-.71-.73-1.17-1.38-1.45-3.36-1.42-7.1-1.62-10.65-2.4-3.08-.67-6.05-1.78-9.06-2.71a84.5 84.5 0 0 0-35.05-3.17l-5.38 1.24zm25.51 36.03c-.33.2-.68.48-.64.86.05.2.16.4.33.53 1.46 1.4 3.57 1.84 5.56 2.14a76.89 76.89 0 0 0 21.9.2c1.7-.23 3.63-.67 4.45-2.18a1.93 1.93 0 0 0 .18-1.62c-.37-.92-1.53-1.2-2.52-1.33-8.91-1.21-21.13-3.55-29.26 1.4z" fill="#fff" opacity=".3"/><path d="M70.09 366.38c-5.57.15-11.27-.05-16.56 1.68-.49.12-.94.37-1.3.72a1.92 1.92 0 0 0 .18 2.37c.6.62 1.37 1.04 2.22 1.22 3.46 1 7.22.5 10.62 1.64 1.34.45 2.83 1.81 2.1 3a2.4 2.4 0 0 1-1.47.94c-5.68 1.77-12.73.3-16.95 4.5-.82 1-1.7 1.94-2.64 2.82a11.04 11.04 0 0 1-4.52 1.66 180.7 180.7 0 0 0-17.41 4.63c-.74.23-1.63.69-1.56 1.46.06.58.64.93 1.16 1.17 5.3 2.43 11.4 2.38 17.17 1.58s11.46-2.3 17.27-2.63c5.28-.3 10.55.37 15.83.59 10.73.44 21.46-1 31.7-4.26 1.41-.36 2.73-1 3.9-1.85 2.93-2.41 3.05-6.95 5.47-9.88 4.13-5 13-3.39 17.1-8.41a1 1 0 0 0 .3-.82.99.99 0 0 0-.61-.51 71.76 71.76 0 0 0-27.91-6c-5.57.05-11 1.76-16.5 2.68a125 125 0 0 1-17.6 1.7zm1373.41-30.03v38.57a43.39 43.39 0 0 1-6.44-1.26c-12.08-2.77-24.66-1.7-37.05-1.92-18.89-.34-37.77-3.72-56.62-2.29-6.22.49-12.56 1.42-18.67.16-3.77-.83-7.53-2.69-9.51-5.98a3.5 3.5 0 0 1-.63-2.4c.2-.68.58-1.3 1.11-1.77 4.27-4.35 10.44-6.05 16.42-7.1 15.05-2.58 30.47-1.94 45.67-3.5a270.41 270.41 0 0 0 31.19-5.53l9.44-2.15a387.55 387.55 0 0 1 18.39-3.9 63.1 63.1 0 0 1 6.7-.93z" fill="#fff" opacity=".3"/><path d="M493.45 162.67c.01-.96-.07-1.91-.25-2.85 0-.18-.27-2.66-.32-2.66 1.99.28 2.82 3.19 4.83 3.63 2.25.17 4.51-.07 6.68-.7h.32c-.2-.46-.36-.93-.5-1.41a2.78 2.78 0 0 1 2.24 1.17c1.42-.18 2.84-.34 4.27-.37 0-.37-.14-.73-.23-1.05-.23-.57-.42-1.17-.56-1.77a5.52 5.52 0 0 1 4.1 3.08 24.9 24.9 0 0 1 8.95 3.18c.73.42 1.9.83 1.28 1.77-.16.24-.36.44-.59.59-.99.52-2.06.87-3.16 1.04-2.87.62-5.81.82-8.74.6h-.23a3.82 3.82 0 0 1-3.55 1.78c.2-.4.43-.77.7-1.13.15-.29.28-.58.4-.87-1.84-.3-3.66-.7-5.46-1.2-1.47-.4-2.84-.86-4.33-1.16a7.57 7.57 0 0 0-4.08 0c-.69.3-1.77 1.56-2.5 1.13 0-1.1.64-1.84.73-2.8zm.75 23.41a15 15 0 0 0-.21-3.07c0-.2-.25-2.87-.29-2.87 2.13.35 2.96 3.55 5.1 4 2.41.23 4.85 0 7.2-.65h.33c-.2-.5-.35-1.02-.48-1.54a3 3 0 0 1 2.38 1.31c1.52-.19 3.04-.3 4.57-.32a8.8 8.8 0 0 0-.2-1.12c-.24-.65-.43-1.33-.56-2.02a5.98 5.98 0 0 1 4.36 3.4 26.5 26.5 0 0 1 9.55 3.55c.78.47 2.02.93 1.34 1.97-.16.26-.38.48-.65.62-1.07.55-2.22.9-3.4 1.07-3.1.6-6.27.76-9.4.5h-.26a4.11 4.11 0 0 1-3.8 1.77c-.12 0 .7-1.1.75-1.2.17-.3.32-.61.45-.93a55.88 55.88 0 0 1-5.84-1.38c-1.58-.46-3.03-1-4.63-1.33a8.16 8.16 0 0 0-4.38 0c-.76.32-1.77 1.66-2.71 1.18-.04-1.13.67-1.95.78-2.94zm-29.84-10.91c0-.77-.07-1.55-.21-2.3 0-.17-.27-2.22-.3-2.24 1.66.21 2.4 2.62 4.07 2.96 1.88.1 3.77-.16 5.56-.74h.26c-.19-.4-.35-.8-.48-1.23a2.38 2.38 0 0 1 1.88.94 39.6 39.6 0 0 1 3.55-.39c-.05-.3-.12-.58-.21-.87a8.94 8.94 0 0 1-.52-1.45 4.6 4.6 0 0 1 3.55 2.5c1.52.2 3.02.55 4.47 1.06 1.03.38 2.03.84 3 1.37.6.34 1.6.66 1.1 1.49-.13.19-.3.35-.48.48a8.4 8.4 0 0 1-2.63.94 26.3 26.3 0 0 1-7.25.67h-.21a3.23 3.23 0 0 1-2.95 1.46c.16-.34.35-.66.57-.96.11-.24.21-.48.3-.73a47.04 47.04 0 0 1-4.56-.9c-1.47-.38-2.37-.68-3.63-.89a6.27 6.27 0 0 0-3.32.1c-.58.27-1.38 1.35-2.06 1-.07-.78.45-1.44.5-2.27zm-1.42 26.09c0-.8-.1-1.6-.27-2.38 0-.14-.26-2.2-.3-2.21 1.67.2 2.41 2.6 4.08 2.96a15.8 15.8 0 0 0 5.55-.75h.27a9.46 9.46 0 0 1-.43-1.17 2.39 2.39 0 0 1 1.88.94c1.18-.19 2.36-.32 3.55-.39 0-.3-.12-.6-.2-.87a8.9 8.9 0 0 1-.5-1.5 4.63 4.63 0 0 1 3.54 2.5 20.2 20.2 0 0 1 7.52 2.44c.6.36 1.6.66 1.1 1.5-.12.2-.29.36-.48.49a8.2 8.2 0 0 1-2.63.94c-2.38.56-4.83.79-7.27.67h-.2a3.2 3.2 0 0 1-2.88 1.46c.16-.33.34-.65.55-.96.13-.23.23-.47.32-.73a47.32 47.32 0 0 1-4.56-.88c-1.47-.36-2.38-.68-3.64-.89a6.36 6.36 0 0 0-3.4.1c-.57.27-1.37 1.34-2.04 1-.13-.83.39-1.5.44-2.27zm65.14-22.54c0-.8-.1-1.58-.27-2.36 0-.16-.26-2.22-.3-2.22 1.65.2 2.42 2.61 4.08 2.95 1.88.1 3.76-.15 5.55-.75h.27a8.53 8.53 0 0 1-.43-1.17 2.38 2.38 0 0 1 1.88.94 38.9 38.9 0 0 1 3.55-.39c0-.3-.12-.6-.2-.87a8.9 8.9 0 0 1-.5-1.5 4.62 4.62 0 0 1 3.54 2.5 21.5 21.5 0 0 1 7.52 2.46c.6.34 1.58.66 1.1 1.5-.13.18-.3.35-.48.49-.82.44-1.7.75-2.63.92-2.38.56-4.83.79-7.27.68h-.2a3.22 3.22 0 0 1-2.88 1.47c.15-.34.33-.66.55-.96.12-.23.23-.48.31-.73a42.07 42.07 0 0 1-4.55-.9c-1.24-.32-2.38-.68-3.55-.89a6.33 6.33 0 0 0-3.4.1c-.57.27-1.37 1.35-2.06 1.02-.2-.87.28-1.53.37-2.29zm-93.51 10.91c-.01-.8-.1-1.58-.27-2.36 0-.16-.26-2.22-.3-2.22 1.67.22 2.41 2.61 4.08 2.95 1.88.1 3.76-.15 5.55-.73h.27c-.17-.38-.3-.77-.43-1.17a2.28 2.28 0 0 1 1.88.94c1.18-.2 2.36-.32 3.55-.39 0-.3-.12-.6-.21-.87a9.23 9.23 0 0 1-.5-1.54 4.56 4.56 0 0 1 3.55 2.5 20.25 20.25 0 0 1 7.52 2.45c.6.33 1.6.65 1.1 1.49-.13.2-.29.36-.48.5-.82.45-1.7.77-2.63.93-2.38.56-4.84.78-7.29.66h-.26a3.17 3.17 0 0 1-2.9 1.47c.17-.33.36-.65.57-.96.12-.23.22-.47.3-.72a42.5 42.5 0 0 1-4.55-.9c-1.24-.31-2.38-.68-3.55-.9a6.53 6.53 0 0 0-3.4.13c-.66.25-1.46 1.31-2.17.97 0-.72.52-1.45.57-2.23zm70 17.16c0-.8-.1-1.6-.27-2.38 0-.16-.26-2.21-.3-2.21 1.65.2 2.41 2.6 4.08 2.94 1.88.1 3.76-.15 5.55-.73h.27c-.17-.38-.3-.77-.43-1.17a2.33 2.33 0 0 1 1.88.94c1.18-.19 2.36-.32 3.55-.39 0-.3-.12-.6-.2-.87-.2-.48-.38-.99-.51-1.5a4.6 4.6 0 0 1 3.55 2.5 20.26 20.26 0 0 1 7.52 2.44c.6.36 1.57.66 1.1 1.5-.13.2-.29.36-.48.49a8.2 8.2 0 0 1-2.63.94c-2.38.56-4.83.78-7.27.66h-.2a3.18 3.18 0 0 1-2.88 1.47c.16-.33.34-.65.54-.96.14-.23.24-.47.32-.73-1.56-.2-3.11-.49-4.64-.86-1.24-.3-2.38-.66-3.55-.87a6.34 6.34 0 0 0-3.4.1c-.57.27-1.37 1.33-2.06 1-.1-.87.4-1.55.46-2.31z" fill="#A7C7F2"/><mask id="a" x="633" y="98" width="25" height="9" mask-type="alpha" maskUnits="userSpaceOnUse"><path d="M657.68 98.8h-24c1 3.07 5.09 7.66 11.9 7.66 7.56 0 10.8-5.08 12.1-7.66z" fill="#FF862F"/></mask><g mask="url(#a)"><path d="M657.68 98.8h-24c1 3.07 5.09 7.66 11.9 7.66 7.56 0 10.8-5.08 12.1-7.66z" fill="#FD6423"/><circle cx="636.04" cy="100.62" r="9.46" fill="#FFB443"/></g><circle cx="639.26" cy="99.49" r="2.65" fill="#fff"/><circle cx="639.25" cy="99.49" r="1.35" fill="#0E2D5A"/><path d="m663.34 93.92-8.36 6.21 8.36 4.96V93.92z" fill="#FD6423"/><mask id="b" x="667" y="115" width="25" height="9" mask-type="alpha" maskUnits="userSpaceOnUse"><path d="M691.05 115.48h-24c1 3.07 5.09 7.67 11.9 7.67 7.56 0 10.8-5.08 12.1-7.67z" fill="#FF862F"/></mask><g mask="url(#b)"><path d="M691.05 115.48h-24c1 3.07 5.09 7.67 11.9 7.67 7.56 0 10.8-5.08 12.1-7.67z" fill="#FD6423"/><circle cx="669.42" cy="117.31" r="9.46" fill="#FFB443"/></g><circle cx="672.63" cy="116.18" r="2.65" fill="#fff"/><circle cx="672.62" cy="116.18" r="1.35" fill="#0E2D5A"/><path d="m696.72 110.61-8.36 6.21 8.36 4.96V110.6z" fill="#FD6423"/><mask id="c" x="681" y="85" width="25" height="9" mask-type="alpha" maskUnits="userSpaceOnUse"><path d="M705.88 85.82h-24c1 3.07 5.09 7.66 11.9 7.66 7.56 0 10.8-5.08 12.1-7.66z" fill="#FF862F"/></mask><g mask="url(#c)"><path d="M705.88 85.82h-24c1 3.07 5.09 7.66 11.9 7.66 7.56 0 10.8-5.08 12.1-7.66z" fill="#FD6423"/><circle cx="684.25" cy="87.64" r="9.46" fill="#FFB443"/></g><circle cx="687.46" cy="86.51" r="2.65" fill="#fff"/><circle cx="687.46" cy="86.51" r="1.35" fill="#0E2D5A"/><path d="m711.55 80.94-8.36 6.21 8.36 4.96V80.94z" fill="#FD6423"/><path d="M624.02 155.78c-1.88-3.67-5.04-4.42-9.92-3.01l9.11 22.37c1.04-4.92 2.96-15.16.81-19.36z" fill="#4A2923"/><path d="M663.93 324.67c-27.77-4.24-64.46-1.77-79.33 0v16.93h79.33v-16.93z" fill="#6B95D4"/><path d="M563.84 273.86c1.82-33.45 17.13-40.85 31.24-42.04v85.81c-18.92 2.04-33.07-10.28-31.24-43.77z" fill="#2C4786"/><path d="M570.11 273.86c1.66-33.45 15.6-40.85 28.47-42.04v85.81c-17.25 2.04-30.13-10.28-28.47-43.77z" fill="#6B95D5"/><path fill="#2C4786" d="M627.52 348.26h11.05v27.97h-11.05z"/><path d="M626.07 384.08v-5.53a3.03 3.03 0 0 1 3.03-3.03h8.29a3.03 3.03 0 0 1 3.03 3.03v5.49c0 5.84 4.16 10.85 9.9 11.92l28.83 5.4a3.03 3.03 0 0 1 2.47 2.99v1.9c0 1.78-1.5 3.18-3.27 3.04-8.15-.65-29.7-2.25-44.66-2.25s-36.52 1.6-44.66 2.25a3.04 3.04 0 0 1-3.28-3.04v-1.91c0-1.46 1.03-2.7 2.46-2.98l28.01-5.37c5.72-1.1 9.85-6.1 9.85-11.91z" fill="#E3E5F1"/><mask id="d" x="566" y="298" width="97" height="58" mask-type="alpha" maskUnits="userSpaceOnUse"><path d="M577.92 339.19c-8.08-9.32-11.06-29.85-11.42-40.85l13.1 3.18c1.04 23.12 11.55 35.94 16.67 39.46l65.77 3.9s-11.36 9.16-28.25 10.38c-22.2 1.59-42.59-.75-55.87-16.07z" fill="#BDC1DD"/></mask><g mask="url(#d)"><path d="M577.92 339.19c-8.08-9.32-11.06-29.85-11.42-40.85l13.1 3.18c1.04 23.12 11.55 35.94 16.67 39.46l65.77 3.9s-11.36 9.16-28.25 10.38c-22.2 1.59-42.59-.75-55.87-16.07z" fill="#9DAED9"/><path d="M576.95 325.81c-4.86-11.14-4.5-20.24-4.86-31.24l13.1 3.18c1.04 23.12 11.55 35.95 16.67 39.47l11.71-4.42s-21.8 27-36.62-6.99z" fill="#E3E5F1"/></g><path d="M632.25 348.42c-19.49-.19-31.35-2.78-39.8-5.81a3.6 3.6 0 0 1-2.37-3.41 3.66 3.66 0 0 1 4.47-3.59c9.8 2.25 20.44 4.92 37.7 4.92 17.02 0 26.78-2.6 33.4-4.75v8.61c-3.4.68-16.57 4.2-33.4 4.03z" fill="#2C4786"/><mask id="e" x="590" y="150" width="39" height="61" mask-type="alpha" maskUnits="userSpaceOnUse"><path d="M616.04 152.16c-7.05-2.92-15.23-1.48-21.13 4.56-2.59 2.65-4.79 5.33-4.79 8.17s3.8 31.96 5.7 45.54l33-3.8c-1.33-16.52-5.73-51.55-12.78-54.47z" fill="#FFAE95"/></mask><g mask="url(#e)"><path d="M616.04 152.16c-7.05-2.92-15.23-1.48-21.13 4.56-2.59 2.65-4.79 5.33-4.79 8.17s3.8 31.96 5.7 45.54l33-3.8c-1.33-16.52-5.73-51.55-12.78-54.47z" fill="#FFB4AB"/><path d="M592.19 183.63c19.2 19.03 34.66 13.46 34.66-.73l5.02 16.63-9.01 10.92-28.93-8.84-1.74-17.98z" fill="#FA9D92"/></g><path d="m592.91 170.05 1.79 2.48s.68-5.17.57-8.47a96.07 96.07 0 0 0-.57-6.78c1.26-1.42 5.08-4.56 11.28-5.78 6.2-1.21 10.93 1.54 12.55 3.24 3.22-1.76 4.14-6.41 4.03-8.39l-2.5.53c.55-2.32.38-3.85 0-5.01-5.62 1.14-16.4-5.47-23.7-1.14-5.83 3.46-6.23 10.3-5.7 13.3-5.46 2.65-5.31 9.18-4.33 15.16.8 4.79 5.3 7.75 6.81 9.02l-.23-8.16z" fill="#4A2923"/><path d="M586.28 177.07c.54-2.66 3.82-2.35 5.27-.47l.92 7.16c-3.55-.07-6.87-3.36-6.19-6.69z" fill="#FFAE95"/><path d="M630.56 170.01a8.74 8.74 0 0 0-8.74-8.74h-16.97a8.74 8.74 0 1 0 0 17.48h16.97a8.74 8.74 0 0 0 8.74-8.74z" fill="#587ACC"/><path d="M633.47 170.01a8.74 8.74 0 0 0-8.74-8.74h-15.44a8.74 8.74 0 1 0 0 17.48h15.44a8.74 8.74 0 0 0 8.74-8.74z" fill="#fff"/><mask id="f" x="602" y="162" width="30" height="16" mask-type="alpha" maskUnits="userSpaceOnUse"><path d="M631.8 170.01c0-3.9-3.17-7.08-7.08-7.08H609.3a7.07 7.07 0 1 0 0 14.15h15.43a7.07 7.07 0 0 0 7.08-7.07z" fill="#AECBED"/></mask><g mask="url(#f)"><path d="M631.8 162.94h-29.59v14.15h29.59v-14.15z" fill="#9DAED9"/><path d="M616.04 151.64c-7.05-2.92-15.23-1.48-21.13 4.56-2.59 2.65-4.79 5.33-4.79 8.17s3.8 31.96 5.7 45.54l33-3.8c-1.33-16.52-5.73-51.55-12.78-54.47z" fill="#FFB4AB"/><circle cx="610.35" cy="170.24" r="1.67" fill="#432F33"/><circle cx="621.47" cy="170.24" r="1.67" fill="#432F33"/></g><path d="m618.92 173.48 6.12 7.32h-13.46l4.92-7.2a1.52 1.52 0 0 1 2.42-.12z" fill="#141A42"/><path d="M617.62 192.77a7.76 7.76 0 0 1 0-15.49v-.01h5.65v1.97a7.74 7.74 0 0 1 0 11.57v1.97h-5.65v-.01z" clip-rule="evenodd" fill="#141A42" fill-rule="evenodd"/><circle transform="matrix(-1 0 0 1 623.26 185.03)" r="7.76" fill="#587ACC"/><circle cx="623.26" cy="185.03" r="3.88" fill="#E9EEFF"/><mask id="g" x="570" y="98" width="42" height="91" mask-type="alpha" maskUnits="userSpaceOnUse"><path d="M597.46 182.86h14.39v5.22H594.8a7.58 7.58 0 0 1-7.44-6.1l-16.63-83.51h5.05l15.73 79.5a6.07 6.07 0 0 0 5.95 4.89z" fill="#587ACC"/></mask><g mask="url(#g)"><path d="M597.46 182.86h14.39v5.22H594.8a7.58 7.58 0 0 1-7.44-6.1l-16.66-83.7h5.05l15.76 79.7a6.07 6.07 0 0 0 5.95 4.88z" fill="#587ACC"/><path d="m589.34 179.74-18.06-90.62h-3.66l18.43 92.76a7.58 7.58 0 0 0 7.44 6.1h20.2v-2.14h-16.91a7.58 7.58 0 0 1-7.44-6.1z" fill="#141A42" opacity=".3"/></g><path d="M713.15 211.53c-2.62-.11-11.72 8.19-14.85 11.32l4.42 9.6c2.2-.7 6.89-1.15 9.6-2.29 2.33-.98 7.21-7.54 9.25-11.1 1.42.38 5.91.91 6.71 0 1-1.14-11.86-7.39-15.13-7.53z" fill="#FFAE95"/><path d="m656.58 232.47-23.36-20.83a10.82 10.82 0 0 0-14.47 16.1l27.4 24.84a19.67 19.67 0 0 0 22.42 2.81l37.6-19.93-8.3-15.35-33.36 13.71a7.58 7.58 0 0 1-7.93-1.35z" fill="#fff"/><mask id="h" x="585" y="197" width="68" height="99" mask-type="alpha" maskUnits="userSpaceOnUse"><path d="m618.3 205.02-5.5-6.9a1.53 1.53 0 0 0-1.6-.5l-17.83 5.02c-.2 9.08-1.48 31.8-5.03 50.04-5.48 28.1-2.26 35.9 1.79 43.1l60.39-4.9c5.42-20.57-4.64-30.63-10.66-52.71-2.6-9.5-6.92-30.03-9.34-38.98l-5.4-1.7a1.5 1.5 0 0 0-1.88.9l-2.34 6.22a1.52 1.52 0 0 1-2.6.41z" fill="#A9AB46"/></mask><g mask="url(#h)"><path d="m618.3 205.02-5.5-6.9a1.53 1.53 0 0 0-1.6-.5l-17.83 5.02c-.2 9.08-1.48 31.8-5.03 50.04-5.48 28.1-2.26 35.9 1.79 43.1l60.39-4.9c5.42-20.57-4.64-30.63-10.66-52.71-2.6-9.5-6.92-30.03-9.34-38.98l-5.4-1.7a1.5 1.5 0 0 0-1.88.9l-2.34 6.22a1.52 1.52 0 0 1-2.6.41z" fill="#FF6A6A"/><path d="M622.77 296.76c-10.21-5.32-25.89-47.08-32.45-67.3l37.24 49.48 23.67 2.66 4.52 9.04c-6.74 4.26-22.77 11.44-32.98 6.12z" fill="#7A0000" opacity=".25"/><path d="M619.77 204.66c4.36 19.13 12.84 64.13 11.87 91.06" stroke="#fff" stroke-width="1.18"/><path d="m610.79 209.94.8-12.59-17.87 2.21-.84 5.33 15.83 6.36c.96.38 2.01-.28 2.08-1.31zm15.84-1.96-2.23-10.92 5.69.6 3.59 8.2-4.74 3.09c-.9.58-2.1.08-2.31-.97z" fill="#DE4F4F"/></g><path d="m729.32 389.04-14.86-14.75-10.57 11.4 22.19 22.6c11.26-6.42 33.32-19.92 31.49-22.62-1.83-2.69-19.6 1.13-28.25 3.37zm-85.94-.85 6.84-11.07-12.21-8.3-13.67 18.4c2.82 7.26 10.8 19.43 13.67 20.34 3.58 1.14 23.93 6.02 24.42 1.95.39-3.25-9.96-6.83-13.63-9.51l-5.42-11.81z" fill="#0E1B3E"/><path d="m686.66 305.25-36.87-9.44-33.73 3.69 6.8 34.19 32.05 1.66-20.74 34.15s1.18 4.8 6.56 8.76c6.02 4.44 11.64 3.69 11.64 3.69l42.33-52.5a15.16 15.16 0 0 0-8.04-24.2z" fill="url(#i)"/><path d="m593.36 313.56-4.45-12.31 38.24-2.31 30.7 8.57a45.49 45.49 0 0 1 23.55 15.73l42.28 53.87s-.92 5.58-6.38 10.23c-6.03 5.16-11.45 5.16-11.45 5.16l-50.62-57.6-34.51-1.33a30.32 30.32 0 0 1-27.36-20.01z" fill="url(#j)"/><path d="m653.03 294.59-.46-3.93a1.51 1.51 0 0 0-1.72-1.33c-4.76.7-19.54 2.8-29.69 3.55-12.17.92-31.23.94-31.23.94v7.66s20.19-.14 33.05-1.3c9.89-.9 24.28-3.19 28.8-3.93a1.5 1.5 0 0 0 1.25-1.66z" fill="#445D93"/><path d="M616.6 209.9c-.93 1-.13 5.5 2.27 7.54 1.33 1.13 5.04.92 5.83 0 1.27-1.47 1.7-5.27 1.1-7.54-.6-2.27-7.29-2.05-9.2 0z" fill="#FFCD4B"/><path d="M622.31 264.29c-.34-2-2.34-31.28-3.14-47.1h5.57c3.44 13.96 10.3 42.53 10.3 45.13 0 1.97-3.24 8.55-5.1 8.64-1.86.1-7.3-4.73-7.63-6.67z" fill="#FFCD4B"/><path d="M627.35 208.7c-1.18 2.41-3.14 4.89-6.1 5.13-2.8.23-5.53-1.52-7.63-3.42a30.23 30.23 0 0 1-5-5.94l2.14-1.34a27.67 27.67 0 0 0 4.54 5.42c2.02 1.81 4.05 2.91 5.75 2.77 1.56-.12 2.95-1.5 4.04-3.73a17.92 17.92 0 0 0 1.7-6.32l2.5.13c-.1 1.93-.73 4.82-1.94 7.3z" clip-rule="evenodd" fill="#FFCD4B" fill-rule="evenodd"/><path d="m607.88 207.49-15.1-2.61v-3.86c4.47-2.59 14.3-3.4 18.66-3.48l-1.82 8.76c-.16.8-.93 1.33-1.74 1.19zm21.02-2.04-4.27-8.1c1.53 0 4.8.27 5.68 1.35.88 1.09 1.78 4.8 2.12 6.53l-1.43.83c-.75.43-1.7.15-2.1-.61z" fill="#fff"/><path d="M768.5 434.36h7.76v9.93a3.88 3.88 0 1 1-7.76 0v-9.93zm98.7-25.07a3.88 3.88 0 1 1 7.76 0v8.57a3.88 3.88 0 1 1-7.76 0v-8.57z" fill="#474C69"/><mask id="k" x="663" y="285" width="219" height="154" mask-type="alpha" maskUnits="userSpaceOnUse"><path d="M663.39 430.66V296.4l120.02 5.63 97.97-16.87v123.77l-102.06 29.92-115.92-8.19z" fill="#E3E5F1"/></mask><g mask="url(#k)"><path d="M663.39 430.66V296.4l120.02 5.63 97.97-16.87v123.77l-102.06 29.92-115.92-8.19z" fill="#E3E5F1"/><path d="m779.5 312.88-118.9-7.32v-12.03l118.9 5.6 103.82-15.94v11.6L779.5 312.88z" fill="#142756" opacity=".2"/><path d="M779.15 298.44v143.64l105.01-30.68V281.89l-105.01 16.55z" fill="#fff"/><path d="m779.5 312.88-118.9-7.32v-12.03l118.9 5.6 103.82-15.94v11.6L779.5 312.88z" fill="#364773" opacity=".2"/></g><mask id="l" x="651" y="389" width="46" height="51" mask-type="alpha" maskUnits="userSpaceOnUse"><path d="M651.58 389.24h45.22l-4.76 47.72s-6.69 2.86-17.85 2.86-17.85-2.86-17.85-2.86l-4.76-47.72z" fill="#B3C5EA"/></mask><g mask="url(#l)"><path d="M651.58 389.24h45.22l-4.76 47.72s-6.69 2.86-17.85 2.86-17.85-2.86-17.85-2.86l-4.76-47.72z" fill="#B3C5EA"/><path d="M658.07 386.27h-9.24l4.9 53.81h8.14l-3.8-53.81z" fill="#364773" opacity=".2"/><path d="M650.53 410.37s7.3 5.72 23.99 5.72c16.69 0 23.99-5.72 23.99-5.72" opacity=".8" stroke="#fff" stroke-width="9.1"/></g><ellipse cx="674.25" cy="389.42" rx="22.54" ry="3.76" fill="#0E1B3E"/><path d="m783.21 292.12-128.73-4.38v8.92l128.73 5.86v-10.4z" fill="#C56C2A"/><path d="m776.79 272.19-122.4 15.48 128.73 4.65 109.66-16.38-115.98-3.75z" fill="#D58448"/><path d="M716.52 280.97c0 4.1-6.16 4.62-13.76 4.62s-13.75-.52-13.75-4.62 6.16-7.43 13.76-7.43 13.75 3.33 13.75 7.43z" fill="#fff"/><path d="M699.79 267.28c-1.66 0-7.94 2.47-13.43 5.05l6.5 1.38 6.93-2.67c4.02 2.16 6.37 4.25 7.8 3.15 1.6-1.25-5.77-6.91-7.8-6.91z" fill="#FFAE95"/><path d="M685.52 272.59h-7.3v12.46c9.2.4 28.04.99 29.8 0 1.75-1-2-2.52-2-2.52 2 .82 6.06 2.43 5.62.26-.27-1.27-9-7.73-13.95-11.3a7.48 7.48 0 0 0-7.11-.88l-5.06 1.98z" fill="#FFAE95"/><path d="m636.21 261.96-22.67-42.37a12.7 12.7 0 1 0-22.4 11.98l23.6 44.06a22.74 22.74 0 0 0 20.05 12.01h46.73v-17.4l-39.45-4.32a7.58 7.58 0 0 1-5.86-3.96z" fill="#fff"/><path d="M892.94 276.04 783.2 292.23v10.24l109.74-17.69v-8.74z" fill="#B45E1F"/><path d="M844.56 237.45v-66.52" stroke="#84BB3E" stroke-linecap="round" stroke-linejoin="round" stroke-width="1.52"/><path d="M836.4 222.58c-2.21-1.28-3.48-3.56-3.82-6.87 3.02-1.35 5.64-1.4 7.85-.12 2.22 1.28 3.46 3.55 3.73 6.81-2.96 1.4-5.55 1.46-7.76.18z" clip-rule="evenodd" fill="#84BB3E" fill-rule="evenodd"/><path d="M836.4 204.66c-2.21-1.28-3.48-3.56-3.82-6.87 3.02-1.35 5.64-1.4 7.85-.12 2.22 1.28 3.46 3.55 3.73 6.81-2.96 1.4-5.55 1.46-7.76.18z" clip-rule="evenodd" fill="#5E8F46" fill-rule="evenodd"/><path d="M836.4 187.83c-2.21-1.28-3.48-3.56-3.82-6.87 3.02-1.35 5.64-1.4 7.85-.12 2.22 1.28 3.46 3.55 3.73 6.81-2.96 1.4-5.55 1.46-7.76.18z" clip-rule="evenodd" fill="#84BB3E" fill-rule="evenodd"/><path d="M852.37 229.79c2.21-1.28 3.48-3.56 3.82-6.87-3.03-1.35-5.64-1.4-7.86-.12-2.2 1.28-3.45 3.55-3.72 6.81 2.96 1.4 5.55 1.46 7.76.18z" clip-rule="evenodd" fill="#5E8F46" fill-rule="evenodd"/><path d="M852.37 214.03c2.21-1.28 3.48-3.56 3.82-6.87-3.03-1.35-5.64-1.4-7.86-.12-2.2 1.28-3.45 3.55-3.72 6.81 2.96 1.4 5.55 1.46 7.76.18zm0-17.91c2.21-1.28 3.48-3.56 3.82-6.87-3.03-1.35-5.64-1.4-7.86-.12-2.2 1.28-3.45 3.55-3.72 6.81 2.96 1.4 5.55 1.46 7.76.18z" clip-rule="evenodd" fill="#84BB3E" fill-rule="evenodd"/><path d="M851.86 178.65c1.64-1.96 2.06-4.54 1.24-7.76-3.3-.24-5.78.62-7.42 2.57-1.64 1.96-2.03 4.52-1.17 7.68 3.26.3 5.7-.53 7.35-2.49z" clip-rule="evenodd" fill="#5E8F46" fill-rule="evenodd"/><mask id="m" x="827" y="234" width="34" height="43" mask-type="alpha" maskUnits="userSpaceOnUse"><path d="M853.31 234.73h-17.85s-7.55 23.79-7.55 32c0 6.33 5.03 10.21 5.03 10.21h22.88s5.03-3.6 5.03-10.22c0-8.2-7.54-31.99-7.54-31.99z" fill="#fff"/></mask><g mask="url(#m)"><path d="M853.31 234.73h-17.85s-7.55 23.79-7.55 32c0 6.33 5.03 10.21 5.03 10.21h22.88s5.03-3.6 5.03-10.22c0-8.2-7.54-31.99-7.54-31.99z" fill="#B6C8E9"/><path d="M859.6 234.73h-17.85s-7.55 23.79-7.55 32c0 6.33 5.03 10.21 5.03 10.21h22.88s5.03-3.6 5.03-10.22c0-8.2-7.54-31.99-7.54-31.99z" fill="#fff"/><path d="M823.31 255.42h39.87" opacity=".7" stroke="#9DB1D9" stroke-width="5.05"/></g><path d="M565.48 285.31a6.29 6.29 0 0 0-2.28 12.15l30.3 7.82 8.46-11.92-29.26-7.66c-.78-.2-1.42-.39-2.2-.39h-5.02z" fill="#9DAED9"/><rect x="588.12" y="292.85" width="17.6" height="12.57" rx="6.29" fill="#fff"/><circle cx="592.52" cy="417.78" r="6.74" fill="#0E1B3E"/><circle cx="633.69" cy="417.78" r="6.74" fill="#0E1B3E"/><path d="m749.77 161.03-12.76 81.18a3.77 3.77 0 0 0 2.28 4.08l5.77 3.48 2.9-3.92 43.7-4.48a6.29 6.29 0 0 0 5.57-5.32l10.66-70.98 5.21-7.02-5.5-3.31a3.74 3.74 0 0 0-2.55-.87l-49.3 1.85a6.3 6.3 0 0 0-5.98 5.31z" clip-rule="evenodd" fill="#9DB1D9" fill-rule="evenodd"/><mask id="n" x="743" y="157" width="73" height="94" mask-type="alpha" maskUnits="userSpaceOnUse"><path d="m743.3 245.96 12.79-81.34a6.07 6.07 0 0 1 5.76-5.12l49.47-1.86a3.8 3.8 0 0 1 3.89 4.35l-11.71 78a6.07 6.07 0 0 1-5.38 5.14l-50.69 5.19a3.79 3.79 0 0 1-4.13-4.36z" fill="#fff"/></mask><g mask="url(#n)"><path d="m743.3 245.96 12.79-81.34a6.07 6.07 0 0 1 5.76-5.12l49.47-1.86a3.8 3.8 0 0 1 3.89 4.35l-11.71 78a6.07 6.07 0 0 1-5.38 5.14l-50.69 5.19a3.79 3.79 0 0 1-4.13-4.36z" fill="#fff"/><path d="m765.49 250.9 10.54-53.25h13.66l-9.96 51.9-14.24 1.35z" fill="url(#o)" opacity=".4"/></g><path d="m794.59 285.32 36.73-7.15v-4.68l-36.73 3.5-43.44 3.78v3.77l43.44.78z" fill="#9DB1D9"/><path d="m794.59 280.77 36.73-7.28-31.23-.66-50.8 7.94h45.3z" fill="#fff"/><mask id="p" x="773" y="197" width="32" height="80" mask-type="alpha" maskUnits="userSpaceOnUse"><path d="m775.91 197.38-2.4 9.95 5.04 1.36a12.13 12.13 0 0 1 8.97 11.71v56.02h7.96l9.07-.88v-61.37c0-5.73-3.24-10.97-8.36-13.55l-6.46-3.24h-13.82z" fill="#BDC1DD"/></mask><g mask="url(#p)"><path d="m775.91 197.38-2.4 9.95 5.04 1.36a12.13 12.13 0 0 1 8.97 11.71v56.04h7.83l9.2-.9v-61.37c0-5.73-3.24-10.97-8.36-13.55l-6.46-3.24h-13.82z" fill="#B3C9EA"/><path d="m786.25 201.82-11.16-4.75-3.23 11.02 13.77 7.35.84 61.02h9.01v-60.69c0-6.08-3.63-11.57-9.23-13.95z" fill="#9DB1D9"/></g><mask id="q" x="735" y="261" width="28" height="25" mask-type="alpha" maskUnits="userSpaceOnUse"><path d="M758.32 261.06H739.7s-4.09 9.12-4.09 15.8c0 5.16 4.1 8.3 4.1 8.3h18.61s4.1-2.92 4.1-8.3c0-6.68-4.1-15.8-4.1-15.8z" fill="#5A76C1"/></mask><g mask="url(#q)"><path d="M758.32 261.06H739.7s-4.09 9.12-4.09 15.8c0 5.16 4.1 8.3 4.1 8.3h18.61s4.1-2.92 4.1-8.3c0-6.68-4.1-15.8-4.1-15.8z" fill="#658841"/><path d="M763.9 261.06h-18.61s-4.1 9.12-4.1 15.8c0 5.16 4.1 8.3 4.1 8.3h18.61s4.1-2.92 4.1-8.3c0-6.68-4.1-15.8-4.1-15.8z" fill="#90B968"/><path d="M732.58 273.18h32.05" opacity=".5" stroke="#fff" stroke-width="4.21"/></g><path d="M606.65 158.5c-2.62 1.08-3.5 2.78-4.3 2.68-1.45-.19.81-3.08 2.6-4.16 1.92-1.16 5.07-1.59 5.23 0 .16 1.6-2.1.89-3.53 1.48zm9.51-2.16c-.88-.05-2.38.26-2.24 1.26.12.93 1.37.8 2.24.88 2 .19 3.36 2.45 3.46 1.3s-1.31-3.32-3.46-3.44z" fill="#4A2923"/><path d="M1075 170.95h170a5 5 0 0 1 5 5v218.16a5 5 0 0 1-5 5h-165a5 5 0 0 1-5-5V170.95z" fill="#29478A"/><path d="M1075 170.95h130v223.16a5 5 0 0 1-5 5h-120a5 5 0 0 1-5-5V170.95z" fill="#D2E7FF"/><path d="M1207.1 399.11h8v4a4 4 0 1 1-8 0v-4z" fill="#0E2D5A"/><path d="M1074.9 355.94h130.39" stroke="#8DB2DD"/><path d="M1122 362.94h30a6 6 0 0 1-6 6h-18a6 6 0 0 1-6-6z" fill="#8DB2DD"/><path d="M1074.9 285.94h130.39m-130.39 35h175.39" stroke="#8DB2DD"/><path d="M1111.9 399.11h8v4a4 4 0 1 1-8 0v-4zm-29.8 0h8v4a4 4 0 1 1-8 0v-4zm154.8 0h8v4a4 4 0 1 1-8 0v-4z" fill="#0E2D5A"/><mask id="r" x="1090" y="204" width="101" height="56" mask-type="alpha" maskUnits="userSpaceOnUse"><path d="M1090 209.11a5 5 0 0 1 5-5h90a5 5 0 0 1 5 5v45a5 5 0 0 1-5 5h-90a5 5 0 0 1-5-5v-45z" fill="#8DB2DD"/></mask><g mask="url(#r)"><path d="M1090 209.11a5 5 0 0 1 5-5h90a5 5 0 0 1 5 5v45a5 5 0 0 1-5 5h-90a5 5 0 0 1-5-5v-45z" fill="#5E8DC1"/><path d="M1090 204.11h100v21.4h-79.14a8 8 0 0 1-6.26-3.02L1090 204.1z" fill="#8DB2DD"/></g><path d="M1094.9 151.56h130.12l-20 19.4H1074.9l20-19.4z" fill="#fff"/><path d="M1232.1 151.63h-6.97l-20.14 19.33h32.11v-14.33a5 5 0 0 0-5-5z" fill="#29478A"/><mask id="s" x="1106" y="159" width="75" height="26" mask-type="alpha" maskUnits="userSpaceOnUse"><path d="M1124.1 162.18a8.01 8.01 0 0 1 5.88-2.58h48.98a2 2 0 0 1 1.47 3.36l-17.53 19a7.98 7.98 0 0 1-5.88 2.58h-48.97a2 2 0 0 1-1.47-3.36l17.52-19z" fill="#6995C8"/></mask><g mask="url(#s)"><path d="M1124.1 162.18a8.01 8.01 0 0 1 5.88-2.58h48.98a2 2 0 0 1 1.47 3.36l-17.53 19a7.98 7.98 0 0 1-5.88 2.58h-48.97a2 2 0 0 1-1.47-3.36l17.52-19z" fill="#6995C8"/><path d="m1143.2 158.73-29.39 31.69m39.39-31.69-29.39 31.69m39.39-31.69-29.39 31.69m39.39-31.69-29.39 31.69m-28.01-20.46h64.68m-70.68 8h64.68" stroke="#C6DCF5" stroke-width=".7"/><path d="m1127.6 165.48-20.13 21.23h-7.17l24.34-27.93h58.9l-2.37 5.14h-49.94a5 5 0 0 0-3.63 1.56z" fill="#8DB2DD"/></g><path d="M1052.2 245.76a2 2 0 0 1 1.9-2.62h20.89v42.8h-6.02a5 5 0 0 1-4.75-3.45l-12.02-36.73zm152.9 32.08h65.21a2 2 0 0 1 2 2v4a2 2 0 0 1-2 2h-65.21v-8z" fill="#5E8DC1"/><path d="M1212.1 263.84a3 3 0 0 1 3-3h25.21a3 3 0 0 1 3 3v14h-31.21v-14z" fill="#0A264F"/><path d="M1122 292.94h30a6 6 0 0 1-6 6h-18a6 6 0 0 1-6-6zm0 35h30a6 6 0 0 1-6 6h-18a6 6 0 0 1-6-6z" fill="#8DB2DD"/><path fill="#FFC0B2" d="M1006.5 386.91h13.42v22.98h-13.42z"/><path d="M1019.9 407.06h-13.69l-2.38 9.95a2 2 0 0 0 1.94 2.47h35.28c2.22 0 2.79-3.06.73-3.87l-21.88-8.55z" fill="#0E1B3E"/><path d="m1073.8 410.59-4.62-21.14 12.36-2.17 4.68 20.19-12.42 3.12z" fill="#FFC0B2"/><path d="m1085.9 406.05-12.36 3.16.91 9.71a2 2 0 0 0 2.59 1.73l29.38-9.25c2.1-.67 1.74-3.75-.46-3.9l-20.06-1.45z" fill="#0E1B3E"/><path d="m1002.4 202.89 3.03-12.4h46.98l33.63 198.6a1 1 0 0 1-.83 1.15l-19.98 3.12a1 1 0 0 1-1.13-.76l-32.94-138.15-8.13 138.11a1 1 0 0 1-1 .94h-18.94a1 1 0 0 1-1-.98l-2.52-164.4c-.13-8.49.82-16.97 2.83-25.23z" fill="#474C69"/><path d="M1047.2 94.72c3.99-5.07 3.93-19.75-.77-27.5-4.29-7.08-13.7-7.06-17.51-6.44-4.76.76-12.9 4.14-12.44 16.74s8.6 19.81 15.05 21.5c6.45 1.7 11.67.77 15.67-4.3z" fill="#FFC0B2"/><path d="M1023.5 94.15h11.97l2.93 14.44h-14.9V94.15z" fill="#FFC0B2"/><path d="M1046.2 83.34c2.72-2.57 3.16-6.98 2.94-8.9 2.34-4.3 4.71-10.44 2.98-12.25-1.44-1.5-4.04-.37-5.92 0 1.05-.99 2.94-4.7 0-6-2.53-1.11-13.74-.37-21.78 2.77-6.43 2.52-8.53 5.2-7.21 10.17-12.18 6.72 1.75 22.67 4.23 24.68 3.84 3.1 6.43 2.78 12.24 2.19 4.64-.47 8.33-5.55 9.07-7.8a7.26 7.26 0 0 1-3.45-3.68c-.67-1.47-.96-5.37 2.64-5.74 2.88-.29 4.04 2.92 4.26 4.56z" fill="#D34721"/><circle cx="1010.8" cy="65.14" r="10" fill="#D34721"/><path d="M1016.5 104.63c0-1.1.9-2 2-2h21.56a2 2 0 0 1 2 2v3.48h-25.56v-3.48z" fill="#474C69"/><path d="M1053 108.11h-47.72a10 10 0 0 0-9.74 7.71l-3.06 13 10.22 8.64v55.95h51.36l2.22-47.44 13.8-18.48-8.45-14.43a10 10 0 0 0-8.63-4.95z" fill="#AFB055"/><path d="m1087.3 167.75-18.46-38.59-12.27 16.53 16.84 30.64a10.01 10.01 0 0 0 8.77 5.18h53.45c-2.53-12.12-11.04-6.33-16.46-6.15-4.35.15-23.06-5.48-31.87-7.61zm-99.2-7.41 6.42-29.8 8.4 6.88v32.4l-10.3-2.37a6 6 0 0 1-4.52-7.11z" fill="#FFC0B3"/><path d="m840.33 82.05 1.44-.82 1.9 3.26-1.44.82-1.9-3.26z" clip-rule="evenodd" fill="#474C69" fill-rule="evenodd"/><path d="m841.15 79.95-1.64.94a.83.83 0 0 0 .83 1.44l1.63-.94c.4-.23.53-.74.3-1.14a.82.82 0 0 0-1.12-.3z" fill="#474C69"/><mask id="t" x="825" y="83" width="46" height="43" mask-type="alpha" maskUnits="userSpaceOnUse"><path d="M844.51 83.87a4.77 4.77 0 0 1 6.46 1.8l2.28 3.93 2.65-1.51a4.76 4.76 0 0 1 6.46 1.8l7.18 12.4a4.7 4.7 0 0 1-1.68 6.45l-28.3 16.18a4.77 4.77 0 0 1-6.47-1.8l-7.18-12.4a4.7 4.7 0 0 1 1.68-6.46l2.65-1.51-2.27-3.93a4.7 4.7 0 0 1 1.68-6.46l14.86-8.5z" clip-rule="evenodd" fill="#98C4F5" fill-rule="evenodd"/></mask><g mask="url(#t)"><path d="M844.51 83.87a4.77 4.77 0 0 1 6.46 1.8l2.28 3.93 2.64-1.51a4.77 4.77 0 0 1 6.47 1.8l7.18 12.4a4.7 4.7 0 0 1-1.68 6.46l-28.3 16.17a4.76 4.76 0 0 1-6.47-1.8l-7.18-12.4a4.7 4.7 0 0 1 1.68-6.46l2.65-1.51-2.27-3.93a4.7 4.7 0 0 1 1.68-6.46l14.86-8.49z" clip-rule="evenodd" fill="#76A6DE" fill-rule="evenodd"/><path d="M840.18 86.36a4.77 4.77 0 0 1 6.47 1.8l2.27 3.92 2.65-1.51a4.77 4.77 0 0 1 6.47 1.8l7.18 12.39a4.7 4.7 0 0 1-1.68 6.45l-23.97 13.71a4.77 4.77 0 0 1-6.47-1.8l-7.18-12.39a4.7 4.7 0 0 1 1.68-6.45l2.65-1.51-2.28-3.93a4.7 4.7 0 0 1 1.68-6.45l10.53-6.03z" clip-rule="evenodd" fill="#98C4F5" fill-rule="evenodd"/><rect transform="matrix(.86956 -.49262 .48846 .87251 831.22 107.22)" width="23.3" height="14.99" rx="1.68" fill="#fff"/><path d="m834.02 104.44 8.85 15.33m-10.02-7.61 21.84-12.6m-19.35 16.9 21.84-12.6m-18.85-1.91 8.85 15.33m-4.54-17.82 8.85 15.33m-4.54-17.82 8.85 15.34" stroke="#98C4F5" stroke-width=".84"/><path fill="#709CDD" d="m823.64 95.3 25.96-14.81 4.75 8.54-25.96 14.8z"/></g><path d="m828.55 88.99 1.44-.82 1.9 3.26-1.44.82-1.9-3.26z" clip-rule="evenodd" fill="#474C69" fill-rule="evenodd"/><path d="m829.38 86.89-1.64.94a.83.83 0 0 0 .83 1.44l1.64-.94a.84.84 0 0 0 .3-1.14.82.82 0 0 0-1.13-.3z" fill="#474C69"/><path d="m841.62 123.68 2.67-1.53.89 1.53a1.54 1.54 0 0 1-2.67 1.53l-.89-1.53zm21.52-12.69 2.67-1.53.89 1.54a1.54 1.54 0 0 1-2.67 1.52l-.89-1.53z" clip-rule="evenodd" fill="#474C69" fill-rule="evenodd"/><mask id="u" x="810" y="73" width="56" height="29" mask-type="alpha" maskUnits="userSpaceOnUse"><path d="M820.41 89.27c3.48 2.01 4.38 4.22 2.71 6.62-2.5 3.6-10.18 8.63-12.15 4.02-1.98-4.61 1.66-8.92 6.58-13.75s12.29-9.08 17.88-10.77c5.6-1.7 14.39-3.04 21.3-1.52 6.9 1.52 10.55 5.07 8.64 8.1-1.9 3.01-10.15 3.62-12.66 1.72-2.52-1.9-2.12-4.43-1.02-5.74-4.5-.95-9.8-.5-15.93 1.38s-11.24 5.2-15.35 9.94z" clip-rule="evenodd" fill="#709CDD" fill-rule="evenodd"/></mask><g mask="url(#u)"><path d="M820.41 89.27c3.48 2.01 4.38 4.22 2.71 6.62-2.5 3.6-10.18 8.63-12.15 4.02-1.98-4.61 1.66-8.92 6.58-13.75s12.29-9.08 17.88-10.77c5.6-1.7 14.39-3.04 21.3-1.52 6.9 1.52 10.55 5.07 8.64 8.1-1.9 3.01-10.15 3.62-12.66 1.72-2.52-1.9-2.12-4.43-1.02-5.74-4.5-.95-9.8-.5-15.93 1.38s-11.24 5.2-15.35 9.94z" clip-rule="evenodd" fill="#709CDD" fill-rule="evenodd"/><path d="M850.59 78.38c6.56 5.56 14.1 1.9 15.33.32l1.03 2.7-3.15 3.7a22.83 22.83 0 0 1-9.81.34c-4.2-.82-4.01-5.05-3.4-7.06zm-33.42 18.5c-1.58 1.15-6 3.5-6.86 1.7-.01.66.2 2.33 1.19 3.7 1.24 1.73 2.77 1.14 4.8.69 2.02-.45 7.35-3.39 9-7.5 1.34-3.28-2.22-5.28-4.16-5.87 2.05 2.33-1.66 5.6-3.97 7.28z" fill="#98C4F5"/></g><circle cx="648.98" cy="71.75" r="3.71" fill="#4276D2" opacity=".3"/><circle cx="659.27" cy="55.05" r="6" fill="#4276D2" opacity=".3"/><circle cx="825.14" cy="343.68" r="3.43" fill="#fff"/><circle cx="825.14" cy="343.68" r="1.75" fill="#0E2D5A"/><mask id="v" x="820" y="336" width="29" height="19" mask-type="alpha" maskUnits="userSpaceOnUse"><path d="M820.34 353v.2c0 .96.77 1.73 1.72 1.73h21.52a5.05 5.05 0 0 0 5.04-5.05v-8.38a5.05 5.05 0 0 0-5.53-5.03l-10.63 1.04a8.41 8.41 0 0 0-6.96 5.16l-3.65 8.82a1.5 1.5 0 0 0-1.51 1.51z" fill="#EF4060"/></mask><g mask="url(#v)"><path d="M820.34 353v.2c0 .96.77 1.73 1.72 1.73h21.52a5.05 5.05 0 0 0 5.04-5.05v-8.38a5.05 5.05 0 0 0-5.53-5.03l-10.63 1.04a8.41 8.41 0 0 0-6.96 5.16l-3.65 8.82a1.5 1.5 0 0 0-1.51 1.51z" fill="#EF4060"/><path d="M838.18 335.4v21.23m5.49-21.23v21.23" stroke="#B01A36" stroke-width="3.36"/></g><circle cx="832.43" cy="343.68" r="3.43" fill="#fff"/><circle cx="832.43" cy="343.68" r="1.75" fill="#0E2D5A"/><path d="m857.42 334.69-11.77 10.49 11.77 10.7V334.7z" fill="#EF4060"/><path d="M902.09 193.28c-1.78-1.33-3.25-2.26-4.33-1.96a10.1 10.1 0 0 1 0 15.55c.84.22 1.92-.26 3.2-1.06a11 11 0 0 0 1.13-12.52v-.01z" fill="#A65FC7"/><path d="M903.54 198.74c0-1.91-.5-3.79-1.45-5.45.98.74 2.06 1.61 3.23 2.46a14.9 14.9 0 0 0 7.68 2.06c2.3-.02 4.58-.49 6.7-1.38a98.79 98.79 0 0 0-5.74 3s2.38 1.23 6.15 2.75c-.37-.13-.91-.32-1.6-.5-2.86-.76-8.3-1.79-13.17 1.23-1.13.69-3.08 2.17-4.36 2.98 1.68-2 2.59-4.54 2.56-7.15z" fill="#BFB5FF"/><path d="M913.97 199.38h-10.43c0 .06 0 .14-.04.21a10.91 10.91 0 0 1-2.54 6.19c1.28-.8 3.23-2.29 4.36-2.98 4.88-3.02 10.3-2 13.17-1.24.69.19 1.23.38 1.6.5a66.93 66.93 0 0 1-6.12-2.68z" fill="#A65FC7" opacity=".68"/><path d="M920.12 202.1a21.9 21.9 0 0 0-1.6-.5c8.24 3 11.41 8.8 11.41 8.8.67-.45 1.37-.85 2.1-1.2 0 0-3.27-4.13-5.35-4.81a90.1 90.1 0 0 1-5.98-2.06l-.23-.1-.2-.08-.15-.05z" fill="#BFB5FF"/><path d="M939.34 206.96c-4.3-.43-8.53-1.3-12.66-2.58 2.07.7 5.35 4.81 5.35 4.81a25.35 25.35 0 0 1 7.31-2.23z" fill="#A65FC7"/><path d="m920.42 196.05.64-.3c4.97-2.83 5.07-9.31 5.07-9.31-.88-.37-1.73-.8-2.56-1.25 0 0 1.12 9.94-10.56 12.6 2.3-.01 4.57-.48 6.7-1.37l.68-.32.03-.05z" fill="#BFB5FF"/><path d="M926.13 186.43s-.1 6.49-5.07 9.32c8.86-4.06 16.05-5.5 21.82-5.42 0 0-9.45-.8-16.75-3.9zm-3.5 12.76c-1.08 0-1.96.22-1.96.49s.88.49 1.96.49 1.95-.22 1.95-.5-.87-.48-1.95-.48zm5.72-3.49c-1.08 0-1.95.21-1.95.48s.87.49 1.95.49 1.96-.22 1.96-.49-.88-.48-1.96-.48zm0 3.49c-1.08 0-1.95.22-1.95.49s.87.49 1.95.49 1.96-.22 1.96-.5-.88-.48-1.96-.48zm5.42-2.52c1.08 0 1.96-.22 1.96-.49s-.88-.48-1.96-.48-1.96.21-1.96.48.88.49 1.96.49zm0 3.49c1.08 0 1.96-.22 1.96-.49s-.88-.49-1.96-.49-1.96.22-1.96.5.88.48 1.96.48zm0 3.48c1.08 0 1.96-.21 1.96-.48s-.88-.48-1.96-.48-1.96.21-1.96.48.88.48 1.96.48zm5.15-9.1c-1.08 0-1.95.21-1.95.48s.87.49 1.95.49 1.96-.22 1.96-.49-.88-.48-1.96-.48zm0 3.48c-1.08 0-1.95.22-1.95.49s.87.49 1.95.49 1.96-.23 1.96-.5-.88-.48-1.96-.48zm0 3.49c-1.08 0-1.95.21-1.95.48s.87.49 1.95.49 1.96-.22 1.96-.49-.88-.48-1.96-.48zm5.27-8.72c-1.08 0-1.96.22-1.96.49s.88.49 1.96.49 1.95-.22 1.95-.5-.86-.48-1.95-.48zm0 3.49c-1.08 0-1.96.21-1.96.48s.88.49 1.96.49 1.95-.22 1.95-.49-.86-.48-1.95-.48zm0 3.49c-1.08 0-1.96.21-1.96.48s.88.49 1.96.49 1.95-.22 1.95-.49-.86-.48-1.95-.48zm0 3.49c-1.08 0-1.96.22-1.96.48s.88.49 1.96.49 1.95-.22 1.95-.49-.86-.48-1.95-.48z" fill="#A65FC7"/><path d="M913.97 199.38s2.38 1.24 6.15 2.75l.13.05.2.08.23.09a90.3 90.3 0 0 0 5.99 2.06 64.35 64.35 0 0 0 12.65 2.58c8.12.74 16.58-.5 22.63-6.48.28-.26.54-.54.8-.83-.23-.37-.5-.73-.77-1.07-1.96-2.43-7.77-8.16-19.11-8.24-5.77-.05-12.97 1.37-21.82 5.42l-.64.3c-.04 0-.28.14-.69.32a98.4 98.4 0 0 0-5.75 2.97zm28.27 4.36c0-.27.87-.49 1.95-.49s1.95.22 1.95.49-.86.48-1.95.48c-1.08 0-1.96-.22-1.96-.48zm0-3.49c0-.27.87-.48 1.95-.48s1.95.21 1.95.48-.86.5-1.95.5c-1.08 0-1.96-.23-1.96-.5zm0-3.48c0-.27.87-.48 1.95-.48s1.95.21 1.95.48-.86.49-1.95.49c-1.08 0-1.96-.22-1.96-.49zm0-3.48c0-.27.87-.5 1.95-.5s1.95.23 1.95.5-.86.48-1.95.48c-1.08 0-1.96-.22-1.96-.48zm-5.27 8.7c0-.26.87-.47 1.95-.47s1.96.21 1.96.48-.88.49-1.96.49c-1.09 0-1.95-.22-1.95-.5zm0-3.48c0-.26.87-.48 1.95-.48s1.96.22 1.96.48-.88.5-1.96.5c-1.09 0-1.95-.23-1.95-.5zm0-3.49c0-.26.87-.48 1.95-.48s1.96.22 1.96.48-.88.5-1.96.5c-1.09 0-1.95-.23-1.95-.5zm-5.16 8.14c0-.27.88-.48 1.96-.48s1.96.21 1.96.48-.88.48-1.96.48-1.96-.21-1.96-.48zm0-3.48c0-.27.88-.5 1.96-.5s1.96.23 1.96.5-.88.48-1.96.48-1.96-.22-1.96-.5v.02zm0-3.5c0-.26.88-.48 1.96-.48s1.96.22 1.96.49-.88.48-1.96.48-1.96-.22-1.96-.48zm-5.42 3.48c0-.27.87-.49 1.95-.49s1.96.22 1.96.5-.88.48-1.96.48-1.95-.2-1.95-.49zm0-3.49c0-.27.87-.48 1.95-.48s1.96.21 1.96.48-.88.49-1.96.49-1.95-.2-1.95-.47v-.02zm-5.71 3.5c0-.28.88-.5 1.95-.5 1.08 0 1.96.22 1.96.5s-.87.48-1.96.48c-1.08 0-1.95-.2-1.95-.49z" fill="#BFB5FF"/><path d="M913.97 199.38s2.38 1.24 6.15 2.75l.13.05.2.08.23.09a90.3 90.3 0 0 0 5.99 2.06 64.35 64.35 0 0 0 12.65 2.57c8.12.75 16.58-.48 22.63-6.47.28-.26.54-.54.8-.84.05 0-35.5-.29-48.78-.29z" fill="#BFB5FF" opacity=".63"/><path d="M950.43 197.26a3.14 3.14 0 1 0 6.28 0 3.14 3.14 0 0 0-6.28 0z" fill="#fff"/><path d="M951.9 197.26a1.67 1.67 0 1 0 3.34 0 1.67 1.67 0 0 0-3.34 0z" fill="#000"/><path d="M513.45 86.17s-11.83-19.24-29.35-11.43c-1.8.8-5.47 4.23-1.8 7.7l31.15 3.73zm-40.94 2.81s-5.2 2.03-13.06-3.37c0 0 3.36 4.2 4.3 5.6l-4.96 4.42s7.24-3.67 13.73-1.98c6.49 1.7-.01-4.67-.01-4.67z" fill="#71548A"/><path d="M501.03 102.74s-14.89 10.35-27.8-4.1c0 0 2.8-1.8 5.85-1.62l21.95 5.72z" fill="#C69ED9"/><path d="M517.39 92.14c-.1-.24-.15-.28-.3-.58-1.84-3.68-15.49-27.65-47.35-.29 0 0 23.4 24.82 45.76 3.36.7-.65 2.1-2.03 1.89-2.49z" fill="#A65FC7"/><path d="M489.08 102.56a45.23 45.23 0 0 1 2.9-15.67c-1.4 5.44-.72 13.95-.51 16.15-.8-.13-1.6-.29-2.39-.48zm-4.1-1.27a36 36 0 0 1-1.9-.79c-.2-6.87 2.92-13.19 2.92-13.19-1.8 4.42-1.16 12.5-1.02 13.98zm-7.56-3.89a36.09 36.09 0 0 1 2.39-9.47c-.85 2.58-1 7.38-1 10.36-.48-.29-.94-.58-1.39-.88z" fill="#71548A"/><path d="M506.98 86.9a2.37 2.37 0 1 0 4.73-.01 2.37 2.37 0 0 0-4.73 0z" fill="#fff"/><path d="M508.05 86.9a1.3 1.3 0 0 0 2.57.24 1.3 1.3 0 0 0-1.27-1.55 1.3 1.3 0 0 0-1.3 1.3z" fill="#000"/><path d="M515.5 94.6c.67-.64 2.08-2.02 1.87-2.48l-47.64-.85s23.4 24.8 45.77 3.34z" fill="#A65FC7" opacity=".5"/><circle cx="564.78" cy="55.88" r="5" fill="#4276D2" opacity=".3"/><path d="M1157.7 85.39c3.69 8.06 14.24 7.14 14.24 7.14a22.16 22.16 0 0 1-6.95-6.57c-2.57-.15-5-.34-7.29-.57zm16.6.57c-1.77.06-3.49.08-5.18.06 2.94 4.24 8.34 4.8 8.34 4.8-2.72-2.7-3.19-4.86-3.19-4.86h.03z" fill="#C69ED9"/><path d="M1139.2 74.78a27.97 27.97 0 0 1 15.92-11.4c14.81-4.1 32.9 2.72 44.45 8.48 2.13 1.06 4.04 2.1 5.67 3.02 3.6 2 5.84 3.5 6.06 3.65h-74.59c.25-.47 1.45-2.26 2.49-3.75z" fill="#fff"/><path d="M1205.2 80.7a112.02 112.02 0 0 1-30.93 5.26 121.97 121.97 0 0 1-16.57-.57c-13.4-1.33-21.04-6.86-21.04-6.86 15.81-5.7 46.87-5.35 74.59 0-2.03.8-4.05 1.53-6.05 2.17zm.6-13.28s-27.78-22.42-50.68-4.04c14.81-4.1 32.9 2.72 44.45 8.48a46.15 46.15 0 0 1 6.23-4.44z" fill="#C69ED9"/><path d="M1210.3 65.6s-31.86-25.68-57.26-1.6c.67-.22 1.34-.44 2.03-.62 22.89-18.38 50.68 4.04 50.68 4.04a13.6 13.6 0 0 1 4.55-1.81z" fill="#8941B1"/><path d="M1211.3 78.53c-2.03.8-4.05 1.52-6.07 2.17 7.2 3.88 15.14 5.2 21.23 5.56l-8.8-8.15 8.94-8.25c-6.48.23-14.96 1.34-21.35 5.02 3.6 2 5.84 3.5 6.05 3.64v.01z" fill="#C69ED9"/><path d="m1217.7 78.12 8.8 8.15c3.4.22 6.81.13 10.19-.24l-10.38-7.5 10.38-8.4a74.58 74.58 0 0 0-10.11-.27l-8.88 8.26z" fill="#8941B1"/><path d="M1142.3 74.16a4.62 4.62 0 1 0 9.24 0 4.62 4.62 0 0 0-9.24 0z" fill="#fff"/><path d="M1144 74.16a2.89 2.89 0 0 0 3.46 2.84 2.9 2.9 0 1 0-3.46-2.84z" fill="#000"/><circle cx="1146.8" cy="41.88" r="4" fill="#4276D2" opacity=".3"/><path d="m447.4 401.89 9.76-48.91 18.47-33.96 16.55 3.84 9.56 22.96 20.38 5.62 15.28 55.54-22.29 7.52s-25.55-9.17-38.5-10.86c-12.96-1.68-29.21-1.75-29.21-1.75z" fill="#4F7FB5"/><path d="m475.62 319.02 1.53 8.59 11.56 6.64 7.09-2.7-3.62-8.69-16.56-3.84zm26.12 26.76-20.9 11.33 33.44-1.73 7.84-3.98-20.38-5.62z" fill="#A9CFFA"/><path d="m455.74 360.05 19 5.55 16.11-.7-16.03 4.86-20.41-3.03 1.33-6.68z" fill="#313E90" opacity=".3"/><mask id="w" x="529" y="336" width="17" height="81" fill="#79AC55" mask-type="alpha" maskUnits="userSpaceOnUse"><path d="m533.56 416.07-.7-.4a7.28 7.28 0 0 1-2.48-10.46 7.28 7.28 0 0 0 .77-6.76l-1-2.57a6.59 6.59 0 0 1 .54-5.87 6.58 6.58 0 0 0 .38-6.23l-.37-.8a8.2 8.2 0 0 1 .3-7.45l.8-1.42a7.45 7.45 0 0 0 .39-6.49l-.4-.97a5.36 5.36 0 0 1 .37-4.82 5.35 5.35 0 0 0 .37-4.82l-.45-1.1a7.71 7.71 0 0 1 .22-6.35l.26-.52c.65-1.32.93-2.8.8-4.27l-.38-4.12a4.2 4.2 0 0 1 4.18-4.58v80h-3.6zm3.6 0h3.6l.7-.4a7.28 7.28 0 0 0 2.47-10.46 7.27 7.27 0 0 1-.77-6.76l1.01-2.57c.76-1.93.56-4.1-.54-5.87a6.59 6.59 0 0 1-.38-6.23l.37-.8a8.2 8.2 0 0 0-.3-7.45l-.8-1.42a7.45 7.45 0 0 1-.39-6.49l.4-.97a5.35 5.35 0 0 0-.37-4.82 5.35 5.35 0 0 1-.37-4.82l.45-1.1a7.71 7.71 0 0 0-.22-6.35l-.26-.52a7.98 7.98 0 0 1-.8-4.27l.38-4.12a4.2 4.2 0 0 0-4.18-4.58v80z"/></mask><g mask="url(#w)"><path d="m533.56 416.07-.7-.4a7.28 7.28 0 0 1-2.48-10.46 7.28 7.28 0 0 0 .77-6.76l-1-2.57a6.59 6.59 0 0 1 .54-5.87 6.58 6.58 0 0 0 .38-6.23l-.37-.8a8.2 8.2 0 0 1 .3-7.45l.8-1.42a7.45 7.45 0 0 0 .39-6.49l-.4-.97a5.36 5.36 0 0 1 .37-4.82 5.35 5.35 0 0 0 .37-4.82l-.45-1.1a7.71 7.71 0 0 1 .22-6.35l.26-.52c.65-1.32.93-2.8.8-4.27l-.38-4.12a4.2 4.2 0 0 1 4.18-4.58v80h-3.6zm3.6 0h3.6l.7-.4a7.28 7.28 0 0 0 2.47-10.46 7.27 7.27 0 0 1-.77-6.76l1.01-2.57c.76-1.93.56-4.1-.54-5.87a6.59 6.59 0 0 1-.38-6.23l.37-.8a8.2 8.2 0 0 0-.3-7.45l-.8-1.42a7.45 7.45 0 0 1-.39-6.49l.4-.97a5.35 5.35 0 0 0-.37-4.82 5.35 5.35 0 0 1-.37-4.82l.45-1.1a7.71 7.71 0 0 0-.22-6.35l-.26-.52a7.98 7.98 0 0 1-.8-4.27l.38-4.12a4.2 4.2 0 0 0-4.18-4.58v80z" fill="#84BB3E"/><path d="M536.99 334.61v82.81" stroke="#317155" stroke-width="1.18"/></g><path d="m515.46 416.07-.85-.46a5.1 5.1 0 0 1-1.62-7.56 5.1 5.1 0 0 0 .7-4.94l-.73-1.85a4.83 4.83 0 0 1 .4-4.31c.85-1.38.96-3.1.27-4.57l-.26-.59a6.02 6.02 0 0 1 .21-5.47l.59-1.04c.81-1.46.92-3.21.28-4.76l-.3-.72a3.93 3.93 0 0 1 .28-3.53c.65-1.07.75-2.38.28-3.53l-.34-.81c-.61-1.5-.56-3.2.17-4.66l.19-.38c.48-.97.68-2.06.58-3.14l-.28-3.02a3.08 3.08 0 0 1 3.07-3.36v58.7h-2.64z" fill="#84BB3E"/><path d="M518.1 416.07h2.64l.85-.46a5.1 5.1 0 0 0 1.62-7.56 5.1 5.1 0 0 1-.69-4.94l.72-1.85a4.8 4.8 0 0 0-.4-4.31 4.84 4.84 0 0 1-.27-4.57l.27-.59c.8-1.75.73-3.79-.22-5.47l-.58-1.04a5.47 5.47 0 0 1-.3-4.76l.3-.72a3.93 3.93 0 0 0-.27-3.53 3.93 3.93 0 0 1-.27-3.53l.33-.81c.62-1.5.56-3.2-.17-4.66l-.18-.38a5.86 5.86 0 0 1-.59-3.14l.28-3.02a3.08 3.08 0 0 0-3.07-3.36v58.7z" fill="#84BB3E"/><mask id="x" x="927" y="317" width="19" height="91" fill="#79AC55" mask-type="alpha" maskUnits="userSpaceOnUse"><path d="m932.34 407.02-.8-.44a8.19 8.19 0 0 1-2.77-11.78 8.18 8.18 0 0 0 .87-7.6l-1.14-2.89a7.4 7.4 0 0 1 .6-6.6 7.41 7.41 0 0 0 .44-7.02l-.41-.9a9.24 9.24 0 0 1 .33-8.38l.9-1.6a8.38 8.38 0 0 0 .44-7.3l-.46-1.1a6.03 6.03 0 0 1 .42-5.41 6 6 0 0 0 .42-5.42l-.5-1.23a8.67 8.67 0 0 1 .24-7.15l.3-.59a8.98 8.98 0 0 0 .89-4.8l-.42-4.63a4.73 4.73 0 0 1 4.7-5.16v90h-4.05z"/><path d="M936.39 407.02h4.05l.8-.44A8.19 8.19 0 0 0 944 394.8a8.18 8.18 0 0 1-.87-7.6l1.14-2.89a7.4 7.4 0 0 0-.6-6.6 7.41 7.41 0 0 1-.44-7.02l.41-.9a9.24 9.24 0 0 0-.33-8.38l-.9-1.6a8.38 8.38 0 0 1-.44-7.3l.46-1.1a6.03 6.03 0 0 0-.42-5.41 6.03 6.03 0 0 1-.42-5.42l.5-1.23a8.7 8.7 0 0 0-.24-7.15l-.3-.59a8.98 8.98 0 0 1-.89-4.8l.42-4.63a4.73 4.73 0 0 0-4.7-5.16v90z"/></mask><g mask="url(#x)"><path d="m932.34 407.02-.8-.44a8.19 8.19 0 0 1-2.77-11.78 8.18 8.18 0 0 0 .87-7.6l-1.14-2.89a7.4 7.4 0 0 1 .6-6.6 7.41 7.41 0 0 0 .44-7.02l-.41-.9a9.24 9.24 0 0 1 .33-8.38l.9-1.6a8.38 8.38 0 0 0 .44-7.3l-.46-1.1a6.03 6.03 0 0 1 .42-5.41 6 6 0 0 0 .42-5.42l-.5-1.23a8.67 8.67 0 0 1 .24-7.15l.3-.59a8.98 8.98 0 0 0 .89-4.8l-.42-4.63a4.73 4.73 0 0 1 4.7-5.16v90h-4.05z" fill="#84BB3E"/><path d="M936.39 407.02h4.05l.8-.44A8.19 8.19 0 0 0 944 394.8a8.18 8.18 0 0 1-.87-7.6l1.14-2.89a7.4 7.4 0 0 0-.6-6.6 7.41 7.41 0 0 1-.44-7.02l.41-.9a9.24 9.24 0 0 0-.33-8.38l-.9-1.6a8.38 8.38 0 0 1-.44-7.3l.46-1.1a6.03 6.03 0 0 0-.42-5.41 6.03 6.03 0 0 1-.42-5.42l.5-1.23a8.7 8.7 0 0 0-.24-7.15l-.3-.59a8.98 8.98 0 0 1-.89-4.8l.42-4.63a4.73 4.73 0 0 0-4.7-5.16v90z" fill="#84BB3E"/><path d="M936.19 315.38v93.16" stroke="#317155" stroke-width="1.18"/></g><path d="m911.96 407.02-.95-.52a5.73 5.73 0 0 1-1.83-8.5c1.21-1.6 1.5-3.7.78-5.56l-.81-2.08c-.63-1.6-.46-3.4.44-4.85a5.44 5.44 0 0 0 .32-5.15l-.3-.65a6.78 6.78 0 0 1 .24-6.16l.65-1.17a6.15 6.15 0 0 0 .33-5.35l-.34-.81a4.42 4.42 0 0 1 .31-3.98c.73-1.2.85-2.67.31-3.97l-.37-.9c-.7-1.7-.63-3.61.18-5.25l.21-.43c.54-1.1.77-2.31.66-3.53l-.31-3.4a3.47 3.47 0 0 1 3.45-3.78v66.04h-2.97zm2.98 0h2.97l.96-.52a5.73 5.73 0 0 0 1.82-8.5 5.73 5.73 0 0 1-.78-5.56l.82-2.08c.62-1.6.46-3.4-.45-4.85a5.44 5.44 0 0 1-.31-5.15l.3-.65a6.78 6.78 0 0 0-.24-6.16l-.66-1.17a6.15 6.15 0 0 1-.33-5.35l.34-.81c.53-1.3.42-2.78-.31-3.98a4.42 4.42 0 0 1-.3-3.97l.36-.9c.7-1.7.63-3.61-.18-5.25l-.21-.43a6.59 6.59 0 0 1-.66-3.53l.31-3.4a3.47 3.47 0 0 0-3.45-3.78v66.04z" fill="#84BB3E"/><path d="M388.54 342.2a8.69 8.69 0 0 1-6.18 2.77c-5.41 0-8.11-1.75-8.11-5.3s2.7-5.28 8.12-5.28c2.46 0 4.7 1.47 6.19 2.87" fill="#FFCB59"/><path d="M400.74 326.46c-.05-.4-1.94-1.54-5.73-2.95-2.28-.85-6.56-2-7.44-.34-.24.45.55 1.3 1.95 2.22l11.22 1.07z" fill="#F09329"/><path d="M419.2 339.67c0 1.61-4.61 7.33-11.51 11.07 1.61-3.62 2.47-7.8.41-11.25a13.3 13.3 0 0 1-1.38-11.39c7.43 3.7 12.48 9.88 12.48 11.57z" fill="#F4CF4C"/><path d="M388.18 334.26a13.6 13.6 0 0 1-2.02-8.5c-1.61.19-3.21.5-4.78.9-.6.17-1.14.34-1.66.52a13.77 13.77 0 0 1 .27 24.85c.96.36 1.95.66 2.95.88 2.8-3.17 9.1-12.17 5.24-18.65z" fill="#F09329"/><path d="M396.11 325.28h-.67c-1.44 0-2.8 0-4.08.08a13.33 13.33 0 0 0 1.56 10.8c3.51 5.89-1.36 13.84-4.39 17.64a68 68 0 0 0 4.52.25c3.01-3.67 8.2-11.87 4.6-17.89a13.34 13.34 0 0 1-1.54-10.88zm11.99 14.22a13.32 13.32 0 0 1-1.38-11.4 28.86 28.86 0 0 0-4.03-1.6 13.25 13.25 0 0 0 .7 13.03c2.54 4.27.67 9.64-1.7 13.7a30.2 30.2 0 0 0 6.01-2.45c1.63-3.65 2.46-7.83.4-11.28z" fill="#F09329"/><path d="M393.05 354.04c3-3.68 8.2-11.87 4.6-17.89a13.33 13.33 0 0 1-1.54-10.87c2.23.09 4.44.48 6.57 1.18a13.25 13.25 0 0 0 .69 13.04c2.55 4.27.68 9.63-1.7 13.7-2.03.57-4.12.86-6.23.87a21 21 0 0 1-2.39-.03z" fill="#F4CF4C"/><path d="M382.94 352.92c2.8-3.18 9.11-12.17 5.24-18.65a13.6 13.6 0 0 1-2.02-8.5c1.57-.2 3.3-.34 5.2-.42a13.3 13.3 0 0 0 1.55 10.8c3.52 5.89-1.36 13.84-4.38 17.64a41.18 41.18 0 0 1-5.59-.87z" fill="#F4CF4C"/><path d="M387.71 339.68a13.77 13.77 0 0 1-7.72 12.37c.96.35 1.95.65 2.95.87 1.85.42 3.71.71 5.6.87 1.4.13 2.9.21 4.51.25h2.42c2.11 0 4.21-.3 6.24-.87 2.09-.6 4.1-1.42 6.02-2.45 6.88-3.74 11.5-9.47 11.5-11.07l-31.52.03z" fill="#FFCB59" opacity=".5"/><path d="M379.07 334.66c-3.23.62-4.84 2.28-4.84 5.01 0 2.74 1.61 4.39 4.84 5.01-4.68-4.54-.1-9.92 0-10.02z" fill="#F09329"/><path d="M415.99 335.17a3.93 3.93 0 1 1-7.86 0 3.93 3.93 0 0 1 7.86 0z" fill="#fff"/><path d="M413.94 335.18a1.9 1.9 0 0 1-3.22 1.33 1.88 1.88 0 1 1 3.22-1.33z" fill="#000"/><mask id="y" x="1288" y="343" width="21" height="101" fill="#79AC55" mask-type="alpha" maskUnits="userSpaceOnUse"><path d="m1294.3 443.42-.88-.49a9.1 9.1 0 0 1-3.09-13.08 9.08 9.08 0 0 0 .96-8.45l-1.25-3.21a8.21 8.21 0 0 1 .67-7.34 8.23 8.23 0 0 0 .48-7.8l-.46-.99a10.26 10.26 0 0 1 .37-9.32l.99-1.78a9.27 9.27 0 0 0 .49-8.1l-.5-1.22a6.68 6.68 0 0 1 .47-6.02 6.7 6.7 0 0 0 .46-6.02l-.56-1.37a9.61 9.61 0 0 1 .28-7.95l.32-.65a9.93 9.93 0 0 0 .99-5.33l-.47-5.15a5.25 5.25 0 0 1 5.23-5.73v100h-4.5zm4.5 0h4.5l.88-.49a9.1 9.1 0 0 0 3.09-13.08 9.11 9.11 0 0 1-.97-8.45l1.26-3.21a8.2 8.2 0 0 0-.67-7.34 8.23 8.23 0 0 1-.48-7.8l.46-.99a10.26 10.26 0 0 0-.37-9.32l-.99-1.78a9.27 9.27 0 0 1-.49-8.1l.5-1.22c.81-1.97.64-4.2-.47-6.02a6.73 6.73 0 0 1-.47-6.02l.57-1.37a9.65 9.65 0 0 0-.28-7.95l-.32-.65a9.93 9.93 0 0 1-.99-5.33l.47-5.15a5.25 5.25 0 0 0-5.23-5.73v100z"/></mask><g mask="url(#y)"><path d="m1294.3 443.42-.88-.49a9.1 9.1 0 0 1-3.09-13.08 9.08 9.08 0 0 0 .96-8.45l-1.25-3.21a8.21 8.21 0 0 1 .67-7.34 8.23 8.23 0 0 0 .48-7.8l-.46-.99a10.26 10.26 0 0 1 .37-9.32l.99-1.78a9.27 9.27 0 0 0 .49-8.1l-.5-1.22a6.68 6.68 0 0 1 .47-6.02 6.7 6.7 0 0 0 .46-6.02l-.56-1.37a9.61 9.61 0 0 1 .28-7.95l.32-.65a9.93 9.93 0 0 0 .99-5.33l-.47-5.15a5.25 5.25 0 0 1 5.23-5.73v100h-4.5zm4.5 0h4.5l.88-.49a9.1 9.1 0 0 0 3.09-13.08 9.11 9.11 0 0 1-.97-8.45l1.26-3.21a8.2 8.2 0 0 0-.67-7.34 8.23 8.23 0 0 1-.48-7.8l.46-.99a10.26 10.26 0 0 0-.37-9.32l-.99-1.78a9.27 9.27 0 0 1-.49-8.1l.5-1.22c.81-1.97.64-4.2-.47-6.02a6.73 6.73 0 0 1-.47-6.02l.57-1.37a9.65 9.65 0 0 0-.28-7.95l-.32-.65a9.93 9.93 0 0 1-.99-5.33l.47-5.15a5.25 5.25 0 0 0-5.23-5.73v100z" fill="#84BB3E"/><path d="M1298.6 341.6v103.51" stroke="#317155" stroke-width="1.18"/></g><path d="m1271.7 443.42-1.06-.57a6.37 6.37 0 0 1-2.03-9.46 6.36 6.36 0 0 0 .87-6.17l-.91-2.32a6.03 6.03 0 0 1 .5-5.38 6.04 6.04 0 0 0 .35-5.72l-.34-.73a7.54 7.54 0 0 1 .27-6.84l.73-1.3a6.82 6.82 0 0 0 .36-5.95l-.37-.9c-.59-1.44-.47-3.08.34-4.41s.94-2.97.35-4.42l-.42-1a7.06 7.06 0 0 1 .21-5.83l.23-.48c.6-1.21.86-2.57.73-3.92l-.34-3.77a3.85 3.85 0 0 1 3.83-4.2v73.37h-3.3zm3.3 0h3.31l1.06-.57a6.36 6.36 0 0 0 2.02-9.46 6.38 6.38 0 0 1-.86-6.17l.9-2.32c.7-1.77.51-3.76-.49-5.38a6.04 6.04 0 0 1-.35-5.72l.33-.73a7.5 7.5 0 0 0-.26-6.84l-.74-1.3a6.82 6.82 0 0 1-.35-5.95l.36-.9c.6-1.44.47-3.08-.34-4.41s-.93-2.97-.34-4.42l.41-1c.78-1.89.7-4.01-.2-5.83l-.24-.48a7.35 7.35 0 0 1-.73-3.92l.35-3.77a3.85 3.85 0 0 0-3.84-4.2v73.37z" fill="#84BB3E"/><path d="M748.37 443.54V385.6" stroke="#84BB3E" stroke-linecap="round" stroke-linejoin="round" stroke-width="1.5"/><path d="M741.59 431.18c-1.84-1.06-2.9-2.96-3.18-5.7 2.52-1.13 4.7-1.17 6.53-.1 1.84 1.05 2.87 2.94 3.1 5.65-2.46 1.16-4.61 1.21-6.45.15z" clip-rule="evenodd" fill="#84BB3E" fill-rule="evenodd"/><path d="M741.59 416.29c-1.84-1.06-2.9-2.96-3.17-5.7 2.51-1.13 4.69-1.17 6.52-.1 1.84 1.05 2.87 2.94 3.1 5.65-2.46 1.16-4.61 1.21-6.45.15z" clip-rule="evenodd" fill="#5E8F46" fill-rule="evenodd"/><path d="M741.59 402.3c-1.84-1.06-2.9-2.96-3.18-5.7 2.52-1.13 4.7-1.17 6.53-.1 1.84 1.05 2.87 2.94 3.1 5.65-2.46 1.16-4.61 1.21-6.45.15z" clip-rule="evenodd" fill="#84BB3E" fill-rule="evenodd"/><path d="M754.86 437.17c1.84-1.06 2.9-2.96 3.18-5.7-2.52-1.13-4.7-1.17-6.53-.1-1.84 1.05-2.87 2.94-3.1 5.65 2.46 1.16 4.61 1.21 6.45.15z" clip-rule="evenodd" fill="#5E8F46" fill-rule="evenodd"/><path d="M754.86 424.07c1.84-1.06 2.9-2.96 3.18-5.7-2.52-1.13-4.7-1.17-6.53-.1-1.84 1.05-2.87 2.94-3.1 5.65 2.46 1.16 4.61 1.21 6.45.15zm0-14.88c1.84-1.06 2.9-2.96 3.18-5.7-2.52-1.13-4.7-1.17-6.53-.1-1.84 1.05-2.87 2.94-3.1 5.65 2.46 1.16 4.61 1.21 6.45.15zm-.43-14.51c1.36-1.63 1.7-3.77 1.03-6.45-2.75-.2-4.8.51-6.17 2.14-1.36 1.63-1.68 3.75-.97 6.38 2.71.24 4.75-.45 6.11-2.07z" clip-rule="evenodd" fill="#84BB3E" fill-rule="evenodd"/><path d="M779.34 435.51v-75.8" stroke="#84BB3E" stroke-linecap="round" stroke-linejoin="round" stroke-width="1.5"/><path d="M772.56 423.16c-1.84-1.06-2.9-2.96-3.18-5.7 2.52-1.13 4.7-1.17 6.53-.1 1.84 1.05 2.87 2.94 3.1 5.65-2.46 1.16-4.61 1.21-6.45.15zm0-14.89c-1.84-1.06-2.9-2.96-3.18-5.7 2.52-1.13 4.7-1.17 6.53-.1 1.84 1.05 2.87 2.94 3.1 5.65-2.46 1.16-4.61 1.21-6.45.15z" clip-rule="evenodd" fill="#84BB3E" fill-rule="evenodd"/><path d="M772.56 394.28c-1.84-1.06-2.9-2.96-3.18-5.7 2.52-1.13 4.7-1.17 6.53-.1 1.84 1.05 2.87 2.94 3.1 5.65-2.46 1.16-4.61 1.21-6.45.15z" clip-rule="evenodd" fill="#5E8F46" fill-rule="evenodd"/><path d="M772.56 379.1c-1.84-1.06-2.9-2.96-3.18-5.7 2.52-1.13 4.7-1.17 6.53-.1 1.84 1.05 2.87 2.94 3.1 5.65-2.46 1.16-4.61 1.21-6.45.15z" clip-rule="evenodd" fill="#84BB3E" fill-rule="evenodd"/><path d="M785.83 429.15c1.84-1.06 2.9-2.96 3.18-5.7-2.52-1.13-4.7-1.17-6.53-.1-1.84 1.05-2.87 2.94-3.1 5.65 2.46 1.16 4.61 1.21 6.45.15z" clip-rule="evenodd" fill="#5E8F46" fill-rule="evenodd"/><path d="M785.83 416.05c1.84-1.06 2.9-2.96 3.17-5.7-2.51-1.13-4.69-1.17-6.52-.1-1.84 1.05-2.87 2.94-3.1 5.65 2.46 1.16 4.61 1.21 6.45.15zm0-14.88c1.84-1.06 2.9-2.96 3.17-5.7-2.51-1.13-4.69-1.17-6.52-.1s-2.87 2.94-3.1 5.65c2.46 1.16 4.61 1.21 6.45.15zm-.43-14.51c1.36-1.63 1.7-3.77 1.03-6.45-2.75-.2-4.8.52-6.17 2.14-1.36 1.63-1.68 3.75-.97 6.38 2.71.24 4.75-.45 6.11-2.07z" clip-rule="evenodd" fill="#84BB3E" fill-rule="evenodd"/><path d="M785.4 371.48c1.36-1.62 1.7-3.77 1.03-6.45-2.75-.2-4.8.52-6.17 2.14-1.36 1.63-1.68 3.75-.97 6.38 2.71.24 4.75-.44 6.11-2.07z" clip-rule="evenodd" fill="#5E8F46" fill-rule="evenodd"/><mask id="z" x="158" y="316" width="19" height="91" fill="#79AC55" mask-type="alpha" maskUnits="userSpaceOnUse"><path d="m163.34 406.02-.8-.44a8.19 8.19 0 0 1-2.77-11.78 8.19 8.19 0 0 0 .86-7.6l-1.13-2.89a7.4 7.4 0 0 1 .6-6.6 7.41 7.41 0 0 0 .44-7.02l-.41-.9a9.24 9.24 0 0 1 .33-8.38l.9-1.6a8.38 8.38 0 0 0 .43-7.3l-.45-1.1a6.03 6.03 0 0 1 .42-5.41 6 6 0 0 0 .42-5.42l-.5-1.23a8.68 8.68 0 0 1 .24-7.15l.3-.59a8.98 8.98 0 0 0 .89-4.8l-.43-4.63a4.73 4.73 0 0 1 4.71-5.16v90h-4.05z"/><path d="M167.39 406.02h4.05l.8-.44A8.19 8.19 0 0 0 175 393.8a8.18 8.18 0 0 1-.86-7.6l1.13-2.89a7.4 7.4 0 0 0-.6-6.6 7.4 7.4 0 0 1-.44-7.02l.41-.9a9.24 9.24 0 0 0-.33-8.38l-.9-1.6a8.38 8.38 0 0 1-.43-7.3l.45-1.1a6.03 6.03 0 0 0-.42-5.41 6.02 6.02 0 0 1-.42-5.42l.5-1.23a8.66 8.66 0 0 0-.24-7.15l-.3-.59a8.97 8.97 0 0 1-.89-4.8l.43-4.63a4.73 4.73 0 0 0-4.71-5.16v90z"/></mask><g mask="url(#z)"><path d="m163.34 406.02-.8-.44a8.19 8.19 0 0 1-2.77-11.78 8.19 8.19 0 0 0 .86-7.6l-1.13-2.89a7.4 7.4 0 0 1 .6-6.6 7.41 7.41 0 0 0 .44-7.02l-.41-.9a9.24 9.24 0 0 1 .33-8.38l.9-1.6a8.38 8.38 0 0 0 .43-7.3l-.45-1.1a6.03 6.03 0 0 1 .42-5.41 6 6 0 0 0 .42-5.42l-.5-1.23a8.68 8.68 0 0 1 .24-7.15l.3-.59a8.98 8.98 0 0 0 .89-4.8l-.43-4.63a4.73 4.73 0 0 1 4.71-5.16v90h-4.05z" fill="#84BB3E"/><path d="M167.39 406.02h4.05l.8-.44A8.19 8.19 0 0 0 175 393.8a8.18 8.18 0 0 1-.86-7.6l1.13-2.89a7.4 7.4 0 0 0-.6-6.6 7.4 7.4 0 0 1-.44-7.02l.41-.9a9.24 9.24 0 0 0-.33-8.38l-.9-1.6a8.38 8.38 0 0 1-.43-7.3l.45-1.1a6.03 6.03 0 0 0-.42-5.41 6.02 6.02 0 0 1-.42-5.42l.5-1.23a8.66 8.66 0 0 0-.24-7.15l-.3-.59a8.97 8.97 0 0 1-.89-4.8l.43-4.63a4.73 4.73 0 0 0-4.71-5.16v90z" fill="#84BB3E"/><path d="M167.19 314.38v93.16" stroke="#317155" stroke-width="1.18"/></g><mask id="A" x="219" y="313" width="19" height="91" fill="#79AC55" mask-type="alpha" maskUnits="userSpaceOnUse"><path d="m224.61 403.02-.8-.44a8.19 8.19 0 0 1-2.77-11.78 8.18 8.18 0 0 0 .87-7.6l-1.13-2.89a7.4 7.4 0 0 1 .6-6.6 7.4 7.4 0 0 0 .43-7.02l-.41-.9a9.24 9.24 0 0 1 .33-8.38l.9-1.6a8.38 8.38 0 0 0 .44-7.3l-.46-1.1a6.03 6.03 0 0 1 .42-5.41 6 6 0 0 0 .42-5.42l-.5-1.23a8.67 8.67 0 0 1 .24-7.15l.3-.59a8.97 8.97 0 0 0 .89-4.8l-.43-4.63a4.73 4.73 0 0 1 4.71-5.16v90h-4.05zm4.05 0h4.05l.8-.44a8.19 8.19 0 0 0 2.77-11.78 8.19 8.19 0 0 1-.86-7.6l1.13-2.89a7.4 7.4 0 0 0-.6-6.6 7.41 7.41 0 0 1-.44-7.02l.41-.9a9.24 9.24 0 0 0-.33-8.38l-.9-1.6a8.38 8.38 0 0 1-.43-7.3l.45-1.1a6.03 6.03 0 0 0-.42-5.41 6.03 6.03 0 0 1-.42-5.42l.5-1.23a8.7 8.7 0 0 0-.24-7.15l-.3-.59a8.98 8.98 0 0 1-.89-4.8l.43-4.63a4.73 4.73 0 0 0-4.71-5.16v90z"/></mask><g mask="url(#A)"><path d="m224.61 403.02-.8-.44a8.19 8.19 0 0 1-2.77-11.78 8.18 8.18 0 0 0 .87-7.6l-1.13-2.89a7.4 7.4 0 0 1 .6-6.6 7.4 7.4 0 0 0 .43-7.02l-.41-.9a9.24 9.24 0 0 1 .33-8.38l.9-1.6a8.38 8.38 0 0 0 .44-7.3l-.46-1.1a6.03 6.03 0 0 1 .42-5.41 6 6 0 0 0 .42-5.42l-.5-1.23a8.67 8.67 0 0 1 .24-7.15l.3-.59a8.97 8.97 0 0 0 .89-4.8l-.43-4.63a4.73 4.73 0 0 1 4.71-5.16v90h-4.05zm4.05 0h4.05l.8-.44a8.19 8.19 0 0 0 2.77-11.78 8.19 8.19 0 0 1-.86-7.6l1.13-2.89a7.4 7.4 0 0 0-.6-6.6 7.41 7.41 0 0 1-.44-7.02l.41-.9a9.24 9.24 0 0 0-.33-8.38l-.9-1.6a8.38 8.38 0 0 1-.43-7.3l.45-1.1a6.03 6.03 0 0 0-.42-5.41 6.03 6.03 0 0 1-.42-5.42l.5-1.23a8.7 8.7 0 0 0-.24-7.15l-.3-.59a8.98 8.98 0 0 1-.89-4.8l.43-4.63a4.73 4.73 0 0 0-4.71-5.16v90z" fill="#84BB3E"/><path d="M228.46 311.38v93.16" stroke="#317155" stroke-width="1.18"/></g><path d="m194.46 401.07-.85-.46a5.1 5.1 0 0 1-1.62-7.56 5.1 5.1 0 0 0 .7-4.94l-.73-1.85a4.83 4.83 0 0 1 .4-4.31c.85-1.38.95-3.1.27-4.57l-.27-.59a6.03 6.03 0 0 1 .22-5.47l.58-1.04a5.5 5.5 0 0 0 .3-4.76l-.3-.72a3.93 3.93 0 0 1 .27-3.53c.65-1.07.75-2.38.28-3.53l-.34-.81c-.61-1.5-.56-3.2.17-4.66l.19-.38c.48-.97.68-2.06.58-3.14l-.28-3.02a3.08 3.08 0 0 1 3.07-3.36v58.7h-2.64z" fill="#84BB3E"/><path d="M197.1 401.07h2.64l.85-.46a5.1 5.1 0 0 0 1.62-7.56 5.1 5.1 0 0 1-.69-4.94l.72-1.85a4.83 4.83 0 0 0-.39-4.31 4.83 4.83 0 0 1-.28-4.57l.27-.59a6.03 6.03 0 0 0-.22-5.47l-.58-1.04a5.46 5.46 0 0 1-.29-4.76l.3-.72a3.93 3.93 0 0 0-.28-3.53 3.93 3.93 0 0 1-.27-3.53l.33-.81c.62-1.5.56-3.2-.16-4.66l-.2-.38a5.84 5.84 0 0 1-.58-3.14l.28-3.02a3.08 3.08 0 0 0-3.07-3.36v58.7z" fill="#84BB3E"/><path d="M1203.6 438.57c76.81 9.6 190.6-4 236.89-12v66.17H-.51v-56.17S150.45 397 241.86 397.02c154.09 0 288.68 63.28 376.39 65.5 87.71 2.22 187.64-45.19 305.33-57.4 117.69-12.22 183.99 21.45 280 33.45z" fill="#2B4171"/><path d="M1109.1 463.75c2.03.11 4.06-.18 5.97-.87a6.94 6.94 0 0 0 4.14-4.22c.93-3.02-.94-6.2-3.16-8.43-5.67-5.64-22.53-11.84-27.35-1.86-5.47 11.3 13.21 15.26 20.4 15.38zm11.4 12.14a8 8 0 0 0 5.27.1 3.13 3.13 0 0 0 1.86-1.47 3.14 3.14 0 0 0-.12-2.48 6.59 6.59 0 0 0-3.42-3.45 11.1 11.1 0 0 0-3.16-.74c-1.86-.24-6.14-.12-6.62 2.42-.47 2.54 4.28 4.97 6.19 5.62zm7.1-16.71a3.74 3.74 0 0 0 1.84 2.36 15.87 15.87 0 0 0 7.12 2.57 8.31 8.31 0 0 0 5.17-.9 4.25 4.25 0 0 0 2.11-4.52 5.15 5.15 0 0 0-2.29-2.76 11.05 11.05 0 0 0-8.26-1.5c-2.11.44-6.04 2.01-5.69 4.75zm20.3 15.28c.55.13 1.12.07 1.63-.17.22-.14.39-.34.5-.58s.16-.49.14-.75a2.03 2.03 0 0 0-.67-1.36c-1.05-1.05-4.53-1.46-5.71-.3-2.02 2.02 2.99 3.02 4.11 3.16zm270.9-10.71a15.2 15.2 0 0 1-5.98-.87 6.83 6.83 0 0 1-4.14-4.22c-.93-3.02.95-6.2 3.16-8.43 5.67-5.64 22.53-11.84 27.35-1.86 5.47 11.3-13.21 15.26-20.39 15.38zm-11.4 12.14a8.01 8.01 0 0 1-5.26.1 3.18 3.18 0 0 1-1.87-1.47 3.14 3.14 0 0 1 .13-2.48 6.53 6.53 0 0 1 3.41-3.45 11.1 11.1 0 0 1 3.16-.74c1.87-.24 6.15-.12 6.62 2.42.47 2.54-4.28 4.97-6.19 5.62zm-7.1-16.71c-.12.5-.35.97-.67 1.37s-.72.75-1.17 1a15.87 15.87 0 0 1-7.11 2.56 8.33 8.33 0 0 1-5.18-.9 4.3 4.3 0 0 1-2.11-4.52 5.15 5.15 0 0 1 2.29-2.76 11.05 11.05 0 0 1 8.26-1.5c2.11.44 6.04 2.01 5.69 4.75zm-20.3 15.28a2.5 2.5 0 0 1-1.64-.17 1.57 1.57 0 0 1-.5-.58 1.5 1.5 0 0 1-.14-.75c.04-.52.28-1 .67-1.36 1.06-1.05 4.54-1.46 5.72-.3 2.01 2.02-3 3.02-4.11 3.16zm-468.09-48.11c-1.54 1.04-3.19 2.53-2.9 4.4.2.84.64 1.6 1.27 2.19 2.88 3.03 7.17 4.23 11.29 5.05a85.7 85.7 0 0 0 22.89 1.12 27.7 27.7 0 0 0 10.2-2.44 6.7 6.7 0 0 0 2.45-1.9c1.84-2.53.32-6.13-1.78-8.43-10.76-11.77-31.88-7.8-43.42.01zm-47.22 32.51a7.08 7.08 0 0 0 3.25 3.21 33.6 33.6 0 0 0 8.65 3.3 63.03 63.03 0 0 0 25.82 1.04c2.64-.44 5.51-1.2 7.07-3.39a6.78 6.78 0 0 0 .7-6.03c-1.73-5.14-7.75-7.2-13.02-8.42-6.32-1.48-13.5-2.68-20-1.05-4.33 1.07-14.99 5.06-12.47 11.34zm60.48-7.72c-1.2.44-2.53 1.14-2.76 2.39-.22 1.25 1.08 2.65 2.33 3.4 3.68 2.2 7.9 3.3 12.18 3.23 1.54.04 3.08-.3 4.46-1a4.42 4.42 0 0 0 2.38-3.7 4.19 4.19 0 0 0-.61-2.02 7.7 7.7 0 0 0-4.72-3.4c-4.43-1-9.05-.62-13.26 1.1zm-760.26-27.79c-1.54 1.04-3.19 2.53-2.9 4.4.2.84.64 1.6 1.27 2.19 2.88 3.03 7.17 4.23 11.29 5.05a85.7 85.7 0 0 0 22.89 1.12 27.7 27.7 0 0 0 10.2-2.44 6.7 6.7 0 0 0 2.45-1.9c1.84-2.53.32-6.13-1.78-8.43-10.76-11.77-31.88-7.8-43.42.01zm-47.22 32.51a7.08 7.08 0 0 0 3.25 3.21 33.5 33.5 0 0 0 8.65 3.3 63.04 63.04 0 0 0 25.82 1.04c2.64-.44 5.51-1.2 7.07-3.39a6.78 6.78 0 0 0 .7-6.03c-1.73-5.14-7.75-7.2-13.02-8.42-6.32-1.48-13.5-2.68-20-1.05-4.33 1.07-14.99 5.06-12.47 11.34zm60.48-7.72c-1.2.44-2.53 1.14-2.76 2.39-.22 1.25 1.08 2.65 2.33 3.4 3.68 2.2 7.9 3.3 12.18 3.23 1.54.04 3.08-.3 4.46-1a4.42 4.42 0 0 0 2.38-3.7 4.19 4.19 0 0 0-.61-2.02 7.7 7.7 0 0 0-4.72-3.4c-4.43-1-9.06-.62-13.26 1.1zm264.24 16.61a15.1 15.1 0 0 0 5.98-.87 6.9 6.9 0 0 0 4.14-4.22c.93-3.02-.95-6.2-3.16-8.43-5.67-5.64-22.54-11.84-27.35-1.86-5.47 11.3 13.2 15.26 20.39 15.38zm11.38 12.14a8 8 0 0 0 5.27.1 3.16 3.16 0 0 0 1.86-1.47 3.16 3.16 0 0 0-.12-2.48 6.56 6.56 0 0 0-3.42-3.45c-1.01-.4-2.07-.65-3.16-.74-1.86-.24-6.14-.12-6.62 2.42-.47 2.54 4.28 4.97 6.19 5.62zm7.08-16.71a3.74 3.74 0 0 0 1.84 2.36 15.87 15.87 0 0 0 7.12 2.57 8.23 8.23 0 0 0 5.17-.9 4.3 4.3 0 0 0 2.11-4.52 5.17 5.17 0 0 0-2.29-2.76 11.05 11.05 0 0 0-8.26-1.5c-2.1.44-6.04 2.01-5.69 4.75zm20.29 15.28c.55.13 1.13.07 1.63-.17a1.48 1.48 0 0 0 .65-1.33 2.03 2.03 0 0 0-.68-1.36c-1.05-1.05-4.53-1.46-5.71-.3-2.01 2.02 3 3.02 4.11 3.16z" fill="#313E90" opacity=".3"/><path d="M264.94 38s6.16 10.86-.5 19.86c5.35-6.26 16.3-10.11 24.4-3.46-.39-.43-13.05-15.34-23.9-16.4z" fill="#669B17"/><path d="M233.76 83.79c4.33.16 14.37 0 22.07-4.15-1.74-2.17-4.96-8.5-5.15-9.87-.17-1.24 3.48-5.25 5.25-7.71-6.12-3.35-13.75-4.13-18.8-4.23a15.76 15.76 0 0 1 2.97 20.13 15.83 15.83 0 0 1-6.34 5.83z" fill="#84BB3E"/><path d="M255.93 62.04a21.3 21.3 0 0 1 3.97 2.77c-3.17 4.4-4.86 5.05-4.86 5.05l.04.06V70a52.61 52.61 0 0 0 4.71 6.89l-.48.4a20.6 20.6 0 0 1-3.5 2.35c-1.73-2.18-4.95-8.51-5.14-9.88-.16-1.23 3.5-5.24 5.26-7.7z" fill="#669B17"/><path d="m259.79 76.88-.48.4c2.55 4.07 5.95 8.95 9.35 12.24 4.96 4.81.92 9.92.92 9.92 10.25-2.14 25.57-19.35 25.99-19.83-8.7 7.07-22.78 13.2-35.78-2.73z" fill="#669B17"/><path d="M259.88 64.8a60.6 60.6 0 0 0 2.94-4.62 14.8 14.8 0 0 1 1.54-2.24s.05 0 .06-.06c5.34-6.26 16.28-10.12 24.4-3.46 1.23 1 15.3 15.84 14.93 16.46a41.82 41.82 0 0 1-8.2 8.7c-8.73 7.06-22.79 13.2-35.75-2.74a52.65 52.65 0 0 1-4.7-6.88v-.06l-.04-.06s1.67-.62 4.82-5.03z" fill="#84BB3E"/><path d="M272.68 52.2a20.58 20.58 0 0 0-8.03 5.47c-1.8 6.06-3.3 15.16-.12 24.03a22.09 22.09 0 0 0 8.77 4.65c-2.65-6.89-6.36-20.67-.62-34.16zm10.15 34.12c-2.17-7.47-3.74-23.37-.1-34.96-1.56-.37-3.16-.5-4.76-.4-4.18 7.77-5.05 22.25-.62 35.91 1.84.06 3.68-.12 5.48-.55z" fill="#BCD61D" opacity=".72"/><path d="M284.5 64.6a4.34 4.34 0 1 0 8.69 0 4.34 4.34 0 0 0-8.69 0z" fill="#fff"/><path d="M286.15 64.6a2.7 2.7 0 1 0 5.39 0 2.7 2.7 0 0 0-5.39 0z" fill="#000"/><path d="M207.03 0s4.4 7.76-.35 14.19c3.81-4.47 11.63-7.23 17.43-2.48-.29-.3-9.33-10.95-17.08-11.71z" fill="#669B17"/><path d="M184.76 32.7c3.1.12 10.27 0 15.76-2.95-1.24-1.56-3.54-6.08-3.67-7.06-.13-.88 2.48-3.74 3.74-5.5-4.37-2.4-9.81-2.96-13.42-3.02a11.25 11.25 0 0 1 2.12 14.37 11.3 11.3 0 0 1-4.53 4.17z" fill="#84BB3E"/><path d="M200.59 17.17c1.02.55 1.97 1.21 2.84 1.98-2.27 3.15-3.48 3.6-3.48 3.6l.03.05v.05a37.64 37.64 0 0 0 3.37 4.92l-.35.29c-.77.64-1.6 1.2-2.5 1.67-1.23-1.55-3.53-6.07-3.67-7.05-.11-.88 2.5-3.75 3.76-5.5z" fill="#669B17"/><path d="m203.35 27.77-.35.29c1.83 2.9 4.25 6.39 6.68 8.74 3.55 3.44.66 7.08.66 7.08 7.32-1.52 18.27-13.82 18.57-14.16-6.21 5.05-16.28 9.44-25.56-1.95z" fill="#669B17"/><path d="M203.42 19.15a44 44 0 0 0 2.1-3.3 10.4 10.4 0 0 1 1.1-1.6s.03 0 .04-.05c3.81-4.47 11.63-7.23 17.43-2.48.88.72 10.93 11.32 10.66 11.76a29.87 29.87 0 0 1-5.85 6.21c-6.24 5.05-16.28 9.44-25.54-1.95a37.64 37.64 0 0 1-3.36-4.9v-.05l-.03-.05s1.2-.44 3.45-3.6z" fill="#84BB3E"/><path d="M212.56 10.14a14.7 14.7 0 0 0-5.73 3.91c-1.29 4.33-2.36 10.83-.1 17.16a15.77 15.77 0 0 0 6.27 3.33c-1.9-4.93-4.54-14.77-.44-24.4zm7.25 24.37c-1.55-5.33-2.67-16.69-.07-24.97a11.35 11.35 0 0 0-3.4-.28c-2.99 5.55-3.6 15.9-.45 25.65 1.32.04 2.64-.1 3.92-.4z" fill="#BCD61D" opacity=".72"/><path d="M221 19a3.1 3.1 0 1 0 6.21 0 3.1 3.1 0 0 0-6.21 0z" fill="#fff"/><path d="M222.18 19a1.92 1.92 0 0 0 3.81.38 1.92 1.92 0 1 0-3.81-.38z" fill="#000"/><defs><linearGradient id="i" x1="669.98" x2="607.28" y1="343.44" y2="440.67" gradientUnits="userSpaceOnUse"><stop stop-color="#132D54" offset="0"/><stop stop-color="#34497E" offset="1"/></linearGradient><linearGradient id="j" x1="602.04" x2="682.19" y1="264.69" y2="360.24" gradientUnits="userSpaceOnUse"><stop stop-color="#0E2D5A" offset="0"/><stop stop-color="#34497E" offset="1"/></linearGradient><linearGradient id="o" x1="772.63" x2="786.86" y1="256.16" y2="210.89" gradientUnits="userSpaceOnUse"><stop stop-color="#8DA7D7" stop-opacity="0" offset="0"/><stop stop-color="#8DA7D7" offset="1"/></linearGradient></defs></svg>