<svg width="182" height="11" viewBox="0 0 182 11" fill="none" xmlns="http://www.w3.org/2000/svg">
<path d="M180.824 7.8114C180.895 7.87095 180.966 7.92676 181.038 7.98441C180.935 8.04737 180.833 8.11123 180.729 8.17326C180.76 8.05265 180.791 7.93298 180.824 7.8114ZM163.361 6.72663C163.397 6.72555 163.432 6.7245 163.466 6.72345C163.469 6.81312 163.472 6.90372 163.475 6.99246C163.335 6.99669 163.195 7.00091 163.055 7.00514C163.134 6.8999 163.234 6.72673 163.361 6.72663ZM2.83874 10.6385C2.87479 10.6822 2.91083 10.726 2.94796 10.7698C2.94525 10.6801 2.94254 10.5904 2.93985 10.5017C2.86939 10.5038 2.79894 10.506 2.72956 10.5081C2.7656 10.5518 2.8027 10.5947 2.83874 10.6385ZM2.38809 9.62179C2.42549 9.71042 2.46289 9.79904 2.50134 9.88669C2.43088 9.88882 2.36043 9.89095 2.29105 9.89305C2.32306 9.80327 2.35503 9.71255 2.38809 9.62179ZM6.46479 9.04978C6.53616 9.07754 6.60642 9.10533 6.67779 9.13309C6.64491 9.19392 6.61095 9.25478 6.57807 9.31561C6.50778 9.28782 6.4364 9.26006 6.36612 9.23227C6.399 9.17144 6.4319 9.11061 6.46479 9.04978ZM3.73832 9.13221C4.02597 9.20766 4.34147 9.30657 4.38064 9.56155C4.00105 9.63941 3.74951 9.46657 3.73832 9.13221ZM7.09193 8.942C7.16123 9.1166 7.24293 9.34226 7.00031 9.3926C7.03048 9.2421 7.06173 9.09156 7.09193 8.942ZM0.166294 9.06164C0.167198 9.09153 0.168101 9.12142 0.169005 9.15131C0.273257 9.11824 0.376426 9.08521 0.480678 9.05214C0.374618 9.02543 0.269643 8.99868 0.163583 8.97197C0.164487 9.00186 0.16539 9.03175 0.166294 9.06164ZM23.2895 8.13815C23.342 8.15152 23.3955 8.16486 23.448 8.17823C23.342 8.15152 23.2359 8.12481 23.1309 8.09806C23.1834 8.11144 23.2359 8.12481 23.2895 8.13815ZM8.01992 8.37543C8.48098 8.40824 8.55621 9.06601 8.03887 9.00219C8.03257 8.79389 8.02624 8.58466 8.01992 8.37543ZM18.9304 8.09044C18.9318 8.13527 18.9331 8.18011 18.9345 8.22494C19.0049 8.22281 19.0743 8.22071 19.1448 8.21858C19.0716 8.13104 18.9995 8.04347 18.9264 7.95687C18.9277 8.0017 18.929 8.0456 18.9304 8.09044ZM16.4091 8.03298C16.5468 8.03068 16.5841 8.25954 16.6291 8.38439C16.4555 8.41956 16.2819 8.45473 16.1082 8.4899C16.1806 8.33532 16.2662 8.04384 16.4091 8.03298ZM132.947 4.41977C133.022 4.50634 133.094 4.59391 133.166 4.68148C133.028 4.71557 132.888 4.74972 132.749 4.78384C132.816 4.66214 132.882 4.54142 132.947 4.41977ZM125.4 4.78259C125.47 4.82439 125.542 4.8671 125.614 4.9098C125.575 4.71373 125.414 4.60733 125.186 4.65441C125.257 4.69715 125.328 4.73989 125.4 4.78259ZM27.2675 7.74955C27.2515 7.79398 27.2355 7.83933 27.2185 7.88473C27.3227 7.85166 27.427 7.81859 27.5312 7.78552C27.459 7.72881 27.3878 7.67112 27.3155 7.61347C27.2995 7.65883 27.2835 7.70419 27.2675 7.74955ZM19.8706 7.92832C19.8715 7.95821 19.8724 7.98717 19.8733 8.01706C19.7681 8.02024 19.6629 8.02341 19.5589 8.02656C19.5625 8.14612 19.5661 8.26568 19.5697 8.38524C19.9593 8.45854 20.1079 8.1343 20.1822 7.82914C20.0782 7.83229 19.973 7.83547 19.8679 7.83865C19.8688 7.86854 19.8697 7.89843 19.8706 7.92832ZM28.9416 7.56431C28.9252 7.59472 28.9087 7.62514 28.8923 7.65555C28.9964 7.65241 29.1015 7.64923 29.2067 7.64605C29.1344 7.5884 29.0632 7.53071 28.991 7.47306C28.9745 7.50348 28.9581 7.53389 28.9416 7.56431ZM24.3733 7.52292C24.4785 7.51974 24.5826 7.5166 24.6877 7.51342C24.6895 7.5732 24.6913 7.63298 24.6931 7.69276C24.588 7.69594 24.4839 7.69909 24.3787 7.70227C24.3769 7.64248 24.3751 7.5827 24.3733 7.52292ZM22.1745 7.72403C21.8791 7.85731 21.8493 7.94889 21.8723 8.13612C22.2447 7.85467 22.6968 7.59138 23.1228 7.82999C23.1201 7.74032 23.1174 7.65065 23.1147 7.56098C22.7882 7.56524 22.4803 7.57174 22.1745 7.72403ZM18.974 7.77592C18.9565 7.80637 18.9401 7.83678 18.9237 7.8672C19.0991 7.89181 19.2756 7.91639 19.451 7.941C19.4483 7.85133 19.4456 7.76166 19.4429 7.67199C19.2836 7.67868 19.0314 7.662 18.974 7.77592ZM13.8837 7.84007C13.9887 7.86681 14.0948 7.89352 14.2008 7.92023C14.1679 7.98106 14.134 8.04193 14.1011 8.10276C14.0279 8.01522 13.9558 7.92764 13.8837 7.84007ZM8.69368 8.08674C8.78131 8.11401 8.87002 8.14124 8.95873 8.16848C8.74842 8.17484 8.53922 8.18116 8.32891 8.18752C8.38669 8.05302 8.44166 8.00554 8.69368 8.08674ZM30.6634 7.19812C30.6986 7.21201 30.7337 7.22591 30.7689 7.2398C30.6986 7.21201 30.6272 7.18426 30.5569 7.15646C30.5921 7.17036 30.6272 7.18426 30.6634 7.19812ZM7.37381 7.85739C7.47896 7.85421 7.58414 7.85103 7.68929 7.84785C7.6911 7.90763 7.69291 7.96741 7.69472 8.02719C7.58775 7.97059 7.48077 7.91399 7.37381 7.85739ZM25.5227 7.35354C25.4894 7.39943 25.456 7.44531 25.4216 7.49123C25.7837 7.66072 26.2682 7.96581 26.5897 7.90374C26.5879 7.84396 26.5861 7.78418 26.5843 7.72533C26.725 7.75006 26.8658 7.77666 27.0065 7.80139C26.9682 7.68381 26.9289 7.56533 26.8906 7.44682C26.421 7.88733 25.9553 6.84028 25.5227 7.35354ZM28.5647 7.26157C28.5689 7.47367 28.6311 7.52041 28.7844 7.56906C28.779 7.38972 28.7736 7.21038 28.7682 7.03104C28.6977 7.03317 28.6283 7.03527 28.5579 7.0374C28.5601 7.11212 28.5624 7.18685 28.5647 7.26157ZM19.1204 7.41249C19.1213 7.44238 19.1222 7.47227 19.1231 7.50216C19.2272 7.49901 19.3323 7.49583 19.4375 7.49265C19.3305 7.43605 19.2236 7.37945 19.1177 7.32282C19.1186 7.35271 19.1195 7.3826 19.1204 7.41249ZM9.2501 7.39771C9.28524 7.41161 9.3215 7.42547 9.35665 7.43936C9.28528 7.4116 9.21497 7.38381 9.1436 7.35605C9.17982 7.36992 9.21496 7.38381 9.2501 7.39771ZM124.319 3.78405C124.355 3.78297 124.39 3.78192 124.424 3.78087C124.155 3.99282 124.373 4.35738 123.921 4.51316C123.701 4.39175 124.158 3.79734 124.319 3.78405ZM27.5481 6.6201C27.5316 6.65052 27.5152 6.68093 27.4988 6.71135C27.5681 6.70925 27.6386 6.70712 27.708 6.70502C27.6715 6.64629 27.635 6.58756 27.5974 6.52886C27.5809 6.55927 27.5645 6.58969 27.5481 6.6201ZM6.51851 7.34567C6.30074 7.57196 5.72975 7.49292 5.36773 7.47021C5.40694 7.61861 5.44615 7.76608 5.48645 7.91445C5.11525 7.98271 4.93598 7.54497 4.53677 7.76366C4.57508 7.88217 4.61337 8.00068 4.65276 8.11916C3.97142 7.8705 3.72411 9.02232 3.31606 9.05616C3.3372 8.60676 3.35838 8.1583 3.37954 7.70983C2.91463 7.76502 3.05764 8.36746 2.39546 8.14253C1.60788 7.96908 0.961701 8.56079 0.147344 8.43488C0.128747 8.60934 0.231735 8.60623 0.62567 8.64387C1.80061 8.70931 0.325326 9.26158 0.607486 9.76538C0.616755 9.49772 0.812916 9.34687 1.12132 9.39084C1.10048 9.70654 1.15559 10.0218 1.46008 10.1874C1.17948 10.166 0.898899 10.1446 0.618302 10.1231C0.839733 10.2333 0.816007 10.4537 0.739688 10.657C1.37502 10.8192 1.69245 10.0495 2.1105 10.8848C1.86211 10.5287 2.34233 10.0102 2.60275 9.79481C2.78044 9.64266 3.46249 9.87914 3.43368 9.50043C3.6509 9.65093 4.02478 9.81539 3.9746 10.0217C3.86944 10.0248 3.76537 10.028 3.66021 10.0312C3.80649 10.6344 4.49929 10.5798 5.03484 10.3486C4.95895 10.1714 4.88417 9.99416 4.80828 9.81695C5.12687 9.76711 5.63965 9.75161 5.53248 9.43698C5.81217 9.42852 6.09185 9.42007 6.37154 9.41161C6.25248 9.7443 6.99142 9.85285 7.22413 9.83366C7.03106 9.80023 6.98623 9.64451 7.00302 9.48227C7.23994 9.42275 7.39465 9.73127 7.54123 9.91382C7.76094 9.57248 8.38845 9.54696 8.79444 9.69643C8.75436 9.51907 8.71425 9.34078 8.67306 9.16252C8.96456 9.43699 9.31851 9.65908 9.73601 9.57914C9.73059 9.3998 9.72517 9.22046 9.71974 9.04112C9.89428 9.03584 10.0699 9.03053 10.2444 9.02526C10.2587 8.34981 9.40392 8.42988 8.95331 7.98914C9.2641 7.96852 9.6636 7.93775 9.6954 8.23596C9.76406 8.17405 9.83162 8.11217 9.90027 8.05026C9.62985 7.79105 9.27855 7.54924 8.94789 7.8098C8.94337 7.66035 8.93888 7.51183 8.93436 7.36238C8.92064 7.62644 8.72838 7.79867 8.42321 7.82566C8.48717 7.64422 8.55225 7.46369 8.61621 7.28225C8.33704 7.23646 8.14826 7.45253 7.99826 7.659C7.84237 7.20467 6.90254 7.01993 6.51851 7.34567ZM55.9188 5.62771C55.9539 5.6416 55.9901 5.65547 56.0253 5.66936C55.9539 5.6416 55.8836 5.61381 55.8133 5.58602C55.8485 5.59991 55.8836 5.61381 55.9188 5.62771ZM27.9169 6.65383C27.8843 6.75952 27.8528 6.86519 27.8213 6.97085C27.9264 6.96767 28.0305 6.96453 28.1357 6.96135C28.1046 7.08102 28.0735 7.20163 28.0413 7.32227C28.4434 7.34284 28.3494 6.42478 28.0115 6.33683C27.98 6.4425 27.9485 6.54816 27.9169 6.65383ZM9.66018 7.07118C9.6273 7.13201 9.59438 7.19284 9.56042 7.2537C9.87189 7.2555 10.2735 7.26112 10.2873 6.96247C10.0926 7.0553 9.89055 7.04645 9.75991 6.88866C9.72703 6.94949 9.69307 7.01035 9.66018 7.07118ZM38.0799 5.9436C38.2225 6.02811 38.3651 6.11355 38.5076 6.199C38.2991 6.26514 38.0917 6.33124 37.8832 6.39738C37.9491 6.2458 38.014 6.09425 38.0799 5.9436ZM150.316 2.37072C150.516 2.40302 150.798 2.43095 150.743 2.62614C150.604 2.63034 150.464 2.63457 150.324 2.63879C150.322 2.55006 150.319 2.46039 150.316 2.37072ZM14.2654 6.57387C14.2672 6.63365 14.269 6.69343 14.2708 6.75228C14.465 6.78941 14.5393 6.62729 14.577 6.4747C14.471 6.44799 14.3649 6.42127 14.2599 6.39453C14.2617 6.45431 14.2636 6.51409 14.2654 6.57387ZM94.7149 3.91716C94.75 3.93105 94.7862 3.94492 94.8214 3.95881C94.75 3.93105 94.6797 3.90326 94.6094 3.87547C94.6446 3.88936 94.6797 3.90326 94.7149 3.91716ZM76.0957 4.48009C76.1482 4.49347 76.2018 4.5068 76.2543 4.52017C76.1482 4.49346 76.0433 4.46672 75.9372 4.44001C75.9897 4.45338 76.0433 4.46672 76.0957 4.48009ZM62.1994 4.98999C62.2008 5.03482 62.2021 5.07966 62.2035 5.1245C62.378 5.08276 62.5647 5.01167 62.5097 4.84598C62.4057 4.84912 62.3005 4.8523 62.1953 4.85548C62.1967 4.90032 62.1981 4.94515 62.1994 4.98999ZM56.7484 5.28943C56.8579 5.60866 57.4454 5.5909 57.8086 5.61544C57.7726 5.28557 57.0398 5.16562 56.6362 5.02356C56.6736 5.11218 56.711 5.20081 56.7484 5.28943ZM42.1593 5.46126C42.2316 5.51891 42.3028 5.57659 42.3751 5.63424C42.2709 5.66731 42.1666 5.70038 42.0634 5.73342C42.0954 5.6427 42.1274 5.55198 42.1593 5.46126ZM16.3056 6.33268C16.2514 6.51289 16.3362 6.55333 16.471 6.59694C16.5677 6.42479 16.543 6.25351 16.3522 6.15177C16.3367 6.21207 16.3212 6.27238 16.3056 6.33268ZM14.8873 6.33069C14.8887 6.37552 14.8901 6.42036 14.8914 6.46519C14.822 6.46729 14.7516 6.46942 14.6822 6.47152C14.7205 6.59003 14.7588 6.7076 14.7971 6.82612C15.0169 6.73813 15.3823 6.65884 15.311 6.45251C15.4864 6.47712 15.6629 6.5017 15.8384 6.52631C15.5534 6.32364 15.2307 6.13238 14.8833 6.19618C14.8846 6.24101 14.886 6.28585 14.8873 6.33069ZM146.948 2.11355C147.017 2.11145 147.088 2.10932 147.157 2.10722C147.125 2.19794 147.093 2.28866 147.061 2.37938C147.023 2.29079 146.985 2.20217 146.948 2.11355ZM82.6482 4.14735C82.6491 4.17724 82.65 4.20713 82.6509 4.23702C82.755 4.23388 82.8601 4.2307 82.9653 4.22752C82.9635 4.16774 82.9617 4.10796 82.9599 4.04818C82.8547 4.05136 82.7496 4.05454 82.6455 4.05769C82.6464 4.08758 82.6473 4.11746 82.6482 4.14735ZM82.1755 4.16164C82.1938 4.19101 82.2131 4.22034 82.2303 4.24974C82.1938 4.19101 82.1573 4.13228 82.1208 4.07355C82.139 4.10292 82.1573 4.13228 82.1755 4.16164ZM76.8787 4.32179C76.8933 4.44476 77.2311 4.45511 77.4088 4.48527C77.2959 4.30263 77.1144 4.18471 76.876 4.23212C76.8769 4.26201 76.8778 4.2919 76.8787 4.32179ZM45.1969 5.18992C45.2681 5.2476 45.3404 5.30525 45.4116 5.36293C45.3064 5.36611 45.2013 5.36929 45.0972 5.37243C45.1301 5.3116 45.163 5.25078 45.1969 5.18992ZM43.8332 5.23115C43.8679 5.2301 43.9025 5.22905 43.9372 5.228C43.991 5.42552 43.8616 5.56125 43.6337 5.59619C43.6711 5.46884 43.6956 5.23718 43.8332 5.23115ZM12.8962 6.43576C12.4143 6.8617 11.9702 6.45909 11.6524 6.96607C11.4662 7.26713 11.3604 7.28249 11.1345 7.20611C11.2012 7.11434 11.2689 7.02254 11.3356 6.93077C11.1948 6.90511 11.0541 6.87945 10.9134 6.85378C10.9905 7.25066 10.4641 7.38999 10.6288 7.84873C10.4506 7.73444 10.2714 7.62019 10.0933 7.50685C10.0631 7.65641 10.0329 7.80691 10.0017 7.95744C10.1415 7.95321 10.2813 7.94898 10.4212 7.94476C10.3545 8.03652 10.2868 8.12833 10.2201 8.2201C10.5985 8.39003 10.6508 8.00326 11.0632 8.3283C11.4499 8.62887 11.7462 8.41516 11.6863 8.08601C11.5116 8.12121 11.338 8.15638 11.1643 8.19155C11.1463 7.77418 11.6394 7.18243 12.0909 7.58014C12.2021 7.99095 11.5306 8.85922 11.7215 9.24986C11.4747 9.19748 11.2279 9.14511 10.9811 9.09274C11.469 8.76011 11.4144 8.45979 10.7556 8.56198C10.849 8.81719 10.8821 9.08638 10.6721 9.28159C11.3116 9.33237 12.0241 9.46041 12.8776 9.30465C11.7009 8.20991 14.9791 9.07751 14.7283 7.99404C15.153 7.90173 15.5414 8.54817 16.0004 8.4034C15.945 8.68836 15.1152 8.51898 14.7445 8.53113C14.7855 8.73931 14.8265 8.94656 14.8675 9.15474C15.3417 8.94033 15.8942 8.69644 16.331 8.93099C16.557 8.50998 17.7338 7.8854 17.8997 8.70405C17.7954 8.73712 17.6912 8.77019 17.5869 8.80326C17.982 9.02317 18.859 8.09914 18.7117 7.78385C18.5719 7.78808 18.432 7.79231 18.2922 7.79654C18.3232 7.67593 18.3543 7.55532 18.3854 7.43471C17.9912 7.38866 17.5001 8.26457 17.3425 7.64574C17.3693 7.3495 17.8876 7.26371 17.8455 6.91345C17.1668 7.21726 16.7921 6.12912 16.4872 7.13402C16.7483 7.15511 16.9843 7.24615 17.0227 7.47591C16.8827 7.51006 16.7437 7.54418 16.6048 7.5783C16.5978 7.20267 16.1368 7.21006 15.7549 7.24592C15.833 6.95934 15.4074 6.84132 15.1099 6.72691C15.1153 6.90625 15.1207 7.08559 15.1261 7.26493C14.8774 7.1855 14.624 7.20345 14.6068 7.4592C14.5814 7.19352 14.3754 7.05483 14.0713 7.11732C14.1023 6.88733 14.2316 6.53376 13.9472 6.49374C14.0168 6.46172 14.0852 6.42973 14.1548 6.39771C13.7264 6.26201 13.3131 6.12211 12.8962 6.43576ZM66.8022 4.44694C66.8736 4.4747 66.9438 4.5025 67.0152 4.53026C66.9109 4.56333 66.8067 4.59639 66.7035 4.62943C66.7364 4.5686 66.7693 4.50777 66.8022 4.44694ZM57.627 4.8141C57.6106 4.84452 57.5942 4.87493 57.5766 4.90537C57.6106 4.84451 57.6435 4.78369 57.6764 4.72286C57.6599 4.75327 57.6435 4.78369 57.627 4.8141ZM65.4942 4.57624C65.5134 4.6355 65.5325 4.69475 65.5517 4.75401C65.8057 4.72015 66.0358 4.6169 65.9604 4.38358C65.7859 4.38885 65.6113 4.39413 65.4368 4.39941C65.4559 4.45773 65.4751 4.51699 65.4942 4.57624ZM37.9531 5.23036C38.2709 5.36847 38.6557 5.53447 38.9001 5.29055C38.9722 5.37812 39.0453 5.46566 39.1174 5.55323C39.0481 5.55533 38.9776 5.55746 38.9082 5.55955C38.9109 5.64922 38.9136 5.7389 38.9163 5.82857C38.5136 5.82298 37.8303 5.69031 37.6604 5.95629C37.7572 5.71402 37.8552 5.47172 37.9531 5.23036ZM19.8617 5.91103C19.8457 5.95639 19.8297 6.00175 19.8137 6.04711C19.8831 6.04501 19.9536 6.04288 20.024 6.04075C19.9855 5.95216 19.9481 5.86448 19.9107 5.77586C19.8947 5.82122 19.8777 5.86567 19.8617 5.91103ZM17.503 6.02722C17.4354 6.0891 17.3668 6.15101 17.2992 6.21289C17.7559 6.2103 18.0887 6.70229 18.6738 6.53033C18.6756 6.58918 18.6774 6.64896 18.6792 6.70874C18.7441 6.55813 18.81 6.40655 18.8749 6.255C19.1441 6.29454 19.0906 6.64208 19.1042 6.8754C19.4496 6.74529 19.7961 6.61514 20.1416 6.48596C19.7083 6.00636 18.0815 5.67223 17.503 6.02722ZM73.2549 4.29673C73.2051 4.37302 73.1553 4.44932 73.1045 4.52565C73.2906 4.40036 73.595 4.2397 73.4064 4.0687C73.3556 4.14503 73.3058 4.22039 73.2549 4.29673ZM68.1605 4.22731C68.2657 4.22413 68.3709 4.22095 68.476 4.21777C68.5286 4.41438 68.4004 4.55101 68.1713 4.58505C68.1677 4.46549 68.1641 4.34687 68.1605 4.22731ZM31.7614 5.32781C31.9762 5.36058 31.9563 5.5304 31.8774 5.68237C31.838 5.56389 31.7997 5.44632 31.7614 5.32781ZM25.4672 5.51811C25.7587 5.64953 25.5308 5.93503 25.381 6.14805C25.3068 5.91936 25.2303 5.65055 25.4672 5.51811ZM60.1855 4.37867C60.2578 4.43632 60.3289 4.49401 60.4012 4.55166C60.2961 4.55484 60.192 4.55798 60.0868 4.56116C60.1197 4.50033 60.1526 4.4395 60.1855 4.37867ZM57.0422 4.56346C57.0073 4.59443 56.9736 4.62537 56.9398 4.65631C57.0814 4.71093 57.223 4.76648 57.3647 4.82203C57.3958 4.70142 57.4269 4.58175 57.459 4.4611C57.3104 4.46279 57.1443 4.46034 57.0422 4.56346ZM44.5563 4.85121C44.6266 4.879 44.698 4.90676 44.7682 4.93455C44.7354 4.99538 44.7025 5.05621 44.6695 5.11611C44.6311 5.02845 44.5937 4.93983 44.5563 4.85121ZM23.8942 5.56567C23.9298 5.59451 23.9654 5.62335 24.0021 5.65216C23.9298 5.59451 23.8575 5.53686 23.7863 5.47918C23.8219 5.50802 23.8576 5.53686 23.8942 5.56567ZM94.5905 3.24871C94.6279 3.33733 94.6653 3.42595 94.7027 3.51457C94.6333 3.51667 94.5629 3.5188 94.4924 3.52093C94.5255 3.43018 94.5574 3.33946 94.5905 3.24871ZM62.5466 4.30728C62.5302 4.3377 62.5126 4.36815 62.4962 4.39856C62.5667 4.39643 62.6361 4.39433 62.7065 4.3922C62.669 4.3335 62.6325 4.27477 62.596 4.21604C62.5795 4.24645 62.5631 4.27687 62.5466 4.30728ZM21.7965 5.62909C21.7983 5.68887 21.8001 5.74865 21.8019 5.8075C21.9756 5.77326 22.1492 5.73716 22.3228 5.70293C22.1456 5.61854 21.9684 5.53414 21.7911 5.44975C21.7929 5.50953 21.7947 5.56931 21.7965 5.62909ZM71.3581 4.04088C71.3425 4.10118 71.3259 4.16152 71.3103 4.22183C71.2054 4.19508 71.0993 4.16837 70.9933 4.14166C70.9986 4.32007 71.0041 4.49941 71.0095 4.67875C71.5646 4.62644 71.9539 4.29773 72.5825 4.63119C72.4032 4.15513 71.6594 4.35525 71.4047 3.85997C71.3891 3.92027 71.3736 3.98057 71.3581 4.04088ZM46.964 4.59891C47.1404 4.65342 47.3167 4.70792 47.4931 4.76242C47.2496 4.85673 46.9967 4.85316 46.964 4.59891ZM27.8218 5.26741C27.8401 5.29678 27.8594 5.32611 27.8777 5.35548C27.8401 5.29678 27.8036 5.23805 27.7671 5.17932C27.7854 5.20868 27.8036 5.23805 27.8218 5.26741ZM95.6865 3.03607C95.7385 3.0345 95.7906 3.03292 95.8437 3.03132C95.8161 3.23035 95.6644 3.34619 95.4312 3.31304C95.4742 3.19114 95.5063 3.0331 95.6865 3.03607ZM59.7578 4.12235C59.8283 4.12022 59.8977 4.11812 59.9681 4.11599C59.9708 4.20566 59.9736 4.29533 59.9763 4.385C59.9058 4.38713 59.8364 4.38923 59.766 4.39136C59.7633 4.30169 59.7605 4.21202 59.7578 4.12235ZM73.0801 3.71956C73.1157 3.7484 73.1524 3.77721 73.188 3.80605C73.1157 3.7484 73.0445 3.69072 72.9722 3.63307C73.0089 3.66187 73.0445 3.69072 73.0801 3.71956ZM48.9511 4.35933C49.56 4.39982 49.7961 5.06769 50.3312 4.85612C50.3348 4.97474 50.3384 5.0943 50.342 5.21386C49.7472 5.24493 49.57 4.76694 48.9674 4.89735C48.962 4.71801 48.9566 4.53867 48.9511 4.35933ZM46.4339 4.43543C46.737 4.44871 46.8264 4.71339 46.8697 4.96077C46.6941 4.96608 46.5196 4.97136 46.345 4.97663C46.3743 4.79625 46.4036 4.61586 46.4339 4.43543ZM26.0372 5.2765C25.9874 5.3528 25.9376 5.42909 25.8867 5.50542C25.7561 5.34763 25.554 5.33878 25.3594 5.43162C25.3269 5.11192 24.8492 5.17498 24.5122 5.18798C24.7315 5.62543 23.8764 5.90932 24.1251 6.27577C24.3327 6.17974 24.5392 6.08374 24.7468 5.98771C24.7851 6.10622 24.8234 6.22474 24.8628 6.34321C24.6106 6.29287 24.6039 6.60721 24.5609 6.80017C24.3403 6.2515 23.3398 6.50052 23.8324 7.0017C23.7281 7.03477 23.6239 7.06784 23.5207 7.10088C23.4412 6.80411 23.3628 6.5073 23.2833 6.21147C23.3885 6.20829 23.4936 6.20511 23.5977 6.20196C23.5387 5.93636 22.9457 5.84771 22.9446 5.41487C22.8403 5.44794 22.7361 5.48101 22.6329 5.51405C22.8791 5.94228 23.0057 6.39656 22.8827 6.85091C22.6717 6.79746 22.4596 6.74403 22.2485 6.69058C23.1745 5.91278 21.4938 5.95331 21.1176 5.78424C20.8856 5.43225 20.6477 5.85361 20.6555 6.11141C21.2855 6.05964 22.6892 6.01253 21.829 6.70326C21.3439 6.05414 20.9961 7.00518 20.4625 6.65482C20.4313 6.80536 20.4011 6.95586 20.3709 7.10635C20.2996 7.0786 20.2292 7.0508 20.1579 7.02304C20.0581 7.20463 19.9595 7.38712 19.8597 7.56964C19.9987 7.53552 20.1376 7.5014 20.2765 7.46728C20.2793 7.55695 20.282 7.64662 20.2847 7.73629C20.8371 7.55972 20.9058 8.50378 21.4571 8.32818C21.344 8.03242 21.2298 7.73764 21.1157 7.44191C21.3463 7.46299 21.4826 7.59069 21.4409 7.79109C21.3932 7.29141 23.5992 7.29296 23.7435 7.54197C23.5066 7.67441 23.5831 7.94416 23.6573 8.1719C23.9289 7.8963 24.3276 7.91323 24.7039 8.0505C24.6158 7.61095 25.2757 7.58352 25.2043 7.22855C25.0306 7.26371 24.8559 7.29891 24.6823 7.33408C24.6796 7.24441 24.6769 7.15474 24.6742 7.066C24.8487 7.06072 25.0243 7.05542 25.1989 7.05014C25.1961 6.96047 25.1934 6.8708 25.1907 6.78113C25.3315 6.80679 25.4722 6.83245 25.613 6.85811C25.6112 6.79833 25.6094 6.73855 25.6075 6.67877C25.894 6.82344 26.1914 6.57417 26.4385 6.38439C26.4768 6.5029 26.5162 6.62139 26.5545 6.7399C26.3562 6.78422 26.0765 6.82914 26.1431 7.02159C26.4537 6.95797 26.6806 7.10631 26.7827 7.36032C26.8922 7.25137 26.9863 7.16719 27.1982 7.21314C28.0009 7.31228 27.0465 6.50344 27.4852 6.26393C27.3783 6.20733 27.2713 6.15073 27.1643 6.09413C27.3372 5.99915 27.509 5.9042 27.6809 5.80925C27.4103 5.7604 27.0919 5.71019 26.9497 5.92111C26.9807 5.8005 27.0118 5.6799 27.044 5.56019C26.7661 5.62749 26.4882 5.69573 26.2103 5.76396C26.1709 5.64549 26.1327 5.5279 26.0944 5.40939C26.1995 5.40621 26.3036 5.40307 26.4088 5.39989C26.4069 5.34011 26.4051 5.28033 26.4033 5.22055C26.5788 5.24516 26.7553 5.26974 26.9307 5.29435C27.011 5.00678 26.1235 5.01024 26.0372 5.2765ZM138.532 1.56117C138.961 1.62392 139.064 2.05834 138.545 2.00952C138.541 1.86007 138.536 1.71062 138.532 1.56117ZM40.0319 4.53924C40.7126 4.58971 40.3807 5.16724 40.6915 5.50564C40.2663 5.583 40.1071 5.88045 40.1885 6.23793C40.0833 6.24111 39.9781 6.24429 39.8741 6.24744C39.9015 6.00727 39.929 5.76803 39.9565 5.52786C39.782 5.53314 39.6074 5.53841 39.4329 5.54369C39.3384 5.28945 40.0814 5.24641 40.3652 5.15743C40.0684 5.0673 40.0084 4.80453 40.0319 4.53924ZM85.2408 3.08356C85.2782 3.17218 85.3156 3.26081 85.3541 3.34846C85.2498 3.38153 85.1445 3.41463 85.0413 3.44767C85.0029 3.35908 84.9666 3.27042 84.9281 3.18184C85.0334 3.14873 85.1365 3.1157 85.2408 3.08356ZM70.5054 3.6179C70.5237 3.64726 70.5419 3.67663 70.5602 3.70599C70.5237 3.64726 70.4861 3.5895 70.4496 3.53076C70.4679 3.56013 70.4861 3.58856 70.5054 3.6179ZM55.4492 3.98429C55.9188 4.04956 55.8578 4.50952 55.7917 4.86959C55.6877 4.65958 55.6154 4.27844 55.3548 4.34522C55.387 4.22458 55.4181 4.10397 55.4492 3.98429ZM50.3095 4.13969C50.3807 4.19644 50.453 4.25409 50.5242 4.31177C50.4201 4.31491 50.3149 4.31809 50.2098 4.32127C50.2427 4.26044 50.2755 4.19961 50.3095 4.13969ZM100.344 2.53718C100.622 2.62133 100.676 2.83846 100.569 3.06795C100.492 2.89077 100.419 2.71443 100.344 2.53718ZM84.2928 3.02247C84.3322 3.14095 84.3705 3.25853 84.4099 3.37701C84.267 3.35141 84.1294 3.32565 83.9865 3.30006C84.09 3.20717 84.1914 3.11436 84.2928 3.02247ZM76.9571 3.46771C76.8899 3.54454 76.8217 3.62139 76.7546 3.69821C77.1367 3.88206 77.733 4.33429 78.0241 4.01884C78.0345 4.36351 78.4132 4.39974 78.7688 4.3544C79.8314 2.85819 77.8747 3.92332 77.1606 3.23811C77.0924 3.31496 77.0253 3.39086 76.9571 3.46771ZM75.4293 3.29045C75.4824 3.28885 75.5345 3.28727 75.5876 3.28567C75.5921 3.43418 75.5966 3.58364 75.6012 3.73309C75.4237 3.67862 75.2474 3.62411 75.071 3.56961C75.1585 3.4473 75.2545 3.28732 75.4293 3.29045ZM62.3721 3.77498C62.4088 3.80379 62.4443 3.8317 62.4799 3.86054C62.4088 3.80379 62.3365 3.74614 62.2653 3.68846C62.3009 3.7173 62.3365 3.74614 62.3721 3.77498ZM46.9505 4.15149C47.0546 4.14835 47.1597 4.14517 47.2649 4.14199C47.2676 4.23166 47.2703 4.32039 47.273 4.41007C47.1651 4.32357 47.0573 4.23802 46.9505 4.15149ZM34.1025 4.6297C34.1207 4.65906 34.139 4.68749 34.1572 4.71686C34.1208 4.65906 34.0842 4.60033 34.0477 4.5416C34.066 4.57096 34.0842 4.60033 34.1025 4.6297ZM61.4837 3.89066C61.4344 3.9819 61.3839 4.07318 61.3346 4.16443C62.1219 4.29208 62.0382 3.20917 61.4837 3.89066ZM97.1901 2.45303C97.2259 2.45195 97.2606 2.4509 97.2964 2.44982C97.395 2.73479 96.9736 2.82887 96.68 2.91628C96.8229 2.75957 97.045 2.46396 97.1901 2.45303ZM94.3081 2.62992C94.2928 2.6603 94.2752 2.69074 94.2598 2.72113C94.3292 2.71903 94.3986 2.71693 94.468 2.71483C94.4326 2.65607 94.395 2.59737 94.3585 2.53864C94.3421 2.56906 94.3256 2.59947 94.3081 2.62992ZM78.3658 3.1568C78.4192 3.30757 78.5911 3.28648 78.7363 3.28022C78.5938 3.19478 78.4512 3.10934 78.3087 3.0239C78.3284 3.06818 78.3471 3.11249 78.3658 3.1568ZM46.4204 3.98802C46.4916 4.0457 46.5639 4.10335 46.635 4.16103C46.5317 4.22399 46.4294 4.28692 46.3261 4.34894C46.3572 4.22927 46.3882 4.10866 46.4204 3.98802ZM93.727 2.46798C93.9266 2.71625 93.5952 2.84687 93.3199 2.92811C93.3163 2.80949 93.3127 2.68993 93.3091 2.57037C93.4509 2.596 93.5906 2.62169 93.7324 2.64732C93.7306 2.58754 93.7288 2.52776 93.727 2.46798ZM43.6901 3.98081C43.9002 4.00438 44.1115 4.02791 44.3216 4.05147C44.067 4.13677 43.847 4.28927 44.0207 4.50839C43.9156 4.51157 43.8115 4.51472 43.7063 4.5179C43.7009 4.33949 43.6955 4.16015 43.6901 3.98081ZM133.69 1.16997C133.762 1.25754 133.835 1.34509 133.907 1.43266C133.502 1.60948 133.214 1.38071 133.69 1.16997ZM131.487 1.23657C131.618 1.39437 131.819 1.40325 132.015 1.31038C132.016 1.37016 132.018 1.42994 132.02 1.48972C131.775 1.49713 131.53 1.50454 131.285 1.51195C131.352 1.42018 131.421 1.32834 131.487 1.23657ZM100.647 2.169C100.719 2.25657 100.793 2.34411 100.866 2.43165C100.795 2.43378 100.725 2.43591 100.655 2.43801C100.653 2.34834 100.65 2.25867 100.647 2.169ZM99.1784 2.21341C99.213 2.21236 99.2477 2.21131 99.2824 2.21027C99.2851 2.29994 99.2878 2.38961 99.2905 2.47928C99.4316 2.44509 99.5695 2.41101 99.7085 2.37689C99.6228 2.59451 99.5843 3.07903 99.3068 3.01637C99.3032 2.89681 99.2995 2.77724 99.296 2.65862C99.066 2.62537 98.9122 2.74127 98.8856 2.93935C98.8143 2.91159 98.7439 2.88379 98.6726 2.85603C98.7941 2.67753 99.03 2.22257 99.1784 2.21341ZM94.0387 2.36881C94.2479 2.36248 94.4582 2.35612 94.6675 2.34979C94.8345 3.31519 93.9819 3.398 94.0387 2.36881ZM96.7636 2.19667C96.8019 2.31518 96.8401 2.43369 96.8784 2.55221C96.4679 2.46832 96.5462 3.01008 96.1581 3.02181C96.1526 2.84247 96.1472 2.66407 96.1418 2.48473C96.4276 2.49759 96.7468 2.46923 96.7636 2.19667ZM64.1392 3.18304C64.3274 3.23625 64.33 3.75318 64.6774 3.61553C64.4888 4.15975 63.3822 3.23398 64.1392 3.18304ZM58.2669 3.40547C58.3021 3.41936 58.3372 3.43326 58.3724 3.44715C58.3021 3.41936 58.2307 3.3916 58.1604 3.36381C58.1956 3.3777 58.2307 3.3916 58.2669 3.40547ZM131.061 1.06995C131.135 1.12757 131.205 1.18528 131.277 1.24293C131.104 1.30799 130.931 1.37305 130.758 1.43814C130.859 1.3154 130.961 1.19266 131.061 1.06995ZM86.1634 2.33859C86.3033 2.33436 86.4442 2.3301 86.5818 2.32594C86.5837 2.38572 86.5854 2.44456 86.5872 2.50434C86.4467 2.44969 86.304 2.39418 86.1634 2.33859ZM82.7008 2.44328C83.0541 2.68035 83.0299 3.13358 82.5095 3.07639C82.5491 3.16495 82.5854 3.25267 82.6238 3.34126C82.3991 3.26671 82.0306 3.20961 82.0883 2.99938C81.9841 3.03245 81.8798 3.06551 81.7766 3.09855C81.9824 2.90721 82.2613 2.94272 82.5095 3.07639C82.5747 2.865 82.6377 2.65367 82.7008 2.44328ZM76.1974 2.6399C76.496 2.71689 76.7042 2.89384 76.7384 3.16113C76.5994 3.19525 76.4605 3.22936 76.3215 3.26348C76.2805 3.0553 76.2384 2.84715 76.1974 2.6399ZM41.3726 3.73768C40.7887 3.94606 41.607 4.02323 41.9068 4.03473C41.9676 3.74868 41.6737 3.64724 41.3726 3.73768ZM75.7765 2.60775C75.9161 2.66711 75.8181 2.94213 75.7914 3.10001C75.5872 2.94911 75.3626 2.55576 75.7765 2.60775ZM86.996 2.13391C87.1022 2.1307 87.2063 2.12755 87.3114 2.12437C87.3132 2.18415 87.3151 2.24394 87.3169 2.30372C87.2099 2.24712 87.104 2.19048 86.996 2.13391ZM113.429 1.24499C113.5 1.30267 113.572 1.36032 113.643 1.418C113.539 1.42115 113.434 1.42433 113.329 1.42751C113.362 1.36668 113.395 1.30585 113.429 1.24499ZM97.6932 1.72074C97.868 1.93983 97.6469 2.0933 97.3923 2.17766C97.6053 2.08053 97.7471 1.92572 97.6932 1.72074ZM54.0624 3.26426C54.1004 3.33791 54.1373 3.41065 54.1743 3.48433C54.2709 3.27011 54.2481 3.05484 53.9515 3.04324C53.9885 3.11691 54.0254 3.19059 54.0624 3.26426ZM50.3345 3.24235C50.3181 3.27276 50.3016 3.30318 50.2852 3.33359C50.3901 3.36033 50.4962 3.38705 50.6023 3.41376C50.5302 3.32619 50.457 3.23864 50.3849 3.15107C50.3674 3.18152 50.3509 3.21193 50.3345 3.24235ZM74.5084 2.33196C74.7899 2.38328 75.0715 2.43461 75.353 2.48593C75.1959 3.07033 74.2166 2.94287 74.5084 2.33196ZM58.0391 2.8299C58.2859 2.88227 58.5327 2.93465 58.7795 2.98702C58.5585 3.17695 58.6569 3.38339 58.8998 3.52096C58.6109 3.83541 57.8426 3.90445 57.9501 3.37016C58.0206 3.36803 58.09 3.36594 58.1604 3.36381C58.1204 3.18645 58.0792 3.00819 58.0391 2.8299ZM51.1188 3.12888C51.1544 3.15772 51.19 3.18656 51.2267 3.21537C51.1544 3.15772 51.0832 3.10004 51.0109 3.04239C51.0465 3.07123 51.0832 3.10004 51.1188 3.12888ZM87.828 1.8395C87.935 1.8961 88.042 1.9527 88.1478 2.00933C87.9762 2.07436 87.8002 2.13952 87.6296 2.20451C87.6954 2.08285 87.7612 1.96119 87.828 1.8395ZM65.6466 2.68964C65.7229 2.88086 65.5487 2.96841 65.3961 3.05529C65.6635 3.21269 66.0107 3.35365 66.1301 3.0331C66.0249 3.03628 65.9198 3.03946 65.8157 3.04261C65.891 2.80473 65.9236 2.52046 65.5891 2.51188C65.6083 2.57113 65.6274 2.63039 65.6466 2.68964ZM63.5448 2.61856C63.8671 2.65463 63.9339 2.67411 63.9191 2.83163C63.6307 2.83754 63.2705 2.87554 63.0773 2.76732C63.1431 2.6092 63.2153 2.593 63.5448 2.61856ZM123.231 0.76912C123.296 0.880273 123.477 0.794405 123.598 0.758009C123.457 0.73238 123.317 0.706685 123.175 0.681055C123.194 0.710389 123.213 0.739754 123.231 0.76912ZM66.435 2.71068C66.5475 3.09247 67.0632 3.39007 67.3914 3.08471C67.4299 3.28175 67.5905 3.38816 67.8191 3.34104C67.7772 3.10297 67.7353 2.86583 67.6923 2.62779C67.307 2.80399 66.572 2.90007 66.6358 2.39048C66.5307 2.39366 66.4255 2.39684 66.3203 2.40002C66.3593 2.50355 66.3972 2.60712 66.435 2.71068ZM90.7594 1.5723C91.159 1.94073 91.8764 1.98262 91.9491 2.70124C92.0852 2.60737 92.2234 2.51344 92.3595 2.41958C92.3998 2.56794 92.4389 2.71635 92.4792 2.86471C92.2443 2.668 91.9237 2.7581 91.6391 2.89012C91.9836 2.01116 89.979 2.38871 90.7594 1.5723ZM93.4883 1.53374C93.4896 1.57857 93.491 1.62341 93.4924 1.66824C93.6855 1.70541 93.7631 1.54413 93.7986 1.39066C93.6946 1.39381 93.5894 1.39699 93.4843 1.40017C93.4856 1.445 93.487 1.48983 93.4883 1.53374ZM82.5751 1.73C82.6819 1.81558 82.7897 1.90208 82.8976 1.98857C82.7578 1.9928 82.619 1.99699 82.477 2.00129C82.5111 1.9105 82.542 1.81981 82.5751 1.73ZM77.6447 1.87906C77.8192 1.87379 77.9938 1.86851 78.1694 1.8632C78.0787 2.05667 78.0068 2.3711 77.7634 2.3233C77.822 2.14483 77.8899 1.91372 77.6447 1.87906ZM98.8315 1.14874C98.9384 1.20534 99.0443 1.26198 99.1513 1.31858C99.0461 1.32176 98.9421 1.32491 98.8369 1.32808C98.8351 1.26831 98.8333 1.20852 98.8315 1.14874ZM69.9841 2.02092C70.1622 2.13521 70.3414 2.24853 70.5196 2.36281C70.4491 2.36494 70.3797 2.36704 70.3093 2.36917C70.396 2.69003 70.0746 3.00733 69.8127 3.28077C69.6707 2.85406 69.7456 2.42361 69.9841 2.02092ZM85.2986 1.51303C85.3337 1.52692 85.3689 1.54082 85.404 1.55471C85.3337 1.52692 85.2624 1.49916 85.1921 1.47137C85.2272 1.48526 85.2624 1.49916 85.2986 1.51303ZM65.6835 2.15095C65.7191 2.17979 65.7547 2.20863 65.7914 2.23744C65.7191 2.17979 65.6479 2.12211 65.5756 2.06446C65.6112 2.0933 65.6479 2.12211 65.6835 2.15095ZM93.4216 1.08793C93.4752 1.10126 93.5277 1.11464 93.5813 1.12798C93.4752 1.10127 93.3702 1.07452 93.2631 1.04784C93.3166 1.06118 93.3691 1.07455 93.4216 1.08793ZM68.5108 1.88597C68.5464 1.91481 68.582 1.94365 68.6176 1.97249C68.5464 1.9148 68.4741 1.85716 68.4029 1.79948C68.4385 1.82832 68.4741 1.85716 68.5108 1.88597ZM81.6187 1.35503C81.4139 1.40142 81.4018 1.46723 81.4152 1.58556C81.6882 1.5717 82.0942 1.61552 82.1436 1.38403C81.9718 1.33594 81.8221 1.29933 81.6187 1.35503ZM80.8877 1.51176C81.0205 1.70408 80.9497 2.05587 80.9121 2.31785C80.7367 2.29324 80.5612 2.26863 80.3847 2.24405C80.5645 1.87493 80.5573 1.4937 80.0459 1.44746C80.7072 2.10902 79.514 2.51532 79.5727 3.16518C79.6779 3.162 79.783 3.15882 79.8882 3.15564C79.9421 3.3597 79.7992 3.51547 79.5863 3.6126C79.9735 3.60837 80.241 3.8069 80.3375 4.12747C80.5145 3.91924 80.7662 3.80878 81.0644 3.83717C81.0599 3.68772 81.0553 3.53827 81.0508 3.38882C80.9106 3.45289 80.7737 3.51687 80.6356 3.58088C80.7188 3.28292 80.2941 3.26772 79.996 3.24214C80.2104 3.11879 80.1734 2.89927 80.0838 2.70097C80.2248 2.69671 80.3646 2.69248 80.5045 2.68825C80.2756 3.37392 81.4167 3.39365 81.136 2.75891C81.2402 2.72584 81.3434 2.6928 81.4476 2.65973C81.454 2.86896 81.4603 3.0782 81.4666 3.28649C81.3972 3.28859 81.3256 3.29075 81.2573 3.29282C81.1198 4.59371 82.0233 3.93439 82.5748 3.47737C82.9142 3.68494 82.7651 3.92318 83.5271 3.71783C84.156 3.30709 85.7297 4.68058 85.469 3.70399C87.2336 4.35744 88.1427 4.02891 89.8308 3.84044C90.6402 3.69537 90.5179 3.84958 90.8856 3.98805C91.1385 3.92057 91.1972 3.59906 91.5567 3.60969C91.5182 3.5211 91.4808 3.43248 91.4423 3.34389C91.9595 3.18802 91.8688 3.84707 92.2987 3.85558C92.1304 3.42125 92.9646 3.37827 92.7963 2.94395C92.9708 2.93867 93.1465 2.93336 93.3199 2.92811C93.1528 3.14259 92.9835 3.35713 92.8153 3.57164C93.6219 3.36868 93.5391 4.11351 94.3964 3.79215C94.9969 3.59169 95.1538 3.72064 95.3488 4.03262C95.4108 3.67921 96.0581 3.87841 96.2328 3.73663C96.381 3.54049 96.8098 3.65281 96.815 3.89853C97.1808 3.68834 97.5954 3.76182 97.9712 3.95333C98.004 3.8925 98.038 3.83164 98.0698 3.77084C97.9659 3.74407 97.8599 3.71735 97.7527 3.69068C97.9275 3.65548 98.1 3.62035 98.2747 3.58515C98.2783 3.70471 98.2819 3.82427 98.2856 3.94383C99.0313 3.55853 100.371 4.21922 101.005 3.59235C100.972 3.65318 100.938 3.71404 100.906 3.77484C102.842 3.5929 104.812 4.02136 106.592 4.32001C106.61 4.08107 106.848 4.01217 107.108 4.03516C107.111 4.15472 107.115 4.27428 107.119 4.39384C107.393 4.35656 107.723 4.28489 107.632 4.0193C107.974 4.35864 108.607 4.12634 109.101 3.97489C109.068 4.06564 109.036 4.15636 109.004 4.24708C109.352 4.32072 109.546 3.86234 109.719 3.59813C109.773 3.77977 109.971 3.75132 110.142 3.67512C110.181 3.7936 110.218 3.91121 110.258 4.02968C110.465 3.93366 110.672 3.83766 110.879 3.74256C110.883 3.86119 110.887 3.98075 110.89 4.10031C111.099 4.09399 111.31 4.08763 111.519 4.0813C111.416 4.17415 111.315 4.26697 111.213 4.35982C112.288 3.85517 112.92 4.6672 113.938 4.18768C113.833 4.52648 114.466 4.48676 114.787 4.52006C114.659 3.65633 115.911 4.48047 116.244 4.07307C116.544 3.67882 116.83 3.85061 116.982 4.18538C116.739 4.25163 116.497 4.31879 116.254 4.38598C116.51 4.85224 117.389 4.82566 117.616 4.34478C117.446 4.42191 117.247 4.44943 117.194 4.26873C117.496 4.24744 117.973 4.30781 118.029 4.06398C118.257 4.49277 119.298 3.99194 119.304 4.56301C119.073 4.5298 118.918 4.64481 118.892 4.84471C119.44 4.68512 119.519 4.0909 120.344 4.26231C120.281 4.47364 120.217 4.685 120.154 4.89633C120.635 4.94723 121.052 4.72051 121.399 4.40993C121.509 4.58609 121.619 4.76228 121.729 4.93751C122.031 4.67317 123.109 4.67982 123.715 4.60915C123.718 4.72871 123.722 4.84734 123.726 4.9669C124.267 4.9421 124.941 4.8479 124.755 4.30845C125.558 4.17011 126.198 4.89777 126.872 4.87178C126.98 4.59549 126.226 4.71648 126.333 4.44023C126.998 4.2425 126.996 4.99704 127.607 4.84956C127.604 4.75989 127.601 4.67022 127.599 4.58149C127.907 4.64977 128.442 4.69622 128.346 5.00671C129.099 5.20647 129.645 4.36722 130.216 4.32286C130.082 4.53631 129.947 4.74981 129.815 4.9623C129.987 4.86735 130.159 4.77241 130.332 4.67743C130.367 4.99516 130.907 5.08168 131.176 4.87626C131.458 4.64524 132.081 5.15556 132.388 4.97426C132.654 4.86058 132.922 4.9553 133.177 5.04017C133.058 4.58752 134.01 4.38111 134.167 4.78583C134.379 5.2899 135.002 4.81107 135.261 4.52839C135.3 4.64687 135.339 4.76538 135.377 4.88389C135.481 4.8209 135.584 4.75797 135.687 4.69501C135.788 4.82563 135.888 4.9722 136.113 4.9065C136.441 4.81711 136.328 5.09633 136.691 4.9339C136.929 4.77431 137.603 5.04751 137.793 4.9006C138.56 4.90078 139.807 5.4474 140.523 4.9078C140.708 5.40332 141.308 5.24215 141.787 5.04816C141.684 5.11112 141.58 5.17408 141.478 5.237C144.098 5.46258 148.462 5.43534 150.848 6.11861C150.976 6.00349 151.131 5.81743 151.316 5.92591C151.458 6.07307 151.948 5.7647 152.049 5.90372C152.181 6.04187 153.701 5.80704 153.887 5.9379C154.279 6.0981 154.305 5.6046 154.507 5.56018C154.649 5.55868 155.023 5.71938 155.25 5.80697C155.05 5.85039 154.772 5.89621 154.837 6.08776C155.133 5.99842 155.452 5.97941 155.578 6.24488C155.796 5.98396 156.586 6.28732 156.823 5.75941C156.787 6.18962 157.329 6.58178 157.675 6.18146C157.603 6.48935 157.899 6.67205 158.218 6.79238C158.266 6.02802 158.897 6.85693 159.367 6.57813C159.378 6.93868 159.765 6.92138 160.11 6.82492C160.112 6.8847 160.114 6.94542 160.115 7.00426C160.22 7.00112 160.324 6.99797 160.43 6.99476C160.39 6.87628 160.353 6.75867 160.314 6.63926C160.384 6.63713 160.454 6.63503 160.523 6.63293C160.52 6.54419 160.518 6.45452 160.515 6.36485C160.73 6.49954 160.881 6.6857 160.742 6.89465C161.293 6.98455 161.376 6.51086 161.883 6.41326C161.921 6.56076 161.961 6.71006 162 6.8566C162.509 6.60561 162.494 7.22965 163.01 7.23089C163.666 7.50742 164.101 7.62421 164.416 6.87424C164.686 7.10916 165.037 7.11256 165.362 6.93539C165.395 7.23264 165.793 7.2019 166.105 7.18125C166.109 7.30081 166.112 7.41943 166.116 7.53993C166.308 7.44716 166.513 7.45595 166.642 7.61377C166.576 7.42132 166.857 7.37633 167.055 7.33204C167.057 7.42171 167.06 7.51138 167.063 7.60105C167.718 7.42604 167.746 7.92443 168.331 7.87684C168.732 7.81518 168.874 7.89875 169.072 8.0779C169.243 7.92314 169.413 7.76934 169.583 7.61368C169.587 7.76313 169.592 7.91165 169.596 8.06203C170.361 7.87997 171.184 8.4712 171.164 7.83513C171.555 8.16269 172.165 8.26109 172.754 8.32463C172.721 8.38639 172.687 8.44632 172.654 8.50715C173.205 8.42598 173.626 8.13465 174.33 8.36674C173.954 8.70159 174.49 8.99017 174.868 8.79923C174.797 8.74061 174.725 8.68389 174.654 8.62621C174.757 8.59317 174.861 8.5601 174.965 8.52703C174.967 8.58681 174.969 8.6466 174.971 8.70638C176.82 9.01414 178.651 9.62445 180.665 9.51962C180.649 9.29197 180.629 9.06913 180.909 8.92977C181.319 8.74161 180.883 8.27705 181.357 8.10941C182.095 6.494 178.894 6.02233 177.721 5.88953C176.55 5.39669 175.117 5.56061 173.922 5.28729C173.136 4.83612 171.599 4.76011 170.749 4.53151C170.788 4.6201 170.824 4.70875 170.863 4.79641C170.701 4.57692 170.382 4.71278 170.128 4.81863C170.123 4.67011 170.119 4.52066 170.114 4.37121C168.803 4.67171 168.499 3.88434 166.9 3.97568C164.527 3.80341 162.436 3.29727 160.214 3.32613C160.212 3.26635 160.21 3.20657 160.208 3.14679C159.419 3.32677 158.828 2.82484 158.213 3.11736C158.209 2.99874 158.206 2.87918 158.202 2.75962C157.27 3.15989 156.701 2.51799 155.886 2.56039C155.958 2.64796 156.031 2.7355 156.103 2.82307C155.571 2.78963 155.012 2.17172 154.525 2.69129C154.158 2.21436 153.026 2.8918 152.529 2.66189C152.713 2.54974 152.728 2.37632 152.62 2.2113C152.416 2.35957 152.293 2.39136 151.988 2.14067C151.329 1.81747 150.731 1.96456 149.882 1.93509C149.954 2.02359 150.028 2.11016 150.1 2.19774C149.709 2.10672 149.332 2.16393 149.164 2.4953C149.119 2.21152 149.191 1.94289 149.457 1.76936C149.285 1.84563 149.089 1.87398 149.035 1.69238C148.95 2.02589 148.582 2.10248 148.206 2.0755C148.141 1.88395 148.421 1.83809 148.618 1.79473C148.255 1.57664 147.693 2.1359 147.41 1.78638C147.257 1.5713 147.136 1.55906 146.932 1.57646C146.937 1.7558 146.942 1.93514 146.948 2.11355C145.744 1.90594 147.118 1.11644 145.263 1.94104C144.671 2.05991 144.761 1.48876 144.352 1.34126C144.065 1.18632 143.363 1.23651 142.932 1.24956C142.941 1.54753 142.95 1.84643 142.959 2.1444C142.881 1.84853 142.801 1.55176 142.722 1.25592C142.218 1.85454 141.168 0.606389 141.261 1.56841C141.74 1.47353 142.101 1.71037 142.326 2.0747C141.972 2.07701 141.276 2.18032 141.218 1.83896C141.177 1.6607 141.035 1.5902 140.791 1.6275C140.316 1.73533 140.39 1.44982 139.999 1.51679C140.223 1.93263 139.078 2.14395 139.062 1.72465C139.329 1.6904 139.441 1.49068 139.467 1.26458C139.364 1.32751 139.261 1.39047 139.158 1.45342C139.007 1.01951 138.583 0.881811 138.096 1.03677C138.273 1.12116 138.45 1.20556 138.629 1.28992C138.49 1.35396 138.353 1.41793 138.213 1.48197C138.251 1.53974 138.286 1.5985 138.325 1.65717C138.02 1.72062 137.815 1.58097 137.79 1.31529C137.65 1.37933 137.513 1.4433 137.374 1.50734C137.308 0.68194 136.495 0.994477 135.89 1.01463C135.571 0.921458 135.431 1.04721 135.266 1.21209C134.995 0.932326 134.325 0.538399 134.104 0.97795C133.996 0.892393 133.889 0.805901 133.782 0.719377C133.485 1.85959 132.925 0.201152 132.321 1.0328C132.228 1.22166 132.085 1.22599 131.907 1.22389C131.903 1.10433 131.9 0.985704 131.896 0.866144C131.277 1.07931 131.316 0.669582 130.577 0.681629C129.752 0.382157 128.94 1.79787 128.849 0.778773C128.501 0.742526 128.211 0.859763 128.126 1.15871C128.23 1.15557 128.335 1.15239 128.44 1.14921C128.442 1.20899 128.444 1.26877 128.445 1.32854C128.197 1.34072 127.081 1.32117 126.967 1.06005C126.672 0.821204 126.505 0.607487 125.956 0.596983C125.46 0.527832 124.098 1.67968 124.854 0.630284C124.115 0.54699 124.023 0.868588 123.343 0.990116C122.859 1.14497 122.088 0.528818 121.703 0.59186C121.348 0.694215 121.224 1.30942 120.819 0.842047C120.64 0.557633 119.734 1.07584 119.557 0.79043C119.399 0.604503 119.194 0.615367 118.974 0.629493C118.976 0.689273 118.978 0.748121 118.98 0.8079C118.698 0.756577 118.417 0.705251 118.135 0.654861C118.188 0.852408 118.061 0.987142 117.831 1.02214C117.897 0.900454 117.964 0.779699 118.03 0.65804C117.821 0.664366 117.611 0.670725 117.401 0.677051C117.41 0.886216 117.454 1.16909 117.207 1.2205C117.131 1.01336 117.055 0.806263 116.979 0.600064C116.711 0.634347 116.601 0.834007 116.572 1.0602C116.193 0.751925 115.627 1.01866 115.307 0.875011C115.196 0.667994 114.802 0.924847 114.725 0.713078C114.671 0.562333 114.498 0.582519 114.354 0.589681C114.461 0.676204 114.57 0.762664 114.676 0.849188C114.218 0.773284 113.763 0.697312 113.304 0.621409C113.274 0.771907 113.244 0.921476 113.213 1.07201C112.757 0.642634 111.007 1.20415 110.787 0.697516C109.816 0.798872 108.337 0.928676 107.325 0.802203C107.327 0.861983 107.328 0.921765 107.33 0.981545C107.059 0.994409 106.652 0.951559 106.602 1.18214C106.46 0.523561 104.402 0.651221 104.187 1.16633C104.265 0.627328 102.388 0.633591 102.29 0.954418C102.016 0.799085 101.714 0.807295 101.451 0.979786C101.406 0.694143 98.4336 1.01586 98.4011 0.802749C98.4038 0.892419 98.4065 0.982087 98.4092 1.07176C98.2674 1.04613 98.1277 1.02044 97.9859 0.994807C98.0994 1.23072 98.2106 1.46575 98.323 1.70169C98.1476 1.67708 97.971 1.6525 97.7967 1.62785C98.2133 1.0515 96.516 0.684914 96.8433 1.38836C96.5908 1.18377 96.2989 0.89716 95.9917 0.965347C95.9953 1.08491 95.9989 1.20447 96.0025 1.32403C95.681 0.916776 94.9183 0.991257 94.3125 1.01612C94.4539 1.10159 94.5976 1.187 94.7401 1.27244C94.3521 1.28604 94.2477 1.6024 94.2355 1.91503C94.1265 1.82857 94.0187 1.74208 93.9119 1.65556C93.9538 1.89363 93.9957 2.1317 94.0387 2.36881C93.7198 2.22886 93.3998 2.08988 93.0809 1.94994C93.5665 2.50649 92.7593 2.83288 92.663 2.05233C92.4925 2.11732 92.3165 2.18247 92.1448 2.24656C92.2792 2.063 92.4148 1.88033 92.5481 1.69679C92.2486 1.62544 92.0576 1.4433 92.1123 1.17239C92.0072 1.17557 91.902 1.17875 91.798 1.1819C92.208 1.78748 90.6202 1.84764 90.8554 1.30014C90.5567 1.50737 90.1687 1.44992 89.807 1.33184C90.3159 2.12142 88.1324 2.00326 89.6021 1.51754C89.2714 0.770256 88.5463 1.37276 87.969 1.29766C87.2105 1.01113 86.881 1.8111 86.3605 1.92875C86.1508 1.8846 86.102 1.95713 86.049 2.07279C85.8907 1.86068 86.0563 1.63129 86.2404 1.43967C85.9968 1.52838 85.7623 1.66729 85.8355 1.89974C85.0326 2.08202 84.8193 1.56117 84.14 1.41343C84.0769 1.62476 84.0128 1.83611 83.9486 2.04654C84.0897 2.01236 84.2254 1.97834 84.3665 1.94416C84.4372 2.16266 83.9916 2.28458 83.7502 2.41155C84.0602 2.43397 84.3673 2.50695 84.495 2.74711C84.0649 2.7358 83.6324 2.78627 83.3496 3.05099C83.1511 2.87375 83.506 2.48064 83.6397 2.23539C83.5347 2.20864 83.4286 2.18193 83.3226 2.15522C83.2844 2.3284 83.2439 2.56803 83.019 2.52248C82.8108 2.02578 83.9367 2.19181 83.7286 1.69512C83.6234 1.6983 83.5183 1.70148 83.4142 1.70463C83.4124 1.64485 83.4106 1.58507 83.4088 1.52529C83.0512 1.61556 82.6744 1.64005 82.458 1.37453C82.4625 1.52398 82.4671 1.67343 82.4716 1.82288C81.8045 1.90382 81.1881 1.79063 80.7783 1.33556C80.8148 1.39429 80.8512 1.45303 80.8877 1.51176ZM70.3448 1.78564C70.3393 1.9999 69.3035 1.69278 69.2981 1.90704C69.2403 2.078 68.856 2.10739 68.623 2.15183C68.7317 2.26728 68.8405 2.38366 68.9492 2.50004C69.0864 2.40614 69.2235 2.31224 69.3607 2.21928C69.367 2.42757 69.3733 2.63681 69.3797 2.84604C68.9787 2.64687 68.4981 2.36316 68.1064 2.43577C68.8788 2.07117 67.5406 1.55723 67.5774 2.27319C67.5302 1.78846 66.21 1.83586 66.2109 2.22476C66.9261 2.1218 67.2247 2.59612 68.0023 2.43892C67.8864 3.05386 68.2605 3.37164 68.9736 3.30614C68.6331 3.41927 68.6973 3.74922 68.785 4.02892C68.0755 4.07 67.8512 3.47002 67.2464 3.49298C66.7542 3.54339 66.7278 3.9247 66.2569 3.74635C66.288 3.62667 66.3191 3.50606 66.3501 3.38546C65.6183 4.15739 64.133 3.26644 65.2775 2.61105C64.9924 2.44017 64.7073 2.27022 64.4222 2.09933C64.4249 2.189 64.4276 2.27867 64.4303 2.36835C63.9447 2.09694 63.5675 2.57767 63.1131 2.22866C62.7197 2.17137 60.498 2.76397 60.2392 2.67363C59.952 3.22363 60.2849 3.6109 60.9043 3.81936C60.0926 3.9963 60.1005 3.18361 59.5215 3.23291C59.7226 2.9585 59.9248 2.68313 60.1259 2.40873C58.7725 2.72078 57.2363 2.62044 56.1598 3.15598C56.1918 3.06526 56.2238 2.97453 56.2557 2.88382C55.7416 2.67498 55.5678 3.20566 55.8552 3.52326C55.6292 3.47774 55.5909 3.71823 55.5516 3.89144C54.8823 3.75461 55.2578 3.14585 55.5164 2.72667C55.3793 2.82057 55.2421 2.91446 55.105 3.00836C55.1023 2.91869 55.0996 2.82902 55.0969 2.73935C53.6501 2.58302 55.1617 4.52495 53.8924 4.56894C53.887 4.3896 53.8816 4.21026 53.8762 4.03185C53.7025 4.06702 53.5278 4.10222 53.3542 4.13645C53.2763 3.89292 53.8105 3.90482 54.08 3.84619C53.932 3.43649 53.5583 3.28137 53.1249 3.51605C53.1213 3.39649 53.1177 3.27787 53.1141 3.15831C52.8078 3.32837 52.5459 2.99224 52.2777 3.27335C52.3108 3.1826 52.3427 3.09187 52.3747 3.00116C51.0026 2.90895 51.4753 5.9481 49.8575 3.07726C49.6247 3.34421 49.3051 3.5044 48.9241 3.4645C48.9259 3.52428 48.9277 3.58312 48.9295 3.6429C48.8572 3.58525 48.786 3.52757 48.7138 3.47085C48.6133 3.59263 48.5118 3.71536 48.4102 3.8381C48.5483 3.7741 48.6863 3.71009 48.8243 3.64608C48.8635 3.79448 48.9038 3.94285 48.943 4.09125C48.8023 4.06559 48.6615 4.03993 48.5208 4.01427C48.4897 4.13488 48.4575 4.25458 48.4265 4.37519C47.9868 4.01078 47.7023 3.53696 48.2861 3.21452C47.3608 3.11348 47.1282 3.92641 46.3071 3.72218C46.34 3.66136 46.3729 3.60053 46.4069 3.5406C45.7675 3.78338 45.1486 3.33837 44.7276 3.59137C44.8364 3.70682 44.9451 3.8232 45.0539 3.93958C44.6439 3.83885 43.756 3.7909 43.6766 3.5334C43.4033 3.75295 43.0939 3.96238 42.7432 3.91969C42.7743 3.79908 42.8054 3.67941 42.8375 3.55877C42.7929 3.76954 42.5231 3.71131 42.3155 3.6643C42.3977 4.19378 42.9276 4.74339 43.4988 4.61393C43.5015 4.7036 43.5042 4.79327 43.5069 4.88294C43.6467 4.87871 43.7866 4.87448 43.9264 4.87025C43.8598 4.96202 43.792 5.05382 43.7253 5.14466C43.5509 4.90498 43.0225 5.04811 42.6732 5.08765C42.7025 4.90726 42.7329 4.72684 42.7621 4.54645C42.4833 4.58479 42.2045 4.62314 41.9257 4.66149C41.9239 4.60171 41.9221 4.54193 41.9203 4.48215C41.8152 4.48533 41.71 4.4885 41.6059 4.49165C41.8965 4.9148 40.7969 5.15092 40.6671 4.69954C40.9118 4.60987 41.1453 4.47286 41.0731 4.23944C40.5344 4.25853 40.2737 3.7466 39.5961 4.01484C39.6605 4.24288 40.0631 4.17462 40.3354 4.17199C39.9491 4.60065 39.6438 4.51452 39.1887 4.43011C38.8452 4.51716 38.7056 3.81084 38.3347 3.96322C38.407 4.02087 38.4782 4.07856 38.5505 4.13621C38.4453 4.13939 38.3402 4.14257 38.235 4.14574C38.2368 4.20553 38.2386 4.26531 38.2404 4.32509C37.9034 4.33808 37.4257 4.40114 37.3932 4.08144C36.9876 4.30219 36.7057 4.16767 36.3942 4.02189C35.8079 4.33225 34.6109 4.576 34.0558 4.80968C33.9806 5.04755 34.5489 5.07524 34.8006 5.14617C34.6261 5.15144 34.4505 5.15675 34.2759 5.16203C34.3847 5.27841 34.4935 5.39386 34.6022 5.51024C34.1017 5.64504 33.4938 5.56432 32.9203 5.47134C33.0932 5.3773 33.265 5.28235 33.4369 5.1874C33.1014 4.42623 32.1704 4.82274 31.6292 4.43522C31.4581 4.73302 31.7268 4.90066 32.0649 4.95962C31.9983 5.05139 31.9305 5.14319 31.8638 5.23496C31.4262 4.6863 29.0978 4.15181 29.023 5.05159C28.8209 4.82585 28.5066 4.7671 28.1758 4.80888C28.1341 5.00835 28.2714 5.13602 28.501 5.15713C28.2949 5.40924 28.3482 5.69933 28.5254 5.96322C28.4211 5.99629 28.318 6.02933 28.2137 6.0624C28.3901 6.1169 28.5675 6.17137 28.7438 6.22587C28.7393 6.07642 28.7348 5.92697 28.7303 5.77752C28.8343 5.77438 28.9395 5.7712 29.0447 5.76802C28.6187 6.57371 29.4882 6.83725 29.4132 7.55005C29.5184 7.54687 29.6235 7.54369 29.7287 7.54051C29.3934 7.1103 29.8357 6.81084 29.7948 6.28292C29.7254 6.28501 29.655 6.28714 29.5856 6.28924C29.9183 4.98245 30.1825 6.79382 29.9325 7.35484C30.5326 7.24882 30.3486 5.75758 31.0437 5.88708C31.0473 6.18521 31.1458 6.67961 30.7526 6.70272C30.8276 6.85004 30.9015 6.99646 30.9764 7.14378C31.0404 6.96234 31.1055 6.78181 31.1694 6.60037C31.5914 6.77646 32.0111 6.69552 32.3186 6.38612C32.356 6.76176 31.5113 7.28467 32.3456 7.28188C32.3438 7.2221 32.342 7.16233 32.3402 7.10255C32.9217 7.34955 33.6972 7.19428 33.3723 6.53377C33.3815 7.16082 35.9779 7.29735 35.4738 6.55998C36.282 6.30181 36.6708 7.17449 37.2625 6.6854C37.0222 6.55898 36.77 6.40112 36.8256 6.1601C37.2447 6.16613 37.5934 6.39399 37.8913 6.66639C37.9937 6.57354 38.0962 6.48069 38.1987 6.38784C38.0141 7.21148 39.7571 6.89981 39.8768 6.33711C40.5612 6.75956 40.8924 5.90532 41.6655 6.46253C41.7111 6.10401 41.0597 6.019 41.2189 5.57944C41.6194 5.76273 42.3036 5.96175 42.1864 6.35702C42.0466 6.36125 41.9067 6.36548 41.7669 6.36971C42.0191 6.9595 43.5249 6.41192 42.5951 5.98566C42.8397 5.7838 43.5689 5.78513 43.5448 6.13645C43.6828 6.07245 43.8209 6.00844 43.9589 5.94443C43.9974 6.03302 44.0348 6.12164 44.0722 6.21026C44.2075 6.05658 44.3429 5.9029 44.4782 5.75016C44.5532 5.89654 44.6271 6.0439 44.702 6.19122C45.0136 6.05185 45.2972 5.85068 45.2078 5.5486C45.6976 5.67029 45.9259 6.22246 46.9076 6.21428C46.8995 5.94527 46.8914 5.6772 46.8832 5.40819C47.2508 5.54199 47.3158 5.82704 47.1141 6.11829C47.3457 5.98975 47.6056 5.90149 47.8464 6.0064C47.8134 6.09715 47.7814 6.18787 47.7494 6.27858C49.5759 6.21588 47.4638 4.69225 48.4346 4.6442C48.2887 5.0581 49.1123 5.3464 48.6828 5.89136C49.0982 5.95733 48.9597 5.538 49.4633 5.68825C49.8206 5.77001 49.8822 5.68775 49.9306 5.49556C50.4986 5.87105 51.3397 4.97895 51.2673 4.55855C51.3725 4.55537 51.4765 4.55223 51.5817 4.54905C51.3822 4.91315 51.1838 5.27816 50.9843 5.64227C51.1937 5.60695 51.4021 5.5698 51.6115 5.53449C51.6142 5.62322 51.6169 5.71289 51.6196 5.80257C51.863 5.8513 51.936 5.5359 52.0256 5.34246C52.0274 5.40225 52.0292 5.46202 52.031 5.5218C52.5061 5.30082 53.045 5.96983 53.3921 5.3909C53.4813 6.00993 54.5355 5.74152 54.3309 5.18301C54.5777 5.23539 54.8234 5.28779 55.0702 5.34017C54.8022 5.01731 54.9682 4.65515 55.2508 4.34837C55.075 5.02963 55.8556 5.33325 56.5473 5.56383C56.6998 5.40589 56.5064 5.28926 56.3261 5.21244C56.5829 4.91205 56.4522 4.10729 55.9711 3.87876C56.6973 3.56231 57.2546 4.5533 57.9799 4.3556C57.9763 4.23604 57.9727 4.11648 57.9691 3.99692C58.2781 3.91746 58.3614 4.19542 58.4022 4.43259C58.2276 4.43787 58.0531 4.44314 57.8786 4.44842C57.5642 5.24793 58.9322 5.88345 59.4787 5.29663C59.0799 5.27877 58.3213 4.95111 58.9895 4.72803C59.4134 4.89565 60.0018 5.12375 60.7291 4.98957C60.7138 5.9184 61.7122 4.95423 62.0821 4.58965C61.9413 4.56493 61.8006 4.53833 61.6599 4.5136C61.996 5.11674 60.7061 4.94632 60.6622 4.49889C60.5726 4.15287 61.1561 4.00061 61.004 3.63685C61.0734 3.63475 61.1439 3.63262 61.2132 3.63052C61.1384 3.45328 61.0625 3.27607 60.9878 3.09976C61.3012 3.06036 61.6147 3.02097 61.9282 2.98157C61.9309 3.07124 61.9336 3.15998 61.9363 3.24965C62.1433 3.27798 62.3656 3.09269 62.5581 2.96253C62.6297 3.21373 63.1035 3.05916 63.3998 3.02683C63.465 3.31562 63.4382 3.93628 63.8437 3.81931C63.7925 4.53046 62.6957 4.46452 62.8295 5.01582C63.0549 5.29322 64.026 4.78611 64.353 5.01463C65.1885 5.26704 64.9425 4.45175 64.691 4.06295C64.9387 4.14521 65.1864 4.22748 65.4341 4.30974C65.2624 4.01482 65.3955 3.60784 65.8347 3.67029C65.7696 3.85083 65.7056 4.03227 65.6406 4.21374C66.461 3.89257 66.5744 5.09612 67.3431 4.9691C67.2612 4.55648 67.1267 3.94911 67.7329 3.97098C67.6716 4.24209 67.6093 4.51229 67.548 4.7834C68.4159 4.45331 68.949 4.85978 69.6511 4.89932C69.6484 4.80965 69.6457 4.71998 69.643 4.63031C68.652 4.72665 69.1581 4.0943 69.8344 3.99719C69.8032 4.22158 69.8852 4.42105 70.1623 4.43511C70.2513 4.04069 70.2129 3.05831 70.5385 2.98956C70.6432 3.25753 70.7562 3.58694 71.0821 3.60046C71.1678 3.31178 71.2378 2.89737 71.5852 2.86817C71.3375 2.78684 71.0898 2.70458 70.8421 2.62231C71.2223 2.49395 71.7994 2.34562 71.6622 1.97019C71.7782 2.25464 72.0694 2.41131 72.4134 2.48505C72.3654 2.5828 72.3227 2.67758 72.1552 2.62749C71.4858 2.6309 71.9832 3.46944 71.5044 3.67744C71.734 3.69855 71.8713 3.82622 71.8296 4.02662C72.398 3.80469 72.6161 3.4447 72.692 3.01421C72.5642 2.62821 73.0856 2.78915 73.3685 2.81425C73.2312 2.93807 73.0949 3.06186 72.9587 3.18565C73.1022 3.30098 73.2457 3.41631 73.3902 3.53068C73.7085 3.07697 74.4345 3.07933 74.4439 3.67832C74.4741 3.52783 74.5053 3.37823 74.5355 3.22773C74.6763 3.25339 74.817 3.27905 74.9578 3.30471C74.8938 3.48522 74.8287 3.66669 74.7637 3.84816C74.9026 3.81404 75.0427 3.77989 75.1816 3.74577C75.1843 3.83544 75.187 3.92511 75.1898 4.01478C74.9576 3.9816 74.8048 4.09654 74.7772 4.29558C74.5662 4.24212 74.3541 4.1887 74.1431 4.13618C74.2088 4.01452 74.2757 3.89283 74.3414 3.77117C74.0609 3.74974 73.7802 3.72831 73.4996 3.70687C73.5493 3.8774 73.602 4.11421 73.826 4.05601C73.7956 4.2355 73.7663 4.41589 73.7371 4.59628C74.0624 4.55372 74.9874 4.64169 75.0927 4.28604C75.1838 3.85509 75.9696 3.9323 76.3459 4.06958C76.0015 3.69667 77.617 2.82884 77.3466 2.42566C77.5611 3.09699 78.797 2.45285 79.4416 2.27256C79.524 2.66554 78.5824 3.10444 79.0599 3.53876C79.1337 2.49784 81.0305 1.35131 78.5863 1.76084C78.3351 1.95823 78.2461 1.6711 78.3678 1.49819C78.1576 1.47463 77.9464 1.4511 77.7363 1.42753C77.7381 1.48731 77.7399 1.5471 77.7417 1.60688C77.2157 1.61343 77.1944 2.70419 76.405 2.54388C76.5404 2.3902 76.6757 2.23652 76.811 2.08284C76.2559 0.87675 74.89 2.17551 73.7528 1.63772C73.8146 1.92288 73.7061 2.17204 73.3496 2.18749C73.387 2.27612 73.4243 2.36474 73.4617 2.45336C73.3577 2.4565 73.2525 2.45968 73.1474 2.46286C73.2115 2.2515 73.2746 2.04111 73.3387 1.82975C72.887 1.96307 72.4364 2.09637 71.9858 2.22873C72.0169 2.10905 72.048 1.98844 72.079 1.86783C71.8504 1.91495 71.6909 1.80851 71.6513 1.61151C71.4816 1.92049 70.5126 1.55712 70.3448 1.78564Z" fill="#7BB123"/>
</svg>
